<?xml version="1.0" standalone="no"?>
<!DOCTYPE svg PUBLIC "-//W3C//DTD SVG 1.1//EN" "http://www.w3.org/Graphics/SVG/1.1/DTD/svg11.dtd" >
<svg xmlns="http://www.w3.org/2000/svg" xmlns:xlink="http://www.w3.org/1999/xlink" version="1.1">
<metadata>
Created by FontForge 20150318 at Sat Oct 10 07:36:37 2015
 By uniteet7
Copyright (c) 2011 by Goran Soderstrom. All rights reserved.
</metadata>
<defs>
<font id="SiriLight" horiz-adv-x="592" >
  <font-face 
    font-family="SiriLight"
    font-weight="300"
    font-stretch="normal"
    units-per-em="1000"
    panose-1="2 0 0 0 0 0 0 0 0 0"
    ascent="750"
    descent="-250"
    x-height="502"
    cap-height="700"
    bbox="-147 -217 1149 881"
    underline-thickness="41"
    underline-position="-68"
    unicode-range="U+0020-FB04"
  />
<missing-glyph horiz-adv-x="612" 
d="M93 -100v900h426v-900h-426zM145 -68h322v835h-322v-835z" />
    <glyph glyph-name="ff" unicode="ff" horiz-adv-x="593" 
d="M99 0v468h-74v34h74v48q0 83 35 117.5t101 34.5q42 0 58 -7q1 -6 1 -15q0 -16 -2 -22q-16 10 -52 10q-47 0 -64 -26t-17 -92v-48h224v58q0 83 35 117.5t102 34.5q44 0 60 -7q1 -3 1 -14q0 -17 -2 -23q-20 10 -54 10q-47 0 -64.5 -26t-17.5 -92v-58h127v-34h-127v-362
q0 -92 7 -106h-67v468h-224v-468h-60z" />
    <glyph glyph-name="fi" unicode="fi" horiz-adv-x="520" 
d="M99 0v468h-74v34h74v33q0 98 54.5 137.5t150.5 39.5q85 0 113 -13q0 -1 0.5 -4.5t0.5 -6.5q0 -22 -2 -28q-36 18 -111 18q-79 0 -112.5 -32t-33.5 -109v-35h217q34 0 67 5v-401q0 -92 7 -106h-67v468h-224v-468h-60z" />
    <glyph glyph-name="fl" unicode="fl" horiz-adv-x="514" 
d="M99 0v468h-74v34h74v58q0 83 35 117.5t102 34.5q42 0 58 -7q1 -4 1 -15q0 -16 -2 -22q-20 10 -53 10q-47 0 -64 -26t-17 -92v-58h126v-34h-126v-468h-60zM377 0v702q26 0 60 5v-601q0 -94 7 -106h-67z" />
    <glyph glyph-name="ffi" unicode="ffi" horiz-adv-x="805" 
d="M99 0v468h-74v34h74v48q0 83 35 117.5t101 34.5q42 0 58 -7q0 -1 0.5 -5.5t0.5 -6.5q0 -19 -2 -25q-16 10 -52 10q-47 0 -64 -26t-17 -92v-48h224v33q0 98 54.5 137.5t150.5 39.5q86 0 114 -13q1 -5 1 -16q0 -17 -2 -23q-40 18 -111 18q-79 0 -113 -32t-34 -109v-35h222
q31 0 63 5v-401q0 -94 7 -106h-67v468h-225v-468h-60v468h-224v-468h-60z" />
    <glyph glyph-name="ffl" unicode="ffl" horiz-adv-x="799" 
d="M99 0v468h-74v34h74v48q0 83 35 117.5t101 34.5q42 0 58 -7q0 -1 0.5 -5.5t0.5 -6.5q0 -19 -2 -25q-16 10 -52 10q-47 0 -64 -26t-17 -92v-48h224v58q0 83 35.5 117.5t101.5 34.5q43 0 59 -7q1 -6 1 -15q0 -16 -2 -22q-20 10 -53 10q-47 0 -64.5 -26t-17.5 -92v-58h127
v-34h-127v-468h-60v468h-224v-468h-60zM662 0v702q26 0 60 5v-601q0 -94 6 -106h-66z" />
    <glyph glyph-name="f_j" unicode="fj" horiz-adv-x="520" 
d="M383 -64v532h-224v-468h-60v468h-74v34h74v33q0 98 54.5 137.5t150.5 39.5q85 0 113 -13q0 -1 0.5 -4.5t0.5 -6.5q0 -22 -2 -28q-36 18 -111 18q-79 0 -112.5 -32t-33.5 -109v-35h231q18 0 53 5v-577q0 -74 -28.5 -103.5t-93.5 -29.5q-27 0 -47 5q-2 6 -2 15q0 15 3 22
q18 -6 42 -6q42 0 54 22.5t12 80.5z" />
    <glyph glyph-name=".notdef" horiz-adv-x="612" 
d="M93 -100v900h426v-900h-426zM145 -68h322v835h-322v-835z" />
    <glyph glyph-name=".null" horiz-adv-x="0" 
 />
    <glyph glyph-name="nonmarkingreturn" horiz-adv-x="333" 
 />
    <glyph glyph-name="space" unicode=" " horiz-adv-x="219" 
 />
    <glyph glyph-name="exclam" unicode="!" horiz-adv-x="242" 
d="M101 147l-13 553q9 6 33 6q25 0 32 -6l-13 -553h-39zM121 -5q-17 0 -28 11.5t-11 27.5q0 17 11 28t28 11t28 -11t11 -28q0 -16 -11 -27.5t-28 -11.5z" />
    <glyph glyph-name="quotedbl" unicode="&#x22;" horiz-adv-x="340" 
d="M81 511l-17 196q14 4 33 4q17 0 31 -4l-16 -196q-6 -3 -16 -3t-15 3zM229 511l-17 196q14 4 33 4q17 0 31 -4l-16 -196q-6 -3 -16 -3t-15 3z" />
    <glyph glyph-name="numbersign" unicode="#" 
d="M101 0v5l35 214h-77v37h83l27 171h-76v37h82l35 212h47v-5l-34 -207h184l35 212h47v-5l-34 -207h78v-37h-84l-28 -171h78v-37h-84l-35 -219h-47v5l35 214h-185l-35 -219h-47zM189 256h185l27 171h-184z" />
    <glyph glyph-name="dollar" unicode="$" 
d="M289 -113v101q-164 7 -210 144q19 19 57 19q9 -23 17.5 -40t27.5 -40.5t51 -36.5t74 -13q67 0 106.5 40.5t39.5 107.5q0 47 -26 80t-64.5 49t-83.5 34.5t-83.5 36.5t-64.5 55t-26 90q0 71 49 121t136 54v101h33v-102q82 -5 125.5 -44t56.5 -85q-16 -14 -56 -16
q-34 113 -148 113q-62 0 -99 -36.5t-37 -102.5q0 -48 36 -79.5t87 -50t102 -39.5t87 -64t36 -108q0 -75 -49 -128t-141 -59v-102h-33z" />
    <glyph glyph-name="percent" unicode="%" horiz-adv-x="842" 
d="M180 0v5l439 695h45v-5l-438 -695h-46zM208 347q-74 0 -114.5 48t-40.5 132q0 82 40.5 130.5t114.5 48.5t114 -48t40 -131q0 -84 -40 -132t-114 -48zM208 370q97 0 97 157q0 155 -97 155q-96 0 -96 -155q0 -157 96 -157zM635 -7q-74 0 -114.5 48t-40.5 132
q0 82 40.5 130.5t114.5 48.5t114 -48t40 -131q0 -84 -40 -132t-114 -48zM635 16q97 0 97 157q0 155 -97 155q-96 0 -96 -155q0 -157 96 -157z" />
    <glyph glyph-name="ampersand" unicode="&#x26;" horiz-adv-x="602" 
d="M515 0l-55 64q-78 -76 -195 -76q-104 0 -160.5 52.5t-56.5 132.5q0 69 41 115t112 83q-50 58 -75.5 101.5t-25.5 91.5q0 60 43.5 104t126.5 44q85 0 126.5 -42.5t41.5 -106.5q0 -60 -39 -108.5t-120 -92.5l184 -217q37 73 48 174q4 1 14 1q32 0 45 -9q-17 -123 -74 -204
l87 -102v-5h-68zM432 97l-207 245q-115 -58 -115 -168q0 -71 42 -111t118 -40q101 0 162 74zM253 393q75 40 101.5 81t26.5 89q0 117 -109 117q-52 0 -82.5 -27.5t-30.5 -78.5q0 -43 22.5 -83t71.5 -98z" />
    <glyph glyph-name="quotesingle" unicode="'" horiz-adv-x="193" 
d="M81 511l-17 196q14 4 33 4q17 0 31 -4l-16 -196q-6 -3 -16 -3t-15 3z" />
    <glyph glyph-name="parenleft" unicode="(" horiz-adv-x="420" 
d="M366 -171v-32q-134 7 -206 131.5t-72 326.5q0 201 72 325t206 131v-32q-71 -5 -119.5 -64.5t-70 -151t-21.5 -209.5t21.5 -209.5t70.5 -151t119 -64.5z" />
    <glyph glyph-name="parenright" unicode=")" horiz-adv-x="420" 
d="M54 -203v32q70 5 119 64.5t70.5 151t21.5 209.5t-21.5 209.5t-70 151t-119.5 64.5v32q134 -7 206 -131t72 -325q0 -202 -72 -326.5t-206 -131.5z" />
    <glyph glyph-name="asterisk" unicode="*" horiz-adv-x="443" 
d="M100 434l108 119l-158 34v2q0 30 16 46l146 -65l-16 160q10 4 25 4q14 0 26 -4l-16 -160l145 65q16 -14 16 -44v-4l-157 -33l108 -120q-5 -9 -18.5 -19t-23.5 -11l-80 137l-80 -137q-10 1 -23 11.5t-18 18.5z" />
    <glyph glyph-name="plus" unicode="+" 
d="M273 62v216h-214v43h214v215h45v-215h215v-43h-215v-216h-45z" />
    <glyph glyph-name="comma" unicode="," horiz-adv-x="187" 
d="M51 -88q19 14 32 37t15 44q-18 1 -29.5 12t-11.5 28t10.5 28t28.5 11q20 0 31.5 -13.5t11.5 -35.5q0 -45 -22.5 -81t-44.5 -44q-7 0 -13.5 4.5t-7.5 9.5z" />
    <glyph glyph-name="hyphen" unicode="-" horiz-adv-x="375" 
d="M59 274v50h256v-50h-256z" />
    <glyph glyph-name="period" unicode="." horiz-adv-x="175" 
d="M88 -6q-17 0 -28 11.5t-11 27.5q0 17 11 28t28 11t27.5 -11t10.5 -28q0 -16 -10.5 -27.5t-27.5 -11.5z" />
    <glyph glyph-name="slash" unicode="/" horiz-adv-x="433" 
d="M53 -140v5l278 875h49v-5l-279 -875h-48z" />
    <glyph glyph-name="zero" unicode="0" horiz-adv-x="585" 
d="M293 -12q-121 0 -183.5 94t-62.5 256t62.5 256.5t183.5 94.5q120 0 182.5 -94.5t62.5 -256.5t-63 -256t-182 -94zM293 22q92 0 134 80t42 236t-42 236t-134 80q-177 0 -177 -317q0 -315 177 -315z" />
    <glyph glyph-name="one" unicode="1" horiz-adv-x="434" 
d="M58 0v37h139v588l-139 -40v36q7 2 38.5 12.5t70 24t53.5 18.5h39v-639h129v-37h-330z" />
    <glyph glyph-name="two" unicode="2" horiz-adv-x="543" 
d="M40 0v36q10 9 48.5 39.5t59 48t59 52t61.5 60t52.5 62t45.5 68t28 69t12 73.5q0 67 -35 106.5t-106 39.5q-116 0 -159 -123q-40 0 -54 18q54 140 215 140q99 0 153.5 -50t54.5 -134q0 -61 -29 -122.5t-84.5 -120.5t-110.5 -106t-131 -103v-2h375v-51h-455z" />
    <glyph glyph-name="three" unicode="3" horiz-adv-x="527" 
d="M171 336v36h31q179 0 179 153q0 129 -139 129q-105 0 -148 -84q-37 6 -49 22q23 42 73 69.5t126 27.5q96 0 150.5 -44.5t54.5 -122.5q0 -68 -40 -108.5t-101 -54.5v-2q69 -11 114 -52t45 -119q0 -90 -61 -144t-165 -54q-81 0 -135 29t-74 68q13 18 49 26q49 -88 159 -88
q76 0 117 43.5t41 115.5q0 74 -46 114t-151 40h-30z" />
    <glyph glyph-name="four" unicode="4" horiz-adv-x="561" 
d="M37 172v41l329 463h69v-459h85v-45h-85v-172h-62v172h-336zM91 217h282v202q0 159 1 201h-2q-28 -50 -122 -180z" />
    <glyph glyph-name="five" unicode="5" horiz-adv-x="525" 
d="M65 333l12 343h377v-51h-336l-9 -250q53 45 151 45q106 0 162 -58t56 -151q0 -103 -63 -163t-170 -60q-74 0 -127 28.5t-74 69.5q15 17 49 26q18 -37 57.5 -63t96.5 -26q77 0 119.5 48t42.5 133q0 75 -37 125.5t-121 50.5q-90 0 -142 -47h-44z" />
    <glyph glyph-name="six" unicode="6" horiz-adv-x="571" 
d="M131 330q27 33 77 56t108 23q103 0 153 -57.5t50 -143.5q0 -94 -57.5 -157t-161.5 -63q-116 0 -177 89.5t-61 247.5q0 170 64 267t184 97q68 0 120.5 -34.5t77.5 -105.5q-19 -17 -59 -19q-37 125 -141 125q-84 0 -130 -80.5t-47 -244.5zM131 290q5 -137 46.5 -202.5
t125.5 -65.5q78 0 113.5 50.5t35.5 129.5q0 82 -37 126.5t-112 44.5q-106 0 -172 -83z" />
    <glyph glyph-name="seven" unicode="7" horiz-adv-x="487" 
d="M120 0v5l299 620h-388v51h434v-44l-276 -632h-69z" />
    <glyph glyph-name="eight" unicode="8" horiz-adv-x="553" 
d="M197 359v2q-58 17 -89.5 57.5t-31.5 97.5q0 76 54.5 124.5t146.5 48.5t145.5 -48t53.5 -124q0 -57 -31.5 -98t-88.5 -58v-2q70 -18 108 -63t38 -113q0 -88 -59 -141.5t-167 -53.5q-107 0 -166.5 54t-59.5 141q0 68 38 113t109 63zM276 22q76 0 116.5 41.5t40.5 118.5
q0 78 -41 119t-116 41t-116 -41.5t-41 -118.5q0 -78 41 -119t116 -41zM276 376q63 0 99 38t36 105q0 65 -35 100.5t-100 35.5q-64 0 -99.5 -35.5t-35.5 -99.5q0 -67 36 -105.5t99 -38.5z" />
    <glyph glyph-name="nine" unicode="9" horiz-adv-x="571" 
d="M122 143q37 -121 143 -121q170 0 174 313q-27 -34 -76 -56.5t-108 -22.5q-99 0 -150.5 62t-51.5 149q0 93 57 157.5t161 64.5q121 0 179.5 -91.5t58.5 -249.5q0 -167 -64 -263.5t-183 -96.5q-148 0 -198 137q22 16 58 18zM438 376q-2 138 -42 208.5t-126 70.5
q-76 0 -113 -50.5t-37 -131.5q0 -84 38 -132.5t112 -48.5q104 0 168 84z" />
    <glyph glyph-name="colon" unicode=":" horiz-adv-x="214" 
d="M107 -6q-17 0 -28 11.5t-11 27.5q0 17 11 28t28 11t27.5 -11t10.5 -28q0 -16 -10.5 -27.5t-27.5 -11.5zM107 367q-17 0 -28 11.5t-11 27.5q0 17 11 28t28 11t27.5 -11t10.5 -28q0 -16 -10.5 -27.5t-27.5 -11.5z" />
    <glyph glyph-name="semicolon" unicode=";" horiz-adv-x="207" 
d="M61 -88q19 14 32 37t15 44q-18 1 -29.5 12t-11.5 28t10.5 28t28.5 11q20 0 31.5 -13.5t11.5 -35.5q0 -45 -22.5 -81t-44.5 -44q-7 0 -13.5 4.5t-7.5 9.5zM108 367q-17 0 -28 11.5t-11 27.5q0 17 11 28t28 11t27.5 -11t10.5 -28q0 -16 -10.5 -27.5t-27.5 -11.5z" />
    <glyph glyph-name="less" unicode="&#x3c;" 
d="M59 278v43l474 200v-44l-424 -178l424 -177v-45z" />
    <glyph glyph-name="equal" unicode="=" 
d="M59 378v43h474v-43h-474zM59 177v43h474v-43h-474z" />
    <glyph glyph-name="greater" unicode="&#x3e;" 
d="M59 77v45l424 177l-424 178v44l474 -200v-43z" />
    <glyph glyph-name="question" unicode="?" horiz-adv-x="460" 
d="M164 150v39q0 39 11 69.5t28 51t38 38t42 35.5t38 38t28 50.5t11 68.5q0 63 -31.5 100t-98.5 37q-115 0 -144 -117q-40 2 -53 18q17 56 64.5 95t134.5 39q96 0 145 -50.5t49 -119.5q0 -54 -21.5 -95.5t-52.5 -67.5t-62.5 -51t-55.5 -62t-27 -84l-2 -32h-41zM185 -5
q-17 0 -27.5 11.5t-10.5 27.5q0 17 10.5 28t27.5 11t28 -11t11 -28q0 -16 -11 -27.5t-28 -11.5z" />
    <glyph glyph-name="at" unicode="@" horiz-adv-x="996" 
d="M675 -162v-3q-74 -34 -179 -34q-193 0 -308 125.5t-115 311.5q0 122 50 220.5t148 158t227 59.5q194 0 309 -106t115 -265q0 -139 -69 -227.5t-167 -88.5q-87 0 -103 67q-67 -65 -158 -65q-76 0 -113.5 45.5t-37.5 125.5q0 52 14 105t41.5 101t76 78.5t110.5 30.5
q77 0 122 -52l7 42q20 0 57 7l-58 -328q-7 -42 -7 -63q0 -67 56 -67q80 0 130 81.5t50 207.5q0 149 -102 242.5t-273 93.5q-170 0 -272.5 -113t-102.5 -289q0 -181 100 -292t277 -111q98 0 167 31q8 -10 8 -29zM580 83v9q0 20 5 52l44 254q-34 45 -109 45q-49 0 -86 -28.5
t-56.5 -74t-29 -91.5t-9.5 -90q0 -135 104 -135q81 0 137 59z" />
    <glyph glyph-name="A" unicode="A" horiz-adv-x="593" 
d="M25 0v5l234 695h77l233 -695v-5h-65l-82 246h-264l-81 -246h-52zM172 287h237l-53 159q-55 166 -64 208h-3q-19 -74 -64 -208z" />
    <glyph glyph-name="B" unicode="B" horiz-adv-x="552" 
d="M90 0v700h158q235 0 235 -169q0 -129 -130 -161v-2q71 -13 113.5 -58t42.5 -118q0 -192 -249 -192h-170zM154 35h91q100 0 147.5 37.5t47.5 118.5q0 80 -46.5 118t-141.5 38h-98v-312zM154 382h79q95 0 139.5 35.5t44.5 109.5q0 73 -42 105.5t-131 32.5h-90v-283z" />
    <glyph glyph-name="C" unicode="C" horiz-adv-x="643" 
d="M540 203q44 0 61 -11q-51 -204 -255 -204q-141 0 -215 99.5t-74 263.5t74 262.5t214 98.5q197 0 249 -184q-16 -15 -61 -15q-21 81 -63.5 122.5t-123.5 41.5q-108 0 -163 -84.5t-55 -241.5t55 -242.5t163 -85.5q154 0 194 180z" />
    <glyph glyph-name="D" unicode="D" horiz-adv-x="631" 
d="M90 0v700h158q326 0 326 -349q0 -168 -79.5 -259.5t-245.5 -91.5h-159zM154 35h94q131 0 192.5 79.5t61.5 236.5t-61 235.5t-192 78.5h-95v-630z" />
    <glyph glyph-name="E" unicode="E" horiz-adv-x="510" 
d="M90 0v700h358v-40h-294v-280h267q2 -10 2 -20q0 -11 -2 -21h-267v-299h308v-40h-372z" />
    <glyph glyph-name="F" unicode="F" horiz-adv-x="496" 
d="M90 0v700h365v-40h-301v-283h268q2 -10 2 -20q0 -11 -2 -21h-268v-336h-64z" />
    <glyph glyph-name="G" unicode="G" horiz-adv-x="656" 
d="M522 73v243h-162v40h222v-297q-78 -71 -229 -71q-150 0 -223 98t-73 265q0 164 74 262.5t215 98.5q105 0 161 -43.5t73 -106.5q-19 -15 -57 -15q-37 130 -177 130q-108 0 -163 -85t-55 -241q0 -328 231 -328q115 0 163 50z" />
    <glyph glyph-name="H" unicode="H" horiz-adv-x="673" 
d="M90 0v700h64v-307h366v307h63v-700h-63v351h-366v-351h-64z" />
    <glyph glyph-name="I" unicode="I" horiz-adv-x="244" 
d="M90 0v700h64v-700h-64z" />
    <glyph glyph-name="J" unicode="J" horiz-adv-x="389" 
d="M239 154v546h63v-554q0 -83 -43 -119.5t-131 -36.5q-71 0 -97 11q-1 3 -1 15q0 20 3 28q34 -17 90 -17q64 0 90 29t26 98z" />
    <glyph glyph-name="K" unicode="K" horiz-adv-x="544" 
d="M90 0v700h64v-326h2l298 326h59v-5l-298 -323l306 -367v-5h-73l-292 351h-2v-351h-64z" />
    <glyph glyph-name="L" unicode="L" horiz-adv-x="480" 
d="M90 0v700h64v-659h301v-41h-365z" />
    <glyph glyph-name="M" unicode="M" horiz-adv-x="819" 
d="M90 0v700h79l139 -354q77 -199 100 -277h2q19 70 99 273l143 358h77v-700h-61v359q0 185 4 273h-3q-28 -94 -88 -243l-156 -389h-41l-154 389q-66 169 -87 243h-4q5 -73 5 -271v-361h-54z" />
    <glyph glyph-name="N" unicode="N" horiz-adv-x="690" 
d="M90 0v700h71l245 -382q112 -173 141 -235h3q-3 78 -3 191v426h53v-700h-58l-274 426q-91 142 -125 210h-3q4 -78 4 -201v-435h-54z" />
    <glyph glyph-name="O" unicode="O" horiz-adv-x="693" 
d="M346 -12q-140 0 -214.5 99t-74.5 264q0 164 74 262.5t215 98.5q140 0 215.5 -98.5t75.5 -262.5t-75.5 -263.5t-215.5 -99.5zM346 23q108 0 163.5 85.5t55.5 242.5t-55.5 241.5t-163.5 84.5t-163 -84.5t-55 -241.5t55 -242.5t163 -85.5z" />
    <glyph glyph-name="P" unicode="P" horiz-adv-x="532" 
d="M90 0v700h135q260 0 260 -204q0 -206 -261 -206h-70v-290h-64zM154 327h69q101 0 147 41t46 128q0 86 -46 127t-147 41h-69v-337z" />
    <glyph glyph-name="Q" unicode="Q" horiz-adv-x="693" 
d="M402 -7q-30 -5 -56 -5q-140 0 -214.5 99t-74.5 264q0 164 74 262.5t215 98.5q140 0 215.5 -98.5t75.5 -262.5q0 -132 -50 -224t-144 -124q17 -51 44 -71.5t71 -20.5q27 0 41 7q3 -6 3 -30q0 -15 -2 -23q-18 -6 -41 -6q-65 0 -98.5 31t-58.5 103zM346 23q108 0 163.5 85.5
t55.5 242.5t-55.5 241.5t-163.5 84.5t-163 -84.5t-55 -241.5t55 -242.5t163 -85.5z" />
    <glyph glyph-name="R" unicode="R" horiz-adv-x="552" 
d="M90 0v700h133q135 0 197 -49.5t62 -147.5q0 -148 -148 -190l171 -308v-5h-67l-164 302q-27 -3 -58 -3h-62v-299h-64zM154 336h67q101 0 147 40t46 126t-45 124t-148 38h-67v-328z" />
    <glyph glyph-name="S" unicode="S" horiz-adv-x="545" 
d="M42 136q17 17 58 21q43 -134 172 -134q72 0 114 41.5t42 114.5q0 35 -10.5 60t-41.5 45.5t-44.5 27.5t-62.5 26q-11 5 -16 7q-45 18 -68 29.5t-53.5 33t-44 51t-13.5 68.5q0 81 55.5 133t148.5 52q50 0 89.5 -13.5t62.5 -35t36 -42.5t19 -43q-15 -14 -56 -16
q-6 20 -13 33.5t-23 35.5t-45.5 34t-69.5 12q-67 0 -104.5 -36t-37.5 -103q0 -42 24.5 -72t54.5 -44.5t78 -33.5q8 -3 12 -4q34 -13 55 -22.5t49 -27t43.5 -36.5t27 -48t11.5 -65q0 -85 -57 -141t-165 -56q-177 0 -227 148z" />
    <glyph glyph-name="T" unicode="T" horiz-adv-x="494" 
d="M215 0v660h-193v40h449v-40h-193v-660h-63z" />
    <glyph glyph-name="U" unicode="U" horiz-adv-x="676" 
d="M87 283v417h63v-417q0 -136 48.5 -194.5t144.5 -58.5t145 59t49 196v415h53v-416q0 -150 -60 -223t-194 -73q-133 0 -191 72t-58 223z" />
    <glyph glyph-name="V" unicode="V" 
d="M262 0l-233 695v5h64l148 -445q52 -156 59 -203h3q7 44 60 203l147 445h53v-5l-234 -695h-67z" />
    <glyph glyph-name="W" unicode="W" horiz-adv-x="906" 
d="M217 0l-187 695v5h64l95 -367q59 -226 65 -274h3q11 66 61 247l107 394h70l108 -397q50 -188 58 -242h3q3 18 59 242l102 397h53v-5l-187 -695h-66l-105 383q-56 206 -63 257h-3q-11 -63 -65 -258l-106 -382h-66z" />
    <glyph glyph-name="X" unicode="X" horiz-adv-x="577" 
d="M30 0v5l224 351l-211 339v5h66l183 -302l189 302h52v-5l-211 -332l224 -358v-5h-66l-196 319l-202 -319h-52z" />
    <glyph glyph-name="Y" unicode="Y" horiz-adv-x="548" 
d="M242 0v270l-214 425v5h65l185 -380h3l186 380h53v-5l-215 -427v-268h-63z" />
    <glyph glyph-name="Z" unicode="Z" horiz-adv-x="577" 
d="M47 0v22l404 638h-384v40h463v-21l-404 -639h402v-40h-481z" />
    <glyph glyph-name="bracketleft" unicode="[" horiz-adv-x="381" 
d="M115 -190v890h212v-32h-150v-826h150v-32h-212z" />
    <glyph glyph-name="backslash" unicode="\" horiz-adv-x="433" 
d="M331 -140l-278 875v5h48l279 -875v-5h-49z" />
    <glyph glyph-name="bracketright" unicode="]" horiz-adv-x="381" 
d="M54 -190v32h150v826h-150v32h212v-890h-212z" />
    <glyph glyph-name="asciicircum" unicode="^" 
d="M91 378l193 322h23l194 -322h-49l-156 263l-156 -263h-49z" />
    <glyph glyph-name="underscore" unicode="_" horiz-adv-x="512" 
d="M6 -128v41h500v-41h-500z" />
    <glyph glyph-name="grave" unicode="`" horiz-adv-x="248" 
d="M157 581l-101 132q12 4 36 4q22 0 38 -4l62 -132q-4 -3 -18 -3q-11 0 -17 3z" />
    <glyph glyph-name="a" unicode="a" horiz-adv-x="497" 
d="M432 10l-51 -15q-15 26 -19 58q-55 -63 -142 -63q-78 0 -121 40t-43 105q0 78 55 116t142 38q61 0 107 -13v76q0 64 -22 96t-87 32q-54 0 -88 -25t-45 -53q-36 4 -49 22q22 40 70.5 64t111.5 24q95 0 132 -42.5t37 -117.5v-223q0 -90 12 -119zM360 80v171q-36 10 -99 10
q-142 0 -142 -120q0 -59 33 -87t89 -28q70 0 119 54z" />
    <glyph glyph-name="b" unicode="b" horiz-adv-x="537" 
d="M77 0v702q26 0 60 5v-255q58 60 148 60q103 0 153.5 -71.5t50.5 -189.5t-51 -189.5t-153 -71.5q-95 0 -152 63v-53h-56zM137 420v-340q48 -55 132 -55q152 0 152 226q0 108 -35 166.5t-117 58.5q-38 0 -74 -15.5t-58 -40.5z" />
    <glyph glyph-name="c" unicode="c" horiz-adv-x="489" 
d="M405 122h4q37 0 51 -11q-16 -49 -62.5 -85.5t-125.5 -36.5q-111 0 -167.5 72t-56.5 190t56 189.5t166 71.5q80 0 124.5 -36t58.5 -89q-13 -12 -49 -12h-5q-29 106 -129 106q-154 0 -154 -230q0 -108 39 -169t119 -61q98 0 131 101z" />
    <glyph glyph-name="d" unicode="d" horiz-adv-x="537" 
d="M472 9l-51 -15q-15 25 -19 57q-57 -61 -150 -61q-103 0 -153.5 71t-50.5 189q0 119 51 190.5t153 71.5q90 0 148 -60v250q26 0 60 5v-575q0 -97 12 -123zM400 81v341q-51 54 -132 54q-82 0 -117 -59t-35 -167t35 -166.5t117 -58.5q81 0 132 56z" />
    <glyph glyph-name="e" unicode="e" horiz-adv-x="507" 
d="M458 257h-344q0 -236 157 -236q95 0 128 99q33 0 54 -14q-49 -117 -183 -117q-111 0 -166.5 73t-55.5 193q0 117 54 187t160 70q98 0 147.5 -62t49.5 -156q0 -24 -1 -37zM115 289h280q0 192 -133 192q-138 0 -147 -192z" />
    <glyph glyph-name="f" unicode="f" horiz-adv-x="309" 
d="M99 0v468h-74v34h74v58q0 83 35 117.5t102 34.5q43 0 59 -7q1 -7 1 -16q0 -17 -2 -21q-20 10 -54 10q-47 0 -64 -26t-17 -92v-58h126v-34h-126v-362q0 -94 6 -106h-66z" />
    <glyph glyph-name="g" unicode="g" horiz-adv-x="513" 
d="M228 59h83q94 0 135 -27t41 -79q0 -72 -61.5 -118.5t-182.5 -46.5q-103 0 -156.5 36t-53.5 95q0 72 80 103q-53 23 -53 70q0 53 70 92q-66 49 -66 146q0 84 52 133t138 49q40 0 73 -10h164v-34h-119q72 -48 72 -141q0 -81 -52 -130t-138 -49q-59 0 -103 23
q-39 -26 -39 -62q0 -26 25 -38t91 -12zM254 178q62 0 94.5 40.5t32.5 111.5t-33 111.5t-94 40.5t-94.5 -41t-33.5 -112t33 -111t95 -40zM301 7h-93q-39 0 -73 8q-46 -36 -46 -89q0 -107 163 -107q87 0 134.5 32t47.5 86q0 38 -29 54t-104 16z" />
    <glyph glyph-name="h" unicode="h" horiz-adv-x="531" 
d="M77 0v702q26 0 60 5v-264q23 28 65.5 48.5t95.5 20.5q158 0 158 -191v-215q0 -92 7 -106h-67v307q0 83 -26 125t-94 42q-84 0 -139 -59v-415h-60z" />
    <glyph glyph-name="i" unicode="i" horiz-adv-x="214" 
d="M77 0v502q26 0 60 5v-401q0 -94 6 -106h-66zM68 645q0 17 11 27.5t28 10.5q18 0 28.5 -10.5t10.5 -27.5q0 -16 -10.5 -27t-28.5 -11q-17 0 -28 11t-11 27z" />
    <glyph glyph-name="j" unicode="j" horiz-adv-x="214" 
d="M77 -64v566q26 0 60 5v-577q0 -74 -28.5 -103.5t-93.5 -29.5q-27 0 -47 5q-2 6 -2 15q0 15 3 22q18 -6 42 -6q42 0 54 22.5t12 80.5zM68 645q0 17 11 27.5t28 10.5q18 0 28.5 -10.5t10.5 -27.5q0 -16 -10.5 -27t-28.5 -11q-17 0 -28 11t-11 27z" />
    <glyph glyph-name="k" unicode="k" horiz-adv-x="437" 
d="M77 0v702q26 0 60 5v-417h2l211 212h58v-5l-213 -208l218 -284v-5h-66l-208 276h-2v-276h-60z" />
    <glyph glyph-name="l" unicode="l" horiz-adv-x="214" 
d="M77 0v702q26 0 60 5v-601q0 -94 6 -106h-66z" />
    <glyph glyph-name="m" unicode="m" horiz-adv-x="771" 
d="M77 0v502q22 0 56 5v-63q20 29 57 48.5t86 19.5q93 0 123 -78q20 31 62.5 54.5t95.5 23.5q77 0 108 -50t31 -139v-217q0 -94 6 -106h-66v307q0 85 -20.5 126t-80.5 41q-42 0 -76 -19.5t-52 -45.5q9 -38 9 -86v-323h-60v307q0 86 -20 126.5t-80 40.5q-73 0 -119 -56v-418
h-60z" />
    <glyph glyph-name="n" unicode="n" horiz-adv-x="531" 
d="M77 0v502q22 0 56 5v-69q23 30 66 52t99 22q158 0 158 -191v-215q0 -92 7 -106h-67v307q0 83 -26 125t-94 42q-84 0 -139 -59v-415h-60z" />
    <glyph glyph-name="o" unicode="o" horiz-adv-x="552" 
d="M275 -11q-112 0 -169.5 72t-57.5 190q0 117 57.5 189t169.5 72q113 0 171 -72t58 -189t-58.5 -189.5t-170.5 -72.5zM275 21q161 0 161 230t-161 230q-159 0 -159 -231q0 -229 159 -229z" />
    <glyph glyph-name="p" unicode="p" horiz-adv-x="537" 
d="M77 -206v708q22 0 56 5v-59q58 64 152 64q103 0 153.5 -71.5t50.5 -189.5t-51 -189.5t-153 -71.5q-92 0 -148 60v-251q-26 0 -60 -5zM137 420v-340q48 -55 132 -55q152 0 152 226q0 108 -35 166.5t-117 58.5q-38 0 -74 -15.5t-58 -40.5z" />
    <glyph glyph-name="q" unicode="q" horiz-adv-x="537" 
d="M400 -206v255q-59 -59 -149 -59q-102 0 -152.5 71t-50.5 189q0 119 51 190.5t152 71.5q94 0 153 -63v53q22 0 56 5v-708q-26 0 -60 -5zM400 81v341q-51 54 -132 54q-82 0 -117 -59t-35 -167t35 -166.5t117 -58.5q81 0 132 56z" />
    <glyph glyph-name="r" unicode="r" horiz-adv-x="319" 
d="M77 0v502q22 0 56 5v-72h2q14 25 48.5 50.5t80.5 25.5q18 0 27 -3q2 -4 2 -22q0 -22 -2 -32q-12 2 -35 2q-49 0 -79.5 -17.5t-39.5 -33.5v-300q0 -92 6 -105h-66z" />
    <glyph glyph-name="s" unicode="s" horiz-adv-x="443" 
d="M42 100q17 13 50 17q30 -97 131 -97q53 0 83 28.5t30 75.5q0 25 -9.5 43t-31 31t-38 20t-48.5 18q-27 9 -37 13t-33 14t-32.5 18.5t-23 22.5t-18.5 31.5t-5 39.5q0 59 44 98t123 39q77 0 115.5 -31t49.5 -67q-16 -14 -50 -14q-5 17 -14.5 32.5t-37 32t-65.5 16.5
q-52 0 -81 -25.5t-29 -70.5q0 -18 7.5 -32.5t17 -23.5t29.5 -18.5t33 -14.5t38 -13q30 -10 45 -16t39.5 -19t36.5 -26.5t22 -36t10 -49.5q0 -63 -45.5 -105t-126.5 -42q-74 0 -119.5 32.5t-59.5 78.5z" />
    <glyph glyph-name="t" unicode="t" horiz-adv-x="314" 
d="M99 123v345h-74v34h76v133q26 0 58 5v-138h121v-34h-121v-347q0 -53 18 -72.5t64 -19.5q29 0 47 9q2 -8 2 -22q0 -3 -0.5 -8t-0.5 -6q-18 -9 -61 -9q-69 0 -99 28.5t-30 101.5z" />
    <glyph glyph-name="u" unicode="u" horiz-adv-x="519" 
d="M75 173v329q26 0 60 5v-320q0 -79 24.5 -117.5t91.5 -38.5q40 0 75 15t56 38v418q26 0 60 5v-374q0 -95 13 -123l-52 -15q-15 24 -19 60q-60 -66 -155 -66q-154 0 -154 184z" />
    <glyph glyph-name="v" unicode="v" horiz-adv-x="457" 
d="M197 0l-170 497v5h62l72 -215q61 -183 71 -235h2q7 30 75 234l72 216h50v-5l-176 -497h-58z" />
    <glyph glyph-name="w" unicode="w" horiz-adv-x="666" 
d="M159 0l-122 497v5h61l57 -242q34 -145 39 -191h3q9 55 51 192l69 227h48l67 -229q37 -124 47 -190h2q5 50 41 189l62 244h46v-5l-129 -497h-48l-81 278q-31 106 -36 138h-2q-6 -34 -38 -140l-83 -276h-54z" />
    <glyph glyph-name="x" unicode="x" horiz-adv-x="445" 
d="M28 0v5l159 252l-148 240v5h63l125 -209l130 209h49v-5l-150 -235l161 -257v-5h-63l-138 223l-140 -223h-48z" />
    <glyph glyph-name="y" unicode="y" horiz-adv-x="451" 
d="M207 11l-178 486v5h61l83 -235q54 -154 61 -185h2q6 30 60 186l80 234h49v-5l-168 -479q-4 -11 -13.5 -39t-13 -37t-12 -31t-12.5 -29t-12.5 -22.5t-15.5 -20.5t-17 -14.5t-20.5 -12t-24 -5.5t-29.5 -3q-31 0 -45 4q-2 6 -2 25q0 20 2 26q21 -7 49 -7q10 0 18.5 1.5
t15.5 3.5t13 8t10.5 10t10 14t9 16.5t9 21.5t9 23.5t10.5 28.5t11 32z" />
    <glyph glyph-name="z" unicode="z" horiz-adv-x="449" 
d="M36 0v16l300 452h-279v34h357v-17l-300 -451h296v-34h-374z" />
    <glyph glyph-name="braceleft" unicode="{" horiz-adv-x="390" 
d="M336 -172v-30q-109 0 -140.5 38t-31.5 164q0 110 -13.5 160t-59.5 77v34q46 27 59.5 77t13.5 160q0 126 31.5 164t140.5 38v-30q-33 -1 -49.5 -4t-31.5 -11.5t-20.5 -28.5t-8.5 -49.5t-3 -80.5q0 -103 -15.5 -163.5t-57.5 -88.5q42 -28 57.5 -88.5t15.5 -163.5
q0 -42 1.5 -69t7 -47t11.5 -30t21 -16.5t29.5 -8.5t42.5 -3z" />
    <glyph glyph-name="bar" unicode="|" horiz-adv-x="349" 
d="M150 -130v940h49v-940h-49z" />
    <glyph glyph-name="braceright" unicode="}" horiz-adv-x="390" 
d="M54 -202v30q41 2 59.5 6t33 22.5t17.5 50t3 95.5q0 103 15.5 163.5t58.5 88.5q-43 28 -58.5 88.5t-15.5 163.5q0 64 -3 96t-17.5 50.5t-33 22.5t-59.5 5v30q109 0 140.5 -38t31.5 -164q0 -109 13.5 -159.5t60.5 -77.5v-34q-47 -27 -60.5 -77.5t-13.5 -159.5
q0 -126 -31.5 -164t-140.5 -38z" />
    <glyph glyph-name="asciitilde" unicode="~" 
d="M63 321v46q6 5 17.5 12.5t46.5 20.5t69 13q41 0 115.5 -25.5t115.5 -25.5q26 0 51.5 11t37.5 22l13 11v-51q-46 -34 -102 -34q-45 0 -120 25.5t-112 25.5q-29 0 -62 -13t-51 -25z" />
    <glyph glyph-name="uni00A0" unicode="&#xa0;" horiz-adv-x="219" 
 />
    <glyph glyph-name="exclamdown" unicode="&#xa1;" horiz-adv-x="242" 
d="M130 360l13 -553q-9 -6 -33 -6t-32 6l13 553h39zM110 512q17 0 28 -11.5t11 -27.5q0 -17 -11 -28t-28 -11t-28 11t-11 28q0 16 11 27.5t28 11.5z" />
    <glyph glyph-name="cent" unicode="&#xa2;" 
d="M297 -112v102q-103 6 -155.5 76.5t-52.5 184.5t52.5 184.5t155.5 75.5v104h33v-104q70 -5 111 -40.5t54 -83.5q-13 -12 -49 -12h-5q-29 107 -130 107q-155 0 -155 -231q0 -108 39.5 -169.5t120.5 -61.5q99 0 131 102h6q35 0 50 -11q-15 -46 -58 -81.5t-115 -39.5v-102
h-33z" />
    <glyph glyph-name="sterling" unicode="&#xa3;" 
d="M86 0v32q1 2 8.5 11t9.5 12.5t7.5 13.5t7.5 19t5.5 22.5t4.5 31t1 39.5v149h-74v32h74v7q0 76 9 129t32 99t68.5 69t113.5 23q75 0 121.5 -34.5t62.5 -79.5q-15 -17 -53 -19q-33 99 -136 99q-40 0 -68 -13t-44.5 -35t-26.5 -59t-13 -77.5t-3 -97.5v-11h229v-32h-229v-134
q0 -36 -10 -67.5t-18 -43.5t-23 -32h390v-53h-446z" />
    <glyph glyph-name="currency" unicode="&#xa4;" 
d="M79 88l-24 25l75 75q-46 56 -46 147q0 82 41 140l-70 71l25 24l68 -68q56 53 147 53q92 0 148 -54l69 69l25 -24l-71 -71q41 -58 41 -140q0 -87 -46 -147l76 -75l-24 -25l-76 75q-56 -48 -142 -48q-87 0 -141 48zM295 146q81 0 122.5 51.5t41.5 137.5t-41.5 137.5
t-122.5 51.5t-122 -51t-41 -138t41 -138t122 -51z" />
    <glyph glyph-name="yen" unicode="&#xa5;" 
d="M73 190v30h191v53l-24 49h-167v31h152l-156 318v5h63l168 -352h4l168 352h51v-5l-157 -318h151v-31h-166l-24 -49v-53h190v-30h-190v-190h-63v190h-191z" />
    <glyph glyph-name="brokenbar" unicode="&#xa6;" horiz-adv-x="349" 
d="M150 400v410h49v-410h-49zM150 -130v410h49v-410h-49z" />
    <glyph glyph-name="section" unicode="&#xa7;" horiz-adv-x="541" 
d="M127 -36q18 -47 38 -66q36 -33 102 -33q57 0 89.5 30t32.5 85q0 34 -24 59t-60.5 38.5t-78.5 31t-78.5 36t-60.5 54t-24 83.5q0 107 117 148q-87 45 -87 125q0 67 48.5 111t135.5 44q154 0 191 -119q-20 -13 -55 -13q-17 46 -35 64q-37 35 -104 35q-57 0 -90 -30t-33 -85
q0 -34 24 -59t60.5 -38.5t78.5 -31t78.5 -36t60.5 -54t24 -83.5q0 -107 -116 -149q87 -43 87 -124q0 -67 -48.5 -111t-135.5 -44q-154 0 -191 119q18 13 54 13zM325 128q43 13 67.5 45.5t24.5 79.5q0 24 -9.5 44.5t-21.5 33.5t-36 26.5t-40.5 20t-47.5 18.5t-46 18
q-43 -13 -68 -46t-25 -79q0 -24 9.5 -44.5t21.5 -33.5t36.5 -27t40 -20t48.5 -18.5t46 -17.5z" />
    <glyph glyph-name="dieresis" unicode="&#xa8;" horiz-adv-x="358" 
d="M56 645q0 16 10.5 26.5t26.5 10.5t26.5 -10.5t10.5 -26.5q0 -17 -10 -27t-27 -10q-16 0 -26.5 10.5t-10.5 26.5zM228 645q0 16 10.5 26.5t26.5 10.5t26.5 -10.5t10.5 -26.5q0 -17 -10 -27t-27 -10q-16 0 -26.5 10.5t-10.5 26.5z" />
    <glyph glyph-name="copyright" unicode="&#xa9;" horiz-adv-x="810" 
d="M537 251q5 1 14 1q18 0 36 -9q-15 -52 -59.5 -88t-118.5 -36q-94 0 -147.5 64.5t-53.5 167.5t52.5 167t146.5 64q75 0 120.5 -38.5t58.5 -89.5q-14 -11 -47 -11q-11 45 -43 78t-88 33q-71 0 -108.5 -54t-37.5 -149t39 -149.5t109 -54.5q97 0 127 104zM405 -12
q-154 0 -257.5 105.5t-103.5 256.5t103.5 256.5t257.5 105.5q153 0 256.5 -105.5t103.5 -256.5t-103.5 -256.5t-256.5 -105.5zM405 23q141 0 230.5 94t89.5 233t-89.5 233t-230.5 94t-231 -94t-90 -233t90 -233t231 -94z" />
    <glyph glyph-name="ordfeminine" unicode="&#xaa;" horiz-adv-x="346" 
d="M302 364l-44 -10q-12 16 -15 36q-34 -40 -93 -40q-52 0 -81.5 28.5t-29.5 73.5q0 49 37.5 73.5t95.5 24.5q37 0 70 -7v46q0 39 -14 59t-54 20q-36 0 -56.5 -16t-26.5 -36q-30 2 -44 18q16 28 50 45t81 17q115 0 115 -110v-140q0 -59 9 -82zM242 411v109q-24 6 -60 6
q-89 0 -89 -74q0 -71 77 -71q40 0 72 30z" />
    <glyph glyph-name="guillemotleft" unicode="&#xab;" horiz-adv-x="571" 
d="M247 46l-174 210v9l174 208h47l-162 -213l162 -214h-47zM451 46l-174 210v9l174 208h47l-162 -213l162 -214h-47z" />
    <glyph glyph-name="logicalnot" unicode="&#xac;" 
d="M59 278v43h474v-259h-48v216h-426z" />
    <glyph glyph-name="uni00AD" unicode="&#xad;" horiz-adv-x="375" 
d="M59 274v50h256v-50h-256z" />
    <glyph glyph-name="registered" unicode="&#xae;" horiz-adv-x="512" 
d="M256 328q-92 0 -152 62t-60 152t60 152.5t152 62.5q91 0 151.5 -62.5t60.5 -152.5t-60.5 -152t-151.5 -62zM256 356q80 0 129.5 53t49.5 133q0 79 -49.5 133t-129.5 54q-81 0 -130 -53.5t-49 -133.5t49 -133t130 -53zM183 417v256h56q103 0 103 -71q0 -59 -67 -73
q14 -5 25 -24l48 -86v-2h-37l-36 72q-12 24 -20.5 29.5t-37.5 5.5v-107h-34zM217 545h21q68 0 68 54q0 30 -16 41t-52 11h-21v-106z" />
    <glyph glyph-name="macron" unicode="&#xaf;" horiz-adv-x="371" 
d="M56 620v39h259v-39h-259z" />
    <glyph glyph-name="degree" unicode="&#xb0;" horiz-adv-x="319" 
d="M159 479q-49 0 -82 33t-33 83q0 51 33 83.5t82 32.5t82 -32.5t33 -83.5q0 -50 -33 -83t-82 -33zM159 512q37 0 58.5 22.5t21.5 60.5t-21.5 61t-58.5 23q-36 0 -57.5 -23t-21.5 -61t21.5 -60.5t57.5 -22.5z" />
    <glyph glyph-name="plusminus" unicode="&#xb1;" 
d="M59 325v43h214v193h45v-193h215v-43h-215v-195h-45v195h-214zM59 31v43h474v-43h-474z" />
    <glyph glyph-name="two.superior" unicode="&#xb2;" horiz-adv-x="377" 
d="M46 466v33q1 1 26.5 20t31.5 24t30.5 24.5t33.5 29t28 29t27.5 33.5t19.5 32.5t15.5 36t4.5 35.5q0 81 -76 81q-64 0 -87 -76q-35 2 -49 13q12 38 45 64.5t91 26.5q64 0 98 -30.5t34 -82.5q0 -62 -53.5 -121.5t-152.5 -127.5v-1h216v-43h-283z" />
    <glyph glyph-name="three.superior" unicode="&#xb3;" horiz-adv-x="357" 
d="M130 656v29h21q105 0 105 87q0 71 -77 71q-57 0 -82 -50q-28 4 -43 16q33 63 127 63q61 0 95.5 -25.5t34.5 -71.5q0 -43 -26 -68.5t-66 -33.5v-1q103 -14 103 -98q0 -54 -37.5 -84.5t-104.5 -30.5q-52 0 -86 18t-46 44q9 9 42 20q29 -53 89 -53q43 0 65 22t22 59
q0 87 -115 87h-21z" />
    <glyph glyph-name="acute" unicode="&#xb4;" horiz-adv-x="248" 
d="M56 581l63 132q14 4 37 4q22 0 36 -4l-100 -132q-6 -3 -18 -3q-14 0 -18 3z" />
    <glyph glyph-name="mu" unicode="&#xb5;" horiz-adv-x="521" 
d="M77 -210v712q26 0 60 5v-315q0 -81 25.5 -120t93.5 -39q83 0 128 52v417q26 0 60 5v-374q0 -95 13 -123l-51 -15q-15 23 -20 61q-55 -67 -139 -67q-73 0 -110 35v-225q-40 -4 -60 -9z" />
    <glyph glyph-name="paragraph" unicode="&#xb6;" horiz-adv-x="638" 
d="M328 -130v402h-19q-131 0 -193 57.5t-62 156.5t62 156.5t193 57.5h255v-830h-42v795h-151v-795h-43z" />
    <glyph glyph-name="periodcentered" unicode="&#xb7;" horiz-adv-x="237" 
d="M130 259q-17 0 -28 11.5t-11 27.5q0 17 11 28t28 11t27.5 -11t10.5 -28q0 -16 -10.5 -27.5t-27.5 -11.5z" />
    <glyph glyph-name="cedilla" unicode="&#xb8;" horiz-adv-x="271" 
d="M56 -191l6 21q22 -16 57 -16q53 0 53 45q0 27 -20 38.5t-65 20.5l26 86h32l-20 -62q90 -17 90 -79q0 -38 -24.5 -57t-62.5 -19q-50 0 -72 22z" />
    <glyph glyph-name="one.superior" unicode="&#xb9;" horiz-adv-x="336" 
d="M83 466v29h81v327l-81 -19v31q5 1 23.5 6.5t43.5 13.5t33 11h35v-370h72v-29h-207z" />
    <glyph glyph-name="ordmasculine" unicode="&#xba;" horiz-adv-x="383" 
d="M191 349q-76 0 -116 47.5t-40 124.5q0 78 40 126t116 48q78 0 117.5 -47.5t39.5 -126.5q0 -77 -40 -124.5t-117 -47.5zM191 378q101 0 101 143q0 146 -101 146q-97 0 -97 -146q0 -143 97 -143z" />
    <glyph glyph-name="guillemotright" unicode="&#xbb;" horiz-adv-x="571" 
d="M73 46l162 214l-162 213h47l174 -208v-9l-174 -210h-47zM277 46l162 214l-162 213h47l174 -208v-9l-174 -210h-47z" />
    <glyph glyph-name="onequarter" unicode="&#xbc;" horiz-adv-x="831" 
d="M65 277v29h81v327l-81 -19v31q5 1 23.5 6.5t43.5 13.5t33 11h35v-370h72v-29h-207zM175 0v5l439 695h46v-5l-439 -695h-46zM477 100v38l194 261h55v-261h50v-38h-50v-100h-54v100h-195zM516 138h158v208h-3z" />
    <glyph glyph-name="onehalf" unicode="&#xbd;" horiz-adv-x="879" 
d="M65 277v29h81v327l-81 -19v31q5 1 23.5 6.5t43.5 13.5t33 11h35v-370h72v-29h-207zM175 0v5l439 695h46v-5l-439 -695h-46zM532 0v33q1 1 26.5 20t31.5 24t30.5 24.5t33.5 29t28 29t27.5 33.5t19.5 32.5t15.5 36t4.5 35.5q0 81 -76 81q-64 0 -87 -76q-35 2 -49 13
q12 38 45 64.5t91 26.5q64 0 98 -30.5t34 -82.5q0 -62 -53.5 -121.5t-152.5 -127.5v-1h216v-43h-283z" />
    <glyph glyph-name="threequarters" unicode="&#xbe;" horiz-adv-x="866" 
d="M146 467v29h21q105 0 105 87q0 71 -77 71q-57 0 -82 -50q-28 4 -43 16q33 63 127 63q61 0 95.5 -25.5t34.5 -71.5q0 -43 -26 -68.5t-66 -33.5v-1q103 -14 103 -98q0 -54 -37.5 -84.5t-104.5 -30.5q-52 0 -86 18t-46 44q9 9 42 20q29 -53 89 -53q43 0 65 21.5t22 59.5
q0 87 -115 87h-21zM210 0v5l439 695h46v-5l-439 -695h-46zM512 100v38l194 261h55v-261h50v-38h-50v-100h-54v100h-195zM551 138h158v208h-3z" />
    <glyph glyph-name="questiondown" unicode="&#xbf;" horiz-adv-x="460" 
d="M284 357v-39q0 -39 -11 -69.5t-28 -51t-38 -38t-42 -35.5t-38 -38t-28 -50.5t-11 -68.5q0 -63 31.5 -100t98.5 -37q115 0 144 117q40 -2 53 -18q-17 -56 -64.5 -95t-134.5 -39q-96 0 -145 50.5t-49 119.5q0 54 21.5 95.5t52.5 67.5t62.5 51t55.5 62t27 84l2 32h41z
M263 512q17 0 27.5 -11.5t10.5 -27.5q0 -17 -10.5 -28t-27.5 -11t-28 11t-11 28q0 16 11 27.5t28 11.5z" />
    <glyph glyph-name="Agrave" unicode="&#xc0;" horiz-adv-x="593" 
d="M25 0v5l234 695h77l233 -695v-5h-65l-82 246h-264l-81 -246h-52zM172 287h237l-53 159q-55 166 -64 208h-3q-19 -74 -64 -208zM284 752l-93 112q9 3 36 3q26 0 38 -3l55 -112q-6 -4 -18 -4q-10 0 -18 4z" />
    <glyph glyph-name="Aacute" unicode="&#xc1;" horiz-adv-x="593" 
d="M25 0v5l234 695h77l233 -695v-5h-65l-82 246h-264l-81 -246h-52zM172 287h237l-53 159q-55 166 -64 208h-3q-19 -74 -64 -208zM274 752l55 112q11 3 38 3q25 0 36 -3l-93 -112q-8 -4 -18 -4q-12 0 -18 4z" />
    <glyph glyph-name="Acircumflex" unicode="&#xc2;" horiz-adv-x="593" 
d="M25 0v5l234 695h77l233 -695v-5h-65l-82 246h-264l-81 -246h-52zM172 287h237l-53 159q-55 166 -64 208h-3q-19 -74 -64 -208zM178 750l81 114q11 3 37 3t37 -3l81 -114q-4 -3 -17 -3q-11 0 -17 3l-83 81h-2l-83 -81q-6 -3 -17 -3q-13 0 -17 3z" />
    <glyph glyph-name="Atilde" unicode="&#xc3;" horiz-adv-x="593" 
d="M25 0v5l234 695h77l233 -695v-5h-65l-82 246h-264l-81 -246h-52zM172 287h237l-53 159q-55 166 -64 208h-3q-19 -74 -64 -208zM142 763q21 59 44 77.5t53 18.5q27 0 65 -29.5t58 -29.5q35 0 62 58q3 1 15 1q10 0 13 -1q-22 -58 -43 -77.5t-46 -19.5q-30 0 -69.5 29.5
t-62.5 29.5q-19 0 -35.5 -17.5t-25.5 -39.5q-6 -2 -13 -2q-9 0 -15 2z" />
    <glyph glyph-name="Adieresis" unicode="&#xc4;" horiz-adv-x="593" 
d="M25 0v5l234 695h77l233 -695v-5h-65l-82 246h-264l-81 -246h-52zM172 287h237l-53 159q-55 166 -64 208h-3q-19 -74 -64 -208zM200 758q-16 0 -26.5 11t-10.5 27t10.5 26t26.5 10t26.5 -10t10.5 -26q0 -17 -10.5 -27.5t-26.5 -10.5zM391 758q-16 0 -26.5 11t-10.5 27
t10.5 26t26.5 10q17 0 27.5 -10t10.5 -26t-10.5 -27t-27.5 -11z" />
    <glyph glyph-name="Aring" unicode="&#xc5;" horiz-adv-x="593" 
d="M25 0v5l234 695h77l233 -695v-5h-65l-82 246h-264l-81 -246h-52zM172 287h237l-53 159q-55 166 -64 208h-3q-19 -74 -64 -208zM218 804q0 34 21.5 55.5t56.5 21.5q36 0 57 -21.5t21 -55.5t-21.5 -56t-56.5 -22t-56.5 22t-21.5 56zM296 751q22 0 34 14.5t12 38.5t-12 38.5
t-34 14.5q-45 0 -45 -53t45 -53z" />
    <glyph glyph-name="AE" unicode="&#xc6;" horiz-adv-x="803" 
d="M20 0v5l329 695h392v-40h-294v-280h268q1 -5 1 -20q0 -16 -1 -21h-268v-299h309v-40h-372v246h-194l-115 -246h-55zM209 287h175v373h-4q-6 -15 -95 -209z" />
    <glyph glyph-name="Ccedilla" unicode="&#xc7;" horiz-adv-x="643" 
d="M270 -191l6 21q28 -16 57 -16q53 0 53 45q0 27 -20 38.5t-65 20.5l21 71q-130 9 -197.5 106.5t-67.5 255.5q0 164 74 262.5t214 98.5q197 0 249 -184q-16 -15 -61 -15q-21 81 -63.5 122.5t-123.5 41.5q-108 0 -163 -84.5t-55 -241.5t55 -242.5t163 -85.5q154 0 194 180
q44 0 61 -11q-51 -200 -247 -204l-15 -46q90 -17 90 -79q0 -38 -24.5 -57t-62.5 -19q-50 0 -72 22z" />
    <glyph glyph-name="Egrave" unicode="&#xc8;" horiz-adv-x="510" 
d="M90 0v700h358v-40h-294v-280h267q2 -10 2 -20q0 -11 -2 -21h-267v-299h308v-40h-372zM268 752l-93 112q9 3 36 3q26 0 38 -3l55 -112q-6 -4 -18 -4q-10 0 -18 4z" />
    <glyph glyph-name="Eacute" unicode="&#xc9;" horiz-adv-x="510" 
d="M90 0v700h358v-40h-294v-280h267q2 -10 2 -20q0 -11 -2 -21h-267v-299h308v-40h-372zM244 752l55 112q11 3 38 3q25 0 36 -3l-93 -112q-8 -4 -18 -4q-12 0 -18 4z" />
    <glyph glyph-name="Ecircumflex" unicode="&#xca;" horiz-adv-x="510" 
d="M90 0v700h358v-40h-294v-280h267q2 -10 2 -20q0 -11 -2 -21h-267v-299h308v-40h-372zM154 750l81 114q10 3 37 3q26 0 37 -3l81 -114q-4 -3 -17 -3q-11 0 -17 3l-83 81h-2l-83 -81q-6 -3 -17 -3q-13 0 -17 3z" />
    <glyph glyph-name="Edieresis" unicode="&#xcb;" horiz-adv-x="510" 
d="M90 0v700h358v-40h-294v-280h267q2 -10 2 -20q0 -11 -2 -21h-267v-299h308v-40h-372zM176 758q-16 0 -26.5 11t-10.5 27t10.5 26t26.5 10t26.5 -10t10.5 -26q0 -17 -10.5 -27.5t-26.5 -10.5zM367 758q-16 0 -26.5 11t-10.5 27t10.5 26t26.5 10q17 0 27.5 -10t10.5 -26
t-10.5 -27t-27.5 -11z" />
    <glyph glyph-name="Igrave" unicode="&#xcc;" horiz-adv-x="244" 
d="M90 0v700h64v-700h-64zM111 752l-93 112q9 3 36 3q26 0 38 -3l55 -112q-6 -4 -18 -4q-10 0 -18 4z" />
    <glyph glyph-name="Iacute" unicode="&#xcd;" horiz-adv-x="244" 
d="M90 0v700h64v-700h-64zM99 752l55 112q10 3 38 3q26 0 36 -3l-93 -112q-8 -4 -18 -4q-12 0 -18 4z" />
    <glyph glyph-name="Icircumflex" unicode="&#xce;" horiz-adv-x="244" 
d="M90 0v700h64v-700h-64zM3 750l81 114q10 3 37 3t37 -3l81 -114q-5 -3 -17 -3q-11 0 -17 3l-83 81h-2l-83 -81q-6 -3 -17 -3q-12 0 -17 3z" />
    <glyph glyph-name="Idieresis" unicode="&#xcf;" horiz-adv-x="244" 
d="M90 0v700h64v-700h-64zM26 758q-16 0 -26.5 11t-10.5 27t10.5 26t26.5 10t26.5 -10t10.5 -26q0 -17 -10.5 -27.5t-26.5 -10.5zM217 758q-16 0 -26.5 11t-10.5 27t10.5 26t26.5 10q17 0 27.5 -10t10.5 -26t-10.5 -27t-27.5 -11z" />
    <glyph glyph-name="Eth" unicode="&#xd0;" horiz-adv-x="653" 
d="M113 0v338h-79v39h79v323h158q166 0 245.5 -90.5t79.5 -258.5t-79.5 -259.5t-244.5 -91.5h-159zM176 35h94q131 0 192.5 79.5t61.5 236.5t-61 235.5t-192 78.5h-95v-288h188v-39h-188v-303z" />
    <glyph glyph-name="Ntilde" unicode="&#xd1;" horiz-adv-x="690" 
d="M90 0v700h71l245 -382q112 -173 141 -235h3q-3 78 -3 191v426h53v-700h-58l-274 426q-91 142 -125 210h-3q4 -78 4 -201v-435h-54zM209 763q21 59 44 77.5t53 18.5q27 0 65 -29.5t58 -29.5q35 0 62 58q3 1 15 1q10 0 13 -1q-22 -58 -43 -77.5t-46 -19.5q-30 0 -69.5 29.5
t-62.5 29.5q-19 0 -35.5 -17.5t-25.5 -39.5q-6 -2 -13 -2q-9 0 -15 2z" />
    <glyph glyph-name="Ograve" unicode="&#xd2;" horiz-adv-x="693" 
d="M346 -12q-140 0 -214.5 99t-74.5 264q0 164 74 262.5t215 98.5q140 0 215.5 -98.5t75.5 -262.5t-75.5 -263.5t-215.5 -99.5zM346 23q108 0 163.5 85.5t55.5 242.5t-55.5 241.5t-163.5 84.5t-163 -84.5t-55 -241.5t55 -242.5t163 -85.5zM343 752l-93 112q9 3 36 3
q26 0 38 -3l55 -112q-6 -4 -18 -4q-10 0 -18 4z" />
    <glyph glyph-name="Oacute" unicode="&#xd3;" horiz-adv-x="693" 
d="M346 -12q-140 0 -214.5 99t-74.5 264q0 164 74 262.5t215 98.5q140 0 215.5 -98.5t75.5 -262.5t-75.5 -263.5t-215.5 -99.5zM346 23q108 0 163.5 85.5t55.5 242.5t-55.5 241.5t-163.5 84.5t-163 -84.5t-55 -241.5t55 -242.5t163 -85.5zM323 752l55 112q10 3 38 3
q26 0 36 -3l-93 -112q-8 -4 -18 -4q-12 0 -18 4z" />
    <glyph glyph-name="Ocircumflex" unicode="&#xd4;" horiz-adv-x="693" 
d="M346 -12q-140 0 -214.5 99t-74.5 264q0 164 74 262.5t215 98.5q140 0 215.5 -98.5t75.5 -262.5t-75.5 -263.5t-215.5 -99.5zM346 23q108 0 163.5 85.5t55.5 242.5t-55.5 241.5t-163.5 84.5t-163 -84.5t-55 -241.5t55 -242.5t163 -85.5zM230 750l81 114q11 3 37 3t37 -3
l81 -114q-5 -3 -17 -3q-11 0 -17 3l-83 81h-2l-83 -81q-6 -3 -17 -3q-13 0 -17 3z" />
    <glyph glyph-name="Otilde" unicode="&#xd5;" horiz-adv-x="693" 
d="M346 -12q-140 0 -214.5 99t-74.5 264q0 164 74 262.5t215 98.5q140 0 215.5 -98.5t75.5 -262.5t-75.5 -263.5t-215.5 -99.5zM346 23q108 0 163.5 85.5t55.5 242.5t-55.5 241.5t-163.5 84.5t-163 -84.5t-55 -241.5t55 -242.5t163 -85.5zM198 763q21 59 44 77.5t53 18.5
q27 0 65 -29.5t58 -29.5q35 0 62 58q3 1 15 1q10 0 13 -1q-22 -58 -43 -77.5t-46 -19.5q-30 0 -69.5 29.5t-62.5 29.5q-19 0 -35.5 -17.5t-25.5 -39.5q-6 -2 -13 -2q-9 0 -15 2z" />
    <glyph glyph-name="Odieresis" unicode="&#xd6;" horiz-adv-x="693" 
d="M346 -12q-140 0 -214.5 99t-74.5 264q0 164 74 262.5t215 98.5q140 0 215.5 -98.5t75.5 -262.5t-75.5 -263.5t-215.5 -99.5zM346 23q108 0 163.5 85.5t55.5 242.5t-55.5 241.5t-163.5 84.5t-163 -84.5t-55 -241.5t55 -242.5t163 -85.5zM252 758q-16 0 -26.5 11t-10.5 27
t10.5 26t26.5 10t26.5 -10t10.5 -26q0 -17 -10.5 -27.5t-26.5 -10.5zM443 758q-16 0 -26.5 11t-10.5 27t10.5 26t26.5 10q17 0 27.5 -10t10.5 -26t-10.5 -27t-27.5 -11z" />
    <glyph glyph-name="multiply" unicode="&#xd7;" 
d="M106 79l-30 31l188 188l-189 190l32 31l189 -189l189 189l31 -30l-190 -190l190 -189l-31 -32l-190 190z" />
    <glyph glyph-name="Oslash" unicode="&#xd8;" horiz-adv-x="693" 
d="M89 -6l54 80q-86 97 -86 277q0 163 75.5 262t213.5 99q112 0 185 -67l51 75l33 -20l-57 -84q79 -97 79 -265q0 -164 -76 -263.5t-215 -99.5q-105 0 -176 59l-49 -72zM176 122l325 479q-57 76 -155 76q-106 0 -162 -85t-56 -241q0 -142 48 -229zM523 565l-324 -476
q55 -66 147 -66q106 0 162.5 86t56.5 242q0 133 -42 214z" />
    <glyph glyph-name="Ugrave" unicode="&#xd9;" horiz-adv-x="676" 
d="M87 283v417h63v-417q0 -136 48.5 -194.5t144.5 -58.5t145 59t49 196v415h53v-416q0 -150 -60 -223t-194 -73q-133 0 -191 72t-58 223zM351 752l-93 112q9 3 36 3q26 0 38 -3l55 -112q-6 -4 -18 -4q-10 0 -18 4z" />
    <glyph glyph-name="Uacute" unicode="&#xda;" horiz-adv-x="676" 
d="M87 283v417h63v-417q0 -136 48.5 -194.5t144.5 -58.5t145 59t49 196v415h53v-416q0 -150 -60 -223t-194 -73q-133 0 -191 72t-58 223zM319 752l55 112q11 3 38 3q26 0 36 -3l-93 -112q-8 -4 -18 -4q-12 0 -18 4z" />
    <glyph glyph-name="Ucircumflex" unicode="&#xdb;" horiz-adv-x="676" 
d="M87 283v417h63v-417q0 -136 48.5 -194.5t144.5 -58.5t145 59t49 196v415h53v-416q0 -150 -60 -223t-194 -73q-133 0 -191 72t-58 223zM225 750l81 114q11 3 37 3q27 0 37 -3l81 -114q-5 -3 -17 -3q-11 0 -17 3l-83 81h-2l-83 -81q-6 -3 -17 -3q-12 0 -17 3z" />
    <glyph glyph-name="Udieresis" unicode="&#xdc;" horiz-adv-x="676" 
d="M87 283v417h63v-417q0 -136 48.5 -194.5t144.5 -58.5t145 59t49 196v415h53v-416q0 -150 -60 -223t-194 -73q-133 0 -191 72t-58 223zM245 758q-16 0 -26.5 11t-10.5 27t10.5 26t26.5 10t26.5 -10t10.5 -26q0 -17 -10.5 -27.5t-26.5 -10.5zM436 758q-16 0 -26.5 11
t-10.5 27t10.5 26t26.5 10q17 0 27.5 -10t10.5 -26t-11 -27t-27 -11z" />
    <glyph glyph-name="Yacute" unicode="&#xdd;" horiz-adv-x="548" 
d="M242 0v270l-214 425v5h65l185 -380h3l186 380h53v-5l-215 -427v-268h-63zM256 752l55 112q11 3 38 3q25 0 36 -3l-93 -112q-8 -4 -18 -4q-12 0 -18 4z" />
    <glyph glyph-name="Thorn" unicode="&#xde;" horiz-adv-x="544" 
d="M90 0v700h64v-131h70q261 0 261 -204q0 -206 -261 -206h-70v-159h-64zM154 196h69q101 0 147 41.5t46 127.5q0 87 -45.5 127.5t-147.5 40.5h-69v-337z" />
    <glyph glyph-name="germandbls" unicode="&#xdf;" horiz-adv-x="544" 
d="M77 0v471q0 235 202 235q87 0 137.5 -46t50.5 -119q0 -137 -138 -172v-2q74 -9 122.5 -52t48.5 -129q0 -87 -56.5 -140.5t-152.5 -53.5q-76 0 -110 17v36q33 -20 99 -20q77 0 115 43t38 117q0 82 -43.5 123.5t-140.5 41.5h-27v34h27q157 0 157 157q0 132 -128 132
q-75 0 -108 -45.5t-33 -156.5v-471h-60z" />
    <glyph glyph-name="agrave" unicode="&#xe0;" horiz-adv-x="497" 
d="M432 10l-51 -15q-15 26 -19 58q-55 -63 -142 -63q-78 0 -121 40t-43 105q0 78 55 116t142 38q61 0 107 -13v76q0 64 -22 96t-87 32q-54 0 -88 -25t-45 -53q-36 4 -49 22q22 40 70.5 64t111.5 24q95 0 132 -42.5t37 -117.5v-223q0 -90 12 -119zM360 80v171q-36 10 -99 10
q-142 0 -142 -120q0 -59 33 -87t89 -28q70 0 119 54zM259 581l-101 132q12 4 36 4q22 0 38 -4l62 -132q-4 -3 -18 -3q-11 0 -17 3z" />
    <glyph glyph-name="aacute" unicode="&#xe1;" horiz-adv-x="497" 
d="M432 10l-51 -15q-15 26 -19 58q-55 -63 -142 -63q-78 0 -121 40t-43 105q0 78 55 116t142 38q61 0 107 -13v76q0 64 -22 96t-87 32q-54 0 -88 -25t-45 -53q-36 4 -49 22q22 40 70.5 64t111.5 24q95 0 132 -42.5t37 -117.5v-223q0 -90 12 -119zM360 80v171q-36 10 -99 10
q-142 0 -142 -120q0 -59 33 -87t89 -28q70 0 119 54zM218 581l63 132q14 4 37 4q22 0 36 -4l-100 -132q-6 -3 -18 -3q-14 0 -18 3z" />
    <glyph glyph-name="acircumflex" unicode="&#xe2;" horiz-adv-x="497" 
d="M432 10l-51 -15q-15 26 -19 58q-55 -63 -142 -63q-78 0 -121 40t-43 105q0 78 55 116t142 38q61 0 107 -13v76q0 64 -22 96t-87 32q-54 0 -88 -25t-45 -53q-36 4 -49 22q22 40 70.5 64t111.5 24q95 0 132 -42.5t37 -117.5v-223q0 -90 12 -119zM360 80v171q-36 10 -99 10
q-142 0 -142 -120q0 -59 33 -87t89 -28q70 0 119 54zM128 581l83 132q8 4 36 4t37 -4l83 -132q-5 -3 -18 -3q-10 0 -16 3l-85 102h-2l-84 -102q-6 -3 -17 -3q-13 0 -17 3z" />
    <glyph glyph-name="atilde" unicode="&#xe3;" horiz-adv-x="497" 
d="M432 10l-51 -15q-15 26 -19 58q-55 -63 -142 -63q-78 0 -121 40t-43 105q0 78 55 116t142 38q61 0 107 -13v76q0 64 -22 96t-87 32q-54 0 -88 -25t-45 -53q-36 4 -49 22q22 40 70.5 64t111.5 24q95 0 132 -42.5t37 -117.5v-223q0 -90 12 -119zM360 80v171q-36 10 -99 10
q-142 0 -142 -120q0 -59 33 -87t89 -28q70 0 119 54zM96 601q21 60 44 78.5t53 18.5q27 0 65 -29.5t58 -29.5q37 0 62 57q6 2 15 2q7 0 13 -2q-21 -58 -42 -77t-46 -19q-31 0 -70.5 29.5t-62.5 29.5q-19 0 -35.5 -18t-25.5 -40q-6 -2 -13 -2q-9 0 -15 2z" />
    <glyph glyph-name="adieresis" unicode="&#xe4;" horiz-adv-x="497" 
d="M432 10l-51 -15q-15 26 -19 58q-55 -63 -142 -63q-78 0 -121 40t-43 105q0 78 55 116t142 38q61 0 107 -13v76q0 64 -22 96t-87 32q-54 0 -88 -25t-45 -53q-36 4 -49 22q22 40 70.5 64t111.5 24q95 0 132 -42.5t37 -117.5v-223q0 -90 12 -119zM360 80v171q-36 10 -99 10
q-142 0 -142 -120q0 -59 33 -87t89 -28q70 0 119 54zM124 645q0 16 10.5 26.5t26.5 10.5t26.5 -10.5t10.5 -26.5q0 -17 -10 -27t-27 -10q-16 0 -26.5 10.5t-10.5 26.5zM296 645q0 16 10.5 26.5t26.5 10.5t26.5 -10.5t10.5 -26.5q0 -17 -10 -27t-27 -10q-16 0 -26.5 10.5
t-10.5 26.5z" />
    <glyph glyph-name="aring" unicode="&#xe5;" horiz-adv-x="497" 
d="M432 10l-51 -15q-15 26 -19 58q-55 -63 -142 -63q-78 0 -121 40t-43 105q0 78 55 116t142 38q61 0 107 -13v76q0 64 -22 96t-87 32q-54 0 -88 -25t-45 -53q-36 4 -49 22q22 40 70.5 64t111.5 24q95 0 132 -42.5t37 -117.5v-223q0 -90 12 -119zM360 80v171q-36 10 -99 10
q-142 0 -142 -120q0 -59 33 -87t89 -28q70 0 119 54zM169 640q0 34 21.5 56t56.5 22t56.5 -22t21.5 -56t-21 -55.5t-57 -21.5q-35 0 -56.5 21.5t-21.5 55.5zM247 587q22 0 34 14.5t12 38.5t-12 38.5t-34 14.5q-45 0 -45 -53t45 -53z" />
    <glyph glyph-name="ae" unicode="&#xe6;" horiz-adv-x="816" 
d="M359 276v74q0 65 -22 97.5t-85 32.5q-56 0 -90 -25t-45 -53q-36 4 -49 22q23 40 71.5 64t113.5 24q122 0 152 -81q55 81 166 81q98 0 147.5 -62t49.5 -156q0 -24 -1 -37h-344q0 -115 40 -175.5t117 -60.5q95 0 128 99q35 0 54 -14q-47 -117 -183 -117q-124 0 -180 92
q-69 -91 -180 -91q-79 0 -121.5 40t-42.5 108q0 76 54.5 113.5t140.5 37.5q70 0 109 -13zM386 106q-29 63 -29 145q-34 10 -97 10q-142 0 -142 -121q0 -57 32.5 -85.5t88.5 -28.5q88 0 147 80zM424 289h280q0 192 -133 192q-67 0 -104.5 -49.5t-42.5 -142.5z" />
    <glyph glyph-name="ccedilla" unicode="&#xe7;" horiz-adv-x="489" 
d="M183 -191l6 21q22 -16 57 -16q53 0 53 45q0 27 -20 38.5t-65 20.5l22 74q-93 12 -140.5 81.5t-47.5 177.5q0 118 56 189.5t166 71.5q80 0 124.5 -36t58.5 -89q-13 -12 -49 -12h-5q-29 106 -129 106q-154 0 -154 -230q0 -108 39 -169t119 -61q98 0 131 101h4q37 0 51 -11
q-16 -49 -62.5 -85.5t-125.5 -36.5h-5l-15 -47q90 -17 90 -79q0 -38 -24.5 -57t-62.5 -19q-50 0 -72 22z" />
    <glyph glyph-name="egrave" unicode="&#xe8;" horiz-adv-x="507" 
d="M458 257h-344q0 -236 157 -236q95 0 128 99q33 0 54 -14q-49 -117 -183 -117q-111 0 -166.5 73t-55.5 193q0 117 54 187t160 70q98 0 147.5 -62t49.5 -156q0 -24 -1 -37zM115 289h280q0 192 -133 192q-138 0 -147 -192zM264 581l-101 132q12 4 36 4q22 0 38 -4l62 -132
q-5 -3 -18 -3q-11 0 -17 3z" />
    <glyph glyph-name="eacute" unicode="&#xe9;" horiz-adv-x="507" 
d="M458 257h-344q0 -236 157 -236q95 0 128 99q33 0 54 -14q-49 -117 -183 -117q-111 0 -166.5 73t-55.5 193q0 117 54 187t160 70q98 0 147.5 -62t49.5 -156q0 -24 -1 -37zM115 289h280q0 192 -133 192q-138 0 -147 -192zM235 581l63 132q14 4 37 4q22 0 36 -4l-100 -132
q-6 -3 -18 -3q-13 0 -18 3z" />
    <glyph glyph-name="ecircumflex" unicode="&#xea;" horiz-adv-x="507" 
d="M458 257h-344q0 -236 157 -236q95 0 128 99q33 0 54 -14q-49 -117 -183 -117q-111 0 -166.5 73t-55.5 193q0 117 54 187t160 70q98 0 147.5 -62t49.5 -156q0 -24 -1 -37zM115 289h280q0 192 -133 192q-138 0 -147 -192zM145 581l83 132q8 4 36 4t37 -4l83 -132
q-4 -3 -18 -3q-10 0 -16 3l-85 102h-2l-84 -102q-6 -3 -17 -3q-12 0 -17 3z" />
    <glyph glyph-name="edieresis" unicode="&#xeb;" horiz-adv-x="507" 
d="M458 257h-344q0 -236 157 -236q95 0 128 99q33 0 54 -14q-49 -117 -183 -117q-111 0 -166.5 73t-55.5 193q0 117 54 187t160 70q98 0 147.5 -62t49.5 -156q0 -24 -1 -37zM115 289h280q0 192 -133 192q-138 0 -147 -192zM136 645q0 16 10.5 26.5t26.5 10.5t26.5 -10.5
t10.5 -26.5q0 -17 -10 -27t-27 -10q-16 0 -26.5 10.5t-10.5 26.5zM308 645q0 16 10.5 26.5t26.5 10.5t26.5 -10.5t10.5 -26.5q0 -17 -10 -27t-27 -10q-16 0 -26.5 10.5t-10.5 26.5z" />
    <glyph glyph-name="igrave" unicode="&#xec;" horiz-adv-x="214" 
d="M77 0v502q26 0 60 5v-401q0 -94 6 -106h-66zM98 581l-101 132q12 4 36 4q22 0 38 -4l62 -132q-5 -3 -18 -3q-11 0 -17 3z" />
    <glyph glyph-name="iacute" unicode="&#xed;" horiz-adv-x="214" 
d="M77 0v502q26 0 60 5v-401q0 -94 6 -106h-66zM85 581l63 132q14 4 37 4q22 0 36 -4l-100 -132q-6 -3 -18 -3q-13 0 -18 3z" />
    <glyph glyph-name="icircumflex" unicode="&#xee;" horiz-adv-x="214" 
d="M77 0v502q26 0 60 5v-401q0 -94 6 -106h-66zM-12 581l83 132q8 4 36 4t37 -4l83 -132q-5 -3 -18 -3q-10 0 -16 3l-85 102h-2l-84 -102q-6 -3 -17 -3q-13 0 -17 3z" />
    <glyph glyph-name="idieresis" unicode="&#xef;" horiz-adv-x="214" 
d="M77 0v502q26 0 60 5v-401q0 -94 6 -106h-66zM-16 645q0 16 10.5 26.5t26.5 10.5t26.5 -10.5t10.5 -26.5q0 -17 -10 -27t-27 -10q-16 0 -26.5 10.5t-10.5 26.5zM156 645q0 16 10.5 26.5t26.5 10.5t26.5 -10.5t10.5 -26.5q0 -17 -10 -27t-27 -10q-16 0 -26.5 10.5
t-10.5 26.5z" />
    <glyph glyph-name="eth" unicode="&#xf0;" horiz-adv-x="556" 
d="M206 538l-8 26l136 38q-52 71 -120 110h68q61 -34 108 -95l104 30l8 -27l-95 -27q87 -133 87 -315q0 -131 -57.5 -210t-168.5 -79q-106 0 -162 66t-56 176t56 177t162 67q52 0 91.5 -17t59.5 -45q-18 87 -68 165zM267 21q82 0 122 67t40 164q0 193 -158 193
q-153 0 -153 -215q0 -209 149 -209z" />
    <glyph glyph-name="ntilde" unicode="&#xf1;" horiz-adv-x="533" 
d="M77 0v502q22 0 56 5v-69q23 30 66 52t99 22q158 0 158 -191v-215q0 -92 7 -106h-67v307q0 83 -26 125t-94 42q-84 0 -139 -59v-415h-60zM111 601q21 60 44 78.5t53 18.5q27 0 65 -29.5t58 -29.5q37 0 62 57q6 2 15 2q7 0 13 -2q-21 -58 -42 -77t-46 -19q-31 0 -70.5 29.5
t-62.5 29.5q-19 0 -35.5 -18t-25.5 -40q-6 -2 -13 -2q-9 0 -15 2z" />
    <glyph glyph-name="ograve" unicode="&#xf2;" horiz-adv-x="552" 
d="M275 -11q-112 0 -169.5 72t-57.5 190q0 117 57.5 189t169.5 72q113 0 171 -72t58 -189t-58.5 -189.5t-170.5 -72.5zM275 21q161 0 161 230t-161 230q-159 0 -159 -231q0 -229 159 -229zM268 581l-101 132q12 4 36 4q22 0 38 -4l62 -132q-5 -3 -18 -3q-11 0 -17 3z" />
    <glyph glyph-name="oacute" unicode="&#xf3;" horiz-adv-x="552" 
d="M275 -11q-112 0 -169.5 72t-57.5 190q0 117 57.5 189t169.5 72q113 0 171 -72t58 -189t-58.5 -189.5t-170.5 -72.5zM275 21q161 0 161 230t-161 230q-159 0 -159 -231q0 -229 159 -229zM267 581l63 132q14 4 37 4q22 0 36 -4l-100 -132q-6 -3 -18 -3q-13 0 -18 3z" />
    <glyph glyph-name="ocircumflex" unicode="&#xf4;" horiz-adv-x="552" 
d="M275 -11q-112 0 -169.5 72t-57.5 190q0 117 57.5 189t169.5 72q113 0 171 -72t58 -189t-58.5 -189.5t-170.5 -72.5zM275 21q161 0 161 230t-161 230q-159 0 -159 -231q0 -229 159 -229zM156 581l83 132q8 4 36 4t37 -4l83 -132q-5 -3 -18 -3q-10 0 -16 3l-85 102h-2
l-84 -102q-6 -3 -17 -3q-13 0 -17 3z" />
    <glyph glyph-name="otilde" unicode="&#xf5;" horiz-adv-x="552" 
d="M275 -11q-112 0 -169.5 72t-57.5 190q0 117 57.5 189t169.5 72q113 0 171 -72t58 -189t-58.5 -189.5t-170.5 -72.5zM275 21q161 0 161 230t-161 230q-159 0 -159 -231q0 -229 159 -229zM121 601q21 60 44 78.5t53 18.5q27 0 65 -29.5t58 -29.5q37 0 62 57q6 2 15 2
q7 0 13 -2q-21 -58 -42 -77t-46 -19q-31 0 -70.5 29.5t-62.5 29.5q-19 0 -35.5 -18t-25.5 -40q-6 -2 -13 -2q-9 0 -15 2z" />
    <glyph glyph-name="odieresis" unicode="&#xf6;" horiz-adv-x="552" 
d="M275 -11q-112 0 -169.5 72t-57.5 190q0 117 57.5 189t169.5 72q113 0 171 -72t58 -189t-58.5 -189.5t-170.5 -72.5zM275 21q161 0 161 230t-161 230q-159 0 -159 -231q0 -229 159 -229zM152 645q0 16 10.5 26.5t26.5 10.5t26.5 -10.5t10.5 -26.5q0 -17 -10 -27t-27 -10
q-16 0 -26.5 10.5t-10.5 26.5zM324 645q0 16 10.5 26.5t26.5 10.5t26.5 -10.5t10.5 -26.5q0 -17 -10 -27t-27 -10q-16 0 -26.5 10.5t-10.5 26.5z" />
    <glyph glyph-name="divide" unicode="&#xf7;" 
d="M296 107q-17 0 -28 11t-11 28t11 28t28 11t28 -11t11 -28t-11 -28t-28 -11zM296 414q-17 0 -28 11t-11 28t11 28t28 11t28 -11t11 -28t-11 -28t-28 -11zM59 278v43h474v-43h-474z" />
    <glyph glyph-name="oslash" unicode="&#xf8;" horiz-adv-x="552" 
d="M75 2l38 52q-65 69 -65 197q0 117 58 189t169 72q83 0 139 -43l33 45l31 -21l-36 -49q62 -69 62 -193q0 -117 -59 -189.5t-170 -72.5q-79 0 -135 40l-34 -46zM145 98l242 334q-41 49 -112 49q-82 0 -120.5 -61.5t-38.5 -169.5q0 -94 29 -152zM409 398l-243 -332
q40 -45 109 -45q83 0 122 62t39 168q0 89 -27 147z" />
    <glyph glyph-name="ugrave" unicode="&#xf9;" horiz-adv-x="521" 
d="M77 173v329q26 0 60 5v-320q0 -79 24.5 -117.5t91.5 -38.5q40 0 75 15t56 38v418q26 0 60 5v-374q0 -95 13 -123l-52 -15q-15 24 -19 60q-60 -66 -155 -66q-154 0 -154 184zM261 581l-101 132q12 4 36 4q22 0 38 -4l62 -132q-4 -3 -18 -3q-11 0 -17 3z" />
    <glyph glyph-name="uacute" unicode="&#xfa;" horiz-adv-x="521" 
d="M77 173v329q26 0 60 5v-320q0 -79 24.5 -117.5t91.5 -38.5q40 0 75 15t56 38v418q26 0 60 5v-374q0 -95 13 -123l-52 -15q-15 24 -19 60q-60 -66 -155 -66q-154 0 -154 184zM235 581l63 132q14 4 37 4q22 0 36 -4l-100 -132q-6 -3 -18 -3q-13 0 -18 3z" />
    <glyph glyph-name="ucircumflex" unicode="&#xfb;" horiz-adv-x="521" 
d="M77 173v329q26 0 60 5v-320q0 -79 24.5 -117.5t91.5 -38.5q40 0 75 15t56 38v418q26 0 60 5v-374q0 -95 13 -123l-52 -15q-15 24 -19 60q-60 -66 -155 -66q-154 0 -154 184zM146 581l83 132q8 4 36 4t37 -4l83 -132q-5 -3 -18 -3q-10 0 -16 3l-85 102h-2l-84 -102
q-6 -3 -17 -3q-13 0 -17 3z" />
    <glyph glyph-name="udieresis" unicode="&#xfc;" horiz-adv-x="521" 
d="M77 173v329q26 0 60 5v-320q0 -79 24.5 -117.5t91.5 -38.5q40 0 75 15t56 38v418q26 0 60 5v-374q0 -95 13 -123l-52 -15q-15 24 -19 60q-60 -66 -155 -66q-154 0 -154 184zM137 645q0 16 10.5 26.5t26.5 10.5t26.5 -10.5t10.5 -26.5q0 -17 -10.5 -27t-26.5 -10
t-26.5 10.5t-10.5 26.5zM309 645q0 16 10.5 26.5t26.5 10.5t26.5 -10.5t10.5 -26.5q0 -17 -10.5 -27t-26.5 -10t-26.5 10.5t-10.5 26.5z" />
    <glyph glyph-name="yacute" unicode="&#xfd;" horiz-adv-x="451" 
d="M207 11l-178 486v5h61l83 -235q54 -154 61 -185h2q6 30 60 186l80 234h49v-5l-168 -479q-4 -11 -13.5 -39t-13 -37t-12 -31t-12.5 -29t-12.5 -22.5t-15.5 -20.5t-17 -14.5t-20.5 -12t-24 -5.5t-29.5 -3q-31 0 -45 4q-2 6 -2 25q0 20 2 26q21 -7 49 -7q10 0 18.5 1.5
t15.5 3.5t13 8t10.5 10t10 14t9 16.5t9 21.5t9 23.5t10.5 28.5t11 32zM209 581l63 132q14 4 37 4q22 0 36 -4l-100 -132q-6 -3 -18 -3q-14 0 -18 3z" />
    <glyph glyph-name="thorn" unicode="&#xfe;" horiz-adv-x="539" 
d="M77 -206v908q26 0 60 5v-256q59 61 148 61q103 0 153.5 -71.5t50.5 -189.5t-51 -189.5t-153 -71.5q-93 0 -148 59v-250q-22 0 -60 -5zM137 421v-342q47 -54 132 -54q152 0 152 226q0 108 -35 167t-117 59q-84 0 -132 -56z" />
    <glyph glyph-name="ydieresis" unicode="&#xff;" horiz-adv-x="451" 
d="M207 11l-178 486v5h61l83 -235q54 -154 61 -185h2q6 30 60 186l80 234h49v-5l-168 -479q-4 -11 -13.5 -39t-13 -37t-12 -31t-12.5 -29t-12.5 -22.5t-15.5 -20.5t-17 -14.5t-20.5 -12t-24 -5.5t-29.5 -3q-31 0 -45 4q-2 6 -2 25q0 20 2 26q21 -7 49 -7q10 0 18.5 1.5
t15.5 3.5t13 8t10.5 10t10 14t9 16.5t9 21.5t9 23.5t10.5 28.5t11 32zM110 645q0 16 10.5 26.5t26.5 10.5t26.5 -10.5t10.5 -26.5q0 -17 -10 -27t-27 -10q-16 0 -26.5 10.5t-10.5 26.5zM282 645q0 16 10.5 26.5t26.5 10.5t26.5 -10.5t10.5 -26.5q0 -17 -10 -27t-27 -10
q-16 0 -26.5 10.5t-10.5 26.5z" />
    <glyph glyph-name="Amacron" unicode="&#x100;" horiz-adv-x="593" 
d="M25 0v5l234 695h77l233 -695v-5h-65l-82 246h-264l-81 -246h-52zM172 287h237l-53 159q-55 166 -64 208h-3q-19 -74 -64 -208zM166 780v39h259v-39h-259z" />
    <glyph glyph-name="amacron" unicode="&#x101;" horiz-adv-x="497" 
d="M432 10l-51 -15q-15 26 -19 58q-55 -63 -142 -63q-78 0 -121 40t-43 105q0 78 55 116t142 38q61 0 107 -13v76q0 64 -22 96t-87 32q-54 0 -88 -25t-45 -53q-36 4 -49 22q22 40 70.5 64t111.5 24q95 0 132 -42.5t37 -117.5v-223q0 -90 12 -119zM360 80v171q-36 10 -99 10
q-142 0 -142 -120q0 -59 33 -87t89 -28q70 0 119 54zM119 620v39h259v-39h-259z" />
    <glyph glyph-name="Abreve" unicode="&#x102;" horiz-adv-x="593" 
d="M25 0v5l234 695h77l233 -695v-5h-65l-82 246h-264l-81 -246h-52zM172 287h237l-53 159q-55 166 -64 208h-3q-19 -74 -64 -208zM176 867q9 3 16 3q10 0 16 -3q14 -74 88 -74t88 74q6 3 15 3q7 0 16 -3q-5 -54 -35.5 -84.5t-83.5 -30.5t-84 30.5t-36 84.5z" />
    <glyph glyph-name="abreve" unicode="&#x103;" horiz-adv-x="497" 
d="M432 10l-51 -15q-15 26 -19 58q-55 -63 -142 -63q-78 0 -121 40t-43 105q0 78 55 116t142 38q61 0 107 -13v76q0 64 -22 96t-87 32q-54 0 -88 -25t-45 -53q-36 4 -49 22q22 40 70.5 64t111.5 24q95 0 132 -42.5t37 -117.5v-223q0 -90 12 -119zM360 80v171q-36 10 -99 10
q-142 0 -142 -120q0 -59 33 -87t89 -28q70 0 119 54zM127 703q4 3 16 3q10 0 16 -3q16 -83 88 -83t88 83q6 3 15 3q12 0 16 -3q-5 -56 -35 -90.5t-84 -34.5t-84 34.5t-36 90.5z" />
    <glyph glyph-name="Aogonek" unicode="&#x104;" horiz-adv-x="593" 
d="M25 0v5l234 695h77l233 -695v-5q-113 -56 -113 -138q0 -48 56 -48q33 0 54 14l10 -18q-27 -27 -81 -27q-88 0 -88 72q0 48 33.5 85t86.5 60h-23l-82 246h-264l-81 -246h-52zM172 287h237l-53 159q-55 166 -64 208h-3q-19 -74 -64 -208z" />
    <glyph glyph-name="aogonek" unicode="&#x105;" horiz-adv-x="497" 
d="M420 -172l10 -18q-27 -27 -81 -27q-88 0 -88 77q0 42 34 78.5t83 61.5q-12 25 -17 52q-54 -62 -141 -62q-78 0 -121 40t-43 105q0 78 55 116t142 38q61 0 107 -13v76q0 63 -23 95.5t-88 32.5q-54 0 -87 -25t-44 -53q-36 4 -49 22q22 40 70.5 64t109.5 24q95 0 133 -43
t38 -121v-219q0 -88 13 -119q-65 -36 -94 -70t-29 -74q0 -52 56 -52q33 0 54 14zM360 80v171q-36 10 -99 10q-142 0 -142 -120q0 -59 33 -87t89 -28q70 0 119 54z" />
    <glyph glyph-name="Cacute" unicode="&#x106;" horiz-adv-x="643" 
d="M540 203q44 0 61 -11q-51 -204 -255 -204q-141 0 -215 99.5t-74 263.5t74 262.5t214 98.5q197 0 249 -184q-16 -15 -61 -15q-21 81 -63.5 122.5t-123.5 41.5q-108 0 -163 -84.5t-55 -241.5t55 -242.5t163 -85.5q154 0 194 180zM310 752l55 112q10 3 38 3q25 0 36 -3
l-93 -112q-8 -4 -18 -4q-12 0 -18 4z" />
    <glyph glyph-name="cacute" unicode="&#x107;" horiz-adv-x="489" 
d="M405 122h4q37 0 51 -11q-16 -49 -62.5 -85.5t-125.5 -36.5q-111 0 -167.5 72t-56.5 190t56 189.5t166 71.5q80 0 124.5 -36t58.5 -89q-13 -12 -49 -12h-5q-29 106 -129 106q-154 0 -154 -230q0 -108 39 -169t119 -61q98 0 131 101zM236 581l63 132q14 4 37 4q22 0 36 -4
l-100 -132q-6 -3 -18 -3q-14 0 -18 3z" />
    <glyph glyph-name="Ccircumflex" unicode="&#x108;" horiz-adv-x="643" 
d="M540 203q44 0 61 -11q-51 -204 -255 -204q-141 0 -215 99.5t-74 263.5t74 262.5t214 98.5q197 0 249 -184q-16 -15 -61 -15q-21 81 -63.5 122.5t-123.5 41.5q-108 0 -163 -84.5t-55 -241.5t55 -242.5t163 -85.5q154 0 194 180zM234 750l81 114q11 3 37 3t37 -3l81 -114
q-4 -3 -17 -3q-11 0 -17 3l-83 81h-2l-83 -81q-6 -3 -17 -3q-13 0 -17 3z" />
    <glyph glyph-name="ccircumflex" unicode="&#x109;" horiz-adv-x="489" 
d="M405 122h4q37 0 51 -11q-16 -49 -62.5 -85.5t-125.5 -36.5q-111 0 -167.5 72t-56.5 190t56 189.5t166 71.5q80 0 124.5 -36t58.5 -89q-13 -12 -49 -12h-5q-29 106 -129 106q-154 0 -154 -230q0 -108 39 -169t119 -61q98 0 131 101zM153 581l83 132q8 4 36 4t37 -4
l83 -132q-4 -3 -18 -3q-10 0 -16 3l-85 102h-2l-84 -102q-6 -3 -17 -3q-12 0 -17 3z" />
    <glyph glyph-name="Cdotaccent" unicode="&#x10a;" horiz-adv-x="643" 
d="M540 203q44 0 61 -11q-51 -204 -255 -204q-141 0 -215 99.5t-74 263.5t74 262.5t214 98.5q197 0 249 -184q-16 -15 -61 -15q-21 81 -63.5 122.5t-123.5 41.5q-108 0 -163 -84.5t-55 -241.5t55 -242.5t163 -85.5q154 0 194 180zM344 769q-16 0 -26.5 10.5t-10.5 26.5
t10.5 26t26.5 10q17 0 27.5 -10t10.5 -26t-10.5 -26.5t-27.5 -10.5z" />
    <glyph glyph-name="cdotaccent" unicode="&#x10b;" horiz-adv-x="489" 
d="M405 122h4q37 0 51 -11q-16 -49 -62.5 -85.5t-125.5 -36.5q-111 0 -167.5 72t-56.5 190t56 189.5t166 71.5q80 0 124.5 -36t58.5 -89q-13 -12 -49 -12h-5q-29 106 -129 106q-154 0 -154 -230q0 -108 39 -169t119 -61q98 0 131 101zM234 646q0 16 11 26.5t28 10.5
t27.5 -10.5t10.5 -26.5q0 -17 -10.5 -27.5t-27.5 -10.5t-28 10.5t-11 27.5z" />
    <glyph glyph-name="Ccaron" unicode="&#x10c;" horiz-adv-x="643" 
d="M540 203q44 0 61 -11q-51 -204 -255 -204q-141 0 -215 99.5t-74 263.5t74 262.5t214 98.5q197 0 249 -184q-16 -15 -61 -15q-21 81 -63.5 122.5t-123.5 41.5q-108 0 -163 -84.5t-55 -241.5t55 -242.5t163 -85.5q154 0 194 180zM312 751l-81 113q5 3 17 3q11 0 17 -3
l83 -80h2l83 80q6 3 17 3q12 0 17 -3l-81 -113q-11 -3 -37 -3q-27 0 -37 3z" />
    <glyph glyph-name="ccaron" unicode="&#x10d;" horiz-adv-x="489" 
d="M405 122h4q37 0 51 -11q-16 -49 -62.5 -85.5t-125.5 -36.5q-111 0 -167.5 72t-56.5 190t56 189.5t166 71.5q80 0 124.5 -36t58.5 -89q-13 -12 -49 -12h-5q-29 106 -129 106q-154 0 -154 -230q0 -108 39 -169t119 -61q98 0 131 101zM236 580l-83 132q5 3 17 3q11 0 17 -3
l84 -102h2l85 102q6 3 17 3q13 0 17 -3l-83 -132q-11 -3 -36 -3q-26 0 -37 3z" />
    <glyph glyph-name="Dcaron" unicode="&#x10e;" horiz-adv-x="631" 
d="M90 0v700h158q326 0 326 -349q0 -168 -79.5 -259.5t-245.5 -91.5h-159zM154 35h94q131 0 192.5 79.5t61.5 236.5t-61 235.5t-192 78.5h-95v-630zM258 751l-81 113q5 3 17 3q11 0 17 -3l83 -80h2l83 80q6 3 17 3q12 0 17 -3l-81 -113q-10 -3 -37 -3t-37 3z" />
    <glyph glyph-name="dcaron" unicode="&#x10f;" horiz-adv-x="650" 
d="M471 9l-51 -15q-15 25 -19 57q-57 -61 -150 -61q-103 0 -153.5 71t-50.5 189q0 119 51 190.5t153 71.5q90 0 148 -60v250q26 0 60 5v-575q0 -97 12 -123zM399 81v341q-51 54 -132 54q-82 0 -117 -59t-35 -167t35 -166.5t117 -58.5q81 0 132 56zM548 562q18 13 29 36.5
t12 43.5q-15 0 -25.5 9.5t-10.5 25.5q0 35 34 35q39 0 39 -44q0 -45 -19.5 -78.5t-39.5 -41.5q-6 0 -12 4.5t-7 9.5z" />
    <glyph glyph-name="Dcroat" unicode="&#x110;" horiz-adv-x="653" 
d="M113 0v338h-79v39h79v323h158q166 0 245.5 -90.5t79.5 -258.5t-79.5 -259.5t-244.5 -91.5h-159zM176 35h94q131 0 192.5 79.5t61.5 236.5t-61 235.5t-192 78.5h-95v-288h188v-39h-188v-303z" />
    <glyph glyph-name="dcroat" unicode="&#x111;" horiz-adv-x="536" 
d="M471 9l-51 -15q-15 25 -19 57q-57 -61 -150 -61q-103 0 -153.5 71t-50.5 189q0 119 51 190.5t153 71.5q90 0 148 -60v145h-167v29h167v76q26 0 60 5v-81h74v-29h-74v-465q0 -97 12 -123zM399 81v341q-51 54 -132 54q-82 0 -117 -59t-35 -167t35 -166.5t117 -58.5
q81 0 132 56z" />
    <glyph glyph-name="Emacron" unicode="&#x112;" horiz-adv-x="510" 
d="M90 0v700h358v-40h-294v-280h267q2 -10 2 -20q0 -11 -2 -21h-267v-299h308v-40h-372zM143 780v39h259v-39h-259z" />
    <glyph glyph-name="emacron" unicode="&#x113;" horiz-adv-x="507" 
d="M458 257h-344q0 -236 157 -236q95 0 128 99q33 0 54 -14q-49 -117 -183 -117q-111 0 -166.5 73t-55.5 193q0 117 54 187t160 70q98 0 147.5 -62t49.5 -156q0 -24 -1 -37zM115 289h280q0 192 -133 192q-138 0 -147 -192zM133 620v39h259v-39h-259z" />
    <glyph glyph-name="Ebreve" unicode="&#x114;" horiz-adv-x="510" 
d="M90 0v700h358v-40h-294v-280h267q2 -10 2 -20q0 -11 -2 -21h-267v-299h308v-40h-372zM154 867q9 3 16 3q10 0 16 -3q14 -74 88 -74t88 74q6 3 15 3q7 0 16 -3q-5 -54 -35.5 -84.5t-83.5 -30.5t-84 30.5t-36 84.5z" />
    <glyph glyph-name="ebreve" unicode="&#x115;" horiz-adv-x="507" 
d="M458 257h-344q0 -236 157 -236q95 0 128 99q33 0 54 -14q-49 -117 -183 -117q-111 0 -166.5 73t-55.5 193q0 117 54 187t160 70q98 0 147.5 -62t49.5 -156q0 -24 -1 -37zM115 289h280q0 192 -133 192q-138 0 -147 -192zM141 703q5 3 16 3q10 0 16 -3q16 -83 88 -83t88 83
q6 3 15 3q12 0 16 -3q-5 -56 -35 -90.5t-84 -34.5t-84 34.5t-36 90.5z" />
    <glyph glyph-name="Edotaccent" unicode="&#x116;" horiz-adv-x="510" 
d="M90 0v700h358v-40h-294v-280h267q2 -10 2 -20q0 -11 -2 -21h-267v-299h308v-40h-372zM274 769q-16 0 -26.5 10.5t-10.5 26.5t10.5 26t26.5 10q17 0 27.5 -10t10.5 -26t-10.5 -26.5t-27.5 -10.5z" />
    <glyph glyph-name="edotaccent" unicode="&#x117;" horiz-adv-x="507" 
d="M458 257h-344q0 -236 157 -236q95 0 128 99q33 0 54 -14q-49 -117 -183 -117q-111 0 -166.5 73t-55.5 193q0 117 54 187t160 70q98 0 147.5 -62t49.5 -156q0 -24 -1 -37zM115 289h280q0 192 -133 192q-138 0 -147 -192zM219 646q0 16 11 26.5t28 10.5t27.5 -10.5
t10.5 -26.5q0 -17 -10.5 -27.5t-27.5 -10.5t-28 10.5t-11 27.5z" />
    <glyph glyph-name="Eogonek" unicode="&#x118;" horiz-adv-x="510" 
d="M90 0v700h358v-40h-294v-280h267q2 -10 2 -20q0 -11 -2 -21h-267v-299h308v-40q-113 -56 -113 -138q0 -48 56 -48q33 0 54 14l10 -18q-27 -27 -81 -27q-88 0 -88 72q0 48 33.5 85t86.5 60h-330z" />
    <glyph glyph-name="eogonek" unicode="&#x119;" horiz-adv-x="507" 
d="M429 -172l8 -18q-27 -27 -80 -27q-88 0 -88 77q0 56 79 141q-39 -12 -78 -12q-111 0 -166.5 73t-55.5 193q0 117 54 187t160 70q98 0 147.5 -62t49.5 -156q0 -24 -1 -37h-344q0 -236 157 -236q95 0 128 99q33 0 54 -14q-12 -29 -38 -62q-38 -48 -54 -70.5t-30 -53.5
t-14 -59q0 -47 57 -47q34 0 55 14zM115 289h280q0 192 -133 192q-138 0 -147 -192z" />
    <glyph glyph-name="Ecaron" unicode="&#x11a;" horiz-adv-x="510" 
d="M90 0v700h358v-40h-294v-280h267q2 -10 2 -20q0 -11 -2 -21h-267v-299h308v-40h-372zM241 751l-81 113q4 3 17 3q11 0 17 -3l83 -80h2l83 80q6 3 17 3q13 0 17 -3l-81 -113q-11 -3 -37 -3q-27 0 -37 3z" />
    <glyph glyph-name="ecaron" unicode="&#x11b;" horiz-adv-x="507" 
d="M458 257h-344q0 -236 157 -236q95 0 128 99q33 0 54 -14q-49 -117 -183 -117q-111 0 -166.5 73t-55.5 193q0 117 54 187t160 70q98 0 147.5 -62t49.5 -156q0 -24 -1 -37zM115 289h280q0 192 -133 192q-138 0 -147 -192zM231 580l-83 132q4 3 17 3q11 0 17 -3l84 -102h2
l85 102q6 3 17 3q12 0 17 -3l-83 -132q-11 -3 -36 -3q-26 0 -37 3z" />
    <glyph glyph-name="Gcircumflex" unicode="&#x11c;" horiz-adv-x="656" 
d="M522 73v243h-162v40h222v-297q-78 -71 -229 -71q-150 0 -223 98t-73 265q0 164 74 262.5t215 98.5q105 0 161 -43.5t73 -106.5q-19 -15 -57 -15q-37 130 -177 130q-108 0 -163 -85t-55 -241q0 -328 231 -328q115 0 163 50zM232 750l81 114q11 3 37 3t37 -3l81 -114
q-4 -3 -17 -3q-11 0 -17 3l-83 81h-2l-83 -81q-6 -3 -17 -3q-13 0 -17 3z" />
    <glyph glyph-name="gcircumflex" unicode="&#x11d;" horiz-adv-x="515" 
d="M228 59h83q94 0 135 -27t41 -79q0 -72 -61.5 -118.5t-182.5 -46.5q-103 0 -156.5 36t-53.5 95q0 72 80 103q-53 23 -53 70q0 53 70 92q-66 49 -66 146q0 84 52 133t138 49q40 0 73 -10h164v-34h-119q72 -48 72 -141q0 -81 -52 -130t-138 -49q-59 0 -103 23
q-39 -26 -39 -62q0 -26 25 -38t91 -12zM254 178q62 0 94.5 40.5t32.5 111.5t-33 111.5t-94 40.5t-94.5 -41t-33.5 -112t33 -111t95 -40zM301 7h-93q-39 0 -73 8q-46 -36 -46 -89q0 -107 163 -107q87 0 134.5 32t47.5 86q0 38 -29 54t-104 16zM139 581l83 132q8 4 36 4t37 -4
l83 -132q-4 -3 -18 -3q-10 0 -16 3l-85 102h-2l-84 -102q-6 -3 -17 -3q-12 0 -17 3z" />
    <glyph glyph-name="Gbreve" unicode="&#x11e;" horiz-adv-x="656" 
d="M522 73v243h-162v40h222v-297q-78 -71 -229 -71q-150 0 -223 98t-73 265q0 164 74 262.5t215 98.5q105 0 161 -43.5t73 -106.5q-19 -15 -57 -15q-37 130 -177 130q-108 0 -163 -85t-55 -241q0 -328 231 -328q115 0 163 50zM230 867q9 3 16 3q10 0 16 -3q14 -74 88 -74
t88 74q6 3 15 3q7 0 16 -3q-5 -54 -35.5 -84.5t-83.5 -30.5t-84 30.5t-36 84.5z" />
    <glyph glyph-name="gbreve" unicode="&#x11f;" horiz-adv-x="515" 
d="M228 59h83q94 0 135 -27t41 -79q0 -72 -61.5 -118.5t-182.5 -46.5q-103 0 -156.5 36t-53.5 95q0 72 80 103q-53 23 -53 70q0 53 70 92q-66 49 -66 146q0 84 52 133t138 49q40 0 73 -10h164v-34h-119q72 -48 72 -141q0 -81 -52 -130t-138 -49q-59 0 -103 23
q-39 -26 -39 -62q0 -26 25 -38t91 -12zM254 178q62 0 94.5 40.5t32.5 111.5t-33 111.5t-94 40.5t-94.5 -41t-33.5 -112t33 -111t95 -40zM301 7h-93q-39 0 -73 8q-46 -36 -46 -89q0 -107 163 -107q87 0 134.5 32t47.5 86q0 38 -29 54t-104 16zM139 703q4 3 16 3q10 0 16 -3
q16 -83 88 -83t88 83q6 3 15 3q12 0 16 -3q-5 -56 -35 -90.5t-84 -34.5t-84 34.5t-36 90.5z" />
    <glyph glyph-name="Gdotaccent" unicode="&#x120;" horiz-adv-x="656" 
d="M522 73v243h-162v40h222v-297q-78 -71 -229 -71q-150 0 -223 98t-73 265q0 164 74 262.5t215 98.5q105 0 161 -43.5t73 -106.5q-19 -15 -57 -15q-37 130 -177 130q-108 0 -163 -85t-55 -241q0 -328 231 -328q115 0 163 50zM340 769q-16 0 -26.5 10.5t-10.5 26.5t10.5 26
t26.5 10q17 0 27.5 -10t10.5 -26t-10.5 -26.5t-27.5 -10.5z" />
    <glyph glyph-name="gdotaccent" unicode="&#x121;" horiz-adv-x="515" 
d="M228 59h83q94 0 135 -27t41 -79q0 -72 -61.5 -118.5t-182.5 -46.5q-103 0 -156.5 36t-53.5 95q0 72 80 103q-53 23 -53 70q0 53 70 92q-66 49 -66 146q0 84 52 133t138 49q40 0 73 -10h164v-34h-119q72 -48 72 -141q0 -81 -52 -130t-138 -49q-59 0 -103 23
q-39 -26 -39 -62q0 -26 25 -38t91 -12zM254 178q62 0 94.5 40.5t32.5 111.5t-33 111.5t-94 40.5t-94.5 -41t-33.5 -112t33 -111t95 -40zM301 7h-93q-39 0 -73 8q-46 -36 -46 -89q0 -107 163 -107q87 0 134.5 32t47.5 86q0 38 -29 54t-104 16zM219 646q0 16 11 26.5t28 10.5
t27.5 -10.5t10.5 -26.5q0 -17 -10.5 -27.5t-27.5 -10.5t-28 10.5t-11 27.5z" />
    <glyph glyph-name="Gcommaaccent" unicode="&#x122;" horiz-adv-x="656" 
d="M522 73v243h-162v40h222v-297q-78 -71 -229 -71q-150 0 -223 98t-73 265q0 164 74 262.5t215 98.5q105 0 161 -43.5t73 -106.5q-19 -15 -57 -15q-37 130 -177 130q-108 0 -163 -85t-55 -241q0 -328 231 -328q115 0 163 50zM305 -207q19 14 31.5 36.5t13.5 41.5
q-17 0 -28.5 10.5t-11.5 26.5t10.5 26t27.5 10q41 0 41 -44t-22 -77t-43 -40q-5 0 -11.5 3.5t-7.5 6.5z" />
    <glyph glyph-name="gcommaaccent" unicode="&#x123;" horiz-adv-x="515" 
d="M228 59h83q94 0 135 -27t41 -79q0 -72 -61.5 -118.5t-182.5 -46.5q-103 0 -156.5 36t-53.5 95q0 72 80 103q-53 23 -53 70q0 53 70 92q-66 49 -66 146q0 84 52 133t138 49q40 0 73 -10h164v-34h-119q72 -48 72 -141q0 -81 -52 -130t-138 -49q-59 0 -103 23
q-39 -26 -39 -62q0 -26 25 -38t91 -12zM254 178q62 0 94.5 40.5t32.5 111.5t-33 111.5t-94 40.5t-94.5 -41t-33.5 -112t33 -111t95 -40zM301 7h-93q-39 0 -73 8q-46 -36 -46 -89q0 -107 163 -107q87 0 134.5 32t47.5 86q0 38 -29 54t-104 16zM283 750q15 0 20 -12
q-19 -14 -32 -36.5t-14 -41.5q18 -1 29 -11t11 -26t-10 -26.5t-27 -10.5q-20 0 -31 12.5t-11 32.5q0 44 22 78t43 41z" />
    <glyph glyph-name="Hcircumflex" unicode="&#x124;" horiz-adv-x="673" 
d="M90 0v700h64v-307h366v307h63v-700h-63v351h-366v-351h-64zM227 750l81 114q10 3 37 3t37 -3l81 -114q-5 -3 -17 -3q-11 0 -17 3l-83 81h-2l-83 -81q-6 -3 -17 -3q-13 0 -17 3z" />
    <glyph glyph-name="hcircumflex" unicode="&#x125;" horiz-adv-x="533" 
d="M77 0v702q26 0 60 5v-264q23 28 65.5 48.5t95.5 20.5q158 0 158 -191v-215q0 -92 7 -106h-67v307q0 83 -26 125t-94 42q-84 0 -139 -59v-415h-60zM158 750l81 114q10 3 37 3q26 0 37 -3l81 -114q-5 -3 -17 -3q-11 0 -17 3l-83 81h-2l-83 -81q-6 -3 -17 -3q-13 0 -17 3z
" />
    <glyph glyph-name="Hbar" unicode="&#x126;" horiz-adv-x="673" 
d="M90 0v537h-49v39h49v124h64v-124h366v124h63v-124h49v-39h-49v-537h-63v351h-366v-351h-64zM154 393h366v144h-366v-144z" />
    <glyph glyph-name="hbar" unicode="&#x127;" horiz-adv-x="533" 
d="M77 0v597h-71v29h71v76q26 0 60 5v-81h170v-29h-170v-154q23 28 65.5 48.5t95.5 20.5q158 0 158 -191v-215q0 -92 7 -106h-67v307q0 83 -26 125t-94 42q-84 0 -139 -59v-415h-60z" />
    <glyph glyph-name="Itilde" unicode="&#x128;" horiz-adv-x="244" 
d="M90 0v700h64v-700h-64zM-33 763q21 59 44 77.5t53 18.5q27 0 65 -29.5t58 -29.5q35 0 62 58q3 1 15 1q10 0 13 -1q-22 -58 -43 -77.5t-46 -19.5q-30 0 -69.5 29.5t-62.5 29.5q-19 0 -35.5 -17.5t-25.5 -39.5q-6 -2 -13 -2q-9 0 -15 2z" />
    <glyph glyph-name="itilde" unicode="&#x129;" horiz-adv-x="214" 
d="M77 0v502q26 0 60 5v-401q0 -94 6 -106h-66zM-48 601q21 60 44 78.5t53 18.5q27 0 65 -29.5t58 -29.5q37 0 62 57q6 2 15 2q7 0 13 -2q-21 -58 -42 -77t-46 -19q-31 0 -70.5 29.5t-62.5 29.5q-19 0 -35.5 -18t-25.5 -40q-6 -2 -13 -2q-9 0 -15 2z" />
    <glyph glyph-name="Imacron" unicode="&#x12a;" horiz-adv-x="244" 
d="M90 0v700h64v-700h-64zM-7 780v39h259v-39h-259z" />
    <glyph glyph-name="imacron" unicode="&#x12b;" horiz-adv-x="214" 
d="M77 0v502q26 0 60 5v-401q0 -94 6 -106h-66zM-22 620v39h259v-39h-259z" />
    <glyph glyph-name="Ibreve" unicode="&#x12c;" horiz-adv-x="244" 
d="M90 0v700h64v-700h-64zM3 867q9 3 16 3q10 0 16 -3q14 -74 88 -74t88 74q6 3 15 3q7 0 16 -3q-5 -54 -35.5 -84.5t-83.5 -30.5t-84 30.5t-36 84.5z" />
    <glyph glyph-name="ibreve" unicode="&#x12d;" horiz-adv-x="214" 
d="M77 0v502q26 0 60 5v-401q0 -94 6 -106h-66zM-12 703q4 3 16 3q10 0 16 -3q16 -83 88 -83t88 83q6 3 15 3q11 0 16 -3q-5 -56 -35 -90.5t-84 -34.5t-84 34.5t-36 90.5z" />
    <glyph glyph-name="Iogonek" unicode="&#x12e;" horiz-adv-x="244" 
d="M150 -172l10 -18q-27 -27 -81 -27q-88 0 -88 72q0 48 33.5 85t86.5 60h-21v700h64v-700h-1q-113 -56 -113 -138q0 -48 56 -48q33 0 54 14z" />
    <glyph glyph-name="iogonek" unicode="&#x12f;" horiz-adv-x="214" 
d="M140 -172l10 -18q-27 -27 -81 -27q-88 0 -88 72q0 48 33.5 85t86.5 60h-24v502q26 0 60 5v-401q0 -94 6 -106q-113 -56 -113 -138q0 -48 56 -48q33 0 54 14zM68 645q0 17 11 27.5t28 10.5q18 0 28.5 -10.5t10.5 -27.5q0 -16 -10.5 -27t-28.5 -11q-17 0 -28 11t-11 27z
" />
    <glyph glyph-name="Idotaccent" unicode="&#x130;" horiz-adv-x="244" 
d="M90 0v700h64v-700h-64zM121 769q-16 0 -26.5 10.5t-10.5 26.5t10.5 26t26.5 10q17 0 27.5 -10t10.5 -26t-10.5 -26.5t-27.5 -10.5z" />
    <glyph glyph-name="dotlessi" unicode="&#x131;" horiz-adv-x="214" 
d="M77 0v502q26 0 60 5v-401q0 -94 6 -106h-66z" />
    <glyph glyph-name="IJ" unicode="&#x132;" horiz-adv-x="621" 
d="M90 0v700h64v-700h-64zM471 154v546h63v-554q0 -83 -43 -119.5t-131 -36.5q-71 0 -97 11q-1 3 -1 15q0 20 3 28q34 -17 90 -17q64 0 90 29t26 98z" />
    <glyph glyph-name="ij" unicode="&#x133;" horiz-adv-x="416" 
d="M77 0v502q26 0 60 5v-401q0 -94 6 -106h-66zM68 645q0 17 11 27.5t28 10.5q18 0 28.5 -10.5t10.5 -27.5q0 -16 -10.5 -27t-28.5 -11q-17 0 -28 11t-11 27zM279 -64v566q26 0 60 5v-577q0 -74 -28.5 -103.5t-93.5 -29.5q-27 0 -47 5q-2 6 -2 15q0 15 3 22q18 -6 42 -6
q42 0 54 22.5t12 80.5zM270 645q0 17 11 27.5t28 10.5q18 0 28.5 -10.5t10.5 -27.5q0 -16 -10.5 -27t-28.5 -11q-17 0 -28 11t-11 27z" />
    <glyph glyph-name="Jcircumflex" unicode="&#x134;" horiz-adv-x="389" 
d="M239 154v546h63v-554q0 -83 -43 -119.5t-131 -36.5q-71 0 -97 11q-1 3 -1 15q0 20 3 28q34 -17 90 -17q64 0 90 29t26 98zM151 750l81 114q10 3 37 3t37 -3l81 -114q-5 -3 -17 -3q-11 0 -17 3l-83 81h-2l-83 -81q-6 -3 -17 -3q-12 0 -17 3z" />
    <glyph glyph-name="jcircumflex" unicode="&#x135;" horiz-adv-x="214" 
d="M77 -64v566q26 0 60 5v-577q0 -74 -28.5 -103.5t-93.5 -29.5q-27 0 -47 5q-2 6 -2 15q0 15 3 22q18 -6 42 -6q42 0 54 22.5t12 80.5zM-11 581l83 132q8 4 36 4t37 -4l83 -132q-4 -3 -18 -3q-10 0 -16 3l-85 102h-2l-84 -102q-6 -3 -17 -3q-12 0 -17 3z" />
    <glyph glyph-name="Kcommaaccent" unicode="&#x136;" horiz-adv-x="545" 
d="M90 0v700h64v-326h2l298 326h59v-5l-298 -323l306 -367v-5h-73l-292 351h-2v-351h-64zM242 -207q19 14 31.5 36.5t13.5 41.5q-17 0 -28.5 10.5t-11.5 26.5t10.5 26t27.5 10q41 0 41 -44t-22 -77t-43 -40q-5 0 -11.5 3.5t-7.5 6.5z" />
    <glyph glyph-name="kcommaaccent" unicode="&#x137;" horiz-adv-x="437" 
d="M77 0v702q26 0 60 5v-417h2l211 212h58v-5l-213 -208l218 -284v-5h-66l-208 276h-2v-276h-60zM182 -207q19 14 31.5 36.5t13.5 41.5q-17 0 -28.5 10.5t-11.5 26.5t10.5 26t27.5 10q41 0 41 -44t-22 -77t-43 -40q-5 0 -11.5 3.5t-7.5 6.5z" />
    <glyph glyph-name="kgreenlandic" unicode="&#x138;" horiz-adv-x="437" 
d="M77 0v502q26 0 60 5v-246h2l211 241h58v-5l-213 -237l218 -255v-5h-66l-208 247h-2v-247h-60z" />
    <glyph glyph-name="Lacute" unicode="&#x139;" horiz-adv-x="480" 
d="M90 0v700h64v-659h301v-41h-365zM102 752l55 112q11 3 38 3q25 0 36 -3l-93 -112q-8 -4 -18 -4q-12 0 -18 4z" />
    <glyph glyph-name="lacute" unicode="&#x13a;" horiz-adv-x="214" 
d="M77 0v702q26 0 60 5v-601q0 -94 6 -106h-66zM83 752l55 112q11 3 38 3q26 0 36 -3l-93 -112q-8 -4 -18 -4q-12 0 -18 4z" />
    <glyph glyph-name="Lcommaaccent" unicode="&#x13b;" horiz-adv-x="480" 
d="M90 0v700h64v-659h301v-41h-365zM231 -207q19 14 31.5 36.5t13.5 41.5q-17 0 -28.5 10.5t-11.5 26.5t10.5 26t27.5 10q41 0 41 -44t-22 -77t-43 -40q-5 0 -11.5 3.5t-7.5 6.5z" />
    <glyph glyph-name="lcommaaccent" unicode="&#x13c;" horiz-adv-x="214" 
d="M77 0v702q26 0 60 5v-601q0 -94 6 -106h-66zM67 -207q19 14 31.5 36.5t13.5 41.5q-17 0 -28.5 10.5t-11.5 26.5t10.5 26t27.5 10q41 0 41 -44t-22 -77t-43 -40q-5 0 -11.5 3.5t-7.5 6.5z" />
    <glyph glyph-name="Lcaron" unicode="&#x13d;" horiz-adv-x="480" 
d="M90 0v700h64v-659h301v-41h-365zM264 562q18 13 29 36.5t12 43.5q-15 0 -25.5 9.5t-10.5 25.5q0 35 34 35q39 0 39 -44q0 -45 -19.5 -78.5t-39.5 -41.5q-6 0 -12 4.5t-7 9.5z" />
    <glyph glyph-name="lcaron" unicode="&#x13e;" horiz-adv-x="329" 
d="M77 0v702q26 0 60 5v-601q0 -94 6 -106h-66zM227 562q18 13 29 36.5t12 43.5q-15 0 -25.5 9.5t-10.5 25.5q0 35 34 35q39 0 39 -44q0 -45 -19.5 -78.5t-39.5 -41.5q-6 0 -12 4.5t-7 9.5z" />
    <glyph glyph-name="Ldot" unicode="&#x13f;" horiz-adv-x="480" 
d="M90 0v700h64v-659h301v-41h-365zM285 372q0 16 11 26.5t28 10.5t27.5 -10.5t10.5 -26.5q0 -17 -10.5 -27.5t-27.5 -10.5t-28 10.5t-11 27.5z" />
    <glyph glyph-name="ldot" unicode="&#x140;" horiz-adv-x="347" 
d="M77 0v702q26 0 60 5v-601q0 -94 6 -106h-66zM236 375q0 16 11 26.5t28 10.5t27.5 -10.5t10.5 -26.5q0 -17 -10.5 -27.5t-27.5 -10.5t-28 10.5t-11 27.5z" />
    <glyph glyph-name="Lslash" unicode="&#x141;" horiz-adv-x="512" 
d="M122 0v257l-77 -46v43l77 47v399h63v-367l171 103v-45l-171 -101v-249h302v-41h-365z" />
    <glyph glyph-name="lslash" unicode="&#x142;" horiz-adv-x="324" 
d="M132 0v372l-97 -58v41l97 58v289q26 0 60 5v-264l97 59v-41l-97 -59v-296q0 -94 6 -106h-66z" />
    <glyph glyph-name="Nacute" unicode="&#x143;" horiz-adv-x="690" 
d="M90 0v700h71l245 -382q112 -173 141 -235h3q-3 78 -3 191v426h53v-700h-58l-274 426q-91 142 -125 210h-3q4 -78 4 -201v-435h-54zM344 752l55 112q11 3 38 3q25 0 36 -3l-93 -112q-8 -4 -18 -4q-12 0 -18 4z" />
    <glyph glyph-name="nacute" unicode="&#x144;" horiz-adv-x="533" 
d="M77 0v502q22 0 56 5v-69q23 30 66 52t99 22q158 0 158 -191v-215q0 -92 7 -106h-67v307q0 83 -26 125t-94 42q-84 0 -139 -59v-415h-60zM231 581l63 132q14 4 37 4q22 0 36 -4l-100 -132q-6 -3 -18 -3q-13 0 -18 3z" />
    <glyph glyph-name="Ncommaaccent" unicode="&#x145;" horiz-adv-x="690" 
d="M90 0v700h71l245 -382q112 -173 141 -235h3q-3 78 -3 191v426h53v-700h-58l-274 426q-91 142 -125 210h-3q4 -78 4 -201v-435h-54zM324 -207q19 14 31.5 36.5t13.5 41.5q-17 0 -28.5 10.5t-11.5 26.5t10.5 26t27.5 10q41 0 41 -44t-22 -77t-43 -40q-5 0 -11.5 3.5
t-7.5 6.5z" />
    <glyph glyph-name="ncommaaccent" unicode="&#x146;" horiz-adv-x="533" 
d="M77 0v502q22 0 56 5v-69q23 30 66 52t99 22q158 0 158 -191v-215q0 -92 7 -106h-67v307q0 83 -26 125t-94 42q-84 0 -139 -59v-415h-60zM225 -207q19 14 31.5 36.5t13.5 41.5q-17 0 -28.5 10.5t-11.5 26.5t10.5 26t27.5 10q41 0 41 -44t-22 -77t-43 -40q-5 0 -11.5 3.5
t-7.5 6.5z" />
    <glyph glyph-name="Ncaron" unicode="&#x147;" horiz-adv-x="690" 
d="M90 0v700h71l245 -382q112 -173 141 -235h3q-3 78 -3 191v426h53v-700h-58l-274 426q-91 142 -125 210h-3q4 -78 4 -201v-435h-54zM327 751l-81 113q4 3 17 3q11 0 17 -3l83 -80h2l83 80q6 3 17 3q13 0 17 -3l-81 -113q-11 -3 -37 -3t-37 3z" />
    <glyph glyph-name="ncaron" unicode="&#x148;" horiz-adv-x="533" 
d="M77 0v502q22 0 56 5v-69q23 30 66 52t99 22q158 0 158 -191v-215q0 -92 7 -106h-67v307q0 83 -26 125t-94 42q-84 0 -139 -59v-415h-60zM230 580l-83 132q5 3 17 3q11 0 17 -3l84 -102h2l85 102q6 3 17 3q13 0 17 -3l-83 -132q-11 -3 -36 -3q-27 0 -37 3z" />
    <glyph glyph-name="napostrophe" unicode="&#x149;" horiz-adv-x="533" 
d="M77 0v502q22 0 56 5v-69q23 30 66 52t99 22q158 0 158 -191v-215q0 -92 7 -106h-67v307q0 83 -26 125t-94 42q-84 0 -139 -59v-415h-60zM32 568q19 14 31.5 36.5t13.5 41.5q-17 0 -28.5 10.5t-11.5 26.5t10.5 26t27.5 10q41 0 41 -44t-22 -77t-43 -40q-5 0 -11.5 3.5
t-7.5 6.5z" />
    <glyph glyph-name="Eng" unicode="&#x14a;" horiz-adv-x="690" 
d="M90 0v700h71l245 -382q112 -173 141 -235h3q-3 78 -3 191v426h53v-770q0 -74 -28.5 -103.5t-93.5 -29.5q-27 0 -47 5q-2 6 -2 15q0 15 3 22q18 -6 42 -6q43 0 58 23.5t15 79.5v64h-5l-274 426q-91 142 -125 210h-3q4 -78 4 -201v-435h-54z" />
    <glyph glyph-name="eng" unicode="&#x14b;" horiz-adv-x="533" 
d="M77 0v502q24 0 56 5v-69q23 30 66 52t99 22q158 0 158 -191v-391q0 -74 -28.5 -103.5t-93.5 -29.5q-34 0 -46 5q-2 3 -2 16q0 15 3 21q16 -7 42 -7q42 0 53.5 23.5t11.5 85.5v366q0 83 -26 125t-94 42q-44 0 -81 -18t-58 -41v-415h-60z" />
    <glyph glyph-name="Omacron" unicode="&#x14c;" horiz-adv-x="693" 
d="M346 -12q-140 0 -214.5 99t-74.5 264q0 164 74 262.5t215 98.5q140 0 215.5 -98.5t75.5 -262.5t-75.5 -263.5t-215.5 -99.5zM346 23q108 0 163.5 85.5t55.5 242.5t-55.5 241.5t-163.5 84.5t-163 -84.5t-55 -241.5t55 -242.5t163 -85.5zM218 780v39h259v-39h-259z" />
    <glyph glyph-name="omacron" unicode="&#x14d;" horiz-adv-x="552" 
d="M275 -11q-112 0 -169.5 72t-57.5 190q0 117 57.5 189t169.5 72q113 0 171 -72t58 -189t-58.5 -189.5t-170.5 -72.5zM275 21q161 0 161 230t-161 230q-159 0 -159 -231q0 -229 159 -229zM146 620v39h259v-39h-259z" />
    <glyph glyph-name="Obreve" unicode="&#x14e;" horiz-adv-x="693" 
d="M346 -12q-140 0 -214.5 99t-74.5 264q0 164 74 262.5t215 98.5q140 0 215.5 -98.5t75.5 -262.5t-75.5 -263.5t-215.5 -99.5zM346 23q108 0 163.5 85.5t55.5 242.5t-55.5 241.5t-163.5 84.5t-163 -84.5t-55 -241.5t55 -242.5t163 -85.5zM227 867q9 3 16 3q10 0 16 -3
q14 -74 88 -74t88 74q6 3 15 3q7 0 16 -3q-5 -54 -35.5 -84.5t-83.5 -30.5t-84 30.5t-36 84.5z" />
    <glyph glyph-name="obreve" unicode="&#x14f;" horiz-adv-x="552" 
d="M275 -11q-112 0 -169.5 72t-57.5 190q0 117 57.5 189t169.5 72q113 0 171 -72t58 -189t-58.5 -189.5t-170.5 -72.5zM275 21q161 0 161 230t-161 230q-159 0 -159 -231q0 -229 159 -229zM156 703q4 3 16 3q10 0 16 -3q16 -83 88 -83t88 83q6 3 15 3q11 0 16 -3
q-5 -56 -35 -90.5t-84 -34.5t-84 34.5t-36 90.5z" />
    <glyph glyph-name="Ohungarumlaut" unicode="&#x150;" horiz-adv-x="693" 
d="M346 -12q-140 0 -214.5 99t-74.5 264q0 164 74 262.5t215 98.5q140 0 215.5 -98.5t75.5 -262.5t-75.5 -263.5t-215.5 -99.5zM346 23q108 0 163.5 85.5t55.5 242.5t-55.5 241.5t-163.5 84.5t-163 -84.5t-55 -241.5t55 -242.5t163 -85.5zM257 752l37 112q14 4 36 4
q20 0 34 -4l-72 -112q-8 -4 -18 -4q-11 0 -17 4zM391 752l54 112q14 4 37 4q21 0 35 -4l-88 -112q-8 -4 -19 -4q-13 0 -19 4z" />
    <glyph glyph-name="ohungarumlaut" unicode="&#x151;" horiz-adv-x="552" 
d="M275 -11q-112 0 -169.5 72t-57.5 190q0 117 57.5 189t169.5 72q113 0 171 -72t58 -189t-58.5 -189.5t-170.5 -72.5zM275 21q161 0 161 230t-161 230q-159 0 -159 -231q0 -229 159 -229zM189 581l43 132q14 4 35 4t35 -4l-78 -132q-6 -3 -17 -3q-13 0 -18 3zM314 581
l59 132q14 4 37 4q21 0 35 -4l-94 -132q-6 -3 -19 -3q-14 0 -18 3z" />
    <glyph glyph-name="OE" unicode="&#x152;" horiz-adv-x="853" 
d="M497 40h309v-40h-364q-45 -12 -96 -12q-139 0 -214 99.5t-75 263.5q0 163 75.5 262t213.5 99q51 0 96 -12h349v-40h-294v-280h268q1 -5 1 -20q0 -16 -1 -21h-268v-299zM434 34v632q-37 11 -87 11q-105 0 -162 -85.5t-57 -240.5t56.5 -241.5t162.5 -86.5q50 0 87 11z" />
    <glyph glyph-name="oe" unicode="&#x153;" horiz-adv-x="896" 
d="M847 257h-343q0 -236 156 -236q95 0 128 99q33 0 54 -14q-49 -117 -183 -117q-136 0 -190 113q-56 -113 -194 -113q-111 0 -169 72t-58 190q0 117 58 189t169 72q136 0 193 -110q52 110 183 110q98 0 147.5 -62t49.5 -156q0 -24 -1 -37zM275 21q83 0 122 62t39 168
q0 107 -39 168.5t-122 61.5q-82 0 -120.5 -61.5t-38.5 -169.5q0 -106 38.5 -167.5t120.5 -61.5zM505 289h279q0 192 -133 192q-137 0 -146 -192z" />
    <glyph glyph-name="Racute" unicode="&#x154;" horiz-adv-x="552" 
d="M90 0v700h133q135 0 197 -49.5t62 -147.5q0 -148 -148 -190l171 -308v-5h-67l-164 302q-27 -3 -58 -3h-62v-299h-64zM154 336h67q101 0 147 40t46 126t-45 124t-148 38h-67v-328zM240 752l55 112q10 3 38 3q25 0 36 -3l-93 -112q-8 -4 -18 -4q-12 0 -18 4z" />
    <glyph glyph-name="racute" unicode="&#x155;" horiz-adv-x="319" 
d="M77 0v502q22 0 56 5v-72h2q14 25 48.5 50.5t80.5 25.5q18 0 27 -3q2 -4 2 -22q0 -22 -2 -32q-12 2 -35 2q-49 0 -79.5 -17.5t-39.5 -33.5v-300q0 -92 6 -105h-66zM152 581l63 132q14 4 37 4q22 0 36 -4l-100 -132q-6 -3 -18 -3q-14 0 -18 3z" />
    <glyph glyph-name="Rcommaaccent" unicode="&#x156;" horiz-adv-x="552" 
d="M90 0v700h133q135 0 197 -49.5t62 -147.5q0 -148 -148 -190l171 -308v-5h-67l-164 302q-27 -3 -58 -3h-62v-299h-64zM154 336h67q101 0 147 40t46 126t-45 124t-148 38h-67v-328zM241 -207q19 14 31.5 36.5t13.5 41.5q-17 0 -28.5 10.5t-11.5 26.5t10.5 26t27.5 10
q41 0 41 -44t-22 -77t-43 -40q-5 0 -11.5 3.5t-7.5 6.5z" />
    <glyph glyph-name="rcommaaccent" unicode="&#x157;" horiz-adv-x="319" 
d="M77 0v502q22 0 56 5v-72h2q14 25 48.5 50.5t80.5 25.5q18 0 27 -3q2 -4 2 -22q0 -22 -2 -32q-12 2 -35 2q-49 0 -79.5 -17.5t-39.5 -33.5v-300q0 -92 6 -105h-66zM63 -207q19 14 31.5 36.5t13.5 41.5q-17 0 -28.5 10.5t-11.5 26.5t10.5 26t27.5 10q41 0 41 -44t-22 -77
t-43 -40q-5 0 -11.5 3.5t-7.5 6.5z" />
    <glyph glyph-name="Rcaron" unicode="&#x158;" horiz-adv-x="552" 
d="M90 0v700h133q135 0 197 -49.5t62 -147.5q0 -148 -148 -190l171 -308v-5h-67l-164 302q-27 -3 -58 -3h-62v-299h-64zM154 336h67q101 0 147 40t46 126t-45 124t-148 38h-67v-328zM235 751l-81 113q4 3 17 3q11 0 17 -3l83 -80h2l83 80q6 3 17 3q13 0 17 -3l-81 -113
q-11 -3 -37 -3t-37 3z" />
    <glyph glyph-name="rcaron" unicode="&#x159;" horiz-adv-x="319" 
d="M77 0v502q22 0 56 5v-72h2q14 25 48.5 50.5t80.5 25.5q18 0 27 -3q2 -4 2 -22q0 -22 -2 -32q-12 2 -35 2q-49 0 -79.5 -17.5t-39.5 -33.5v-300q0 -92 6 -105h-66zM149 580l-83 132q4 3 17 3q11 0 17 -3l84 -102h2l85 102q6 3 17 3q12 0 17 -3l-83 -132q-10 -3 -36 -3
t-37 3z" />
    <glyph glyph-name="Sacute" unicode="&#x15a;" horiz-adv-x="545" 
d="M42 136q17 17 58 21q43 -134 172 -134q72 0 114 41.5t42 114.5q0 35 -10.5 60t-41.5 45.5t-44.5 27.5t-62.5 26q-11 5 -16 7q-45 18 -68 29.5t-53.5 33t-44 51t-13.5 68.5q0 81 55.5 133t148.5 52q50 0 89.5 -13.5t62.5 -35t36 -42.5t19 -43q-15 -14 -56 -16
q-6 20 -13 33.5t-23 35.5t-45.5 34t-69.5 12q-67 0 -104.5 -36t-37.5 -103q0 -42 24.5 -72t54.5 -44.5t78 -33.5q8 -3 12 -4q34 -13 55 -22.5t49 -27t43.5 -36.5t27 -48t11.5 -65q0 -85 -57 -141t-165 -56q-177 0 -227 148zM256 752l55 112q11 3 38 3q25 0 36 -3l-93 -112
q-8 -4 -18 -4q-12 0 -18 4z" />
    <glyph glyph-name="sacute" unicode="&#x15b;" horiz-adv-x="443" 
d="M42 100q17 13 50 17q30 -97 131 -97q53 0 83 28.5t30 75.5q0 25 -9.5 43t-31 31t-38 20t-48.5 18q-27 9 -37 13t-33 14t-32.5 18.5t-23 22.5t-18.5 31.5t-5 39.5q0 59 44 98t123 39q77 0 115.5 -31t49.5 -67q-16 -14 -50 -14q-5 17 -14.5 32.5t-37 32t-65.5 16.5
q-52 0 -81 -25.5t-29 -70.5q0 -18 7.5 -32.5t17 -23.5t29.5 -18.5t33 -14.5t38 -13q30 -10 45 -16t39.5 -19t36.5 -26.5t22 -36t10 -49.5q0 -63 -45.5 -105t-126.5 -42q-74 0 -119.5 32.5t-59.5 78.5zM201 581l63 132q14 4 37 4q22 0 36 -4l-100 -132q-6 -3 -18 -3
q-13 0 -18 3z" />
    <glyph glyph-name="Scircumflex" unicode="&#x15c;" horiz-adv-x="545" 
d="M42 136q17 17 58 21q43 -134 172 -134q72 0 114 41.5t42 114.5q0 35 -10.5 60t-41.5 45.5t-44.5 27.5t-62.5 26q-11 5 -16 7q-45 18 -68 29.5t-53.5 33t-44 51t-13.5 68.5q0 81 55.5 133t148.5 52q50 0 89.5 -13.5t62.5 -35t36 -42.5t19 -43q-15 -14 -56 -16
q-6 20 -13 33.5t-23 35.5t-45.5 34t-69.5 12q-67 0 -104.5 -36t-37.5 -103q0 -42 24.5 -72t54.5 -44.5t78 -33.5q8 -3 12 -4q34 -13 55 -22.5t49 -27t43.5 -36.5t27 -48t11.5 -65q0 -85 -57 -141t-165 -56q-177 0 -227 148zM173 750l81 114q10 3 37 3t37 -3l81 -114
q-5 -3 -17 -3q-11 0 -17 3l-83 81h-2l-83 -81q-6 -3 -17 -3q-12 0 -17 3z" />
    <glyph glyph-name="scircumflex" unicode="&#x15d;" horiz-adv-x="443" 
d="M42 100q17 13 50 17q30 -97 131 -97q53 0 83 28.5t30 75.5q0 25 -9.5 43t-31 31t-38 20t-48.5 18q-27 9 -37 13t-33 14t-32.5 18.5t-23 22.5t-18.5 31.5t-5 39.5q0 59 44 98t123 39q77 0 115.5 -31t49.5 -67q-16 -14 -50 -14q-5 17 -14.5 32.5t-37 32t-65.5 16.5
q-52 0 -81 -25.5t-29 -70.5q0 -18 7.5 -32.5t17 -23.5t29.5 -18.5t33 -14.5t38 -13q30 -10 45 -16t39.5 -19t36.5 -26.5t22 -36t10 -49.5q0 -63 -45.5 -105t-126.5 -42q-74 0 -119.5 32.5t-59.5 78.5zM108 581l83 132q8 4 36 4t37 -4l83 -132q-5 -3 -18 -3q-10 0 -16 3
l-85 102h-2l-84 -102q-6 -3 -17 -3q-13 0 -17 3z" />
    <glyph glyph-name="Scedilla" unicode="&#x15e;" horiz-adv-x="545" 
d="M196 -191l6 21q22 -16 57 -16q53 0 53 45q0 27 -20 38.5t-65 20.5l21 71q-160 8 -206 147q17 17 58 21q43 -134 172 -134q72 0 114 41.5t42 114.5q0 35 -10.5 60t-41.5 45.5t-44.5 27.5t-62.5 26q-11 5 -16 7q-45 18 -68 29.5t-53.5 33t-44 51t-13.5 68.5q0 81 55.5 133
t148.5 52q50 0 89.5 -13.5t62.5 -35t36 -42.5t19 -43q-15 -14 -56 -16q-6 20 -13 33.5t-23 35.5t-45.5 34t-69.5 12q-67 0 -104.5 -36t-37.5 -103q0 -42 24.5 -72t54.5 -44.5t78 -33.5q8 -3 12 -4q34 -13 55 -22.5t49 -27t43.5 -36.5t27 -48t11.5 -65q0 -83 -54 -138
t-157 -59l-15 -46q90 -17 90 -79q0 -38 -24.5 -57t-62.5 -19q-50 0 -72 22z" />
    <glyph glyph-name="scedilla" unicode="&#x15f;" horiz-adv-x="443" 
d="M149 -191l6 21q22 -16 57 -16q53 0 53 45q0 27 -20 38.5t-65 20.5l21 72q-65 5 -106 36.5t-53 73.5q17 13 50 17q30 -97 131 -97q53 0 83 28.5t30 75.5q0 25 -9.5 43t-31 31t-38 20t-48.5 18q-27 9 -37 13t-33 14t-32.5 18.5t-23 22.5t-18.5 31.5t-5 39.5q0 59 44 98
t123 39q77 0 115.5 -31t49.5 -67q-16 -14 -50 -14q-5 17 -14.5 32.5t-37 32t-65.5 16.5q-52 0 -81 -25.5t-29 -70.5q0 -18 7.5 -32.5t17 -23.5t29.5 -18.5t33 -14.5t38 -13q30 -10 45 -16t39.5 -19t36.5 -26.5t22 -36t10 -49.5q0 -60 -42 -101.5t-118 -45.5l-15 -47
q90 -17 90 -79q0 -38 -24.5 -57t-62.5 -19q-50 0 -72 22z" />
    <glyph glyph-name="Scaron" unicode="&#x160;" horiz-adv-x="545" 
d="M42 136q17 17 58 21q43 -134 172 -134q72 0 114 41.5t42 114.5q0 35 -10.5 60t-41.5 45.5t-44.5 27.5t-62.5 26q-11 5 -16 7q-45 18 -68 29.5t-53.5 33t-44 51t-13.5 68.5q0 81 55.5 133t148.5 52q50 0 89.5 -13.5t62.5 -35t36 -42.5t19 -43q-15 -14 -56 -16
q-6 20 -13 33.5t-23 35.5t-45.5 34t-69.5 12q-67 0 -104.5 -36t-37.5 -103q0 -42 24.5 -72t54.5 -44.5t78 -33.5q8 -3 12 -4q34 -13 55 -22.5t49 -27t43.5 -36.5t27 -48t11.5 -65q0 -85 -57 -141t-165 -56q-177 0 -227 148zM254 751l-81 113q5 3 17 3q11 0 17 -3l83 -80h2
l83 80q6 3 17 3q12 0 17 -3l-81 -113q-11 -3 -37 -3q-27 0 -37 3z" />
    <glyph glyph-name="scaron" unicode="&#x161;" horiz-adv-x="443" 
d="M42 100q17 13 50 17q30 -97 131 -97q53 0 83 28.5t30 75.5q0 25 -9.5 43t-31 31t-38 20t-48.5 18q-27 9 -37 13t-33 14t-32.5 18.5t-23 22.5t-18.5 31.5t-5 39.5q0 59 44 98t123 39q77 0 115.5 -31t49.5 -67q-16 -14 -50 -14q-5 17 -14.5 32.5t-37 32t-65.5 16.5
q-52 0 -81 -25.5t-29 -70.5q0 -18 7.5 -32.5t17 -23.5t29.5 -18.5t33 -14.5t38 -13q30 -10 45 -16t39.5 -19t36.5 -26.5t22 -36t10 -49.5q0 -63 -45.5 -105t-126.5 -42q-74 0 -119.5 32.5t-59.5 78.5zM188 580l-83 132q5 3 17 3q11 0 17 -3l84 -102h2l85 102q6 3 17 3
q13 0 17 -3l-83 -132q-11 -3 -36 -3q-27 0 -37 3z" />
    <glyph glyph-name="Tcommaaccent" unicode="&#x162;" horiz-adv-x="494" 
d="M175 -191l6 21q22 -16 57 -16q53 0 53 45q0 27 -20 38.5t-65 20.5l25 82h-16v660h-193v40h449v-40h-193v-660h-16l-18 -58q90 -17 90 -79q0 -38 -24.5 -57t-62.5 -19q-50 0 -72 22z" />
    <glyph glyph-name="tcommaaccent" unicode="&#x163;" horiz-adv-x="314" 
d="M111 -191l6 21q22 -16 57 -16q53 0 53 45q0 27 -20 38.5t-65 20.5l25 82q-36 11 -52 39.5t-16 83.5v345h-74v34h76v133q26 0 58 5v-138h121v-34h-121v-347q0 -53 18 -72.5t64 -19.5q29 0 47 9q2 -8 2 -22q0 -3 -0.5 -8t-0.5 -6q-18 -9 -61 -9q-13 0 -31 2l-17 -53
q90 -17 90 -79q0 -38 -24.5 -57t-62.5 -19q-50 0 -72 22z" />
    <glyph glyph-name="Tcaron" unicode="&#x164;" horiz-adv-x="494" 
d="M215 0v660h-193v40h449v-40h-193v-660h-63zM210 751l-81 113q5 3 17 3q11 0 17 -3l83 -80h2l83 80q6 3 17 3q12 0 17 -3l-81 -113q-11 -3 -37 -3q-27 0 -37 3z" />
    <glyph glyph-name="tcaron" unicode="&#x165;" horiz-adv-x="320" 
d="M99 123v345h-74v34h76v133q26 0 58 5v-138h121v-34h-121v-347q0 -53 18 -72.5t64 -19.5q29 0 47 9q2 -8 2 -22q0 -3 -0.5 -8t-0.5 -6q-18 -9 -61 -9q-69 0 -99 28.5t-30 101.5zM244 603q18 13 29 36.5t12 43.5q-15 0 -25.5 9.5t-10.5 25.5q0 35 34 35q39 0 39 -44
q0 -45 -19.5 -78.5t-39.5 -41.5q-6 0 -12 4.5t-7 9.5z" />
    <glyph glyph-name="Tbar" unicode="&#x166;" horiz-adv-x="494" 
d="M215 0v374h-135v38h135v248h-193v40h449v-40h-193v-248h141v-38h-141v-374h-63z" />
    <glyph glyph-name="tbar" unicode="&#x167;" horiz-adv-x="314" 
d="M99 123v137h-74v33h74v175h-74v34h76v133q26 0 58 5v-138h121v-34h-121v-175h121v-33h-121v-139q0 -53 18 -72.5t64 -19.5q29 0 47 9q2 -8 2 -22q0 -3 -0.5 -8t-0.5 -6q-18 -9 -61 -9q-69 0 -99 28.5t-30 101.5z" />
    <glyph glyph-name="Utilde" unicode="&#x168;" horiz-adv-x="676" 
d="M87 283v417h63v-417q0 -136 48.5 -194.5t144.5 -58.5t145 59t49 196v415h53v-416q0 -150 -60 -223t-194 -73q-133 0 -191 72t-58 223zM197 763q21 59 44 77.5t53 18.5q27 0 65 -29.5t58 -29.5q35 0 62 58q3 1 15 1q10 0 13 -1q-22 -58 -43 -77.5t-46 -19.5
q-30 0 -69.5 29.5t-62.5 29.5q-19 0 -35.5 -17.5t-25.5 -39.5q-6 -2 -13 -2q-9 0 -15 2z" />
    <glyph glyph-name="utilde" unicode="&#x169;" horiz-adv-x="521" 
d="M77 173v329q26 0 60 5v-320q0 -79 24.5 -117.5t91.5 -38.5q40 0 75 15t56 38v418q26 0 60 5v-374q0 -95 13 -123l-52 -15q-15 24 -19 60q-60 -66 -155 -66q-154 0 -154 184zM105 601q21 60 44 78.5t53 18.5q27 0 65 -29.5t58 -29.5q37 0 62 57q6 2 15 2q7 0 13 -2
q-21 -58 -42 -77t-46 -19q-31 0 -70.5 29.5t-62.5 29.5q-19 0 -35.5 -18t-25.5 -40q-6 -2 -13 -2q-9 0 -15 2z" />
    <glyph glyph-name="Umacron" unicode="&#x16a;" horiz-adv-x="676" 
d="M87 283v417h63v-417q0 -136 48.5 -194.5t144.5 -58.5t145 59t49 196v415h53v-416q0 -150 -60 -223t-194 -73q-133 0 -191 72t-58 223zM211 780v39h259v-39h-259z" />
    <glyph glyph-name="umacron" unicode="&#x16b;" horiz-adv-x="521" 
d="M77 173v329q26 0 60 5v-320q0 -79 24.5 -117.5t91.5 -38.5q40 0 75 15t56 38v418q26 0 60 5v-374q0 -95 13 -123l-52 -15q-15 24 -19 60q-60 -66 -155 -66q-154 0 -154 184zM131 620v39h259v-39h-259z" />
    <glyph glyph-name="Ubreve" unicode="&#x16c;" horiz-adv-x="676" 
d="M87 283v417h63v-417q0 -136 48.5 -194.5t144.5 -58.5t145 59t49 196v415h53v-416q0 -150 -60 -223t-194 -73q-133 0 -191 72t-58 223zM221 867q9 3 16 3q10 0 16 -3q14 -74 88 -74t88 74q6 3 15 3q7 0 16 -3q-5 -54 -35.5 -84.5t-83.5 -30.5t-84 30.5t-36 84.5z" />
    <glyph glyph-name="ubreve" unicode="&#x16d;" horiz-adv-x="521" 
d="M77 173v329q26 0 60 5v-320q0 -79 24.5 -117.5t91.5 -38.5q40 0 75 15t56 38v418q26 0 60 5v-374q0 -95 13 -123l-52 -15q-15 24 -19 60q-60 -66 -155 -66q-154 0 -154 184zM141 703q5 3 16 3q10 0 16 -3q16 -83 88 -83t88 83q6 3 15 3q12 0 16 -3q-5 -56 -35 -90.5
t-84 -34.5t-84 34.5t-36 90.5z" />
    <glyph glyph-name="Uring" unicode="&#x16e;" horiz-adv-x="676" 
d="M87 283v417h63v-417q0 -136 48.5 -194.5t144.5 -58.5t145 59t49 196v415h53v-416q0 -150 -60 -223t-194 -73q-133 0 -191 72t-58 223zM263 804q0 34 21.5 55.5t56.5 21.5q36 0 57 -21.5t21 -55.5t-21.5 -56t-56.5 -22t-56.5 22t-21.5 56zM341 751q22 0 34 14.5t12 38.5
t-12 38.5t-34 14.5q-45 0 -45 -53t45 -53z" />
    <glyph glyph-name="uring" unicode="&#x16f;" horiz-adv-x="521" 
d="M77 173v329q26 0 60 5v-320q0 -79 24.5 -117.5t91.5 -38.5q40 0 75 15t56 38v418q26 0 60 5v-374q0 -95 13 -123l-52 -15q-15 24 -19 60q-60 -66 -155 -66q-154 0 -154 184zM187 640q0 34 21.5 56t56.5 22t56.5 -22t21.5 -56t-21 -55.5t-57 -21.5q-35 0 -56.5 21.5
t-21.5 55.5zM265 587q22 0 34 14.5t12 38.5t-12 38.5t-34 14.5q-45 0 -45 -53t45 -53z" />
    <glyph glyph-name="Uhungarumlaut" unicode="&#x170;" horiz-adv-x="676" 
d="M87 283v417h63v-417q0 -136 48.5 -194.5t144.5 -58.5t145 59t49 196v415h53v-416q0 -150 -60 -223t-194 -73q-133 0 -191 72t-58 223zM249 752l37 112q14 4 36 4q20 0 34 -4l-72 -112q-8 -4 -18 -4q-11 0 -17 4zM383 752l54 112q14 4 37 4q21 0 35 -4l-88 -112
q-8 -4 -19 -4q-13 0 -19 4z" />
    <glyph glyph-name="uhungarumlaut" unicode="&#x171;" horiz-adv-x="521" 
d="M77 173v329q26 0 60 5v-320q0 -79 24.5 -117.5t91.5 -38.5q40 0 75 15t56 38v418q26 0 60 5v-374q0 -95 13 -123l-52 -15q-15 24 -19 60q-60 -66 -155 -66q-154 0 -154 184zM173 581l43 132q14 4 35 4t35 -4l-78 -132q-6 -3 -17 -3q-13 0 -18 3zM298 581l59 132
q14 4 37 4q21 0 35 -4l-94 -132q-6 -3 -19 -3q-14 0 -18 3z" />
    <glyph glyph-name="Uogonek" unicode="&#x172;" horiz-adv-x="676" 
d="M508 -172l10 -18q-27 -27 -80 -27q-88 0 -88 77q0 68 80 140q-40 -12 -94 -12q-133 0 -191 72t-58 223v417h63v-417q0 -136 48.5 -194.5t144.5 -58.5t145 59t49 196v415h53v-416q0 -173 -76 -239q-116 -100 -116 -179q0 -52 57 -52q32 0 53 14z" />
    <glyph glyph-name="uogonek" unicode="&#x173;" horiz-adv-x="521" 
d="M77 173v329q26 0 60 5v-320q0 -79 24.5 -117.5t91.5 -38.5q40 0 75 15t56 38v418q26 0 60 5v-374q0 -95 13 -123q-66 -36 -95 -70t-29 -74q0 -52 57 -52q32 0 53 14l10 -18q-27 -27 -81 -27q-88 0 -88 77q0 43 34.5 79.5t84.5 60.5q-13 21 -17 56q-59 -67 -155 -67
q-154 0 -154 184z" />
    <glyph glyph-name="Wcircumflex" unicode="&#x174;" horiz-adv-x="906" 
d="M217 0l-187 695v5h64l95 -367q59 -226 65 -274h3q11 66 61 247l107 394h70l108 -397q50 -188 58 -242h3q3 18 59 242l102 397h53v-5l-187 -695h-66l-105 383q-56 206 -63 257h-3q-11 -63 -65 -258l-106 -382h-66zM337 750l81 114q11 3 37 3t37 -3l81 -114q-5 -3 -17 -3
q-11 0 -17 3l-83 81h-2l-83 -81q-6 -3 -17 -3q-12 0 -17 3z" />
    <glyph glyph-name="wcircumflex" unicode="&#x175;" horiz-adv-x="666" 
d="M159 0l-122 497v5h61l57 -242q34 -145 39 -191h3q9 55 51 192l69 227h48l67 -229q37 -124 47 -190h2q5 50 41 189l62 244h46v-5l-129 -497h-48l-81 278q-31 106 -36 138h-2q-6 -34 -38 -140l-83 -276h-54zM215 581l83 132q8 4 36 4t37 -4l83 -132q-5 -3 -18 -3
q-10 0 -16 3l-85 102h-2l-84 -102q-6 -3 -17 -3q-13 0 -17 3z" />
    <glyph glyph-name="Ycircumflex" unicode="&#x176;" horiz-adv-x="548" 
d="M242 0v270l-214 425v5h65l185 -380h3l186 380h53v-5l-215 -427v-268h-63zM162 750l81 114q11 3 37 3t37 -3l81 -114q-4 -3 -17 -3q-11 0 -17 3l-83 81h-2l-83 -81q-6 -3 -17 -3q-13 0 -17 3z" />
    <glyph glyph-name="ycircumflex" unicode="&#x177;" horiz-adv-x="451" 
d="M207 11l-178 486v5h61l83 -235q54 -154 61 -185h2q6 30 60 186l80 234h49v-5l-168 -479q-4 -11 -13.5 -39t-13 -37t-12 -31t-12.5 -29t-12.5 -22.5t-15.5 -20.5t-17 -14.5t-20.5 -12t-24 -5.5t-29.5 -3q-31 0 -45 4q-2 6 -2 25q0 20 2 26q21 -7 49 -7q10 0 18.5 1.5
t15.5 3.5t13 8t10.5 10t10 14t9 16.5t9 21.5t9 23.5t10.5 28.5t11 32zM112 581l83 132q8 4 36 4t37 -4l83 -132q-5 -3 -18 -3q-10 0 -16 3l-85 102h-2l-84 -102q-6 -3 -17 -3q-13 0 -17 3z" />
    <glyph glyph-name="Ydieresis" unicode="&#x178;" horiz-adv-x="548" 
d="M242 0v270l-214 425v5h65l185 -380h3l186 380h53v-5l-215 -427v-268h-63zM184 758q-16 0 -26.5 11t-10.5 27t10.5 26t26.5 10t26.5 -10t10.5 -26q0 -17 -10.5 -27.5t-26.5 -10.5zM375 758q-16 0 -26.5 11t-10.5 27t10.5 26t26.5 10q17 0 27.5 -10t10.5 -26t-10.5 -27
t-27.5 -11z" />
    <glyph glyph-name="Zacute" unicode="&#x179;" horiz-adv-x="577" 
d="M47 0v22l404 638h-384v40h463v-21l-404 -639h402v-40h-481zM276 752l55 112q10 3 38 3q25 0 36 -3l-93 -112q-8 -4 -18 -4q-12 0 -18 4z" />
    <glyph glyph-name="zacute" unicode="&#x17a;" horiz-adv-x="449" 
d="M36 0v16l300 452h-279v34h357v-17l-300 -451h296v-34h-374zM209 581l63 132q14 4 37 4q22 0 36 -4l-100 -132q-6 -3 -18 -3q-14 0 -18 3z" />
    <glyph glyph-name="Zdotaccent" unicode="&#x17b;" horiz-adv-x="577" 
d="M47 0v22l404 638h-384v40h463v-21l-404 -639h402v-40h-481zM299 769q-16 0 -26.5 10.5t-10.5 26.5t10.5 26t26.5 10q17 0 27.5 -10t10.5 -26t-10.5 -26.5t-27.5 -10.5z" />
    <glyph glyph-name="zdotaccent" unicode="&#x17c;" horiz-adv-x="449" 
d="M36 0v16l300 452h-279v34h357v-17l-300 -451h296v-34h-374zM196 646q0 16 11 26.5t28 10.5t27.5 -10.5t10.5 -26.5q0 -17 -10.5 -27.5t-27.5 -10.5t-28 10.5t-11 27.5z" />
    <glyph glyph-name="Zcaron" unicode="&#x17d;" horiz-adv-x="577" 
d="M47 0v22l404 638h-384v40h463v-21l-404 -639h402v-40h-481zM276 751l-81 113q5 3 17 3q11 0 17 -3l83 -80h2l83 80q6 3 17 3q12 0 17 -3l-81 -113q-10 -3 -37 -3t-37 3z" />
    <glyph glyph-name="zcaron" unicode="&#x17e;" horiz-adv-x="449" 
d="M36 0v16l300 452h-279v34h357v-17l-300 -451h296v-34h-374zM208 580l-83 132q5 3 17 3q11 0 17 -3l84 -102h2l85 102q6 3 17 3q13 0 17 -3l-83 -132q-11 -3 -36 -3q-27 0 -37 3z" />
    <glyph glyph-name="longs" unicode="&#x17f;" horiz-adv-x="282" 
d="M77 0v524q0 188 160 188q47 0 62 -6v-10q0 -22 -1 -26q-16 8 -57 8q-58 0 -81 -36t-23 -114v-422q0 -94 6 -106h-66z" />
    <glyph glyph-name="uni018F" unicode="&#x18f;" horiz-adv-x="668" 
d="M58 333h479v4q0 339 -222 339q-137 0 -185 -140q-38 2 -58 19q68 156 246 156q150 0 221 -100.5t71 -267.5q0 -160 -73 -257.5t-216 -97.5q-131 0 -197.5 85t-66.5 213q0 29 1 47zM536 297h-407q0 -274 194 -274q97 0 151 70.5t62 203.5z" />
    <glyph glyph-name="florin" unicode="&#x192;" 
d="M266 -58v433h-106v32h106v123q0 83 35 117.5t102 34.5q40 0 59 -7q1 -7 1 -16q0 -15 -2 -21q-18 11 -54 11q-47 0 -64 -26.5t-17 -92.5v-123h138v-32h-138v-432q0 -84 -35 -118.5t-102 -34.5q-44 0 -60 8q0 1 -0.5 4.5t-0.5 5.5q0 18 2 26q20 -10 54 -10q47 0 64.5 26
t17.5 92z" />
    <glyph glyph-name="uni01B5" unicode="&#x1b5;" horiz-adv-x="577" 
d="M47 0v22l204 323h-184v39h209l175 276h-384v40h463v-21l-187 -295h185v-39h-209l-193 -305h402v-40h-481z" />
    <glyph glyph-name="uni01B6" unicode="&#x1b6;" horiz-adv-x="449" 
d="M36 0v16l149 225h-128v33h150l129 194h-279v34h357v-17l-141 -211h138v-33h-160l-137 -207h296v-34h-374z" />
    <glyph glyph-name="AEacute" unicode="&#x1fc;" horiz-adv-x="803" 
d="M20 0v5l329 695h392v-40h-294v-280h268q1 -5 1 -20q0 -16 -1 -21h-268v-299h309v-40h-372v246h-194l-115 -246h-55zM209 287h175v373h-4q-6 -15 -95 -209zM496 752l55 112q11 3 38 3q25 0 36 -3l-93 -112q-8 -4 -18 -4q-12 0 -18 4z" />
    <glyph glyph-name="aeacute" unicode="&#x1fd;" horiz-adv-x="816" 
d="M359 276v74q0 65 -22 97.5t-85 32.5q-56 0 -90 -25t-45 -53q-36 4 -49 22q23 40 71.5 64t113.5 24q122 0 152 -81q55 81 166 81q98 0 147.5 -62t49.5 -156q0 -24 -1 -37h-344q0 -115 40 -175.5t117 -60.5q95 0 128 99q35 0 54 -14q-47 -117 -183 -117q-124 0 -180 92
q-69 -91 -180 -91q-79 0 -121.5 40t-42.5 108q0 76 54.5 113.5t140.5 37.5q70 0 109 -13zM386 106q-29 63 -29 145q-34 10 -97 10q-142 0 -142 -121q0 -57 32.5 -85.5t88.5 -28.5q88 0 147 80zM424 289h280q0 192 -133 192q-67 0 -104.5 -49.5t-42.5 -142.5zM391 581l63 132
q14 4 37 4q22 0 36 -4l-100 -132q-6 -3 -18 -3q-14 0 -18 3z" />
    <glyph glyph-name="Oslashacute" unicode="&#x1fe;" horiz-adv-x="693" 
d="M89 -6l54 80q-86 97 -86 277q0 163 75.5 262t213.5 99q112 0 185 -67l51 75l33 -20l-57 -84q79 -97 79 -265q0 -164 -76 -263.5t-215 -99.5q-105 0 -176 59l-49 -72zM176 122l325 479q-57 76 -155 76q-106 0 -162 -85t-56 -241q0 -142 48 -229zM523 565l-324 -476
q55 -66 147 -66q106 0 162.5 86t56.5 242q0 133 -42 214zM333 752l55 112q11 3 38 3q26 0 36 -3l-93 -112q-8 -4 -18 -4q-12 0 -18 4z" />
    <glyph glyph-name="oslashacute" unicode="&#x1ff;" horiz-adv-x="552" 
d="M75 2l38 52q-65 69 -65 197q0 117 58 189t169 72q83 0 139 -43l33 45l31 -21l-36 -49q62 -69 62 -193q0 -117 -59 -189.5t-170 -72.5q-79 0 -135 40l-34 -46zM145 98l242 334q-41 49 -112 49q-82 0 -120.5 -61.5t-38.5 -169.5q0 -94 29 -152zM409 398l-243 -332
q40 -45 109 -45q83 0 122 62t39 168q0 89 -27 147zM258 581l63 132q14 4 37 4q22 0 36 -4l-100 -132q-6 -3 -18 -3q-14 0 -18 3z" />
    <glyph glyph-name="Scommaaccent" unicode="&#x218;" horiz-adv-x="545" 
d="M42 136q17 17 58 21q43 -134 172 -134q72 0 114 41.5t42 114.5q0 35 -10.5 60t-41.5 45.5t-44.5 27.5t-62.5 26q-11 5 -16 7q-45 18 -68 29.5t-53.5 33t-44 51t-13.5 68.5q0 81 55.5 133t148.5 52q50 0 89.5 -13.5t62.5 -35t36 -42.5t19 -43q-15 -14 -56 -16
q-6 20 -13 33.5t-23 35.5t-45.5 34t-69.5 12q-67 0 -104.5 -36t-37.5 -103q0 -42 24.5 -72t54.5 -44.5t78 -33.5q8 -3 12 -4q34 -13 55 -22.5t49 -27t43.5 -36.5t27 -48t11.5 -65q0 -85 -57 -141t-165 -56q-177 0 -227 148zM229 -207q19 14 31.5 36.5t13.5 41.5
q-17 0 -28.5 10.5t-11.5 26.5t10.5 26t27.5 10q41 0 41 -44t-22 -77t-43 -40q-5 0 -11.5 3.5t-7.5 6.5z" />
    <glyph glyph-name="scommaaccent" unicode="&#x219;" horiz-adv-x="443" 
d="M42 100q17 13 50 17q30 -97 131 -97q53 0 83 28.5t30 75.5q0 25 -9.5 43t-31 31t-38 20t-48.5 18q-27 9 -37 13t-33 14t-32.5 18.5t-23 22.5t-18.5 31.5t-5 39.5q0 59 44 98t123 39q77 0 115.5 -31t49.5 -67q-16 -14 -50 -14q-5 17 -14.5 32.5t-37 32t-65.5 16.5
q-52 0 -81 -25.5t-29 -70.5q0 -18 7.5 -32.5t17 -23.5t29.5 -18.5t33 -14.5t38 -13q30 -10 45 -16t39.5 -19t36.5 -26.5t22 -36t10 -49.5q0 -63 -45.5 -105t-126.5 -42q-74 0 -119.5 32.5t-59.5 78.5zM177 -207q19 14 31.5 36.5t13.5 41.5q-17 0 -28.5 10.5t-11.5 26.5
t10.5 26t27.5 10q41 0 41 -44t-22 -77t-43 -40q-5 0 -11.5 3.5t-7.5 6.5z" />
    <glyph glyph-name="uni021A" unicode="&#x21a;" horiz-adv-x="494" 
d="M215 0v660h-193v40h449v-40h-193v-660h-63zM204 -207q19 14 31.5 36.5t13.5 41.5q-17 0 -28.5 10.5t-11.5 26.5t10.5 26t27.5 10q41 0 41 -44t-22 -77t-43 -40q-5 0 -11.5 3.5t-7.5 6.5z" />
    <glyph glyph-name="uni021B" unicode="&#x21b;" horiz-adv-x="314" 
d="M99 123v345h-74v34h76v133q26 0 58 5v-138h121v-34h-121v-347q0 -53 18 -72.5t64 -19.5q29 0 47 9q2 -8 2 -22q0 -3 -0.5 -8t-0.5 -6q-18 -9 -61 -9q-69 0 -99 28.5t-30 101.5zM141 -207q19 14 31.5 36.5t13.5 41.5q-17 0 -28.5 10.5t-11.5 26.5t10.5 26t27.5 10
q41 0 41 -44t-22 -77t-43 -40q-5 0 -11.5 3.5t-7.5 6.5z" />
    <glyph glyph-name="dotlessj" unicode="&#x237;" horiz-adv-x="214" 
d="M77 -64v566q26 0 60 5v-577q0 -74 -28.5 -103.5t-93.5 -29.5q-27 0 -47 5q-2 6 -2 15q0 15 3 22q18 -6 42 -6q42 0 54 22.5t12 80.5z" />
    <glyph glyph-name="uni0259" unicode="&#x259;" horiz-adv-x="509" 
d="M49 245h343q-2 236 -156 236q-95 0 -128 -99q-35 0 -54 14q47 116 183 116q111 0 166.5 -72.5t55.5 -192.5q0 -117 -54.5 -187.5t-159.5 -70.5q-98 0 -147.5 62.5t-49.5 156.5q0 23 1 37zM391 212h-279q0 -192 133 -192q135 0 146 192z" />
    <glyph glyph-name="circumflex" unicode="&#x2c6;" horiz-adv-x="351" 
d="M56 581l83 132q8 4 36 4t37 -4l83 -132q-5 -3 -18 -3q-10 0 -16 3l-85 102h-2l-84 -102q-6 -3 -17 -3q-13 0 -17 3z" />
    <glyph glyph-name="caron" unicode="&#x2c7;" horiz-adv-x="351" 
d="M139 580l-83 132q5 3 17 3q11 0 17 -3l84 -102h2l85 102q6 3 17 3q12 0 17 -3l-83 -132q-11 -3 -36 -3q-26 0 -37 3z" />
    <glyph glyph-name="breve" unicode="&#x2d8;" horiz-adv-x="351" 
d="M56 703q5 3 16 3q10 0 16 -3q16 -83 88 -83t88 83q6 3 15 3q11 0 16 -3q-5 -56 -35 -90.5t-84 -34.5t-84 34.5t-36 90.5z" />
    <glyph glyph-name="dotaccent" unicode="&#x2d9;" horiz-adv-x="189" 
d="M56 646q0 16 11 26.5t28 10.5t27.5 -10.5t10.5 -26.5q0 -17 -10.5 -27.5t-27.5 -10.5t-28 10.5t-11 27.5z" />
    <glyph glyph-name="ring" unicode="&#x2da;" horiz-adv-x="268" 
d="M56 640q0 34 21.5 56t56.5 22t56.5 -22t21.5 -56t-21 -55.5t-57 -21.5q-35 0 -56.5 21.5t-21.5 55.5zM134 587q22 0 34 14.5t12 38.5t-12 38.5t-34 14.5q-45 0 -45 -53t45 -53z" />
    <glyph glyph-name="ogonek" unicode="&#x2db;" horiz-adv-x="281" 
d="M215 -172l10 -18q-27 -27 -81 -27q-88 0 -88 72q0 54 43 94.5t106 61.5l13 -11q-113 -56 -113 -138q0 -48 56 -48q33 0 54 14z" />
    <glyph glyph-name="tilde" unicode="&#x2dc;" horiz-adv-x="422" 
d="M56 601q21 60 44 78.5t53 18.5q27 0 65 -29.5t58 -29.5q37 0 62 57q6 2 15 2q7 0 13 -2q-21 -58 -42 -77t-46 -19q-31 0 -70.5 29.5t-62.5 29.5q-19 0 -35.5 -18t-25.5 -40q-6 -2 -13 -2q-9 0 -15 2z" />
    <glyph glyph-name="hungarumlaut" unicode="&#x2dd;" horiz-adv-x="368" 
d="M56 581l43 132q14 4 35 4t35 -4l-78 -132q-6 -3 -17 -3q-14 0 -18 3zM181 581l59 132q14 4 37 4q21 0 35 -4l-94 -132q-6 -3 -19 -3t-18 3z" />
    <glyph glyph-name="uni0394" unicode="&#x394;" horiz-adv-x="610" 
d="M33 0v7l234 693h77l233 -695v-5h-544zM97 40h403l-199 603h-3z" />
    <glyph glyph-name="uni03A9" unicode="&#x3a9;" horiz-adv-x="714" 
d="M61 0v49h208v54q-96 24 -149 102t-53 197q0 141 75.5 225.5t212.5 84.5q139 0 215 -84.5t76 -225.5q0 -119 -54 -197t-150 -102v-54h211v-49h-250v123q84 17 129.5 88t45.5 190q0 132 -57.5 205.5t-165.5 73.5q-106 0 -164 -73.5t-58 -205.5q0 -120 46 -190t129 -88v-123
h-247z" />
    <glyph glyph-name="uni03BC" unicode="&#x3bc;" horiz-adv-x="521" 
d="M77 -210v712q26 0 60 5v-315q0 -81 25.5 -120t93.5 -39q83 0 128 52v417q26 0 60 5v-374q0 -95 13 -123l-51 -15q-15 23 -20 61q-55 -67 -139 -67q-73 0 -110 35v-225q-40 -4 -60 -9z" />
    <glyph glyph-name="pi" unicode="&#x3c0;" horiz-adv-x="578" 
d="M114 0v469h-89v33h507v-33h-110v-349q0 -53 18 -72.5t63 -19.5q29 0 47 9q2 -8 2 -22q0 -10 -1 -13q-15 -9 -56 -9q-72 0 -102.5 28.5t-30.5 101.5v346h-188v-363q0 -94 7 -106h-67z" />
    <glyph glyph-name="Wgrave" unicode="&#x1e80;" horiz-adv-x="906" 
d="M217 0l-187 695v5h64l95 -367q59 -226 65 -274h3q11 66 61 247l107 394h70l108 -397q50 -188 58 -242h3q3 18 59 242l102 397h53v-5l-187 -695h-66l-105 383q-56 206 -63 257h-3q-11 -63 -65 -258l-106 -382h-66zM448 752l-93 112q9 3 36 3q26 0 38 -3l55 -112
q-6 -4 -18 -4q-10 0 -18 4z" />
    <glyph glyph-name="wgrave" unicode="&#x1e81;" horiz-adv-x="666" 
d="M159 0l-122 497v5h61l57 -242q34 -145 39 -191h3q9 55 51 192l69 227h48l67 -229q37 -124 47 -190h2q5 50 41 189l62 244h46v-5l-129 -497h-48l-81 278q-31 106 -36 138h-2q-6 -34 -38 -140l-83 -276h-54zM326 581l-101 132q12 4 36 4q22 0 38 -4l62 -132q-5 -3 -18 -3
q-11 0 -17 3z" />
    <glyph glyph-name="Wacute" unicode="&#x1e82;" horiz-adv-x="906" 
d="M217 0l-187 695v5h64l95 -367q59 -226 65 -274h3q11 66 61 247l107 394h70l108 -397q50 -188 58 -242h3q3 18 59 242l102 397h53v-5l-187 -695h-66l-105 383q-56 206 -63 257h-3q-11 -63 -65 -258l-106 -382h-66zM432 752l55 112q10 3 38 3q25 0 36 -3l-93 -112
q-8 -4 -18 -4q-12 0 -18 4z" />
    <glyph glyph-name="wacute" unicode="&#x1e83;" horiz-adv-x="666" 
d="M159 0l-122 497v5h61l57 -242q34 -145 39 -191h3q9 55 51 192l69 227h48l67 -229q37 -124 47 -190h2q5 50 41 189l62 244h46v-5l-129 -497h-48l-81 278q-31 106 -36 138h-2q-6 -34 -38 -140l-83 -276h-54zM309 581l63 132q14 4 37 4q22 0 36 -4l-100 -132q-6 -3 -18 -3
q-13 0 -18 3z" />
    <glyph glyph-name="Wdieresis" unicode="&#x1e84;" horiz-adv-x="906" 
d="M217 0l-187 695v5h64l95 -367q59 -226 65 -274h3q11 66 61 247l107 394h70l108 -397q50 -188 58 -242h3q3 18 59 242l102 397h53v-5l-187 -695h-66l-105 383q-56 206 -63 257h-3q-11 -63 -65 -258l-106 -382h-66zM360 758q-16 0 -26.5 11t-10.5 27t10.5 26t26.5 10
t26.5 -10t10.5 -26q0 -17 -10.5 -27.5t-26.5 -10.5zM551 758q-16 0 -26.5 11t-10.5 27t10.5 26t26.5 10q17 0 27.5 -10t10.5 -26t-10.5 -27t-27.5 -11z" />
    <glyph glyph-name="wdieresis" unicode="&#x1e85;" horiz-adv-x="666" 
d="M159 0l-122 497v5h61l57 -242q34 -145 39 -191h3q9 55 51 192l69 227h48l67 -229q37 -124 47 -190h2q5 50 41 189l62 244h46v-5l-129 -497h-48l-81 278q-31 106 -36 138h-2q-6 -34 -38 -140l-83 -276h-54zM215 645q0 16 10.5 26.5t26.5 10.5t26.5 -10.5t10.5 -26.5
q0 -17 -10.5 -27t-26.5 -10t-26.5 10.5t-10.5 26.5zM387 645q0 16 10.5 26.5t26.5 10.5t26.5 -10.5t10.5 -26.5q0 -17 -10.5 -27t-26.5 -10t-26.5 10.5t-10.5 26.5z" />
    <glyph glyph-name="uni1E8A" unicode="&#x1e8a;" horiz-adv-x="577" 
d="M30 0v5l224 351l-211 339v5h66l183 -302l189 302h52v-5l-211 -332l224 -358v-5h-66l-196 319l-202 -319h-52zM294 769q-16 0 -26.5 10.5t-10.5 26.5t10.5 26t26.5 10q17 0 27.5 -10t10.5 -26t-10.5 -26.5t-27.5 -10.5z" />
    <glyph glyph-name="uni1E8B" unicode="&#x1e8b;" horiz-adv-x="445" 
d="M28 0v5l159 252l-148 240v5h63l125 -209l130 209h49v-5l-150 -235l161 -257v-5h-63l-138 223l-140 -223h-48zM185 646q0 16 11 26.5t28 10.5t27.5 -10.5t10.5 -26.5q0 -17 -10.5 -27.5t-27.5 -10.5t-28 10.5t-11 27.5z" />
    <glyph glyph-name="Ygrave" unicode="&#x1ef2;" horiz-adv-x="548" 
d="M242 0v270l-214 425v5h65l185 -380h3l186 380h53v-5l-215 -427v-268h-63zM279 752l-93 112q9 3 36 3q26 0 38 -3l55 -112q-6 -4 -18 -4q-10 0 -18 4z" />
    <glyph glyph-name="ygrave" unicode="&#x1ef3;" horiz-adv-x="451" 
d="M207 11l-178 486v5h61l83 -235q54 -154 61 -185h2q6 30 60 186l80 234h49v-5l-168 -479q-4 -11 -13.5 -39t-13 -37t-12 -31t-12.5 -29t-12.5 -22.5t-15.5 -20.5t-17 -14.5t-20.5 -12t-24 -5.5t-29.5 -3q-31 0 -45 4q-2 6 -2 25q0 20 2 26q21 -7 49 -7q10 0 18.5 1.5
t15.5 3.5t13 8t10.5 10t10 14t9 16.5t9 21.5t9 23.5t10.5 28.5t11 32zM238 581l-101 132q12 4 36 4q22 0 38 -4l62 -132q-5 -3 -18 -3q-11 0 -17 3z" />
    <glyph glyph-name="endash" unicode="&#x2013;" horiz-adv-x="575" 
d="M59 274v50h456v-50h-456z" />
    <glyph glyph-name="emdash" unicode="&#x2014;" horiz-adv-x="795" 
d="M59 274v50h676v-50h-676z" />
    <glyph glyph-name="quoteleft" unicode="&#x2018;" horiz-adv-x="198" 
d="M131 700q-19 -14 -32 -37t-15 -44q18 -1 29.5 -12t11.5 -28t-10.5 -28t-28.5 -11q-20 0 -31.5 13.5t-11.5 35.5q0 45 22.5 81t44.5 44q7 0 13.5 -4.5t7.5 -9.5z" />
    <glyph glyph-name="quoteright" unicode="&#x2019;" horiz-adv-x="198" 
d="M56 552q19 14 32 37t15 44q-18 1 -29.5 12t-11.5 28t10.5 28t28.5 11q20 0 31.5 -13.5t11.5 -35.5q0 -45 -22.5 -81t-44.5 -44q-7 0 -13.5 4.5t-7.5 9.5z" />
    <glyph glyph-name="quotesinglbase" unicode="&#x201a;" horiz-adv-x="198" 
d="M56 -88q19 14 32 37t15 44q-18 1 -29.5 12t-11.5 28t10.5 28t28.5 11q20 0 31.5 -13.5t11.5 -35.5q0 -45 -22.5 -81t-44.5 -44q-7 0 -13.5 4.5t-7.5 9.5z" />
    <glyph glyph-name="quotedblleft" unicode="&#x201c;" horiz-adv-x="349" 
d="M131 700q-19 -14 -32 -37t-15 -44q18 -1 29.5 -12t11.5 -28t-10.5 -28t-28.5 -11q-20 0 -31.5 13.5t-11.5 35.5q0 45 22.5 81t44.5 44q7 0 13.5 -4.5t7.5 -9.5zM281 700q-19 -14 -32 -37t-15 -44q18 -1 29.5 -12t11.5 -28t-10.5 -28t-28.5 -11q-20 0 -31.5 13.5
t-11.5 35.5q0 45 22.5 81t44.5 44q7 0 13.5 -4.5t7.5 -9.5z" />
    <glyph glyph-name="quotedblright" unicode="&#x201d;" horiz-adv-x="349" 
d="M56 552q19 14 32 37t15 44q-18 1 -29.5 12t-11.5 28t10.5 28t28.5 11q20 0 31.5 -13.5t11.5 -35.5q0 -45 -22.5 -81t-44.5 -44q-7 0 -13.5 4.5t-7.5 9.5zM206 552q19 14 32 37t15 44q-18 1 -29.5 12t-11.5 28t10.5 28t28.5 11q20 0 31.5 -13.5t11.5 -35.5
q0 -45 -22.5 -81t-44.5 -44q-7 0 -13.5 4.5t-7.5 9.5z" />
    <glyph glyph-name="quotedblbase" unicode="&#x201e;" horiz-adv-x="349" 
d="M56 -88q19 14 32 37t15 44q-18 1 -29.5 12t-11.5 28t10.5 28t28.5 11q20 0 31.5 -13.5t11.5 -35.5q0 -45 -22.5 -81t-44.5 -44q-7 0 -13.5 4.5t-7.5 9.5zM206 -88q19 14 32 37t15 44q-18 1 -29.5 12t-11.5 28t10.5 28t28.5 11q20 0 31.5 -13.5t11.5 -35.5
q0 -45 -22.5 -81t-44.5 -44q-7 0 -13.5 4.5t-7.5 9.5z" />
    <glyph glyph-name="dagger" unicode="&#x2020;" horiz-adv-x="632" 
d="M298 -100l-9 556l-217 -7q-6 9 -6 27.5t6 26.5l217 -9l-3 206q8 6 29.5 6t29.5 -6l-3 -206l218 9q6 -8 6 -26.5t-6 -27.5l-219 7l-8 -556h-35z" />
    <glyph glyph-name="daggerdbl" unicode="&#x2021;" horiz-adv-x="632" 
d="M298 -100l-4 257l-222 -7q-6 8 -6 27t6 27l221 -10l-4 262l-217 -7q-6 9 -6 27.5t6 26.5l217 -9l-3 206q8 6 29.5 6t29.5 -6l-3 -206l218 9q6 -8 6 -26.5t-6 -27.5l-219 7l-4 -262l223 10q6 -8 6 -27t-6 -27l-223 8l-4 -258h-35z" />
    <glyph glyph-name="bullet" unicode="&#x2022;" horiz-adv-x="298" 
d="M149 258q-42 0 -68.5 27t-26.5 68q0 40 26.5 67t68.5 27q41 0 68 -27t27 -67q0 -41 -26.5 -68t-68.5 -27z" />
    <glyph glyph-name="ellipsis" unicode="&#x2026;" horiz-adv-x="501" 
d="M88 -6q-17 0 -28 11.5t-11 27.5q0 17 11 28t28 11t27.5 -11t10.5 -28q0 -16 -10.5 -27.5t-27.5 -11.5zM251 -6q-17 0 -28 11.5t-11 27.5q0 17 11 28t28 11t27.5 -11t10.5 -28q0 -16 -10.5 -27.5t-27.5 -11.5zM414 -6q-17 0 -28 11.5t-11 27.5q0 17 11 28t28 11t27.5 -11
t10.5 -28q0 -16 -10.5 -27.5t-27.5 -11.5z" />
    <glyph glyph-name="perthousand" unicode="&#x2030;" horiz-adv-x="1202" 
d="M180 0v5l439 695h45v-5l-438 -695h-46zM208 347q-74 0 -114.5 48t-40.5 132q0 82 40.5 130.5t114.5 48.5t114 -48t40 -131q0 -84 -40 -132t-114 -48zM208 370q97 0 97 157q0 155 -97 155q-96 0 -96 -155q0 -157 96 -157zM635 -7q-74 0 -114.5 48t-40.5 132
q0 82 40.5 130.5t114.5 48.5t114 -48t40 -131q0 -84 -40 -132t-114 -48zM635 16q97 0 97 157q0 155 -97 155q-96 0 -96 -155q0 -157 96 -157zM995 -7q-74 0 -114.5 48t-40.5 132q0 82 40.5 130.5t114.5 48.5t114 -48t40 -131q0 -84 -40 -132t-114 -48zM995 16q97 0 97 157
q0 155 -97 155q-96 0 -96 -155q0 -157 96 -157z" />
    <glyph glyph-name="guilsinglleft" unicode="&#x2039;" horiz-adv-x="367" 
d="M247 46l-174 210v9l174 208h47l-162 -213l162 -214h-47z" />
    <glyph glyph-name="guilsinglright" unicode="&#x203a;" horiz-adv-x="367" 
d="M73 46l162 214l-162 213h47l174 -208v-9l-174 -210h-47z" />
    <glyph glyph-name="fraction" unicode="&#x2044;" horiz-adv-x="191" 
d="M-147 0v5l439 695h46v-5l-439 -695h-46z" />
    <glyph glyph-name="zero.superior" unicode="&#x2070;" horiz-adv-x="400" 
d="M205 459q-78 0 -118 55.5t-40 151.5q0 95 40.5 150.5t117.5 55.5q78 0 117.5 -55t39.5 -151q0 -97 -40 -152t-117 -55zM205 486q98 0 98 180q0 178 -98 178q-97 0 -97 -178q0 -180 97 -180z" />
    <glyph glyph-name="four.superior" unicode="&#x2074;" horiz-adv-x="380" 
d="M44 566v38l194 261h55v-261h50v-38h-50v-100h-54v100h-195zM83 604h158v208h-3z" />
    <glyph glyph-name="five.superior" unicode="&#x2075;" horiz-adv-x="358" 
d="M58 657l7 208h238v-44h-205l-5 -132q38 26 94 26q65 0 99 -35t34 -91q0 -59 -39.5 -94.5t-104.5 -35.5q-50 0 -84 18t-47 45q14 12 42 18q29 -52 89 -52q42 0 65.5 26t23.5 71q0 44 -23 70.5t-66 26.5q-54 0 -81 -25h-37z" />
    <glyph glyph-name="six.superior" unicode="&#x2076;" horiz-adv-x="383" 
d="M115 667q39 41 107 41q62 0 92 -34t30 -84q0 -58 -35.5 -94.5t-104.5 -36.5q-70 0 -109.5 56t-39.5 151q0 94 39 150t112 56q97 0 128 -87q-16 -13 -51 -13q-20 72 -77 72q-91 0 -91 -177zM115 638q8 -152 89 -152q83 0 83 98q0 44 -20.5 69t-60.5 25q-57 0 -91 -40z" />
    <glyph glyph-name="seven.superior" unicode="&#x2077;" horiz-adv-x="343" 
d="M88 466v3l185 352h-235v44h274v-39l-163 -360h-61z" />
    <glyph glyph-name="eight.superior" unicode="&#x2078;" horiz-adv-x="376" 
d="M138 677v3q-35 9 -54 32.5t-19 57.5q0 45 34.5 73.5t93.5 28.5t93.5 -28.5t34.5 -73.5q0 -33 -19.5 -57t-54.5 -33v-3q43 -10 66 -37t23 -66q0 -53 -37 -84t-106 -31t-106.5 31t-37.5 84q0 81 89 103zM193 486q42 0 63.5 23.5t21.5 65.5q0 44 -22 67t-63 23t-63.5 -23.5
t-22.5 -66.5q0 -42 22 -65.5t64 -23.5zM193 691q34 0 54 21t20 57q0 75 -74 75t-74 -75q0 -36 19.5 -57t54.5 -21z" />
    <glyph glyph-name="nine.superior" unicode="&#x2079;" horiz-adv-x="383" 
d="M60 545q17 12 50 14q22 -73 77 -73q89 0 92 173q-39 -43 -106 -43q-63 0 -93 36t-30 87q0 57 35 95t103 38q71 0 110.5 -56t39.5 -149q0 -97 -39 -152.5t-112 -55.5q-95 0 -127 86zM278 688q-5 156 -90 156q-82 0 -82 -102q0 -44 21 -70.5t58 -26.5q58 0 93 43z" />
    <glyph glyph-name="zero.inferior" unicode="&#x2080;" horiz-adv-x="400" 
d="M205 -180q-78 0 -118 55.5t-40 151.5q0 95 40.5 150.5t117.5 55.5q78 0 117.5 -55t39.5 -151q0 -97 -40 -152t-117 -55zM205 -153q98 0 98 180q0 178 -98 178q-97 0 -97 -178q0 -180 97 -180z" />
    <glyph glyph-name="one.inferior" unicode="&#x2081;" horiz-adv-x="336" 
d="M83 -173v29h81v327l-81 -19v31q5 1 23.5 6.5t43.5 13.5t33 11h35v-370h72v-29h-207z" />
    <glyph glyph-name="two.inferior" unicode="&#x2082;" horiz-adv-x="377" 
d="M46 -173v33q1 1 26.5 20t31.5 24t30.5 24.5t33.5 29t28 29t27.5 33.5t19.5 32.5t15.5 36t4.5 35.5q0 81 -76 81q-64 0 -87 -76q-35 2 -49 13q12 38 45 64.5t91 26.5q64 0 98 -30.5t34 -82.5q0 -62 -53.5 -121.5t-152.5 -127.5v-1h216v-43h-283z" />
    <glyph glyph-name="three.inferior" unicode="&#x2083;" horiz-adv-x="357" 
d="M130 17v29h21q105 0 105 87q0 71 -77 71q-57 0 -82 -50q-28 4 -43 16q33 63 127 63q61 0 95.5 -25.5t34.5 -71.5q0 -43 -26 -68.5t-66 -33.5v-1q103 -14 103 -98q0 -54 -37.5 -84.5t-104.5 -30.5q-52 0 -86 18t-46 44q9 9 42 20q29 -53 89 -53q43 0 65 21.5t22 59.5
q0 87 -115 87h-21z" />
    <glyph glyph-name="four.inferior" unicode="&#x2084;" horiz-adv-x="380" 
d="M44 -73v38l194 261h55v-261h50v-38h-50v-100h-54v100h-195zM83 -35h158v208h-3z" />
    <glyph glyph-name="five.inferior" unicode="&#x2085;" horiz-adv-x="358" 
d="M58 18l7 208h238v-44h-205l-5 -132q38 26 94 26q65 0 99 -35t34 -91q0 -59 -39.5 -94.5t-104.5 -35.5q-50 0 -84 18t-47 45q14 12 42 18q29 -52 89 -52q42 0 65.5 26t23.5 71q0 44 -23 70.5t-66 26.5q-54 0 -81 -25h-37z" />
    <glyph glyph-name="six.inferior" unicode="&#x2086;" horiz-adv-x="383" 
d="M115 28q39 41 107 41q62 0 92 -34t30 -84q0 -58 -35.5 -94.5t-104.5 -36.5q-70 0 -109.5 56t-39.5 151q0 94 39 150t112 56q97 0 128 -87q-16 -13 -51 -13q-20 72 -77 72q-91 0 -91 -177zM115 -1q8 -152 89 -152q83 0 83 98q0 44 -20.5 69t-60.5 25q-57 0 -91 -40z" />
    <glyph glyph-name="seven.inferior" unicode="&#x2087;" horiz-adv-x="343" 
d="M88 -173v3l185 352h-235v44h274v-39l-163 -360h-61z" />
    <glyph glyph-name="eight.inferior" unicode="&#x2088;" horiz-adv-x="376" 
d="M138 38v3q-35 9 -54 32.5t-19 57.5q0 45 34.5 73.5t93.5 28.5t93.5 -28.5t34.5 -73.5q0 -33 -19.5 -57t-54.5 -33v-3q43 -10 66 -37t23 -66q0 -53 -37 -84t-106 -31t-106.5 31t-37.5 84q0 81 89 103zM193 -153q42 0 63.5 23.5t21.5 65.5q0 44 -22 67t-63 23t-63.5 -23.5
t-22.5 -66.5q0 -42 22 -65.5t64 -23.5zM193 52q34 0 54 21t20 57q0 75 -74 75t-74 -75q0 -36 19.5 -57t54.5 -21z" />
    <glyph glyph-name="nine.inferior" unicode="&#x2089;" horiz-adv-x="383" 
d="M60 -94q17 12 50 14q22 -73 77 -73q89 0 92 173q-39 -43 -106 -43q-63 0 -93 36t-30 87q0 57 35 95t103 38q71 0 110.5 -56t39.5 -149q0 -97 -39 -152.5t-112 -55.5q-95 0 -127 86zM278 49q-5 156 -90 156q-82 0 -82 -102q0 -44 21 -70.5t58 -26.5q58 0 93 43z" />
    <glyph glyph-name="uni20A8" unicode="&#x20a8;" 
d="M86 289v1v32h87q103 0 148 37t45 123v1h-280v32h278q-7 68 -52.5 97.5t-138.5 29.5h-87v34h468l-6 -31h-212q83 -41 94 -130h96l-6 -32h-88q-2 -95 -67 -144t-188 -49h-21l309 -285v-5h-72z" />
    <glyph glyph-name="Euro" unicode="&#x20ac;" 
d="M35 269v31h60q-1 12 -1 39q0 22 2 62h-61v30h65q16 121 78.5 189.5t171.5 68.5q49 0 89 -13.5t64 -34.5t38.5 -40t21.5 -37q-20 -20 -54 -20q-45 112 -159 112q-158 0 -183 -225h292l-6 -30h-289q-2 -20 -2 -62q0 -27 1 -39h273l-6 -31h-266q21 -248 186 -248
q68 0 108 37.5t54 85.5q36 0 55 -19q-56 -137 -218 -137q-115 0 -177 74.5t-75 206.5h-62z" />
    <glyph glyph-name="uni2117" unicode="&#x2117;" horiz-adv-x="810" 
d="M293 116v466h99q90 0 135.5 -38.5t45.5 -105.5t-46 -106.5t-137 -39.5h-51v-176h-46zM339 321h53q130 0 130 115q0 116 -130 116h-53v-231zM405 -12q-154 0 -257.5 105.5t-103.5 256.5t103.5 256.5t257.5 105.5q153 0 256.5 -105.5t103.5 -256.5t-103.5 -256.5
t-256.5 -105.5zM405 23q141 0 230.5 94t89.5 233t-89.5 233t-230.5 94t-231 -94t-90 -233t90 -233t231 -94z" />
    <glyph glyph-name="trademark" unicode="&#x2122;" horiz-adv-x="730" 
d="M134 347v328h-98v25h238v-25h-99v-328h-41zM331 347v353h48l66 -171q45 -116 50 -134h1q4 18 49 133l68 172h51v-353h-40v193q0 67 2 113h-2q-8 -31 -37 -104l-82 -202h-25l-81 202q-24 61 -37 104h-2q3 -34 3 -113v-193h-32z" />
    <glyph glyph-name="Omega" unicode="&#x2126;" horiz-adv-x="714" 
d="M61 0v49h208v54q-96 24 -149 102t-53 197q0 141 75.5 225.5t212.5 84.5q139 0 215 -84.5t76 -225.5q0 -119 -54 -197t-150 -102v-54h211v-49h-250v123q84 17 129.5 88t45.5 190q0 132 -57.5 205.5t-165.5 73.5q-106 0 -164 -73.5t-58 -205.5q0 -120 46 -190t129 -88v-123
h-247z" />
    <glyph glyph-name="partialdiff" unicode="&#x2202;" horiz-adv-x="561" 
d="M438 338q2 40 2 62q0 277 -153 277q-51 0 -87.5 -30t-54.5 -78q-43 3 -53 20q27 54 77.5 87t115.5 33q110 0 166.5 -85t56.5 -234q0 -187 -71 -294.5t-192 -107.5q-101 0 -153.5 58.5t-52.5 150.5q0 93 54 158t163 65q59 0 109 -24t73 -58zM435 296q-59 91 -169 91
q-77 0 -119.5 -54.5t-42.5 -146.5q0 -166 143 -166q79 0 127 70.5t61 205.5z" />
    <glyph glyph-name="Delta" unicode="&#x2206;" horiz-adv-x="610" 
d="M33 0v7l234 693h77l233 -695v-5h-544zM97 40h403l-199 603h-3z" />
    <glyph glyph-name="product" unicode="&#x220f;" horiz-adv-x="673" 
d="M90 -100v800h493v-800h-63v760h-366v-760h-64z" />
    <glyph glyph-name="summation" unicode="&#x2211;" horiz-adv-x="577" 
d="M47 -100v22l234 391l-219 366v21h463v-39h-388l211 -348l-226 -374h406v-39h-481z" />
    <glyph glyph-name="minus" unicode="&#x2212;" 
d="M59 278v43h474v-43h-474z" />
    <glyph glyph-name="radical" unicode="&#x221a;" horiz-adv-x="599" 
d="M274 0l-169 464h-80l8 38h114l159 -446h2q6 33 215 644h51v-5l-242 -695h-58z" />
    <glyph glyph-name="infinity" unicode="&#x221e;" horiz-adv-x="828" 
d="M391 309q-41 -61 -82.5 -94t-101.5 -33q-69 0 -111.5 44t-42.5 117q0 79 51.5 118t118.5 39q68 0 107 -29.5t80 -92.5q46 64 90.5 99t106.5 35q68 0 117.5 -41t49.5 -125q0 -79 -48 -128.5t-127 -49.5q-62 0 -111 30.5t-97 110.5zM424 357q55 -87 91 -122.5t86 -35.5
q49 0 79 36.5t30 106.5q0 137 -113 137q-56 0 -94 -31.5t-79 -90.5zM379 333q-5 7 -19.5 29.5t-20 30t-18.5 24.5t-21.5 23.5t-21.5 15.5t-27 12.5t-29 3.5q-52 0 -79 -37t-27 -93q0 -54 28.5 -91t78.5 -37q45 0 80 30.5t76 88.5z" />
    <glyph glyph-name="integral" unicode="&#x222b;" 
d="M266 -58v588q0 83 35 117.5t102 34.5q40 0 59 -7q1 -5 1 -16q0 -14 -2 -20q-16 10 -54 10q-47 0 -64 -26.5t-17 -92.5v-587q0 -83 -35.5 -118t-101.5 -35q-44 0 -60 8q0 1 -0.5 4.5t-0.5 5.5q0 18 2 26q18 -11 54 -11q47 0 64.5 26.5t17.5 92.5z" />
    <glyph glyph-name="approxequal" unicode="&#x2248;" 
d="M63 140v46q6 5 17.5 12.5t46.5 20.5t69 13q41 0 115.5 -25.5t115.5 -25.5q26 0 51.5 11t37.5 22l13 11v-51q-46 -34 -102 -34q-45 0 -120 25.5t-112 25.5q-29 0 -62 -12.5t-51 -25.5zM64 328v46q6 5 17.5 12.5t46.5 20.5t69 13q41 0 115.5 -25.5t115.5 -25.5
q26 0 51.5 11t38.5 22l12 11v-51q-46 -34 -102 -34q-45 0 -120 25.5t-112 25.5q-29 0 -62 -12.5t-52 -25.5z" />
    <glyph glyph-name="notequal" unicode="&#x2260;" 
d="M160 21v5l65 151h-166v43h184l69 158h-253v43h271l60 138h42v-5l-58 -133h159v-43h-177l-68 -158h245v-43h-264l-67 -156h-42z" />
    <glyph glyph-name="lessequal" unicode="&#x2264;" 
d="M59 306v44l474 140v-44l-418 -117v-3l418 -116v-44zM59 31v43h474v-43h-474z" />
    <glyph glyph-name="greaterequal" unicode="&#x2265;" 
d="M59 166v44l418 116v3l-418 117v44l474 -140v-44zM59 31v43h474v-43h-474z" />
    <glyph glyph-name="lozenge" unicode="&#x25ca;" horiz-adv-x="575" 
d="M251 0l-197 350l197 350h74l196 -350l-196 -350h-74zM281 34h3l174 316l-174 316h-3l-177 -316z" />
    <glyph glyph-name="CR" horiz-adv-x="218" 
 />
    <glyph glyph-name="a.small" horiz-adv-x="543" 
d="M31 0v5l204 566h75l201 -566v-5h-63l-69 193h-228l-69 -193h-51zM165 233h199l-43 123q-47 136 -54 171h-2q-19 -65 -56 -170z" />
    <glyph glyph-name="b.small" horiz-adv-x="505" 
d="M88 0v571h142q107 0 156 -34.5t49 -103.5q0 -104 -112 -132v-1q62 -11 99 -47t37 -95q0 -158 -218 -158h-153zM149 33h77q86 0 126.5 30t40.5 94q0 63 -39.5 93t-121.5 30h-83v-247zM149 314h67q81 0 119 27.5t38 86.5q0 58 -36 84t-112 26h-76v-224z" />
    <glyph glyph-name="c.small" horiz-adv-x="583" 
d="M477 169q43 0 60 -10q-44 -169 -225 -169q-124 0 -188.5 81t-64.5 215t65 214.5t188 80.5q176 0 218 -153q-14 -13 -59 -13q-18 65 -54 98.5t-105 33.5q-92 0 -138.5 -67.5t-46.5 -193.5t46.5 -194t138.5 -68q131 0 165 145z" />
    <glyph glyph-name="d.small" horiz-adv-x="574" 
d="M88 0v571h142q145 0 215 -74t70 -211t-69.5 -211.5t-214.5 -74.5h-143zM149 34h80q112 0 164.5 63t52.5 189t-52.5 188.5t-163.5 62.5h-81v-503z" />
    <glyph glyph-name="e.small" horiz-adv-x="468" 
d="M88 0v571h315v-39h-254v-219h232q2 -8 2 -18q0 -12 -2 -22h-232v-234h267v-39h-328z" />
    <glyph glyph-name="f.small" horiz-adv-x="460" 
d="M88 0v571h322v-39h-261v-223h233q2 -10 2 -20q0 -11 -2 -19h-233v-270h-61z" />
    <glyph glyph-name="g.small" horiz-adv-x="590" 
d="M463 62v193h-138v38h195v-244q-26 -23 -77.5 -41t-125.5 -18q-130 0 -194 80t-64 216q0 135 65 215t189 80q93 0 142 -36.5t64 -89.5q-18 -13 -56 -13q-32 105 -151 105q-92 0 -138.5 -67.5t-46.5 -193.5q0 -129 47 -195.5t149 -66.5q95 0 140 38z" />
    <glyph glyph-name="h.small" horiz-adv-x="610" 
d="M88 0v571h61v-248h311v248h62v-571h-62v283h-311v-283h-61z" />
    <glyph glyph-name="i.small" horiz-adv-x="237" 
d="M88 0v571h61v-571h-61z" />
    <glyph glyph-name="j.small" horiz-adv-x="363" 
d="M217 129v442h62v-449q0 -70 -38.5 -100.5t-117.5 -30.5q-66 0 -86 10q-1 3 -1 13q0 22 3 26q28 -12 78 -12q56 0 78 22.5t22 78.5z" />
    <glyph glyph-name="k.small" horiz-adv-x="501" 
d="M88 0v571h61v-264h2l256 264h58v-5l-259 -262l266 -299v-5h-71l-250 283h-2v-283h-61z" />
    <glyph glyph-name="l.small" horiz-adv-x="442" 
d="M88 0v571h61v-531h260v-40h-321z" />
    <glyph glyph-name="m.small" horiz-adv-x="739" 
d="M88 0v571h76l118 -279q69 -163 85 -223h3q16 65 84 220l122 282h75v-571h-59v283q0 140 4 222h-3q-24 -76 -66 -173l-144 -332h-38l-142 332q-39 89 -65 173h-3q4 -72 4 -222v-283h-51z" />
    <glyph glyph-name="n.small" horiz-adv-x="625" 
d="M88 0v571h70l218 -318q80 -116 110 -174h3q-3 62 -3 155v337h52v-571h-60l-228 334q-86 125 -111 175h-3q3 -48 3 -164v-345h-51z" />
    <glyph glyph-name="o.small" horiz-adv-x="626" 
d="M312 -10q-123 0 -188 80.5t-65 215.5q0 134 65 214.5t188 80.5t189 -80.5t66 -214.5q0 -135 -65.5 -215.5t-189.5 -80.5zM312 24q92 0 139 68t47 194t-47 193.5t-139 67.5t-138.5 -67.5t-46.5 -193.5t46.5 -194t138.5 -68z" />
    <glyph glyph-name="p.small" horiz-adv-x="486" 
d="M88 0v571h123q228 0 228 -167q0 -170 -230 -170h-60v-234h-61zM149 269h58q87 0 126 32.5t39 100.5q0 70 -39 102t-126 32h-58v-267z" />
    <glyph glyph-name="q.small" horiz-adv-x="626" 
d="M359 -6q-20 -4 -47 -4q-123 0 -188 80.5t-65 215.5q0 134 65 214.5t188 80.5t189 -80.5t66 -214.5q0 -108 -42.5 -182.5t-124.5 -100.5q14 -40 37 -55t62 -15q24 0 37 5q2 -8 2 -31q0 -15 -1 -18q-12 -5 -38 -5q-57 0 -86.5 25t-53.5 85zM312 24q92 0 139 68t47 194
t-47 193.5t-139 67.5t-138.5 -67.5t-46.5 -193.5t46.5 -194t138.5 -68z" />
    <glyph glyph-name="r.small" horiz-adv-x="503" 
d="M88 0v571h121q228 0 228 -164q0 -122 -127 -157l142 -245v-5h-65l-136 239q-30 -2 -49 -2h-53v-237h-61zM149 272h58q86 0 125 32.5t39 101.5t-39 99.5t-125 30.5h-58v-264z" />
    <glyph glyph-name="s.small" horiz-adv-x="500" 
d="M46 114q17 15 56 17q37 -107 147 -107q62 0 97 32.5t35 89.5q0 20 -5 36t-18.5 29t-23 21t-33.5 18t-33 13.5t-39 13.5q-38 13 -59 23t-47 27.5t-38 42.5t-12 58q0 67 49 110t132 43q85 0 128.5 -34.5t55.5 -77.5q-16 -14 -55 -14q-5 15 -11 26t-20 28.5t-39.5 27.5
t-59.5 10q-57 0 -88.5 -29t-31.5 -84q0 -20 9.5 -37t19.5 -27.5t35 -22t38 -16.5t45 -16q30 -11 48 -18t42.5 -21.5t38 -29.5t23.5 -39.5t10 -53.5q0 -70 -50.5 -116.5t-145.5 -46.5q-157 0 -200 124z" />
    <glyph glyph-name="t.small" horiz-adv-x="455" 
d="M197 0v532h-167v39h395v-39h-167v-532h-61z" />
    <glyph glyph-name="u.small" horiz-adv-x="611" 
d="M85 229v342h61v-342q0 -105 41.5 -151.5t123.5 -46.5q81 0 122.5 46.5t41.5 153.5v340h51v-341q0 -121 -52.5 -180.5t-169.5 -59.5q-118 0 -168.5 58.5t-50.5 180.5z" />
    <glyph glyph-name="v.small" horiz-adv-x="540" 
d="M237 0l-202 566v5h63l125 -354q46 -130 52 -167h3q6 37 52 167l124 354h52v-5l-203 -566h-66z" />
    <glyph glyph-name="w.small" horiz-adv-x="814" 
d="M198 0l-162 566v5h62l86 -313q45 -161 51 -200h3q5 39 51 199l91 314h67l92 -316q42 -144 49 -196h4q3 27 50 196l86 316h52v-5l-163 -566h-63l-89 300q-46 157 -54 208h-3q-12 -63 -56 -208l-90 -300h-64z" />
    <glyph glyph-name="x.small" horiz-adv-x="528" 
d="M36 0v5l194 285l-183 276v5h65l156 -243l162 243h50v-5l-182 -270l193 -291v-5h-64l-167 256l-173 -256h-51z" />
    <glyph glyph-name="y.small" horiz-adv-x="503" 
d="M221 0v217l-187 349v5h64l159 -306h2l160 306h51v-5l-188 -349v-217h-61z" />
    <glyph glyph-name="z.small" horiz-adv-x="527" 
d="M51 0v22l347 510h-330v39h408v-22l-346 -510h343v-39h-422z" />
    <glyph glyph-name="agrave.small" horiz-adv-x="543" 
d="M31 0v5l204 566h75l201 -566v-5h-63l-69 193h-228l-69 -193h-51zM165 233h199l-43 123q-47 136 -54 171h-2q-19 -65 -56 -170zM254 632l-101 132q12 4 36 4q22 0 38 -4l62 -132q-5 -3 -18 -3q-11 0 -17 3z" />
    <glyph glyph-name="aacute.small" horiz-adv-x="543" 
d="M31 0v5l204 566h75l201 -566v-5h-63l-69 193h-228l-69 -193h-51zM165 233h199l-43 123q-47 136 -54 171h-2q-19 -65 -56 -170zM254 632l63 132q14 4 37 4q22 0 36 -4l-100 -132q-6 -3 -18 -3q-14 0 -18 3z" />
    <glyph glyph-name="acircumflex.small" horiz-adv-x="543" 
d="M31 0v5l204 566h75l201 -566v-5h-63l-69 193h-228l-69 -193h-51zM165 233h199l-43 123q-47 136 -54 171h-2q-19 -65 -56 -170zM152 632l83 132q12 4 36 4q23 0 37 -4l83 -132q-5 -3 -18 -3q-10 0 -16 3l-85 102h-2l-84 -102q-6 -3 -17 -3q-13 0 -17 3z" />
    <glyph glyph-name="atilde.small" horiz-adv-x="543" 
d="M31 0v5l204 566h75l201 -566v-5h-63l-69 193h-228l-69 -193h-51zM165 233h199l-43 123q-47 136 -54 171h-2q-19 -65 -56 -170zM116 652q21 60 44 78.5t53 18.5q27 0 65 -29.5t58 -29.5q37 0 62 57q3 1 15 1q10 0 13 -1q-21 -58 -42 -77t-46 -19q-31 0 -70.5 29.5
t-62.5 29.5q-19 0 -35.5 -18t-25.5 -40q-6 -2 -13 -2q-9 0 -15 2z" />
    <glyph glyph-name="adieresis.small" horiz-adv-x="543" 
d="M31 0v5l204 566h75l201 -566v-5h-63l-69 193h-228l-69 -193h-51zM165 233h199l-43 123q-47 136 -54 171h-2q-19 -65 -56 -170zM148 696q0 16 10.5 26.5t26.5 10.5t26.5 -10.5t10.5 -26.5t-10 -26.5t-27 -10.5q-16 0 -26.5 10.5t-10.5 26.5zM320 696q0 16 10.5 26.5
t26.5 10.5t26.5 -10.5t10.5 -26.5t-10 -26.5t-27 -10.5q-16 0 -26.5 10.5t-10.5 26.5z" />
    <glyph glyph-name="amacron.small" horiz-adv-x="543" 
d="M31 0v5l204 566h75l201 -566v-5h-63l-69 193h-228l-69 -193h-51zM165 233h199l-43 123q-47 136 -54 171h-2q-19 -65 -56 -170zM142 671v39h259v-39h-259z" />
    <glyph glyph-name="abreve.small" horiz-adv-x="543" 
d="M31 0v5l204 566h75l201 -566v-5h-63l-69 193h-228l-69 -193h-51zM165 233h199l-43 123q-47 136 -54 171h-2q-19 -65 -56 -170zM152 754q5 3 17 3q9 0 15 -3q16 -83 88 -83t88 83q4 3 14 3q12 0 17 -3q-5 -56 -35 -90.5t-84 -34.5t-84 34t-36 91z" />
    <glyph glyph-name="aring.small" horiz-adv-x="543" 
d="M31 0v5l204 566h75l201 -566v-5h-63l-69 193h-228l-69 -193h-51zM165 233h199l-43 123q-47 136 -54 171h-2q-19 -65 -56 -170zM193 691q0 34 21.5 56t56.5 22t56.5 -22t21.5 -56t-21.5 -56t-56.5 -22t-56.5 22t-21.5 56zM271 638q22 0 34 14.5t12 38.5t-12 38.5t-34 14.5
q-45 0 -45 -53t45 -53z" />
    <glyph glyph-name="aogonek.small" horiz-adv-x="543" 
d="M31 0v5l204 566h75l201 -566v-5q-113 -56 -113 -138q0 -48 56 -48q33 0 54 14l10 -18q-27 -27 -81 -27q-88 0 -88 72q0 48 33.5 85t86.5 60h-21l-69 193h-228l-69 -193h-51zM165 233h199l-43 123q-47 136 -54 171h-2q-19 -65 -56 -170z" />
    <glyph glyph-name="ae.small" horiz-adv-x="723" 
d="M24 0v5l285 566h350v-39h-254v-219h231q2 -10 2 -20q0 -12 -2 -20h-231v-234h266v-39h-328v193h-169l-96 -193h-54zM194 233h149v299h-3q-17 -42 -82 -171z" />
    <glyph glyph-name="aeacute.small" horiz-adv-x="723" 
d="M24 0v5l285 566h350v-39h-254v-219h231q2 -10 2 -20q0 -12 -2 -20h-231v-234h266v-39h-328v193h-169l-96 -193h-54zM194 233h149v299h-3q-17 -42 -82 -171zM430 632l63 132q14 4 37 4q22 0 36 -4l-100 -132q-6 -3 -18 -3q-14 0 -18 3z" />
    <glyph glyph-name="cacute.small" horiz-adv-x="583" 
d="M477 169q43 0 60 -10q-44 -169 -225 -169q-124 0 -188.5 81t-64.5 215t65 214.5t188 80.5q176 0 218 -153q-14 -13 -59 -13q-18 65 -54 98.5t-105 33.5q-92 0 -138.5 -67.5t-46.5 -193.5t46.5 -194t138.5 -68q131 0 165 145zM286 632l63 132q14 4 37 4q22 0 36 -4
l-100 -132q-6 -3 -18 -3q-14 0 -18 3z" />
    <glyph glyph-name="ccircumflex.small" horiz-adv-x="583" 
d="M477 169q43 0 60 -10q-44 -169 -225 -169q-124 0 -188.5 81t-64.5 215t65 214.5t188 80.5q176 0 218 -153q-14 -13 -59 -13q-18 65 -54 98.5t-105 33.5q-92 0 -138.5 -67.5t-46.5 -193.5t46.5 -194t138.5 -68q131 0 165 145zM195 632l83 132q12 4 36 4q23 0 37 -4
l83 -132q-4 -3 -18 -3q-10 0 -16 3l-85 102h-2l-84 -102q-6 -3 -17 -3q-12 0 -17 3z" />
    <glyph glyph-name="ccaron.small" horiz-adv-x="583" 
d="M477 169q43 0 60 -10q-44 -169 -225 -169q-124 0 -188.5 81t-64.5 215t65 214.5t188 80.5q176 0 218 -153q-14 -13 -59 -13q-18 65 -54 98.5t-105 33.5q-92 0 -138.5 -67.5t-46.5 -193.5t46.5 -194t138.5 -68q131 0 165 145zM280 636l-83 132q4 3 17 3q11 0 17 -3
l84 -102h2l85 102q6 3 17 3q12 0 17 -3l-83 -132q-10 -3 -36 -3q-27 0 -37 3z" />
    <glyph glyph-name="cdotaccent.small" horiz-adv-x="583" 
d="M477 169q43 0 60 -10q-44 -169 -225 -169q-124 0 -188.5 81t-64.5 215t65 214.5t188 80.5q176 0 218 -153q-14 -13 -59 -13q-18 65 -54 98.5t-105 33.5q-92 0 -138.5 -67.5t-46.5 -193.5t46.5 -194t138.5 -68q131 0 165 145zM273 697q0 16 11 26.5t28 10.5t27.5 -10.5
t10.5 -26.5q0 -17 -10.5 -27.5t-27.5 -10.5t-28 10.5t-11 27.5z" />
    <glyph glyph-name="ccedilla.small" horiz-adv-x="583" 
d="M231 -191l6 21q22 -16 57 -16q53 0 53 45q0 27 -20 38.5t-65 20.5l22 73q-111 9 -168 88.5t-57 206.5q0 134 65 214.5t188 80.5q176 0 218 -153q-14 -13 -59 -13q-18 65 -54 98.5t-105 33.5q-92 0 -138.5 -67.5t-46.5 -193.5t46.5 -194t138.5 -68q131 0 165 145
q43 0 60 -10q-43 -166 -222 -169l-15 -48q90 -17 90 -79q0 -38 -24.5 -57t-62.5 -19q-50 0 -72 22z" />
    <glyph glyph-name="dcaron.small" horiz-adv-x="574" 
d="M88 0v571h142q145 0 215 -74t70 -211t-69.5 -211.5t-214.5 -74.5h-143zM149 34h80q112 0 164.5 63t52.5 189t-52.5 188.5t-163.5 62.5h-81v-503zM242 636l-83 132q5 3 17 3q11 0 17 -3l84 -102h2l85 102q6 3 17 3q13 0 17 -3l-83 -132q-11 -3 -36 -3q-27 0 -37 3z" />
    <glyph glyph-name="dcroat.small" horiz-adv-x="594" 
d="M108 0v272h-68v37h68v262h142q285 0 285 -285q0 -137 -69.5 -211.5t-214.5 -74.5h-143zM169 34h80q112 0 164.5 63t52.5 189t-52 188.5t-164 62.5h-81v-228h160v-37h-160v-238z" />
    <glyph glyph-name="egrave.small" horiz-adv-x="468" 
d="M88 0v571h315v-39h-254v-219h232q2 -8 2 -18q0 -12 -2 -22h-232v-234h267v-39h-328zM247 632l-101 132q12 4 36 4q22 0 38 -4l62 -132q-4 -3 -18 -3q-11 0 -17 3z" />
    <glyph glyph-name="eacute.small" horiz-adv-x="468" 
d="M88 0v571h315v-39h-254v-219h232q2 -8 2 -18q0 -12 -2 -22h-232v-234h267v-39h-328zM221 632l63 132q14 4 37 4q22 0 36 -4l-100 -132q-6 -3 -18 -3q-14 0 -18 3z" />
    <glyph glyph-name="ecircumflex.small" horiz-adv-x="468" 
d="M88 0v571h315v-39h-254v-219h232q2 -8 2 -18q0 -12 -2 -22h-232v-234h267v-39h-328zM130 632l83 132q12 4 36 4q23 0 37 -4l83 -132q-5 -3 -18 -3q-10 0 -16 3l-85 102h-2l-84 -102q-6 -3 -17 -3q-13 0 -17 3z" />
    <glyph glyph-name="ecaron.small" horiz-adv-x="468" 
d="M88 0v571h315v-39h-254v-219h232q2 -8 2 -18q0 -12 -2 -22h-232v-234h267v-39h-328zM218 636l-83 132q5 3 17 3q11 0 17 -3l84 -102h2l85 102q6 3 17 3q13 0 17 -3l-83 -132q-11 -3 -36 -3q-27 0 -37 3z" />
    <glyph glyph-name="edieresis.small" horiz-adv-x="468" 
d="M88 0v571h315v-39h-254v-219h232q2 -8 2 -18q0 -12 -2 -22h-232v-234h267v-39h-328zM122 696q0 16 10.5 26.5t26.5 10.5t26.5 -10.5t10.5 -26.5t-10 -26.5t-27 -10.5q-16 0 -26.5 10.5t-10.5 26.5zM294 696q0 16 10.5 26.5t26.5 10.5t26.5 -10.5t10.5 -26.5t-10 -26.5
t-27 -10.5q-16 0 -26.5 10.5t-10.5 26.5z" />
    <glyph glyph-name="emacron.small" horiz-adv-x="468" 
d="M88 0v571h315v-39h-254v-219h232q2 -8 2 -18q0 -12 -2 -22h-232v-234h267v-39h-328zM119 671v39h259v-39h-259z" />
    <glyph glyph-name="ebreve.small" horiz-adv-x="468" 
d="M88 0v571h315v-39h-254v-219h232q2 -8 2 -18q0 -12 -2 -22h-232v-234h267v-39h-328zM135 754q5 3 17 3q9 0 15 -3q16 -83 88 -83t88 83q4 3 14 3q13 0 17 -3q-5 -56 -35 -90.5t-84 -34.5t-84 34t-36 91z" />
    <glyph glyph-name="edotaccent.small" horiz-adv-x="468" 
d="M88 0v571h315v-39h-254v-219h232q2 -8 2 -18q0 -12 -2 -22h-232v-234h267v-39h-328zM215 697q0 16 11 26.5t28 10.5t27.5 -10.5t10.5 -26.5q0 -17 -10.5 -27.5t-27.5 -10.5t-28 10.5t-11 27.5z" />
    <glyph glyph-name="eogonek.small" horiz-adv-x="468" 
d="M88 0v571h315v-39h-254v-219h232q2 -8 2 -18q0 -12 -2 -22h-232v-234h267v-39q-113 -56 -113 -138q0 -48 56 -48q33 0 54 14l10 -18q-27 -27 -81 -27q-88 0 -88 72q0 48 33.5 85t86.5 60h-286z" />
    <glyph glyph-name="gcircumflex.small" horiz-adv-x="594" 
d="M463 62v193h-138v38h195v-244q-26 -23 -77.5 -41t-125.5 -18q-130 0 -194 80t-64 216q0 135 65 215t189 80q93 0 142 -36.5t64 -89.5q-18 -13 -56 -13q-32 105 -151 105q-92 0 -138.5 -67.5t-46.5 -193.5q0 -129 47 -195.5t149 -66.5q95 0 140 38zM199 632l83 132
q12 4 36 4q23 0 37 -4l83 -132q-4 -3 -18 -3q-10 0 -16 3l-85 102h-2l-84 -102q-6 -3 -17 -3q-12 0 -17 3z" />
    <glyph glyph-name="gbreve.small" horiz-adv-x="594" 
d="M463 62v193h-138v38h195v-244q-26 -23 -77.5 -41t-125.5 -18q-130 0 -194 80t-64 216q0 135 65 215t189 80q93 0 142 -36.5t64 -89.5q-18 -13 -56 -13q-32 105 -151 105q-92 0 -138.5 -67.5t-46.5 -193.5q0 -129 47 -195.5t149 -66.5q95 0 140 38zM198 754q4 3 17 3
q9 0 15 -3q16 -83 88 -83t88 83q4 3 14 3q12 0 17 -3q-5 -56 -35 -90.5t-84 -34.5t-84 34t-36 91z" />
    <glyph glyph-name="gdotaccent.small" horiz-adv-x="594" 
d="M463 62v193h-138v38h195v-244q-26 -23 -77.5 -41t-125.5 -18q-130 0 -194 80t-64 216q0 135 65 215t189 80q93 0 142 -36.5t64 -89.5q-18 -13 -56 -13q-32 105 -151 105q-92 0 -138.5 -67.5t-46.5 -193.5q0 -129 47 -195.5t149 -66.5q95 0 140 38zM280 697q0 16 11 26.5
t28 10.5t27.5 -10.5t10.5 -26.5q0 -17 -10.5 -27.5t-27.5 -10.5t-28 10.5t-11 27.5z" />
    <glyph glyph-name="gcommaaccent.small" horiz-adv-x="594" 
d="M463 62v193h-138v38h195v-244q-26 -23 -77.5 -41t-125.5 -18q-130 0 -194 80t-64 216q0 135 65 215t189 80q93 0 142 -36.5t64 -89.5q-18 -13 -56 -13q-32 105 -151 105q-92 0 -138.5 -67.5t-46.5 -193.5q0 -129 47 -195.5t149 -66.5q95 0 140 38zM267 -207
q19 14 31.5 36.5t13.5 41.5q-17 0 -28.5 10.5t-11.5 26.5t10.5 26t27.5 10q41 0 41 -44t-22 -77t-43 -40q-5 0 -11.5 3.5t-7.5 6.5z" />
    <glyph glyph-name="hcircumflex.small" horiz-adv-x="610" 
d="M88 0v571h61v-248h311v248h62v-571h-62v283h-311v-283h-61zM187 632l83 132q12 4 36 4q23 0 37 -4l83 -132q-4 -3 -18 -3q-10 0 -16 3l-85 102h-2l-84 -102q-6 -3 -17 -3q-12 0 -17 3z" />
    <glyph glyph-name="hbar.small" horiz-adv-x="610" 
d="M88 0v446h-40v37h40v88h61v-88h311v88h62v-88h40v-37h-40v-446h-62v283h-311v-283h-61zM149 323h311v123h-311v-123z" />
    <glyph glyph-name="dotlessi.small" horiz-adv-x="237" 
d="M88 0v571h61v-571h-61z" />
    <glyph glyph-name="dotlessj.small" horiz-adv-x="363" 
d="M217 129v442h62v-449q0 -70 -38.5 -100.5t-117.5 -30.5q-66 0 -86 10q-1 3 -1 13q0 22 3 26q28 -12 78 -12q56 0 78 22.5t22 78.5z" />
    <glyph glyph-name="igrave.small" horiz-adv-x="237" 
d="M88 0v571h61v-571h-61zM112 632l-101 132q12 4 36 4q22 0 38 -4l62 -132q-5 -3 -18 -3q-11 0 -17 3z" />
    <glyph glyph-name="iacute.small" horiz-adv-x="237" 
d="M88 0v571h61v-571h-61zM92 632l63 132q14 4 37 4q22 0 36 -4l-100 -132q-6 -3 -18 -3q-14 0 -18 3z" />
    <glyph glyph-name="icircumflex.small" horiz-adv-x="237" 
d="M88 0v571h61v-571h-61zM-1 632l83 132q12 4 36 4q23 0 37 -4l83 -132q-5 -3 -18 -3q-10 0 -16 3l-85 102h-2l-84 -102q-6 -3 -17 -3q-12 0 -17 3z" />
    <glyph glyph-name="itilde.small" horiz-adv-x="237" 
d="M88 0v571h61v-571h-61zM-37 652q21 60 44 78.5t53 18.5q27 0 65 -29.5t58 -29.5q37 0 62 57q3 1 15 1q10 0 13 -1q-21 -58 -42 -77t-46 -19q-31 0 -70.5 29.5t-62.5 29.5q-19 0 -35.5 -18t-25.5 -40q-6 -2 -13 -2q-9 0 -15 2z" />
    <glyph glyph-name="idieresis.small" horiz-adv-x="237" 
d="M88 0v571h61v-571h-61zM-5 696q0 16 10.5 26.5t26.5 10.5t26.5 -10.5t10.5 -26.5t-10.5 -26.5t-26.5 -10.5t-26.5 10.5t-10.5 26.5zM167 696q0 16 10.5 26.5t26.5 10.5t26.5 -10.5t10.5 -26.5t-10.5 -26.5t-26.5 -10.5t-26.5 10.5t-10.5 26.5z" />
    <glyph glyph-name="imacron.small" horiz-adv-x="237" 
d="M88 0v571h61v-571h-61zM-11 671v39h259v-39h-259z" />
    <glyph glyph-name="ibreve.small" horiz-adv-x="237" 
d="M88 0v571h61v-571h-61zM-1 754q5 3 17 3q9 0 15 -3q16 -83 88 -83t88 83q5 3 14 3q13 0 17 -3q-5 -56 -35 -90.5t-84 -34.5t-84 34t-36 91z" />
    <glyph glyph-name="idotaccent.small" horiz-adv-x="237" 
d="M88 0v571h61v-571h-61zM80 697q0 16 11 26.5t28 10.5t27.5 -10.5t10.5 -26.5q0 -17 -10.5 -27.5t-27.5 -10.5t-28 10.5t-11 27.5z" />
    <glyph glyph-name="iogonek.small" horiz-adv-x="237" 
d="M146 -172l10 -18q-27 -27 -81 -27q-88 0 -88 72q0 48 33.5 85t86.5 60h-19v571h61v-571q-113 -56 -113 -138q0 -48 56 -48q33 0 54 14z" />
    <glyph glyph-name="ij.small" horiz-adv-x="588" 
d="M88 0v571h61v-571h-61zM442 129v442h62v-449q0 -70 -38.5 -100.5t-117.5 -30.5q-66 0 -86 10q-1 3 -1 13q0 22 3 26q28 -12 78 -12q56 0 78 22.5t22 78.5z" />
    <glyph glyph-name="jcircumflex.small" horiz-adv-x="363" 
d="M217 129v442h62v-449q0 -70 -38.5 -100.5t-117.5 -30.5q-66 0 -86 10q-1 3 -1 13q0 22 3 26q28 -12 78 -12q56 0 78 22.5t22 78.5zM127 632l83 132q12 4 36 4q23 0 37 -4l83 -132q-4 -3 -18 -3q-10 0 -16 3l-85 102h-2l-84 -102q-6 -3 -17 -3q-12 0 -17 3z" />
    <glyph glyph-name="kcommaaccent.small" horiz-adv-x="502" 
d="M88 0v571h61v-264h2l256 264h58v-5l-259 -262l266 -299v-5h-71l-250 283h-2v-283h-61zM200 -207q19 14 31.5 36.5t13.5 41.5q-17 0 -28.5 10.5t-11.5 26.5t10.5 26t27.5 10q41 0 41 -44t-22 -77t-43 -40q-5 0 -11.5 3.5t-7.5 6.5z" />
    <glyph glyph-name="kgreenlandic.small" horiz-adv-x="502" 
d="M88 0v571h61v-264h2l256 264h58v-5l-259 -262l266 -299v-5h-71l-250 283h-2v-283h-61z" />
    <glyph glyph-name="lacute.small" horiz-adv-x="442" 
d="M88 0v571h61v-531h260v-40h-321zM104 632l63 132q14 4 37 4q22 0 36 -4l-100 -132q-6 -3 -18 -3q-14 0 -18 3z" />
    <glyph glyph-name="lcaron.small" horiz-adv-x="442" 
d="M88 0v571h61v-531h260v-40h-321zM247 430q18 13 29 36.5t12 43.5q-15 0 -25.5 9.5t-10.5 25.5q0 35 34 35q39 0 39 -44q0 -45 -19.5 -78.5t-39.5 -41.5q-6 0 -12 4.5t-7 9.5z" />
    <glyph glyph-name="lcommaaccent.small" horiz-adv-x="442" 
d="M88 0v571h61v-531h260v-40h-321zM207 -207q19 14 31.5 36.5t13.5 41.5q-17 0 -28.5 10.5t-11.5 26.5t10.5 26t27.5 10q41 0 41 -44t-22 -77t-43 -40q-5 0 -11.5 3.5t-7.5 6.5z" />
    <glyph glyph-name="ldot.small" horiz-adv-x="442" 
d="M88 0v571h61v-531h260v-40h-321zM283 316q0 16 11 26.5t28 10.5t27.5 -10.5t10.5 -26.5q0 -17 -10.5 -27.5t-27.5 -10.5t-28 10.5t-11 27.5z" />
    <glyph glyph-name="lslash.small" horiz-adv-x="479" 
d="M125 0v206l-68 -38v42l68 38v323h61v-294l153 85v-43l-153 -83v-196h260v-40h-321z" />
    <glyph glyph-name="nacute.small" horiz-adv-x="625" 
d="M88 0v571h70l218 -318q80 -116 110 -174h3q-3 62 -3 155v337h52v-571h-60l-228 334q-86 125 -111 175h-3q3 -48 3 -164v-345h-51zM307 632l63 132q14 4 37 4q22 0 36 -4l-100 -132q-6 -3 -18 -3q-13 0 -18 3z" />
    <glyph glyph-name="ncaron.small" horiz-adv-x="625" 
d="M88 0v571h70l218 -318q80 -116 110 -174h3q-3 62 -3 155v337h52v-571h-60l-228 334q-86 125 -111 175h-3q3 -48 3 -164v-345h-51zM295 636l-83 132q4 3 17 3q11 0 17 -3l84 -102h2l85 102q6 3 17 3q12 0 17 -3l-83 -132q-11 -3 -36 -3q-26 0 -37 3z" />
    <glyph glyph-name="ntilde.small" horiz-adv-x="625" 
d="M88 0v571h70l218 -318q80 -116 110 -174h3q-3 62 -3 155v337h52v-571h-60l-228 334q-86 125 -111 175h-3q3 -48 3 -164v-345h-51zM167 652q21 60 44 78.5t53 18.5q27 0 65 -29.5t58 -29.5q37 0 62 57q3 1 15 1q10 0 13 -1q-21 -58 -42 -77t-46 -19q-31 0 -70.5 29.5
t-62.5 29.5q-19 0 -35.5 -18t-25.5 -40q-6 -2 -13 -2q-9 0 -15 2z" />
    <glyph glyph-name="napostrophe.small" horiz-adv-x="625" 
d="M88 0v571h70l218 -318q80 -116 110 -174h3q-3 62 -3 155v337h52v-571h-60l-228 334q-86 125 -111 175h-3q3 -48 3 -164v-345h-51zM40 643q19 14 31.5 36.5t13.5 41.5q-17 0 -28.5 10.5t-11.5 26.5t10.5 26t27.5 10q41 0 41 -44t-22 -77t-43 -40q-5 0 -11.5 3.5t-7.5 6.5z
" />
    <glyph glyph-name="ncommaaccent.small" horiz-adv-x="625" 
d="M88 0v571h70l218 -318q80 -116 110 -174h3q-3 62 -3 155v337h52v-571h-60l-228 334q-86 125 -111 175h-3q3 -48 3 -164v-345h-51zM272 -207q19 14 31.5 36.5t13.5 41.5q-17 0 -28.5 10.5t-11.5 26.5t10.5 26t27.5 10q41 0 41 -44t-22 -77t-43 -40q-5 0 -11.5 3.5
t-7.5 6.5z" />
    <glyph glyph-name="ograve.small" horiz-adv-x="626" 
d="M312 -10q-123 0 -188 80.5t-65 215.5q0 134 65 214.5t188 80.5t189 -80.5t66 -214.5q0 -135 -65.5 -215.5t-189.5 -80.5zM312 24q92 0 139 68t47 194t-47 193.5t-139 67.5t-138.5 -67.5t-46.5 -193.5t46.5 -194t138.5 -68zM296 632l-101 132q12 4 36 4q22 0 38 -4
l62 -132q-5 -3 -18 -3q-11 0 -17 3z" />
    <glyph glyph-name="oacute.small" horiz-adv-x="626" 
d="M312 -10q-123 0 -188 80.5t-65 215.5q0 134 65 214.5t188 80.5t189 -80.5t66 -214.5q0 -135 -65.5 -215.5t-189.5 -80.5zM312 24q92 0 139 68t47 194t-47 193.5t-139 67.5t-138.5 -67.5t-46.5 -193.5t46.5 -194t138.5 -68zM295 632l63 132q14 4 37 4q22 0 36 -4
l-100 -132q-6 -3 -18 -3q-13 0 -18 3z" />
    <glyph glyph-name="ocircumflex.small" horiz-adv-x="626" 
d="M312 -10q-123 0 -188 80.5t-65 215.5q0 134 65 214.5t188 80.5t189 -80.5t66 -214.5q0 -135 -65.5 -215.5t-189.5 -80.5zM312 24q92 0 139 68t47 194t-47 193.5t-139 67.5t-138.5 -67.5t-46.5 -193.5t46.5 -194t138.5 -68zM193 632l83 132q12 4 36 4q23 0 37 -4l83 -132
q-4 -3 -18 -3q-10 0 -16 3l-85 102h-2l-84 -102q-6 -3 -17 -3q-12 0 -17 3z" />
    <glyph glyph-name="otilde.small" horiz-adv-x="626" 
d="M312 -10q-123 0 -188 80.5t-65 215.5q0 134 65 214.5t188 80.5t189 -80.5t66 -214.5q0 -135 -65.5 -215.5t-189.5 -80.5zM312 24q92 0 139 68t47 194t-47 193.5t-139 67.5t-138.5 -67.5t-46.5 -193.5t46.5 -194t138.5 -68zM157 652q21 60 44 78.5t53 18.5q27 0 65 -29.5
t58 -29.5q37 0 62 57q3 1 15 1q10 0 13 -1q-21 -58 -42 -77t-46 -19q-31 0 -70.5 29.5t-62.5 29.5q-19 0 -35.5 -18t-25.5 -40q-6 -2 -13 -2q-9 0 -15 2z" />
    <glyph glyph-name="odieresis.small" horiz-adv-x="626" 
d="M312 -10q-123 0 -188 80.5t-65 215.5q0 134 65 214.5t188 80.5t189 -80.5t66 -214.5q0 -135 -65.5 -215.5t-189.5 -80.5zM312 24q92 0 139 68t47 194t-47 193.5t-139 67.5t-138.5 -67.5t-46.5 -193.5t46.5 -194t138.5 -68zM189 696q0 16 10.5 26.5t26.5 10.5t26.5 -10.5
t10.5 -26.5t-10.5 -26.5t-26.5 -10.5t-26.5 10.5t-10.5 26.5zM361 696q0 16 10.5 26.5t26.5 10.5t26.5 -10.5t10.5 -26.5t-10.5 -26.5t-26.5 -10.5t-26.5 10.5t-10.5 26.5z" />
    <glyph glyph-name="omacron.small" horiz-adv-x="626" 
d="M312 -10q-123 0 -188 80.5t-65 215.5q0 134 65 214.5t188 80.5t189 -80.5t66 -214.5q0 -135 -65.5 -215.5t-189.5 -80.5zM312 24q92 0 139 68t47 194t-47 193.5t-139 67.5t-138.5 -67.5t-46.5 -193.5t46.5 -194t138.5 -68zM183 671v39h259v-39h-259z" />
    <glyph glyph-name="obreve.small" horiz-adv-x="626" 
d="M312 -10q-123 0 -188 80.5t-65 215.5q0 134 65 214.5t188 80.5t189 -80.5t66 -214.5q0 -135 -65.5 -215.5t-189.5 -80.5zM312 24q92 0 139 68t47 194t-47 193.5t-139 67.5t-138.5 -67.5t-46.5 -193.5t46.5 -194t138.5 -68zM193 754q4 3 17 3q9 0 15 -3q16 -83 88 -83
t88 83q5 3 14 3q13 0 17 -3q-5 -56 -35 -90.5t-84 -34.5t-84 34t-36 91z" />
    <glyph glyph-name="ohungarumlaut.small" horiz-adv-x="626" 
d="M312 -10q-123 0 -188 80.5t-65 215.5q0 134 65 214.5t188 80.5t189 -80.5t66 -214.5q0 -135 -65.5 -215.5t-189.5 -80.5zM312 24q92 0 139 68t47 194t-47 193.5t-139 67.5t-138.5 -67.5t-46.5 -193.5t46.5 -194t138.5 -68zM235 632l43 132q14 4 35 4t35 -4l-78 -132
q-6 -3 -17 -3q-13 0 -18 3zM360 632l59 132q14 4 37 4q21 0 35 -4l-94 -132q-6 -3 -19 -3q-14 0 -18 3z" />
    <glyph glyph-name="oslash.small" horiz-adv-x="626" 
d="M87 -4l46 63q-74 80 -74 227q0 134 65 214.5t188 80.5q97 0 162 -54l44 61l30 -19l-49 -67q68 -79 68 -216q0 -135 -65.5 -215.5t-189.5 -80.5q-90 0 -153 46l-42 -58zM166 104l279 383q-48 60 -133 60q-92 0 -138.5 -67.5t-46.5 -193.5q0 -116 39 -182zM465 455
l-278 -380q46 -51 125 -51q92 0 139 68t47 194q0 104 -33 169z" />
    <glyph glyph-name="oslashacute.small" horiz-adv-x="626" 
d="M87 -4l46 63q-74 80 -74 227q0 134 65 214.5t188 80.5q97 0 162 -54l44 61l30 -19l-49 -67q68 -79 68 -216q0 -135 -65.5 -215.5t-189.5 -80.5q-90 0 -153 46l-42 -58zM166 104l279 383q-48 60 -133 60q-92 0 -138.5 -67.5t-46.5 -193.5q0 -116 39 -182zM465 455
l-278 -380q46 -51 125 -51q92 0 139 68t47 194q0 104 -33 169zM285 632l63 132q14 4 37 4q22 0 36 -4l-100 -132q-6 -3 -18 -3q-13 0 -18 3z" />
    <glyph glyph-name="oe.small" horiz-adv-x="769" 
d="M449 39h268v-39h-319q-42 -10 -85 -10q-121 0 -187 81t-66 215q0 133 66 214t187 81q43 0 85 -10h306v-39h-255v-219h232q2 -10 2 -20q0 -12 -2 -20h-232v-234zM388 33v506q-31 8 -74 8q-90 0 -137.5 -68t-47.5 -193t48 -193.5t137 -68.5q41 0 74 9z" />
    <glyph glyph-name="racute.small" horiz-adv-x="503" 
d="M88 0v571h121q228 0 228 -164q0 -122 -127 -157l142 -245v-5h-65l-136 239q-30 -2 -49 -2h-53v-237h-61zM149 272h58q86 0 125 32.5t39 101.5t-39 99.5t-125 30.5h-58v-264zM231 632l63 132q14 4 37 4q22 0 36 -4l-100 -132q-6 -3 -18 -3q-13 0 -18 3z" />
    <glyph glyph-name="rcaron.small" horiz-adv-x="503" 
d="M88 0v571h121q228 0 228 -164q0 -122 -127 -157l142 -245v-5h-65l-136 239q-30 -2 -49 -2h-53v-237h-61zM149 272h58q86 0 125 32.5t39 101.5t-39 99.5t-125 30.5h-58v-264zM212 636l-83 132q5 3 17 3q11 0 17 -3l84 -102h2l85 102q6 3 17 3q13 0 17 -3l-83 -132
q-10 -3 -36 -3q-27 0 -37 3z" />
    <glyph glyph-name="rcommaaccent.small" horiz-adv-x="503" 
d="M88 0v571h121q228 0 228 -164q0 -122 -127 -157l142 -245v-5h-65l-136 239q-30 -2 -49 -2h-53v-237h-61zM149 272h58q86 0 125 32.5t39 101.5t-39 99.5t-125 30.5h-58v-264zM208 -207q19 14 31.5 36.5t13.5 41.5q-17 0 -28.5 10.5t-11.5 26.5t10.5 26t27.5 10
q41 0 41 -44t-22 -77t-43 -40q-5 0 -11.5 3.5t-7.5 6.5z" />
    <glyph glyph-name="sacute.small" horiz-adv-x="500" 
d="M46 114q17 15 56 17q37 -107 147 -107q62 0 97 32.5t35 89.5q0 20 -5 36t-18.5 29t-23 21t-33.5 18t-33 13.5t-39 13.5q-38 13 -59 23t-47 27.5t-38 42.5t-12 58q0 67 49 110t132 43q85 0 128.5 -34.5t55.5 -77.5q-16 -14 -55 -14q-5 15 -11 26t-20 28.5t-39.5 27.5
t-59.5 10q-57 0 -88.5 -29t-31.5 -84q0 -20 9.5 -37t19.5 -27.5t35 -22t38 -16.5t45 -16q30 -11 48 -18t42.5 -21.5t38 -29.5t23.5 -39.5t10 -53.5q0 -70 -50.5 -116.5t-145.5 -46.5q-157 0 -200 124zM232 632l63 132q14 4 37 4q22 0 36 -4l-100 -132q-6 -3 -18 -3
q-14 0 -18 3z" />
    <glyph glyph-name="scircumflex.small" horiz-adv-x="500" 
d="M46 114q17 15 56 17q37 -107 147 -107q62 0 97 32.5t35 89.5q0 20 -5 36t-18.5 29t-23 21t-33.5 18t-33 13.5t-39 13.5q-38 13 -59 23t-47 27.5t-38 42.5t-12 58q0 67 49 110t132 43q85 0 128.5 -34.5t55.5 -77.5q-16 -14 -55 -14q-5 15 -11 26t-20 28.5t-39.5 27.5
t-59.5 10q-57 0 -88.5 -29t-31.5 -84q0 -20 9.5 -37t19.5 -27.5t35 -22t38 -16.5t45 -16q30 -11 48 -18t42.5 -21.5t38 -29.5t23.5 -39.5t10 -53.5q0 -70 -50.5 -116.5t-145.5 -46.5q-157 0 -200 124zM141 632l83 132q12 4 36 4q23 0 37 -4l83 -132q-4 -3 -18 -3
q-10 0 -16 3l-85 102h-2l-84 -102q-6 -3 -17 -3q-12 0 -17 3z" />
    <glyph glyph-name="scaron.small" horiz-adv-x="500" 
d="M46 114q17 15 56 17q37 -107 147 -107q62 0 97 32.5t35 89.5q0 20 -5 36t-18.5 29t-23 21t-33.5 18t-33 13.5t-39 13.5q-38 13 -59 23t-47 27.5t-38 42.5t-12 58q0 67 49 110t132 43q85 0 128.5 -34.5t55.5 -77.5q-16 -14 -55 -14q-5 15 -11 26t-20 28.5t-39.5 27.5
t-59.5 10q-57 0 -88.5 -29t-31.5 -84q0 -20 9.5 -37t19.5 -27.5t35 -22t38 -16.5t45 -16q30 -11 48 -18t42.5 -21.5t38 -29.5t23.5 -39.5t10 -53.5q0 -70 -50.5 -116.5t-145.5 -46.5q-157 0 -200 124zM224 636l-83 132q5 3 17 3q11 0 17 -3l84 -102h2l85 102q6 3 17 3
q13 0 17 -3l-83 -132q-10 -3 -36 -3q-27 0 -37 3z" />
    <glyph glyph-name="scedilla.small" horiz-adv-x="500" 
d="M170 -191l6 21q22 -16 57 -16q53 0 53 45q0 27 -20 38.5t-65 20.5l22 73q-139 10 -177 123q17 15 56 17q37 -107 147 -107q62 0 97 32.5t35 89.5q0 20 -5 36t-18.5 29t-23 21t-33.5 18t-33 13.5t-39 13.5q-38 13 -59 23t-47 27.5t-38 42.5t-12 58q0 67 49 110t132 43
q85 0 128.5 -34.5t55.5 -77.5q-16 -14 -55 -14q-5 15 -11 26t-20 28.5t-39.5 27.5t-59.5 10q-57 0 -88.5 -29t-31.5 -84q0 -20 9.5 -37t19.5 -27.5t35 -22t38 -16.5t45 -16q30 -11 48 -18t42.5 -21.5t38 -29.5t23.5 -39.5t10 -53.5q0 -69 -48 -115t-140 -48l-15 -48
q90 -17 90 -79q0 -38 -24.5 -57t-62.5 -19q-50 0 -72 22z" />
    <glyph glyph-name="scommaaccent.small" horiz-adv-x="500" 
d="M46 114q17 15 56 17q37 -107 147 -107q62 0 97 32.5t35 89.5q0 20 -5 36t-18.5 29t-23 21t-33.5 18t-33 13.5t-39 13.5q-38 13 -59 23t-47 27.5t-38 42.5t-12 58q0 67 49 110t132 43q85 0 128.5 -34.5t55.5 -77.5q-16 -14 -55 -14q-5 15 -11 26t-20 28.5t-39.5 27.5
t-59.5 10q-57 0 -88.5 -29t-31.5 -84q0 -20 9.5 -37t19.5 -27.5t35 -22t38 -16.5t45 -16q30 -11 48 -18t42.5 -21.5t38 -29.5t23.5 -39.5t10 -53.5q0 -70 -50.5 -116.5t-145.5 -46.5q-157 0 -200 124zM209 -207q19 14 31.5 36.5t13.5 41.5q-17 0 -28.5 10.5t-11.5 26.5
t10.5 26t27.5 10q41 0 41 -44t-22 -77t-43 -40q-5 0 -11.5 3.5t-7.5 6.5z" />
    <glyph glyph-name="germandbls.small" horiz-adv-x="987" 
d="M46 114q17 15 56 17q37 -107 147 -107q62 0 97 32.5t35 89.5q0 20 -5 36t-18.5 29t-23 21t-33.5 18t-33 13.5t-39 13.5q-38 13 -59 23t-47 27.5t-38 42.5t-12 58q0 67 49 110t132 43q85 0 128.5 -34.5t55.5 -77.5q-16 -14 -55 -14q-5 15 -11 26t-20 28.5t-39.5 27.5
t-59.5 10q-57 0 -88.5 -29t-31.5 -84q0 -20 9.5 -37t19.5 -27.5t35 -22t38 -16.5t45 -16q30 -11 48 -18t42.5 -21.5t38 -29.5t23.5 -39.5t10 -53.5q0 -70 -50.5 -116.5t-145.5 -46.5q-157 0 -200 124zM534 114q17 15 56 17q37 -107 147 -107q62 0 97 32.5t35 89.5
q0 20 -5 36t-18.5 29t-23 21t-33.5 18t-33 13.5t-39 13.5q-38 13 -59 23t-47 27.5t-38 42.5t-12 58q0 67 49 110t132 43q85 0 128.5 -34.5t55.5 -77.5q-16 -14 -55 -14q-5 15 -11 26t-20 28.5t-39.5 27.5t-59.5 10q-57 0 -88.5 -29t-31.5 -84q0 -20 9.5 -37t19.5 -27.5
t35 -22t38 -16.5t45 -16q30 -11 48 -18t42.5 -21.5t38 -29.5t23.5 -39.5t10 -53.5q0 -70 -50.5 -116.5t-145.5 -46.5q-157 0 -200 124z" />
    <glyph glyph-name="tcaron.small" horiz-adv-x="455" 
d="M197 0v532h-167v39h395v-39h-167v-532h-61zM192 636l-83 132q4 3 17 3q11 0 17 -3l84 -102h2l85 102q6 3 17 3q13 0 17 -3l-83 -132q-11 -3 -36 -3q-27 0 -37 3z" />
    <glyph glyph-name="tcommaaccent.small" horiz-adv-x="455" 
d="M156 -191l6 21q22 -16 57 -16q53 0 53 45q0 27 -20 38.5t-65 20.5l25 82h-15v532h-167v39h395v-39h-167v-532h-15l-18 -58q90 -17 90 -79q0 -38 -24.5 -57t-62.5 -19q-50 0 -72 22z" />
    <glyph glyph-name="uni021B.small" horiz-adv-x="455" 
d="M197 0v532h-167v39h395v-39h-167v-532h-61zM183 -207q19 14 31.5 36.5t13.5 41.5q-17 0 -28.5 10.5t-11.5 26.5t10.5 26t27.5 10q41 0 41 -44t-22 -77t-43 -40q-5 0 -11.5 3.5t-7.5 6.5z" />
    <glyph glyph-name="tbar.small" horiz-adv-x="455" 
d="M197 0v295h-99v39h99v198h-167v39h395v-39h-167v-198h99v-39h-99v-295h-61z" />
    <glyph glyph-name="ugrave.small" horiz-adv-x="611" 
d="M85 229v342h61v-342q0 -105 41.5 -151.5t123.5 -46.5q81 0 122.5 46.5t41.5 153.5v340h51v-341q0 -121 -52.5 -180.5t-169.5 -59.5q-118 0 -168.5 58.5t-50.5 180.5zM316 632l-101 132q12 4 36 4q22 0 38 -4l62 -132q-5 -3 -18 -3q-11 0 -17 3z" />
    <glyph glyph-name="uacute.small" horiz-adv-x="611" 
d="M85 229v342h61v-342q0 -105 41.5 -151.5t123.5 -46.5q81 0 122.5 46.5t41.5 153.5v340h51v-341q0 -121 -52.5 -180.5t-169.5 -59.5q-118 0 -168.5 58.5t-50.5 180.5zM298 632l63 132q14 4 37 4q22 0 36 -4l-100 -132q-6 -3 -18 -3q-14 0 -18 3z" />
    <glyph glyph-name="ucircumflex.small" horiz-adv-x="611" 
d="M85 229v342h61v-342q0 -105 41.5 -151.5t123.5 -46.5q81 0 122.5 46.5t41.5 153.5v340h51v-341q0 -121 -52.5 -180.5t-169.5 -59.5q-118 0 -168.5 58.5t-50.5 180.5zM187 632l83 132q12 4 36 4q23 0 37 -4l83 -132q-4 -3 -18 -3q-10 0 -16 3l-85 102h-2l-84 -102
q-6 -3 -17 -3q-12 0 -17 3z" />
    <glyph glyph-name="utilde.small" horiz-adv-x="611" 
d="M85 229v342h61v-342q0 -105 41.5 -151.5t123.5 -46.5q81 0 122.5 46.5t41.5 153.5v340h51v-341q0 -121 -52.5 -180.5t-169.5 -59.5q-118 0 -168.5 58.5t-50.5 180.5zM152 652q21 60 44 78.5t53 18.5q27 0 65 -29.5t58 -29.5q37 0 62 57q3 1 15 1q10 0 13 -1
q-21 -58 -42 -77t-46 -19q-31 0 -70.5 29.5t-62.5 29.5q-19 0 -35.5 -18t-25.5 -40q-6 -2 -13 -2q-9 0 -15 2z" />
    <glyph glyph-name="udieresis.small" horiz-adv-x="611" 
d="M85 229v342h61v-342q0 -105 41.5 -151.5t123.5 -46.5q81 0 122.5 46.5t41.5 153.5v340h51v-341q0 -121 -52.5 -180.5t-169.5 -59.5q-118 0 -168.5 58.5t-50.5 180.5zM184 696q0 16 10.5 26.5t26.5 10.5t26.5 -10.5t10.5 -26.5t-10 -26.5t-27 -10.5q-16 0 -26.5 10.5
t-10.5 26.5zM356 696q0 16 10.5 26.5t26.5 10.5t26.5 -10.5t10.5 -26.5t-10 -26.5t-27 -10.5q-16 0 -26.5 10.5t-10.5 26.5z" />
    <glyph glyph-name="umacron.small" horiz-adv-x="611" 
d="M85 229v342h61v-342q0 -105 41.5 -151.5t123.5 -46.5q81 0 122.5 46.5t41.5 153.5v340h51v-341q0 -121 -52.5 -180.5t-169.5 -59.5q-118 0 -168.5 58.5t-50.5 180.5zM177 671v39h259v-39h-259z" />
    <glyph glyph-name="ubreve.small" horiz-adv-x="611" 
d="M85 229v342h61v-342q0 -105 41.5 -151.5t123.5 -46.5q81 0 122.5 46.5t41.5 153.5v340h51v-341q0 -121 -52.5 -180.5t-169.5 -59.5q-118 0 -168.5 58.5t-50.5 180.5zM187 754q4 3 17 3q9 0 15 -3q16 -83 88 -83t88 83q5 3 14 3q13 0 17 -3q-5 -56 -35 -90.5t-84 -34.5
t-84 34t-36 91z" />
    <glyph glyph-name="uring.small" horiz-adv-x="611" 
d="M85 229v342h61v-342q0 -105 41.5 -151.5t123.5 -46.5q81 0 122.5 46.5t41.5 153.5v340h51v-341q0 -121 -52.5 -180.5t-169.5 -59.5q-118 0 -168.5 58.5t-50.5 180.5zM229 691q0 34 21.5 56t56.5 22t56.5 -22t21.5 -56t-21.5 -56t-56.5 -22t-56.5 22t-21.5 56zM307 638
q22 0 34 14.5t12 38.5t-12 38.5t-34 14.5q-45 0 -45 -53t45 -53z" />
    <glyph glyph-name="uhungarumlaut.small" horiz-adv-x="611" 
d="M85 229v342h61v-342q0 -105 41.5 -151.5t123.5 -46.5q81 0 122.5 46.5t41.5 153.5v340h51v-341q0 -121 -52.5 -180.5t-169.5 -59.5q-118 0 -168.5 58.5t-50.5 180.5zM228 632l43 132q14 4 35 4t35 -4l-78 -132q-6 -3 -17 -3q-14 0 -18 3zM353 632l59 132q14 4 37 4
q21 0 35 -4l-94 -132q-6 -3 -19 -3t-18 3z" />
    <glyph glyph-name="uogonek.small" horiz-adv-x="611" 
d="M430 -172l10 -18q-27 -27 -81 -27q-88 0 -88 72q0 77 87 139q-34 -4 -54 -4q-118 0 -168.5 58.5t-50.5 180.5v342h61v-342q0 -105 41.5 -151.5t123.5 -46.5q81 0 122.5 46.5t41.5 153.5v340h51v-341q0 -161 -92 -212q-55 -31 -84.5 -72t-29.5 -84q0 -48 56 -48
q33 0 54 14z" />
    <glyph glyph-name="wgrave.small" horiz-adv-x="814" 
d="M198 0l-162 566v5h62l86 -313q45 -161 51 -200h3q5 39 51 199l91 314h67l92 -316q42 -144 49 -196h4q3 27 50 196l86 316h52v-5l-163 -566h-63l-89 300q-46 157 -54 208h-3q-12 -63 -56 -208l-90 -300h-64zM400 632l-101 132q12 4 36 4q22 0 38 -4l62 -132q-5 -3 -18 -3
q-11 0 -17 3z" />
    <glyph glyph-name="wacute.small" horiz-adv-x="814" 
d="M198 0l-162 566v5h62l86 -313q45 -161 51 -200h3q5 39 51 199l91 314h67l92 -316q42 -144 49 -196h4q3 27 50 196l86 316h52v-5l-163 -566h-63l-89 300q-46 157 -54 208h-3q-12 -63 -56 -208l-90 -300h-64zM391 632l63 132q14 4 37 4q22 0 36 -4l-100 -132q-6 -3 -18 -3
q-14 0 -18 3z" />
    <glyph glyph-name="wcircumflex.small" horiz-adv-x="814" 
d="M198 0l-162 566v5h62l86 -313q45 -161 51 -200h3q5 39 51 199l91 314h67l92 -316q42 -144 49 -196h4q3 27 50 196l86 316h52v-5l-163 -566h-63l-89 300q-46 157 -54 208h-3q-12 -63 -56 -208l-90 -300h-64zM292 632l83 132q12 4 36 4q23 0 37 -4l83 -132q-5 -3 -18 -3
q-10 0 -16 3l-85 102h-2l-84 -102q-6 -3 -17 -3q-13 0 -17 3z" />
    <glyph glyph-name="wdieresis.small" horiz-adv-x="814" 
d="M198 0l-162 566v5h62l86 -313q45 -161 51 -200h3q5 39 51 199l91 314h67l92 -316q42 -144 49 -196h4q3 27 50 196l86 316h52v-5l-163 -566h-63l-89 300q-46 157 -54 208h-3q-12 -63 -56 -208l-90 -300h-64zM287 696q0 16 10.5 26.5t26.5 10.5t26.5 -10.5t10.5 -26.5
t-10.5 -26.5t-26.5 -10.5t-26.5 10.5t-10.5 26.5zM459 696q0 16 10.5 26.5t26.5 10.5t26.5 -10.5t10.5 -26.5t-10.5 -26.5t-26.5 -10.5t-26.5 10.5t-10.5 26.5z" />
    <glyph glyph-name="uni1E8B.small" horiz-adv-x="528" 
d="M36 0v5l194 285l-183 276v5h65l156 -243l162 243h50v-5l-182 -270l193 -291v-5h-64l-167 256l-173 -256h-51zM233 697q0 16 11 26.5t28 10.5t27.5 -10.5t10.5 -26.5q0 -17 -10.5 -27.5t-27.5 -10.5t-28 10.5t-11 27.5z" />
    <glyph glyph-name="ygrave.small" horiz-adv-x="503" 
d="M221 0v217l-187 349v5h64l159 -306h2l160 306h51v-5l-188 -349v-217h-61zM255 632l-101 132q12 4 36 4q22 0 38 -4l62 -132q-4 -3 -18 -3q-11 0 -17 3z" />
    <glyph glyph-name="yacute.small" horiz-adv-x="503" 
d="M221 0v217l-187 349v5h64l159 -306h2l160 306h51v-5l-188 -349v-217h-61zM240 632l63 132q14 4 37 4q22 0 36 -4l-100 -132q-6 -3 -18 -3q-14 0 -18 3z" />
    <glyph glyph-name="ycircumflex.small" horiz-adv-x="503" 
d="M221 0v217l-187 349v5h64l159 -306h2l160 306h51v-5l-188 -349v-217h-61zM141 632l83 132q12 4 36 4q23 0 37 -4l83 -132q-4 -3 -18 -3q-10 0 -16 3l-85 102h-2l-84 -102q-6 -3 -17 -3q-12 0 -17 3z" />
    <glyph glyph-name="ydieresis.small" horiz-adv-x="503" 
d="M221 0v217l-187 349v5h64l159 -306h2l160 306h51v-5l-188 -349v-217h-61zM131 696q0 16 10.5 26.5t26.5 10.5t26.5 -10.5t10.5 -26.5t-10.5 -26.5t-26.5 -10.5t-26.5 10.5t-10.5 26.5zM303 696q0 16 10.5 26.5t26.5 10.5t26.5 -10.5t10.5 -26.5t-10.5 -26.5t-26.5 -10.5
t-26.5 10.5t-10.5 26.5z" />
    <glyph glyph-name="zacute.small" horiz-adv-x="527" 
d="M51 0v22l347 510h-330v39h408v-22l-346 -510h343v-39h-422zM244 632l63 132q14 4 37 4q22 0 36 -4l-100 -132q-6 -3 -18 -3q-14 0 -18 3z" />
    <glyph glyph-name="zcaron.small" horiz-adv-x="527" 
d="M51 0v22l347 510h-330v39h408v-22l-346 -510h343v-39h-422zM247 636l-83 132q5 3 17 3q11 0 17 -3l84 -102h2l85 102q6 3 17 3q12 0 17 -3l-83 -132q-10 -3 -36 -3t-37 3z" />
    <glyph glyph-name="zdotaccent.small" horiz-adv-x="527" 
d="M51 0v22l347 510h-330v39h408v-22l-346 -510h343v-39h-422zM236 697q0 16 11 26.5t28 10.5t27.5 -10.5t10.5 -26.5q0 -17 -10.5 -27.5t-27.5 -10.5t-28 10.5t-11 27.5z" />
    <glyph glyph-name="uni01B6.small" horiz-adv-x="527" 
d="M51 0v22l172 253h-155v39h181l149 218h-330v39h408v-22l-160 -235h160v-39h-186l-160 -236h343v-39h-422z" />
    <glyph glyph-name="eng.small" horiz-adv-x="625" 
d="M88 0v571h70l218 -318q80 -116 110 -174h3q-3 62 -3 155v337h52v-641q0 -74 -28.5 -103.5t-93.5 -29.5q-27 0 -47 5q-2 6 -2 15q0 15 3 22q18 -6 42 -6q43 0 58 23.5t15 79.5v64h-7l-228 334q-86 125 -111 175h-3q3 -48 3 -164v-345h-51z" />
    <glyph glyph-name="eth.small" horiz-adv-x="594" 
d="M108 0v272h-68v37h68v262h142q285 0 285 -285q0 -137 -69.5 -211.5t-214.5 -74.5h-143zM169 34h80q112 0 164.5 63t52.5 189t-52 188.5t-164 62.5h-81v-228h160v-37h-160v-238z" />
    <glyph glyph-name="thorn.small" horiz-adv-x="499" 
d="M88 0v571h61v-105h60q230 0 230 -169q0 -168 -230 -168h-60v-129h-61zM149 164h58q87 0 126 32.5t39 100.5q0 69 -39 101.5t-126 32.5h-58v-267z" />
    <glyph glyph-name="uni0259.small" horiz-adv-x="606" 
d="M61 275h414v1q0 270 -188 270q-118 0 -157 -113q-42 5 -57 17q59 130 216 130q132 0 194.5 -82t62.5 -219q0 -130 -64.5 -209.5t-188.5 -79.5q-116 0 -174.5 69.5t-58.5 175.5q0 25 1 40zM474 241h-345q0 -218 165 -218q166 0 180 218z" />
    <glyph glyph-name="i.TRK" horiz-adv-x="214" 
d="M77 0v502q26 0 60 5v-401q0 -94 6 -106h-66zM68 645q0 17 11 27.5t28 10.5q18 0 28.5 -10.5t10.5 -27.5q0 -16 -10.5 -27t-28.5 -11q-17 0 -28 11t-11 27z" />
    <glyph glyph-name="grave.cap" horiz-adv-x="241" 
d="M149 752l-93 112q9 3 36 3q26 0 38 -3l55 -112q-6 -4 -18 -4q-10 0 -18 4z" />
    <glyph glyph-name="grave.small" horiz-adv-x="248" 
d="M157 632l-101 132q12 4 36 4q22 0 38 -4l62 -132q-4 -3 -18 -3q-11 0 -17 3z" />
    <glyph glyph-name="acute.cap" horiz-adv-x="241" 
d="M56 752l55 112q10 3 38 3q25 0 36 -3l-93 -112q-8 -4 -18 -4q-12 0 -18 4z" />
    <glyph glyph-name="acute.small" horiz-adv-x="248" 
d="M56 632l63 132q14 4 37 4q22 0 36 -4l-100 -132q-6 -3 -18 -3q-14 0 -18 3z" />
    <glyph glyph-name="circumflex.cap" horiz-adv-x="328" 
d="M46 750l81 114q11 3 37 3t37 -3l81 -114q-4 -3 -17 -3q-11 0 -17 3l-83 81h-2l-83 -81q-6 -3 -17 -3q-13 0 -17 3z" />
    <glyph glyph-name="circumflex.small" horiz-adv-x="351" 
d="M56 632l83 132q12 4 36 4q23 0 37 -4l83 -132q-5 -3 -18 -3q-10 0 -16 3l-85 102h-2l-84 -102q-6 -3 -17 -3q-13 0 -17 3z" />
    <glyph glyph-name="caron.cap" horiz-adv-x="328" 
d="M127 751l-81 113q4 3 17 3q11 0 17 -3l83 -80h2l83 80q6 3 17 3q13 0 17 -3l-81 -113q-10 -3 -37 -3q-26 0 -37 3z" />
    <glyph glyph-name="caron.alt" horiz-adv-x="191" 
d="M57 562q18 13 29 36.5t12 43.5q-15 0 -25.5 9.5t-10.5 25.5q0 35 34 35q39 0 39 -44q0 -45 -19.5 -78.5t-39.5 -41.5q-6 0 -12 4.5t-7 9.5z" />
    <glyph glyph-name="caron.small" horiz-adv-x="351" 
d="M139 636l-83 132q5 3 17 3q11 0 17 -3l84 -102h2l85 102q6 3 17 3q12 0 17 -3l-83 -132q-11 -3 -36 -3q-26 0 -37 3z" />
    <glyph glyph-name="commaaccent" horiz-adv-x="238" 
d="M78 -207q19 14 31.5 36.5t13.5 41.5q-17 0 -28.5 10.5t-11.5 26.5t10.5 26t27.5 10q41 0 41 -44t-22 -77t-43 -40q-5 0 -11.5 3.5t-7.5 6.5z" />
    <glyph glyph-name="commaaccent.alt" horiz-adv-x="238" 
d="M141 750q15 0 20 -12q-19 -14 -32 -36.5t-14 -41.5q18 -1 29 -11t11 -26t-10 -26.5t-27 -10.5q-20 0 -31 12.5t-11 32.5q0 44 22 78t43 41z" />
    <glyph glyph-name="tilde.cap" horiz-adv-x="422" 
d="M57 763q21 59 44 77.5t53 18.5q27 0 65 -29.5t58 -29.5q35 0 62 58q3 1 15 1q10 0 13 -1q-22 -58 -43 -77.5t-46 -19.5q-30 0 -69.5 29.5t-62.5 29.5q-19 0 -35.5 -17.5t-25.5 -39.5q-6 -2 -13 -2q-9 0 -15 2z" />
    <glyph glyph-name="tilde.small" horiz-adv-x="422" 
d="M56 652q21 60 44 78.5t53 18.5q27 0 65 -29.5t58 -29.5q37 0 62 57q3 1 15 1q10 0 13 -1q-21 -58 -42 -77t-46 -19q-31 0 -70.5 29.5t-62.5 29.5q-19 0 -35.5 -18t-25.5 -40q-6 -2 -13 -2q-9 0 -15 2z" />
    <glyph glyph-name="dieresis.cap" horiz-adv-x="378" 
d="M93 758q-16 0 -26.5 11t-10.5 27t10.5 26t26.5 10t26.5 -10t10.5 -26q0 -17 -10.5 -27.5t-26.5 -10.5zM284 758q-16 0 -26.5 11t-10.5 27t10.5 26t26.5 10q17 0 27.5 -10t10.5 -26t-11 -27t-27 -11z" />
    <glyph glyph-name="dieresis.small" horiz-adv-x="358" 
d="M56 696q0 16 10.5 26.5t26.5 10.5t26.5 -10.5t10.5 -26.5t-10 -26.5t-27 -10.5q-16 0 -26.5 10.5t-10.5 26.5zM228 696q0 16 10.5 26.5t26.5 10.5t26.5 -10.5t10.5 -26.5t-10 -26.5t-27 -10.5q-16 0 -26.5 10.5t-10.5 26.5z" />
    <glyph glyph-name="macron.cap" horiz-adv-x="371" 
d="M56 780v39h259v-39h-259z" />
    <glyph glyph-name="macron.small" horiz-adv-x="371" 
d="M56 671v39h259v-39h-259z" />
    <glyph glyph-name="breve.cap" horiz-adv-x="351" 
d="M56 867q9 3 16 3q10 0 16 -3q14 -74 88 -74t88 74q6 3 15 3q7 0 16 -3q-5 -54 -35.5 -84.5t-83.5 -30.5t-84 30.5t-36 84.5z" />
    <glyph glyph-name="breve.small" horiz-adv-x="351" 
d="M56 754q5 3 17 3q9 0 15 -3q16 -83 88 -83t88 83q4 3 14 3q12 0 17 -3q-5 -56 -35 -90.5t-84 -34.5t-84 34t-36 91z" />
    <glyph glyph-name="ring.cap" horiz-adv-x="268" 
d="M56 804q0 34 21.5 55.5t56.5 21.5q36 0 57 -21.5t21 -55.5t-21.5 -56t-56.5 -22t-56.5 22t-21.5 56zM134 751q22 0 34 14.5t12 38.5t-12 38.5t-34 14.5q-45 0 -45 -53t45 -53z" />
    <glyph glyph-name="ring.small" horiz-adv-x="268" 
d="M56 691q0 34 21.5 56t56.5 22t56.5 -22t21.5 -56t-21.5 -56t-56.5 -22t-56.5 22t-21.5 56zM134 638q22 0 34 14.5t12 38.5t-12 38.5t-34 14.5q-45 0 -45 -53t45 -53z" />
    <glyph glyph-name="hungarumlaut.cap" horiz-adv-x="372" 
d="M56 752l37 112q14 4 36 4q20 0 34 -4l-72 -112q-8 -4 -18 -4q-11 0 -17 4zM190 752l54 112q14 4 37 4q21 0 35 -4l-88 -112q-8 -4 -19 -4q-13 0 -19 4z" />
    <glyph glyph-name="hungarumlaut.small" horiz-adv-x="368" 
d="M56 632l43 132q14 4 35 4t35 -4l-78 -132q-6 -3 -17 -3q-14 0 -18 3zM181 632l59 132q14 4 37 4q21 0 35 -4l-94 -132q-6 -3 -19 -3t-18 3z" />
    <glyph glyph-name="dotaccent.cap" horiz-adv-x="241" 
d="M120 769q-16 0 -26.5 10.5t-10.5 26.5t10.5 26t26.5 10q17 0 27.5 -10t10.5 -26t-10.5 -26.5t-27.5 -10.5z" />
    <glyph glyph-name="dotaccent.small" horiz-adv-x="189" 
d="M56 697q0 16 11 26.5t28 10.5t27.5 -10.5t10.5 -26.5q0 -17 -10.5 -27.5t-27.5 -10.5t-28 10.5t-11 27.5z" />
    <glyph glyph-name="hyphen.cap" horiz-adv-x="375" 
d="M59 334v50h256v-50h-256z" />
    <glyph glyph-name="exclamdown.cap" horiz-adv-x="242" 
d="M129 556l13 -553q-9 -6 -33 -6q-25 0 -32 6l13 553h39zM109 708q17 0 28 -11.5t11 -27.5q0 -17 -11 -28t-28 -11t-28 11t-11 28q0 16 11 27.5t28 11.5z" />
    <glyph glyph-name="questiondown.cap" horiz-adv-x="460" 
d="M284 558v-39q0 -39 -11 -69.5t-28 -51t-38 -38t-42 -35.5t-38 -38t-28 -50.5t-11 -68.5q0 -63 31.5 -100t98.5 -37q115 0 144 117q40 -2 53 -18q-17 -56 -64.5 -95t-134.5 -39q-96 0 -145 50.5t-49 119.5q0 54 21.5 95.5t52.5 67.5t62.5 51t55.5 62t27 84l2 32h41z
M263 713q17 0 27.5 -11.5t10.5 -27.5q0 -17 -10.5 -28t-27.5 -11t-28 11t-11 28q0 16 11 27.5t28 11.5z" />
    <glyph glyph-name="endash.cap" horiz-adv-x="575" 
d="M59 334v50h456v-50h-456z" />
    <glyph glyph-name="emdash.cap" horiz-adv-x="795" 
d="M59 334v50h676v-50h-676z" />
    <glyph glyph-name="parenleft.cap" horiz-adv-x="420" 
d="M366 -91v-32q-134 7 -206 131.5t-72 326.5q0 201 72 325t206 131v-32q-71 -5 -119.5 -64.5t-70 -151t-21.5 -209.5t21.5 -209.5t70.5 -151t119 -64.5z" />
    <glyph glyph-name="parenright.cap" horiz-adv-x="420" 
d="M54 -123v32q70 5 119 64.5t70.5 151t21.5 209.5t-21.5 209.5t-70 151t-119.5 64.5v32q134 -7 206 -131t72 -325q0 -202 -72 -326.5t-206 -131.5z" />
    <glyph glyph-name="bracketleft.cap" horiz-adv-x="381" 
d="M115 -110v890h212v-32h-150v-826h150v-32h-212z" />
    <glyph glyph-name="bracketright.cap" horiz-adv-x="381" 
d="M54 -110v32h150v826h-150v32h212v-890h-212z" />
    <glyph glyph-name="braceleft.cap" horiz-adv-x="390" 
d="M336 -92v-30q-109 0 -140.5 38t-31.5 164q0 110 -13.5 160t-59.5 77v34q46 27 59.5 77t13.5 160q0 126 31.5 164t140.5 38v-30q-33 -1 -49.5 -4t-31.5 -11.5t-20.5 -28.5t-8.5 -49.5t-3 -80.5q0 -103 -15.5 -163.5t-57.5 -88.5q42 -28 57.5 -88.5t15.5 -163.5
q0 -42 1.5 -69t7 -47t11.5 -30t21 -16.5t29.5 -8.5t42.5 -3z" />
    <glyph glyph-name="braceright.cap" horiz-adv-x="390" 
d="M54 -121v30q41 2 59.5 6t33 22.5t17.5 50t3 95.5q0 103 15.5 163.5t58.5 88.5q-43 28 -58.5 88.5t-15.5 163.5q0 64 -3 96t-17.5 50.5t-33 22.5t-59.5 5v30q109 0 140.5 -38t31.5 -164q0 -109 13.5 -159.5t60.5 -77.5v-34q-47 -27 -60.5 -77.5t-13.5 -159.5
q0 -126 -31.5 -164t-140.5 -38z" />
    <glyph glyph-name="at.cap" horiz-adv-x="996" 
d="M675 -63v-3q-74 -34 -179 -34q-193 0 -308 125.5t-115 311.5q0 122 50 220.5t148 158t227 59.5q194 0 309 -106t115 -265q0 -139 -69 -227.5t-167 -88.5q-87 0 -103 67q-67 -65 -158 -65q-76 0 -113.5 45.5t-37.5 125.5q0 52 14 105t41.5 101t76 78.5t110.5 30.5
q77 0 122 -52l7 42q20 0 57 7l-58 -328q-7 -42 -7 -63q0 -67 56 -67q80 0 130 81.5t50 207.5q0 149 -102 242.5t-273 93.5q-170 0 -272.5 -113t-102.5 -289q0 -181 100 -292t277 -111q98 0 167 31q8 -10 8 -29zM580 182v9q0 20 5 52l44 254q-34 45 -109 45q-49 0 -86 -28.5
t-56.5 -74t-29 -91.5t-9.5 -90q0 -135 104 -135q81 0 137 59z" />
    <glyph glyph-name="registered.alt" horiz-adv-x="810" 
d="M405 -12q-154 0 -257.5 105.5t-103.5 256.5t103.5 256.5t257.5 105.5q153 0 256.5 -105.5t103.5 -256.5t-103.5 -256.5t-256.5 -105.5zM405 23q141 0 230.5 94t89.5 233t-89.5 233t-230.5 94t-231 -94t-90 -233t90 -233t231 -94zM285 122v466h89q91 0 136.5 -34.5
t45.5 -95.5q0 -108 -124 -132q24 -10 41 -39l95 -161v-4h-52l-72 135q-25 45 -40.5 54t-72.5 9v-198h-46zM331 348h43q67 0 98.5 25t31.5 81t-30.5 80t-99.5 24h-43v-210z" />
    <glyph glyph-name="zero.oldstyle" horiz-adv-x="585" 
d="M293 -11q-119 0 -182.5 80.5t-63.5 216.5q0 137 63.5 216.5t182.5 79.5t182 -79.5t63 -216.5q0 -136 -63.5 -216.5t-181.5 -80.5zM293 22q176 0 176 264q0 263 -176 263q-177 0 -177 -264q0 -263 177 -263z" />
    <glyph glyph-name="one.oldstyle" horiz-adv-x="435" 
d="M58 0v37h139v483l-139 -40v36q7 2 38.5 12.5t70 24t53.5 18.5h39v-534h129v-37h-330z" />
    <glyph glyph-name="two.oldstyle" horiz-adv-x="543" 
d="M43 0v36q20 17 71 49.5t97 65t93.5 73.5t76 90.5t28.5 99.5q0 60 -34 96.5t-103 36.5q-120 0 -163 -123q-41 0 -54 18q19 57 73 98.5t143 41.5q100 0 154 -47t54 -128q0 -44 -26 -90t-61.5 -81t-86.5 -72t-85 -58t-74 -43q-13 -7 -18 -10v-2h370v-51h-455z" />
    <glyph glyph-name="three.oldstyle" horiz-adv-x="527" 
d="M171 229v36h31q179 0 179 153q0 129 -139 129q-105 0 -148 -84q-37 6 -49 22q23 42 73 69.5t126 27.5q96 0 150.5 -44.5t54.5 -122.5q0 -68 -40 -108.5t-101 -54.5v-2q69 -11 114 -52t45 -119q0 -90 -61 -144t-165 -54q-81 0 -135 29t-74 68q13 18 49 26q49 -88 159 -88
q76 0 117 43.5t41 115.5q0 74 -46 114t-151 40h-30z" />
    <glyph glyph-name="four.oldstyle" horiz-adv-x="561" 
d="M37 67v41l329 463h69v-459h85v-45h-85v-172h-62v172h-336zM91 112h282v202q0 159 1 201h-2q-28 -50 -122 -180z" />
    <glyph glyph-name="five.oldstyle" horiz-adv-x="525" 
d="M65 228l12 343h377v-51h-336l-9 -250q53 45 151 45q106 0 162 -58t56 -151q0 -103 -63 -163t-170 -60q-74 0 -127 28.5t-74 69.5q15 17 49 26q18 -37 57.5 -63t96.5 -26q77 0 119.5 48t42.5 133q0 75 -37 125.5t-121 50.5q-90 0 -142 -47h-44z" />
    <glyph glyph-name="six.oldstyle" horiz-adv-x="571" 
d="M131 330q27 33 77 56t108 23q103 0 153 -57.5t50 -143.5q0 -94 -57.5 -157t-161.5 -63q-116 0 -177 89.5t-61 247.5q0 170 64 267t184 97q68 0 120.5 -34.5t77.5 -105.5q-19 -17 -59 -19q-37 125 -141 125q-84 0 -130 -80.5t-47 -244.5zM131 290q5 -137 46.5 -202.5
t125.5 -65.5q78 0 113.5 50.5t35.5 129.5q0 82 -37 126.5t-112 44.5q-106 0 -172 -83z" />
    <glyph glyph-name="seven.oldstyle" horiz-adv-x="487" 
d="M120 -105v5l299 620h-388v51h434v-44l-276 -632h-69z" />
    <glyph glyph-name="eight.oldstyle" horiz-adv-x="553" 
d="M197 359v2q-58 17 -89.5 57.5t-31.5 97.5q0 76 54.5 124.5t146.5 48.5t145.5 -48t53.5 -124q0 -57 -31.5 -98t-88.5 -58v-2q70 -18 108 -63t38 -113q0 -88 -59 -141.5t-167 -53.5q-107 0 -166.5 54t-59.5 141q0 68 38 113t109 63zM276 22q76 0 116.5 41.5t40.5 118.5
q0 78 -41 119t-116 41t-116 -41.5t-41 -118.5q0 -78 41 -119t116 -41zM276 376q63 0 99 38t36 105q0 65 -35 100.5t-100 35.5q-64 0 -99.5 -35.5t-35.5 -99.5q0 -67 36 -105.5t99 -38.5z" />
    <glyph glyph-name="nine.oldstyle" horiz-adv-x="571" 
d="M122 36q37 -121 143 -121q170 0 174 313q-27 -34 -76 -56.5t-108 -22.5q-99 0 -150.5 62t-51.5 149q0 93 57 157.5t161 64.5q121 0 179.5 -91.5t58.5 -249.5q0 -167 -64 -263.5t-183 -96.5q-148 0 -198 137q22 16 58 18zM438 269q-2 138 -42 208.5t-126 70.5
q-76 0 -113 -50.5t-37 -131.5q0 -84 38 -132.5t112 -48.5q104 0 168 84z" />
    <glyph glyph-name="zero.taboldstyle" horiz-adv-x="580" 
d="M290 -11q-119 0 -182.5 80.5t-63.5 216.5q0 137 63.5 216.5t182.5 79.5t182 -79.5t63 -216.5q0 -136 -63.5 -216.5t-181.5 -80.5zM290 22q176 0 176 264q0 263 -176 263q-177 0 -177 -264q0 -263 177 -263z" />
    <glyph glyph-name="one.taboldstyle" horiz-adv-x="580" 
d="M135 0v37h139v483l-139 -40v36q7 2 38.5 12.5t70 24t53.5 18.5h39v-534h129v-37h-330z" />
    <glyph glyph-name="two.taboldstyle" horiz-adv-x="580" 
d="M62 0v36q20 17 71 49.5t97 65t93.5 73.5t76 90.5t28.5 99.5q0 60 -34 96.5t-103 36.5q-120 0 -163 -123q-40 0 -54 18q19 57 73 98.5t143 41.5q100 0 154 -47t54 -128q0 -44 -26 -90t-61.5 -81t-86.5 -72t-85 -58t-74 -43q-13 -7 -18 -10v-2h370v-51h-455z" />
    <glyph glyph-name="three.taboldstyle" horiz-adv-x="580" 
d="M203 229v36h31q179 0 179 153q0 129 -139 129q-105 0 -148 -84q-37 6 -49 22q23 42 73 69.5t126 27.5q96 0 150.5 -44.5t54.5 -122.5q0 -68 -40 -108.5t-101 -54.5v-2q69 -11 114 -52t45 -119q0 -90 -61 -144t-165 -54q-81 0 -135 29t-74 68q13 18 49 26q49 -88 159 -88
q76 0 117 43.5t41 115.5q0 74 -46 114t-151 40h-30z" />
    <glyph glyph-name="four.taboldstyle" horiz-adv-x="580" 
d="M46 67v41l329 463h69v-459h85v-45h-85v-172h-62v172h-336zM100 112h282v202q0 159 1 201h-2q-28 -50 -122 -180z" />
    <glyph glyph-name="five.taboldstyle" horiz-adv-x="580" 
d="M96 228l12 343h377v-51h-336l-9 -250q53 45 151 45q106 0 162 -58t56 -151q0 -103 -63 -163t-170 -60q-74 0 -127 28.5t-74 69.5q15 17 49 26q18 -37 57.5 -63t96.5 -26q77 0 119.5 48t42.5 133q0 75 -37 125.5t-121 50.5q-90 0 -142 -47h-44z" />
    <glyph glyph-name="six.taboldstyle" horiz-adv-x="580" 
d="M136 330q27 33 77 56t108 23q103 0 153 -57.5t50 -143.5q0 -94 -57.5 -157t-161.5 -63q-116 0 -177 89.5t-61 247.5q0 170 64 267t184 97q68 0 120.5 -34.5t77.5 -105.5q-19 -17 -59 -19q-37 125 -141 125q-84 0 -130 -80.5t-47 -244.5zM136 290q5 -137 46.5 -202.5
t125.5 -65.5q78 0 113.5 50.5t35.5 129.5q0 82 -37 126.5t-112 44.5q-106 0 -172 -83z" />
    <glyph glyph-name="seven.taboldstyle" horiz-adv-x="580" 
d="M164 -105v5l299 620h-388v51h434v-44l-276 -632h-69z" />
    <glyph glyph-name="eight.taboldstyle" horiz-adv-x="580" 
d="M211 359v2q-58 17 -89.5 57.5t-31.5 97.5q0 76 54.5 124.5t146.5 48.5t145.5 -48t53.5 -124q0 -57 -31.5 -98t-88.5 -58v-2q70 -18 108 -63t38 -113q0 -88 -59 -141.5t-167 -53.5q-107 0 -166.5 54t-59.5 141q0 68 38 113t109 63zM290 22q76 0 116.5 41.5t40.5 118.5
q0 78 -41 119t-116 41t-116 -41.5t-41 -118.5q0 -78 41 -119t116 -41zM290 376q63 0 99 38t36 105q0 65 -35 100.5t-100 35.5q-64 0 -99.5 -35.5t-35.5 -99.5q0 -67 36 -105.5t99 -38.5z" />
    <glyph glyph-name="nine.taboldstyle" horiz-adv-x="580" 
d="M126 36q37 -121 143 -121q170 0 174 313q-27 -34 -76 -56.5t-108 -22.5q-99 0 -150.5 62t-51.5 149q0 93 57 157.5t161 64.5q121 0 179.5 -91.5t58.5 -249.5q0 -167 -64 -263.5t-183 -96.5q-148 0 -198 137q22 16 58 18zM442 269q-2 138 -42 208.5t-126 70.5
q-76 0 -113 -50.5t-37 -131.5q0 -84 38 -132.5t112 -48.5q104 0 168 84z" />
    <glyph glyph-name="zero.tab" horiz-adv-x="580" 
d="M290 -12q-121 0 -183.5 94t-62.5 256t62.5 256.5t183.5 94.5q120 0 182.5 -94.5t62.5 -256.5t-63 -256t-182 -94zM290 22q92 0 134 80t42 236t-42 236t-134 80q-177 0 -177 -317q0 -315 177 -315z" />
    <glyph glyph-name="one.tab" horiz-adv-x="580" 
d="M136 0v37h139v588l-139 -40v36q7 2 38.5 12.5t70 24t53.5 18.5h39v-639h129v-37h-330z" />
    <glyph glyph-name="two.tab" horiz-adv-x="580" 
d="M55 0v36q10 9 48.5 39.5t59 48t59 52t61.5 60t52.5 62t45.5 68t28 69t12 73.5q0 67 -35 106.5t-106 39.5q-116 0 -159 -123q-41 0 -54 18q54 140 215 140q99 0 153.5 -50t54.5 -134q0 -61 -29 -122.5t-84.5 -120.5t-110.5 -106t-131 -103v-2h375v-51h-455z" />
    <glyph glyph-name="three.tab" horiz-adv-x="580" 
d="M204 336v36h31q179 0 179 153q0 129 -139 129q-105 0 -148 -84q-37 6 -49 22q23 42 73 69.5t126 27.5q96 0 150.5 -44.5t54.5 -122.5q0 -68 -40 -108.5t-101 -54.5v-2q69 -11 114 -52t45 -119q0 -90 -61 -144t-165 -54q-81 0 -135 29t-74 68q13 18 49 26q49 -88 159 -88
q76 0 117 43.5t41 115.5q0 74 -46 114t-151 40h-30z" />
    <glyph glyph-name="four.tab" horiz-adv-x="580" 
d="M48 172v41l329 463h69v-459h85v-45h-85v-172h-62v172h-336zM102 217h282v202q0 159 1 201h-2q-28 -50 -122 -180z" />
    <glyph glyph-name="five.tab" horiz-adv-x="580" 
d="M94 333l12 343h377v-51h-336l-9 -250q53 45 151 45q106 0 162 -58t56 -151q0 -103 -63 -163t-170 -60q-74 0 -127 28.5t-74 69.5q15 17 49 26q18 -37 57.5 -63t96.5 -26q77 0 119.5 48t42.5 133q0 75 -37 125.5t-121 50.5q-90 0 -142 -47h-44z" />
    <glyph glyph-name="six.tab" horiz-adv-x="580" 
d="M136 330q27 33 77 56t108 23q103 0 153 -57.5t50 -143.5q0 -94 -57.5 -157t-161.5 -63q-116 0 -177 89.5t-61 247.5q0 170 64 267t184 97q68 0 120.5 -34.5t77.5 -105.5q-19 -17 -59 -19q-37 125 -141 125q-84 0 -130 -80.5t-47 -244.5zM136 290q5 -137 46.5 -202.5
t125.5 -65.5q78 0 113.5 50.5t35.5 129.5q0 82 -37 126.5t-112 44.5q-106 0 -172 -83z" />
    <glyph glyph-name="seven.tab" horiz-adv-x="580" 
d="M164 0v5l299 620h-388v51h434v-44l-276 -632h-69z" />
    <glyph glyph-name="eight.tab" horiz-adv-x="580" 
d="M211 359v2q-58 17 -89.5 57.5t-31.5 97.5q0 76 54.5 124.5t146.5 48.5t145.5 -48t53.5 -124q0 -57 -31.5 -98t-88.5 -58v-2q70 -18 108 -63t38 -113q0 -88 -59 -141.5t-167 -53.5q-107 0 -166.5 54t-59.5 141q0 68 38 113t109 63zM290 22q76 0 116.5 41.5t40.5 118.5
q0 78 -41 119t-116 41t-116 -41.5t-41 -118.5q0 -78 41 -119t116 -41zM290 376q63 0 99 38t36 105q0 65 -35 100.5t-100 35.5q-64 0 -99.5 -35.5t-35.5 -99.5q0 -67 36 -105.5t99 -38.5z" />
    <glyph glyph-name="nine.tab" horiz-adv-x="580" 
d="M126 143q37 -121 143 -121q170 0 174 313q-27 -34 -76 -56.5t-108 -22.5q-99 0 -150.5 62t-51.5 149q0 93 57 157.5t161 64.5q121 0 179.5 -91.5t58.5 -249.5q0 -167 -64 -263.5t-183 -96.5q-148 0 -198 137q22 16 58 18zM442 376q-2 138 -42 208.5t-126 70.5
q-76 0 -113 -50.5t-37 -131.5q0 -84 38 -132.5t112 -48.5q104 0 168 84z" />
    <glyph glyph-name="zero.cap" horiz-adv-x="585" 
d="M293 -12q-121 0 -183.5 97.5t-62.5 263.5q0 167 62.5 265t183.5 98t183 -97.5t62 -263.5q0 -167 -62.5 -265t-182.5 -98zM293 22q92 0 134 82.5t42 245.5q0 162 -42 244.5t-134 82.5q-177 0 -177 -329q0 -326 177 -326z" />
    <glyph glyph-name="one.cap" horiz-adv-x="434" 
d="M58 0v37h139v612l-139 -42v36q8 2 74.5 26t87.5 31h39v-663h129v-37h-330z" />
    <glyph glyph-name="two.cap" horiz-adv-x="543" 
d="M40 0v36q9 8 48.5 41t59 50t58.5 53.5t61.5 62t52.5 64t46 71t28 71.5t12 76q0 70 -35 111t-106 41q-116 0 -159 -127q-41 0 -54 19q53 143 215 143q99 0 153.5 -51.5t54.5 -138.5q0 -63 -29 -126.5t-84.5 -125t-110.5 -110.5t-131 -107v-2h375v-51h-455z" />
    <glyph glyph-name="three.cap" horiz-adv-x="527" 
d="M173 348v36h31q92 0 135.5 42.5t43.5 116.5q0 134 -139 134q-105 0 -148 -86q-37 6 -49 22q23 43 73 71t126 28q96 0 150.5 -46t54.5 -126q0 -71 -39.5 -112.5t-101.5 -56.5v-2q69 -11 114 -54t45 -123q0 -93 -60.5 -148.5t-165.5 -55.5q-81 0 -135 29.5t-74 69.5
q14 19 49 27q48 -91 159 -91q76 0 117 45t41 120q0 78 -46 119t-151 41h-30z" />
    <glyph glyph-name="four.cap" horiz-adv-x="561" 
d="M36 179v41l329 480h69v-475h85v-46h-85v-179h-62v179h-336zM90 225h282v210q0 165 1 210h-2q-23 -45 -122 -188z" />
    <glyph glyph-name="five.cap" horiz-adv-x="525" 
d="M65 345l12 355h377v-51h-336l-9 -261q55 46 151 46q106 0 162 -60t56 -156q0 -106 -63 -168t-170 -62q-74 0 -127 29t-74 71q14 16 49 27q18 -38 57 -65t97 -27q77 0 119.5 50t42.5 138q0 78 -37 130.5t-121 52.5q-47 0 -84.5 -15t-57.5 -34h-44z" />
    <glyph glyph-name="six.cap" horiz-adv-x="571" 
d="M133 341q26 34 76.5 58t108.5 24q103 0 153 -60t50 -148q0 -97 -57.5 -162t-161.5 -65q-116 0 -177 92t-61 256q0 176 64 276t184 100q68 0 120.5 -35.5t77.5 -108.5q-19 -17 -59 -19q-37 129 -141 129q-84 0 -130 -83.5t-47 -253.5zM133 300q5 -142 46.5 -210t125.5 -68
q78 0 113.5 52.5t35.5 134.5q0 85 -37 131.5t-112 46.5q-106 0 -172 -87z" />
    <glyph glyph-name="seven.cap" horiz-adv-x="487" 
d="M120 0v5l299 644h-388v51h434v-44l-276 -656h-69z" />
    <glyph glyph-name="eight.cap" horiz-adv-x="553" 
d="M197 371v2q-58 18 -89.5 60t-31.5 101q0 79 54.5 128.5t146.5 49.5t145.5 -49.5t53.5 -127.5q0 -59 -31.5 -101.5t-88.5 -60.5v-2q70 -19 108 -65.5t38 -116.5q0 -91 -59 -146t-167 -55t-167 55.5t-59 145.5q0 143 147 182zM276 22q76 0 116.5 43t40.5 123
q0 81 -41 123.5t-116 42.5t-116 -43t-41 -123q0 -81 41 -123.5t116 -42.5zM276 388q63 0 99 39.5t36 109.5q0 67 -35 104t-100 37q-64 0 -99.5 -36.5t-35.5 -103.5q0 -70 36 -110t99 -40z" />
    <glyph glyph-name="nine.cap" horiz-adv-x="571" 
d="M120 147q37 -125 143 -125q170 0 174 324q-28 -34 -76.5 -57.5t-107.5 -23.5q-99 0 -150.5 64.5t-51.5 153.5q0 96 57 162.5t161 66.5q121 0 179.5 -94t58.5 -258q0 -173 -64 -272.5t-183 -99.5q-148 0 -198 141q22 16 58 18zM436 388q-2 144 -41.5 217t-126.5 73
q-76 0 -113 -52t-37 -137q0 -87 38 -137.5t112 -50.5q104 0 168 87z" />
    <glyph glyph-name="zero.numerator" horiz-adv-x="400" 
d="M205 270q-78 0 -118 55.5t-40 151.5q0 95 40.5 150.5t117.5 55.5q78 0 117.5 -55t39.5 -151q0 -97 -40 -152t-117 -55zM205 297q98 0 98 180q0 178 -98 178q-97 0 -97 -178q0 -180 97 -180z" />
    <glyph glyph-name="one.numerator" horiz-adv-x="336" 
d="M83 277v29h81v327l-81 -19v31q5 1 23.5 6.5t43.5 13.5t33 11h35v-370h72v-29h-207z" />
    <glyph glyph-name="two.numerator" horiz-adv-x="377" 
d="M46 277v33q1 1 26.5 20t31.5 24t30.5 24.5t33.5 29t28 29t27.5 33.5t19.5 32.5t15.5 36t4.5 35.5q0 81 -76 81q-64 0 -87 -76q-35 2 -49 13q12 38 45 64.5t91 26.5q64 0 98 -30.5t34 -82.5q0 -62 -53.5 -121.5t-152.5 -127.5v-1h216v-43h-283z" />
    <glyph glyph-name="three.numerator" horiz-adv-x="357" 
d="M130 467v29h21q105 0 105 87q0 71 -77 71q-57 0 -82 -50q-28 4 -43 16q33 63 127 63q61 0 95.5 -25.5t34.5 -71.5q0 -43 -26 -68.5t-66 -33.5v-1q103 -14 103 -98q0 -54 -37.5 -84.5t-104.5 -30.5q-52 0 -86 18t-46 44q9 9 42 20q29 -53 89 -53q43 0 65 21.5t22 59.5
q0 87 -115 87h-21z" />
    <glyph glyph-name="four.numerator" horiz-adv-x="380" 
d="M44 377v38l194 261h55v-261h50v-38h-50v-100h-54v100h-195zM83 415h158v208h-3z" />
    <glyph glyph-name="five.numerator" horiz-adv-x="358" 
d="M58 468l7 208h238v-44h-205l-5 -132q38 26 94 26q65 0 99 -35t34 -91q0 -59 -39.5 -94.5t-104.5 -35.5q-50 0 -84 18t-47 45q14 12 42 18q29 -52 89 -52q42 0 65.5 26t23.5 71q0 44 -23 70.5t-66 26.5q-54 0 -81 -25h-37z" />
    <glyph glyph-name="six.numerator" horiz-adv-x="383" 
d="M115 478q39 41 107 41q62 0 92 -34t30 -84q0 -58 -35.5 -94.5t-104.5 -36.5q-70 0 -109.5 56t-39.5 151q0 94 39 150t112 56q97 0 128 -87q-16 -13 -51 -13q-20 72 -77 72q-91 0 -91 -177zM115 449q8 -152 89 -152q83 0 83 98q0 44 -20.5 69t-60.5 25q-57 0 -91 -40z" />
    <glyph glyph-name="seven.numerator" horiz-adv-x="343" 
d="M88 277v3l185 352h-235v44h274v-39l-163 -360h-61z" />
    <glyph glyph-name="eight.numerator" horiz-adv-x="376" 
d="M138 488v3q-35 9 -54 32.5t-19 57.5q0 45 34.5 73.5t93.5 28.5t93.5 -28.5t34.5 -73.5q0 -33 -19.5 -57t-54.5 -33v-3q43 -10 66 -37t23 -66q0 -53 -37 -84t-106 -31t-106.5 31t-37.5 84q0 81 89 103zM193 297q42 0 63.5 23.5t21.5 65.5q0 44 -22 67t-63 23t-63.5 -23.5
t-22.5 -66.5q0 -42 22 -65.5t64 -23.5zM193 502q34 0 54 21t20 57q0 75 -74 75t-74 -75q0 -36 19.5 -57t54.5 -21z" />
    <glyph glyph-name="nine.numerator" horiz-adv-x="383" 
d="M60 356q17 12 50 14q22 -73 77 -73q89 0 92 173q-39 -43 -106 -43q-63 0 -93 36t-30 87q0 57 35 95t103 38q71 0 110.5 -56t39.5 -149q0 -97 -39 -152.5t-112 -55.5q-95 0 -127 86zM278 499q-5 156 -90 156q-82 0 -82 -102q0 -44 21 -70.5t58 -26.5q58 0 93 43z" />
    <glyph glyph-name="zero.denominator" horiz-adv-x="400" 
d="M205 -7q-78 0 -118 55.5t-40 151.5q0 95 40.5 150.5t117.5 55.5q78 0 117.5 -55t39.5 -151q0 -97 -40 -152t-117 -55zM205 20q98 0 98 180q0 178 -98 178q-97 0 -97 -178q0 -180 97 -180z" />
    <glyph glyph-name="one.denominator" horiz-adv-x="336" 
d="M83 0v29h81v327l-81 -19v31q5 1 23.5 6.5t43.5 13.5t33 11h35v-370h72v-29h-207z" />
    <glyph glyph-name="two.denominator" horiz-adv-x="377" 
d="M46 0v33q1 1 26.5 20t31.5 24t30.5 24.5t33.5 29t28 29t27.5 33.5t19.5 32.5t15.5 36t4.5 35.5q0 81 -76 81q-64 0 -87 -76q-35 2 -49 13q12 38 45 64.5t91 26.5q64 0 98 -30.5t34 -82.5q0 -62 -53.5 -121.5t-152.5 -127.5v-1h216v-43h-283z" />
    <glyph glyph-name="three.denominator" horiz-adv-x="357" 
d="M130 190v29h21q105 0 105 87q0 71 -77 71q-57 0 -82 -50q-28 4 -43 16q33 63 127 63q61 0 95.5 -25.5t34.5 -71.5q0 -43 -26 -68.5t-66 -33.5v-1q103 -14 103 -98q0 -54 -37.5 -84.5t-104.5 -30.5q-52 0 -86 18t-46 44q9 9 42 20q29 -53 89 -53q43 0 65 22t22 59
q0 87 -115 87h-21z" />
    <glyph glyph-name="four.denominator" horiz-adv-x="380" 
d="M44 100v38l194 261h55v-261h50v-38h-50v-100h-54v100h-195zM83 138h158v208h-3z" />
    <glyph glyph-name="five.denominator" horiz-adv-x="358" 
d="M58 191l7 208h238v-44h-205l-5 -132q38 26 94 26q65 0 99 -35t34 -91q0 -59 -39.5 -94.5t-104.5 -35.5q-50 0 -84 18t-47 45q14 12 42 18q29 -52 89 -52q42 0 65.5 26t23.5 71q0 44 -23 70.5t-66 26.5q-54 0 -81 -25h-37z" />
    <glyph glyph-name="six.denominator" horiz-adv-x="383" 
d="M115 201q39 41 107 41q62 0 92 -34t30 -84q0 -58 -35.5 -94.5t-104.5 -36.5q-70 0 -109.5 56t-39.5 151q0 94 39 150t112 56q97 0 128 -87q-16 -13 -51 -13q-20 72 -77 72q-91 0 -91 -177zM115 172q8 -152 89 -152q83 0 83 98q0 44 -20.5 69t-60.5 25q-57 0 -91 -40z" />
    <glyph glyph-name="seven.denominator" horiz-adv-x="343" 
d="M88 0v3l185 352h-235v44h274v-39l-163 -360h-61z" />
    <glyph glyph-name="eight.denominator" horiz-adv-x="376" 
d="M138 211v3q-35 9 -54 32.5t-19 57.5q0 45 34.5 73.5t93.5 28.5t93.5 -28.5t34.5 -73.5q0 -33 -19.5 -57t-54.5 -33v-3q43 -10 66 -37t23 -66q0 -53 -37 -84t-106 -31t-106.5 31t-37.5 84q0 81 89 103zM193 20q42 0 63.5 23.5t21.5 65.5q0 44 -22 67t-63 23t-63.5 -23.5
t-22.5 -66.5q0 -42 22 -65.5t64 -23.5zM193 225q34 0 54 21t20 57q0 75 -74 75t-74 -75q0 -36 19.5 -57t54.5 -21z" />
    <glyph glyph-name="nine.denominator" horiz-adv-x="383" 
d="M60 79q17 12 50 14q22 -73 77 -73q89 0 92 173q-39 -43 -106 -43q-63 0 -93 36t-30 87q0 57 35 95t103 38q71 0 110.5 -56t39.5 -149q0 -97 -39 -152.5t-112 -55.5q-95 0 -127 86zM278 222q-5 156 -90 156q-82 0 -82 -102q0 -44 21 -70.5t58 -26.5q58 0 93 43z" />
    <glyph glyph-name="l.ss01" horiz-adv-x="245" 
d="M77 119v583q26 0 60 5v-592q0 -50 13 -68t53 -18q21 0 34 4q2 -8 2 -17q0 -8 -1 -16q-14 -7 -44 -7q-71 0 -94 30t-23 96z" />
    <glyph glyph-name="lacute.ss01" horiz-adv-x="245" 
d="M77 119v583q26 0 60 5v-592q0 -50 13 -68t53 -18q21 0 34 4q2 -8 2 -17q0 -8 -1 -16q-14 -7 -44 -7q-71 0 -94 30t-23 96zM83 752l55 112q11 3 38 3q26 0 36 -3l-93 -112q-8 -4 -18 -4q-12 0 -18 4z" />
    <glyph glyph-name="lcaron.ss01" horiz-adv-x="329" 
d="M77 119v583q26 0 60 5v-592q0 -50 13 -68t53 -18q21 0 34 4q2 -8 2 -17q0 -8 -1 -16q-14 -7 -44 -7q-71 0 -94 30t-23 96zM227 562q18 13 29 36.5t12 43.5q-15 0 -25.5 9.5t-10.5 25.5q0 35 34 35q39 0 39 -44q0 -45 -19.5 -78.5t-39.5 -41.5q-6 0 -12 4.5t-7 9.5z" />
    <glyph glyph-name="lcommaaccent.ss01" horiz-adv-x="245" 
d="M77 119v583q26 0 60 5v-592q0 -50 13 -68t53 -18q21 0 34 4q2 -8 2 -17q0 -8 -1 -16q-14 -7 -44 -7q-71 0 -94 30t-23 96zM111 -207q19 14 31.5 36.5t13.5 41.5q-17 0 -28.5 10.5t-11.5 26.5t10.5 26t27.5 10q41 0 41 -44t-22 -77t-43 -40q-5 0 -11.5 3.5t-7.5 6.5z" />
    <glyph glyph-name="lslash.ss01" horiz-adv-x="329" 
d="M134 119v174l-106 -63v44l106 63v365q26 0 60 5v-339l106 65v-43l-106 -65v-210q0 -50 13.5 -68t53.5 -18q20 0 33 4q2 -8 2 -20q0 -3 -0.5 -7.5t-0.5 -5.5q-14 -7 -44 -7q-71 0 -94 30t-23 96z" />
    <glyph glyph-name="ldot.ss01" horiz-adv-x="347" 
d="M77 119v583q26 0 60 5v-592q0 -50 13 -68t53 -18q21 0 34 4q2 -8 2 -17q0 -8 -1 -16q-14 -7 -44 -7q-71 0 -94 30t-23 96zM236 375q0 16 11 26.5t28 10.5t27.5 -10.5t10.5 -26.5q0 -17 -10.5 -27.5t-27.5 -10.5t-28 10.5t-11 27.5z" />
    <glyph glyph-name="g.ss02" horiz-adv-x="517" 
d="M380 -4v82q-57 -53 -140 -53q-96 0 -144 67t-48 177t48.5 176.5t143.5 66.5q85 0 144 -55v45q22 0 56 5v-501q0 -80 -43.5 -128.5t-140.5 -48.5q-135 0 -181 87q6 8 23 14.5t29 7.5q11 -29 44 -53.5t88 -24.5q121 0 121 136zM380 110v318q-50 48 -123 48
q-141 0 -141 -207q0 -208 141 -208q76 0 123 49z" />
    <glyph glyph-name="gcircumflex.ss02" horiz-adv-x="517" 
d="M380 -4v82q-57 -53 -140 -53q-96 0 -144 67t-48 177t48.5 176.5t143.5 66.5q85 0 144 -55v45q22 0 56 5v-501q0 -80 -43.5 -128.5t-140.5 -48.5q-135 0 -181 87q6 8 23 14.5t29 7.5q11 -29 44 -53.5t88 -24.5q121 0 121 136zM380 110v318q-50 48 -123 48
q-141 0 -141 -207q0 -208 141 -208q76 0 123 49zM150 581l83 132q8 4 36 4t37 -4l83 -132q-5 -3 -18 -3q-10 0 -16 3l-85 102h-2l-84 -102q-6 -3 -17 -3q-13 0 -17 3z" />
    <glyph glyph-name="gbreve.ss02" horiz-adv-x="517" 
d="M380 -4v82q-57 -53 -140 -53q-96 0 -144 67t-48 177t48.5 176.5t143.5 66.5q85 0 144 -55v45q22 0 56 5v-501q0 -80 -43.5 -128.5t-140.5 -48.5q-135 0 -181 87q6 8 23 14.5t29 7.5q11 -29 44 -53.5t88 -24.5q121 0 121 136zM380 110v318q-50 48 -123 48
q-141 0 -141 -207q0 -208 141 -208q76 0 123 49zM151 703q4 3 16 3q10 0 16 -3q16 -83 88 -83t88 83q6 3 15 3q12 0 16 -3q-5 -56 -35 -90.5t-84 -34.5t-84 34.5t-36 90.5z" />
    <glyph glyph-name="gdotaccent.ss02" horiz-adv-x="517" 
d="M380 -4v82q-57 -53 -140 -53q-96 0 -144 67t-48 177t48.5 176.5t143.5 66.5q85 0 144 -55v45q22 0 56 5v-501q0 -80 -43.5 -128.5t-140.5 -48.5q-135 0 -181 87q6 8 23 14.5t29 7.5q11 -29 44 -53.5t88 -24.5q121 0 121 136zM380 110v318q-50 48 -123 48
q-141 0 -141 -207q0 -208 141 -208q76 0 123 49zM231 646q0 16 11 26.5t28 10.5t27.5 -10.5t10.5 -26.5q0 -17 -10.5 -27.5t-27.5 -10.5t-28 10.5t-11 27.5z" />
    <glyph glyph-name="gcommaaccent.ss02" horiz-adv-x="517" 
d="M380 -4v82q-57 -53 -140 -53q-96 0 -144 67t-48 177t48.5 176.5t143.5 66.5q85 0 144 -55v45q22 0 56 5v-501q0 -80 -43.5 -128.5t-140.5 -48.5q-135 0 -181 87q6 8 23 14.5t29 7.5q11 -29 44 -53.5t88 -24.5q121 0 121 136zM380 110v318q-50 48 -123 48
q-141 0 -141 -207q0 -208 141 -208q76 0 123 49zM292 750q15 0 20 -12q-19 -14 -32 -36.5t-14 -41.5q18 -1 29 -11t11 -26t-10 -26.5t-27 -10.5q-20 0 -31 12.5t-11 32.5q0 44 22 78t43 41z" />
    <glyph glyph-name="a.ss03" horiz-adv-x="523" 
d="M459 10l-51 -15q-15 22 -19 56q-57 -61 -145 -61q-98 0 -147 71t-49 189t49 190t147 72q89 0 146 -55v45q22 0 56 5v-375q0 -91 13 -122zM386 79v348q-47 49 -126 49q-78 0 -111 -58.5t-33 -167.5q0 -225 144 -225q79 0 126 54z" />
    <glyph glyph-name="agrave.ss03" horiz-adv-x="523" 
d="M459 10l-51 -15q-15 22 -19 56q-57 -61 -145 -61q-98 0 -147 71t-49 189t49 190t147 72q89 0 146 -55v45q22 0 56 5v-375q0 -91 13 -122zM386 79v348q-47 49 -126 49q-78 0 -111 -58.5t-33 -167.5q0 -225 144 -225q79 0 126 54zM269 581l-101 132q12 4 36 4q22 0 38 -4
l62 -132q-5 -3 -18 -3q-11 0 -17 3z" />
    <glyph glyph-name="aacute.ss03" horiz-adv-x="523" 
d="M459 10l-51 -15q-15 22 -19 56q-57 -61 -145 -61q-98 0 -147 71t-49 189t49 190t147 72q89 0 146 -55v45q22 0 56 5v-375q0 -91 13 -122zM386 79v348q-47 49 -126 49q-78 0 -111 -58.5t-33 -167.5q0 -225 144 -225q79 0 126 54zM230 581l63 132q14 4 37 4q22 0 36 -4
l-100 -132q-6 -3 -18 -3q-14 0 -18 3z" />
    <glyph glyph-name="acircumflex.ss03" horiz-adv-x="523" 
d="M459 10l-51 -15q-15 22 -19 56q-57 -61 -145 -61q-98 0 -147 71t-49 189t49 190t147 72q89 0 146 -55v45q22 0 56 5v-375q0 -91 13 -122zM386 79v348q-47 49 -126 49q-78 0 -111 -58.5t-33 -167.5q0 -225 144 -225q79 0 126 54zM148 581l83 132q8 4 36 4t37 -4l83 -132
q-5 -3 -18 -3q-10 0 -16 3l-85 102h-2l-84 -102q-6 -3 -17 -3q-13 0 -17 3z" />
    <glyph glyph-name="atilde.ss03" horiz-adv-x="523" 
d="M459 10l-51 -15q-15 22 -19 56q-57 -61 -145 -61q-98 0 -147 71t-49 189t49 190t147 72q89 0 146 -55v45q22 0 56 5v-375q0 -91 13 -122zM386 79v348q-47 49 -126 49q-78 0 -111 -58.5t-33 -167.5q0 -225 144 -225q79 0 126 54zM115 601q21 60 44 78.5t53 18.5
q27 0 65 -29.5t58 -29.5q37 0 62 57q6 2 15 2q7 0 13 -2q-21 -58 -42 -77t-46 -19q-31 0 -70.5 29.5t-62.5 29.5q-19 0 -35.5 -18t-25.5 -40q-6 -2 -13 -2q-9 0 -15 2z" />
    <glyph glyph-name="adieresis.ss03" horiz-adv-x="523" 
d="M459 10l-51 -15q-15 22 -19 56q-57 -61 -145 -61q-98 0 -147 71t-49 189t49 190t147 72q89 0 146 -55v45q22 0 56 5v-375q0 -91 13 -122zM386 79v348q-47 49 -126 49q-78 0 -111 -58.5t-33 -167.5q0 -225 144 -225q79 0 126 54zM150 645q0 16 10.5 26.5t26.5 10.5
t26.5 -10.5t10.5 -26.5q0 -17 -10 -27t-27 -10q-16 0 -26.5 10.5t-10.5 26.5zM322 645q0 16 10.5 26.5t26.5 10.5t26.5 -10.5t10.5 -26.5q0 -17 -10 -27t-27 -10q-16 0 -26.5 10.5t-10.5 26.5z" />
    <glyph glyph-name="amacron.ss03" horiz-adv-x="523" 
d="M459 10l-51 -15q-15 22 -19 56q-57 -61 -145 -61q-98 0 -147 71t-49 189t49 190t147 72q89 0 146 -55v45q22 0 56 5v-375q0 -91 13 -122zM386 79v348q-47 49 -126 49q-78 0 -111 -58.5t-33 -167.5q0 -225 144 -225q79 0 126 54zM140 620v39h259v-39h-259z" />
    <glyph glyph-name="abreve.ss03" horiz-adv-x="523" 
d="M459 10l-51 -15q-15 22 -19 56q-57 -61 -145 -61q-98 0 -147 71t-49 189t49 190t147 72q89 0 146 -55v45q22 0 56 5v-375q0 -91 13 -122zM386 79v348q-47 49 -126 49q-78 0 -111 -58.5t-33 -167.5q0 -225 144 -225q79 0 126 54zM148 703q4 3 16 3q10 0 16 -3
q16 -83 88 -83t88 83q6 3 15 3q11 0 16 -3q-5 -56 -35 -90.5t-84 -34.5t-84 34.5t-36 90.5z" />
    <glyph glyph-name="aring.ss03" horiz-adv-x="523" 
d="M459 10l-51 -15q-15 22 -19 56q-57 -61 -145 -61q-98 0 -147 71t-49 189t49 190t147 72q89 0 146 -55v45q22 0 56 5v-375q0 -91 13 -122zM386 79v348q-47 49 -126 49q-78 0 -111 -58.5t-33 -167.5q0 -225 144 -225q79 0 126 54zM188 640q0 34 21.5 56t56.5 22t56.5 -22
t21.5 -56t-21 -55.5t-57 -21.5q-35 0 -56.5 21.5t-21.5 55.5zM266 587q22 0 34 14.5t12 38.5t-12 38.5t-34 14.5q-45 0 -45 -53t45 -53z" />
    <glyph glyph-name="aogonek.ss03" horiz-adv-x="523" 
d="M445 -172l10 -18q-27 -27 -81 -27q-88 0 -88 77q0 43 34 79.5t84 60.5q-12 20 -15 51q-57 -61 -145 -61q-98 0 -147 71t-49 189t49 190t147 72q89 0 146 -55v45q22 0 56 5v-375q0 -91 13 -122q-66 -36 -95 -70t-29 -74q0 -52 57 -52q32 0 53 14zM386 79v348
q-47 49 -126 49q-78 0 -111 -58.5t-33 -167.5q0 -225 144 -225q79 0 126 54z" />
    <glyph glyph-name="t.ss04" horiz-adv-x="317" 
d="M102 123v345h-84v34h29q46 0 59.5 18t23.5 94q12 0 32 3v-115h122v-34h-122v-347q0 -53 18 -72.5t64 -19.5q29 0 47 9q2 -8 2 -21q0 -10 -1 -15q-18 -9 -61 -9q-69 0 -99 28.5t-30 101.5z" />
    <glyph glyph-name="tcaron.ss04" horiz-adv-x="320" 
d="M102 123v345h-84v34h29q46 0 59.5 18t23.5 94q12 0 32 3v-115h122v-34h-122v-347q0 -53 18 -72.5t64 -19.5q29 0 47 9q2 -8 2 -21q0 -10 -1 -15q-18 -9 -61 -9q-69 0 -99 28.5t-30 101.5zM244 603q18 13 29 36.5t12 43.5q-15 0 -25.5 9.5t-10.5 25.5q0 35 34 35
q39 0 39 -44q0 -45 -19.5 -78.5t-39.5 -41.5q-6 0 -12 4.5t-7 9.5z" />
    <glyph glyph-name="tcommaaccent.ss04" horiz-adv-x="317" 
d="M120 -191l6 21q22 -16 57 -16q53 0 53 45q0 27 -20 38.5t-65 20.5l24 81q-38 9 -55.5 38t-17.5 86v345h-84v34h29q46 0 59.5 18t23.5 94q12 0 32 3v-115h122v-34h-122v-347q0 -53 18 -72.5t64 -19.5q29 0 47 9q2 -8 2 -21q0 -10 -1 -15q-18 -9 -61 -9q-5 0 -13 0.5
t-12 0.5l-17 -52q90 -17 90 -79q0 -38 -24.5 -57t-62.5 -19q-50 0 -72 22z" />
    <glyph glyph-name="uni021B.ss04" horiz-adv-x="317" 
d="M102 123v345h-84v34h29q46 0 59.5 18t23.5 94q12 0 32 3v-115h122v-34h-122v-347q0 -53 18 -72.5t64 -19.5q29 0 47 9q2 -8 2 -21q0 -10 -1 -15q-18 -9 -61 -9q-69 0 -99 28.5t-30 101.5zM162 -207q19 14 31.5 36.5t13.5 41.5q-17 0 -28.5 10.5t-11.5 26.5t10.5 26
t27.5 10q41 0 41 -44t-22 -77t-43 -40q-5 0 -11.5 3.5t-7.5 6.5z" />
    <glyph glyph-name="tbar.ss04" horiz-adv-x="317" 
d="M102 123v137h-84v33h84v175h-84v34h29q46 0 59.5 18t23.5 94q12 0 32 3v-115h122v-34h-122v-175h122v-33h-122v-139q0 -53 18 -72.5t64 -19.5q29 0 47 9q2 -8 2 -21q0 -10 -1 -15q-18 -9 -61 -9q-69 0 -99 28.5t-30 101.5z" />
    <glyph glyph-name="j.calt" horiz-adv-x="214" 
d="M77 -64v566q26 0 60 5v-577q0 -74 -27 -103.5t-91 -29.5q-28 0 -44 4q-2 6 -2 15q0 14 3 21q14 -4 38 -4q42 0 52.5 21.5t10.5 81.5zM68 645q0 17 11 27.5t28 10.5q18 0 28.5 -10.5t10.5 -27.5q0 -16 -10.5 -27t-28.5 -11q-17 0 -28 11t-11 27z" />
    </font>
</defs>
</svg>
