<?xml version="1.0" standalone="no"?>
<!DOCTYPE svg PUBLIC "-//W3C//DTD SVG 1.1//EN" "http://www.w3.org/Graphics/SVG/1.1/DTD/svg11.dtd" >
<svg xmlns="http://www.w3.org/2000/svg" xmlns:xlink="http://www.w3.org/1999/xlink" version="1.1">
<metadata>
Created by FontForge 20150318 at Sat Oct 10 07:37:43 2015
 By uniteet7
Copyright (c) 2011 by Goran Soderstrom. All rights reserved.
</metadata>
<defs>
<font id="SiriLightItalic" horiz-adv-x="592" >
  <font-face 
    font-family="SiriLightItalic"
    font-weight="300"
    font-style="italic"
    font-stretch="normal"
    units-per-em="1000"
    panose-1="2 0 0 0 0 0 0 0 0 0"
    ascent="750"
    descent="-250"
    x-height="502"
    cap-height="700"
    bbox="-190 -217 1122 881"
    underline-thickness="41"
    underline-position="-68"
    slope="-12"
    unicode-range="U+0020-FB04"
  />
<missing-glyph horiz-adv-x="612" 
d="M128 -100v900h425v-900h-425zM179 -68h323v835h-323v-835z" />
    <glyph glyph-name="ff" unicode="ff" horiz-adv-x="595" 
d="M53 0l99 469h-74l8 33h73l11 50q19 84 57.5 117t105.5 33q41 0 60 -8q-2 -17 -9 -35q-17 10 -51 10q-45 0 -67.5 -27.5t-36.5 -94.5l-10 -45h222l12 58q18 85 57 118.5t107 33.5q45 0 61 -8q-2 -24 -9 -35q-18 10 -52 10q-46 0 -69 -28t-36 -94l-11 -55h124l-8 -33h-124
l-77 -363q-16 -72 -16 -97q0 -7 1 -9h-67l99 469h-222l-99 -469h-59z" />
    <glyph glyph-name="fi" unicode="fi" horiz-adv-x="515" 
d="M53 0l98 469h-73l8 33h72l6 29q21 102 75.5 141.5t158.5 39.5q90 0 118 -13q-2 -24 -10 -38q-29 18 -107 18q-87 0 -122 -31t-52 -113l-7 -33h214q30 0 68 5l-85 -401q-16 -72 -16 -97q0 -7 1 -9h-66l98 469h-221l-99 -469h-59z" />
    <glyph glyph-name="fl" unicode="fl" horiz-adv-x="508" 
d="M53 0l99 469h-74l8 33h73l13 61q18 85 56.5 117t106.5 32q42 0 61 -8q-2 -17 -9 -35q-18 10 -51 10q-46 0 -69 -27.5t-37 -93.5l-12 -56h126l-8 -33h-125l-99 -469h-59zM327 0l147 702q31 0 61 5l-127 -601q-16 -72 -16 -97q0 -7 1 -9h-66z" />
    <glyph glyph-name="ffi" unicode="ffi" horiz-adv-x="797" 
d="M53 0l99 469h-74l8 33h73l10 47q18 85 57.5 119t106.5 34q41 0 60 -8q-2 -17 -9 -35q-17 10 -51 10q-45 0 -67.5 -27t-37.5 -94l-10 -46h222l7 33q21 98 82.5 137.5t156.5 39.5q86 0 112 -13q0 -21 -10 -38q-29 18 -107 18q-77 0 -117.5 -32.5t-56.5 -110.5l-7 -34h215
q39 0 67 5l-85 -401q-16 -74 -16 -98q0 -6 1 -8h-66l98 469h-221l-99 -469h-59l99 469h-223l-100 -469h-58z" />
    <glyph glyph-name="ffl" unicode="ffl" horiz-adv-x="790" 
d="M53 0l99 469h-74l8 33h73l10 48q18 86 57 119t107 33q41 0 60 -8q-2 -17 -9 -35q-17 10 -51 10q-46 0 -68.5 -27t-36.5 -93l-10 -47h223l12 58q17 85 56.5 118.5t107.5 33.5q44 0 60 -8q-2 -24 -9 -35q-15 10 -51 10q-46 0 -69 -29t-37 -96l-11 -52h125l-8 -33h-124
l-99 -469h-60l99 469h-222l-99 -469h-59zM609 0l147 702q31 0 61 5l-127 -601q-16 -72 -16 -97q0 -7 1 -9h-66z" />
    <glyph glyph-name="f_j" unicode="fj" horiz-adv-x="515" 
d="M321 -59l111 528h-221l-99 -469h-59l99 469h-74l8 33h73l6 29q21 102 75 141.5t158 39.5q90 0 118 -13q-2 -24 -10 -38q-29 18 -107 18q-87 0 -122.5 -32t-51.5 -114l-6 -31h220q29 0 61 5l-122 -577q-15 -73 -48.5 -103t-93.5 -30q-37 0 -52 5v2q0 21 9 35q18 -8 42 -8
q40 0 56.5 24t29.5 86z" />
    <glyph glyph-name=".notdef" horiz-adv-x="612" 
d="M128 -100v900h425v-900h-425zM179 -68h323v835h-323v-835z" />
    <glyph glyph-name=".null" horiz-adv-x="0" 
 />
    <glyph glyph-name="nonmarkingreturn" horiz-adv-x="333" 
 />
    <glyph glyph-name="space" unicode=" " horiz-adv-x="219" 
 />
    <glyph glyph-name="exclam" unicode="!" horiz-adv-x="240" 
d="M87 147l104 553q10 6 35 6q24 0 30 -6l-130 -553h-39zM75 -5q-14 0 -23 8.5t-9 23.5q0 19 13.5 32.5t32.5 13.5q34 0 34 -32q0 -18 -13 -32t-35 -14z" />
    <glyph glyph-name="quotedbl" unicode="&#x22;" horiz-adv-x="340" 
d="M232 707l-58 -196q-7 -3 -16 -3q-10 0 -15 3l25 196q16 4 33 4q19 0 31 -4zM380 707l-58 -196q-8 -3 -16 -3q-10 0 -15 3l25 196q16 4 33 4q19 0 31 -4z" />
    <glyph glyph-name="numbersign" unicode="#" 
d="M58 0v5l80 214h-76l9 37h81l64 171h-76l8 37h82l79 212h47l-1 -5l-77 -207h182l79 212h46l-1 -5l-77 -207h77l-8 -37h-83l-64 -171h78l-9 -37h-83l-81 -219h-46v5l80 214h-182l-81 -219h-47zM200 256h182l64 171h-182z" />
    <glyph glyph-name="dollar" unicode="$" 
d="M218 -113l21 103q-79 6 -121.5 44t-50.5 96q19 19 56 19q4 -23 9.5 -39.5t19.5 -39.5t43 -36t70 -13q83 0 129.5 49t46.5 116q0 28 -9 50t-28.5 39t-35.5 26.5t-46 24.5q-36 19 -49.5 26t-38.5 24t-34 30.5t-17.5 35t-8.5 48.5q0 77 57.5 136.5t155.5 60.5l23 103h33
l-23 -105q80 -7 114 -44.5t38 -81.5q-20 -15 -55 -15q-2 18 -5.5 31.5t-15.5 34.5t-39 33t-67 12q-69 0 -112.5 -42.5t-43.5 -109.5q0 -26 6.5 -44t27.5 -35t37.5 -26t57.5 -30q35 -17 52.5 -27.5t41 -31t34 -48t10.5 -63.5q0 -81 -60 -144.5t-169 -64.5l-21 -102h-33z" />
    <glyph glyph-name="percent" unicode="%" horiz-adv-x="824" 
d="M237 347q-64 0 -97 34.5t-33 95.5q0 29 5 52q16 82 64.5 129.5t120.5 47.5q64 0 96 -33.5t32 -93.5q0 -25 -6 -54q-16 -84 -63.5 -131t-118.5 -47zM231 371q48 0 82.5 40t49.5 116q8 42 8 73q0 41 -17 61t-56 20q-94 0 -128 -154q-8 -36 -8 -72q0 -84 69 -84zM128 0v5
l583 695h45v-5l-582 -695h-46zM588 -7q-64 0 -97 34.5t-33 95.5q0 29 5 52q16 82 64.5 129.5t120.5 47.5q64 0 96 -33.5t32 -93.5q0 -25 -6 -54q-16 -84 -63.5 -131t-118.5 -47zM582 17q48 0 82.5 40t49.5 116q8 42 8 73q0 41 -17 61t-56 20q-94 0 -128 -154q-8 -36 -8 -72
q0 -84 69 -84z" />
    <glyph glyph-name="ampersand" unicode="&#x26;" horiz-adv-x="594" 
d="M469 0l-39 62q-90 -74 -200 -74q-96 0 -144 41.5t-48 110.5q0 81 52 134t146 98q-60 98 -60 166q0 76 50 125t137 49q76 0 113 -35t37 -89q0 -40 -16 -74t-48.5 -62t-63 -47t-76.5 -43l139 -220q53 72 83 177h8q35 0 48 -8q-38 -122 -115 -208l62 -98v-5h-65zM409 96
l-155 247q-153 -70 -153 -197q0 -123 139 -123q96 0 169 73zM290 393q166 83 166 194q0 93 -95 93q-56 0 -92 -36.5t-36 -89.5q0 -41 14 -76.5t43 -84.5z" />
    <glyph glyph-name="quotesingle" unicode="'" horiz-adv-x="190" 
d="M232 707l-58 -196q-7 -3 -16 -3q-10 0 -15 3l25 196q16 4 33 4q19 0 31 -4z" />
    <glyph glyph-name="parenleft" unicode="(" horiz-adv-x="416" 
d="M280 -172l-7 -31q-98 5 -147 79.5t-49 202.5q0 76 19 176q39 201 137.5 325.5t233.5 130.5l-7 -32q-106 -13 -184 -129.5t-114 -295.5q-22 -108 -22 -192q0 -104 34 -166t106 -68z" />
    <glyph glyph-name="parenright" unicode=")" horiz-adv-x="416" 
d="M-34 -203l7 32q106 12 184 129t114 296q21 103 21 192q0 222 -139 233l6 32q98 -6 147 -81t49 -203q0 -79 -18 -174q-40 -202 -138.5 -326.5t-232.5 -129.5z" />
    <glyph glyph-name="asterisk" unicode="*" horiz-adv-x="439" 
d="M288 541l-108 -137q-9 1 -20 11t-14 19l132 119l-148 34q1 10 8.5 26t16.5 22l130 -65l18 160q12 4 26 4q15 0 25 -4l-50 -160l158 65q8 -10 8 -32q0 -8 -2 -16l-163 -33l82 -120q-7 -9 -23 -19t-26 -11z" />
    <glyph glyph-name="plus" unicode="+" 
d="M279 62v216h-214v43h214v215h45v-215h215v-43h-215v-216h-45z" />
    <glyph glyph-name="comma" unicode="," horiz-adv-x="184" 
d="M-15 -88q24 14 43 37t24 44q-35 2 -35 36q0 18 12 30.5t31 12.5t29 -11.5t10 -29.5q0 -38 -28.5 -77.5t-66.5 -55.5q-7 0 -13 4.5t-6 9.5z" />
    <glyph glyph-name="hyphen" unicode="-" horiz-adv-x="371" 
d="M71 274l11 50h253l-10 -50h-254z" />
    <glyph glyph-name="period" unicode="." horiz-adv-x="174" 
d="M42 -6q-14 0 -23 8.5t-9 23.5q0 20 13 33t33 13q34 0 34 -32q0 -18 -13 -32t-35 -14z" />
    <glyph glyph-name="slash" unicode="/" horiz-adv-x="429" 
d="M-23 -140v5l463 875h48v-5l-463 -875h-48z" />
    <glyph glyph-name="zero" unicode="0" horiz-adv-x="583" 
d="M250 -12q-194 0 -194 222q0 59 15 128q34 162 114.5 256.5t198.5 94.5q193 0 193 -222q0 -56 -14 -128q-34 -162 -114.5 -256.5t-198.5 -94.5zM249 22q176 0 244 316q19 93 19 158q0 79 -29 118.5t-98 39.5q-177 0 -245 -317q-19 -86 -19 -159q0 -77 30.5 -116.5
t97.5 -39.5z" />
    <glyph glyph-name="one" unicode="1" horiz-adv-x="430" 
d="M17 0l7 37h139l125 588l-147 -40l8 36q8 2 41 12.5t74.5 24t57.5 18.5h39l-136 -639h129l-7 -37h-330z" />
    <glyph glyph-name="two" unicode="2" horiz-adv-x="538" 
d="M-5 0l8 36q23 17 82.5 58.5t103.5 72.5t101 80.5t94 93t63 98.5t26 107q0 108 -120 108q-108 0 -179 -123q-42 0 -51 18q30 61 90 100.5t146 39.5q89 0 135 -39.5t46 -106.5q0 -48 -19.5 -96t-57 -93t-76.5 -83t-96 -79t-95 -67t-92 -60q-13 -8 -19 -12v-2h375l-10 -51
h-455z" />
    <glyph glyph-name="three" unicode="3" horiz-adv-x="522" 
d="M205 336l8 36h30q91 0 153 46.5t62 136.5q0 99 -119 99q-100 0 -161 -84q-35 6 -44 22q65 97 203 97q90 0 138 -37t48 -102q0 -74 -49 -124.5t-127 -69.5l-1 -2q54 -9 89.5 -42.5t35.5 -93.5q0 -104 -70 -167t-183 -63q-91 0 -139.5 30t-60.5 70q14 15 48 23
q32 -88 146 -88q81 0 136 52t55 142q0 58 -39.5 88.5t-128.5 30.5h-30z" />
    <glyph glyph-name="four" unicode="4" horiz-adv-x="556" 
d="M28 172l8 41l427 463h69l-98 -459h85l-9 -45h-85l-36 -172h-62l36 172h-335zM92 217h280l43 201q36 166 44 202h-2q-38 -49 -159 -179z" />
    <glyph glyph-name="five" unicode="5" horiz-adv-x="520" 
d="M93 333l85 343h377l-10 -51h-336l-63 -250q62 45 152 45q92 0 138 -46.5t46 -124.5q0 -112 -73 -186.5t-191 -74.5q-85 0 -135 28t-63 70q19 17 53 26q11 -37 45 -63t91 -26q92 0 148 66t56 162q0 129 -130 129q-43 0 -83 -14.5t-63 -32.5h-44z" />
    <glyph glyph-name="six" unicode="6" horiz-adv-x="565" 
d="M158 336q75 73 185 73q92 0 135.5 -45.5t43.5 -117.5q0 -111 -68.5 -184.5t-180.5 -73.5q-198 0 -198 215q0 57 13 122q33 170 115.5 267t200.5 97q72 0 117.5 -34.5t56.5 -106.5q-19 -16 -60 -18q-10 125 -115 125q-84 0 -147.5 -79.5t-97.5 -239.5zM150 292
q-11 -59 -11 -113q0 -80 31.5 -118.5t98.5 -38.5q90 0 138 65t48 163q0 123 -123 123q-107 0 -182 -81z" />
    <glyph glyph-name="seven" unicode="7" horiz-adv-x="482" 
d="M62 0v5l426 620h-385l11 51h434l-9 -44l-410 -632h-67z" />
    <glyph glyph-name="eight" unicode="8" horiz-adv-x="548" 
d="M236 363v2q-43 13 -67.5 47.5t-24.5 81.5q0 86 59 140.5t153 54.5t142 -39.5t48 -107.5q0 -69 -39 -117.5t-116 -69.5v-2q50 -15 80 -52.5t30 -91.5q0 -100 -65.5 -160.5t-176.5 -60.5q-104 0 -157 45.5t-53 119.5q0 81 49 137.5t138 72.5zM115 145q0 -59 37 -91t106 -32
q81 0 128 53t47 141q0 123 -134 123q-85 0 -134.5 -54t-49.5 -140zM207 486q0 -52 29.5 -81t85.5 -29q69 0 114 47.5t45 125.5q0 106 -121 106q-75 0 -114 -46.5t-39 -122.5z" />
    <glyph glyph-name="nine" unicode="9" horiz-adv-x="565" 
d="M98 143q10 -121 117 -121q174 0 240 308q-72 -74 -176 -74q-94 0 -138.5 49.5t-44.5 125.5q0 105 68.5 181.5t177.5 76.5q102 0 150 -56.5t48 -156.5q0 -64 -12 -128q-33 -170 -111.5 -265t-199.5 -95q-155 0 -176 137q26 16 57 18zM464 374q12 67 12 121q0 80 -32 120
t-104 40q-58 0 -100 -36t-60.5 -87.5t-18.5 -110.5q0 -128 123 -128q99 0 180 81z" />
    <glyph glyph-name="colon" unicode=":" horiz-adv-x="194" 
d="M51 -6q-14 0 -23 8.5t-9 23.5q0 20 13.5 33t32.5 13q34 0 34 -32q0 -18 -13 -32t-35 -14zM129 367q-14 0 -23 8.5t-9 23.5q0 19 13.5 32.5t32.5 13.5q34 0 34 -32q0 -18 -13 -32t-35 -14z" />
    <glyph glyph-name="semicolon" unicode=";" horiz-adv-x="204" 
d="M-5 -88q24 14 43 37t24 44q-35 2 -35 36q0 18 12 30.5t31 12.5t29 -11.5t10 -29.5q0 -38 -28.5 -77.5t-66.5 -55.5q-7 0 -13 4.5t-6 9.5zM129 367q-14 0 -23 8.5t-9 23.5q0 19 13.5 32.5t32.5 13.5q34 0 34 -32q0 -18 -13 -32t-35 -14z" />
    <glyph glyph-name="less" unicode="&#x3c;" 
d="M56 278v43l474 200v-44l-424 -178l424 -177v-45z" />
    <glyph glyph-name="equal" unicode="=" 
d="M65 378v43h475v-43h-475zM65 177v43h475v-43h-475z" />
    <glyph glyph-name="greater" unicode="&#x3e;" 
d="M558 278l-474 -201v45l424 177l-424 178v44l474 -200v-43z" />
    <glyph glyph-name="question" unicode="?" horiz-adv-x="465" 
d="M196 150h-41l9 38q12 52 42.5 90.5t65.5 62.5t69 47.5t59.5 60.5t31.5 88q2 22 2 33q0 107 -110 107q-64 0 -103 -36.5t-56 -79.5q-40 0 -50 17q19 51 76 92.5t133 41.5q90 0 132.5 -41.5t42.5 -108.5q0 -17 -1 -26q-6 -52 -33.5 -91.5t-65 -66t-75.5 -52t-71.5 -63
t-47.5 -84.5zM145 -5q-14 0 -23 8.5t-9 23.5q0 19 13.5 32.5t32.5 13.5q34 0 34 -32q0 -18 -13 -32t-35 -14z" />
    <glyph glyph-name="at" unicode="@" horiz-adv-x="986" 
d="M656 425l8 42q21 0 58 7l-70 -328q-9 -47 -9 -68q0 -61 54 -61q80 0 132.5 81t57.5 207v14q0 145 -97 233.5t-266 88.5q-172 0 -277.5 -112.5t-111.5 -289.5q0 -4 -0.5 -12t-0.5 -12q0 -173 93.5 -276t269.5 -103q99 0 168 31q9 -13 9 -31v-3q-71 -32 -182 -32
q-196 0 -302 117.5t-106 299.5v20q8 189 125 313.5t316 124.5q193 0 302 -101t109 -256v-14q-5 -138 -76.5 -227t-166.5 -89q-90 0 -104 67q-69 -65 -161 -65q-73 0 -109 42t-36 116v13q2 52 18 105t45.5 101t79 78.5t110.5 30.5q77 0 120 -52zM594 144l52 255
q-33 44 -107 44q-49 0 -87 -28.5t-59.5 -74t-32.5 -91.5t-12 -90v-12q0 -123 99 -123q83 0 140 60q0 29 7 60z" />
    <glyph glyph-name="A" unicode="A" horiz-adv-x="587" 
d="M-20 0v5l379 695h74l84 -695v-5h-60l-29 246h-262l-132 -246h-54zM188 287h235l-19 164q-18 153 -20 203h-3q-16 -34 -107 -206z" />
    <glyph glyph-name="B" unicode="B" horiz-adv-x="550" 
d="M45 0l148 700h145q207 0 207 -142q0 -149 -165 -193v-2q121 -27 121 -139q0 -114 -77.5 -169t-214.5 -55h-164zM114 35h91q229 0 229 186q0 65 -40.5 95.5t-124.5 30.5h-88zM188 382h79q99 0 157 42t58 133q0 58 -35.5 83t-115.5 25h-83z" />
    <glyph glyph-name="C" unicode="C" horiz-adv-x="638" 
d="M533 203h6q41 0 55 -11q-91 -204 -296 -204q-111 0 -168 66.5t-57 181.5q0 56 12 115q33 163 128.5 262t232.5 99q101 0 150.5 -52.5t55.5 -135.5q-14 -11 -59 -11q-5 80 -39.5 122t-111.5 42q-104 0 -179 -85.5t-107 -239.5q-15 -72 -15 -131q0 -95 41 -146.5t120 -51.5
q77 0 136 49t95 131z" />
    <glyph glyph-name="D" unicode="D" horiz-adv-x="625" 
d="M45 0l148 700h156q261 0 261 -233q0 -52 -13 -116q-71 -351 -395 -351h-157zM114 35h94q129 0 206.5 79.5t111.5 236.5q15 70 15 123q0 191 -198 191h-95z" />
    <glyph glyph-name="E" unicode="E" horiz-adv-x="505" 
d="M45 0l148 700h353l-8 -40h-291l-60 -280h265v-3q0 -25 -8 -38h-265l-64 -299h306l-8 -40h-368z" />
    <glyph glyph-name="F" unicode="F" horiz-adv-x="491" 
d="M45 0l148 700h361l-8 -40h-299l-60 -283h266q0 -23 -9 -41h-266l-71 -336h-62z" />
    <glyph glyph-name="G" unicode="G" horiz-adv-x="650" 
d="M488 73l50 242h-155l9 40h214l-63 -295q-35 -28 -94.5 -50t-134.5 -22q-123 0 -182 65.5t-59 182.5q0 54 12 115q32 162 128 261.5t233 99.5q97 0 145 -46.5t57 -111.5q-20 -14 -60 -14q-14 137 -146 137q-105 0 -180 -86t-106 -240q-15 -73 -15 -131q0 -197 173 -197
q114 0 174 50z" />
    <glyph glyph-name="H" unicode="H" horiz-adv-x="666" 
d="M45 0l148 700h62l-65 -307h363l65 307h62l-148 -700h-62l74 351h-363l-74 -351h-62z" />
    <glyph glyph-name="I" unicode="I" horiz-adv-x="242" 
d="M45 0l148 700h62l-148 -700h-62z" />
    <glyph glyph-name="J" unicode="J" horiz-adv-x="385" 
d="M224 154l116 546h62l-117 -552q-18 -86 -67.5 -122t-135.5 -36q-74 0 -96 11q0 7 3.5 22.5t7.5 20.5q30 -17 84 -17q64 0 96 28.5t47 98.5z" />
    <glyph glyph-name="K" unicode="K" horiz-adv-x="539" 
d="M45 0l148 700h62l-69 -327h2l360 327h61v-5l-367 -331l229 -359v-5h-67l-221 351h-2l-74 -351h-62z" />
    <glyph glyph-name="L" unicode="L" horiz-adv-x="475" 
d="M45 0l148 700h62l-140 -659h299l-8 -41h-361z" />
    <glyph glyph-name="M" unicode="M" horiz-adv-x="807" 
d="M45 0l148 700h75l60 -355q37 -221 39 -271h3q22 46 155 268l215 358h80l-148 -700h-62l85 401q27 126 52 226h-3q-69 -125 -119 -209l-252 -418h-41l-73 419q-25 139 -30 211h-3q-15 -92 -44 -229l-85 -401h-52z" />
    <glyph glyph-name="N" unicode="N" horiz-adv-x="685" 
d="M45 0l148 700h71l186 -446q52 -125 66 -183h3q10 72 38 204l89 425h52l-148 -700h-57l-195 463q-60 142 -66 180h-3q-10 -68 -40 -209l-92 -434h-52z" />
    <glyph glyph-name="O" unicode="O" horiz-adv-x="687" 
d="M298 -12q-113 0 -169.5 65t-56.5 180q0 57 13 118q34 164 129 262.5t232 98.5q113 0 170 -64.5t57 -179.5q0 -49 -13 -117q-32 -163 -128 -263t-234 -100zM302 23q104 0 178.5 86.5t107.5 241.5q16 74 16 143q0 183 -162 183q-105 0 -180 -86t-106 -240q-16 -80 -16 -134
q0 -194 162 -194z" />
    <glyph glyph-name="P" unicode="P" horiz-adv-x="532" 
d="M45 0l148 700h122q120 0 173.5 -41.5t53.5 -121.5q0 -122 -77.5 -184.5t-218.5 -62.5h-78l-61 -290h-62zM176 327h61q118 0 178 51t60 163q0 64 -36.5 93.5t-121.5 29.5h-70z" />
    <glyph glyph-name="Q" unicode="Q" horiz-adv-x="687" 
d="M351 -7q-28 -5 -53 -5q-113 0 -169.5 65t-56.5 180q0 57 13 118q34 164 129 262.5t232 98.5q113 0 170 -64.5t57 -179.5q0 -49 -13 -117q-27 -133 -96 -225t-170 -124q6 -51 28 -71t66 -20q26 0 42 7q0 -26 -11 -53q-18 -6 -41 -6q-61 0 -89.5 31.5t-37.5 102.5zM302 23
q104 0 178.5 86.5t107.5 241.5q16 74 16 143q0 183 -162 183q-105 0 -180 -86t-106 -240q-16 -80 -16 -134q0 -194 162 -194z" />
    <glyph glyph-name="R" unicode="R" horiz-adv-x="552" 
d="M45 0l148 700h126q217 0 217 -158q0 -88 -47 -148t-140 -82l105 -307v-5h-62l-102 301q-32 -2 -51 -2h-69l-63 -299h-62zM178 336h65q228 0 228 207q0 62 -38.5 91.5t-119.5 29.5h-66z" />
    <glyph glyph-name="S" unicode="S" horiz-adv-x="540" 
d="M28 136q19 17 59 21q4 -23 10 -40.5t21.5 -42t47.5 -38t78 -13.5q84 0 130.5 48.5t46.5 122.5q0 24 -7.5 44.5t-17 33.5t-29.5 27t-32.5 21t-38.5 20q-33 16 -44.5 22.5t-36 20.5t-33.5 24.5t-21.5 26.5t-17 35t-4.5 42q0 78 60 139.5t169 61.5q52 0 90.5 -13.5
t58.5 -35.5t29 -42.5t11 -42.5q-20 -14 -58 -16q-1 15 -3 25.5t-10.5 29t-22 30.5t-39.5 21t-61 9q-74 0 -118.5 -43.5t-44.5 -116.5q0 -14 3 -25.5t5.5 -19.5t12 -17.5t14.5 -14t21 -13.5t22.5 -12.5t28.5 -14.5t31 -15q25 -12 37 -18.5t33 -19.5t31.5 -25t23 -29.5
t17.5 -38.5t5 -47q0 -87 -64 -153t-181 -66q-184 0 -212 148z" />
    <glyph glyph-name="T" unicode="T" horiz-adv-x="489" 
d="M168 0l140 660h-191l8 40h444l-8 -40h-191l-140 -660h-62z" />
    <glyph glyph-name="U" unicode="U" horiz-adv-x="669" 
d="M102 289l87 411h62l-85 -405q-14 -70 -14 -121q0 -76 39 -110t119 -34q90 0 149 59t88 199l88 412h52l-88 -413q-33 -155 -102 -227t-192 -72q-112 0 -164 47t-52 142q0 51 13 112z" />
    <glyph glyph-name="V" unicode="V" horiz-adv-x="585" 
d="M214 0l-82 695v5h60l52 -446q15 -127 15 -193v-10h3q21 52 102 201l242 448h54v-5l-380 -695h-66z" />
    <glyph glyph-name="W" unicode="W" horiz-adv-x="897" 
d="M170 0l-37 695v5h60l16 -362q8 -163 8 -264v-14h3q17 52 113 249l189 391h69l23 -394q6 -106 6 -196q0 -38 -1 -48h3q7 21 111 243l185 395h53v-5l-333 -695h-64l-21 350q-11 177 -11 264q0 5 0.5 14t0.5 12h-3q-18 -46 -120 -259l-185 -381h-65z" />
    <glyph glyph-name="X" unicode="X" horiz-adv-x="570" 
d="M-15 0v5l297 353l-134 337v5h63l117 -302l252 302h55v-5l-284 -335l145 -355v-5h-63l-128 318l-265 -318h-55z" />
    <glyph glyph-name="Y" unicode="Y" horiz-adv-x="543" 
d="M195 0l57 267l-121 428v5h61l103 -382h3l266 382h53v-5l-303 -425l-57 -270h-62z" />
    <glyph glyph-name="Z" unicode="Z" horiz-adv-x="571" 
d="M2 0l4 22l533 638h-378l8 40h459l-4 -21l-534 -639h396l-9 -40h-475z" />
    <glyph glyph-name="bracketleft" unicode="[" horiz-adv-x="377" 
d="M28 -190l189 890h209l-6 -32h-148l-176 -826h148l-7 -32h-209z" />
    <glyph glyph-name="backslash" unicode="\" horiz-adv-x="429" 
d="M301 -140h-48l-91 875l2 5h48l90 -875z" />
    <glyph glyph-name="bracketright" unicode="]" horiz-adv-x="377" 
d="M178 -190h-211l7 32h148l176 826h-148l6 32h211z" />
    <glyph glyph-name="asciicircum" unicode="^" 
d="M116 378l193 322h22l194 -322h-49l-155 263l-156 -263h-49z" />
    <glyph glyph-name="underscore" unicode="_" horiz-adv-x="507" 
d="M-66 -128l9 41h494l-9 -41h-494z" />
    <glyph glyph-name="grave" unicode="`" horiz-adv-x="246" 
d="M233 581l-72 132q14 4 37 4t37 -4l33 -132q-6 -3 -19 -3q-12 0 -16 3z" />
    <glyph glyph-name="a" unicode="a" horiz-adv-x="514" 
d="M345 41v10q-65 -61 -150 -61q-146 0 -146 166q0 39 10 92q22 117 87 190.5t162 73.5q84 0 123 -59l10 49q3 0 14 1t23 2t20 2l-79 -376q-16 -78 -16 -105q0 -12 1 -16l-52 -15q-7 17 -7 46zM349 81l73 348q-31 49 -106 49q-76 0 -121.5 -59t-68.5 -168q-12 -55 -12 -108
q0 -119 103 -119q81 0 132 57z" />
    <glyph glyph-name="b" unicode="b" horiz-adv-x="534" 
d="M31 0l147 702q33 0 61 5l-54 -257q66 62 161 62q79 0 117.5 -45.5t38.5 -124.5q0 -45 -10 -91q-25 -118 -90 -189.5t-164 -71.5q-97 0 -140 64l-11 -54h-56zM178 417l-72 -338q17 -25 48.5 -40t67.5 -15q158 0 204 227q11 55 11 101q0 125 -112 125q-83 0 -147 -60z" />
    <glyph glyph-name="c" unicode="c" horiz-adv-x="487" 
d="M384 122h6q38 0 50 -11q-25 -52 -77 -87t-129 -35q-92 0 -137.5 49.5t-45.5 137.5q0 37 7 75q22 118 92.5 189.5t177.5 71.5q81 0 117.5 -37t40.5 -90q-13 -10 -55 -10q-6 107 -102 107q-156 0 -204 -231q-11 -52 -11 -98q0 -133 122 -133q93 0 148 102z" />
    <glyph glyph-name="d" unicode="d" horiz-adv-x="534" 
d="M426 9l-54 -15q-7 16 -7 39q0 7 1 18q-70 -61 -162 -61q-156 0 -156 170q0 46 9 90q24 118 90 190t164 72q93 0 138 -60l52 250q27 0 61 5l-122 -577q-15 -73 -15 -105q0 -12 1 -16zM371 81l71 339q-16 26 -48 41.5t-71 15.5q-154 0 -199 -227q-10 -50 -10 -97
q0 -129 114 -129q38 0 77 15.5t66 41.5z" />
    <glyph glyph-name="e" unicode="e" horiz-adv-x="504" 
d="M465 258h-340q-12 -55 -12 -100q0 -138 117 -138q91 0 147 100q39 0 55 -13q-69 -118 -205 -118q-90 0 -133 50t-43 136q0 36 8 82q21 115 90 185t172 70q82 0 120.5 -42.5t38.5 -111.5q0 -50 -15 -100zM131 289h280q9 45 9 80q0 113 -102 113q-67 0 -115 -49.5
t-72 -143.5z" />
    <glyph glyph-name="f" unicode="f" horiz-adv-x="313" 
d="M53 0l99 469h-74l8 33h73l13 60q19 85 57.5 117.5t107.5 32.5q43 0 59 -8q0 -15 -8 -35q-18 10 -52 10q-46 0 -69 -27.5t-37 -94.5l-11 -55h125l-8 -33h-125l-77 -363q-16 -72 -16 -97q0 -7 1 -9h-66z" />
    <glyph glyph-name="g" unicode="g" horiz-adv-x="517" 
d="M338 6l16 74q-65 -54 -148 -54q-151 0 -151 160q0 36 9 83q21 108 85 175.5t158 67.5q83 0 129 -57l10 47q54 4 57 5l-106 -498q-19 -90 -69 -135.5t-141 -45.5q-71 0 -114.5 25t-56.5 64q6 7 24 13.5t32 8.5q6 -29 33.5 -54t80.5 -25q66 0 100.5 34t51.5 112zM360 109
l67 319q-38 48 -112 48q-140 0 -184 -207q-10 -47 -10 -91q0 -117 106 -117q77 0 133 48z" />
    <glyph glyph-name="h" unicode="h" horiz-adv-x="527" 
d="M31 0l147 702q29 0 61 5l-55 -263q66 68 163 68q136 0 136 -124q0 -26 -10 -75l-44 -207q-16 -74 -16 -97q0 -7 1 -9h-66l61 291q13 65 13 100q0 84 -94 84q-45 0 -85 -17.5t-65 -41.5l-88 -416h-59z" />
    <glyph glyph-name="i" unicode="i" horiz-adv-x="212" 
d="M32 0l105 502q29 0 61 5l-85 -401q-16 -72 -16 -97q0 -7 1 -9h-66zM158 638q0 19 13.5 32t33.5 13q33 0 33 -31q0 -18 -13.5 -31.5t-34.5 -13.5q-32 0 -32 31z" />
    <glyph glyph-name="j" unicode="j" horiz-adv-x="212" 
d="M18 -59l118 561q29 0 61 5l-122 -577q-15 -73 -48.5 -103t-93.5 -30q-37 0 -52 5v2q0 21 9 35q18 -8 42 -8q40 0 56.5 24t29.5 86zM157 638q0 19 13.5 32t33.5 13q33 0 33 -31q0 -18 -13.5 -31.5t-34.5 -13.5q-32 0 -32 31z" />
    <glyph glyph-name="k" unicode="k" horiz-adv-x="435" 
d="M31 0l147 702q28 0 61 5l-88 -419h2l252 214h57v-5l-255 -214l159 -278v-5h-61l-155 274h-2l-58 -274h-59z" />
    <glyph glyph-name="l" unicode="l" horiz-adv-x="212" 
d="M31 0l147 702q31 0 61 5l-127 -601q-16 -72 -16 -97q0 -7 1 -9h-66z" />
    <glyph glyph-name="m" unicode="m" horiz-adv-x="764" 
d="M31 0l105 502q26 0 58 5l-14 -62q61 67 146 67q98 0 114 -80q26 32 68.5 56t95.5 24q117 0 117 -115q0 -27 -13 -92l-43 -203q-16 -72 -16 -94q0 -6 1 -8h-65l64 306q12 58 12 89q0 80 -76 80q-44 0 -82 -21t-59 -45v-8q0 -33 -9 -78l-68 -323h-59l64 307q12 60 12 90
q0 78 -75 78q-76 0 -131 -57l-89 -418h-58z" />
    <glyph glyph-name="n" unicode="n" horiz-adv-x="527" 
d="M31 0l105 502q25 0 58 5l-15 -67q27 29 72.5 50.5t97.5 21.5q134 0 134 -124q0 -30 -8 -68l-46 -214q-16 -74 -16 -97q0 -7 1 -9h-67l65 307q10 48 10 82q0 86 -94 86q-44 0 -84.5 -18t-66.5 -43l-88 -414h-58z" />
    <glyph glyph-name="o" unicode="o" horiz-adv-x="551" 
d="M233 -11q-90 0 -136.5 51.5t-46.5 137.5q0 33 8 73q24 119 94 190t183 71q90 0 136 -50t46 -136q0 -33 -8 -75q-23 -116 -95.5 -189t-180.5 -73zM233 20q82 0 135 61.5t75 169.5q11 53 11 94q0 137 -123 137q-81 0 -132.5 -61.5t-74.5 -170.5q-11 -53 -11 -93
q0 -137 120 -137z" />
    <glyph glyph-name="p" unicode="p" horiz-adv-x="534" 
d="M-13 -206l149 708q28 0 58 5l-13 -58q28 27 72 45t90 18q81 0 120 -45t39 -125q0 -45 -10 -91q-25 -119 -88.5 -190t-165.5 -71q-94 0 -138 60l-53 -251q-30 0 -60 -5zM178 419l-72 -339q17 -25 48.5 -40.5t67.5 -15.5q158 0 204 227q11 55 11 96q0 130 -115 130
q-38 0 -77 -16t-67 -42z" />
    <glyph glyph-name="q" unicode="q" horiz-adv-x="534" 
d="M309 -206l53 253q-68 -57 -155 -57q-82 0 -121 45.5t-39 125.5q0 43 10 89q25 118 90.5 190t163.5 72q94 0 139 -64l11 54q28 0 58 5l-150 -708q-33 0 -60 -5zM369 79l72 343q-37 55 -114 55q-158 0 -203 -227q-11 -57 -11 -97q0 -129 115 -129q81 0 141 55z" />
    <glyph glyph-name="r" unicode="r" horiz-adv-x="316" 
d="M31 0l105 502q21 0 58 5l-16 -72h2q21 26 59 51t86 25q17 0 26 -3q0 -28 -11 -53q-12 2 -35 2q-49 0 -83 -17.5t-47 -33.5l-64 -303q-16 -73 -16 -95q0 -6 1 -8h-65z" />
    <glyph glyph-name="s" unicode="s" horiz-adv-x="433" 
d="M17 100q17 12 53 16q4 -37 28.5 -66.5t82.5 -29.5q56 0 93.5 32.5t37.5 84.5q0 13 -2 23t-9.5 19t-11.5 14.5t-17.5 13.5t-18 10.5t-23 11t-22.5 10.5q-3 1 -21 9.5t-22.5 10.5t-19 10.5t-19 13t-14.5 14t-13 18t-6.5 20.5t-3.5 26q0 64 49.5 107.5t129.5 43.5
q44 0 75.5 -11t47 -28.5t22 -31t9.5 -27.5q-15 -11 -50 -14q-14 82 -106 82q-51 0 -86 -29t-35 -80q0 -31 20 -48.5t71 -40.5q4 -2 24 -10.5t25 -11t21 -11t21.5 -14t16 -15.5t14.5 -19t7.5 -22.5t3.5 -28.5q0 -74 -52.5 -118.5t-134.5 -44.5q-79 0 -118 32.5t-47 78.5z" />
    <glyph glyph-name="t" unicode="t" horiz-adv-x="311" 
d="M79 123l73 346h-74l8 33h75l28 133q28 0 58 5l-29 -138h121l-8 -33h-120l-70 -333q-8 -40 -8 -60q0 -25 15.5 -36.5t50.5 -11.5q27 0 47 9v-4q0 -21 -5 -31q-21 -9 -61 -9q-55 0 -81 18.5t-26 61.5q0 21 6 50z" />
    <glyph glyph-name="u" unicode="u" horiz-adv-x="515" 
d="M69 191l65 311q29 0 61 5l-64 -303q-11 -50 -11 -87q0 -45 21 -67t72 -22q40 0 78 18.5t63 43.5l86 412q29 0 61 5l-79 -373q-17 -80 -17 -104q0 -10 2 -20l-54 -15q-7 17 -7 44q0 6 1 17q-69 -67 -155 -67q-133 0 -133 124q0 31 10 78z" />
    <glyph glyph-name="v" unicode="v" horiz-adv-x="457" 
d="M147 0l-61 497v5h58l25 -222q22 -185 22 -228h2q12 32 112 215l128 235h51v-5l-278 -497h-59z" />
    <glyph glyph-name="w" unicode="w" horiz-adv-x="664" 
d="M110 0l-14 497v5h57l4 -217q2 -161 -1 -216h2q19 49 92 192l118 227h47l16 -229q8 -114 8 -154q0 -7 -0.5 -19t-0.5 -17h2q14 45 81 189l113 244h47v-5l-233 -497h-47l-22 277q-6 86 -6 139h-2q-25 -57 -68 -141l-140 -275h-53z" />
    <glyph glyph-name="x" unicode="x" horiz-adv-x="444" 
d="M-17 0v5l214 255l-95 237v5h59l80 -208l172 208h51v-5l-202 -238l104 -254v-5h-60l-88 223l-186 -223h-49z" />
    <glyph glyph-name="y" unicode="y" horiz-adv-x="453" 
d="M159 11l-69 486v5h57l32 -235q21 -147 21 -186h2q13 31 99 187l130 234h49v-5l-316 -566q-2 -3 -12.5 -23t-15 -26t-16 -22.5t-21.5 -23t-25.5 -16t-34.5 -13t-42 -3.5q-33 0 -41 4q0 31 10 51q19 -7 43 -7q13 0 23.5 2.5t19 6t18 13t15.5 16t16 23t16 26.5t19.5 33.5
t22.5 38.5z" />
    <glyph glyph-name="z" unicode="z" horiz-adv-x="445" 
d="M-9 0l3 16l394 453h-279l8 33h354l-4 -17l-394 -452h295l-7 -33h-370z" />
    <glyph glyph-name="braceleft" unicode="{" horiz-adv-x="386" 
d="M251 -172l-6 -30q-81 0 -112.5 19t-31.5 72q0 37 16 111q21 97 21 143q0 65 -43 94l7 34q52 27 76 77.5t46 159.5q28 127 67 164.5t147 37.5l-5 -30q-41 -1 -60 -5t-37.5 -22.5t-28.5 -50.5t-24 -96q-22 -103 -50 -163.5t-76 -88.5q39 -31 39 -107q0 -47 -19 -145
q-18 -85 -18 -114q0 -37 19 -47t73 -13z" />
    <glyph glyph-name="bar" unicode="|" horiz-adv-x="349" 
d="M175 -130v940h49v-940h-49z" />
    <glyph glyph-name="braceright" unicode="}" horiz-adv-x="386" 
d="M-35 -202l6 30q28 1 42.5 3t31 8.5t25 16.5t18 30t16.5 47t16 69q22 103 50.5 163.5t76.5 88.5q-40 31 -40 107q0 50 20 145q17 80 17 114q0 37 -19 47.5t-72 12.5l5 30q81 0 112.5 -19t31.5 -73q0 -36 -16 -110q-21 -97 -21 -143q0 -65 43 -94l-6 -34q-52 -27 -76 -77
t-47 -160q-27 -126 -66.5 -164t-147.5 -38z" />
    <glyph glyph-name="asciitilde" unicode="~" 
d="M88 321v46q6 5 17.5 12.5t46.5 20.5t69 13q41 0 115.5 -25.5t115.5 -25.5q26 0 51.5 11t38.5 22l12 11v-51q-46 -34 -102 -34q-45 0 -120 25.5t-112 25.5q-29 0 -62 -13t-52 -25z" />
    <glyph glyph-name="uni00A0" unicode="&#xa0;" horiz-adv-x="219" 
 />
    <glyph glyph-name="exclamdown" unicode="&#xa1;" horiz-adv-x="240" 
d="M159 360l-104 -553q-11 -6 -35 -6t-30 6l130 553h39zM171 512q14 0 23 -8.5t9 -23.5q0 -20 -13.5 -33t-32.5 -13q-34 0 -34 32q0 18 13 32t35 14z" />
    <glyph glyph-name="cent" unicode="&#xa2;" 
d="M229 -112l21 103q-79 7 -118 56.5t-39 128.5q0 33 8 75q23 116 90 186.5t170 74.5l22 103h33l-22 -104q68 -6 99.5 -42t35.5 -84q-14 -10 -56 -10q-4 107 -102 107q-154 0 -204 -231q-11 -53 -11 -93q0 -138 119 -138q97 0 151 102h6q38 0 50 -11q-24 -50 -76 -85.5
t-124 -36.5l-20 -101h-33z" />
    <glyph glyph-name="sterling" unicode="&#xa3;" 
d="M45 0l7 32q16 15 24.5 26.5t21 43t22.5 80.5l32 148h-66l6 32h67l2 7q16 76 36.5 129.5t52 99t79 68.5t111.5 23q82 0 122.5 -35.5t49.5 -82.5q-14 -13 -55 -15q-15 100 -121 100q-91 0 -136 -68.5t-76 -214.5l-3 -11h233l-6 -32h-233l-29 -134q-17 -83 -73 -143h385
l-11 -53h-442z" />
    <glyph glyph-name="currency" unicode="&#xa4;" 
d="M94 88l-23 25l75 75q-46 56 -46 147q0 82 41 140l-70 71l24 24l68 -69q56 54 148 54t148 -54l69 69l25 -24l-71 -71q41 -58 41 -140q0 -87 -46 -147l76 -75l-24 -25l-76 75q-56 -48 -142 -48t-142 48zM311 146q80 0 121.5 51.5t41.5 137.5q0 87 -41 138t-122 51t-122 -51
t-41 -138t41 -138t122 -51z" />
    <glyph glyph-name="yen" unicode="&#xa5;" 
d="M219 0l40 190h-189l6 30h190l11 52l-14 50h-164l6 31h150l-87 318l1 5h61l91 -352h6l237 352h55l-1 -5l-223 -318h150l-6 -31h-166l-32 -46l-12 -56h187l-6 -30h-188l-40 -190h-63z" />
    <glyph glyph-name="brokenbar" unicode="&#xa6;" horiz-adv-x="349" 
d="M175 400v410h49v-410h-49zM175 -130v410h49v-410h-49z" />
    <glyph glyph-name="section" unicode="&#xa7;" horiz-adv-x="535" 
d="M21 -49q17 13 56 13l4.5 -22.5t10 -24.5t21 -26.5t37 -17.5t57.5 -8q58 0 92.5 28t41.5 80q1 5 1 14q0 35 -27 60.5t-66 43t-77.5 36t-65.5 50.5t-27 76q0 14 3 29q19 106 147 149q-73 43 -73 112q0 11 1 17q8 68 61.5 109t138.5 41q48 0 83.5 -12t54.5 -31t27.5 -38
t10.5 -38q-19 -13 -56 -13l-4.5 22.5t-10 24.5t-21 26.5t-37 17.5t-57.5 8q-58 0 -92.5 -28t-41.5 -79q-1 -5 -1 -14q0 -35 27 -61t65.5 -43.5t77 -36.5t65.5 -51t27 -76q0 -18 -2 -28q-20 -108 -148 -149q74 -45 74 -113q0 -2 -0.5 -7.5t-0.5 -8.5q-8 -68 -61.5 -109
t-138.5 -41q-48 0 -83.5 12t-54.5 31t-27.5 38t-10.5 38zM292 128q47 13 80 46t39 79q1 6 1 17q0 20 -7.5 37t-15.5 28t-27.5 24.5t-29.5 19t-37 18.5t-35 17q-47 -14 -79 -47t-38 -78q-1 -7 -1 -19q0 -20 7.5 -37t15 -27.5t27.5 -24t29 -18.5t36.5 -18.5t34.5 -16.5z" />
    <glyph glyph-name="dieresis" unicode="&#xa8;" horiz-adv-x="355" 
d="M144 638q0 19 13 31.5t33 12.5q32 0 32 -30q0 -18 -13 -31t-34 -13q-31 0 -31 30zM315 638q0 19 13 31.5t33 12.5q32 0 32 -30q0 -18 -13 -31t-34 -13q-31 0 -31 30z" />
    <glyph glyph-name="copyright" unicode="&#xa9;" horiz-adv-x="810" 
d="M562 251q5 1 14 1q18 0 36 -9q-15 -52 -59.5 -88t-118.5 -36q-94 0 -147.5 64.5t-53.5 167.5t52.5 167t146.5 64q75 0 120.5 -38.5t58.5 -89.5q-14 -11 -47 -11q-11 45 -43 78t-88 33q-71 0 -108.5 -54t-37.5 -149t39 -149.5t109 -54.5q97 0 127 104zM430 -12
q-154 0 -257.5 105.5t-103.5 256.5t103.5 256.5t257.5 105.5q153 0 256.5 -105.5t103.5 -256.5t-103.5 -256.5t-256.5 -105.5zM430 23q141 0 230.5 94t89.5 233t-89.5 233t-230.5 94t-231 -94t-90 -233t90 -233t231 -94z" />
    <glyph glyph-name="ordfeminine" unicode="&#xaa;" horiz-adv-x="342" 
d="M331 364l-46 -10q-7 15 -7 36q-42 -40 -100 -40q-45 0 -68.5 21t-23.5 57q0 10 3 24q11 49 53 73.5t99 24.5q39 0 69 -7l10 46q4 24 4 33q0 46 -55 46q-35 0 -59.5 -16t-34.5 -36q-29 2 -39 18q45 62 142 62q96 0 96 -75q0 -19 -4 -35l-31 -140q-10 -56 -10 -67
q0 -7 2 -15zM281 411l24 109q-22 6 -58 6q-89 0 -105 -74q-3 -12 -3 -21q0 -50 64 -50q45 0 78 30z" />
    <glyph glyph-name="guillemotleft" unicode="&#xab;" horiz-adv-x="571" 
d="M208 46l-127 210l1 9l218 208h47l-206 -213l114 -214h-47zM412 46l-127 210l1 9l218 208h47l-206 -213l114 -214h-47z" />
    <glyph glyph-name="logicalnot" unicode="&#xac;" 
d="M60 278v43h475v-259h-48v216h-427z" />
    <glyph glyph-name="uni00AD" unicode="&#xad;" horiz-adv-x="371" 
d="M71 274l11 50h253l-10 -50h-254z" />
    <glyph glyph-name="registered" unicode="&#xae;" horiz-adv-x="512" 
d="M320 328q-92 0 -152 62t-60 152t60 152.5t152 62.5q91 0 151.5 -62.5t60.5 -152.5t-60.5 -152t-151.5 -62zM320 356q80 0 130 53t50 133q0 79 -50 133t-130 54q-81 0 -130 -53.5t-49 -133.5t49 -133t130 -53zM248 417v256h56q102 0 102 -71q0 -59 -67 -73q15 -6 25 -24
l48 -86v-2h-37l-36 72q-12 24 -20.5 29.5t-37.5 5.5v-107h-33zM281 545h21q68 0 68 54q0 30 -15.5 41t-52.5 11h-21v-106z" />
    <glyph glyph-name="macron" unicode="&#xaf;" horiz-adv-x="367" 
d="M142 620l8 39h256l-8 -39h-256z" />
    <glyph glyph-name="degree" unicode="&#xb0;" horiz-adv-x="319" 
d="M234 479q-49 0 -82 33t-33 83q0 51 33 83.5t82 32.5t82 -32.5t33 -83.5q0 -50 -33 -83t-82 -33zM234 512q37 0 58.5 22.5t21.5 60.5t-21.5 61t-58.5 23q-36 0 -57.5 -23t-21.5 -61t21.5 -60.5t57.5 -22.5z" />
    <glyph glyph-name="plusminus" unicode="&#xb1;" 
d="M66 325v43h214v193h45v-193h215v-43h-215v-195h-45v195h-214zM66 31v43h474v-43h-474z" />
    <glyph glyph-name="two.superior" unicode="&#xb2;" horiz-adv-x="373" 
d="M100 466l7 33q1 0 30 19.5t36.5 24.5t35.5 24.5t39 29t34 29t34.5 33.5t26.5 32.5t23 36t12 35.5q2 16 2 24q0 57 -61 57q-63 0 -102 -76q-36 2 -45 13q16 37 55.5 64t97.5 27q54 0 82 -23.5t28 -64.5q0 -13 -3 -28q-13 -62 -78 -119.5t-179 -126.5v-1h214l-9 -43h-280z
" />
    <glyph glyph-name="three.superior" unicode="&#xb3;" horiz-adv-x="354" 
d="M224 656l6 29h21q108 0 121 87q2 12 2 19q0 52 -63 52q-55 0 -92 -50q-29 4 -39 16q39 63 136 63q112 0 112 -83q0 -10 -1 -16q-10 -80 -112 -100l-1 -1q84 -11 84 -82q0 -6 -2 -20q-8 -53 -52 -82t-111 -29q-52 0 -83 18t-36 44q10 10 45 20q16 -53 76 -53q44 0 71 22
t32 59q1 7 1 19q0 34 -21.5 51t-72.5 17h-21z" />
    <glyph glyph-name="acute" unicode="&#xb4;" horiz-adv-x="246" 
d="M297 713l-128 -132q-7 -3 -18 -3q-13 0 -18 3l91 132q14 4 37 4q22 0 36 -4z" />
    <glyph glyph-name="mu" unicode="&#xb5;" horiz-adv-x="516" 
d="M-10 -206l149 708q29 0 61 5l-66 -312q-9 -42 -9 -76q0 -44 21 -67t71 -23q37 0 76 18t66 43l86 412q31 0 61 5l-79 -373q-17 -83 -17 -106q0 -8 2 -18l-54 -15q-7 17 -7 41q0 12 1 20q-71 -67 -146 -67q-76 0 -107 44l-49 -234q-31 0 -60 -5z" />
    <glyph glyph-name="paragraph" unicode="&#xb6;" horiz-adv-x="632" 
d="M294 -130h-42l86 402h-19q-110 0 -162 42t-52 116q0 26 6 56q21 99 94.5 156.5t203.5 57.5h252l-176 -830h-41l168 795h-150z" />
    <glyph glyph-name="periodcentered" unicode="&#xb7;" horiz-adv-x="237" 
d="M127 259q-14 0 -23 8.5t-9 23.5q0 19 13.5 32.5t32.5 13.5q34 0 34 -32q0 -18 -13 -32t-35 -14z" />
    <glyph glyph-name="cedilla" unicode="&#xb8;" horiz-adv-x="268" 
d="M-30 -195l9 22q22 -13 58 -13q59 0 59 53q0 23 -18 33.5t-55 17.5l44 86h31l-32 -62q73 -16 73 -70q0 -38 -26.5 -61.5t-69.5 -23.5q-51 0 -73 18z" />
    <glyph glyph-name="one.superior" unicode="&#xb9;" horiz-adv-x="333" 
d="M126 466l6 29h81l69 327l-85 -19l7 31q3 1 106 31h35l-78 -370h71l-6 -29h-206z" />
    <glyph glyph-name="ordmasculine" unicode="&#xba;" horiz-adv-x="379" 
d="M94 470q0 24 6 51q17 79 66.5 126.5t124.5 47.5q63 0 94.5 -32.5t31.5 -89.5q0 -25 -6 -52q-17 -77 -67 -124.5t-126 -47.5q-62 0 -93 32.5t-31 88.5zM224 377q100 0 131 144q7 31 7 60q0 87 -77 87q-96 0 -127 -147q-8 -37 -8 -62q0 -82 74 -82z" />
    <glyph glyph-name="guillemotright" unicode="&#xbb;" horiz-adv-x="571" 
d="M83 46h-47l207 214l-116 213h48l127 -208l-2 -9zM287 46h-47l207 214l-116 213h48l127 -208l-2 -9z" />
    <glyph glyph-name="onequarter" unicode="&#xbc;" horiz-adv-x="836" 
d="M71 271l6 29h81l69 327l-85 -19l7 31q3 1 106 31h35l-78 -370h71l-6 -29h-206zM154 0l1 5l581 695h45l-1 -5l-581 -695h-45zM477 100l8 38l247 261h54l-55 -261h49l-8 -38h-49l-21 -100h-53l21 100h-193zM528 138h152l44 208h-3z" />
    <glyph glyph-name="onehalf" unicode="&#xbd;" horiz-adv-x="906" 
d="M71 271l6 29h81l69 327l-85 -19l7 31q3 1 106 31h35l-78 -370h71l-6 -29h-206zM519 0l7 33q1 0 30 19.5t36.5 24.5t35.5 24.5t39 29t34 29t34.5 33.5t26.5 32.5t23 36t12 35.5q2 16 2 24q0 57 -61 57q-63 0 -102 -76q-36 2 -45 13q16 37 55.5 64t97.5 27q54 0 82 -23.5
t28 -64.5q0 -13 -3 -28q-13 -62 -78 -119.5t-179 -126.5v-1h214l-9 -43h-280zM154 0l1 5l581 695h45l-1 -5l-581 -695h-45z" />
    <glyph glyph-name="threequarters" unicode="&#xbe;" horiz-adv-x="866" 
d="M187 461l6 29h21q108 0 121 87q2 12 2 19q0 52 -63 52q-55 0 -92 -50q-29 4 -39 16q39 63 136 63q112 0 112 -83q0 -10 -1 -16q-10 -80 -112 -100l-1 -1q84 -11 84 -82q0 -6 -2 -20q-8 -53 -52 -82t-111 -29q-52 0 -83 18t-36 44q10 10 45 20q16 -53 76 -53q44 0 71 22
t32 59q1 7 1 19q0 34 -21.5 51t-72.5 17h-21zM496 100l8 38l247 261h54l-55 -261h49l-8 -38h-49l-21 -100h-53l21 100h-193zM547 138h152l44 208h-3zM184 0l1 5l581 695h45l-1 -5l-581 -695h-45z" />
    <glyph glyph-name="questiondown" unicode="&#xbf;" horiz-adv-x="466" 
d="M308 357h41l-9 -38q-12 -52 -42.5 -90.5t-65.5 -62.5t-69 -47.5t-59.5 -60.5t-31.5 -88q-2 -22 -2 -33q0 -107 110 -107q64 0 103 36.5t56 79.5q40 0 50 -17q-19 -51 -76 -92.5t-133 -41.5q-90 0 -132.5 41.5t-42.5 108.5q0 17 1 26q6 52 33.5 91.5t65 66t75.5 52
t71.5 63t47.5 84.5zM359 512q14 0 23 -8.5t9 -23.5q0 -20 -13.5 -33t-32.5 -13q-34 0 -34 32q0 18 13 32t35 14z" />
    <glyph glyph-name="Agrave" unicode="&#xc0;" horiz-adv-x="587" 
d="M-20 0v5l379 695h74l84 -695v-5h-60l-29 246h-262l-132 -246h-54zM188 287h235l-19 164q-18 153 -20 203h-3q-16 -34 -107 -206zM386 752l-68 112q9 3 36 3q26 0 37 -3l30 -112q-6 -4 -18 -4q-9 0 -17 4z" />
    <glyph glyph-name="Aacute" unicode="&#xc1;" horiz-adv-x="587" 
d="M-20 0v5l379 695h74l84 -695v-5h-60l-29 246h-262l-132 -246h-54zM188 287h235l-19 164q-18 153 -20 203h-3q-16 -34 -107 -206zM540 864l-117 -112q-10 -4 -19 -4q-11 0 -17 4l80 112q11 3 37 3t36 -3z" />
    <glyph glyph-name="Acircumflex" unicode="&#xc2;" horiz-adv-x="587" 
d="M-20 0v5l379 695h74l84 -695v-5h-60l-29 246h-262l-132 -246h-54zM188 287h235l-19 164q-18 153 -20 203h-3q-16 -34 -107 -206zM424 831l-99 -81q-7 -3 -17 -3q-14 0 -18 3l105 114q11 3 36 3t36 -3l56 -114q-5 -3 -17 -3q-8 0 -14 3l-66 81h-2z" />
    <glyph glyph-name="Atilde" unicode="&#xc3;" horiz-adv-x="587" 
d="M-20 0v5l379 695h74l84 -695v-5h-60l-29 246h-262l-132 -246h-54zM188 287h235l-19 164q-18 153 -20 203h-3q-16 -34 -107 -206zM285 763q-8 -2 -14 -2q-9 0 -15 2q35 60 61 78t56 18q27 0 58.5 -29.5t51.5 -29.5q35 0 73 58q4 1 16 1q10 0 12 -1q-33 -58 -58.5 -77.5
t-49.5 -19.5q-30 0 -62.5 29.5t-55.5 29.5q-37 0 -73 -57z" />
    <glyph glyph-name="Adieresis" unicode="&#xc4;" horiz-adv-x="587" 
d="M-20 0v5l379 695h74l84 -695v-5h-60l-29 246h-262l-132 -246h-54zM188 287h235l-19 164q-18 153 -20 203h-3q-16 -34 -107 -206zM308 758q-31 0 -31 31q0 19 12.5 31t32.5 12q32 0 32 -29q0 -18 -12.5 -31.5t-33.5 -13.5zM497 758q-30 0 -30 31q0 19 12.5 31t32.5 12
q32 0 32 -29q0 -18 -13 -31.5t-34 -13.5z" />
    <glyph glyph-name="Aring" unicode="&#xc5;" horiz-adv-x="587" 
d="M-20 0v5l379 695h74l84 -695v-5h-60l-29 246h-262l-132 -246h-54zM188 287h235l-19 164q-18 153 -20 203h-3q-16 -34 -107 -206zM339 787q0 39 26 66.5t67 27.5q30 0 47 -17t17 -45q0 -38 -24.5 -65.5t-66.5 -27.5q-32 0 -49 16.5t-17 44.5zM406 750q25 0 41.5 19
t16.5 49q0 38 -37 38q-25 0 -40.5 -19.5t-15.5 -49.5q0 -37 35 -37z" />
    <glyph glyph-name="AE" unicode="&#xc6;" horiz-adv-x="798" 
d="M-22 0v5l473 695h389l-8 -40h-291l-60 -280h265v-3q0 -20 -8 -38h-265l-64 -299h306l-8 -40h-369l52 246h-193l-164 -246h-55zM225 287h173l80 374h-3q-19 -33 -140 -211z" />
    <glyph glyph-name="Ccedilla" unicode="&#xc7;" horiz-adv-x="638" 
d="M179 -195l9 22q22 -13 58 -13q59 0 59 53q0 23 -18 33.5t-55 17.5l36 71q-97 9 -146 74.5t-49 172.5q0 56 12 115q33 163 128.5 262t232.5 99q101 0 150.5 -52.5t55.5 -135.5q-14 -11 -59 -11q-5 80 -39.5 122t-111.5 42q-104 0 -179 -85.5t-107 -239.5q-15 -72 -15 -131
q0 -95 41 -146.5t120 -51.5q77 0 136 49t95 131h6q41 0 55 -11q-91 -204 -296 -204l-23 -46q73 -16 73 -70q0 -38 -26.5 -61.5t-69.5 -23.5q-51 0 -73 18z" />
    <glyph glyph-name="Egrave" unicode="&#xc8;" horiz-adv-x="505" 
d="M45 0l148 700h353l-8 -40h-291l-60 -280h265v-3q0 -25 -8 -38h-265l-64 -299h306l-8 -40h-368zM373 752l-68 112q9 3 36 3t37 -3l30 -112q-6 -4 -18 -4q-9 0 -17 4z" />
    <glyph glyph-name="Eacute" unicode="&#xc9;" horiz-adv-x="505" 
d="M45 0l148 700h353l-8 -40h-291l-60 -280h265v-3q0 -25 -8 -38h-265l-64 -299h306l-8 -40h-368zM502 864l-117 -112q-10 -4 -19 -4q-11 0 -17 4l80 112q10 3 37 3q26 0 36 -3z" />
    <glyph glyph-name="Ecircumflex" unicode="&#xca;" horiz-adv-x="505" 
d="M45 0l148 700h353l-8 -40h-291l-60 -280h265v-3q0 -25 -8 -38h-265l-64 -299h306l-8 -40h-368zM401 831l-99 -81q-8 -3 -17 -3q-13 0 -18 3l105 114q10 3 36 3t36 -3l56 -114q-4 -3 -17 -3q-8 0 -14 3l-66 81h-2z" />
    <glyph glyph-name="Edieresis" unicode="&#xcb;" horiz-adv-x="505" 
d="M45 0l148 700h353l-8 -40h-291l-60 -280h265v-3q0 -25 -8 -38h-265l-64 -299h306l-8 -40h-368zM286 758q-31 0 -31 31q0 19 12.5 31t32.5 12q32 0 32 -29q0 -18 -12.5 -31.5t-33.5 -13.5zM475 758q-30 0 -30 31q0 19 12.5 31t32.5 12q32 0 32 -29q0 -18 -13 -31.5
t-34 -13.5z" />
    <glyph glyph-name="Igrave" unicode="&#xcc;" horiz-adv-x="242" 
d="M45 0l148 700h62l-148 -700h-62zM220 752l-68 112q9 3 36 3q26 0 37 -3l30 -112q-6 -4 -18 -4q-9 0 -17 4z" />
    <glyph glyph-name="Iacute" unicode="&#xcd;" horiz-adv-x="242" 
d="M45 0l148 700h62l-148 -700h-62zM369 864l-117 -112q-10 -4 -19 -4q-11 0 -17 4l80 112q10 3 37 3q25 0 36 -3z" />
    <glyph glyph-name="Icircumflex" unicode="&#xce;" horiz-adv-x="242" 
d="M45 0l148 700h62l-148 -700h-62zM254 831l-99 -81q-7 -3 -17 -3q-14 0 -18 3l105 114q10 3 36 3q25 0 36 -3l56 -114q-5 -3 -17 -3q-8 0 -14 3l-66 81h-2z" />
    <glyph glyph-name="Idieresis" unicode="&#xcf;" horiz-adv-x="242" 
d="M45 0l148 700h62l-148 -700h-62zM141 758q-31 0 -31 31q0 19 12.5 31t32.5 12q32 0 32 -29q0 -18 -12.5 -31.5t-33.5 -13.5zM330 758q-30 0 -30 31q0 19 12.5 31t32.5 12q32 0 32 -29q0 -18 -13 -31.5t-34 -13.5z" />
    <glyph glyph-name="Eth" unicode="&#xd0;" horiz-adv-x="647" 
d="M67 0l71 338h-78l9 39h77l69 323h156q261 0 261 -233q0 -52 -13 -116q-71 -351 -395 -351h-157zM136 35h94q129 0 206.5 79.5t111.5 236.5q15 70 15 123q0 191 -198 191h-95l-62 -288h186l-8 -39h-186z" />
    <glyph glyph-name="Ntilde" unicode="&#xd1;" horiz-adv-x="685" 
d="M45 0l148 700h71l186 -446q52 -125 66 -183h3q10 72 38 204l89 425h52l-148 -700h-57l-195 463q-60 142 -66 180h-3q-10 -68 -40 -209l-92 -434h-52zM346 763q-8 -2 -14 -2q-9 0 -15 2q35 60 61 78t56 18q27 0 58.5 -29.5t51.5 -29.5q35 0 73 58q4 1 16 1q10 0 12 -1
q-33 -58 -58.5 -77.5t-49.5 -19.5q-30 0 -62.5 29.5t-55.5 29.5q-37 0 -73 -57z" />
    <glyph glyph-name="Ograve" unicode="&#xd2;" horiz-adv-x="687" 
d="M298 -12q-113 0 -169.5 65t-56.5 180q0 57 13 118q34 164 129 262.5t232 98.5q113 0 170 -64.5t57 -179.5q0 -49 -13 -117q-32 -163 -128 -263t-234 -100zM302 23q104 0 178.5 86.5t107.5 241.5q16 74 16 143q0 183 -162 183q-105 0 -180 -86t-106 -240q-16 -80 -16 -134
q0 -194 162 -194zM465 752l-68 112q9 3 36 3t37 -3l30 -112q-6 -4 -18 -4q-9 0 -17 4z" />
    <glyph glyph-name="Oacute" unicode="&#xd3;" horiz-adv-x="687" 
d="M298 -12q-113 0 -169.5 65t-56.5 180q0 57 13 118q34 164 129 262.5t232 98.5q113 0 170 -64.5t57 -179.5q0 -49 -13 -117q-32 -163 -128 -263t-234 -100zM302 23q104 0 178.5 86.5t107.5 241.5q16 74 16 143q0 183 -162 183q-105 0 -180 -86t-106 -240q-16 -80 -16 -134
q0 -194 162 -194zM610 864l-117 -112q-10 -4 -19 -4q-11 0 -17 4l80 112q11 3 37 3t36 -3z" />
    <glyph glyph-name="Ocircumflex" unicode="&#xd4;" horiz-adv-x="687" 
d="M298 -12q-113 0 -169.5 65t-56.5 180q0 57 13 118q34 164 129 262.5t232 98.5q113 0 170 -64.5t57 -179.5q0 -49 -13 -117q-32 -163 -128 -263t-234 -100zM302 23q104 0 178.5 86.5t107.5 241.5q16 74 16 143q0 183 -162 183q-105 0 -180 -86t-106 -240q-16 -80 -16 -134
q0 -194 162 -194zM484 831l-99 -81q-7 -3 -17 -3q-14 0 -18 3l105 114q11 3 36 3t36 -3l56 -114q-5 -3 -17 -3q-8 0 -14 3l-66 81h-2z" />
    <glyph glyph-name="Otilde" unicode="&#xd5;" horiz-adv-x="687" 
d="M298 -12q-113 0 -169.5 65t-56.5 180q0 57 13 118q34 164 129 262.5t232 98.5q113 0 170 -64.5t57 -179.5q0 -49 -13 -117q-32 -163 -128 -263t-234 -100zM302 23q104 0 178.5 86.5t107.5 241.5q16 74 16 143q0 183 -162 183q-105 0 -180 -86t-106 -240q-16 -80 -16 -134
q0 -194 162 -194zM351 763q-8 -2 -14 -2q-9 0 -15 2q35 60 61 78t56 18q27 0 58.5 -29.5t51.5 -29.5q35 0 73 58q4 1 16 1q10 0 12 -1q-33 -58 -58.5 -77.5t-49.5 -19.5q-30 0 -62.5 29.5t-55.5 29.5q-37 0 -73 -57z" />
    <glyph glyph-name="Odieresis" unicode="&#xd6;" horiz-adv-x="687" 
d="M298 -12q-113 0 -169.5 65t-56.5 180q0 57 13 118q34 164 129 262.5t232 98.5q113 0 170 -64.5t57 -179.5q0 -49 -13 -117q-32 -163 -128 -263t-234 -100zM302 23q104 0 178.5 86.5t107.5 241.5q16 74 16 143q0 183 -162 183q-105 0 -180 -86t-106 -240q-16 -80 -16 -134
q0 -194 162 -194zM369 758q-31 0 -31 31q0 19 12.5 31t32.5 12q32 0 32 -29q0 -18 -12.5 -31.5t-33.5 -13.5zM558 758q-30 0 -30 31q0 19 12.5 31t32.5 12q32 0 32 -29q0 -18 -13 -31.5t-34 -13.5z" />
    <glyph glyph-name="multiply" unicode="&#xd7;" 
d="M113 79l-30 31l188 188l-190 190l33 31l189 -189l189 189l31 -30l-190 -190l190 -189l-31 -32l-191 189z" />
    <glyph glyph-name="Oslash" unicode="&#xd8;" horiz-adv-x="687" 
d="M40 -5l71 80q-39 61 -39 158q0 57 13 118q34 164 129 262.5t232 98.5q113 0 171 -67l67 75l28 -20l-74 -84q35 -59 35 -148q0 -49 -13 -117q-32 -163 -128 -263t-234 -100q-108 0 -165 59l-65 -73zM153 123l428 481q-39 73 -139 73q-105 0 -180 -86t-106 -240
q-16 -80 -16 -134q0 -56 13 -94zM595 568l-426 -480q41 -65 133 -65q104 0 178.5 86.5t107.5 241.5q16 74 16 143q0 41 -9 74z" />
    <glyph glyph-name="Ugrave" unicode="&#xd9;" horiz-adv-x="669" 
d="M102 289l87 411h62l-85 -405q-14 -70 -14 -121q0 -76 39 -110t119 -34q90 0 149 59t88 199l88 412h52l-88 -413q-33 -155 -102 -227t-192 -72q-112 0 -164 47t-52 142q0 51 13 112zM457 752l-68 112q9 3 36 3t37 -3l30 -112q-6 -4 -18 -4q-9 0 -17 4z" />
    <glyph glyph-name="Uacute" unicode="&#xda;" horiz-adv-x="669" 
d="M102 289l87 411h62l-85 -405q-14 -70 -14 -121q0 -76 39 -110t119 -34q90 0 149 59t88 199l88 412h52l-88 -413q-33 -155 -102 -227t-192 -72q-112 0 -164 47t-52 142q0 51 13 112zM573 864l-117 -112q-10 -4 -19 -4q-11 0 -17 4l80 112q11 3 37 3q25 0 36 -3z" />
    <glyph glyph-name="Ucircumflex" unicode="&#xdb;" horiz-adv-x="669" 
d="M102 289l87 411h62l-85 -405q-14 -70 -14 -121q0 -76 39 -110t119 -34q90 0 149 59t88 199l88 412h52l-88 -413q-33 -155 -102 -227t-192 -72q-112 0 -164 47t-52 142q0 51 13 112zM470 831l-99 -81q-8 -3 -17 -3q-14 0 -18 3l105 114q11 3 36 3t36 -3l56 -114
q-5 -3 -17 -3q-8 0 -14 3l-66 81h-2z" />
    <glyph glyph-name="Udieresis" unicode="&#xdc;" horiz-adv-x="669" 
d="M102 289l87 411h62l-85 -405q-14 -70 -14 -121q0 -76 39 -110t119 -34q90 0 149 59t88 199l88 412h52l-88 -413q-33 -155 -102 -227t-192 -72q-112 0 -164 47t-52 142q0 51 13 112zM357 758q-31 0 -31 31q0 19 12.5 31t32.5 12q32 0 32 -29q0 -18 -12.5 -31.5
t-33.5 -13.5zM546 758q-30 0 -30 31q0 19 12.5 31t32.5 12q32 0 32 -29q0 -18 -13 -31.5t-34 -13.5z" />
    <glyph glyph-name="Yacute" unicode="&#xdd;" horiz-adv-x="543" 
d="M195 0l57 267l-121 428v5h61l103 -382h3l266 382h53v-5l-303 -425l-57 -270h-62zM508 864l-117 -112q-10 -4 -19 -4q-11 0 -17 4l80 112q10 3 37 3q26 0 36 -3z" />
    <glyph glyph-name="Thorn" unicode="&#xde;" horiz-adv-x="538" 
d="M45 0l148 700h62l-28 -131h60q120 0 173.5 -41.5t53.5 -122.5q0 -121 -79 -183.5t-218 -62.5h-77l-33 -159h-62zM148 195h60q238 0 238 216q0 64 -36.5 93.5t-121.5 29.5h-68z" />
    <glyph glyph-name="germandbls" unicode="&#xdf;" horiz-adv-x="534" 
d="M31 0l100 471q25 117 82.5 176t156.5 59q79 0 120.5 -38t41.5 -105q0 -73 -46 -123t-127 -71v-2q132 -26 132 -150q0 -99 -68 -162t-178 -63q-79 0 -109 17l6 35q28 -19 96 -19q92 0 139.5 52.5t47.5 144.5q0 65 -35.5 96.5t-124.5 31.5h-16l7 34h20q89 0 143.5 48
t54.5 136q0 105 -109 105q-71 0 -110.5 -44.5t-63.5 -156.5l-100 -472h-60z" />
    <glyph glyph-name="agrave" unicode="&#xe0;" horiz-adv-x="514" 
d="M345 41v10q-65 -61 -150 -61q-146 0 -146 166q0 39 10 92q22 117 87 190.5t162 73.5q84 0 123 -59l10 49q3 0 14 1t23 2t20 2l-79 -376q-16 -78 -16 -105q0 -12 1 -16l-52 -15q-7 17 -7 46zM349 81l73 348q-31 49 -106 49q-76 0 -121.5 -59t-68.5 -168q-12 -55 -12 -108
q0 -119 103 -119q81 0 132 57zM334 581l-72 132q14 4 37 4t37 -4l33 -132q-6 -3 -19 -3q-12 0 -16 3z" />
    <glyph glyph-name="aacute" unicode="&#xe1;" horiz-adv-x="514" 
d="M345 41v10q-65 -61 -150 -61q-146 0 -146 166q0 39 10 92q22 117 87 190.5t162 73.5q84 0 123 -59l10 49q3 0 14 1t23 2t20 2l-79 -376q-16 -78 -16 -105q0 -12 1 -16l-52 -15q-7 17 -7 46zM349 81l73 348q-31 49 -106 49q-76 0 -121.5 -59t-68.5 -168q-12 -55 -12 -108
q0 -119 103 -119q81 0 132 57zM458 713l-128 -132q-8 -3 -18 -3q-14 0 -18 3l91 132q14 4 37 4q22 0 36 -4z" />
    <glyph glyph-name="acircumflex" unicode="&#xe2;" horiz-adv-x="514" 
d="M345 41v10q-65 -61 -150 -61q-146 0 -146 166q0 39 10 92q22 117 87 190.5t162 73.5q84 0 123 -59l10 49q3 0 14 1t23 2t20 2l-79 -376q-16 -78 -16 -105q0 -12 1 -16l-52 -15q-7 17 -7 46zM349 81l73 348q-31 49 -106 49q-76 0 -121.5 -59t-68.5 -168q-12 -55 -12 -108
q0 -119 103 -119q81 0 132 57zM355 683l-105 -102q-8 -3 -18 -3q-14 0 -18 3l111 132q9 4 36 4q28 0 36 -4l54 -132q-6 -3 -19 -3q-8 0 -13 3l-62 102h-2z" />
    <glyph glyph-name="atilde" unicode="&#xe3;" horiz-adv-x="514" 
d="M345 41v10q-65 -61 -150 -61q-146 0 -146 166q0 39 10 92q22 117 87 190.5t162 73.5q84 0 123 -59l10 49q3 0 14 1t23 2t20 2l-79 -376q-16 -78 -16 -105q0 -12 1 -16l-52 -15q-7 17 -7 46zM349 81l73 348q-31 49 -106 49q-76 0 -121.5 -59t-68.5 -168q-12 -55 -12 -108
q0 -119 103 -119q81 0 132 57zM214 601q-8 -2 -14 -2q-10 0 -14 2q33 60 59.5 78.5t56.5 18.5q27 0 58 -29.5t51 -29.5q35 0 75 57q6 2 14 2q9 0 13 -2q-33 -58 -58.5 -77t-50.5 -19q-30 0 -62 29.5t-56 29.5q-18 0 -38 -18t-34 -40z" />
    <glyph glyph-name="adieresis" unicode="&#xe4;" horiz-adv-x="514" 
d="M345 41v10q-65 -61 -150 -61q-146 0 -146 166q0 39 10 92q22 117 87 190.5t162 73.5q84 0 123 -59l10 49q3 0 14 1t23 2t20 2l-79 -376q-16 -78 -16 -105q0 -12 1 -16l-52 -15q-7 17 -7 46zM349 81l73 348q-31 49 -106 49q-76 0 -121.5 -59t-68.5 -168q-12 -55 -12 -108
q0 -119 103 -119q81 0 132 57zM223 638q0 19 13 31.5t33 12.5q32 0 32 -30q0 -18 -13 -31t-34 -13q-31 0 -31 30zM394 638q0 19 13 31.5t33 12.5q32 0 32 -30q0 -18 -13 -31t-34 -13q-31 0 -31 30z" />
    <glyph glyph-name="aring" unicode="&#xe5;" horiz-adv-x="514" 
d="M345 41v10q-65 -61 -150 -61q-146 0 -146 166q0 39 10 92q22 117 87 190.5t162 73.5q84 0 123 -59l10 49q3 0 14 1t23 2t20 2l-79 -376q-16 -78 -16 -105q0 -12 1 -16l-52 -15q-7 17 -7 46zM349 81l73 348q-31 49 -106 49q-76 0 -121.5 -59t-68.5 -168q-12 -55 -12 -108
q0 -119 103 -119q81 0 132 57zM257 624q0 39 26 66.5t67 27.5q30 0 47 -17t17 -45q0 -38 -24.5 -65.5t-66.5 -27.5q-32 0 -49 16.5t-17 44.5zM324 587q25 0 41.5 19t16.5 49q0 38 -37 38q-25 0 -40.5 -19.5t-15.5 -49.5q0 -37 35 -37z" />
    <glyph glyph-name="ae" unicode="&#xe6;" horiz-adv-x="806" 
d="M365 280l12 61q9 45 9 66q0 37 -20 56t-69 19q-52 0 -89.5 -25.5t-54.5 -54.5q-38 4 -47 22q29 43 81 65.5t111 22.5q124 0 142 -83q73 83 183 83q82 0 120.5 -42.5t38.5 -111.5q0 -50 -15 -100h-340q-12 -55 -12 -100q0 -138 117 -138q91 0 147 100q39 0 55 -13
q-68 -118 -205 -118q-121 0 -158 90q-79 -89 -192 -89q-70 0 -107 33t-37 91q0 89 63 133.5t157 44.5q68 0 110 -12zM360 111q-7 28 -7 65q0 35 7 75q-32 12 -91 12q-74 0 -122.5 -35.5t-48.5 -111.5q0 -92 97 -92q92 0 165 87zM433 289h280q9 45 9 81q0 112 -102 112
q-67 0 -115 -49.5t-72 -143.5z" />
    <glyph glyph-name="ccedilla" unicode="&#xe7;" horiz-adv-x="487" 
d="M109 -195l9 22q22 -13 58 -13q59 0 59 53q0 23 -18 33.5t-55 17.5l37 73q-74 9 -111 57.5t-37 127.5q0 37 7 75q22 118 92.5 189.5t177.5 71.5q81 0 117.5 -37t40.5 -90q-13 -10 -55 -10q-6 107 -102 107q-156 0 -204 -231q-11 -52 -11 -98q0 -133 122 -133q93 0 148 102
h6q38 0 50 -11q-25 -52 -77 -87t-129 -35h-5l-24 -47q73 -16 73 -70q0 -38 -26.5 -61.5t-69.5 -23.5q-51 0 -73 18z" />
    <glyph glyph-name="egrave" unicode="&#xe8;" horiz-adv-x="504" 
d="M465 258h-340q-12 -55 -12 -100q0 -138 117 -138q91 0 147 100q39 0 55 -13q-69 -118 -205 -118q-90 0 -133 50t-43 136q0 36 8 82q21 115 90 185t172 70q82 0 120.5 -42.5t38.5 -111.5q0 -50 -15 -100zM131 289h280q9 45 9 80q0 113 -102 113q-67 0 -115 -49.5
t-72 -143.5zM342 581l-72 132q14 4 37 4t37 -4l33 -132q-6 -3 -19 -3q-12 0 -16 3z" />
    <glyph glyph-name="eacute" unicode="&#xe9;" horiz-adv-x="504" 
d="M465 258h-340q-12 -55 -12 -100q0 -138 117 -138q91 0 147 100q39 0 55 -13q-69 -118 -205 -118q-90 0 -133 50t-43 136q0 36 8 82q21 115 90 185t172 70q82 0 120.5 -42.5t38.5 -111.5q0 -50 -15 -100zM131 289h280q9 45 9 80q0 113 -102 113q-67 0 -115 -49.5
t-72 -143.5zM479 713l-128 -132q-8 -3 -18 -3q-13 0 -18 3l91 132q14 4 37 4q22 0 36 -4z" />
    <glyph glyph-name="ecircumflex" unicode="&#xea;" horiz-adv-x="504" 
d="M465 258h-340q-12 -55 -12 -100q0 -138 117 -138q91 0 147 100q39 0 55 -13q-69 -118 -205 -118q-90 0 -133 50t-43 136q0 36 8 82q21 115 90 185t172 70q82 0 120.5 -42.5t38.5 -111.5q0 -50 -15 -100zM131 289h280q9 45 9 80q0 113 -102 113q-67 0 -115 -49.5
t-72 -143.5zM365 683l-105 -102q-8 -3 -18 -3q-14 0 -18 3l111 132q9 4 36 4q28 0 36 -4l54 -132q-6 -3 -19 -3q-8 0 -13 3l-62 102h-2z" />
    <glyph glyph-name="edieresis" unicode="&#xeb;" horiz-adv-x="504" 
d="M465 258h-340q-12 -55 -12 -100q0 -138 117 -138q91 0 147 100q39 0 55 -13q-69 -118 -205 -118q-90 0 -133 50t-43 136q0 36 8 82q21 115 90 185t172 70q82 0 120.5 -42.5t38.5 -111.5q0 -50 -15 -100zM131 289h280q9 45 9 80q0 113 -102 113q-67 0 -115 -49.5
t-72 -143.5zM226 638q0 19 13 31.5t33 12.5q32 0 32 -30q0 -18 -13 -31t-34 -13q-31 0 -31 30zM397 638q0 19 13 31.5t33 12.5q32 0 32 -30q0 -18 -13 -31t-34 -13q-31 0 -31 30z" />
    <glyph glyph-name="igrave" unicode="&#xec;" horiz-adv-x="212" 
d="M32 0l105 502q29 0 61 5l-85 -401q-16 -72 -16 -97q0 -7 1 -9h-66zM174 581l-72 132q14 4 37 4t37 -4l33 -132q-6 -3 -19 -3q-12 0 -16 3z" />
    <glyph glyph-name="iacute" unicode="&#xed;" horiz-adv-x="212" 
d="M32 0l105 502q29 0 61 5l-85 -401q-16 -72 -16 -97q0 -7 1 -9h-66zM326 713l-128 -132q-8 -3 -18 -3q-14 0 -18 3l91 132q14 4 37 4q22 0 36 -4z" />
    <glyph glyph-name="icircumflex" unicode="&#xee;" horiz-adv-x="212" 
d="M32 0l105 502q29 0 61 5l-85 -401q-16 -72 -16 -97q0 -7 1 -9h-66zM206 683l-105 -102q-7 -3 -18 -3q-13 0 -18 3l111 132q9 4 36 4q28 0 36 -4l54 -132q-6 -3 -19 -3q-9 0 -13 3l-62 102h-2z" />
    <glyph glyph-name="idieresis" unicode="&#xef;" horiz-adv-x="212" 
d="M32 0l105 502q29 0 61 5l-85 -401q-16 -72 -16 -97q0 -7 1 -9h-66zM72 638q0 19 13 31.5t33 12.5q32 0 32 -30q0 -18 -13 -31t-34 -13q-31 0 -31 30zM243 638q0 19 13 31.5t33 12.5q32 0 32 -30q0 -18 -13 -31t-34 -13q-31 0 -31 30z" />
    <glyph glyph-name="eth" unicode="&#xf0;" horiz-adv-x="551" 
d="M274 538l-2 26l144 38q-38 76 -96 110h66q51 -35 84 -95l112 30l2 -27l-102 -27q35 -81 35 -184q0 -65 -13 -131q-25 -130 -98.5 -209.5t-181.5 -79.5q-87 0 -131.5 46t-44.5 127q0 35 7 69q21 109 90.5 176.5t170.5 67.5q56 0 93 -18t51 -45q0 87 -33 166zM224 20
q81 0 135.5 67.5t74.5 164.5q9 42 9 73q0 120 -124 120q-79 0 -129 -57.5t-69 -157.5q-9 -45 -9 -82q0 -128 112 -128z" />
    <glyph glyph-name="ntilde" unicode="&#xf1;" horiz-adv-x="527" 
d="M31 0l105 502q25 0 58 5l-15 -67q27 29 72.5 50.5t97.5 21.5q134 0 134 -124q0 -30 -8 -68l-46 -214q-16 -74 -16 -97q0 -7 1 -9h-67l65 307q10 48 10 82q0 86 -94 86q-44 0 -84.5 -18t-66.5 -43l-88 -414h-58zM221 601q-8 -2 -14 -2q-10 0 -14 2q33 60 59.5 78.5
t56.5 18.5q27 0 58 -29.5t51 -29.5q35 0 75 57q6 2 14 2q9 0 13 -2q-33 -58 -58.5 -77t-50.5 -19q-29 0 -62 29.5t-56 29.5q-18 0 -38 -18t-34 -40z" />
    <glyph glyph-name="ograve" unicode="&#xf2;" horiz-adv-x="551" 
d="M233 -11q-90 0 -136.5 51.5t-46.5 137.5q0 33 8 73q24 119 94 190t183 71q90 0 136 -50t46 -136q0 -33 -8 -75q-23 -116 -95.5 -189t-180.5 -73zM233 20q82 0 135 61.5t75 169.5q11 53 11 94q0 137 -123 137q-81 0 -132.5 -61.5t-74.5 -170.5q-11 -53 -11 -93
q0 -137 120 -137zM346 581l-72 132q14 4 37 4t37 -4l33 -132q-6 -3 -19 -3q-12 0 -16 3z" />
    <glyph glyph-name="oacute" unicode="&#xf3;" horiz-adv-x="551" 
d="M233 -11q-90 0 -136.5 51.5t-46.5 137.5q0 33 8 73q24 119 94 190t183 71q90 0 136 -50t46 -136q0 -33 -8 -75q-23 -116 -95.5 -189t-180.5 -73zM233 20q82 0 135 61.5t75 169.5q11 53 11 94q0 137 -123 137q-81 0 -132.5 -61.5t-74.5 -170.5q-11 -53 -11 -93
q0 -137 120 -137zM510 713l-128 -132q-8 -3 -18 -3q-14 0 -18 3l91 132q14 4 37 4q22 0 36 -4z" />
    <glyph glyph-name="ocircumflex" unicode="&#xf4;" horiz-adv-x="551" 
d="M233 -11q-90 0 -136.5 51.5t-46.5 137.5q0 33 8 73q24 119 94 190t183 71q90 0 136 -50t46 -136q0 -33 -8 -75q-23 -116 -95.5 -189t-180.5 -73zM233 20q82 0 135 61.5t75 169.5q11 53 11 94q0 137 -123 137q-81 0 -132.5 -61.5t-74.5 -170.5q-11 -53 -11 -93
q0 -137 120 -137zM376 683l-105 -102q-7 -3 -18 -3q-13 0 -18 3l111 132q9 4 36 4q28 0 36 -4l54 -132q-6 -3 -19 -3q-9 0 -13 3l-62 102h-2z" />
    <glyph glyph-name="otilde" unicode="&#xf5;" horiz-adv-x="551" 
d="M233 -11q-90 0 -136.5 51.5t-46.5 137.5q0 33 8 73q24 119 94 190t183 71q90 0 136 -50t46 -136q0 -33 -8 -75q-23 -116 -95.5 -189t-180.5 -73zM233 20q82 0 135 61.5t75 169.5q11 53 11 94q0 137 -123 137q-81 0 -132.5 -61.5t-74.5 -170.5q-11 -53 -11 -93
q0 -137 120 -137zM232 601q-8 -2 -14 -2q-10 0 -14 2q33 60 59.5 78.5t56.5 18.5q27 0 58 -29.5t51 -29.5q35 0 75 57q6 2 14 2q9 0 13 -2q-33 -58 -58.5 -77t-50.5 -19q-30 0 -62 29.5t-56 29.5q-18 0 -38 -18t-34 -40z" />
    <glyph glyph-name="odieresis" unicode="&#xf6;" horiz-adv-x="551" 
d="M233 -11q-90 0 -136.5 51.5t-46.5 137.5q0 33 8 73q24 119 94 190t183 71q90 0 136 -50t46 -136q0 -33 -8 -75q-23 -116 -95.5 -189t-180.5 -73zM233 20q82 0 135 61.5t75 169.5q11 53 11 94q0 137 -123 137q-81 0 -132.5 -61.5t-74.5 -170.5q-11 -53 -11 -93
q0 -137 120 -137zM242 638q0 19 13 31.5t33 12.5q32 0 32 -30q0 -18 -13 -31t-34 -13q-31 0 -31 30zM413 638q0 19 13 31.5t33 12.5q32 0 32 -30q0 -18 -13 -31t-34 -13q-31 0 -31 30z" />
    <glyph glyph-name="divide" unicode="&#xf7;" 
d="M302 107q-17 0 -28 11t-11 28t11 28t28 11t28 -11t11 -28t-11 -28t-28 -11zM302 414q-17 0 -28 11t-11 28t11 28t28 11t28 -11t11 -28t-11 -28t-28 -11zM65 278v43h474v-43h-474z" />
    <glyph glyph-name="oslash" unicode="&#xf8;" horiz-adv-x="551" 
d="M30 2l52 56q-32 49 -32 119q0 32 8 74q25 119 94.5 190t182.5 71q83 0 130 -44l43 46l26 -21l-48 -51q30 -47 30 -117q0 -38 -7 -74q-23 -116 -95.5 -189t-180.5 -73q-82 0 -129 44l-47 -50zM119 98l314 336q-29 48 -101 48q-82 0 -134 -61.5t-75 -169.5q-11 -53 -11 -94
q0 -35 7 -59zM447 400l-313 -335q30 -46 99 -46q82 0 135 62t75 170q10 47 10 92q0 31 -6 57z" />
    <glyph glyph-name="ugrave" unicode="&#xf9;" horiz-adv-x="515" 
d="M69 191l65 311q29 0 61 5l-64 -303q-11 -50 -11 -87q0 -45 21 -67t72 -22q40 0 78 18.5t63 43.5l86 412q29 0 61 5l-79 -373q-17 -80 -17 -104q0 -10 2 -20l-54 -15q-7 17 -7 44q0 6 1 17q-69 -67 -155 -67q-133 0 -133 124q0 31 10 78zM324 581l-72 132q14 4 37 4t37 -4
l33 -132q-6 -3 -19 -3q-12 0 -16 3z" />
    <glyph glyph-name="uacute" unicode="&#xfa;" horiz-adv-x="515" 
d="M69 191l65 311q29 0 61 5l-64 -303q-11 -50 -11 -87q0 -45 21 -67t72 -22q40 0 78 18.5t63 43.5l86 412q29 0 61 5l-79 -373q-17 -80 -17 -104q0 -10 2 -20l-54 -15q-7 17 -7 44q0 6 1 17q-69 -67 -155 -67q-133 0 -133 124q0 31 10 78zM473 713l-128 -132q-7 -3 -18 -3
q-13 0 -18 3l91 132q14 4 37 4q22 0 36 -4z" />
    <glyph glyph-name="ucircumflex" unicode="&#xfb;" horiz-adv-x="515" 
d="M69 191l65 311q29 0 61 5l-64 -303q-11 -50 -11 -87q0 -45 21 -67t72 -22q40 0 78 18.5t63 43.5l86 412q29 0 61 5l-79 -373q-17 -80 -17 -104q0 -10 2 -20l-54 -15q-7 17 -7 44q0 6 1 17q-69 -67 -155 -67q-133 0 -133 124q0 31 10 78zM361 683l-105 -102q-8 -3 -18 -3
q-14 0 -18 3l111 132q9 4 36 4q28 0 36 -4l54 -132q-6 -3 -19 -3q-8 0 -13 3l-62 102h-2z" />
    <glyph glyph-name="udieresis" unicode="&#xfc;" horiz-adv-x="515" 
d="M69 191l65 311q29 0 61 5l-64 -303q-11 -50 -11 -87q0 -45 21 -67t72 -22q40 0 78 18.5t63 43.5l86 412q29 0 61 5l-79 -373q-17 -80 -17 -104q0 -10 2 -20l-54 -15q-7 17 -7 44q0 6 1 17q-69 -67 -155 -67q-133 0 -133 124q0 31 10 78zM226 638q0 19 13 31.5t33 12.5
q32 0 32 -30q0 -18 -13 -31t-34 -13q-31 0 -31 30zM397 638q0 19 13 31.5t33 12.5q32 0 32 -30q0 -18 -13 -31t-34 -13q-31 0 -31 30z" />
    <glyph glyph-name="yacute" unicode="&#xfd;" horiz-adv-x="453" 
d="M159 11l-69 486v5h57l32 -235q21 -147 21 -186h2q13 31 99 187l130 234h49v-5l-316 -566q-2 -3 -12.5 -23t-15 -26t-16 -22.5t-21.5 -23t-25.5 -16t-34.5 -13t-42 -3.5q-33 0 -41 4q0 31 10 51q19 -7 43 -7q13 0 23.5 2.5t19 6t18 13t15.5 16t16 23t16 26.5t19.5 33.5
t22.5 38.5zM449 713l-128 -132q-8 -3 -18 -3q-13 0 -18 3l91 132q14 4 37 4q22 0 36 -4z" />
    <glyph glyph-name="thorn" unicode="&#xfe;" horiz-adv-x="534" 
d="M-12 -206l191 908q29 0 61 5l-54 -257q26 26 69.5 44t90.5 18q79 0 117 -45t38 -125q0 -42 -10 -91q-25 -119 -88 -190t-165 -71q-95 0 -137 58l-52 -249q-23 0 -61 -5zM180 421l-73 -342q37 -55 115 -55q158 0 204 227q10 50 10 96q0 130 -116 130q-81 0 -140 -56z" />
    <glyph glyph-name="ydieresis" unicode="&#xff;" horiz-adv-x="453" 
d="M159 11l-69 486v5h57l32 -235q21 -147 21 -186h2q13 31 99 187l130 234h49v-5l-316 -566q-2 -3 -12.5 -23t-15 -26t-16 -22.5t-21.5 -23t-25.5 -16t-34.5 -13t-42 -3.5q-33 0 -41 4q0 31 10 51q19 -7 43 -7q13 0 23.5 2.5t19 6t18 13t15.5 16t16 23t16 26.5t19.5 33.5
t22.5 38.5zM198 638q0 19 13 31.5t33 12.5q32 0 32 -30q0 -18 -13 -31t-34 -13q-31 0 -31 30zM369 638q0 19 13 31.5t33 12.5q32 0 32 -30q0 -18 -13 -31t-34 -13q-31 0 -31 30z" />
    <glyph glyph-name="Amacron" unicode="&#x100;" horiz-adv-x="587" 
d="M-20 0v5l379 695h74l84 -695v-5h-60l-29 246h-262l-132 -246h-54zM188 287h235l-19 164q-18 153 -20 203h-3q-16 -34 -107 -206zM283 780l8 39h256l-8 -39h-256z" />
    <glyph glyph-name="amacron" unicode="&#x101;" horiz-adv-x="514" 
d="M345 41v10q-65 -61 -150 -61q-146 0 -146 166q0 39 10 92q22 117 87 190.5t162 73.5q84 0 123 -59l10 49q3 0 14 1t23 2t20 2l-79 -376q-16 -78 -16 -105q0 -12 1 -16l-52 -15q-7 17 -7 46zM349 81l73 348q-31 49 -106 49q-76 0 -121.5 -59t-68.5 -168q-12 -55 -12 -108
q0 -119 103 -119q81 0 132 57zM204 620l8 39h256l-8 -39h-256z" />
    <glyph glyph-name="Abreve" unicode="&#x102;" horiz-adv-x="587" 
d="M-20 0v5l379 695h74l84 -695v-5h-60l-29 246h-262l-132 -246h-54zM188 287h235l-19 164q-18 153 -20 203h-3q-16 -34 -107 -206zM341 867v-4q0 -70 72 -70q74 0 102 74q7 3 16 3q7 0 16 -3q-35 -115 -137 -115q-48 0 -75 26t-27 71q0 12 1 18q12 3 17 3q10 0 15 -3z" />
    <glyph glyph-name="abreve" unicode="&#x103;" horiz-adv-x="514" 
d="M345 41v10q-65 -61 -150 -61q-146 0 -146 166q0 39 10 92q22 117 87 190.5t162 73.5q84 0 123 -59l10 49q3 0 14 1t23 2t20 2l-79 -376q-16 -78 -16 -105q0 -12 1 -16l-52 -15q-7 17 -7 46zM349 81l73 348q-31 49 -106 49q-76 0 -121.5 -59t-68.5 -168q-12 -55 -12 -108
q0 -119 103 -119q81 0 132 57zM466 703q-36 -125 -139 -125q-49 0 -74 28.5t-25 75.5q0 14 1 21q4 3 16 3q10 0 15 -3q0 -83 70 -83q73 0 104 83q8 3 17 3q12 0 15 -3z" />
    <glyph glyph-name="Aogonek" unicode="&#x104;" horiz-adv-x="587" 
d="M-20 0v5l379 695h74l84 -695v-5q-144 -63 -144 -147q0 -39 48 -39q31 0 56 14l6 -18q-27 -27 -83 -27q-73 0 -73 65q0 49 43 88t105 64h-18l-29 246h-262l-132 -246h-54zM188 287h235l-19 164q-18 153 -20 203h-3q-16 -34 -107 -206z" />
    <glyph glyph-name="aogonek" unicode="&#x105;" horiz-adv-x="514" 
d="M361 -172l6 -18q-27 -27 -83 -27q-73 0 -73 65q0 47 40 87.5t98 67.5q-4 13 -4 38v10q-65 -61 -150 -61q-146 0 -146 166q0 39 10 92q22 117 87 190.5t162 73.5q84 0 123 -59l10 49q3 0 14 1t23 2t20 2l-79 -376q-16 -78 -16 -105q0 -12 1 -16q-65 -29 -105.5 -70.5
t-40.5 -86.5q0 -39 48 -39q30 0 55 14zM349 81l73 348q-31 49 -106 49q-76 0 -121.5 -59t-68.5 -168q-12 -55 -12 -108q0 -119 103 -119q81 0 132 57z" />
    <glyph glyph-name="Cacute" unicode="&#x106;" horiz-adv-x="638" 
d="M533 203h6q41 0 55 -11q-91 -204 -296 -204q-111 0 -168 66.5t-57 181.5q0 56 12 115q33 163 128.5 262t232.5 99q101 0 150.5 -52.5t55.5 -135.5q-14 -11 -59 -11q-5 80 -39.5 122t-111.5 42q-104 0 -179 -85.5t-107 -239.5q-15 -72 -15 -131q0 -95 41 -146.5t120 -51.5
q77 0 136 49t95 131zM587 864l-117 -112q-10 -4 -19 -4q-11 0 -17 4l80 112q11 3 37 3q25 0 36 -3z" />
    <glyph glyph-name="cacute" unicode="&#x107;" horiz-adv-x="487" 
d="M384 122h6q38 0 50 -11q-25 -52 -77 -87t-129 -35q-92 0 -137.5 49.5t-45.5 137.5q0 37 7 75q22 118 92.5 189.5t177.5 71.5q81 0 117.5 -37t40.5 -90q-13 -10 -55 -10q-6 107 -102 107q-156 0 -204 -231q-11 -52 -11 -98q0 -133 122 -133q93 0 148 102zM479 713
l-128 -132q-8 -3 -18 -3q-13 0 -18 3l91 132q14 4 37 4q22 0 36 -4z" />
    <glyph glyph-name="Ccircumflex" unicode="&#x108;" horiz-adv-x="638" 
d="M533 203h6q41 0 55 -11q-91 -204 -296 -204q-111 0 -168 66.5t-57 181.5q0 56 12 115q33 163 128.5 262t232.5 99q101 0 150.5 -52.5t55.5 -135.5q-14 -11 -59 -11q-5 80 -39.5 122t-111.5 42q-104 0 -179 -85.5t-107 -239.5q-15 -72 -15 -131q0 -95 41 -146.5t120 -51.5
q77 0 136 49t95 131zM486 831l-99 -81q-8 -3 -17 -3q-14 0 -18 3l105 114q10 3 36 3q25 0 36 -3l56 -114q-5 -3 -17 -3q-8 0 -14 3l-66 81h-2z" />
    <glyph glyph-name="ccircumflex" unicode="&#x109;" horiz-adv-x="487" 
d="M384 122h6q38 0 50 -11q-25 -52 -77 -87t-129 -35q-92 0 -137.5 49.5t-45.5 137.5q0 37 7 75q22 118 92.5 189.5t177.5 71.5q81 0 117.5 -37t40.5 -90q-13 -10 -55 -10q-6 107 -102 107q-156 0 -204 -231q-11 -52 -11 -98q0 -133 122 -133q93 0 148 102zM374 683
l-105 -102q-7 -3 -18 -3q-14 0 -18 3l111 132q9 4 36 4q28 0 36 -4l54 -132q-6 -3 -19 -3q-9 0 -13 3l-62 102h-2z" />
    <glyph glyph-name="Cdotaccent" unicode="&#x10a;" horiz-adv-x="638" 
d="M533 203h6q41 0 55 -11q-91 -204 -296 -204q-111 0 -168 66.5t-57 181.5q0 56 12 115q33 163 128.5 262t232.5 99q101 0 150.5 -52.5t55.5 -135.5q-14 -11 -59 -11q-5 80 -39.5 122t-111.5 42q-104 0 -179 -85.5t-107 -239.5q-15 -72 -15 -131q0 -95 41 -146.5t120 -51.5
q77 0 136 49t95 131zM436 799q0 19 12.5 31.5t32.5 12.5q32 0 32 -30q0 -18 -12.5 -31t-33.5 -13q-14 0 -22.5 8t-8.5 22z" />
    <glyph glyph-name="cdotaccent" unicode="&#x10b;" horiz-adv-x="487" 
d="M384 122h6q38 0 50 -11q-25 -52 -77 -87t-129 -35q-92 0 -137.5 49.5t-45.5 137.5q0 37 7 75q22 118 92.5 189.5t177.5 71.5q81 0 117.5 -37t40.5 -90q-13 -10 -55 -10q-6 107 -102 107q-156 0 -204 -231q-11 -52 -11 -98q0 -133 122 -133q93 0 148 102zM357 608
q-31 0 -31 31q0 19 13 31.5t33 12.5q33 0 33 -30q0 -18 -13 -31.5t-35 -13.5z" />
    <glyph glyph-name="Ccaron" unicode="&#x10c;" horiz-adv-x="638" 
d="M533 203h6q41 0 55 -11q-91 -204 -296 -204q-111 0 -168 66.5t-57 181.5q0 56 12 115q33 163 128.5 262t232.5 99q101 0 150.5 -52.5t55.5 -135.5q-14 -11 -59 -11q-5 80 -39.5 122t-111.5 42q-104 0 -179 -85.5t-107 -239.5q-15 -72 -15 -131q0 -95 41 -146.5t120 -51.5
q77 0 136 49t95 131zM428 751l-55 113q4 3 16 3q11 0 16 -3l63 -80h2l103 80q8 3 17 3q12 0 16 -3l-105 -113q-11 -3 -38 -3q-25 0 -35 3z" />
    <glyph glyph-name="ccaron" unicode="&#x10d;" horiz-adv-x="487" 
d="M384 122h6q38 0 50 -11q-25 -52 -77 -87t-129 -35q-92 0 -137.5 49.5t-45.5 137.5q0 37 7 75q22 118 92.5 189.5t177.5 71.5q81 0 117.5 -37t40.5 -90q-13 -10 -55 -10q-6 107 -102 107q-156 0 -204 -231q-11 -52 -11 -98q0 -133 122 -133q93 0 148 102zM294 712l62 -102
h2l105 102q8 3 18 3q13 0 16 -3l-109 -132q-12 -3 -37 -3q-26 0 -35 3l-55 132q5 3 17 3t16 -3z" />
    <glyph glyph-name="Dcaron" unicode="&#x10e;" horiz-adv-x="625" 
d="M45 0l148 700h156q261 0 261 -233q0 -52 -13 -116q-71 -351 -395 -351h-157zM114 35h94q129 0 206.5 79.5t111.5 236.5q15 70 15 123q0 191 -198 191h-95zM361 751l-55 113q4 3 16 3t16 -3l63 -80h2l103 80q7 3 17 3q11 0 16 -3l-105 -113q-10 -3 -38 -3q-24 0 -35 3z
" />
    <glyph glyph-name="dcaron" unicode="&#x10f;" horiz-adv-x="640" 
d="M426 9l-54 -15q-7 16 -7 39q0 7 1 18q-70 -61 -162 -61q-156 0 -156 170q0 46 9 90q24 118 90 190t164 72q93 0 138 -60l52 250q27 0 61 5l-122 -577q-15 -73 -15 -105q0 -12 1 -16zM371 81l71 339q-16 26 -48 41.5t-71 15.5q-154 0 -199 -227q-10 -50 -10 -97
q0 -129 114 -129q38 0 77 15.5t66 41.5zM616 562q22 13 39 36.5t21 43.5q-30 2 -30 32q0 18 10.5 28t26.5 10q35 0 35 -35q0 -36 -24.5 -74t-60.5 -55q-6 0 -11.5 4.5t-5.5 9.5z" />
    <glyph glyph-name="Dcroat" unicode="&#x110;" horiz-adv-x="647" 
d="M67 0l71 338h-78l9 39h77l69 323h156q261 0 261 -233q0 -52 -13 -116q-71 -351 -395 -351h-157zM136 35h94q129 0 206.5 79.5t111.5 236.5q15 70 15 123q0 191 -198 191h-95l-62 -288h186l-8 -39h-186z" />
    <glyph glyph-name="dcroat" unicode="&#x111;" horiz-adv-x="534" 
d="M426 9l-54 -15q-7 16 -7 39q0 7 1 18q-70 -61 -162 -61q-156 0 -156 170q0 46 9 90q24 118 90 190t164 72q93 0 138 -60l30 145h-165l6 29h165l16 76q27 0 61 5l-17 -81h76l-7 -29h-75l-99 -467q-15 -73 -15 -105q0 -12 1 -16zM371 81l71 339q-16 26 -48 41.5t-71 15.5
q-154 0 -199 -227q-10 -50 -10 -97q0 -129 114 -129q38 0 77 15.5t66 41.5z" />
    <glyph glyph-name="Emacron" unicode="&#x112;" horiz-adv-x="505" 
d="M45 0l148 700h353l-8 -40h-291l-60 -280h265v-3q0 -25 -8 -38h-265l-64 -299h306l-8 -40h-368zM258 780l8 39h256l-8 -39h-256z" />
    <glyph glyph-name="emacron" unicode="&#x113;" horiz-adv-x="504" 
d="M465 258h-340q-12 -55 -12 -100q0 -138 117 -138q91 0 147 100q39 0 55 -13q-69 -118 -205 -118q-90 0 -133 50t-43 136q0 36 8 82q21 115 90 185t172 70q82 0 120.5 -42.5t38.5 -111.5q0 -50 -15 -100zM131 289h280q9 45 9 80q0 113 -102 113q-67 0 -115 -49.5
t-72 -143.5zM221 620l8 39h256l-8 -39h-256z" />
    <glyph glyph-name="Ebreve" unicode="&#x114;" horiz-adv-x="505" 
d="M45 0l148 700h353l-8 -40h-291l-60 -280h265v-3q0 -25 -8 -38h-265l-64 -299h306l-8 -40h-368zM318 867v-4q0 -70 72 -70q74 0 102 74q7 3 16 3q7 0 16 -3q-35 -115 -137 -115q-48 0 -75 26t-27 71q0 12 1 18q12 3 17 3q11 0 15 -3z" />
    <glyph glyph-name="ebreve" unicode="&#x115;" horiz-adv-x="504" 
d="M465 258h-340q-12 -55 -12 -100q0 -138 117 -138q91 0 147 100q39 0 55 -13q-69 -118 -205 -118q-90 0 -133 50t-43 136q0 36 8 82q21 115 90 185t172 70q82 0 120.5 -42.5t38.5 -111.5q0 -50 -15 -100zM131 289h280q9 45 9 80q0 113 -102 113q-67 0 -115 -49.5
t-72 -143.5zM484 703q-36 -125 -139 -125q-49 0 -74 28.5t-25 75.5q0 14 1 21q4 3 16 3q11 0 15 -3q0 -83 70 -83q73 0 104 83q7 3 17 3q12 0 15 -3z" />
    <glyph glyph-name="Edotaccent" unicode="&#x116;" horiz-adv-x="505" 
d="M45 0l148 700h353l-8 -40h-291l-60 -280h265v-3q0 -25 -8 -38h-265l-64 -299h306l-8 -40h-368zM353 799q0 19 12.5 31.5t32.5 12.5q32 0 32 -30q0 -18 -12.5 -31t-33.5 -13q-14 0 -22.5 8t-8.5 22z" />
    <glyph glyph-name="edotaccent" unicode="&#x117;" horiz-adv-x="504" 
d="M465 258h-340q-12 -55 -12 -100q0 -138 117 -138q91 0 147 100q39 0 55 -13q-69 -118 -205 -118q-90 0 -133 50t-43 136q0 36 8 82q21 115 90 185t172 70q82 0 120.5 -42.5t38.5 -111.5q0 -50 -15 -100zM131 289h280q9 45 9 80q0 113 -102 113q-67 0 -115 -49.5
t-72 -143.5zM342 608q-31 0 -31 31q0 19 13 31.5t33 12.5q33 0 33 -30q0 -18 -13 -31.5t-35 -13.5z" />
    <glyph glyph-name="Eogonek" unicode="&#x118;" horiz-adv-x="505" 
d="M45 0l148 700h353l-8 -40h-291l-60 -280h265v-3q0 -25 -8 -38h-265l-64 -299h306l-8 -40q-144 -63 -144 -148q0 -38 48 -38q33 0 57 14l6 -18q-27 -27 -82 -27q-76 0 -76 65q0 50 43 89t106 63h-326z" />
    <glyph glyph-name="eogonek" unicode="&#x119;" horiz-adv-x="504" 
d="M367 -172l6 -18q-27 -27 -81 -27q-75 0 -75 64q0 68 94 155q-42 -13 -84 -13q-90 0 -133 50t-43 136q0 36 8 82q21 115 90 185t172 70q82 0 120.5 -42.5t38.5 -111.5q0 -50 -15 -100h-340q-12 -55 -12 -100q0 -138 117 -138q91 0 147 100q39 0 55 -13q-19 -33 -49 -61
q-67 -70 -93.5 -110.5t-26.5 -83.5q0 -38 48 -38q31 0 56 14zM131 289h280q9 45 9 80q0 113 -102 113q-67 0 -115 -49.5t-72 -143.5z" />
    <glyph glyph-name="Ecaron" unicode="&#x11a;" horiz-adv-x="505" 
d="M45 0l148 700h353l-8 -40h-291l-60 -280h265v-3q0 -25 -8 -38h-265l-64 -299h306l-8 -40h-368zM343 751l-55 113q4 3 16 3t16 -3l63 -80h2l103 80q8 3 17 3q11 0 16 -3l-105 -113q-10 -3 -38 -3q-24 0 -35 3z" />
    <glyph glyph-name="ecaron" unicode="&#x11b;" horiz-adv-x="504" 
d="M465 258h-340q-12 -55 -12 -100q0 -138 117 -138q91 0 147 100q39 0 55 -13q-69 -118 -205 -118q-90 0 -133 50t-43 136q0 36 8 82q21 115 90 185t172 70q82 0 120.5 -42.5t38.5 -111.5q0 -50 -15 -100zM131 289h280q9 45 9 80q0 113 -102 113q-67 0 -115 -49.5
t-72 -143.5zM288 712l62 -102h2l105 102q7 3 18 3q13 0 16 -3l-109 -132q-12 -3 -37 -3q-26 0 -35 3l-55 132q5 3 17 3t16 -3z" />
    <glyph glyph-name="Gcircumflex" unicode="&#x11c;" horiz-adv-x="650" 
d="M488 73l50 242h-155l9 40h214l-63 -295q-35 -28 -94.5 -50t-134.5 -22q-123 0 -182 65.5t-59 182.5q0 54 12 115q32 162 128 261.5t233 99.5q97 0 145 -46.5t57 -111.5q-20 -14 -60 -14q-14 137 -146 137q-105 0 -180 -86t-106 -240q-15 -73 -15 -131q0 -197 173 -197
q114 0 174 50zM480 831l-99 -81q-8 -3 -17 -3q-14 0 -18 3l105 114q11 3 36 3t36 -3l56 -114q-5 -3 -17 -3q-8 0 -14 3l-66 81h-2z" />
    <glyph glyph-name="gcircumflex" unicode="&#x11d;" horiz-adv-x="517" 
d="M338 6l16 74q-65 -54 -148 -54q-151 0 -151 160q0 36 9 83q21 108 85 175.5t158 67.5q83 0 129 -57l10 47q54 4 57 5l-106 -498q-19 -90 -69 -135.5t-141 -45.5q-71 0 -114.5 25t-56.5 64q6 7 24 13.5t32 8.5q6 -29 33.5 -54t80.5 -25q66 0 100.5 34t51.5 112zM360 109
l67 319q-38 48 -112 48q-140 0 -184 -207q-10 -47 -10 -91q0 -117 106 -117q77 0 133 48zM358 683l-105 -102q-7 -3 -18 -3q-13 0 -18 3l111 132q9 4 36 4q28 0 36 -4l54 -132q-6 -3 -19 -3q-9 0 -13 3l-62 102h-2z" />
    <glyph glyph-name="Gbreve" unicode="&#x11e;" horiz-adv-x="650" 
d="M488 73l50 242h-155l9 40h214l-63 -295q-35 -28 -94.5 -50t-134.5 -22q-123 0 -182 65.5t-59 182.5q0 54 12 115q32 162 128 261.5t233 99.5q97 0 145 -46.5t57 -111.5q-20 -14 -60 -14q-14 137 -146 137q-105 0 -180 -86t-106 -240q-15 -73 -15 -131q0 -197 173 -197
q114 0 174 50zM400 867v-4q0 -70 72 -70q74 0 102 74q8 3 16 3q7 0 16 -3q-35 -115 -137 -115q-48 0 -75 26t-27 71q0 12 1 18q12 3 17 3q10 0 15 -3z" />
    <glyph glyph-name="gbreve" unicode="&#x11f;" horiz-adv-x="517" 
d="M338 6l16 74q-65 -54 -148 -54q-151 0 -151 160q0 36 9 83q21 108 85 175.5t158 67.5q83 0 129 -57l10 47q54 4 57 5l-106 -498q-19 -90 -69 -135.5t-141 -45.5q-71 0 -114.5 25t-56.5 64q6 7 24 13.5t32 8.5q6 -29 33.5 -54t80.5 -25q66 0 100.5 34t51.5 112zM360 109
l67 319q-38 48 -112 48q-140 0 -184 -207q-10 -47 -10 -91q0 -117 106 -117q77 0 133 48zM481 703q-36 -125 -139 -125q-49 0 -74 28.5t-25 75.5q0 14 1 21q4 3 16 3q10 0 15 -3q0 -83 70 -83q73 0 104 83q8 3 17 3q12 0 15 -3z" />
    <glyph glyph-name="Gdotaccent" unicode="&#x120;" horiz-adv-x="650" 
d="M488 73l50 242h-155l9 40h214l-63 -295q-35 -28 -94.5 -50t-134.5 -22q-123 0 -182 65.5t-59 182.5q0 54 12 115q32 162 128 261.5t233 99.5q97 0 145 -46.5t57 -111.5q-20 -14 -60 -14q-14 137 -146 137q-105 0 -180 -86t-106 -240q-15 -73 -15 -131q0 -197 173 -197
q114 0 174 50zM426 799q0 19 12.5 31.5t32.5 12.5q32 0 32 -30q0 -18 -12.5 -31t-33.5 -13q-14 0 -22.5 8t-8.5 22z" />
    <glyph glyph-name="gdotaccent" unicode="&#x121;" horiz-adv-x="517" 
d="M338 6l16 74q-65 -54 -148 -54q-151 0 -151 160q0 36 9 83q21 108 85 175.5t158 67.5q83 0 129 -57l10 47q54 4 57 5l-106 -498q-19 -90 -69 -135.5t-141 -45.5q-71 0 -114.5 25t-56.5 64q6 7 24 13.5t32 8.5q6 -29 33.5 -54t80.5 -25q66 0 100.5 34t51.5 112zM360 109
l67 319q-38 48 -112 48q-140 0 -184 -207q-10 -47 -10 -91q0 -117 106 -117q77 0 133 48zM342 608q-31 0 -31 31q0 19 13 31.5t33 12.5q33 0 33 -30q0 -18 -13 -31.5t-35 -13.5z" />
    <glyph glyph-name="Gcommaaccent" unicode="&#x122;" horiz-adv-x="650" 
d="M488 73l50 242h-155l9 40h214l-63 -295q-35 -28 -94.5 -50t-134.5 -22q-123 0 -182 65.5t-59 182.5q0 54 12 115q32 162 128 261.5t233 99.5q97 0 145 -46.5t57 -111.5q-20 -14 -60 -14q-14 137 -146 137q-105 0 -180 -86t-106 -240q-15 -73 -15 -131q0 -197 173 -197
q114 0 174 50zM219 -207q22 14 39.5 36.5t22.5 41.5q-15 0 -24 9.5t-9 25.5t11.5 27t28.5 11q38 0 38 -38q0 -35 -27 -72t-64 -51q-14 2 -16 10z" />
    <glyph glyph-name="gcommaaccent" unicode="&#x123;" horiz-adv-x="517" 
d="M338 6l16 74q-65 -54 -148 -54q-151 0 -151 160q0 36 9 83q21 108 85 175.5t158 67.5q83 0 129 -57l10 47q54 4 57 5l-106 -498q-19 -90 -69 -135.5t-141 -45.5q-71 0 -114.5 25t-56.5 64q6 7 24 13.5t32 8.5q6 -29 33.5 -54t80.5 -25q66 0 100.5 34t51.5 112zM360 109
l67 319q-38 48 -112 48q-140 0 -184 -207q-10 -47 -10 -91q0 -117 106 -117q77 0 133 48zM394 750q6 0 11.5 -4t6.5 -8q-22 -14 -40 -36.5t-23 -41.5q33 -2 33 -31q0 -18 -11.5 -30.5t-30.5 -12.5q-36 0 -36 36t26.5 74t63.5 54z" />
    <glyph glyph-name="Hcircumflex" unicode="&#x124;" horiz-adv-x="666" 
d="M45 0l148 700h62l-65 -307h363l65 307h62l-148 -700h-62l74 351h-363l-74 -351h-62zM471 831l-99 -81q-8 -3 -17 -3q-13 0 -18 3l105 114q10 3 36 3t36 -3l56 -114q-4 -3 -17 -3q-8 0 -14 3l-66 81h-2z" />
    <glyph glyph-name="hcircumflex" unicode="&#x125;" horiz-adv-x="527" 
d="M31 0l147 702q29 0 61 5l-55 -263q66 68 163 68q136 0 136 -124q0 -26 -10 -75l-44 -207q-16 -74 -16 -97q0 -7 1 -9h-66l61 291q13 65 13 100q0 84 -94 84q-45 0 -85 -17.5t-65 -41.5l-88 -416h-59zM406 831l-99 -81q-8 -3 -17 -3q-14 0 -18 3l105 114q10 3 36 3
q25 0 36 -3l56 -114q-5 -3 -17 -3q-8 0 -14 3l-66 81h-2z" />
    <glyph glyph-name="Hbar" unicode="&#x126;" horiz-adv-x="666" 
d="M45 0l113 537h-51l9 39h51l26 124h62l-26 -124h363l26 124h62l-26 -124h53l-9 -39h-53l-113 -537h-62l74 351h-363l-74 -351h-62zM190 393h363l30 144h-363z" />
    <glyph glyph-name="hbar" unicode="&#x127;" horiz-adv-x="527" 
d="M31 0l125 597h-68l6 29h68l16 76q29 0 61 5l-17 -81h172l-6 -29h-172l-32 -153q66 68 163 68q136 0 136 -124q0 -26 -10 -75l-44 -207q-16 -74 -16 -97q0 -7 1 -9h-66l61 291q13 65 13 100q0 84 -94 84q-45 0 -85 -17.5t-65 -41.5l-88 -416h-59z" />
    <glyph glyph-name="Itilde" unicode="&#x128;" horiz-adv-x="242" 
d="M45 0l148 700h62l-148 -700h-62zM113 763q-8 -2 -14 -2q-9 0 -15 2q35 60 61 78t56 18q27 0 58.5 -29.5t51.5 -29.5q35 0 73 58q4 1 16 1q10 0 12 -1q-33 -58 -58.5 -77.5t-49.5 -19.5q-30 0 -62.5 29.5t-55.5 29.5q-37 0 -73 -57z" />
    <glyph glyph-name="itilde" unicode="&#x129;" horiz-adv-x="212" 
d="M32 0l105 502q29 0 61 5l-85 -401q-16 -72 -16 -97q0 -7 1 -9h-66zM62 601q-8 -2 -14 -2q-10 0 -14 2q33 60 59.5 78.5t56.5 18.5q27 0 58 -29.5t51 -29.5q35 0 75 57q6 2 14 2q9 0 13 -2q-33 -58 -58.5 -77t-50.5 -19q-30 0 -62 29.5t-56 29.5q-18 0 -38 -18t-34 -40z
" />
    <glyph glyph-name="Imacron" unicode="&#x12a;" horiz-adv-x="242" 
d="M45 0l148 700h62l-148 -700h-62zM114 780l8 39h256l-8 -39h-256z" />
    <glyph glyph-name="imacron" unicode="&#x12b;" horiz-adv-x="212" 
d="M32 0l105 502q29 0 61 5l-85 -401q-16 -72 -16 -97q0 -7 1 -9h-66zM64 620l8 39h256l-8 -39h-256z" />
    <glyph glyph-name="Ibreve" unicode="&#x12c;" horiz-adv-x="242" 
d="M45 0l148 700h62l-148 -700h-62zM171 867v-4q0 -70 72 -70q74 0 102 74q7 3 16 3q7 0 16 -3q-35 -115 -137 -115q-48 0 -75 26t-27 71q0 12 1 18q12 3 17 3q10 0 15 -3z" />
    <glyph glyph-name="ibreve" unicode="&#x12d;" horiz-adv-x="212" 
d="M32 0l105 502q29 0 61 5l-85 -401q-16 -72 -16 -97q0 -7 1 -9h-66zM328 703q-36 -125 -139 -125q-49 0 -74 28.5t-25 75.5q0 14 1 21q4 3 16 3q11 0 15 -3q0 -83 70 -83q73 0 104 83q7 3 17 3q12 0 15 -3z" />
    <glyph glyph-name="Iogonek" unicode="&#x12e;" horiz-adv-x="242" 
d="M68 -172l6 -18q-27 -27 -82 -27q-76 0 -76 65q0 50 43 89t106 63h-20l148 700h62l-148 -700q-144 -63 -144 -148q0 -38 48 -38q33 0 57 14z" />
    <glyph glyph-name="iogonek" unicode="&#x12f;" horiz-adv-x="212" 
d="M59 -172l6 -18q-27 -27 -82 -27q-76 0 -76 65q0 50 43 89t106 63h-24l105 502q29 0 61 5l-85 -401q-16 -72 -16 -97q0 -7 1 -9q-144 -63 -144 -148q0 -38 48 -38q33 0 57 14zM158 638q0 19 13.5 32t33.5 13q33 0 33 -31q0 -18 -13.5 -31.5t-34.5 -13.5q-32 0 -32 31z" />
    <glyph glyph-name="Idotaccent" unicode="&#x130;" horiz-adv-x="242" 
d="M45 0l148 700h62l-148 -700h-62zM208 799q0 19 12.5 31.5t32.5 12.5q32 0 32 -30q0 -18 -12.5 -31t-33.5 -13q-14 0 -22.5 8t-8.5 22z" />
    <glyph glyph-name="dotlessi" unicode="&#x131;" horiz-adv-x="212" 
d="M32 0l105 502q29 0 61 5l-85 -401q-16 -72 -16 -97q0 -7 1 -9h-66z" />
    <glyph glyph-name="IJ" unicode="&#x132;" horiz-adv-x="615" 
d="M45 0l148 700h62l-148 -700h-62zM454 154l116 546h62l-117 -552q-18 -86 -67.5 -122t-135.5 -36q-74 0 -96 11q0 7 3.5 22.5t7.5 20.5q30 -17 84 -17q64 0 96 28.5t47 98.5z" />
    <glyph glyph-name="ij" unicode="&#x133;" horiz-adv-x="412" 
d="M32 0l105 502q29 0 61 5l-85 -401q-16 -72 -16 -97q0 -7 1 -9h-66zM158 638q0 19 13.5 32t33.5 13q33 0 33 -31q0 -18 -13.5 -31.5t-34.5 -13.5q-32 0 -32 31zM218 -59l118 561q29 0 61 5l-122 -577q-15 -73 -48.5 -103t-93.5 -30q-37 0 -52 5v2q0 21 9 35q18 -8 42 -8
q40 0 56.5 24t29.5 86zM357 638q0 19 13.5 32t33.5 13q33 0 33 -31q0 -18 -13.5 -31.5t-34.5 -13.5q-32 0 -32 31z" />
    <glyph glyph-name="Jcircumflex" unicode="&#x134;" horiz-adv-x="385" 
d="M224 154l116 546h62l-117 -552q-18 -86 -67.5 -122t-135.5 -36q-74 0 -96 11q0 7 3.5 22.5t7.5 20.5q30 -17 84 -17q64 0 96 28.5t47 98.5zM398 831l-99 -81q-7 -3 -17 -3q-14 0 -18 3l105 114q11 3 36 3t36 -3l56 -114q-5 -3 -17 -3q-8 0 -14 3l-66 81h-2z" />
    <glyph glyph-name="jcircumflex" unicode="&#x135;" horiz-adv-x="212" 
d="M18 -59l118 561q29 0 61 5l-122 -577q-15 -73 -48.5 -103t-93.5 -30q-37 0 -52 5v2q0 21 9 35q18 -8 42 -8q40 0 56.5 24t29.5 86zM206 683l-105 -102q-7 -3 -18 -3q-13 0 -18 3l111 132q9 4 36 4q28 0 36 -4l54 -132q-6 -3 -19 -3q-9 0 -13 3l-62 102h-2z" />
    <glyph glyph-name="Kcommaaccent" unicode="&#x136;" horiz-adv-x="539" 
d="M45 0l148 700h62l-69 -327h2l360 327h61v-5l-367 -331l229 -359v-5h-67l-221 351h-2l-74 -351h-62zM159 -207q22 14 39.5 36.5t22.5 41.5q-15 0 -24 9.5t-9 25.5t11.5 27t28.5 11q38 0 38 -38q0 -35 -27 -72t-64 -51q-14 2 -16 10z" />
    <glyph glyph-name="kcommaaccent" unicode="&#x137;" horiz-adv-x="435" 
d="M31 0l147 702q28 0 61 5l-88 -419h2l252 214h57v-5l-255 -214l159 -278v-5h-61l-155 274h-2l-58 -274h-59zM89 -207q22 14 39.5 36.5t22.5 41.5q-15 0 -24 9.5t-9 25.5t11.5 27t28.5 11q38 0 38 -38q0 -35 -27 -72t-64 -51q-14 2 -16 10z" />
    <glyph glyph-name="kgreenlandic" unicode="&#x138;" horiz-adv-x="435" 
d="M32 0l105 502q49 3 61 5l-52 -246h2l257 241h57v-5l-260 -239l164 -253v-5h-61l-160 247h-2l-53 -247h-58z" />
    <glyph glyph-name="Lacute" unicode="&#x139;" horiz-adv-x="475" 
d="M45 0l148 700h62l-140 -659h299l-8 -41h-361zM368 864l-117 -112q-10 -4 -19 -4q-11 0 -17 4l80 112q10 3 37 3q26 0 36 -3z" />
    <glyph glyph-name="lacute" unicode="&#x13a;" horiz-adv-x="212" 
d="M31 0l147 702q31 0 61 5l-127 -601q-16 -72 -16 -97q0 -7 1 -9h-66zM348 864l-117 -112q-10 -4 -19 -4q-11 0 -17 4l80 112q10 3 37 3q26 0 36 -3z" />
    <glyph glyph-name="Lcommaaccent" unicode="&#x13b;" horiz-adv-x="475" 
d="M45 0l148 700h62l-140 -659h299l-8 -41h-361zM145 -207q22 14 39.5 36.5t22.5 41.5q-15 0 -24 9.5t-9 25.5t11.5 27t28.5 11q38 0 38 -38q0 -35 -27 -72t-64 -51q-14 2 -16 10z" />
    <glyph glyph-name="lcommaaccent" unicode="&#x13c;" horiz-adv-x="212" 
d="M31 0l147 702q31 0 61 5l-127 -601q-16 -72 -16 -97q0 -7 1 -9h-66zM-24 -207q22 14 39.5 36.5t22.5 41.5q-15 0 -24 9.5t-9 25.5t11.5 27t28.5 11q38 0 38 -38q0 -35 -27 -72t-64 -51q-14 2 -16 10z" />
    <glyph glyph-name="Lcaron" unicode="&#x13d;" horiz-adv-x="475" 
d="M45 0l148 700h62l-140 -659h299l-8 -41h-361zM335 562q22 13 39 36.5t21 43.5q-30 2 -30 32q0 18 10.5 28t26.5 10q35 0 35 -35q0 -36 -24.5 -74t-60.5 -55q-6 0 -11.5 4.5t-5.5 9.5z" />
    <glyph glyph-name="lcaron" unicode="&#x13e;" horiz-adv-x="322" 
d="M31 0l147 702q31 0 61 5l-127 -601q-16 -72 -16 -97q0 -7 1 -9h-66zM298 562q22 13 39 36.5t21 43.5q-30 2 -30 32q0 18 10.5 28t26.5 10q35 0 35 -35q0 -36 -24.5 -74t-60.5 -55q-6 0 -11.5 4.5t-5.5 9.5z" />
    <glyph glyph-name="Ldot" unicode="&#x13f;" horiz-adv-x="475" 
d="M45 0l148 700h62l-140 -659h299l-8 -41h-361zM346 334q-31 0 -31 31q0 19 13 31.5t33 12.5q33 0 33 -30q0 -18 -13 -31.5t-35 -13.5z" />
    <glyph glyph-name="ldot" unicode="&#x140;" horiz-adv-x="355" 
d="M31 0l147 702q31 0 61 5l-127 -601q-16 -72 -16 -97q0 -7 1 -9h-66zM305 337q-31 0 -31 31q0 19 13 31.5t33 12.5q33 0 33 -30q0 -18 -13 -31.5t-35 -13.5z" />
    <glyph glyph-name="Lslash" unicode="&#x141;" horiz-adv-x="515" 
d="M85 0l54 256l-89 -47l9 45l89 47l85 399h62l-78 -367l187 99l-9 -45l-188 -99l-52 -248h299l-8 -40h-361z" />
    <glyph glyph-name="lslash" unicode="&#x142;" horiz-adv-x="324" 
d="M89 0l78 370l-110 -58l9 43l110 59l60 288q29 0 61 5l-56 -264l110 59l-10 -43l-109 -59l-62 -294q-16 -74 -16 -98q0 -6 1 -8h-66z" />
    <glyph glyph-name="Nacute" unicode="&#x143;" horiz-adv-x="685" 
d="M45 0l148 700h71l186 -446q52 -125 66 -183h3q10 72 38 204l89 425h52l-148 -700h-57l-195 463q-60 142 -66 180h-3q-10 -68 -40 -209l-92 -434h-52zM600 864l-117 -112q-10 -4 -19 -4q-11 0 -17 4l80 112q11 3 37 3t36 -3z" />
    <glyph glyph-name="nacute" unicode="&#x144;" horiz-adv-x="527" 
d="M31 0l105 502q25 0 58 5l-15 -67q27 29 72.5 50.5t97.5 21.5q134 0 134 -124q0 -30 -8 -68l-46 -214q-16 -74 -16 -97q0 -7 1 -9h-67l65 307q10 48 10 82q0 86 -94 86q-44 0 -84.5 -18t-66.5 -43l-88 -414h-58zM472 713l-128 -132q-7 -3 -18 -3q-14 0 -18 3l91 132
q14 4 37 4q22 0 36 -4z" />
    <glyph glyph-name="Ncommaaccent" unicode="&#x145;" horiz-adv-x="685" 
d="M45 0l148 700h71l186 -446q52 -125 66 -183h3q10 72 38 204l89 425h52l-148 -700h-57l-195 463q-60 142 -66 180h-3q-10 -68 -40 -209l-92 -434h-52zM238 -207q22 14 39.5 36.5t22.5 41.5q-15 0 -24 9.5t-9 25.5t11.5 27t28.5 11q38 0 38 -38q0 -35 -27 -72t-64 -51
q-14 2 -16 10z" />
    <glyph glyph-name="ncommaaccent" unicode="&#x146;" horiz-adv-x="527" 
d="M31 0l105 502q25 0 58 5l-15 -67q27 29 72.5 50.5t97.5 21.5q134 0 134 -124q0 -30 -8 -68l-46 -214q-16 -74 -16 -97q0 -7 1 -9h-67l65 307q10 48 10 82q0 86 -94 86q-44 0 -84.5 -18t-66.5 -43l-88 -414h-58zM135 -207q22 14 39.5 36.5t22.5 41.5q-15 0 -24 9.5
t-9 25.5t11.5 27t28.5 11q38 0 38 -38q0 -35 -27 -72t-64 -51q-14 2 -16 10z" />
    <glyph glyph-name="Ncaron" unicode="&#x147;" horiz-adv-x="685" 
d="M45 0l148 700h71l186 -446q52 -125 66 -183h3q10 72 38 204l89 425h52l-148 -700h-57l-195 463q-60 142 -66 180h-3q-10 -68 -40 -209l-92 -434h-52zM437 751l-55 113q4 3 16 3t16 -3l63 -80h2l103 80q7 3 17 3q11 0 16 -3l-105 -113q-11 -3 -38 -3q-24 0 -35 3z" />
    <glyph glyph-name="ncaron" unicode="&#x148;" horiz-adv-x="527" 
d="M31 0l105 502q25 0 58 5l-15 -67q27 29 72.5 50.5t97.5 21.5q134 0 134 -124q0 -30 -8 -68l-46 -214q-16 -74 -16 -97q0 -7 1 -9h-67l65 307q10 48 10 82q0 86 -94 86q-44 0 -84.5 -18t-66.5 -43l-88 -414h-58zM285 712l62 -102h2l105 102q8 3 18 3q13 0 16 -3l-109 -132
q-12 -3 -37 -3q-26 0 -35 3l-55 132q4 3 17 3q11 0 16 -3z" />
    <glyph glyph-name="napostrophe" unicode="&#x149;" horiz-adv-x="527" 
d="M31 0l105 502q25 0 58 5l-15 -67q27 29 72.5 50.5t97.5 21.5q134 0 134 -124q0 -30 -8 -68l-46 -214q-16 -74 -16 -97q0 -7 1 -9h-67l65 307q10 48 10 82q0 86 -94 86q-44 0 -84.5 -18t-66.5 -43l-88 -414h-58zM-58 568q22 14 39.5 36.5t22.5 41.5q-15 0 -24 9.5t-9 25.5
t11.5 27t28.5 11q38 0 38 -38q0 -35 -27 -72t-64 -51q-14 2 -16 10z" />
    <glyph glyph-name="Eng" unicode="&#x14a;" horiz-adv-x="685" 
d="M45 0l148 700h71l186 -446q52 -125 66 -183h3q10 72 38 204l89 425h52l-163 -770q-15 -73 -48.5 -103t-93.5 -30q-37 0 -52 5v2q0 21 9 35q18 -8 42 -8q41 0 61 25t33 85l12 59h-5l-195 463q-60 142 -66 180h-3q-10 -68 -40 -209l-92 -434h-52z" />
    <glyph glyph-name="eng" unicode="&#x14b;" horiz-adv-x="527" 
d="M199 -198v2q0 23 8 35q18 -8 42 -8q40 0 56.5 24t29.5 86l77 366q10 48 10 82q0 86 -94 86q-44 0 -84.5 -18t-66.5 -43l-88 -414h-58l105 502q28 0 58 5l-15 -67q28 29 73 50.5t97 21.5q134 0 134 -125q0 -29 -8 -67l-83 -390q-15 -73 -48.5 -103t-93.5 -30q-38 0 -51 5z
" />
    <glyph glyph-name="Omacron" unicode="&#x14c;" horiz-adv-x="687" 
d="M298 -12q-113 0 -169.5 65t-56.5 180q0 57 13 118q34 164 129 262.5t232 98.5q113 0 170 -64.5t57 -179.5q0 -49 -13 -117q-32 -163 -128 -263t-234 -100zM302 23q104 0 178.5 86.5t107.5 241.5q16 74 16 143q0 183 -162 183q-105 0 -180 -86t-106 -240q-16 -80 -16 -134
q0 -194 162 -194zM339 780l8 39h256l-8 -39h-256z" />
    <glyph glyph-name="omacron" unicode="&#x14d;" horiz-adv-x="551" 
d="M233 -11q-90 0 -136.5 51.5t-46.5 137.5q0 33 8 73q24 119 94 190t183 71q90 0 136 -50t46 -136q0 -33 -8 -75q-23 -116 -95.5 -189t-180.5 -73zM233 20q82 0 135 61.5t75 169.5q11 53 11 94q0 137 -123 137q-81 0 -132.5 -61.5t-74.5 -170.5q-11 -53 -11 -93
q0 -137 120 -137zM234 620l8 39h256l-8 -39h-256z" />
    <glyph glyph-name="Obreve" unicode="&#x14e;" horiz-adv-x="687" 
d="M298 -12q-113 0 -169.5 65t-56.5 180q0 57 13 118q34 164 129 262.5t232 98.5q113 0 170 -64.5t57 -179.5q0 -49 -13 -117q-32 -163 -128 -263t-234 -100zM302 23q104 0 178.5 86.5t107.5 241.5q16 74 16 143q0 183 -162 183q-105 0 -180 -86t-106 -240q-16 -80 -16 -134
q0 -194 162 -194zM396 867v-4q0 -70 72 -70q74 0 102 74q8 3 16 3q7 0 16 -3q-35 -115 -137 -115q-48 0 -75 26t-27 71q0 12 1 18q12 3 17 3q11 0 15 -3z" />
    <glyph glyph-name="obreve" unicode="&#x14f;" horiz-adv-x="551" 
d="M233 -11q-90 0 -136.5 51.5t-46.5 137.5q0 33 8 73q24 119 94 190t183 71q90 0 136 -50t46 -136q0 -33 -8 -75q-23 -116 -95.5 -189t-180.5 -73zM233 20q82 0 135 61.5t75 169.5q11 53 11 94q0 137 -123 137q-81 0 -132.5 -61.5t-74.5 -170.5q-11 -53 -11 -93
q0 -137 120 -137zM498 703q-36 -125 -139 -125q-49 0 -74 28.5t-25 75.5q0 14 1 21q5 3 16 3t15 -3q0 -83 70 -83q73 0 104 83q7 3 17 3q12 0 15 -3z" />
    <glyph glyph-name="Ohungarumlaut" unicode="&#x150;" horiz-adv-x="687" 
d="M298 -12q-113 0 -169.5 65t-56.5 180q0 57 13 118q34 164 129 262.5t232 98.5q113 0 170 -64.5t57 -179.5q0 -49 -13 -117q-32 -163 -128 -263t-234 -100zM302 23q104 0 178.5 86.5t107.5 241.5q16 74 16 143q0 183 -162 183q-105 0 -180 -86t-106 -240q-16 -80 -16 -134
q0 -194 162 -194zM513 864l-97 -112q-10 -4 -18 -4q-11 0 -17 4l62 112q14 4 36 4t34 -4zM663 864l-111 -112q-10 -4 -19 -4q-13 0 -19 4l79 112q14 4 36 4t34 -4z" />
    <glyph glyph-name="ohungarumlaut" unicode="&#x151;" horiz-adv-x="551" 
d="M233 -11q-90 0 -136.5 51.5t-46.5 137.5q0 33 8 73q24 119 94 190t183 71q90 0 136 -50t46 -136q0 -33 -8 -75q-23 -116 -95.5 -189t-180.5 -73zM233 20q82 0 135 61.5t75 169.5q11 53 11 94q0 137 -123 137q-81 0 -132.5 -61.5t-74.5 -170.5q-11 -53 -11 -93
q0 -137 120 -137zM408 713l-105 -132q-8 -3 -18 -3q-13 0 -17 3l71 132q14 4 36 4q21 0 33 -4zM550 713l-121 -132q-7 -3 -19 -3q-15 0 -18 3l88 132q14 4 35 4t35 -4z" />
    <glyph glyph-name="OE" unicode="&#x152;" horiz-adv-x="845" 
d="M456 39h306l-8 -39h-359q-45 -12 -97 -12q-111 0 -168 66t-57 182q0 54 12 116q32 163 127.5 261.5t233.5 98.5q51 0 96 -12h345l-8 -39h-292l-59 -282h265v-2q0 -18 -9 -38h-265zM392 34l134 632q-40 12 -84 12q-105 0 -180 -86t-106 -240q-15 -75 -15 -135
q0 -195 161 -195q49 0 90 12z" />
    <glyph glyph-name="oe" unicode="&#x153;" horiz-adv-x="890" 
d="M851 258h-340q-12 -56 -12 -99q0 -139 118 -139q90 0 146 100q39 0 55 -13q-69 -118 -205 -118t-165 116q-78 -116 -215 -116q-90 0 -136.5 51.5t-46.5 137.5q0 33 8 73q24 119 94 190t183 71q135 0 169 -111q75 111 203 111q82 0 120.5 -42.5t38.5 -111.5
q0 -50 -15 -100zM233 20q82 0 135 61.5t75 169.5q11 53 11 94q0 137 -123 137q-81 0 -132.5 -61.5t-74.5 -170.5q-11 -53 -11 -93q0 -137 120 -137zM518 289h279q9 45 9 81q0 112 -102 112q-67 0 -114.5 -49.5t-71.5 -143.5z" />
    <glyph glyph-name="Racute" unicode="&#x154;" horiz-adv-x="552" 
d="M45 0l148 700h126q217 0 217 -158q0 -88 -47 -148t-140 -82l105 -307v-5h-62l-102 301q-32 -2 -51 -2h-69l-63 -299h-62zM178 336h65q228 0 228 207q0 62 -38.5 91.5t-119.5 29.5h-66zM506 864l-117 -112q-10 -4 -19 -4q-11 0 -17 4l80 112q10 3 37 3q25 0 36 -3z" />
    <glyph glyph-name="racute" unicode="&#x155;" horiz-adv-x="316" 
d="M31 0l105 502q21 0 58 5l-16 -72h2q21 26 59 51t86 25q17 0 26 -3q0 -28 -11 -53q-12 2 -35 2q-49 0 -83 -17.5t-47 -33.5l-64 -303q-16 -73 -16 -95q0 -6 1 -8h-65zM393 713l-128 -132q-7 -3 -18 -3q-13 0 -18 3l91 132q14 4 37 4q22 0 36 -4z" />
    <glyph glyph-name="Rcommaaccent" unicode="&#x156;" horiz-adv-x="552" 
d="M45 0l148 700h126q217 0 217 -158q0 -88 -47 -148t-140 -82l105 -307v-5h-62l-102 301q-32 -2 -51 -2h-69l-63 -299h-62zM178 336h65q228 0 228 207q0 62 -38.5 91.5t-119.5 29.5h-66zM151 -207q22 14 39.5 36.5t22.5 41.5q-15 0 -24 9.5t-9 25.5t11.5 27t28.5 11
q38 0 38 -38q0 -35 -27 -72t-64 -51q-14 2 -16 10z" />
    <glyph glyph-name="rcommaaccent" unicode="&#x157;" horiz-adv-x="316" 
d="M31 0l105 502q21 0 58 5l-16 -72h2q21 26 59 51t86 25q17 0 26 -3q0 -28 -11 -53q-12 2 -35 2q-49 0 -83 -17.5t-47 -33.5l-64 -303q-16 -73 -16 -95q0 -6 1 -8h-65zM-27 -207q22 14 39.5 36.5t22.5 41.5q-15 0 -24 9.5t-9 25.5t11.5 27t28.5 11q38 0 38 -38
q0 -35 -27 -72t-64 -51q-14 2 -16 10z" />
    <glyph glyph-name="Rcaron" unicode="&#x158;" horiz-adv-x="552" 
d="M45 0l148 700h126q217 0 217 -158q0 -88 -47 -148t-140 -82l105 -307v-5h-62l-102 301q-32 -2 -51 -2h-69l-63 -299h-62zM178 336h65q228 0 228 207q0 62 -38.5 91.5t-119.5 29.5h-66zM346 751l-55 113q5 3 16 3t16 -3l63 -80h2l103 80q7 3 17 3q12 0 16 -3l-105 -113
q-11 -3 -38 -3q-25 0 -35 3z" />
    <glyph glyph-name="rcaron" unicode="&#x159;" horiz-adv-x="316" 
d="M31 0l105 502q21 0 58 5l-16 -72h2q21 26 59 51t86 25q17 0 26 -3q0 -28 -11 -53q-12 2 -35 2q-49 0 -83 -17.5t-47 -33.5l-64 -303q-16 -73 -16 -95q0 -6 1 -8h-65zM204 712l62 -102h2l105 102q8 3 18 3q13 0 16 -3l-109 -132q-12 -3 -37 -3q-26 0 -35 3l-55 132
q5 3 17 3t16 -3z" />
    <glyph glyph-name="Sacute" unicode="&#x15a;" horiz-adv-x="540" 
d="M28 136q19 17 59 21q4 -23 10 -40.5t21.5 -42t47.5 -38t78 -13.5q84 0 130.5 48.5t46.5 122.5q0 24 -7.5 44.5t-17 33.5t-29.5 27t-32.5 21t-38.5 20q-33 16 -44.5 22.5t-36 20.5t-33.5 24.5t-21.5 26.5t-17 35t-4.5 42q0 78 60 139.5t169 61.5q52 0 90.5 -13.5
t58.5 -35.5t29 -42.5t11 -42.5q-20 -14 -58 -16q-1 15 -3 25.5t-10.5 29t-22 30.5t-39.5 21t-61 9q-74 0 -118.5 -43.5t-44.5 -116.5q0 -14 3 -25.5t5.5 -19.5t12 -17.5t14.5 -14t21 -13.5t22.5 -12.5t28.5 -14.5t31 -15q25 -12 37 -18.5t33 -19.5t31.5 -25t23 -29.5
t17.5 -38.5t5 -47q0 -87 -64 -153t-181 -66q-184 0 -212 148zM524 864l-117 -112q-10 -4 -19 -4q-11 0 -17 4l80 112q11 3 37 3t36 -3z" />
    <glyph glyph-name="sacute" unicode="&#x15b;" horiz-adv-x="433" 
d="M17 100q17 12 53 16q4 -37 28.5 -66.5t82.5 -29.5q56 0 93.5 32.5t37.5 84.5q0 13 -2 23t-9.5 19t-11.5 14.5t-17.5 13.5t-18 10.5t-23 11t-22.5 10.5q-3 1 -21 9.5t-22.5 10.5t-19 10.5t-19 13t-14.5 14t-13 18t-6.5 20.5t-3.5 26q0 64 49.5 107.5t129.5 43.5
q44 0 75.5 -11t47 -28.5t22 -31t9.5 -27.5q-15 -11 -50 -14q-14 82 -106 82q-51 0 -86 -29t-35 -80q0 -31 20 -48.5t71 -40.5q4 -2 24 -10.5t25 -11t21 -11t21.5 -14t16 -15.5t14.5 -19t7.5 -22.5t3.5 -28.5q0 -74 -52.5 -118.5t-134.5 -44.5q-79 0 -118 32.5t-47 78.5z
M427 713l-128 -132q-7 -3 -18 -3q-13 0 -18 3l91 132q14 4 37 4q22 0 36 -4z" />
    <glyph glyph-name="Scircumflex" unicode="&#x15c;" horiz-adv-x="540" 
d="M28 136q19 17 59 21q4 -23 10 -40.5t21.5 -42t47.5 -38t78 -13.5q84 0 130.5 48.5t46.5 122.5q0 24 -7.5 44.5t-17 33.5t-29.5 27t-32.5 21t-38.5 20q-33 16 -44.5 22.5t-36 20.5t-33.5 24.5t-21.5 26.5t-17 35t-4.5 42q0 78 60 139.5t169 61.5q52 0 90.5 -13.5
t58.5 -35.5t29 -42.5t11 -42.5q-20 -14 -58 -16q-1 15 -3 25.5t-10.5 29t-22 30.5t-39.5 21t-61 9q-74 0 -118.5 -43.5t-44.5 -116.5q0 -14 3 -25.5t5.5 -19.5t12 -17.5t14.5 -14t21 -13.5t22.5 -12.5t28.5 -14.5t31 -15q25 -12 37 -18.5t33 -19.5t31.5 -25t23 -29.5
t17.5 -38.5t5 -47q0 -87 -64 -153t-181 -66q-184 0 -212 148zM421 831l-99 -81q-8 -3 -17 -3q-13 0 -18 3l105 114q10 3 36 3q25 0 36 -3l56 -114q-4 -3 -17 -3q-8 0 -14 3l-66 81h-2z" />
    <glyph glyph-name="scircumflex" unicode="&#x15d;" horiz-adv-x="433" 
d="M17 100q17 12 53 16q4 -37 28.5 -66.5t82.5 -29.5q56 0 93.5 32.5t37.5 84.5q0 13 -2 23t-9.5 19t-11.5 14.5t-17.5 13.5t-18 10.5t-23 11t-22.5 10.5q-3 1 -21 9.5t-22.5 10.5t-19 10.5t-19 13t-14.5 14t-13 18t-6.5 20.5t-3.5 26q0 64 49.5 107.5t129.5 43.5
q44 0 75.5 -11t47 -28.5t22 -31t9.5 -27.5q-15 -11 -50 -14q-14 82 -106 82q-51 0 -86 -29t-35 -80q0 -31 20 -48.5t71 -40.5q4 -2 24 -10.5t25 -11t21 -11t21.5 -14t16 -15.5t14.5 -19t7.5 -22.5t3.5 -28.5q0 -74 -52.5 -118.5t-134.5 -44.5q-79 0 -118 32.5t-47 78.5z
M311 683l-105 -102q-8 -3 -18 -3q-14 0 -18 3l111 132q9 4 36 4q28 0 36 -4l54 -132q-6 -3 -19 -3q-8 0 -13 3l-62 102h-2z" />
    <glyph glyph-name="Scedilla" unicode="&#x15e;" horiz-adv-x="540" 
d="M117 -195l9 22q22 -13 58 -13q59 0 59 53q0 23 -18 33.5t-55 17.5l36 72q-81 7 -124 46.5t-54 99.5q19 17 59 21q4 -23 10 -40.5t21.5 -42t47.5 -38t78 -13.5q84 0 130.5 48.5t46.5 122.5q0 24 -7.5 44.5t-17 33.5t-29.5 27t-32.5 21t-38.5 20q-33 16 -44.5 22.5
t-36 20.5t-33.5 24.5t-21.5 26.5t-17 35t-4.5 42q0 77 61.5 139t167.5 62q52 0 90.5 -13.5t58.5 -35.5t29 -42.5t11 -42.5q-20 -14 -58 -16q-1 15 -3 25.5t-10.5 29t-22 30.5t-39.5 21t-61 9q-73 0 -118 -43t-45 -112q0 -14 3 -26.5t5.5 -21.5t12.5 -18.5t14 -14.5t21 -14.5
t22.5 -12.5t29 -14t30.5 -15q25 -12 37 -18.5t33 -19.5t31.5 -25t23 -29.5t17.5 -38.5t5 -47q0 -87 -64 -153t-181 -66h-4l-23 -46q73 -16 73 -70q0 -38 -26.5 -61.5t-69.5 -23.5q-51 0 -73 18z" />
    <glyph glyph-name="scedilla" unicode="&#x15f;" horiz-adv-x="433" 
d="M64 -195l9 22q22 -13 58 -13q59 0 59 53q0 23 -18 33.5t-55 17.5l37 72q-65 6 -97.5 37t-39.5 73q17 12 53 16q4 -37 28.5 -66.5t82.5 -29.5q56 0 93.5 32.5t37.5 84.5q0 13 -2 23t-9.5 19t-11.5 14.5t-17.5 13.5t-18 10.5t-23 11t-22.5 10.5q-3 1 -21 9.5t-22.5 10.5
t-19 10.5t-19 13t-14.5 14t-13 18t-6.5 20.5t-3.5 26q0 64 49.5 107.5t129.5 43.5q44 0 75.5 -11t47 -28.5t22 -31t9.5 -27.5q-15 -11 -50 -14q-14 82 -106 82q-51 0 -86 -29t-35 -80q0 -31 20 -48.5t71 -40.5q4 -2 24 -10.5t25 -11t21 -11t21.5 -14t16 -15.5t14.5 -19
t7.5 -22.5t3.5 -28.5q0 -73 -52 -117.5t-133 -45.5l-24 -47q73 -16 73 -70q0 -38 -26.5 -61.5t-69.5 -23.5q-51 0 -73 18z" />
    <glyph glyph-name="Scaron" unicode="&#x160;" horiz-adv-x="540" 
d="M28 136q19 17 59 21q4 -23 10 -40.5t21.5 -42t47.5 -38t78 -13.5q84 0 130.5 48.5t46.5 122.5q0 24 -7.5 44.5t-17 33.5t-29.5 27t-32.5 21t-38.5 20q-33 16 -44.5 22.5t-36 20.5t-33.5 24.5t-21.5 26.5t-17 35t-4.5 42q0 78 60 139.5t169 61.5q52 0 90.5 -13.5
t58.5 -35.5t29 -42.5t11 -42.5q-20 -14 -58 -16q-1 15 -3 25.5t-10.5 29t-22 30.5t-39.5 21t-61 9q-74 0 -118.5 -43.5t-44.5 -116.5q0 -14 3 -25.5t5.5 -19.5t12 -17.5t14.5 -14t21 -13.5t22.5 -12.5t28.5 -14.5t31 -15q25 -12 37 -18.5t33 -19.5t31.5 -25t23 -29.5
t17.5 -38.5t5 -47q0 -87 -64 -153t-181 -66q-184 0 -212 148zM367 751l-55 113q4 3 16 3t16 -3l63 -80h2l103 80q7 3 17 3q11 0 16 -3l-105 -113q-11 -3 -38 -3q-24 0 -35 3z" />
    <glyph glyph-name="scaron" unicode="&#x161;" horiz-adv-x="433" 
d="M17 100q17 12 53 16q4 -37 28.5 -66.5t82.5 -29.5q56 0 93.5 32.5t37.5 84.5q0 13 -2 23t-9.5 19t-11.5 14.5t-17.5 13.5t-18 10.5t-23 11t-22.5 10.5q-3 1 -21 9.5t-22.5 10.5t-19 10.5t-19 13t-14.5 14t-13 18t-6.5 20.5t-3.5 26q0 64 49.5 107.5t129.5 43.5
q44 0 75.5 -11t47 -28.5t22 -31t9.5 -27.5q-15 -11 -50 -14q-14 82 -106 82q-51 0 -86 -29t-35 -80q0 -31 20 -48.5t71 -40.5q4 -2 24 -10.5t25 -11t21 -11t21.5 -14t16 -15.5t14.5 -19t7.5 -22.5t3.5 -28.5q0 -74 -52.5 -118.5t-134.5 -44.5q-79 0 -118 32.5t-47 78.5z
M228 712l62 -102h2l105 102q7 3 18 3q13 0 16 -3l-109 -132q-12 -3 -37 -3q-26 0 -35 3l-55 132q5 3 17 3t16 -3z" />
    <glyph glyph-name="Tcommaaccent" unicode="&#x162;" horiz-adv-x="489" 
d="M89 -195l9 22q22 -13 58 -13q59 0 59 53q0 23 -18 33.5t-55 17.5l42 82h-16l140 660h-191l8 40h444l-8 -40h-191l-140 -660h-15l-30 -58q73 -16 73 -70q0 -38 -26.5 -61.5t-69.5 -23.5q-51 0 -73 18z" />
    <glyph glyph-name="tcommaaccent" unicode="&#x163;" horiz-adv-x="311" 
d="M35 -195l9 22q22 -13 58 -13q59 0 59 53q0 23 -18 33.5t-55 17.5l41 80q-56 13 -56 75q0 21 6 50l73 346h-74l8 33h75l28 133q28 0 58 5l-29 -138h121l-8 -33h-120l-70 -333q-8 -40 -8 -60q0 -25 15.5 -36.5t50.5 -11.5q27 0 47 9v-4q0 -21 -5 -31q-21 -9 -61 -9
q-16 0 -23 1l-26 -52q73 -16 73 -70q0 -38 -26.5 -61.5t-69.5 -23.5q-51 0 -73 18z" />
    <glyph glyph-name="Tcaron" unicode="&#x164;" horiz-adv-x="489" 
d="M168 0l140 660h-191l8 40h444l-8 -40h-191l-140 -660h-62zM322 751l-55 113q5 3 16 3t16 -3l63 -80h2l103 80q7 3 17 3q12 0 16 -3l-105 -113q-10 -3 -38 -3q-25 0 -35 3z" />
    <glyph glyph-name="tcaron" unicode="&#x165;" horiz-adv-x="327" 
d="M79 123l73 346h-74l8 33h75l28 133q28 0 58 5l-29 -138h121l-8 -33h-120l-70 -333q-8 -40 -8 -60q0 -25 15.5 -36.5t50.5 -11.5q27 0 47 9v-4q0 -21 -5 -31q-21 -9 -61 -9q-55 0 -81 18.5t-26 61.5q0 21 6 50zM318 603q22 13 39 36.5t21 43.5q-30 2 -30 32q0 18 10.5 28
t26.5 10q35 0 35 -35q0 -36 -24.5 -74t-60.5 -55q-6 0 -11.5 4.5t-5.5 9.5z" />
    <glyph glyph-name="Tbar" unicode="&#x166;" horiz-adv-x="489" 
d="M168 0l80 376h-137l9 36h135l53 248h-191l8 40h444l-8 -40h-191l-53 -248h142l-9 -36h-140l-80 -376h-62z" />
    <glyph glyph-name="tbar" unicode="&#x167;" horiz-adv-x="311" 
d="M79 123l29 137h-73l7 33h73l37 176h-74l8 33h75l28 133q28 0 58 5l-29 -138h121l-8 -33h-120l-37 -176h123l-7 -33h-123l-26 -124q-8 -40 -8 -60q0 -25 15.5 -36.5t50.5 -11.5q27 0 47 9v-4q0 -21 -5 -31q-21 -9 -61 -9q-55 0 -81 18.5t-26 61.5q0 21 6 50z" />
    <glyph glyph-name="Utilde" unicode="&#x168;" horiz-adv-x="669" 
d="M102 289l87 411h62l-85 -405q-14 -70 -14 -121q0 -76 39 -110t119 -34q90 0 149 59t88 199l88 412h52l-88 -413q-33 -155 -102 -227t-192 -72q-112 0 -164 47t-52 142q0 51 13 112zM343 763q-8 -2 -14 -2q-9 0 -15 2q35 60 61 78t56 18q27 0 58.5 -29.5t51.5 -29.5
q35 0 73 58q4 1 16 1q10 0 12 -1q-33 -58 -58.5 -77.5t-49.5 -19.5q-30 0 -62.5 29.5t-55.5 29.5q-37 0 -73 -57z" />
    <glyph glyph-name="utilde" unicode="&#x169;" horiz-adv-x="515" 
d="M69 191l65 311q29 0 61 5l-64 -303q-11 -50 -11 -87q0 -45 21 -67t72 -22q40 0 78 18.5t63 43.5l86 412q29 0 61 5l-79 -373q-17 -80 -17 -104q0 -10 2 -20l-54 -15q-7 17 -7 44q0 6 1 17q-69 -67 -155 -67q-133 0 -133 124q0 31 10 78zM221 601q-8 -2 -14 -2
q-10 0 -14 2q33 60 59.5 78.5t56.5 18.5q27 0 58 -29.5t51 -29.5q35 0 75 57q6 2 14 2q9 0 13 -2q-33 -58 -58.5 -77t-50.5 -19q-29 0 -62 29.5t-56 29.5q-18 0 -38 -18t-34 -40z" />
    <glyph glyph-name="Umacron" unicode="&#x16a;" horiz-adv-x="669" 
d="M102 289l87 411h62l-85 -405q-14 -70 -14 -121q0 -76 39 -110t119 -34q90 0 149 59t88 199l88 412h52l-88 -413q-33 -155 -102 -227t-192 -72q-112 0 -164 47t-52 142q0 51 13 112zM332 780l8 39h256l-8 -39h-256z" />
    <glyph glyph-name="umacron" unicode="&#x16b;" horiz-adv-x="515" 
d="M69 191l65 311q29 0 61 5l-64 -303q-11 -50 -11 -87q0 -45 21 -67t72 -22q40 0 78 18.5t63 43.5l86 412q29 0 61 5l-79 -373q-17 -80 -17 -104q0 -10 2 -20l-54 -15q-7 17 -7 44q0 6 1 17q-69 -67 -155 -67q-133 0 -133 124q0 31 10 78zM217 620l8 39h256l-8 -39h-256z
" />
    <glyph glyph-name="Ubreve" unicode="&#x16c;" horiz-adv-x="669" 
d="M102 289l87 411h62l-85 -405q-14 -70 -14 -121q0 -76 39 -110t119 -34q90 0 149 59t88 199l88 412h52l-88 -413q-33 -155 -102 -227t-192 -72q-112 0 -164 47t-52 142q0 51 13 112zM389 867v-4q0 -70 72 -70q74 0 102 74q8 3 16 3q7 0 16 -3q-35 -115 -137 -115
q-48 0 -75 26t-27 71q0 12 1 18q12 3 17 3q10 0 15 -3z" />
    <glyph glyph-name="ubreve" unicode="&#x16d;" horiz-adv-x="515" 
d="M69 191l65 311q29 0 61 5l-64 -303q-11 -50 -11 -87q0 -45 21 -67t72 -22q40 0 78 18.5t63 43.5l86 412q29 0 61 5l-79 -373q-17 -80 -17 -104q0 -10 2 -20l-54 -15q-7 17 -7 44q0 6 1 17q-69 -67 -155 -67q-133 0 -133 124q0 31 10 78zM475 703q-36 -125 -139 -125
q-49 0 -74 28.5t-25 75.5q0 14 1 21q4 3 16 3q10 0 15 -3q0 -83 70 -83q73 0 104 83q8 3 17 3q12 0 15 -3z" />
    <glyph glyph-name="Uring" unicode="&#x16e;" horiz-adv-x="669" 
d="M102 289l87 411h62l-85 -405q-14 -70 -14 -121q0 -76 39 -110t119 -34q90 0 149 59t88 199l88 412h52l-88 -413q-33 -155 -102 -227t-192 -72q-112 0 -164 47t-52 142q0 51 13 112zM387 787q0 39 26 66.5t67 27.5q30 0 47 -17t17 -45q0 -38 -24.5 -65.5t-66.5 -27.5
q-32 0 -49 16.5t-17 44.5zM454 750q25 0 41.5 19t16.5 49q0 38 -37 38q-25 0 -40.5 -19.5t-15.5 -49.5q0 -37 35 -37z" />
    <glyph glyph-name="uring" unicode="&#x16f;" horiz-adv-x="515" 
d="M69 191l65 311q29 0 61 5l-64 -303q-11 -50 -11 -87q0 -45 21 -67t72 -22q40 0 78 18.5t63 43.5l86 412q29 0 61 5l-79 -373q-17 -80 -17 -104q0 -10 2 -20l-54 -15q-7 17 -7 44q0 6 1 17q-69 -67 -155 -67q-133 0 -133 124q0 31 10 78zM275 624q0 39 26 66.5t67 27.5
q30 0 47 -17t17 -45q0 -38 -24.5 -65.5t-66.5 -27.5q-32 0 -49 16.5t-17 44.5zM342 587q25 0 41.5 19t16.5 49q0 38 -37 38q-25 0 -40.5 -19.5t-15.5 -49.5q0 -37 35 -37z" />
    <glyph glyph-name="Uhungarumlaut" unicode="&#x170;" horiz-adv-x="669" 
d="M102 289l87 411h62l-85 -405q-14 -70 -14 -121q0 -76 39 -110t119 -34q90 0 149 59t88 199l88 412h52l-88 -413q-33 -155 -102 -227t-192 -72q-112 0 -164 47t-52 142q0 51 13 112zM495 864l-97 -112q-10 -4 -18 -4q-11 0 -17 4l62 112q14 4 36 4t34 -4zM645 864
l-111 -112q-10 -4 -19 -4q-13 0 -19 4l79 112q14 4 36 4t34 -4z" />
    <glyph glyph-name="uhungarumlaut" unicode="&#x171;" horiz-adv-x="515" 
d="M69 191l65 311q29 0 61 5l-64 -303q-11 -50 -11 -87q0 -45 21 -67t72 -22q40 0 78 18.5t63 43.5l86 412q29 0 61 5l-79 -373q-17 -80 -17 -104q0 -10 2 -20l-54 -15q-7 17 -7 44q0 6 1 17q-69 -67 -155 -67q-133 0 -133 124q0 31 10 78zM388 713l-105 -132q-8 -3 -18 -3
q-13 0 -17 3l71 132q14 4 36 4q21 0 33 -4zM530 713l-121 -132q-7 -3 -19 -3q-15 0 -18 3l88 132q14 4 35 4t35 -4z" />
    <glyph glyph-name="Uogonek" unicode="&#x172;" horiz-adv-x="669" 
d="M416 -172l6 -18q-27 -27 -82 -27q-76 0 -76 65q0 77 105 146q-30 -6 -64 -6q-112 0 -164 47t-52 142q0 51 13 112l87 411h62l-85 -405q-14 -70 -14 -121q0 -76 39 -110t119 -34q90 0 149 59t88 199l88 412h52l-88 -413q-23 -107 -59 -169.5t-99 -101.5
q-130 -79 -130 -164q0 -38 48 -38q33 0 57 14z" />
    <glyph glyph-name="uogonek" unicode="&#x173;" horiz-adv-x="515" 
d="M365 -172l6 -18q-30 -27 -84 -27q-72 0 -72 65q0 46 39 87t96 68q-4 12 -4 36q0 6 1 17q-69 -67 -155 -67q-133 0 -133 124q0 31 10 78l65 311q29 0 61 5l-64 -303q-11 -50 -11 -87q0 -45 21 -67t72 -22q40 0 78 18.5t63 43.5l86 412q29 0 61 5l-79 -373
q-17 -80 -17 -104q0 -10 2 -20q-66 -29 -106 -70t-40 -87q0 -39 48 -39q31 0 56 14z" />
    <glyph glyph-name="Wcircumflex" unicode="&#x174;" horiz-adv-x="897" 
d="M170 0l-37 695v5h60l16 -362q8 -163 8 -264v-14h3q17 52 113 249l189 391h69l23 -394q6 -106 6 -196q0 -38 -1 -48h3q7 21 111 243l185 395h53v-5l-333 -695h-64l-21 350q-11 177 -11 264q0 5 0.5 14t0.5 12h-3q-18 -46 -120 -259l-185 -381h-65zM581 831l-99 -81
q-8 -3 -17 -3q-13 0 -18 3l105 114q10 3 36 3t36 -3l56 -114q-4 -3 -17 -3q-8 0 -14 3l-66 81h-2z" />
    <glyph glyph-name="wcircumflex" unicode="&#x175;" horiz-adv-x="664" 
d="M110 0l-14 497v5h57l4 -217q2 -161 -1 -216h2q19 49 92 192l118 227h47l16 -229q8 -114 8 -154q0 -7 -0.5 -19t-0.5 -17h2q14 45 81 189l113 244h47v-5l-233 -497h-47l-22 277q-6 86 -6 139h-2q-25 -57 -68 -141l-140 -275h-53zM432 683l-105 -102q-7 -3 -18 -3
q-13 0 -18 3l111 132q9 4 36 4q28 0 36 -4l54 -132q-6 -3 -19 -3q-9 0 -13 3l-62 102h-2z" />
    <glyph glyph-name="Ycircumflex" unicode="&#x176;" horiz-adv-x="543" 
d="M195 0l57 267l-121 428v5h61l103 -382h3l266 382h53v-5l-303 -425l-57 -270h-62zM407 831l-99 -81q-7 -3 -17 -3q-13 0 -18 3l105 114q10 3 36 3q25 0 36 -3l56 -114q-4 -3 -17 -3q-8 0 -14 3l-66 81h-2z" />
    <glyph glyph-name="ycircumflex" unicode="&#x177;" horiz-adv-x="453" 
d="M159 11l-69 486v5h57l32 -235q21 -147 21 -186h2q13 31 99 187l130 234h49v-5l-316 -566q-2 -3 -12.5 -23t-15 -26t-16 -22.5t-21.5 -23t-25.5 -16t-34.5 -13t-42 -3.5q-33 0 -41 4q0 31 10 51q19 -7 43 -7q13 0 23.5 2.5t19 6t18 13t15.5 16t16 23t16 26.5t19.5 33.5
t22.5 38.5zM330 683l-105 -102q-7 -3 -18 -3q-13 0 -18 3l111 132q9 4 36 4q28 0 36 -4l54 -132q-6 -3 -19 -3q-9 0 -13 3l-62 102h-2z" />
    <glyph glyph-name="Ydieresis" unicode="&#x178;" horiz-adv-x="543" 
d="M195 0l57 267l-121 428v5h61l103 -382h3l266 382h53v-5l-303 -425l-57 -270h-62zM297 758q-31 0 -31 31q0 19 12.5 31t32.5 12q32 0 32 -29q0 -18 -12.5 -31.5t-33.5 -13.5zM486 758q-30 0 -30 31q0 19 12.5 31t32.5 12q32 0 32 -29q0 -18 -13 -31.5t-34 -13.5z" />
    <glyph glyph-name="Zacute" unicode="&#x179;" horiz-adv-x="571" 
d="M2 0l4 22l533 638h-378l8 40h459l-4 -21l-534 -639h396l-9 -40h-475zM522 864l-117 -112q-10 -4 -19 -4q-11 0 -17 4l80 112q10 3 37 3q26 0 36 -3z" />
    <glyph glyph-name="zacute" unicode="&#x17a;" horiz-adv-x="445" 
d="M-9 0l3 16l394 453h-279l8 33h354l-4 -17l-394 -452h295l-7 -33h-370zM430 713l-128 -132q-8 -3 -18 -3q-14 0 -18 3l91 132q14 4 37 4q22 0 36 -4z" />
    <glyph glyph-name="Zdotaccent" unicode="&#x17b;" horiz-adv-x="571" 
d="M2 0l4 22l533 638h-378l8 40h459l-4 -21l-534 -639h396l-9 -40h-475zM380 799q0 19 12.5 31.5t32.5 12.5q32 0 32 -30q0 -18 -12.5 -31t-33.5 -13q-14 0 -22.5 8t-8.5 22z" />
    <glyph glyph-name="zdotaccent" unicode="&#x17c;" horiz-adv-x="445" 
d="M-9 0l3 16l394 453h-279l8 33h354l-4 -17l-394 -452h295l-7 -33h-370zM307 608q-31 0 -31 31q0 19 13 31.5t33 12.5q33 0 33 -30q0 -18 -13 -31.5t-35 -13.5z" />
    <glyph glyph-name="Zcaron" unicode="&#x17d;" horiz-adv-x="571" 
d="M2 0l4 22l533 638h-378l8 40h459l-4 -21l-534 -639h396l-9 -40h-475zM385 751l-55 113q4 3 16 3t16 -3l63 -80h2l103 80q8 3 17 3q11 0 16 -3l-105 -113q-10 -3 -38 -3q-24 0 -35 3z" />
    <glyph glyph-name="zcaron" unicode="&#x17e;" horiz-adv-x="445" 
d="M-9 0l3 16l394 453h-279l8 33h354l-4 -17l-394 -452h295l-7 -33h-370zM253 712l62 -102h2l105 102q7 3 18 3q13 0 16 -3l-109 -132q-12 -3 -37 -3q-26 0 -35 3l-55 132q4 3 17 3q11 0 16 -3z" />
    <glyph glyph-name="longs" unicode="&#x17f;" horiz-adv-x="287" 
d="M31 0l110 520q41 191 203 191q48 0 58 -7q-2 -16 -8 -35q-16 8 -49 8q-61 0 -93.5 -37.5t-49.5 -117.5l-90 -416q-16 -72 -16 -97q0 -7 1 -9h-66z" />
    <glyph glyph-name="uni018F" unicode="&#x18f;" horiz-adv-x="660" 
d="M84 333h474q0 2 1 4q18 84 18 156q0 184 -161 184q-142 0 -219 -141q-38 2 -53 19q94 156 276 156q115 0 170 -64.5t55 -177.5q0 -56 -14 -126q-32 -159 -126 -257t-235 -98q-105 0 -155.5 58.5t-50.5 154.5q0 41 9 85q5 28 11 47zM549 298h-404q-13 -62 -13 -115
q0 -161 137 -161q103 0 173.5 71t106.5 205z" />
    <glyph glyph-name="florin" unicode="&#x192;" 
d="M204 -58l93 433h-106l7 32h106l26 123q17 83 59 117.5t108 34.5q44 0 58 -7q-3 -25 -9 -36q-12 10 -51 10q-46 0 -68.5 -26.5t-36.5 -92.5l-27 -123h136l-6 -32h-137l-92 -432q-17 -83 -59 -118t-108 -35q-42 0 -58 8q1 14 9 36q15 -11 51 -11q47 0 69 26.5t36 92.5z" />
    <glyph glyph-name="uni01B5" unicode="&#x1b5;" horiz-adv-x="571" 
d="M2 0l4 22l270 323h-181l8 39h205l231 276h-378l8 40h459l-4 -21l-247 -295h187l-9 -39h-210l-255 -305h396l-9 -40h-475z" />
    <glyph glyph-name="uni01B6" unicode="&#x1b6;" horiz-adv-x="445" 
d="M-9 0l3 16l195 225h-126l7 33h148l170 195h-279l8 33h354l-4 -17l-184 -211h141l-7 -33h-163l-181 -208h295l-7 -33h-370z" />
    <glyph glyph-name="AEacute" unicode="&#x1fc;" horiz-adv-x="798" 
d="M-22 0v5l473 695h389l-8 -40h-291l-60 -280h265v-3q0 -20 -8 -38h-265l-64 -299h306l-8 -40h-369l52 246h-193l-164 -246h-55zM225 287h173l80 374h-3q-19 -33 -140 -211zM765 864l-117 -112q-10 -4 -19 -4q-11 0 -17 4l80 112q10 3 37 3q25 0 36 -3z" />
    <glyph glyph-name="aeacute" unicode="&#x1fd;" horiz-adv-x="806" 
d="M365 280l12 61q9 45 9 66q0 37 -20 56t-69 19q-52 0 -89.5 -25.5t-54.5 -54.5q-38 4 -47 22q29 43 81 65.5t111 22.5q124 0 142 -83q73 83 183 83q82 0 120.5 -42.5t38.5 -111.5q0 -50 -15 -100h-340q-12 -55 -12 -100q0 -138 117 -138q91 0 147 100q39 0 55 -13
q-68 -118 -205 -118q-121 0 -158 90q-79 -89 -192 -89q-70 0 -107 33t-37 91q0 89 63 133.5t157 44.5q68 0 110 -12zM360 111q-7 28 -7 65q0 35 7 75q-32 12 -91 12q-74 0 -122.5 -35.5t-48.5 -111.5q0 -92 97 -92q92 0 165 87zM433 289h280q9 45 9 81q0 112 -102 112
q-67 0 -115 -49.5t-72 -143.5zM630 713l-128 -132q-8 -3 -18 -3q-14 0 -18 3l91 132q14 4 37 4q22 0 36 -4z" />
    <glyph glyph-name="Oslashacute" unicode="&#x1fe;" horiz-adv-x="687" 
d="M40 -5l71 80q-39 61 -39 158q0 57 13 118q34 164 129 262.5t232 98.5q113 0 171 -67l67 75l28 -20l-74 -84q35 -59 35 -148q0 -49 -13 -117q-32 -163 -128 -263t-234 -100q-108 0 -165 59l-65 -73zM153 123l428 481q-39 73 -139 73q-105 0 -180 -86t-106 -240
q-16 -80 -16 -134q0 -56 13 -94zM595 568l-426 -480q41 -65 133 -65q104 0 178.5 86.5t107.5 241.5q16 74 16 143q0 41 -9 74zM609 864l-117 -112q-10 -4 -19 -4q-11 0 -17 4l80 112q10 3 37 3q25 0 36 -3z" />
    <glyph glyph-name="oslashacute" unicode="&#x1ff;" horiz-adv-x="551" 
d="M30 2l52 56q-32 49 -32 119q0 32 8 74q25 119 94.5 190t182.5 71q83 0 130 -44l43 46l26 -21l-48 -51q30 -47 30 -117q0 -38 -7 -74q-23 -116 -95.5 -189t-180.5 -73q-82 0 -129 44l-47 -50zM119 98l314 336q-29 48 -101 48q-82 0 -134 -61.5t-75 -169.5q-11 -53 -11 -94
q0 -35 7 -59zM447 400l-313 -335q30 -46 99 -46q82 0 135 62t75 170q10 47 10 92q0 31 -6 57zM501 713l-128 -132q-7 -3 -18 -3q-13 0 -18 3l91 132q14 4 37 4q22 0 36 -4z" />
    <glyph glyph-name="Scommaaccent" unicode="&#x218;" horiz-adv-x="540" 
d="M28 136q19 17 59 21q4 -23 10 -40.5t21.5 -42t47.5 -38t78 -13.5q84 0 130.5 48.5t46.5 122.5q0 24 -7.5 44.5t-17 33.5t-29.5 27t-32.5 21t-38.5 20q-33 16 -44.5 22.5t-36 20.5t-33.5 24.5t-21.5 26.5t-17 35t-4.5 42q0 78 60 139.5t169 61.5q52 0 90.5 -13.5
t58.5 -35.5t29 -42.5t11 -42.5q-20 -14 -58 -16q-1 15 -3 25.5t-10.5 29t-22 30.5t-39.5 21t-61 9q-74 0 -118.5 -43.5t-44.5 -116.5q0 -14 3 -25.5t5.5 -19.5t12 -17.5t14.5 -14t21 -13.5t22.5 -12.5t28.5 -14.5t31 -15q25 -12 37 -18.5t33 -19.5t31.5 -25t23 -29.5
t17.5 -38.5t5 -47q0 -87 -64 -153t-181 -66q-184 0 -212 148zM141 -207q22 14 39.5 36.5t22.5 41.5q-15 0 -24 9.5t-9 25.5t11.5 27t28.5 11q38 0 38 -38q0 -35 -27 -72t-64 -51q-14 2 -16 10z" />
    <glyph glyph-name="scommaaccent" unicode="&#x219;" horiz-adv-x="433" 
d="M17 100q17 12 53 16q4 -37 28.5 -66.5t82.5 -29.5q56 0 93.5 32.5t37.5 84.5q0 13 -2 23t-9.5 19t-11.5 14.5t-17.5 13.5t-18 10.5t-23 11t-22.5 10.5q-3 1 -21 9.5t-22.5 10.5t-19 10.5t-19 13t-14.5 14t-13 18t-6.5 20.5t-3.5 26q0 64 49.5 107.5t129.5 43.5
q44 0 75.5 -11t47 -28.5t22 -31t9.5 -27.5q-15 -11 -50 -14q-14 82 -106 82q-51 0 -86 -29t-35 -80q0 -31 20 -48.5t71 -40.5q4 -2 24 -10.5t25 -11t21 -11t21.5 -14t16 -15.5t14.5 -19t7.5 -22.5t3.5 -28.5q0 -74 -52.5 -118.5t-134.5 -44.5q-79 0 -118 32.5t-47 78.5z
M74 -207q22 14 39.5 36.5t22.5 41.5q-15 0 -24 9.5t-9 25.5t11.5 27t28.5 11q38 0 38 -38q0 -35 -27 -72t-64 -51q-14 2 -16 10z" />
    <glyph glyph-name="uni021A" unicode="&#x21a;" horiz-adv-x="489" 
d="M168 0l140 660h-191l8 40h444l-8 -40h-191l-140 -660h-62zM111 -207q22 14 39.5 36.5t22.5 41.5q-15 0 -24 9.5t-9 25.5t11.5 27t28.5 11q38 0 38 -38q0 -35 -27 -72t-64 -51q-14 2 -16 10z" />
    <glyph glyph-name="uni021B" unicode="&#x21b;" horiz-adv-x="311" 
d="M79 123l73 346h-74l8 33h75l28 133q28 0 58 5l-29 -138h121l-8 -33h-120l-70 -333q-8 -40 -8 -60q0 -25 15.5 -36.5t50.5 -11.5q27 0 47 9v-4q0 -21 -5 -31q-21 -9 -61 -9q-55 0 -81 18.5t-26 61.5q0 21 6 50zM59 -207q22 14 39.5 36.5t22.5 41.5q-15 0 -24 9.5t-9 25.5
t11.5 27t28.5 11q38 0 38 -38q0 -35 -27 -72t-64 -51q-14 2 -16 10z" />
    <glyph glyph-name="dotlessj" unicode="&#x237;" horiz-adv-x="212" 
d="M18 -59l118 561q29 0 61 5l-122 -577q-15 -73 -48.5 -103t-93.5 -30q-37 0 -52 5v2q0 21 9 35q18 -8 42 -8q40 0 56.5 24t29.5 86z" />
    <glyph glyph-name="uni0259" unicode="&#x259;" horiz-adv-x="504" 
d="M56 244h340q11 57 11 98q0 140 -117 140q-93 0 -146 -100h-4q-36 0 -51 13q70 117 205 117q90 0 133 -50t43 -137q0 -35 -8 -80q-22 -115 -91 -185.5t-171 -70.5q-82 0 -120.5 42.5t-38.5 112.5q0 50 15 100zM388 212h-278q-9 -45 -9 -81q0 -111 102 -111q134 0 185 192z
" />
    <glyph glyph-name="circumflex" unicode="&#x2c6;" horiz-adv-x="348" 
d="M274 683l-105 -102q-7 -3 -18 -3q-13 0 -18 3l111 132q9 4 36 4q28 0 36 -4l54 -132q-6 -3 -19 -3q-9 0 -13 3l-62 102h-2z" />
    <glyph glyph-name="caron" unicode="&#x2c7;" horiz-adv-x="348" 
d="M194 712l62 -102h2l105 102q8 3 18 3q13 0 16 -3l-109 -132q-12 -3 -37 -3q-26 0 -35 3l-55 132q5 3 17 3q11 0 16 -3z" />
    <glyph glyph-name="breve" unicode="&#x2d8;" horiz-adv-x="348" 
d="M396 703q-36 -125 -139 -125q-49 0 -74 28.5t-25 75.5q0 14 1 21q5 3 16 3t15 -3q0 -83 70 -83q73 0 104 83q8 3 17 3q12 0 15 -3z" />
    <glyph glyph-name="dotaccent" unicode="&#x2d9;" horiz-adv-x="187" 
d="M177 608q-31 0 -31 31q0 19 13 31.5t33 12.5q33 0 33 -30q0 -18 -13 -31.5t-35 -13.5z" />
    <glyph glyph-name="ring" unicode="&#x2da;" horiz-adv-x="266" 
d="M145 624q0 39 26 66.5t67 27.5q30 0 47 -17t17 -45q0 -38 -24.5 -65.5t-66.5 -27.5q-32 0 -49 16.5t-17 44.5zM212 587q25 0 41.5 19t16.5 49q0 38 -37 38q-25 0 -40.5 -19.5t-15.5 -49.5q0 -37 35 -37z" />
    <glyph glyph-name="ogonek" unicode="&#x2db;" horiz-adv-x="278" 
d="M132 -172l6 -18q-27 -27 -82 -27q-76 0 -76 65q0 56 54 98t126 65l11 -11q-144 -63 -144 -148q0 -38 48 -38q33 0 57 14z" />
    <glyph glyph-name="tilde" unicode="&#x2dc;" horiz-adv-x="418" 
d="M166 601q-8 -2 -14 -2q-10 0 -14 2q33 60 59.5 78.5t56.5 18.5q27 0 58 -29.5t51 -29.5q35 0 75 57q6 2 14 2q9 0 13 -2q-33 -58 -58.5 -77t-50.5 -19q-29 0 -61.5 29.5t-56.5 29.5q-18 0 -38 -18t-34 -40z" />
    <glyph glyph-name="hungarumlaut" unicode="&#x2dd;" horiz-adv-x="364" 
d="M273 713l-105 -132q-7 -3 -18 -3q-12 0 -17 3l71 132q14 4 36 4q21 0 33 -4zM415 713l-121 -132q-7 -3 -19 -3q-15 0 -18 3l88 132q14 4 35 4t35 -4z" />
    <glyph glyph-name="uni0394" unicode="&#x394;" horiz-adv-x="610" 
d="M16 0v7l235 693h76l233 -695v-5h-544zM81 40h402l-199 603h-3z" />
    <glyph glyph-name="uni03A9" unicode="&#x3a9;" horiz-adv-x="714" 
d="M85 0v49h208v54q-96 24 -149 102t-53 197q0 141 75.5 225.5t212.5 84.5q139 0 215 -84.5t76 -225.5q0 -119 -54.5 -197t-150.5 -102v-54h212v-49h-251v123q84 17 130 88t46 190q0 132 -57.5 205.5t-165.5 73.5q-106 0 -164 -73.5t-58 -205.5q0 -120 46 -190t129 -88v-123
h-247z" />
    <glyph glyph-name="uni03BC" unicode="&#x3bc;" horiz-adv-x="516" 
d="M-10 -206l149 708q29 0 61 5l-66 -312q-9 -42 -9 -76q0 -44 21 -67t71 -23q37 0 76 18t66 43l86 412q31 0 61 5l-79 -373q-17 -83 -17 -106q0 -8 2 -18l-54 -15q-7 17 -7 41q0 12 1 20q-71 -67 -146 -67q-76 0 -107 44l-49 -234q-31 0 -60 -5z" />
    <glyph glyph-name="pi" unicode="&#x3c0;" horiz-adv-x="578" 
d="M119 0v469h-89v33h507v-33h-110v-349q0 -53 18 -72.5t63 -19.5q29 0 47 9q2 -8 2 -22q0 -10 -1 -13q-15 -9 -56 -9q-72 0 -102.5 28.5t-30.5 101.5v346h-188v-363q0 -94 7 -106h-67z" />
    <glyph glyph-name="Wgrave" unicode="&#x1e80;" horiz-adv-x="897" 
d="M170 0l-37 695v5h60l16 -362q8 -163 8 -264v-14h3q17 52 113 249l189 391h69l23 -394q6 -106 6 -196q0 -38 -1 -48h3q7 21 111 243l185 395h53v-5l-333 -695h-64l-21 350q-11 177 -11 264q0 5 0.5 14t0.5 12h-3q-18 -46 -120 -259l-185 -381h-65zM544 752l-68 112
q9 3 36 3q26 0 37 -3l30 -112q-6 -4 -18 -4q-9 0 -17 4z" />
    <glyph glyph-name="wgrave" unicode="&#x1e81;" horiz-adv-x="664" 
d="M110 0l-14 497v5h57l4 -217q2 -161 -1 -216h2q19 49 92 192l118 227h47l16 -229q8 -114 8 -154q0 -7 -0.5 -19t-0.5 -17h2q14 45 81 189l113 244h47v-5l-233 -497h-47l-22 277q-6 86 -6 139h-2q-25 -57 -68 -141l-140 -275h-53zM380 581l-72 132q14 4 37 4t37 -4l33 -132
q-6 -3 -19 -3q-12 0 -16 3z" />
    <glyph glyph-name="Wacute" unicode="&#x1e82;" horiz-adv-x="897" 
d="M170 0l-37 695v5h60l16 -362q8 -163 8 -264v-14h3q17 52 113 249l189 391h69l23 -394q6 -106 6 -196q0 -38 -1 -48h3q7 21 111 243l185 395h53v-5l-333 -695h-64l-21 350q-11 177 -11 264q0 5 0.5 14t0.5 12h-3q-18 -46 -120 -259l-185 -381h-65zM698 864l-117 -112
q-10 -4 -19 -4q-11 0 -17 4l80 112q11 3 37 3t36 -3z" />
    <glyph glyph-name="wacute" unicode="&#x1e83;" horiz-adv-x="664" 
d="M110 0l-14 497v5h57l4 -217q2 -161 -1 -216h2q19 49 92 192l118 227h47l16 -229q8 -114 8 -154q0 -7 -0.5 -19t-0.5 -17h2q14 45 81 189l113 244h47v-5l-233 -497h-47l-22 277q-6 86 -6 139h-2q-25 -57 -68 -141l-140 -275h-53zM557 713l-128 -132q-7 -3 -18 -3
q-13 0 -18 3l91 132q14 4 37 4q22 0 36 -4z" />
    <glyph glyph-name="Wdieresis" unicode="&#x1e84;" horiz-adv-x="897" 
d="M170 0l-37 695v5h60l16 -362q8 -163 8 -264v-14h3q17 52 113 249l189 391h69l23 -394q6 -106 6 -196q0 -38 -1 -48h3q7 21 111 243l185 395h53v-5l-333 -695h-64l-21 350q-11 177 -11 264q0 5 0.5 14t0.5 12h-3q-18 -46 -120 -259l-185 -381h-65zM469 758q-31 0 -31 31
q0 19 12.5 31t32.5 12q32 0 32 -29q0 -18 -12.5 -31.5t-33.5 -13.5zM658 758q-30 0 -30 31q0 19 12.5 31t32.5 12q32 0 32 -29q0 -18 -13 -31.5t-34 -13.5z" />
    <glyph glyph-name="wdieresis" unicode="&#x1e85;" horiz-adv-x="664" 
d="M110 0l-14 497v5h57l4 -217q2 -161 -1 -216h2q19 49 92 192l118 227h47l16 -229q8 -114 8 -154q0 -7 -0.5 -19t-0.5 -17h2q14 45 81 189l113 244h47v-5l-233 -497h-47l-22 277q-6 86 -6 139h-2q-25 -57 -68 -141l-140 -275h-53zM298 638q0 19 13 31.5t33 12.5
q32 0 32 -30q0 -18 -13 -31t-34 -13q-31 0 -31 30zM469 638q0 19 13 31.5t33 12.5q32 0 32 -30q0 -18 -13 -31t-34 -13q-31 0 -31 30z" />
    <glyph glyph-name="uni1E8A" unicode="&#x1e8a;" horiz-adv-x="571" 
d="M-15 0v5l297 353l-134 337v5h63l117 -302l252 302h55v-5l-284 -335l145 -355v-5h-63l-128 318l-265 -318h-55zM377 799q0 19 12.5 31.5t32.5 12.5q32 0 32 -30q0 -18 -12.5 -31t-33.5 -13q-14 0 -22.5 8t-8.5 22z" />
    <glyph glyph-name="uni1E8B" unicode="&#x1e8b;" horiz-adv-x="444" 
d="M-17 0v5l214 255l-95 237v5h59l80 -208l172 208h51v-5l-202 -238l104 -254v-5h-60l-88 223l-186 -223h-49zM300 608q-31 0 -31 31q0 19 13 31.5t33 12.5q33 0 33 -30q0 -18 -13 -31.5t-35 -13.5z" />
    <glyph glyph-name="Ygrave" unicode="&#x1ef2;" horiz-adv-x="543" 
d="M195 0l57 267l-121 428v5h61l103 -382h3l266 382h53v-5l-303 -425l-57 -270h-62zM374 752l-68 112q9 3 36 3q26 0 37 -3l30 -112q-6 -4 -18 -4q-9 0 -17 4z" />
    <glyph glyph-name="ygrave" unicode="&#x1ef3;" horiz-adv-x="453" 
d="M159 11l-69 486v5h57l32 -235q21 -147 21 -186h2q13 31 99 187l130 234h49v-5l-316 -566q-2 -3 -12.5 -23t-15 -26t-16 -22.5t-21.5 -23t-25.5 -16t-34.5 -13t-42 -3.5q-33 0 -41 4q0 31 10 51q19 -7 43 -7q13 0 23.5 2.5t19 6t18 13t15.5 16t16 23t16 26.5t19.5 33.5
t22.5 38.5zM283 581l-72 132q14 4 37 4t37 -4l33 -132q-6 -3 -19 -3q-11 0 -16 3z" />
    <glyph glyph-name="endash" unicode="&#x2013;" horiz-adv-x="569" 
d="M71 274l11 50h451l-10 -50h-452z" />
    <glyph glyph-name="emdash" unicode="&#x2014;" horiz-adv-x="787" 
d="M71 274l11 50h669l-10 -50h-670z" />
    <glyph glyph-name="quoteleft" unicode="&#x2018;" horiz-adv-x="206" 
d="M244 700q-24 -14 -43 -37t-24 -44q35 -2 35 -36q0 -18 -12 -30.5t-31 -12.5t-29 11.5t-10 29.5q0 38 28.5 77.5t66.5 55.5q7 0 13 -4.5t6 -9.5z" />
    <glyph glyph-name="quoteright" unicode="&#x2019;" horiz-adv-x="206" 
d="M127 552q24 14 43 37t24 44q-35 2 -35 36q0 18 12 30.5t31 12.5t29 -11.5t10 -29.5q0 -38 -28.5 -77.5t-66.5 -55.5q-7 0 -13 4.5t-6 9.5z" />
    <glyph glyph-name="quotesinglbase" unicode="&#x201a;" horiz-adv-x="206" 
d="M-5 -88q24 14 43 37t24 44q-35 2 -35 36q0 18 12 30.5t31 12.5t29 -11.5t10 -29.5q0 -38 -28.5 -77.5t-66.5 -55.5q-7 0 -13 4.5t-6 9.5z" />
    <glyph glyph-name="quotedblleft" unicode="&#x201c;" horiz-adv-x="356" 
d="M244 700q-24 -14 -43 -37t-24 -44q35 -2 35 -36q0 -18 -12 -30.5t-31 -12.5t-29 11.5t-10 29.5q0 38 28.5 77.5t66.5 55.5q7 0 13 -4.5t6 -9.5zM394 700q-24 -14 -43 -37t-24 -44q35 -2 35 -36q0 -18 -12 -30.5t-31 -12.5t-29 11.5t-10 29.5q0 38 28.5 77.5t66.5 55.5
q7 0 13 -4.5t6 -9.5z" />
    <glyph glyph-name="quotedblright" unicode="&#x201d;" horiz-adv-x="356" 
d="M127 552q24 14 43 37t24 44q-35 2 -35 36q0 18 12 30.5t31 12.5t29 -11.5t10 -29.5q0 -38 -28.5 -77.5t-66.5 -55.5q-7 0 -13 4.5t-6 9.5zM277 552q24 14 43 37t24 44q-35 2 -35 36q0 18 12 30.5t31 12.5t29 -11.5t10 -29.5q0 -38 -28.5 -77.5t-66.5 -55.5q-7 0 -13 4.5
t-6 9.5z" />
    <glyph glyph-name="quotedblbase" unicode="&#x201e;" horiz-adv-x="356" 
d="M-5 -88q24 14 43 37t24 44q-35 2 -35 36q0 18 12 30.5t31 12.5t29 -11.5t10 -29.5q0 -38 -28.5 -77.5t-66.5 -55.5q-7 0 -13 4.5t-6 9.5zM145 -88q24 14 43 37t24 44q-35 2 -35 36q0 18 12 30.5t31 12.5t29 -11.5t10 -29.5q0 -38 -28.5 -77.5t-66.5 -55.5q-7 0 -13 4.5
t-6 9.5z" />
    <glyph glyph-name="dagger" unicode="&#x2020;" horiz-adv-x="626" 
d="M228 -100l110 556l-217 -7q-2 6 -2 11q0 29 14 43l212 -9l41 206q9 6 31 6q21 0 28 -6l-47 -206l218 9q2 -6 2 -10q0 -27 -13 -44l-216 7l-126 -556h-35z" />
    <glyph glyph-name="daggerdbl" unicode="&#x2021;" horiz-adv-x="626" 
d="M228 -100l51 257l-222 -7q-2 6 -2 11q0 29 14 43l217 -10l52 262l-217 -7q-2 6 -2 11q0 29 14 43l212 -9l41 206q9 6 31 6q21 0 28 -6l-47 -206l218 9q2 -6 2 -10q0 -27 -13 -44l-216 7l-59 -262l223 10q1 -2 1 -9q0 -28 -13 -45l-220 8l-58 -258h-35z" />
    <glyph glyph-name="bullet" unicode="&#x2022;" horiz-adv-x="295" 
d="M81 331q0 14 2 22q8 40 40 67t74 27q35 0 56 -20.5t21 -52.5q0 -7 -2 -21q-9 -41 -41 -68t-73 -27q-36 0 -56.5 20t-20.5 53z" />
    <glyph glyph-name="ellipsis" unicode="&#x2026;" horiz-adv-x="498" 
d="M42 -6q-14 0 -23 8.5t-9 23.5q0 20 13 33t33 13q34 0 34 -32q0 -18 -13 -32t-35 -14zM204 -6q-14 0 -23 8.5t-9 23.5q0 20 13 33t33 13q34 0 34 -32q0 -18 -13 -32t-35 -14zM366 -6q-14 0 -23 8.5t-9 23.5q0 20 13 33t33 13q34 0 34 -32q0 -18 -13 -32t-35 -14z" />
    <glyph glyph-name="perthousand" unicode="&#x2030;" horiz-adv-x="1178" 
d="M115 485q0 27 5 49q17 79 69.5 125.5t123.5 46.5q59 0 92 -32t33 -89q0 -24 -6 -51q-16 -80 -68 -126.5t-123 -46.5q-60 0 -93 32.5t-33 91.5zM246 388q101 0 132 146q8 38 8 62q0 82 -78 82q-101 0 -132 -144q-7 -32 -7 -61q0 -85 77 -85zM444 115q0 23 6 52
q16 79 68.5 125.5t124.5 46.5q59 0 91.5 -32.5t32.5 -89.5q0 -27 -5 -50q-17 -80 -69.5 -126.5t-123.5 -46.5q-59 0 -92 32t-33 89zM575 21q102 0 133 146q7 32 7 61q0 84 -78 84q-100 0 -131 -145q-8 -38 -8 -62q0 -84 77 -84zM128 0v5l583 695h45l-1 -5l-581 -695h-46z
M798 116q0 24 6 51q16 79 68.5 125.5t123.5 46.5q60 0 93 -32.5t33 -89.5q0 -23 -6 -50q-17 -80 -69.5 -126.5t-123.5 -46.5q-59 0 -92 32.5t-33 89.5zM929 21q52 0 84 35.5t48 110.5q7 32 7 62q0 83 -78 83q-99 0 -130 -145q-8 -38 -8 -63q0 -83 77 -83z" />
    <glyph glyph-name="guilsinglleft" unicode="&#x2039;" horiz-adv-x="363" 
d="M208 46l-127 210l1 9l218 208h47l-206 -213l114 -214h-47z" />
    <glyph glyph-name="guilsinglright" unicode="&#x203a;" horiz-adv-x="363" 
d="M83 46h-47l207 214l-116 213h48l127 -208l-2 -9z" />
    <glyph glyph-name="fraction" unicode="&#x2044;" horiz-adv-x="189" 
d="M-190 0l1 5l581 695h45l-1 -5l-581 -695h-45z" />
    <glyph glyph-name="zero.superior" unicode="&#x2070;" horiz-adv-x="396" 
d="M258 459q-61 0 -92 35.5t-31 99.5q0 37 8 72q20 96 70.5 151t126.5 55q61 0 92 -35.5t31 -98.5q0 -30 -8 -72q-20 -97 -70.5 -152t-126.5 -55zM261 486q97 0 135 180q11 53 11 89q0 89 -70 89q-96 0 -134 -178q-11 -55 -11 -89q0 -91 69 -91z" />
    <glyph glyph-name="four.superior" unicode="&#x2074;" horiz-adv-x="376" 
d="M119 566l8 38l247 261h54l-55 -261h49l-8 -38h-49l-21 -100h-53l21 100h-193zM170 604h152l44 208h-3z" />
    <glyph glyph-name="five.superior" unicode="&#x2075;" horiz-adv-x="355" 
d="M152 657l51 208h235l-9 -44h-203l-33 -132q43 26 95 26q56 0 83.5 -27t27.5 -71q0 -18 -2 -28q-10 -59 -56 -94.5t-110 -35.5q-51 0 -82.5 18.5t-37.5 44.5q16 12 44 18q19 -52 77 -52q42 0 72 26t37 71q2 18 2 26q0 71 -69 71q-54 0 -85 -25h-37z" />
    <glyph glyph-name="six.superior" unicode="&#x2076;" horiz-adv-x="379" 
d="M210 667q47 41 112 41q52 0 76.5 -25.5t24.5 -66.5q0 -8 -2 -26q-9 -58 -51 -94.5t-110 -36.5q-56 0 -86.5 37t-30.5 103q0 33 7 67q20 94 71 150t123 56q95 0 108 -87q-20 -13 -54 -13q-5 72 -60 72q-90 0 -128 -177zM204 638q-6 -36 -6 -64q0 -88 62 -88q43 0 69 26.5
t34 71.5q3 15 3 28q0 66 -63 66q-57 0 -99 -40z" />
    <glyph glyph-name="seven.superior" unicode="&#x2077;" horiz-adv-x="340" 
d="M141 466v3l258 352h-232l9 44h271l-8 -39l-238 -360h-60z" />
    <glyph glyph-name="eight.superior" unicode="&#x2078;" horiz-adv-x="372" 
d="M235 677l1 3q-56 15 -56 71q0 6 2 20q8 45 48 73t98 28q52 0 80.5 -23t28.5 -61q0 -12 -1 -18q-6 -33 -30.5 -57t-61.5 -33l-1 -3q69 -17 69 -81q0 -8 -2 -22q-9 -53 -52.5 -84t-111.5 -31q-61 0 -91.5 25t-30.5 69q0 7 2 21q6 39 35 65.5t74 37.5zM181 550q0 -64 68 -64
q42 0 69 23.5t34 65.5q2 18 2 26q0 64 -67 64q-41 0 -69 -23.5t-35 -66.5q-2 -9 -2 -25zM292 691q35 0 60 21t30 57q2 14 2 20q0 55 -59 55q-37 0 -61 -20t-29 -55q-1 -6 -1 -18q0 -60 58 -60z" />
    <glyph glyph-name="nine.superior" unicode="&#x2079;" horiz-adv-x="379" 
d="M129 545q18 12 53 14q6 -73 61 -73q89 0 127 172q-49 -42 -114 -42q-51 0 -75 25t-24 65q0 11 4 33q12 57 54 95t108 38q56 0 86 -36t30 -99q0 -30 -8 -70q-20 -97 -69.5 -152.5t-121.5 -55.5q-97 0 -111 86zM376 688q7 35 7 68q0 88 -63 88q-81 0 -103 -102
q-3 -16 -3 -30q0 -67 61 -67q58 0 101 43z" />
    <glyph glyph-name="zero.inferior" unicode="&#x2080;" horiz-adv-x="396" 
d="M122 -180q-61 0 -92 35.5t-31 99.5q0 37 8 72q20 96 70.5 151t126.5 55q61 0 92 -35.5t31 -98.5q0 -30 -8 -72q-20 -97 -70.5 -152t-126.5 -55zM125 -153q97 0 135 180q11 53 11 89q0 89 -70 89q-96 0 -134 -178q-11 -55 -11 -89q0 -91 69 -91z" />
    <glyph glyph-name="one.inferior" unicode="&#x2081;" horiz-adv-x="333" 
d="M-3 -173l6 29h81l69 327l-85 -19l7 31q3 1 106 31h35l-78 -370h71l-6 -29h-206z" />
    <glyph glyph-name="two.inferior" unicode="&#x2082;" horiz-adv-x="373" 
d="M-22 -173l7 33q1 0 30 19.5t36.5 24.5t35.5 24.5t39 29t34 29t34.5 33.5t26.5 32.5t23 36t12 35.5q2 16 2 24q0 57 -61 57q-63 0 -102 -76q-36 2 -45 13q16 37 55.5 64t97.5 27q54 0 82 -23.5t28 -64.5q0 -13 -3 -28q-13 -62 -78 -119.5t-179 -126.5v-1h214l-9 -43h-280z
" />
    <glyph glyph-name="three.inferior" unicode="&#x2083;" horiz-adv-x="354" 
d="M100 17l6 29h21q108 0 121 87q2 12 2 19q0 52 -63 52q-55 0 -92 -50q-29 4 -39 16q39 63 136 63q112 0 112 -83q0 -10 -1 -16q-10 -80 -112 -100l-1 -1q84 -11 84 -82q0 -6 -2 -20q-8 -53 -52 -82t-111 -29q-52 0 -83 18t-36 44q10 10 45 20q16 -53 76 -53q44 0 71 22
t32 59q1 7 1 19q0 34 -21.5 51t-72.5 17h-21z" />
    <glyph glyph-name="four.inferior" unicode="&#x2084;" horiz-adv-x="376" 
d="M-17 -73l8 38l247 261h54l-55 -261h49l-8 -38h-49l-21 -100h-53l21 100h-193zM34 -35h152l44 208h-3z" />
    <glyph glyph-name="five.inferior" unicode="&#x2085;" horiz-adv-x="355" 
d="M26 18l51 208h235l-9 -44h-203l-33 -132q43 26 95 26q56 0 83.5 -27t27.5 -71q0 -18 -2 -28q-10 -59 -56 -94.5t-110 -35.5q-51 0 -82.5 18.5t-37.5 44.5q16 12 44 18q19 -52 77 -52q42 0 72 26t37 71q2 18 2 26q0 71 -69 71q-54 0 -85 -25h-37z" />
    <glyph glyph-name="six.inferior" unicode="&#x2086;" horiz-adv-x="379" 
d="M83 28q47 41 112 41q52 0 76.5 -25.5t24.5 -66.5q0 -8 -2 -26q-9 -58 -51 -94.5t-110 -36.5q-56 0 -86.5 37t-30.5 103q0 33 7 67q20 94 71 150t123 56q95 0 108 -87q-19 -13 -54 -13q-5 72 -60 72q-90 0 -128 -177zM77 -1q-6 -36 -6 -64q0 -88 62 -88q43 0 69 26.5
t34 71.5q3 15 3 28q0 66 -63 66q-57 0 -99 -40z" />
    <glyph glyph-name="seven.inferior" unicode="&#x2087;" horiz-adv-x="340" 
d="M4 -173v3l258 352h-232l9 44h271l-8 -39l-238 -360h-60z" />
    <glyph glyph-name="eight.inferior" unicode="&#x2088;" horiz-adv-x="372" 
d="M106 38l1 3q-56 15 -56 71q0 6 2 20q8 45 48 73t98 28q52 0 80.5 -23t28.5 -61q0 -12 -1 -18q-6 -33 -30.5 -57t-61.5 -33l-1 -3q69 -17 69 -81q0 -8 -2 -22q-9 -53 -52.5 -84t-111.5 -31q-61 0 -91.5 25t-30.5 69q0 7 2 21q6 39 35 65.5t74 37.5zM52 -89q0 -64 68 -64
q42 0 69 23.5t34 65.5q2 18 2 26q0 64 -67 64q-41 0 -69 -23.5t-35 -66.5q-2 -9 -2 -25zM163 52q35 0 60 21t30 57q2 14 2 20q0 55 -59 55q-37 0 -61 -20t-29 -55q-1 -6 -1 -18q0 -60 58 -60z" />
    <glyph glyph-name="nine.inferior" unicode="&#x2089;" horiz-adv-x="379" 
d="M-6 -94q18 12 53 14q6 -73 61 -73q89 0 127 172q-49 -42 -114 -42q-51 0 -75 25t-24 65q0 11 4 33q12 57 54 95t108 38q56 0 86 -36t30 -99q0 -30 -8 -70q-20 -97 -69.5 -152.5t-121.5 -55.5q-97 0 -111 86zM241 49q7 35 7 68q0 88 -63 88q-81 0 -103 -102q-3 -17 -3 -30
q0 -67 61 -67q58 0 101 43z" />
    <glyph glyph-name="uni20A8" unicode="&#x20a8;" 
d="M353 0l-242 289v1l6 31h86q103 0 157.5 38t67.5 123v2h-276l6 31h274v15q0 60 -37.5 86.5t-123.5 26.5h-86l7 33h464l-12 -30h-214q67 -39 67 -121v-10h97l-12 -31h-88q-16 -98 -92 -146t-202 -48h-23l247 -285v-5h-71z" />
    <glyph glyph-name="Euro" unicode="&#x20ac;" 
d="M49 269l6 31h60q0 3 2 17t4 22q8 42 13 62h-57l6 30h60q39 120 114 189t181 69q159 0 194 -130q-16 -15 -56 -15q-19 113 -134 113q-164 0 -231 -226h291l-11 -30h-288q-9 -37 -14 -62l-7 -39h270l-12 -31h-262q-4 -35 -4 -72q0 -87 32 -132t104 -45q119 0 182 124
q15 0 32 -6t23 -13q-13 -22 -30.5 -42.5t-46 -43.5t-70 -37t-89.5 -14q-203 0 -203 223q0 28 3 58h-62z" />
    <glyph glyph-name="uni2117" unicode="&#x2117;" horiz-adv-x="810" 
d="M318 116v466h99q90 0 135.5 -38.5t45.5 -105.5t-46 -106.5t-137 -39.5h-51v-176h-46zM364 321h53q130 0 130 115q0 116 -130 116h-53v-231zM430 -12q-154 0 -257.5 105.5t-103.5 256.5t103.5 256.5t257.5 105.5q153 0 256.5 -105.5t103.5 -256.5t-103.5 -256.5
t-256.5 -105.5zM430 23q141 0 230.5 94t89.5 233t-89.5 233t-230.5 94t-231 -94t-90 -233t90 -233t231 -94z" />
    <glyph glyph-name="trademark" unicode="&#x2122;" horiz-adv-x="730" 
d="M181 347v328h-98v25h238v-25h-99v-328h-41zM377 347v353h48l67 -171q45 -116 50 -134h1q4 20 48 133l69 172h51v-353h-40v193q0 67 2 113h-2q-8 -31 -37 -104l-82 -202h-25l-81 202q-28 71 -38 104h-2q3 -34 3 -113v-193h-32z" />
    <glyph glyph-name="Omega" unicode="&#x2126;" horiz-adv-x="714" 
d="M85 0v49h208v54q-96 24 -149 102t-53 197q0 141 75.5 225.5t212.5 84.5q139 0 215 -84.5t76 -225.5q0 -119 -54.5 -197t-150.5 -102v-54h212v-49h-251v123q84 17 130 88t46 190q0 132 -57.5 205.5t-165.5 73.5q-106 0 -164 -73.5t-58 -205.5q0 -120 46 -190t129 -88v-123
h-247z" />
    <glyph glyph-name="partialdiff" unicode="&#x2202;" horiz-adv-x="561" 
d="M170 569q-43 3 -53 20q27 54 77.5 87t115.5 33q110 0 166.5 -85t56.5 -234q0 -187 -71 -294.5t-192 -107.5q-101 0 -153.5 58.5t-52.5 150.5q0 93 54 158t163 65q59 0 109 -24t73 -58q2 40 2 62q0 277 -153 277q-51 0 -87.5 -30t-54.5 -78zM460 296q-59 91 -169 91
q-77 0 -119.5 -54.5t-42.5 -146.5q0 -166 143 -166q79 0 127 70.5t61 205.5z" />
    <glyph glyph-name="Delta" unicode="&#x2206;" horiz-adv-x="610" 
d="M16 0v7l235 693h76l233 -695v-5h-544zM81 40h402l-199 603h-3z" />
    <glyph glyph-name="product" unicode="&#x220f;" horiz-adv-x="673" 
d="M125 -100v800h492v-800h-63v760h-366v-760h-63z" />
    <glyph glyph-name="summation" unicode="&#x2211;" horiz-adv-x="577" 
d="M72 -100v22l234 391l-219 366v21h463v-39h-388l211 -348l-226 -374h406v-39h-481z" />
    <glyph glyph-name="minus" unicode="&#x2212;" 
d="M65 278v43h474v-43h-474z" />
    <glyph glyph-name="radical" unicode="&#x221a;" horiz-adv-x="599" 
d="M319 0l-168 464h-80l8 38h114l158 -446h2q7 34 216 644h51v-5l-242 -695h-59z" />
    <glyph glyph-name="infinity" unicode="&#x221e;" horiz-adv-x="828" 
d="M406 309q-41 -61 -82.5 -94t-101.5 -33q-69 0 -111.5 44t-42.5 117q0 79 51.5 118t118.5 39q68 0 107 -29.5t80 -92.5q46 64 90.5 99t106.5 35q68 0 117.5 -41t49.5 -125q0 -79 -48 -128.5t-127 -49.5q-62 0 -111 30.5t-97 110.5zM439 357q55 -87 91 -122.5t86 -35.5
q49 0 79 36.5t30 106.5q0 137 -113 137q-56 0 -94 -31.5t-79 -90.5zM394 333q-5 7 -19.5 29.5t-20 30t-18.5 24.5t-21.5 23.5t-21.5 15.5t-27 12.5t-29 3.5q-52 0 -79 -37t-27 -93q0 -54 28.5 -91t78.5 -37q45 0 80 30.5t76 88.5z" />
    <glyph glyph-name="integral" unicode="&#x222b;" 
d="M272 -58v588q0 83 35 117.5t102 34.5q41 0 60 -7v-11q0 -22 -1 -25q-16 10 -54 10q-47 0 -64.5 -26.5t-17.5 -92.5v-587q0 -83 -35.5 -118t-101.5 -35q-45 0 -59 8q0 1 -0.5 4.5t-0.5 5.5q0 18 2 26q18 -11 54 -11q47 0 64 26.5t17 92.5z" />
    <glyph glyph-name="approxequal" unicode="&#x2248;" 
d="M69 140v46q6 5 17.5 12.5t46.5 20.5t69 13q41 0 115.5 -25.5t115.5 -25.5q26 0 51.5 11t37.5 22l13 11v-51q-46 -34 -102 -34q-45 0 -120 25.5t-112 25.5q-29 0 -62 -12.5t-51 -25.5zM70 328v46q6 5 17.5 12.5t46.5 20.5t69 13q41 0 115.5 -25.5t115.5 -25.5
q26 0 51.5 11t38.5 22l12 11v-51q-46 -34 -102 -34q-45 0 -120 25.5t-112 25.5q-29 0 -62 -12.5t-52 -25.5z" />
    <glyph glyph-name="notequal" unicode="&#x2260;" 
d="M167 21v5l65 151h-167v43h185l69 158h-254v43h272l60 138h41v-5l-57 -133h159v-43h-178l-68 -158h246v-43h-264l-67 -156h-42z" />
    <glyph glyph-name="lessequal" unicode="&#x2264;" 
d="M56 306v44l475 140v-44l-418 -117v-3l418 -116v-44zM56 31v43h475v-43h-475z" />
    <glyph glyph-name="greaterequal" unicode="&#x2265;" 
d="M540 306l-474 -140v44l417 116v3l-417 117v44l474 -140v-44zM540 31h-474v43h474v-43z" />
    <glyph glyph-name="lozenge" unicode="&#x25ca;" horiz-adv-x="575" 
d="M350 0h-74l-197 350l197 350h74l196 -350zM129 350l177 -316h3l174 316l-174 316h-3z" />
    <glyph glyph-name="CR" horiz-adv-x="216" 
 />
    <glyph glyph-name="a.small" horiz-adv-x="538" 
d="M-8 0v5l322 566h72l80 -566v-5h-60l-27 193h-225l-107 -193h-55zM176 233h197l-16 120q-18 139 -20 172h-2q-22 -49 -90 -169z" />
    <glyph glyph-name="b.small" horiz-adv-x="504" 
d="M48 0l120 571h132q184 0 184 -118q0 -62 -38 -101.5t-104 -53.5v-1q107 -23 107 -115q0 -182 -249 -182h-152zM115 33h77q192 0 192 147q0 52 -34.5 76t-107.5 24h-74zM175 314h66q181 0 181 142q0 43 -31 62.5t-99 19.5h-70z" />
    <glyph glyph-name="c.small" horiz-adv-x="579" 
d="M470 169h6q37 0 54 -10q-80 -169 -258 -169q-99 0 -150 55.5t-51 152.5q0 44 9 88q28 134 109.5 214.5t202.5 80.5q89 0 133.5 -43.5t50.5 -112.5q-15 -10 -50 -10h-8q-6 65 -35.5 98.5t-94.5 33.5q-89 0 -150.5 -68.5t-87.5 -192.5q-11 -52 -11 -102q0 -77 34.5 -118.5
t101.5 -41.5q66 0 116 39.5t79 105.5z" />
    <glyph glyph-name="d.small" horiz-adv-x="569" 
d="M48 0l120 571h141q230 0 230 -199q0 -37 -8 -81q-53 -291 -342 -291h-141zM116 34h78q113 0 177.5 63t90.5 189q10 49 10 94q0 79 -41 118t-128 39h-81z" />
    <glyph glyph-name="e.small" horiz-adv-x="463" 
d="M48 0l120 571h313l-7 -39h-253l-46 -219h228v-3q0 -18 -7 -37h-230l-49 -234h266l-7 -39h-328z" />
    <glyph glyph-name="f.small" horiz-adv-x="452" 
d="M48 0l120 571h320l-7 -39h-260l-47 -223h230v-3q0 -20 -8 -36h-230l-57 -270h-61z" />
    <glyph glyph-name="g.small" horiz-adv-x="589" 
d="M432 63l41 191h-133l8 38h190l-52 -242q-77 -60 -198 -60q-111 0 -164 55t-53 152q0 41 9 89q25 133 107.5 214t203.5 81q86 0 129 -39t50 -94q-15 -12 -46 -12q-7 0 -12 1q-12 110 -125 110q-88 0 -150 -68t-88 -191q-12 -57 -12 -105q0 -159 153 -159q93 0 142 39z" />
    <glyph glyph-name="h.small" horiz-adv-x="603" 
d="M48 0l120 571h61l-52 -248h307l54 248h60l-120 -571h-61l60 283h-308l-60 -283h-61z" />
    <glyph glyph-name="i.small" horiz-adv-x="235" 
d="M48 0l120 571h61l-120 -571h-61z" />
    <glyph glyph-name="j.small" horiz-adv-x="360" 
d="M203 128l94 443h61l-95 -447q-15 -73 -57.5 -103t-122.5 -30q-65 0 -85 10q0 24 9 39q30 -13 74 -13q55 0 82.5 22.5t39.5 78.5z" />
    <glyph glyph-name="k.small" horiz-adv-x="497" 
d="M48 0l120 571h61l-56 -265h2l305 265h60v-5l-312 -268l200 -293v-5h-66l-192 283h-2l-59 -283h-61z" />
    <glyph glyph-name="l.small" horiz-adv-x="438" 
d="M48 0l120 571h61l-113 -531h258l-7 -40h-319z" />
    <glyph glyph-name="m.small" horiz-adv-x="727" 
d="M48 0l120 571h74l55 -279q34 -172 37 -219h1q32 63 129 216l179 282h79l-121 -571h-61l58 268q37 175 54 233h-3q-47 -87 -102 -174l-209 -327h-39l-65 328q-24 118 -30 176h-2q-9 -66 -35 -188l-68 -316h-51z" />
    <glyph glyph-name="n.small" horiz-adv-x="620" 
d="M48 0l120 571h71l136 -298q65 -140 85 -207h2q7 54 35 190l67 315h50l-120 -571h-59l-153 333q-52 114 -74 183h-3q-26 -136 -33 -172l-73 -344h-51z" />
    <glyph glyph-name="o.small" horiz-adv-x="623" 
d="M272 -10q-100 0 -150.5 54.5t-50.5 149.5q0 45 10 92q26 133 108 214t203 81q100 0 151 -54.5t51 -147.5q0 -47 -9 -93q-26 -133 -109 -214.5t-204 -81.5zM275 24q89 0 152 69t89 193q12 59 12 106q0 155 -140 155q-87 0 -148 -66.5t-87 -182.5q-16 -69 -16 -124
q0 -72 34.5 -111t103.5 -39z" />
    <glyph glyph-name="p.small" horiz-adv-x="489" 
d="M48 0l120 571h113q201 0 201 -139q0 -101 -68.5 -149.5t-188.5 -48.5h-67l-49 -234h-61zM165 269h51q96 0 148.5 38t52.5 128q0 53 -31.5 77t-105.5 24h-59z" />
    <glyph glyph-name="q.small" horiz-adv-x="623" 
d="M316 -7q-21 -3 -44 -3q-100 0 -150.5 54.5t-50.5 149.5q0 45 10 92q26 133 108 214t203 81q100 0 151 -54.5t51 -147.5q0 -47 -9 -93q-21 -107 -80.5 -182.5t-146.5 -101.5q6 -39 25 -54t57 -15q25 0 37 5q0 -25 -9 -49q-10 -5 -37 -5q-54 0 -79.5 25.5t-35.5 83.5z
M275 24q89 0 152 69t89 193q12 59 12 106q0 155 -140 155q-87 0 -148 -66.5t-87 -182.5q-16 -69 -16 -124q0 -72 34.5 -111t103.5 -39z" />
    <glyph glyph-name="r.small" horiz-adv-x="502" 
d="M48 0l120 571h120q189 0 189 -130q0 -150 -158 -192l88 -244v-5h-62l-86 239q-28 -2 -43 -2h-57l-50 -237h-61zM166 271h56q192 0 192 169q0 50 -32.5 73t-103.5 23h-56z" />
    <glyph glyph-name="s.small" horiz-adv-x="496" 
d="M33 114q18 15 58 17q18 -107 134 -107q70 0 109.5 38t39.5 94q0 24 -8.5 43t-26.5 32.5t-33.5 22t-42.5 19.5q-40 17 -58 26t-41 26t-32 38.5t-9 51.5q0 66 52.5 116t144.5 50q90 0 129.5 -35t43.5 -77q-20 -14 -55 -14q-2 12 -4 20.5t-10 23t-19.5 24t-34.5 17t-53 7.5
q-58 0 -96 -34.5t-38 -91.5q0 -38 26 -57.5t96 -48.5q30 -13 48 -22.5t39.5 -27t32 -41.5t10.5 -55q0 -72 -55.5 -125.5t-158.5 -53.5q-164 0 -188 124z" />
    <glyph glyph-name="t.small" horiz-adv-x="451" 
d="M157 0l112 532h-164l6 39h391l-6 -39h-166l-114 -532h-59z" />
    <glyph glyph-name="u.small" horiz-adv-x="606" 
d="M100 259l66 312h61l-70 -332q-10 -47 -10 -86q0 -65 32.5 -93.5t100.5 -28.5q78 0 127.5 46t73.5 156l72 338h50l-71 -338q-27 -126 -86.5 -184.5t-167.5 -58.5q-100 0 -146.5 39.5t-46.5 119.5q0 38 15 110z" />
    <glyph glyph-name="v.small" horiz-adv-x="537" 
d="M197 0l-79 566v5h59l42 -312q22 -167 22 -209h3q23 56 85 166l200 355h55v-5l-323 -566h-64z" />
    <glyph glyph-name="w.small" horiz-adv-x="808" 
d="M159 0l-40 566v5h59l17 -288q9 -160 9 -224h3q20 53 95 202l155 310h66l22 -292q9 -109 9 -219h3q5 13 94 198l150 313h53v-5l-281 -566h-62l-19 246q-10 124 -14 264h-3q-22 -58 -100 -212l-152 -298h-64z" />
    <glyph glyph-name="x.small" horiz-adv-x="522" 
d="M-3 0v5l254 287l-120 274v5h60l104 -244l212 244h54v-5l-243 -273l130 -288v-5h-62l-112 255l-223 -255h-54z" />
    <glyph glyph-name="y.small" horiz-adv-x="500" 
d="M182 0l45 218l-109 348v5h59l93 -307h2l221 307h54v-5l-259 -349l-46 -217h-60z" />
    <glyph glyph-name="z.small" horiz-adv-x="521" 
d="M12 0l4 22l451 510h-325l7 39h403l-4 -22l-452 -510h341l-7 -39h-418z" />
    <glyph glyph-name="agrave.small" horiz-adv-x="538" 
d="M-8 0v5l322 566h72l80 -566v-5h-60l-27 193h-225l-107 -193h-55zM176 233h197l-16 120q-18 139 -20 172h-2q-22 -49 -90 -169zM340 632l-72 132q14 4 37 4t37 -4l33 -132q-6 -3 -19 -3q-12 0 -16 3z" />
    <glyph glyph-name="aacute.small" horiz-adv-x="538" 
d="M-8 0v5l322 566h72l80 -566v-5h-60l-27 193h-225l-107 -193h-55zM176 233h197l-16 120q-18 139 -20 172h-2q-22 -49 -90 -169zM503 764l-128 -132q-7 -3 -18 -3q-13 0 -18 3l91 132q14 4 37 4q22 0 36 -4z" />
    <glyph glyph-name="acircumflex.small" horiz-adv-x="538" 
d="M-8 0v5l322 566h72l80 -566v-5h-60l-27 193h-225l-107 -193h-55zM176 233h197l-16 120q-18 139 -20 172h-2q-22 -49 -90 -169zM385 734l-105 -102q-8 -3 -18 -3q-14 0 -18 3l111 132q14 4 36 4q24 0 36 -4l54 -132q-6 -3 -19 -3q-8 0 -13 3l-62 102h-2z" />
    <glyph glyph-name="atilde.small" horiz-adv-x="538" 
d="M-8 0v5l322 566h72l80 -566v-5h-60l-27 193h-225l-107 -193h-55zM176 233h197l-16 120q-18 139 -20 172h-2q-22 -49 -90 -169zM233 652q-8 -2 -14 -2q-10 0 -14 2q33 60 59.5 78.5t56.5 18.5q27 0 58 -29.5t51 -29.5q35 0 75 57q3 1 14 1t13 -1q-33 -58 -58.5 -77
t-50.5 -19q-29 0 -62 29.5t-56 29.5q-18 0 -38 -18t-34 -40z" />
    <glyph glyph-name="adieresis.small" horiz-adv-x="538" 
d="M-8 0v5l322 566h72l80 -566v-5h-60l-27 193h-225l-107 -193h-55zM176 233h197l-16 120q-18 139 -20 172h-2q-22 -49 -90 -169zM243 689q0 19 13 31.5t33 12.5q32 0 32 -30q0 -18 -13 -31t-34 -13q-31 0 -31 30zM414 689q0 19 13 31.5t33 12.5q32 0 32 -30q0 -18 -13 -31
t-34 -13q-31 0 -31 30z" />
    <glyph glyph-name="amacron.small" horiz-adv-x="538" 
d="M-8 0v5l322 566h72l80 -566v-5h-60l-27 193h-225l-107 -193h-55zM176 233h197l-16 120q-18 139 -20 172h-2q-22 -49 -90 -169zM235 671l8 39h256l-8 -39h-256z" />
    <glyph glyph-name="abreve.small" horiz-adv-x="538" 
d="M-8 0v5l322 566h72l80 -566v-5h-60l-27 193h-225l-107 -193h-55zM176 233h197l-16 120q-18 139 -20 172h-2q-22 -49 -90 -169zM498 754q-36 -125 -139 -125q-49 0 -74 28t-25 76q0 14 1 21q5 3 17 3q10 0 14 -3q0 -83 70 -83q73 0 104 83q6 3 16 3q13 0 16 -3z" />
    <glyph glyph-name="aring.small" horiz-adv-x="538" 
d="M-8 0v5l322 566h72l80 -566v-5h-60l-27 193h-225l-107 -193h-55zM176 233h197l-16 120q-18 139 -20 172h-2q-22 -49 -90 -169zM294 675q0 39 26 66.5t67 27.5q30 0 47 -17t17 -45q0 -38 -24.5 -65.5t-66.5 -27.5q-32 0 -49 16.5t-17 44.5zM361 638q25 0 41.5 19t16.5 49
q0 38 -37 38q-25 0 -40.5 -19.5t-15.5 -49.5q0 -37 35 -37z" />
    <glyph glyph-name="aogonek.small" horiz-adv-x="538" 
d="M-8 0v5l322 566h72l80 -566v-4l1 -1q-144 -63 -144 -148q0 -38 48 -38q33 0 57 14l6 -18q-27 -27 -82 -27q-76 0 -76 65q0 50 43 89t106 63h-19l-27 193h-225l-107 -193h-55zM176 233h197l-16 120q-18 140 -20 172h-2q-22 -49 -90 -169z" />
    <glyph glyph-name="ae.small" horiz-adv-x="722" 
d="M-10 0v5l403 566h347l-8 -39h-252l-47 -219h228v-4q0 -22 -6 -36h-230l-51 -234h267l-7 -39h-328l40 193h-167l-136 -193h-53zM207 233h148l63 300h-2q-22 -34 -119 -172z" />
    <glyph glyph-name="aeacute.small" horiz-adv-x="722" 
d="M-10 0v5l403 566h347l-8 -39h-252l-47 -219h228v-4q0 -22 -6 -36h-230l-51 -234h267l-7 -39h-328l40 193h-167l-136 -193h-53zM207 233h148l63 300h-2q-22 -34 -119 -172zM694 764l-128 -132q-8 -3 -18 -3q-14 0 -18 3l91 132q14 4 37 4q22 0 36 -4z" />
    <glyph glyph-name="cacute.small" horiz-adv-x="579" 
d="M470 169h6q37 0 54 -10q-80 -169 -258 -169q-99 0 -150 55.5t-51 152.5q0 44 9 88q28 134 109.5 214.5t202.5 80.5q89 0 133.5 -43.5t50.5 -112.5q-15 -10 -50 -10h-8q-6 65 -35.5 98.5t-94.5 33.5q-89 0 -150.5 -68.5t-87.5 -192.5q-11 -52 -11 -102q0 -77 34.5 -118.5
t101.5 -41.5q66 0 116 39.5t79 105.5zM547 764l-128 -132q-7 -3 -18 -3q-13 0 -18 3l91 132q14 4 37 4q22 0 36 -4z" />
    <glyph glyph-name="ccircumflex.small" horiz-adv-x="579" 
d="M470 169h6q37 0 54 -10q-80 -169 -258 -169q-99 0 -150 55.5t-51 152.5q0 44 9 88q28 134 109.5 214.5t202.5 80.5q89 0 133.5 -43.5t50.5 -112.5q-15 -10 -50 -10h-8q-6 65 -35.5 98.5t-94.5 33.5q-89 0 -150.5 -68.5t-87.5 -192.5q-11 -52 -11 -102q0 -77 34.5 -118.5
t101.5 -41.5q66 0 116 39.5t79 105.5zM440 734l-105 -102q-7 -3 -18 -3q-13 0 -18 3l111 132q14 4 36 4q24 0 36 -4l54 -132q-6 -3 -19 -3q-9 0 -13 3l-62 102h-2z" />
    <glyph glyph-name="ccaron.small" horiz-adv-x="579" 
d="M470 169h6q37 0 54 -10q-80 -169 -258 -169q-99 0 -150 55.5t-51 152.5q0 44 9 88q28 134 109.5 214.5t202.5 80.5q89 0 133.5 -43.5t50.5 -112.5q-15 -10 -50 -10h-8q-6 65 -35.5 98.5t-94.5 33.5q-89 0 -150.5 -68.5t-87.5 -192.5q-11 -52 -11 -102q0 -77 34.5 -118.5
t101.5 -41.5q66 0 116 39.5t79 105.5zM363 765l62 -102h2l105 102q7 3 18 3q13 0 16 -3l-109 -132q-12 -3 -37 -3q-26 0 -35 3l-55 132q4 3 17 3q11 0 16 -3z" />
    <glyph glyph-name="cdotaccent.small" horiz-adv-x="579" 
d="M470 169h6q37 0 54 -10q-80 -169 -258 -169q-99 0 -150 55.5t-51 152.5q0 44 9 88q28 134 109.5 214.5t202.5 80.5q89 0 133.5 -43.5t50.5 -112.5q-15 -10 -50 -10h-8q-6 65 -35.5 98.5t-94.5 33.5q-89 0 -150.5 -68.5t-87.5 -192.5q-11 -52 -11 -102q0 -77 34.5 -118.5
t101.5 -41.5q66 0 116 39.5t79 105.5zM423 659q-31 0 -31 31q0 19 13 31.5t33 12.5q33 0 33 -30q0 -18 -13 -31.5t-35 -13.5z" />
    <glyph glyph-name="ccedilla.small" horiz-adv-x="579" 
d="M156 -195l9 22q22 -13 58 -13q59 0 59 53q0 23 -18 33.5t-55 17.5l37 73q-86 7 -130.5 62t-44.5 145q0 44 9 88q28 134 109.5 214.5t202.5 80.5q89 0 133.5 -43.5t50.5 -112.5q-15 -10 -50 -10h-8q-6 65 -35.5 98.5t-94.5 33.5q-89 0 -150.5 -68.5t-87.5 -192.5
q-11 -52 -11 -102q0 -77 34.5 -118.5t101.5 -41.5q66 0 116 39.5t79 105.5h6q37 0 54 -10q-80 -166 -253 -169l-25 -48q73 -16 73 -70q0 -38 -26.5 -61.5t-69.5 -23.5q-51 0 -73 18z" />
    <glyph glyph-name="dcaron.small" horiz-adv-x="569" 
d="M48 0l120 571h141q230 0 230 -199q0 -37 -8 -81q-53 -291 -342 -291h-141zM116 34h78q113 0 177.5 63t90.5 189q10 49 10 94q0 79 -41 118t-128 39h-81zM303 765l62 -102h2l105 102q7 3 18 3q13 0 16 -3l-109 -132q-12 -3 -37 -3q-26 0 -35 3l-55 132q4 3 17 3
q11 0 16 -3z" />
    <glyph glyph-name="dcroat.small" horiz-adv-x="590" 
d="M69 0l56 272h-67l9 37h66l55 262h141q232 0 232 -195q0 -44 -10 -90q-62 -286 -341 -286h-141zM135 34h79q111 0 176.5 63t92.5 189q11 55 11 94q0 157 -171 157h-80l-49 -228h158l-8 -37h-158z" />
    <glyph glyph-name="egrave.small" horiz-adv-x="463" 
d="M48 0l120 571h313l-7 -39h-253l-46 -219h228v-3q0 -18 -7 -37h-230l-49 -234h266l-7 -39h-328zM321 632l-72 132q14 4 37 4t37 -4l33 -132q-6 -3 -19 -3q-11 0 -16 3z" />
    <glyph glyph-name="eacute.small" horiz-adv-x="463" 
d="M48 0l120 571h313l-7 -39h-253l-46 -219h228v-3q0 -18 -7 -37h-230l-49 -234h266l-7 -39h-328zM462 764l-128 -132q-7 -3 -18 -3q-14 0 -18 3l91 132q14 4 37 4q22 0 36 -4z" />
    <glyph glyph-name="ecircumflex.small" horiz-adv-x="463" 
d="M48 0l120 571h313l-7 -39h-253l-46 -219h228v-3q0 -18 -7 -37h-230l-49 -234h266l-7 -39h-328zM353 734l-105 -102q-8 -3 -18 -3q-14 0 -18 3l111 132q14 4 36 4q24 0 36 -4l54 -132q-6 -3 -19 -3q-8 0 -13 3l-62 102h-2z" />
    <glyph glyph-name="ecaron.small" horiz-adv-x="463" 
d="M48 0l120 571h313l-7 -39h-253l-46 -219h228v-3q0 -18 -7 -37h-230l-49 -234h266l-7 -39h-328zM274 765l62 -102h2l105 102q8 3 18 3q13 0 16 -3l-109 -132q-12 -3 -37 -3q-26 0 -35 3l-55 132q4 3 17 3q12 0 16 -3z" />
    <glyph glyph-name="edieresis.small" horiz-adv-x="463" 
d="M48 0l120 571h313l-7 -39h-253l-46 -219h228v-3q0 -18 -7 -37h-230l-49 -234h266l-7 -39h-328zM220 689q0 19 13 31.5t33 12.5q32 0 32 -30q0 -18 -13 -31t-34 -13q-31 0 -31 30zM391 689q0 19 13 31.5t33 12.5q32 0 32 -30q0 -18 -13 -31t-34 -13q-31 0 -31 30z" />
    <glyph glyph-name="emacron.small" horiz-adv-x="463" 
d="M48 0l120 571h313l-7 -39h-253l-46 -219h228v-3q0 -18 -7 -37h-230l-49 -234h266l-7 -39h-328zM212 671l8 39h256l-8 -39h-256z" />
    <glyph glyph-name="ebreve.small" horiz-adv-x="463" 
d="M48 0l120 571h313l-7 -39h-253l-46 -219h228v-3q0 -18 -7 -37h-230l-49 -234h266l-7 -39h-328zM477 754q-36 -125 -139 -125q-49 0 -74 28t-25 76q0 14 1 21q4 3 17 3q9 0 14 -3q0 -83 70 -83q73 0 104 83q6 3 16 3q13 0 16 -3z" />
    <glyph glyph-name="edotaccent.small" horiz-adv-x="463" 
d="M48 0l120 571h313l-7 -39h-253l-46 -219h228v-3q0 -18 -7 -37h-230l-49 -234h266l-7 -39h-328zM335 659q-31 0 -31 31q0 19 13 31.5t33 12.5q33 0 33 -30q0 -18 -13 -31.5t-35 -13.5z" />
    <glyph glyph-name="eogonek.small" horiz-adv-x="463" 
d="M48 0l120 571h313l-7 -39h-252l-48 -219h229v-3q0 -18 -7 -37h-230l-50 -234h267l-7 -39q-146 -64 -146 -148q0 -38 48 -38q32 0 57 14l6 -18q-27 -27 -82 -27q-76 0 -76 65q0 50 43 89t106 63h-284z" />
    <glyph glyph-name="gcircumflex.small" horiz-adv-x="589" 
d="M432 63l41 191h-133l8 38h190l-52 -242q-77 -60 -198 -60q-111 0 -164 55t-53 152q0 41 9 89q25 133 107.5 214t203.5 81q86 0 129 -39t50 -94q-15 -12 -46 -12q-7 0 -12 1q-12 110 -125 110q-88 0 -150 -68t-88 -191q-12 -57 -12 -105q0 -159 153 -159q93 0 142 39z
M425 734l-105 -102q-8 -3 -18 -3q-14 0 -18 3l111 132q14 4 36 4q24 0 36 -4l54 -132q-6 -3 -19 -3q-8 0 -13 3l-62 102h-2z" />
    <glyph glyph-name="gbreve.small" horiz-adv-x="589" 
d="M432 63l41 191h-133l8 38h190l-52 -242q-77 -60 -198 -60q-111 0 -164 55t-53 152q0 41 9 89q25 133 107.5 214t203.5 81q86 0 129 -39t50 -94q-15 -12 -46 -12q-7 0 -12 1q-12 110 -125 110q-88 0 -150 -68t-88 -191q-12 -57 -12 -105q0 -159 153 -159q93 0 142 39z
M543 754q-36 -125 -139 -125q-49 0 -74 28t-25 76q0 14 1 21q4 3 17 3q9 0 14 -3q0 -83 70 -83q73 0 104 83q6 3 16 3q13 0 16 -3z" />
    <glyph glyph-name="gdotaccent.small" horiz-adv-x="589" 
d="M432 63l41 191h-133l8 38h190l-52 -242q-77 -60 -198 -60q-111 0 -164 55t-53 152q0 41 9 89q25 133 107.5 214t203.5 81q86 0 129 -39t50 -94q-15 -12 -46 -12q-7 0 -12 1q-12 110 -125 110q-88 0 -150 -68t-88 -191q-12 -57 -12 -105q0 -159 153 -159q93 0 142 39z
M409 659q-31 0 -31 31q0 19 13 31.5t33 12.5q33 0 33 -30q0 -18 -13 -31.5t-35 -13.5z" />
    <glyph glyph-name="gcommaaccent.small" horiz-adv-x="589" 
d="M432 63l41 191h-133l8 38h190l-52 -242q-77 -60 -198 -60q-111 0 -164 55t-53 152q0 41 9 89q25 133 107.5 214t203.5 81q86 0 129 -39t50 -94q-15 -12 -46 -12q-7 0 -12 1q-12 110 -125 110q-88 0 -150 -68t-88 -191q-12 -57 -12 -105q0 -159 153 -159q93 0 142 39z
M180 -207q22 14 39.5 36.5t22.5 41.5q-15 0 -24 9.5t-9 25.5t11.5 27t28.5 11q38 0 38 -38q0 -35 -27 -72t-64 -51q-14 2 -16 10z" />
    <glyph glyph-name="hcircumflex.small" horiz-adv-x="603" 
d="M48 0l120 571h61l-52 -248h307l54 248h60l-120 -571h-61l60 283h-308l-60 -283h-61zM414 734l-105 -102q-7 -3 -18 -3q-13 0 -18 3l111 132q14 4 36 4q24 0 36 -4l54 -132q-6 -3 -19 -3q-9 0 -13 3l-62 102h-2z" />
    <glyph glyph-name="hbar.small" horiz-adv-x="603" 
d="M48 0l94 449h-51l8 39h51l18 83h61l-18 -83h309l18 83h60l-18 -83h51l-8 -39h-51l-94 -449h-61l60 283h-309l-59 -283h-61zM176 323h308l27 126h-308z" />
    <glyph glyph-name="dotlessi.small" horiz-adv-x="235" 
d="M48 0l120 571h61l-120 -571h-61z" />
    <glyph glyph-name="dotlessj.small" horiz-adv-x="363" 
d="M203 128l94 443h61l-95 -447q-15 -73 -57.5 -103t-122.5 -30q-65 0 -85 10q0 24 9 39q30 -13 74 -13q55 0 82.5 22.5t39.5 78.5z" />
    <glyph glyph-name="igrave.small" horiz-adv-x="235" 
d="M48 0l120 571h61l-120 -571h-61zM194 632l-72 132q14 4 37 4t37 -4l33 -132q-6 -3 -19 -3q-12 0 -16 3z" />
    <glyph glyph-name="iacute.small" horiz-adv-x="235" 
d="M48 0l120 571h61l-120 -571h-61zM347 764l-128 -132q-7 -3 -18 -3q-13 0 -18 3l91 132q14 4 37 4q22 0 36 -4z" />
    <glyph glyph-name="icircumflex.small" horiz-adv-x="235" 
d="M48 0l120 571h61l-120 -571h-61zM233 734l-105 -102q-8 -3 -18 -3q-14 0 -18 3l111 132q14 4 36 4q24 0 36 -4l54 -132q-6 -3 -19 -3q-8 0 -13 3l-62 102h-2z" />
    <glyph glyph-name="itilde.small" horiz-adv-x="235" 
d="M48 0l120 571h61l-120 -571h-61zM83 652q-8 -2 -14 -2q-10 0 -14 2q33 60 59.5 78.5t56.5 18.5q27 0 58 -29.5t51 -29.5q35 0 75 57q3 1 14 1t13 -1q-33 -58 -58.5 -77t-50.5 -19q-29 0 -62 29.5t-56 29.5q-18 0 -38 -18t-34 -40z" />
    <glyph glyph-name="idieresis.small" horiz-adv-x="235" 
d="M48 0l120 571h61l-120 -571h-61zM98 689q0 19 13 31.5t33 12.5q32 0 32 -30q0 -18 -13 -31t-34 -13q-31 0 -31 30zM269 689q0 19 13 31.5t33 12.5q32 0 32 -30q0 -18 -13 -31t-34 -13q-31 0 -31 30z" />
    <glyph glyph-name="imacron.small" horiz-adv-x="235" 
d="M48 0l120 571h61l-120 -571h-61zM85 671l8 39h256l-8 -39h-256z" />
    <glyph glyph-name="ibreve.small" horiz-adv-x="235" 
d="M48 0l120 571h61l-120 -571h-61zM349 754q-36 -125 -139 -125q-49 0 -74 28t-25 76q0 14 1 21q4 3 17 3q9 0 14 -3q0 -83 70 -83q73 0 104 83q6 3 16 3q13 0 16 -3z" />
    <glyph glyph-name="idotaccent.small" horiz-adv-x="235" 
d="M48 0l120 571h61l-120 -571h-61zM214 659q-31 0 -31 31q0 19 13 31.5t33 12.5q33 0 33 -30q0 -18 -13 -31.5t-35 -13.5z" />
    <glyph glyph-name="iogonek.small" horiz-adv-x="235" 
d="M70 -172l6 -18q-27 -27 -82 -27q-76 0 -76 65q0 50 43 89t106 63h-19l120 571h61l-120 -571q-144 -63 -144 -148q0 -38 48 -38q33 0 57 14z" />
    <glyph glyph-name="ij.small" horiz-adv-x="583" 
d="M48 0l120 571h61l-120 -571h-61zM426 128l94 443h61l-95 -447q-15 -73 -57.5 -103t-122.5 -30q-65 0 -85 10q0 24 9 39q30 -13 74 -13q55 0 82.5 22.5t39.5 78.5z" />
    <glyph glyph-name="jcircumflex.small" horiz-adv-x="363" 
d="M203 128l94 443h61l-95 -447q-15 -73 -57.5 -103t-122.5 -30q-65 0 -85 10q0 24 9 39q30 -13 74 -13q55 0 82.5 22.5t39.5 78.5zM356 734l-105 -102q-7 -3 -18 -3q-14 0 -18 3l111 132q14 4 36 4q24 0 36 -4l54 -132q-6 -3 -19 -3q-9 0 -13 3l-62 102h-2z" />
    <glyph glyph-name="kcommaaccent.small" horiz-adv-x="502" 
d="M48 0l120 571h61l-56 -265h2l305 265h60v-5l-312 -268l200 -293v-5h-66l-192 283h-2l-59 -283h-61zM140 -207q22 14 39.5 36.5t22.5 41.5q-15 0 -24 9.5t-9 25.5t11.5 27t28.5 11q38 0 38 -38q0 -35 -27 -72t-64 -51q-14 2 -16 10z" />
    <glyph glyph-name="kgreenlandic.small" horiz-adv-x="497" 
d="M48 0l120 571h61l-56 -265h2l305 265h60v-5l-312 -268l200 -293v-5h-66l-192 283h-2l-59 -283h-61z" />
    <glyph glyph-name="lacute.small" horiz-adv-x="438" 
d="M48 0l120 571h61l-113 -531h258l-7 -40h-319zM352 764l-128 -132q-7 -3 -18 -3q-14 0 -18 3l91 132q14 4 37 4q22 0 36 -4z" />
    <glyph glyph-name="lcaron.small" horiz-adv-x="438" 
d="M48 0l120 571h61l-113 -531h258l-7 -40h-319zM319 430q22 13 39 36.5t21 43.5q-30 2 -30 32q0 18 10.5 28t26.5 10q35 0 35 -35q0 -36 -24.5 -74t-60.5 -55q-6 0 -11.5 4.5t-5.5 9.5z" />
    <glyph glyph-name="lcommaaccent.small" horiz-adv-x="438" 
d="M48 0l120 571h61l-113 -531h258l-7 -40h-319zM127 -207q22 14 39.5 36.5t22.5 41.5q-15 0 -24 9.5t-9 25.5t11.5 27t28.5 11q38 0 38 -38q0 -35 -27 -72t-64 -51q-14 2 -16 10z" />
    <glyph glyph-name="ldot.small" horiz-adv-x="438" 
d="M48 0l120 571h61l-113 -531h258l-7 -40h-319zM344 278q-31 0 -31 31q0 19 13 31.5t33 12.5q33 0 33 -30q0 -18 -13 -31.5t-35 -13.5z" />
    <glyph glyph-name="lslash.small" horiz-adv-x="464" 
d="M74 0l43 205l-75 -38l8 42l76 38l69 324h61l-63 -295l170 85l-8 -43l-171 -84l-41 -195h258l-8 -39h-319z" />
    <glyph glyph-name="nacute.small" horiz-adv-x="620" 
d="M48 0l120 571h71l136 -298q65 -140 85 -207h2q7 54 35 190l67 315h50l-120 -571h-59l-153 333q-52 114 -74 183h-3q-26 -136 -33 -172l-73 -344h-51zM548 764l-128 -132q-8 -3 -18 -3q-14 0 -18 3l91 132q14 4 37 4q22 0 36 -4z" />
    <glyph glyph-name="ncaron.small" horiz-adv-x="620" 
d="M48 0l120 571h71l136 -298q65 -140 85 -207h2q7 54 35 190l67 315h50l-120 -571h-59l-153 333q-52 114 -74 183h-3q-26 -136 -33 -172l-73 -344h-51zM355 765l62 -102h2l105 102q8 3 18 3q13 0 16 -3l-109 -132q-12 -3 -37 -3q-26 0 -35 3l-55 132q4 3 17 3q11 0 16 -3z
" />
    <glyph glyph-name="ntilde.small" horiz-adv-x="620" 
d="M48 0l120 571h71l136 -298q65 -140 85 -207h2q7 54 35 190l67 315h50l-120 -571h-59l-153 333q-52 114 -74 183h-3q-26 -136 -33 -172l-73 -344h-51zM277 652q-8 -2 -14 -2q-10 0 -14 2q33 60 59.5 78.5t56.5 18.5q27 0 58 -29.5t51 -29.5q35 0 75 57q3 1 14 1t13 -1
q-33 -58 -58.5 -77t-50.5 -19q-29 0 -61.5 29.5t-56.5 29.5q-18 0 -38 -18t-34 -40z" />
    <glyph glyph-name="napostrophe.small" horiz-adv-x="620" 
d="M48 0l120 571h71l136 -298q65 -140 85 -207h2q7 54 35 190l67 315h50l-120 -571h-59l-153 333q-52 114 -74 183h-3q-26 -136 -33 -172l-73 -344h-51zM91 643q22 14 39.5 36.5t22.5 41.5q-15 0 -24 9.5t-9 25.5t11.5 27t28.5 11q38 0 38 -38q0 -35 -27 -72t-64 -51
q-14 2 -16 10z" />
    <glyph glyph-name="ncommaaccent.small" horiz-adv-x="620" 
d="M48 0l120 571h71l136 -298q65 -140 85 -207h2q7 54 35 190l67 315h50l-120 -571h-59l-153 333q-52 114 -74 183h-3q-26 -136 -33 -172l-73 -344h-51zM192 -207q22 14 39.5 36.5t22.5 41.5q-15 0 -24 9.5t-9 25.5t11.5 27t28.5 11q38 0 38 -38q0 -35 -27 -72t-64 -51
q-14 2 -16 10z" />
    <glyph glyph-name="ograve.small" horiz-adv-x="623" 
d="M272 -10q-100 0 -150.5 54.5t-50.5 149.5q0 45 10 92q26 133 108 214t203 81q100 0 151 -54.5t51 -147.5q0 -47 -9 -93q-26 -133 -109 -214.5t-204 -81.5zM275 24q89 0 152 69t89 193q12 59 12 106q0 155 -140 155q-87 0 -148 -66.5t-87 -182.5q-16 -69 -16 -124
q0 -72 34.5 -111t103.5 -39zM412 632l-72 132q14 4 37 4t37 -4l33 -132q-6 -3 -19 -3q-12 0 -16 3z" />
    <glyph glyph-name="oacute.small" horiz-adv-x="623" 
d="M272 -10q-100 0 -150.5 54.5t-50.5 149.5q0 45 10 92q26 133 108 214t203 81q100 0 151 -54.5t51 -147.5q0 -47 -9 -93q-26 -133 -109 -214.5t-204 -81.5zM275 24q89 0 152 69t89 193q12 59 12 106q0 155 -140 155q-87 0 -148 -66.5t-87 -182.5q-16 -69 -16 -124
q0 -72 34.5 -111t103.5 -39zM576 764l-128 -132q-7 -3 -18 -3q-14 0 -18 3l91 132q14 4 37 4q22 0 36 -4z" />
    <glyph glyph-name="ocircumflex.small" horiz-adv-x="623" 
d="M272 -10q-100 0 -150.5 54.5t-50.5 149.5q0 45 10 92q26 133 108 214t203 81q100 0 151 -54.5t51 -147.5q0 -47 -9 -93q-26 -133 -109 -214.5t-204 -81.5zM275 24q89 0 152 69t89 193q12 59 12 106q0 155 -140 155q-87 0 -148 -66.5t-87 -182.5q-16 -69 -16 -124
q0 -72 34.5 -111t103.5 -39zM441 734l-105 -102q-8 -3 -18 -3q-14 0 -18 3l111 132q14 4 36 4q24 0 36 -4l54 -132q-6 -3 -19 -3q-9 0 -13 3l-62 102h-2z" />
    <glyph glyph-name="otilde.small" horiz-adv-x="623" 
d="M272 -10q-100 0 -150.5 54.5t-50.5 149.5q0 45 10 92q26 133 108 214t203 81q100 0 151 -54.5t51 -147.5q0 -47 -9 -93q-26 -133 -109 -214.5t-204 -81.5zM275 24q89 0 152 69t89 193q12 59 12 106q0 155 -140 155q-87 0 -148 -66.5t-87 -182.5q-16 -69 -16 -124
q0 -72 34.5 -111t103.5 -39zM297 652q-8 -2 -14 -2q-10 0 -14 2q33 60 59.5 78.5t56.5 18.5q27 0 58 -29.5t51 -29.5q35 0 75 57q3 1 14 1t13 -1q-33 -58 -58.5 -77t-50.5 -19q-29 0 -62 29.5t-56 29.5q-18 0 -38 -18t-34 -40z" />
    <glyph glyph-name="odieresis.small" horiz-adv-x="623" 
d="M272 -10q-100 0 -150.5 54.5t-50.5 149.5q0 45 10 92q26 133 108 214t203 81q100 0 151 -54.5t51 -147.5q0 -47 -9 -93q-26 -133 -109 -214.5t-204 -81.5zM275 24q89 0 152 69t89 193q12 59 12 106q0 155 -140 155q-87 0 -148 -66.5t-87 -182.5q-16 -69 -16 -124
q0 -72 34.5 -111t103.5 -39zM302 689q0 19 13 31.5t33 12.5q32 0 32 -30q0 -18 -13 -31t-34 -13q-31 0 -31 30zM473 689q0 19 13 31.5t33 12.5q32 0 32 -30q0 -18 -13 -31t-34 -13q-31 0 -31 30z" />
    <glyph glyph-name="omacron.small" horiz-adv-x="623" 
d="M272 -10q-100 0 -150.5 54.5t-50.5 149.5q0 45 10 92q26 133 108 214t203 81q100 0 151 -54.5t51 -147.5q0 -47 -9 -93q-26 -133 -109 -214.5t-204 -81.5zM275 24q89 0 152 69t89 193q12 59 12 106q0 155 -140 155q-87 0 -148 -66.5t-87 -182.5q-16 -69 -16 -124
q0 -72 34.5 -111t103.5 -39zM302 671l8 39h256l-8 -39h-256z" />
    <glyph glyph-name="obreve.small" horiz-adv-x="623" 
d="M272 -10q-100 0 -150.5 54.5t-50.5 149.5q0 45 10 92q26 133 108 214t203 81q100 0 151 -54.5t51 -147.5q0 -47 -9 -93q-26 -133 -109 -214.5t-204 -81.5zM275 24q89 0 152 69t89 193q12 59 12 106q0 155 -140 155q-87 0 -148 -66.5t-87 -182.5q-16 -69 -16 -124
q0 -72 34.5 -111t103.5 -39zM563 754q-36 -125 -139 -125q-49 0 -74 28t-25 76q0 14 1 21q4 3 17 3q9 0 14 -3q0 -83 70 -83q73 0 104 83q6 3 16 3q13 0 16 -3z" />
    <glyph glyph-name="ohungarumlaut.small" horiz-adv-x="623" 
d="M272 -10q-100 0 -150.5 54.5t-50.5 149.5q0 45 10 92q26 133 108 214t203 81q100 0 151 -54.5t51 -147.5q0 -47 -9 -93q-26 -133 -109 -214.5t-204 -81.5zM275 24q89 0 152 69t89 193q12 59 12 106q0 155 -140 155q-87 0 -148 -66.5t-87 -182.5q-16 -69 -16 -124
q0 -72 34.5 -111t103.5 -39zM483 764l-105 -132q-7 -3 -18 -3q-12 0 -17 3l71 132q14 4 36 4q21 0 33 -4zM625 764l-121 -132q-7 -3 -19 -3q-15 0 -18 3l88 132q14 4 35 4t35 -4z" />
    <glyph glyph-name="oslash.small" horiz-adv-x="623" 
d="M45 -4l61 66q-35 50 -35 132q0 45 10 92q26 133 108 214t203 81q95 0 150 -53l56 60l26 -19l-62 -67q32 -50 32 -123q0 -47 -9 -93q-26 -133 -109 -214.5t-204 -81.5q-92 0 -144 47l-56 -59zM147 105l359 385q-34 57 -118 57q-87 0 -148 -66.5t-87 -182.5
q-16 -69 -16 -124q0 -40 10 -69zM520 457l-358 -383q36 -50 113 -50q89 0 152 69t89 193q12 59 12 106q0 35 -8 65z" />
    <glyph glyph-name="oslashacute.small" horiz-adv-x="623" 
d="M45 -4l61 66q-35 50 -35 132q0 45 10 92q26 133 108 214t203 81q95 0 150 -53l56 60l26 -19l-62 -67q32 -50 32 -123q0 -47 -9 -93q-26 -133 -109 -214.5t-204 -81.5q-92 0 -144 47l-56 -59zM147 105l359 385q-34 57 -118 57q-87 0 -148 -66.5t-87 -182.5
q-16 -69 -16 -124q0 -40 10 -69zM520 457l-358 -383q36 -50 113 -50q89 0 152 69t89 193q12 59 12 106q0 35 -8 65zM556 764l-128 -132q-7 -3 -18 -3q-14 0 -18 3l91 132q14 4 37 4q22 0 36 -4z" />
    <glyph glyph-name="oe.small" horiz-adv-x="760" 
d="M414 38h267l-7 -38h-316q-37 -10 -86 -10q-99 0 -149.5 55t-50.5 152q0 43 9 89q25 133 107.5 214t203.5 81q46 0 84 -10h304l-8 -38h-252l-47 -221h229v-3q0 -17 -7 -36h-230zM353 33l106 505q-31 9 -71 9q-89 0 -150.5 -68t-87.5 -192q-12 -56 -12 -107
q0 -156 138 -156q47 0 77 9z" />
    <glyph glyph-name="racute.small" horiz-adv-x="502" 
d="M48 0l120 571h120q189 0 189 -130q0 -150 -158 -192l88 -244v-5h-62l-86 239q-28 -2 -43 -2h-57l-50 -237h-61zM166 271h56q192 0 192 169q0 50 -32.5 73t-103.5 23h-56zM483 764l-128 -132q-7 -3 -18 -3q-13 0 -18 3l91 132q14 4 37 4q22 0 36 -4z" />
    <glyph glyph-name="rcaron.small" horiz-adv-x="502" 
d="M48 0l120 571h120q189 0 189 -130q0 -150 -158 -192l88 -244v-5h-62l-86 239q-28 -2 -43 -2h-57l-50 -237h-61zM166 271h56q192 0 192 169q0 50 -32.5 73t-103.5 23h-56zM281 765l62 -102h2l105 102q8 3 18 3q13 0 16 -3l-109 -132q-12 -3 -37 -3q-26 0 -35 3l-55 132
q4 3 17 3q11 0 16 -3z" />
    <glyph glyph-name="rcommaaccent.small" horiz-adv-x="502" 
d="M48 0l120 571h120q189 0 189 -130q0 -150 -158 -192l88 -244v-5h-62l-86 239q-28 -2 -43 -2h-57l-50 -237h-61zM166 271h56q192 0 192 169q0 50 -32.5 73t-103.5 23h-56zM138 -207q22 14 39.5 36.5t22.5 41.5q-15 0 -24 9.5t-9 25.5t11.5 27t28.5 11q38 0 38 -38
q0 -35 -27 -72t-64 -51q-14 2 -16 10z" />
    <glyph glyph-name="sacute.small" horiz-adv-x="496" 
d="M33 114q18 15 58 17q18 -107 134 -107q70 0 109.5 38t39.5 94q0 24 -8.5 43t-26.5 32.5t-33.5 22t-42.5 19.5q-40 17 -58 26t-41 26t-32 38.5t-9 51.5q0 66 52.5 116t144.5 50q90 0 129.5 -35t43.5 -77q-20 -14 -55 -14q-2 12 -4 20.5t-10 23t-19.5 24t-34.5 17t-53 7.5
q-58 0 -96 -34.5t-38 -91.5q0 -38 26 -57.5t96 -48.5q30 -13 48 -22.5t39.5 -27t32 -41.5t10.5 -55q0 -72 -55.5 -125.5t-158.5 -53.5q-164 0 -188 124zM483 764l-128 -132q-7 -3 -18 -3q-13 0 -18 3l91 132q14 4 37 4q22 0 36 -4z" />
    <glyph glyph-name="scircumflex.small" horiz-adv-x="496" 
d="M33 114q18 15 58 17q18 -107 134 -107q70 0 109.5 38t39.5 94q0 24 -8.5 43t-26.5 32.5t-33.5 22t-42.5 19.5q-40 17 -58 26t-41 26t-32 38.5t-9 51.5q0 66 52.5 116t144.5 50q90 0 129.5 -35t43.5 -77q-20 -14 -55 -14q-2 12 -4 20.5t-10 23t-19.5 24t-34.5 17t-53 7.5
q-58 0 -96 -34.5t-38 -91.5q0 -38 26 -57.5t96 -48.5q30 -13 48 -22.5t39.5 -27t32 -41.5t10.5 -55q0 -72 -55.5 -125.5t-158.5 -53.5q-164 0 -188 124zM379 734l-105 -102q-8 -3 -18 -3q-14 0 -18 3l111 132q14 4 36 4q24 0 36 -4l54 -132q-6 -3 -19 -3q-8 0 -13 3l-62 102
h-2z" />
    <glyph glyph-name="scaron.small" horiz-adv-x="496" 
d="M33 114q18 15 58 17q18 -107 134 -107q70 0 109.5 38t39.5 94q0 24 -8.5 43t-26.5 32.5t-33.5 22t-42.5 19.5q-40 17 -58 26t-41 26t-32 38.5t-9 51.5q0 66 52.5 116t144.5 50q90 0 129.5 -35t43.5 -77q-20 -14 -55 -14q-2 12 -4 20.5t-10 23t-19.5 24t-34.5 17t-53 7.5
q-58 0 -96 -34.5t-38 -91.5q0 -38 26 -57.5t96 -48.5q30 -13 48 -22.5t39.5 -27t32 -41.5t10.5 -55q0 -72 -55.5 -125.5t-158.5 -53.5q-164 0 -188 124zM303 765l62 -102h2l105 102q7 3 18 3q13 0 16 -3l-109 -132q-12 -3 -37 -3q-26 0 -35 3l-55 132q4 3 17 3q11 0 16 -3z
" />
    <glyph glyph-name="scedilla.small" horiz-adv-x="496" 
d="M98 -195l9 22q22 -13 58 -13q59 0 59 53q0 23 -18 33.5t-55 17.5l37 74q-133 11 -155 122q18 15 58 17q18 -107 134 -107q70 0 109.5 38t39.5 94q0 24 -8.5 43t-26.5 32.5t-33.5 22t-42.5 19.5q-40 17 -58 26t-41 26t-32 38.5t-9 51.5q0 66 52.5 116t144.5 50
q90 0 129.5 -35t43.5 -77q-20 -14 -55 -14q-2 12 -4 20.5t-10 23t-19.5 24t-34.5 17t-53 7.5q-58 0 -96 -34.5t-38 -91.5q0 -38 26 -57.5t96 -48.5q30 -13 48 -22.5t39.5 -27t32 -41.5t10.5 -55q0 -72 -55.5 -125.5t-158.5 -53.5h-2l-25 -48q73 -16 73 -70
q0 -38 -26.5 -61.5t-69.5 -23.5q-51 0 -73 18z" />
    <glyph glyph-name="scommaaccent.small" horiz-adv-x="496" 
d="M33 114q18 15 58 17q18 -107 134 -107q70 0 109.5 38t39.5 94q0 24 -8.5 43t-26.5 32.5t-33.5 22t-42.5 19.5q-40 17 -58 26t-41 26t-32 38.5t-9 51.5q0 66 52.5 116t144.5 50q90 0 129.5 -35t43.5 -77q-20 -14 -55 -14q-2 12 -4 20.5t-10 23t-19.5 24t-34.5 17t-53 7.5
q-58 0 -96 -34.5t-38 -91.5q0 -38 26 -57.5t96 -48.5q30 -13 48 -22.5t39.5 -27t32 -41.5t10.5 -55q0 -72 -55.5 -125.5t-158.5 -53.5q-164 0 -188 124zM129 -207q22 14 39.5 36.5t22.5 41.5q-15 0 -24 9.5t-9 25.5t11.5 27t28.5 11q38 0 38 -38q0 -35 -27 -72t-64 -51
q-14 2 -16 10z" />
    <glyph glyph-name="germandbls.small" horiz-adv-x="980" 
d="M33 114q18 15 58 17q18 -107 134 -107q70 0 109.5 38t39.5 94q0 24 -8.5 43t-26.5 32.5t-33.5 22t-42.5 19.5q-40 17 -58 26t-41 26t-32 38.5t-9 51.5q0 66 52.5 116t144.5 50q90 0 129.5 -35t43.5 -77q-20 -14 -55 -14q-2 12 -4 20.5t-10 23t-19.5 24t-34.5 17t-53 7.5
q-58 0 -96 -34.5t-38 -91.5q0 -38 26 -57.5t96 -48.5q30 -13 48 -22.5t39.5 -27t32 -41.5t10.5 -55q0 -72 -55.5 -125.5t-158.5 -53.5q-164 0 -188 124zM517 114q18 15 58 17q18 -107 134 -107q70 0 109.5 38t39.5 94q0 24 -8.5 43t-26.5 32.5t-33.5 22t-42.5 19.5
q-40 17 -58 26t-41 26t-32 38.5t-9 51.5q0 66 52.5 116t144.5 50q90 0 129.5 -35t43.5 -77q-20 -14 -55 -14q-2 12 -4 20.5t-10 23t-19.5 24t-34.5 17t-53 7.5q-58 0 -96 -34.5t-38 -91.5q0 -38 26 -57.5t96 -48.5q30 -13 48 -22.5t39.5 -27t32 -41.5t10.5 -55
q0 -72 -55.5 -125.5t-158.5 -53.5q-164 0 -188 124z" />
    <glyph glyph-name="tcaron.small" horiz-adv-x="451" 
d="M157 0l112 532h-164l6 39h391l-6 -39h-166l-114 -532h-59zM258 765l62 -102h2l105 102q7 3 18 3q13 0 16 -3l-109 -132q-12 -3 -37 -3q-26 0 -35 3l-55 132q5 3 17 3t16 -3z" />
    <glyph glyph-name="tcommaaccent.small" horiz-adv-x="451" 
d="M76 -195l9 22q22 -13 58 -13q59 0 59 53q0 23 -18 33.5t-55 17.5l42 82h-14l112 532h-164l6 39h391l-6 -39h-166l-114 -532h-14l-30 -58q73 -16 73 -70q0 -38 -26.5 -61.5t-69.5 -23.5q-51 0 -73 18z" />
    <glyph glyph-name="uni021B.small" horiz-adv-x="451" 
d="M157 0l112 532h-164l6 39h391l-6 -39h-166l-114 -532h-59zM99 -207q22 14 39.5 36.5t22.5 41.5q-15 0 -24 9.5t-9 25.5t11.5 27t28.5 11q38 0 38 -38q0 -35 -27 -72t-64 -51q-14 2 -16 10z" />
    <glyph glyph-name="tbar.small" horiz-adv-x="451" 
d="M157 0l62 295h-97l8 39h97l42 198h-164l6 39h391l-6 -39h-166l-43 -198h99l-8 -39h-99l-63 -295h-59z" />
    <glyph glyph-name="ugrave.small" horiz-adv-x="606" 
d="M100 259l66 312h61l-70 -332q-10 -47 -10 -86q0 -65 32.5 -93.5t100.5 -28.5q78 0 127.5 46t73.5 156l72 338h50l-71 -338q-27 -126 -86.5 -184.5t-167.5 -58.5q-100 0 -146.5 39.5t-46.5 119.5q0 38 15 110zM402 632l-72 132q14 4 37 4t37 -4l33 -132q-6 -3 -19 -3
q-12 0 -16 3z" />
    <glyph glyph-name="uacute.small" horiz-adv-x="606" 
d="M100 259l66 312h61l-70 -332q-10 -47 -10 -86q0 -65 32.5 -93.5t100.5 -28.5q78 0 127.5 46t73.5 156l72 338h50l-71 -338q-27 -126 -86.5 -184.5t-167.5 -58.5q-100 0 -146.5 39.5t-46.5 119.5q0 38 15 110zM539 764l-128 -132q-8 -3 -18 -3q-13 0 -18 3l91 132
q14 4 37 4q22 0 36 -4z" />
    <glyph glyph-name="ucircumflex.small" horiz-adv-x="606" 
d="M100 259l66 312h61l-70 -332q-10 -47 -10 -86q0 -65 32.5 -93.5t100.5 -28.5q78 0 127.5 46t73.5 156l72 338h50l-71 -338q-27 -126 -86.5 -184.5t-167.5 -58.5q-100 0 -146.5 39.5t-46.5 119.5q0 38 15 110zM415 734l-105 -102q-8 -3 -18 -3q-14 0 -18 3l111 132
q14 4 36 4q24 0 36 -4l54 -132q-6 -3 -19 -3q-8 0 -13 3l-62 102h-2z" />
    <glyph glyph-name="utilde.small" horiz-adv-x="606" 
d="M100 259l66 312h61l-70 -332q-10 -47 -10 -86q0 -65 32.5 -93.5t100.5 -28.5q78 0 127.5 46t73.5 156l72 338h50l-71 -338q-27 -126 -86.5 -184.5t-167.5 -58.5q-100 0 -146.5 39.5t-46.5 119.5q0 38 15 110zM282 652q-8 -2 -14 -2q-10 0 -14 2q33 60 59.5 78.5
t56.5 18.5q27 0 58 -29.5t51 -29.5q35 0 75 57q3 1 14 1t13 -1q-33 -58 -58.5 -77t-50.5 -19q-30 0 -62 29.5t-56 29.5q-18 0 -38 -18t-34 -40z" />
    <glyph glyph-name="udieresis.small" horiz-adv-x="606" 
d="M100 259l66 312h61l-70 -332q-10 -47 -10 -86q0 -65 32.5 -93.5t100.5 -28.5q78 0 127.5 46t73.5 156l72 338h50l-71 -338q-27 -126 -86.5 -184.5t-167.5 -58.5q-100 0 -146.5 39.5t-46.5 119.5q0 38 15 110zM286 689q0 19 13 31.5t33 12.5q32 0 32 -30q0 -18 -13 -31
t-34 -13q-31 0 -31 30zM457 689q0 19 13 31.5t33 12.5q32 0 32 -30q0 -18 -13 -31t-34 -13q-31 0 -31 30z" />
    <glyph glyph-name="umacron.small" horiz-adv-x="606" 
d="M100 259l66 312h61l-70 -332q-10 -47 -10 -86q0 -65 32.5 -93.5t100.5 -28.5q78 0 127.5 46t73.5 156l72 338h50l-71 -338q-27 -126 -86.5 -184.5t-167.5 -58.5q-100 0 -146.5 39.5t-46.5 119.5q0 38 15 110zM273 671l8 39h256l-8 -39h-256z" />
    <glyph glyph-name="ubreve.small" horiz-adv-x="606" 
d="M100 259l66 312h61l-70 -332q-10 -47 -10 -86q0 -65 32.5 -93.5t100.5 -28.5q78 0 127.5 46t73.5 156l72 338h50l-71 -338q-27 -126 -86.5 -184.5t-167.5 -58.5q-100 0 -146.5 39.5t-46.5 119.5q0 38 15 110zM537 754q-36 -125 -139 -125q-49 0 -74 28t-25 76q0 14 1 21
q4 3 17 3q9 0 14 -3q0 -83 70 -83q73 0 104 83q6 3 16 3q13 0 16 -3z" />
    <glyph glyph-name="uring.small" horiz-adv-x="606" 
d="M100 259l66 312h61l-70 -332q-10 -47 -10 -86q0 -65 32.5 -93.5t100.5 -28.5q78 0 127.5 46t73.5 156l72 338h50l-71 -338q-27 -126 -86.5 -184.5t-167.5 -58.5q-100 0 -146.5 39.5t-46.5 119.5q0 38 15 110zM328 675q0 39 26 66.5t67 27.5q30 0 47 -17t17 -45
q0 -38 -24.5 -65.5t-66.5 -27.5q-32 0 -49 16.5t-17 44.5zM395 638q25 0 41.5 19t16.5 49q0 38 -37 38q-25 0 -40.5 -19.5t-15.5 -49.5q0 -37 35 -37z" />
    <glyph glyph-name="uhungarumlaut.small" horiz-adv-x="606" 
d="M100 259l66 312h61l-70 -332q-10 -47 -10 -86q0 -65 32.5 -93.5t100.5 -28.5q78 0 127.5 46t73.5 156l72 338h50l-71 -338q-27 -126 -86.5 -184.5t-167.5 -58.5q-100 0 -146.5 39.5t-46.5 119.5q0 38 15 110zM445 764l-105 -132q-8 -3 -18 -3q-12 0 -17 3l71 132
q14 4 36 4q21 0 33 -4zM587 764l-121 -132q-8 -3 -19 -3q-15 0 -18 3l88 132q14 4 35 4t35 -4z" />
    <glyph glyph-name="uogonek.small" horiz-adv-x="606" 
d="M358 -172l6 -18q-27 -27 -79 -27q-79 0 -79 68q0 77 110 141q-24 -2 -38 -2q-100 0 -146.5 39.5t-46.5 119.5q0 38 15 110l66 312h61l-70 -332q-10 -47 -10 -86q0 -65 32.5 -93.5t100.5 -28.5q78 0 127.5 46t73.5 156l72 338h50l-71 -338q-35 -168 -134 -218
q-145 -74 -145 -163q0 -38 48 -38q33 0 57 14z" />
    <glyph glyph-name="wgrave.small" horiz-adv-x="808" 
d="M159 0l-40 566v5h59l17 -288q9 -160 9 -224h3q20 53 95 202l155 310h66l22 -292q9 -109 9 -219h3q5 13 94 198l150 313h53v-5l-281 -566h-62l-19 246q-10 124 -14 264h-3q-22 -58 -100 -212l-152 -298h-64zM486 632l-72 132q14 4 37 4t37 -4l33 -132q-6 -3 -19 -3
q-12 0 -16 3z" />
    <glyph glyph-name="wacute.small" horiz-adv-x="808" 
d="M159 0l-40 566v5h59l17 -288q9 -160 9 -224h3q20 53 95 202l155 310h66l22 -292q9 -109 9 -219h3q5 13 94 198l150 313h53v-5l-281 -566h-62l-19 246q-10 124 -14 264h-3q-22 -58 -100 -212l-152 -298h-64zM642 764l-128 -132q-7 -3 -18 -3q-14 0 -18 3l91 132q14 4 37 4
q22 0 36 -4z" />
    <glyph glyph-name="wcircumflex.small" horiz-adv-x="808" 
d="M159 0l-40 566v5h59l17 -288q9 -160 9 -224h3q20 53 95 202l155 310h66l22 -292q9 -109 9 -219h3q5 13 94 198l150 313h53v-5l-281 -566h-62l-19 246q-10 124 -14 264h-3q-22 -58 -100 -212l-152 -298h-64zM519 734l-105 -102q-8 -3 -18 -3q-14 0 -18 3l111 132
q14 4 36 4q24 0 36 -4l54 -132q-6 -3 -19 -3q-8 0 -13 3l-62 102h-2z" />
    <glyph glyph-name="wdieresis.small" horiz-adv-x="808" 
d="M159 0l-40 566v5h59l17 -288q9 -160 9 -224h3q20 53 95 202l155 310h66l22 -292q9 -109 9 -219h3q5 13 94 198l150 313h53v-5l-281 -566h-62l-19 246q-10 124 -14 264h-3q-22 -58 -100 -212l-152 -298h-64zM384 689q0 19 13 31.5t33 12.5q32 0 32 -30q0 -18 -13 -31
t-34 -13q-31 0 -31 30zM555 689q0 19 13 31.5t33 12.5q32 0 32 -30q0 -18 -13 -31t-34 -13q-31 0 -31 30z" />
    <glyph glyph-name="uni1E8B.small" horiz-adv-x="522" 
d="M-3 0v5l254 287l-120 274v5h60l104 -244l212 244h54v-5l-243 -273l130 -288v-5h-62l-112 255l-223 -255h-54zM353 659q-31 0 -31 31q0 19 13 31.5t33 12.5q33 0 33 -30q0 -18 -13 -31.5t-35 -13.5z" />
    <glyph glyph-name="ygrave.small" horiz-adv-x="500" 
d="M182 0l45 218l-109 348v5h59l93 -307h2l221 307h54v-5l-259 -349l-46 -217h-60zM329 632l-72 132q14 4 37 4t37 -4l33 -132q-6 -3 -19 -3q-11 0 -16 3z" />
    <glyph glyph-name="yacute.small" horiz-adv-x="500" 
d="M182 0l45 218l-109 348v5h59l93 -307h2l221 307h54v-5l-259 -349l-46 -217h-60zM485 764l-128 -132q-7 -3 -18 -3q-13 0 -18 3l91 132q14 4 37 4q22 0 36 -4z" />
    <glyph glyph-name="ycircumflex.small" horiz-adv-x="500" 
d="M182 0l45 218l-109 348v5h59l93 -307h2l221 307h54v-5l-259 -349l-46 -217h-60zM362 734l-105 -102q-7 -3 -18 -3q-14 0 -18 3l111 132q14 4 36 4q24 0 36 -4l54 -132q-6 -3 -19 -3q-9 0 -13 3l-62 102h-2z" />
    <glyph glyph-name="ydieresis.small" horiz-adv-x="500" 
d="M182 0l45 218l-109 348v5h59l93 -307h2l221 307h54v-5l-259 -349l-46 -217h-60zM228 689q0 19 13 31.5t33 12.5q32 0 32 -30q0 -18 -13 -31t-34 -13q-31 0 -31 30zM399 689q0 19 13 31.5t33 12.5q32 0 32 -30q0 -18 -13 -31t-34 -13q-31 0 -31 30z" />
    <glyph glyph-name="zacute.small" horiz-adv-x="521" 
d="M12 0l4 22l451 510h-325l7 39h403l-4 -22l-452 -510h341l-7 -39h-418zM477 764l-128 -132q-7 -3 -18 -3q-13 0 -18 3l91 132q14 4 37 4q22 0 36 -4z" />
    <glyph glyph-name="zcaron.small" horiz-adv-x="521" 
d="M12 0l4 22l451 510h-325l7 39h403l-4 -22l-452 -510h341l-7 -39h-418zM306 765l62 -102h2l105 102q7 3 18 3q13 0 16 -3l-109 -132q-12 -3 -37 -3q-26 0 -35 3l-55 132q5 3 17 3t16 -3z" />
    <glyph glyph-name="zdotaccent.small" horiz-adv-x="521" 
d="M12 0l4 22l451 510h-325l7 39h403l-4 -22l-452 -510h341l-7 -39h-418zM357 659q-31 0 -31 31q0 19 13 31.5t33 12.5q33 0 33 -30q0 -18 -13 -31.5t-35 -13.5z" />
    <glyph glyph-name="uni01B6.small" horiz-adv-x="521" 
d="M12 0l4 22l223 253h-149l9 39h175l193 218h-325l7 39h403l-4 -22l-209 -235h168l-9 -39h-193l-209 -236h341l-7 -39h-418z" />
    <glyph glyph-name="eng.small" horiz-adv-x="620" 
d="M48 0l120 571h71l136 -298q65 -140 85 -207h2q7 54 35 190l67 315h50l-135 -641q-15 -73 -48.5 -103t-93.5 -30q-37 0 -52 5v2q0 21 9 35q18 -8 42 -8q41 0 61 25t33 85l12 59h-7l-153 333q-52 114 -74 183h-3q-26 -136 -33 -172l-73 -344h-51z" />
    <glyph glyph-name="eth.small" horiz-adv-x="594" 
d="M69 0l56 272h-67l9 37h66l55 262h141q232 0 232 -195q0 -44 -10 -90q-62 -286 -341 -286h-141zM135 34h79q111 0 176.5 63t92.5 189q11 55 11 94q0 157 -171 157h-80l-49 -228h158l-8 -37h-158z" />
    <glyph glyph-name="thorn.small" horiz-adv-x="494" 
d="M48 0l120 571h61l-22 -105h50q107 0 154.5 -36t47.5 -105q0 -102 -70 -149t-188 -47h-65l-27 -129h-61zM143 163h50q201 0 201 161q0 57 -31.5 82t-105.5 25h-58z" />
    <glyph glyph-name="uni0259.small" horiz-adv-x="598" 
d="M80 275h409v1q14 67 14 116q0 155 -138 155q-119 0 -185 -114q-39 5 -51 17q80 130 240 130q103 0 152 -54.5t49 -150.5q0 -46 -10 -95q-27 -131 -108 -210.5t-204 -79.5q-95 0 -139.5 49.5t-44.5 130.5q0 32 6 65q5 25 10 40zM481 242h-342q-10 -55 -10 -88
q0 -132 118 -132q87 0 146 56t88 164z" />
    <glyph glyph-name="i.TRK" horiz-adv-x="212" 
d="M32 0l105 502q29 0 61 5l-85 -401q-16 -72 -16 -97q0 -7 1 -9h-66zM158 638q0 19 13.5 32t33.5 13q33 0 33 -31q0 -18 -13.5 -31.5t-34.5 -13.5q-32 0 -32 31z" />
    <glyph glyph-name="grave.cap" horiz-adv-x="239" 
d="M262 752l-68 112q9 3 36 3q26 0 37 -3l30 -112q-6 -4 -18 -4q-9 0 -17 4z" />
    <glyph glyph-name="grave.small" horiz-adv-x="246" 
d="M233 632l-72 132q14 4 37 4t37 -4l33 -132q-6 -3 -19 -3q-12 0 -16 3z" />
    <glyph glyph-name="acute.cap" horiz-adv-x="239" 
d="M322 864l-117 -112q-10 -4 -19 -4q-11 0 -17 4l80 112q10 3 37 3q26 0 36 -3z" />
    <glyph glyph-name="acute.small" horiz-adv-x="246" 
d="M297 764l-128 -132q-7 -3 -18 -3q-13 0 -18 3l91 132q14 4 37 4q22 0 36 -4z" />
    <glyph glyph-name="circumflex.cap" horiz-adv-x="325" 
d="M294 831l-99 -81q-7 -3 -17 -3q-14 0 -18 3l105 114q10 3 36 3q25 0 36 -3l56 -114q-5 -3 -17 -3q-8 0 -14 3l-66 81h-2z" />
    <glyph glyph-name="circumflex.small" horiz-adv-x="348" 
d="M274 734l-105 -102q-7 -3 -18 -3q-13 0 -18 3l111 132q14 4 36 4q24 0 36 -4l54 -132q-6 -3 -19 -3q-9 0 -13 3l-62 102h-2z" />
    <glyph glyph-name="caron.cap" horiz-adv-x="325" 
d="M240 751l-55 113q5 3 16 3t16 -3l63 -80h2l103 80q7 3 17 3q11 0 16 -3l-105 -113q-10 -3 -38 -3q-25 0 -35 3z" />
    <glyph glyph-name="caron.alt" horiz-adv-x="189" 
d="M129 562q22 13 39 36.5t21 43.5q-30 2 -30 32q0 18 10.5 28t26.5 10q35 0 35 -35q0 -36 -24.5 -74t-60.5 -55q-6 0 -11.5 4.5t-5.5 9.5z" />
    <glyph glyph-name="caron.small" horiz-adv-x="348" 
d="M198 765l62 -102h2l105 102q7 3 18 3q13 0 16 -3l-109 -132q-12 -3 -37 -3q-26 0 -35 3l-55 132q5 3 17 3t16 -3z" />
    <glyph glyph-name="commaaccent" horiz-adv-x="236" 
d="M-12 -207q22 14 39.5 36.5t22.5 41.5q-15 0 -24 9.5t-9 25.5t11.5 27t28.5 11q38 0 38 -38q0 -35 -27 -72t-64 -51q-14 2 -16 10z" />
    <glyph glyph-name="commaaccent.alt" horiz-adv-x="236" 
d="M253 750q6 0 11.5 -4t6.5 -8q-22 -14 -40 -36.5t-23 -41.5q33 -2 33 -31q0 -18 -11.5 -30.5t-30.5 -12.5q-36 0 -36 36t26.5 74t63.5 54z" />
    <glyph glyph-name="tilde.cap" horiz-adv-x="418" 
d="M201 763q-8 -2 -14 -2q-9 0 -15 2q35 60 61 78t56 18q27 0 58.5 -29.5t51.5 -29.5q35 0 73 58q4 1 16 1q10 0 12 -1q-33 -58 -58.5 -77.5t-49.5 -19.5q-30 0 -62.5 29.5t-55.5 29.5q-37 0 -73 -57z" />
    <glyph glyph-name="tilde.small" horiz-adv-x="418" 
d="M166 652q-8 -2 -14 -2q-10 0 -14 2q33 60 59.5 78.5t56.5 18.5q27 0 58 -29.5t51 -29.5q35 0 75 57q3 1 14 1t13 -1q-33 -58 -58.5 -77t-50.5 -19q-29 0 -61.5 29.5t-56.5 29.5q-18 0 -38 -18t-34 -40z" />
    <glyph glyph-name="dieresis.cap" horiz-adv-x="373" 
d="M208 758q-31 0 -31 31q0 19 12.5 31t32.5 12q32 0 32 -29q0 -18 -12.5 -31.5t-33.5 -13.5zM397 758q-30 0 -30 31q0 19 12.5 31t32.5 12q32 0 32 -29q0 -18 -13 -31.5t-34 -13.5z" />
    <glyph glyph-name="dieresis.small" horiz-adv-x="355" 
d="M144 689q0 19 13 31.5t33 12.5q32 0 32 -30q0 -18 -13 -31t-34 -13q-31 0 -31 30zM315 689q0 19 13 31.5t33 12.5q32 0 32 -30q0 -18 -13 -31t-34 -13q-31 0 -31 30z" />
    <glyph glyph-name="macron.cap" horiz-adv-x="367" 
d="M176 780l8 39h256l-8 -39h-256z" />
    <glyph glyph-name="macron.small" horiz-adv-x="367" 
d="M142 671l8 39h256l-8 -39h-256z" />
    <glyph glyph-name="breve.cap" horiz-adv-x="348" 
d="M225 867v-4q0 -70 72 -70q74 0 102 74q8 3 16 3q7 0 16 -3q-35 -115 -137 -115q-48 0 -75 26t-27 71q0 12 1 18q12 3 17 3q10 0 15 -3z" />
    <glyph glyph-name="breve.small" horiz-adv-x="348" 
d="M396 754q-36 -125 -139 -125q-49 0 -74 28t-25 76q0 14 1 21q5 3 17 3q10 0 14 -3q0 -83 70 -83q73 0 104 83q6 3 16 3q13 0 16 -3z" />
    <glyph glyph-name="ring.cap" horiz-adv-x="266" 
d="M180 787q0 39 26 66.5t67 27.5q30 0 47 -17t17 -45q0 -38 -24.5 -65.5t-66.5 -27.5q-32 0 -49 16.5t-17 44.5zM247 750q25 0 41.5 19t16.5 49q0 38 -37 38q-25 0 -40.5 -19.5t-15.5 -49.5q0 -37 35 -37z" />
    <glyph glyph-name="ring.small" horiz-adv-x="266" 
d="M145 675q0 39 26 66.5t67 27.5q30 0 47 -17t17 -45q0 -38 -24.5 -65.5t-66.5 -27.5q-32 0 -49 16.5t-17 44.5zM212 638q25 0 41.5 19t16.5 49q0 38 -37 38q-25 0 -40.5 -19.5t-15.5 -49.5q0 -37 35 -37z" />
    <glyph glyph-name="hungarumlaut.cap" horiz-adv-x="368" 
d="M301 864l-97 -112q-10 -4 -18 -4q-11 0 -17 4l62 112q14 4 36 4t34 -4zM451 864l-111 -112q-10 -4 -19 -4q-13 0 -19 4l79 112q14 4 36 4t34 -4z" />
    <glyph glyph-name="hungarumlaut.small" horiz-adv-x="364" 
d="M273 764l-105 -132q-7 -3 -18 -3q-12 0 -17 3l71 132q14 4 36 4q21 0 33 -4zM415 764l-121 -132q-7 -3 -19 -3q-15 0 -18 3l88 132q14 4 35 4t35 -4z" />
    <glyph glyph-name="dotaccent.cap" horiz-adv-x="238" 
d="M206 799q0 19 12.5 31.5t32.5 12.5q32 0 32 -30q0 -18 -12.5 -31t-33.5 -13q-14 0 -22.5 8t-8.5 22z" />
    <glyph glyph-name="dotaccent.small" horiz-adv-x="187" 
d="M177 659q-31 0 -31 31q0 19 13 31.5t33 12.5q33 0 33 -30q0 -18 -13 -31.5t-35 -13.5z" />
    <glyph glyph-name="hyphen.cap" horiz-adv-x="371" 
d="M81 334l11 50h253l-10 -50h-254z" />
    <glyph glyph-name="exclamdown.cap" horiz-adv-x="242" 
d="M203 556l-104 -553q-11 -6 -35 -6t-30 6l130 553h39zM215 708q14 0 23 -8.5t9 -23.5q0 -20 -13.5 -33t-32.5 -13q-34 0 -34 32q0 18 13 32t35 14z" />
    <glyph glyph-name="questiondown.cap" horiz-adv-x="460" 
d="M312 558h41l-9 -38q-12 -52 -42.5 -90.5t-65.5 -62.5t-69 -47.5t-59.5 -60.5t-31.5 -88q-2 -22 -2 -33q0 -107 110 -107q64 0 103 36.5t56 79.5q40 0 50 -17q-19 -51 -76 -92.5t-133 -41.5q-90 0 -132.5 41.5t-42.5 108.5q0 17 1 26q6 52 33.5 91.5t65 66t75.5 52
t71.5 63t47.5 84.5zM363 713q14 0 23 -8.5t9 -23.5q0 -19 -13.5 -32.5t-32.5 -13.5q-34 0 -34 32q0 18 13 32t35 14z" />
    <glyph glyph-name="endash.cap" horiz-adv-x="569" 
d="M81 334l11 50h451l-10 -50h-452z" />
    <glyph glyph-name="emdash.cap" horiz-adv-x="787" 
d="M80 334l11 50h669l-10 -50h-670z" />
    <glyph glyph-name="parenleft.cap" horiz-adv-x="420" 
d="M300 -92l-7 -31q-98 5 -147 79.5t-49 202.5q0 76 19 176q39 201 137.5 325.5t233.5 130.5l-7 -32q-106 -13 -184 -129.5t-114 -295.5q-22 -108 -22 -192q0 -104 34 -166t106 -68z" />
    <glyph glyph-name="parenright.cap" horiz-adv-x="420" 
d="M-14 -123l7 32q106 12 184 129t114 296q21 104 21 192q0 222 -139 233l6 32q98 -6 147 -81t49 -203q0 -79 -18 -174q-40 -202 -138.5 -326.5t-232.5 -129.5z" />
    <glyph glyph-name="bracketleft.cap" horiz-adv-x="381" 
d="M48 -110l189 890h209l-6 -32h-148l-176 -826h148l-7 -32h-209z" />
    <glyph glyph-name="bracketright.cap" horiz-adv-x="381" 
d="M198 -110h-211l7 32h148l176 826h-148l6 32h211z" />
    <glyph glyph-name="braceleft.cap" horiz-adv-x="390" 
d="M271 -92l-6 -30q-81 0 -112.5 19t-31.5 72q0 37 16 111q21 97 21 143q0 65 -43 94l7 34q52 27 76 77.5t46 159.5q28 127 67 164.5t147 37.5l-5 -30q-41 -1 -60 -5t-37.5 -22.5t-28.5 -50.5t-24 -96q-22 -103 -50 -163.5t-76 -88.5q39 -31 39 -107q0 -47 -19 -145
q-18 -85 -18 -114q0 -37 19 -47t73 -13z" />
    <glyph glyph-name="braceright.cap" horiz-adv-x="390" 
d="M-15 -121l6 30q28 1 42.5 3t31 8.5t25 16.5t18 30t16.5 47t16 69q22 103 50.5 163.5t76.5 88.5q-40 31 -40 107q0 50 20 145q17 80 17 114q0 37 -19 47.5t-72 12.5l5 30q81 0 112.5 -19t31.5 -73q0 -36 -16 -110q-21 -97 -21 -143q0 -65 43 -94l-6 -34q-52 -27 -76 -77
t-47 -160q-27 -126 -66.5 -164t-147.5 -38z" />
    <glyph glyph-name="at.cap" horiz-adv-x="986" 
d="M669 524l8 42q21 0 58 7l-70 -328q-9 -47 -9 -68q0 -61 54 -61q80 0 132.5 81t57.5 207v14q0 145 -97 233.5t-266 88.5q-172 0 -277.5 -112.5t-111.5 -289.5q0 -4 -0.5 -12t-0.5 -12q0 -173 93.5 -276t269.5 -103q99 0 168 31q9 -13 9 -31v-3q-71 -32 -182 -32
q-196 0 -302 117.5t-106 299.5v20q8 189 125 313.5t316 124.5q193 0 302 -101t109 -256v-14q-5 -138 -76.5 -227t-166.5 -89q-90 0 -104 67q-69 -65 -161 -65q-73 0 -109 42t-36 116v13q2 52 18 105t45.5 101t79 78.5t110.5 30.5q77 0 120 -52zM607 243l52 255
q-33 44 -107 44q-49 0 -87 -28.5t-59.5 -74t-32.5 -91.5t-12 -90v-12q0 -123 99 -123q83 0 140 60q0 29 7 60z" />
    <glyph glyph-name="registered.alt" horiz-adv-x="810" 
d="M405 -12q-154 0 -257.5 105.5t-103.5 256.5t103.5 256.5t257.5 105.5q153 0 256.5 -105.5t103.5 -256.5t-103.5 -256.5t-256.5 -105.5zM405 23q141 0 230.5 94t89.5 233t-89.5 233t-230.5 94t-231 -94t-90 -233t90 -233t231 -94zM285 122v466h89q91 0 136.5 -34.5
t45.5 -95.5q0 -108 -124 -132q24 -10 41 -39l95 -161v-4h-52l-72 135q-25 45 -40.5 54t-72.5 9v-198h-46zM331 348h43q67 0 98.5 25t31.5 81t-30.5 80t-99.5 24h-43v-210z" />
    <glyph glyph-name="zero.oldstyle" horiz-adv-x="579" 
d="M251 -11q-102 0 -153 54.5t-51 151.5q0 44 10 91q27 137 104 216.5t195 79.5q101 0 151.5 -53.5t50.5 -149.5q0 -38 -10 -93q-27 -139 -101.5 -218t-195.5 -79zM251 22q88 0 145.5 68.5t82.5 195.5q12 62 12 110q0 152 -136 152q-87 0 -145 -67.5t-84 -195.5
q-13 -67 -13 -110q0 -153 138 -153z" />
    <glyph glyph-name="one.oldstyle" horiz-adv-x="437" 
d="M26 0l7 37h139l103 483l-148 -40l8 36q8 2 41.5 12.5t75 24t57.5 18.5h38l-113 -534h129l-7 -37h-330z" />
    <glyph glyph-name="two.oldstyle" horiz-adv-x="558" 
d="M4 0l8 36q22 16 70.5 44t95 54t99.5 63t92 73t65 83t26 95q0 99 -115 99q-113 0 -184 -123q-41 0 -52 19q29 59 89.5 99t148.5 40q92 0 137 -37t45 -103q0 -50 -27 -98.5t-68 -86t-97.5 -74.5t-106 -63.5t-103.5 -53.5q-18 -9 -27 -13v-2h369l-10 -51h-455z" />
    <glyph glyph-name="three.oldstyle" horiz-adv-x="527" 
d="M177 229l8 36h30q91 0 153 46.5t62 136.5q0 99 -119 99q-100 0 -161 -84q-35 6 -44 22q65 97 203 97q90 0 138 -37t48 -102q0 -74 -49 -124.5t-127 -69.5l-1 -2q54 -9 89.5 -42.5t35.5 -93.5q0 -104 -70 -167t-183 -63q-91 0 -139.5 30t-60.5 70q14 15 48 23
q32 -88 146 -88q81 0 136 52t55 142q0 58 -39.5 88.5t-128.5 30.5h-30z" />
    <glyph glyph-name="four.oldstyle" horiz-adv-x="561" 
d="M17 67l8 41l427 463h69l-98 -459h85l-9 -45h-85l-36 -172h-62l36 172h-335zM81 112h280l43 201q36 166 44 202h-2q-38 -49 -159 -179z" />
    <glyph glyph-name="five.oldstyle" horiz-adv-x="526" 
d="M79 228l85 343h377l-10 -51h-336l-63 -250q62 45 152 45q92 0 138 -46.5t46 -124.5q0 -112 -73 -186.5t-191 -74.5q-85 0 -135 28t-63 70q19 17 53 26q11 -37 45 -63t91 -26q92 0 148 66t56 162q0 129 -130 129q-43 0 -83 -14.5t-63 -32.5h-44z" />
    <glyph glyph-name="six.oldstyle" horiz-adv-x="574" 
d="M158 336q75 73 185 73q92 0 135.5 -45.5t43.5 -117.5q0 -111 -68.5 -184.5t-180.5 -73.5q-198 0 -198 215q0 57 13 122q33 170 115.5 267t200.5 97q72 0 117.5 -34.5t56.5 -106.5q-19 -16 -60 -18q-10 125 -115 125q-84 0 -147.5 -79.5t-97.5 -239.5zM150 292
q-11 -59 -11 -113q0 -80 31.5 -118.5t98.5 -38.5q90 0 138 65t48 163q0 123 -123 123q-107 0 -182 -81z" />
    <glyph glyph-name="seven.oldstyle" horiz-adv-x="489" 
d="M35 -105v5l426 620h-385l11 51h434l-9 -44l-410 -632h-67z" />
    <glyph glyph-name="eight.oldstyle" horiz-adv-x="555" 
d="M237 363v2q-43 13 -67.5 47.5t-24.5 81.5q0 86 59 140.5t153 54.5t142 -39.5t48 -107.5q0 -69 -39 -117.5t-116 -69.5v-2q50 -15 80 -52.5t30 -91.5q0 -100 -65.5 -160.5t-176.5 -60.5q-104 0 -157 45.5t-53 119.5q0 81 49 137.5t138 72.5zM116 145q0 -59 37 -91t106 -32
q81 0 128 53t47 141q0 123 -134 123q-85 0 -134.5 -54t-49.5 -140zM208 486q0 -52 29.5 -81t85.5 -29q69 0 114 47.5t45 125.5q0 106 -121 106q-75 0 -114 -46.5t-39 -122.5z" />
    <glyph glyph-name="nine.oldstyle" horiz-adv-x="573" 
d="M85 36q10 -121 117 -121q174 0 240 308q-72 -74 -176 -74q-94 0 -138.5 49.5t-44.5 125.5q0 105 68.5 181.5t177.5 76.5q102 0 150 -56.5t48 -156.5q0 -63 -12 -128q-33 -170 -111.5 -265t-199.5 -95q-155 0 -176 137q26 16 57 18zM451 267q12 68 12 121q0 80 -32 120
t-104 40q-58 0 -100 -36t-60.5 -87.5t-18.5 -110.5q0 -128 123 -128q99 0 180 81z" />
    <glyph glyph-name="zero.taboldstyle" horiz-adv-x="580" 
d="M256 -11q-102 0 -153 54.5t-51 151.5q0 44 10 91q27 137 104 216.5t195 79.5q101 0 151.5 -53.5t50.5 -149.5q0 -38 -10 -93q-27 -139 -101.5 -218t-195.5 -79zM256 22q88 0 145.5 68.5t82.5 195.5q12 62 12 110q0 152 -136 152q-87 0 -145 -67.5t-84 -195.5
q-13 -67 -13 -110q0 -153 138 -153z" />
    <glyph glyph-name="one.taboldstyle" horiz-adv-x="580" 
d="M98 0l7 37h139l103 483l-148 -40l8 36q8 2 41.5 12.5t75 24t57.5 18.5h38l-113 -534h129l-7 -37h-330z" />
    <glyph glyph-name="two.taboldstyle" horiz-adv-x="580" 
d="M24 0l8 36q22 16 70.5 44t95 54t99.5 63t92 73t65 83t26 95q0 99 -115 99q-113 0 -184 -123q-41 0 -52 19q29 59 89.5 99t148.5 40q92 0 137 -37t45 -103q0 -50 -27 -98.5t-68 -86t-97.5 -74.5t-106 -63.5t-103.5 -53.5q-18 -9 -27 -13v-2h369l-10 -51h-455z" />
    <glyph glyph-name="three.taboldstyle" horiz-adv-x="580" 
d="M206 229l8 36h30q91 0 153 46.5t62 136.5q0 99 -119 99q-100 0 -161 -84q-35 6 -44 22q65 97 203 97q90 0 138 -37t48 -102q0 -74 -49 -124.5t-127 -69.5l-1 -2q54 -9 89.5 -42.5t35.5 -93.5q0 -104 -70 -167t-183 -63q-91 0 -139.5 30t-60.5 70q14 15 48 23
q32 -88 146 -88q81 0 136 52t55 142q0 58 -39.5 88.5t-128.5 30.5h-30z" />
    <glyph glyph-name="four.taboldstyle" horiz-adv-x="580" 
d="M29 67l8 41l427 463h69l-98 -459h85l-9 -45h-85l-36 -172h-62l36 172h-335zM93 112h280l43 201q36 166 44 202h-2q-38 -49 -159 -179z" />
    <glyph glyph-name="five.taboldstyle" horiz-adv-x="580" 
d="M116 228l85 343h377l-10 -51h-336l-63 -250q62 45 152 45q92 0 138 -46.5t46 -124.5q0 -112 -73 -186.5t-191 -74.5q-85 0 -135 28t-63 70q19 17 53 26q11 -37 45 -63t91 -26q92 0 148 66t56 162q0 129 -130 129q-43 0 -83 -14.5t-63 -32.5h-44z" />
    <glyph glyph-name="six.taboldstyle" horiz-adv-x="580" 
d="M168 336q75 73 185 73q92 0 135.5 -45.5t43.5 -117.5q0 -111 -68.5 -184.5t-180.5 -73.5q-198 0 -198 215q0 57 13 122q33 170 115.5 267t200.5 97q72 0 117.5 -34.5t56.5 -106.5q-19 -16 -60 -18q-10 125 -115 125q-84 0 -147.5 -79.5t-97.5 -239.5zM160 292
q-11 -59 -11 -113q0 -80 31.5 -118.5t98.5 -38.5q90 0 138 65t48 163q0 123 -123 123q-107 0 -182 -81z" />
    <glyph glyph-name="seven.taboldstyle" horiz-adv-x="580" 
d="M88 -105v5l426 620h-385l11 51h434l-9 -44l-410 -632h-67z" />
    <glyph glyph-name="eight.taboldstyle" horiz-adv-x="580" 
d="M254 363v2q-43 13 -67.5 47.5t-24.5 81.5q0 86 59 140.5t153 54.5t142 -39.5t48 -107.5q0 -69 -39 -117.5t-116 -69.5v-2q50 -15 80 -52.5t30 -91.5q0 -100 -65.5 -160.5t-176.5 -60.5q-104 0 -157 45.5t-53 119.5q0 81 49 137.5t138 72.5zM133 145q0 -59 37 -91t106 -32
q81 0 128 53t47 141q0 123 -134 123q-85 0 -134.5 -54t-49.5 -140zM225 486q0 -52 29.5 -81t85.5 -29q69 0 114 47.5t45 125.5q0 106 -121 106q-75 0 -114 -46.5t-39 -122.5z" />
    <glyph glyph-name="nine.taboldstyle" horiz-adv-x="580" 
d="M88 36q10 -121 117 -121q174 0 240 308q-72 -74 -176 -74q-94 0 -138.5 49.5t-44.5 125.5q0 105 68.5 181.5t177.5 76.5q102 0 150 -56.5t48 -156.5q0 -63 -12 -128q-33 -170 -111.5 -265t-199.5 -95q-155 0 -176 137q26 16 57 18zM454 267q12 68 12 121q0 80 -32 120
t-104 40q-58 0 -100 -36t-60.5 -87.5t-18.5 -110.5q0 -128 123 -128q99 0 180 81z" />
    <glyph glyph-name="zero.tab" horiz-adv-x="580" 
d="M248 -12q-194 0 -194 222q0 59 15 128q34 162 114.5 256.5t198.5 94.5q193 0 193 -222q0 -56 -14 -128q-34 -162 -114.5 -256.5t-198.5 -94.5zM247 22q176 0 244 316q19 93 19 158q0 79 -29 118.5t-98 39.5q-177 0 -245 -317q-19 -86 -19 -159q0 -77 30.5 -116.5
t97.5 -39.5z" />
    <glyph glyph-name="one.tab" horiz-adv-x="580" 
d="M92 0l7 37h139l125 588l-147 -40l8 36q8 2 41 12.5t74.5 24t57.5 18.5h39l-136 -639h129l-7 -37h-330z" />
    <glyph glyph-name="two.tab" horiz-adv-x="580" 
d="M11 0l8 36q23 17 82.5 58.5t103.5 72.5t101 80.5t94 93t63 98.5t26 107q0 108 -120 108q-108 0 -179 -123q-42 0 -51 18q30 61 90 100.5t146 39.5q89 0 135 -39.5t46 -106.5q0 -48 -19.5 -96t-57 -93t-76.5 -83t-96 -79t-95 -67t-92 -60q-13 -8 -19 -12v-2h375l-10 -51
h-455z" />
    <glyph glyph-name="three.tab" horiz-adv-x="580" 
d="M222 336l8 36h30q91 0 153 46.5t62 136.5q0 99 -119 99q-100 0 -161 -84q-35 6 -44 22q65 97 203 97q90 0 138 -37t48 -102q0 -74 -49 -124.5t-127 -69.5l-1 -2q54 -9 89.5 -42.5t35.5 -93.5q0 -104 -70 -167t-183 -63q-91 0 -139.5 30t-60.5 70q14 15 48 23
q32 -88 146 -88q81 0 136 52t55 142q0 58 -39.5 88.5t-128.5 30.5h-30z" />
    <glyph glyph-name="four.tab" horiz-adv-x="580" 
d="M36 172l8 41l427 463h69l-98 -459h85l-9 -45h-85l-36 -172h-62l36 172h-335zM100 217h280l43 201q36 166 44 202h-2q-38 -49 -159 -179z" />
    <glyph glyph-name="five.tab" horiz-adv-x="580" 
d="M122 333l85 343h377l-10 -51h-336l-63 -250q62 45 152 45q92 0 138 -46.5t46 -124.5q0 -112 -73 -186.5t-191 -74.5q-85 0 -135 28t-63 70q19 17 53 26q11 -37 45 -63t91 -26q92 0 148 66t56 162q0 129 -130 129q-43 0 -83 -14.5t-63 -32.5h-44z" />
    <glyph glyph-name="six.tab" horiz-adv-x="580" 
d="M169 336q75 73 185 73q92 0 135.5 -45.5t43.5 -117.5q0 -111 -68.5 -184.5t-180.5 -73.5q-198 0 -198 215q0 57 13 122q33 170 115.5 267t200.5 97q72 0 117.5 -34.5t56.5 -106.5q-19 -16 -60 -18q-10 125 -115 125q-84 0 -147.5 -79.5t-97.5 -239.5zM161 292
q-11 -59 -11 -113q0 -80 31.5 -118.5t98.5 -38.5q90 0 138 65t48 163q0 123 -123 123q-107 0 -182 -81z" />
    <glyph glyph-name="seven.tab" horiz-adv-x="580" 
d="M110 0v5l426 620h-385l11 51h434l-9 -44l-410 -632h-67z" />
    <glyph glyph-name="eight.tab" horiz-adv-x="580" 
d="M253 363v2q-43 13 -67.5 47.5t-24.5 81.5q0 86 59 140.5t153 54.5t142 -39.5t48 -107.5q0 -69 -39 -117.5t-116 -69.5v-2q50 -15 80 -52.5t30 -91.5q0 -100 -65.5 -160.5t-176.5 -60.5q-104 0 -157 45.5t-53 119.5q0 81 49 137.5t138 72.5zM132 145q0 -59 37 -91t106 -32
q81 0 128 53t47 141q0 123 -134 123q-85 0 -134.5 -54t-49.5 -140zM224 486q0 -52 29.5 -81t85.5 -29q69 0 114 47.5t45 125.5q0 106 -121 106q-75 0 -114 -46.5t-39 -122.5z" />
    <glyph glyph-name="nine.tab" horiz-adv-x="580" 
d="M109 143q10 -121 117 -121q174 0 240 308q-72 -74 -176 -74q-94 0 -138.5 49.5t-44.5 125.5q0 105 68.5 181.5t177.5 76.5q102 0 150 -56.5t48 -156.5q0 -64 -12 -128q-33 -170 -111.5 -265t-199.5 -95q-155 0 -176 137q26 16 57 18zM475 374q12 67 12 121q0 80 -32 120
t-104 40q-58 0 -100 -36t-60.5 -87.5t-18.5 -110.5q0 -128 123 -128q99 0 180 81z" />
    <glyph glyph-name="zero.cap" horiz-adv-x="577" 
d="M247 -12q-189 0 -189 226q0 57 16 135q36 169 116.5 266t203.5 97q96 0 142 -57t46 -159q0 -67 -16 -145q-36 -170 -114.5 -266.5t-204.5 -96.5zM250 22q179 0 247 327q20 97 20 167q0 80 -29.5 120.5t-96.5 40.5q-177 0 -247 -329q-20 -95 -20 -166q0 -160 126 -160z
" />
    <glyph glyph-name="one.cap" horiz-adv-x="430" 
d="M12 0l7 37h139l130 612l-148 -42l8 36q8 2 42 13t75 25t57 19h39l-141 -663h129l-7 -37h-330z" />
    <glyph glyph-name="two.cap" horiz-adv-x="547" 
d="M1 0l8 36q23 17 83.5 61l104.5 76t102 83.5t95 96.5t63.5 101t26.5 109q0 113 -119 113q-112 0 -182 -126q-40 0 -50 21q33 61 92 101t142 40q92 0 138.5 -39.5t46.5 -108.5q0 -43 -16.5 -87.5t-38.5 -80t-64.5 -79t-71.5 -70t-85 -67.5t-80.5 -57.5t-80.5 -53.5
q-16 -11 -24 -16v-2h375l-10 -51h-455z" />
    <glyph glyph-name="three.cap" horiz-adv-x="522" 
d="M207 348l9 36h30q95 0 155.5 49t60.5 141q0 103 -118 103q-101 0 -162 -86q-34 5 -44 24q22 41 78.5 69t129.5 28q86 0 134 -37.5t48 -103.5q0 -76 -48 -128t-131 -74l-1 -2q123 -24 123 -142q0 -104 -72 -170.5t-187 -66.5q-88 0 -136 30t-59 71q15 17 50 25
q30 -91 145 -91q84 0 137.5 56.5t53.5 142.5q0 126 -166 126h-30z" />
    <glyph glyph-name="four.cap" horiz-adv-x="556" 
d="M24 178l8 41l431 481h69l-101 -476h85l-10 -46h-85l-37 -178h-62l37 178h-335zM88 224h281l44 210q40 186 46 210h-2q-57 -72 -161 -188z" />
    <glyph glyph-name="five.cap" horiz-adv-x="524" 
d="M99 345l87 355h377l-11 -51h-335l-65 -261q63 46 153 46q92 0 137.5 -44.5t45.5 -120.5q0 -118 -69.5 -199.5t-199.5 -81.5q-84 0 -132 30t-61 73q14 12 51 24q10 -39 44 -65.5t91 -26.5q102 0 154.5 66.5t52.5 174.5q0 130 -130 130q-84 0 -147 -49h-43z" />
    <glyph glyph-name="six.cap" horiz-adv-x="565" 
d="M163 344q31 33 85 56t111 23q89 0 129.5 -43t40.5 -113q0 -112 -69 -195.5t-189 -83.5q-193 0 -193 216q0 60 15 132q35 176 119.5 276t204.5 100q67 0 112 -36t55 -109q-19 -16 -59 -18q-10 129 -114 129q-85 0 -149 -83t-99 -251zM154 300q-12 -69 -12 -119
q0 -159 125 -159q65 0 110.5 37t64.5 90t19 116q0 120 -117 120q-105 0 -190 -85z" />
    <glyph glyph-name="seven.cap" horiz-adv-x="482" 
d="M65 0v5l431 644h-385l11 51h434l-9 -44l-415 -656h-67z" />
    <glyph glyph-name="eight.cap" horiz-adv-x="548" 
d="M236 374v2q-43 13 -65.5 47.5t-22.5 82.5q0 90 62.5 148t162.5 58q89 0 133.5 -39.5t44.5 -108.5q0 -72 -40 -122t-116 -70v-2q50 -14 80 -52.5t30 -91.5q0 -104 -70 -171t-188 -67q-94 0 -146 45t-52 124t49.5 139.5t137.5 77.5zM115 145q0 -123 138 -123q86 0 135 60.5
t49 151.5q0 119 -127 119q-89 0 -142 -60t-53 -148zM319 388q79 0 124 53t45 132q0 105 -114 105q-76 0 -119.5 -51.5t-43.5 -129.5q0 -52 27.5 -80.5t80.5 -28.5z" />
    <glyph glyph-name="nine.cap" horiz-adv-x="565" 
d="M102 147q8 -125 116 -125q88 0 148 77.5t94 241.5q-76 -76 -185 -76q-91 0 -132.5 47.5t-41.5 122.5q0 110 71.5 193.5t185.5 83.5q190 0 190 -214q0 -63 -15 -138q-34 -175 -113 -273.5t-200 -98.5q-155 0 -175 141q26 16 57 18zM469 386q14 81 14 136q0 78 -29.5 117
t-97.5 39q-49 0 -86.5 -21.5t-59.5 -58t-33 -79.5t-11 -90q0 -128 117 -128q101 0 186 85z" />
    <glyph glyph-name="zero.numerator" horiz-adv-x="396" 
d="M217 268q-61 0 -92 35.5t-31 99.5q0 37 8 72q20 96 70.5 151t126.5 55q61 0 92 -35.5t31 -98.5q0 -30 -8 -72q-20 -97 -70.5 -152t-126.5 -55zM220 295q97 0 135 180q11 53 11 89q0 89 -70 89q-96 0 -134 -178q-11 -55 -11 -89q0 -91 69 -91z" />
    <glyph glyph-name="one.numerator" horiz-adv-x="333" 
d="M88 275l6 29h81l69 327l-85 -19l7 31q3 1 106 31h35l-78 -370h71l-6 -29h-206z" />
    <glyph glyph-name="two.numerator" horiz-adv-x="373" 
d="M61 275l7 33q1 0 30 19.5t36.5 24.5t35.5 24.5t39 29t34 29t34.5 33.5t26.5 32.5t23 36t12 35.5q2 16 2 24q0 57 -61 57q-63 0 -102 -76q-36 2 -45 13q16 37 55.5 64t97.5 27q54 0 82 -23.5t28 -64.5q0 -13 -3 -28q-13 -62 -78 -119.5t-179 -126.5v-1h214l-9 -43h-280z
" />
    <glyph glyph-name="three.numerator" horiz-adv-x="354" 
d="M180 465l6 29h21q108 0 121 87q2 12 2 19q0 52 -63 52q-55 0 -92 -50q-29 4 -39 16q39 63 136 63q112 0 112 -83q0 -10 -1 -16q-10 -80 -112 -100l-1 -1q84 -11 84 -82q0 -6 -2 -20q-8 -53 -52 -82t-111 -29q-52 0 -83 18t-36 44q10 10 45 20q16 -53 76 -53q44 0 71 22
t32 59q1 7 1 19q0 34 -21.5 51t-72.5 17h-21z" />
    <glyph glyph-name="four.numerator" horiz-adv-x="376" 
d="M80 375l8 38l247 261h54l-55 -261h49l-8 -38h-49l-21 -100h-53l21 100h-193zM131 413h152l44 208h-3z" />
    <glyph glyph-name="five.numerator" horiz-adv-x="355" 
d="M110 466l51 208h235l-9 -44h-203l-33 -132q43 26 95 26q56 0 83.5 -27t27.5 -71q0 -18 -2 -28q-10 -59 -56 -94.5t-110 -35.5q-51 0 -82.5 18.5t-37.5 44.5q16 12 44 18q19 -52 77 -52q42 0 72 26t37 71q2 18 2 26q0 71 -69 71q-54 0 -85 -25h-37z" />
    <glyph glyph-name="six.numerator" horiz-adv-x="379" 
d="M166 476q47 41 112 41q52 0 76.5 -25.5t24.5 -66.5q0 -8 -2 -26q-9 -58 -51 -94.5t-110 -36.5q-56 0 -86.5 37t-30.5 103q0 33 7 67q20 94 71 150t123 56q95 0 108 -87q-20 -13 -54 -13q-5 72 -60 72q-90 0 -128 -177zM160 447q-6 -36 -6 -64q0 -88 62 -88q43 0 69 26.5
t34 71.5q3 15 3 28q0 66 -63 66q-57 0 -99 -40z" />
    <glyph glyph-name="seven.numerator" horiz-adv-x="340" 
d="M106 275v3l258 352h-232l9 44h271l-8 -39l-238 -360h-60z" />
    <glyph glyph-name="eight.numerator" horiz-adv-x="372" 
d="M196 486l1 3q-56 15 -56 71q0 6 2 20q8 45 48 73t98 28q52 0 80.5 -23t28.5 -61q0 -12 -1 -18q-6 -33 -30.5 -57t-61.5 -33l-1 -3q69 -17 69 -81q0 -8 -2 -22q-9 -53 -52.5 -84t-111.5 -31q-61 0 -91.5 25t-30.5 69q0 7 2 21q6 39 35 65.5t74 37.5zM142 359q0 -64 68 -64
q42 0 69 23.5t34 65.5q2 18 2 26q0 64 -67 64q-41 0 -69 -23.5t-35 -66.5q-2 -9 -2 -25zM253 500q35 0 60 21t30 57q2 14 2 20q0 55 -59 55q-37 0 -61 -20t-29 -55q-1 -6 -1 -18q0 -60 58 -60z" />
    <glyph glyph-name="nine.numerator" horiz-adv-x="379" 
d="M89 354q18 12 53 14q6 -73 61 -73q89 0 127 172q-49 -42 -114 -42q-51 0 -75 25t-24 65q0 11 4 33q12 57 54 95t108 38q56 0 86 -36t30 -99q0 -30 -8 -70q-20 -97 -69.5 -152.5t-121.5 -55.5q-97 0 -111 86zM336 497q7 35 7 68q0 88 -63 88q-81 0 -103 -102
q-3 -17 -3 -30q0 -67 61 -67q58 0 101 43z" />
    <glyph glyph-name="zero.denominator" horiz-adv-x="396" 
d="M159 -7q-61 0 -92 35.5t-31 99.5q0 37 8 72q20 96 70.5 151t126.5 55q61 0 92 -35.5t31 -98.5q0 -30 -8 -72q-20 -97 -70.5 -152t-126.5 -55zM162 20q97 0 135 180q11 53 11 89q0 89 -70 89q-96 0 -134 -178q-11 -55 -11 -89q0 -91 69 -91z" />
    <glyph glyph-name="one.denominator" horiz-adv-x="333" 
d="M27 0l6 29h81l69 327l-85 -19l7 31q3 1 106 31h35l-78 -370h71l-6 -29h-206z" />
    <glyph glyph-name="two.denominator" horiz-adv-x="373" 
d="M15 0l7 33q1 0 30 19.5t36.5 24.5t35.5 24.5t39 29t34 29t34.5 33.5t26.5 32.5t23 36t12 35.5q2 16 2 24q0 57 -61 57q-63 0 -102 -76q-36 2 -45 13q16 37 55.5 64t97.5 27q54 0 82 -23.5t28 -64.5q0 -13 -3 -28q-13 -62 -78 -119.5t-179 -126.5v-1h214l-9 -43h-280z" />
    <glyph glyph-name="three.denominator" horiz-adv-x="354" 
d="M124 190l6 29h21q108 0 121 87q2 12 2 19q0 52 -63 52q-55 0 -92 -50q-29 4 -39 16q39 63 136 63q112 0 112 -83q0 -10 -1 -16q-10 -80 -112 -100l-1 -1q84 -11 84 -82q0 -6 -2 -20q-8 -53 -52 -82t-111 -29q-52 0 -83 18t-36 44q10 10 45 20q16 -53 76 -53q44 0 71 22
t32 59q1 7 1 19q0 34 -21.5 51t-72.5 17h-21z" />
    <glyph glyph-name="four.denominator" horiz-adv-x="376" 
d="M22 100l8 38l247 261h54l-55 -261h49l-8 -38h-49l-21 -100h-53l21 100h-193zM73 138h152l44 208h-3z" />
    <glyph glyph-name="five.denominator" horiz-adv-x="355" 
d="M58 191l51 208h235l-9 -44h-203l-33 -132q43 26 95 26q56 0 83.5 -27t27.5 -71q0 -18 -2 -28q-10 -59 -56 -94.5t-110 -35.5q-51 0 -82.5 18.5t-37.5 44.5q16 12 44 18q19 -52 77 -52q42 0 72 26t37 71q2 18 2 26q0 71 -69 71q-54 0 -85 -25h-37z" />
    <glyph glyph-name="six.denominator" horiz-adv-x="379" 
d="M114 201q47 41 112 41q52 0 76.5 -25.5t24.5 -66.5q0 -8 -2 -26q-9 -58 -51 -94.5t-110 -36.5q-56 0 -86.5 37t-30.5 103q0 33 7 67q20 94 71 150t123 56q95 0 108 -87q-20 -13 -54 -13q-5 72 -60 72q-90 0 -128 -177zM108 172q-6 -36 -6 -64q0 -88 62 -88q43 0 69 26.5
t34 71.5q3 15 3 28q0 66 -63 66q-57 0 -99 -40z" />
    <glyph glyph-name="seven.denominator" horiz-adv-x="340" 
d="M54 0v3l258 352h-232l9 44h271l-8 -39l-238 -360h-60z" />
    <glyph glyph-name="eight.denominator" horiz-adv-x="372" 
d="M149 211l1 3q-56 15 -56 71q0 6 2 20q8 45 48 73t98 28q52 0 80.5 -23t28.5 -61q0 -12 -1 -18q-6 -33 -30.5 -57t-61.5 -33l-1 -3q69 -16 69 -81q0 -8 -2 -22q-9 -53 -52.5 -84t-111.5 -31q-61 0 -91.5 25t-30.5 69q0 7 2 21q6 39 35 65.5t74 37.5zM95 84q0 -64 68 -64
q42 0 69 23.5t34 65.5q2 18 2 26q0 64 -67 64q-41 0 -69 -23.5t-35 -66.5q-2 -9 -2 -25zM206 225q35 0 60 21t30 57q2 14 2 20q0 55 -59 55q-37 0 -61 -20t-29 -55q-1 -6 -1 -18q0 -60 58 -60z" />
    <glyph glyph-name="nine.denominator" horiz-adv-x="379" 
d="M39 79q18 12 53 14q6 -73 61 -73q89 0 127 172q-49 -42 -114 -42q-51 0 -75 25t-24 65q0 11 4 33q12 57 54 95t108 38q56 0 86 -36t30 -99q0 -30 -8 -70q-20 -97 -69.5 -152.5t-121.5 -55.5q-97 0 -111 86zM286 222q7 35 7 68q0 88 -63 88q-81 0 -103 -102q-3 -16 -3 -30
q0 -67 61 -67q58 0 101 43z" />
    <glyph glyph-name="l.ss01" horiz-adv-x="247" 
d="M58 129l120 573q33 0 61 5l-124 -587q-6 -30 -6 -47q0 -25 12.5 -35t41.5 -10q21 0 34 4q0 -17 -5 -32q-17 -7 -44 -7q-53 0 -75 19t-22 60q0 27 7 57z" />
    <glyph glyph-name="lacute.ss01" horiz-adv-x="247" 
d="M58 129l120 573q33 0 61 5l-124 -587q-6 -30 -6 -47q0 -25 12.5 -35t41.5 -10q21 0 34 4q0 -17 -5 -32q-17 -7 -44 -7q-53 0 -75 19t-22 60q0 27 7 57zM350 864l-117 -112q-10 -4 -19 -4q-11 0 -17 4l80 112q10 3 37 3q26 0 36 -3z" />
    <glyph glyph-name="lcaron.ss01" horiz-adv-x="323" 
d="M58 129l120 573q33 0 61 5l-124 -587q-6 -30 -6 -47q0 -25 12.5 -35t41.5 -10q21 0 34 4q0 -17 -5 -32q-17 -7 -44 -7q-53 0 -75 19t-22 60q0 27 7 57zM299 562q22 13 39 36.5t21 43.5q-30 2 -30 32q0 18 10.5 28t26.5 10q35 0 35 -35q0 -36 -24.5 -74t-60.5 -55
q-6 0 -11.5 4.5t-5.5 9.5z" />
    <glyph glyph-name="lcommaaccent.ss01" horiz-adv-x="247" 
d="M58 129l120 573q33 0 61 5l-124 -587q-6 -30 -6 -47q0 -25 12.5 -35t41.5 -10q21 0 34 4q0 -17 -5 -32q-17 -7 -44 -7q-53 0 -75 19t-22 60q0 27 7 57zM27 -207q22 14 39.5 36.5t22.5 41.5q-15 0 -24 9.5t-9 25.5t11.5 27t28.5 11q38 0 38 -38q0 -35 -27 -72t-64 -51
q-14 2 -16 10z" />
    <glyph glyph-name="lslash.ss01" horiz-adv-x="337" 
d="M119 129l50 240l-109 -58l10 43l108 58l61 290q33 0 61 5l-56 -264l111 59l-10 -43l-110 -60l-59 -279q-6 -30 -6 -47q0 -25 12.5 -35t41.5 -10q21 0 34 4q0 -17 -5 -32q-17 -7 -44 -7q-53 0 -75 19t-22 60q0 27 7 57z" />
    </font>
</defs>
</svg>
