<?xml version="1.0" standalone="no"?>
<!DOCTYPE svg PUBLIC "-//W3C//DTD SVG 1.1//EN" "http://www.w3.org/Graphics/SVG/1.1/DTD/svg11.dtd" >
<svg xmlns="http://www.w3.org/2000/svg" xmlns:xlink="http://www.w3.org/1999/xlink" version="1.1">
<metadata>
Created by FontForge 20150318 at Sat Oct 10 07:39:12 2015
 By uniteet7
Copyright (c) 2011 by Goran Soderstrom. All rights reserved.
</metadata>
<defs>
<font id="SiriBold" horiz-adv-x="588" >
  <font-face 
    font-family="SiriBold"
    font-weight="700"
    font-stretch="normal"
    units-per-em="1000"
    panose-1="2 0 0 0 0 0 0 0 0 0"
    ascent="750"
    descent="-250"
    x-height="520"
    cap-height="700"
    bbox="-165 -249 1306 924"
    underline-thickness="85"
    underline-position="-24"
    unicode-range="U+0020-FB04"
  />
<missing-glyph horiz-adv-x="608" 
d="M75 -100v900h458v-900h-458zM171 -22h266v743h-266v-743z" />
    <glyph glyph-name="ff" unicode="ff" horiz-adv-x="681" 
d="M83 0v431h-63v89h63v21q0 94 44.5 134.5t136.5 40.5q62 0 80 -11q1 -7 1 -26q0 -46 -4 -62q-21 7 -42 7q-35 0 -48 -17.5t-13 -63.5v-23h159v31q0 94 45.5 134.5t142.5 40.5q67 0 86 -11q3 -13 3 -43q0 -26 -3 -47q-16 9 -52 9q-38 0 -52.5 -17.5t-14.5 -63.5v-33h110
v-89h-110v-309q0 -105 9 -122h-164v431h-159v-431h-155z" />
    <glyph glyph-name="fi" unicode="fi" horiz-adv-x="608" 
d="M83 0v431h-63v89h63v18q0 104 66.5 146t193.5 42q104 0 143 -16q2 -10 2 -25q0 -54 -6 -70q-51 15 -129 15q-62 0 -88.5 -19.5t-26.5 -70.5v-20h159q90 0 155 8v-406q0 -105 9 -122h-164v431h-159v-431h-155z" />
    <glyph glyph-name="fl" unicode="fl" horiz-adv-x="625" 
d="M83 0v431h-63v89h63v31q0 93 47 134t140 41q58 0 80 -11q3 -13 3 -43q0 -26 -3 -47q-16 9 -46 9q-38 0 -52 -17.5t-14 -63.5v-33h109v-89h-109v-431h-155zM414 0v704q88 0 155 8v-590q0 -102 9 -122h-164z" />
    <glyph glyph-name="ffi" unicode="ffi" horiz-adv-x="922" 
d="M83 0v431h-63v89h63v21q0 94 44.5 134.5t136.5 40.5q62 0 80 -11q1 -6 1 -21q0 -42 -5 -67q-19 7 -41 7q-35 0 -48 -17.5t-13 -63.5v-23h159v18q0 104 66.5 146t194.5 42q103 0 142 -16q2 -10 2 -26q0 -50 -5 -70q-50 16 -126 16q-65 0 -92 -19.5t-27 -70.5v-20h164
q87 0 151 8v-406q0 -105 9 -122h-164v431h-160v-431h-155v431h-159v-431h-155z" />
    <glyph glyph-name="ffl" unicode="ffl" horiz-adv-x="939" 
d="M83 0v431h-63v89h63v21q0 94 44.5 134.5t136.5 40.5q62 0 80 -11q1 -7 1 -26q0 -44 -4 -62q-21 7 -42 7q-35 0 -48 -17.5t-13 -63.5v-23h159v31q0 93 47.5 134t140.5 41q60 0 80 -11q2 -16 2 -36q0 -42 -3 -54q-14 9 -45 9q-38 0 -52.5 -17.5t-14.5 -63.5v-33h110v-89
h-110v-431h-155v431h-159v-431h-155zM729 0v704q88 0 155 8v-590q0 -105 9 -122h-164z" />
    <glyph glyph-name="f_j" unicode="fj" horiz-adv-x="608" 
d="M397 -42v473h-159v-431h-155v431h-63v89h63v18q0 104 66.5 146t193.5 42q104 0 143 -16q2 -10 2 -25q0 -54 -6 -70q-51 15 -129 15q-62 0 -88.5 -19.5t-26.5 -70.5v-20h159q90 0 155 8v-560q0 -94 -44.5 -131.5t-138.5 -37.5q-46 0 -72 7q-3 12 -3 38q0 34 4 49
q14 -6 44 -6q34 0 44.5 15.5t10.5 55.5z" />
    <glyph glyph-name=".notdef" horiz-adv-x="608" 
d="M75 -100v900h458v-900h-458zM171 -22h266v743h-266v-743z" />
    <glyph glyph-name=".null" horiz-adv-x="0" 
 />
    <glyph glyph-name="nonmarkingreturn" horiz-adv-x="333" 
 />
    <glyph glyph-name="space" unicode=" " horiz-adv-x="214" 
 />
    <glyph glyph-name="exclam" unicode="!" horiz-adv-x="279" 
d="M82 206l-27 494q19 10 83 10q65 0 85 -10l-27 -494h-114zM139 -8q-35 0 -58.5 24t-23.5 58q0 33 23 56t59 23t59.5 -23t23.5 -56q0 -34 -23.5 -58t-59.5 -24z" />
    <glyph glyph-name="quotedbl" unicode="&#x22;" horiz-adv-x="439" 
d="M76 450l-25 254q21 8 72 8q50 0 68 -8l-24 -254q-15 -5 -47 -5q-36 0 -44 5zM273 450l-25 254q21 8 72 8q50 0 68 -8l-24 -254q-15 -5 -47 -5q-36 0 -44 5z" />
    <glyph glyph-name="numbersign" unicode="#" 
d="M76 0v10l28 174h-61v92h76l19 118h-61v93h76l30 189h111v-10l-29 -179h106l30 189h112v-10l-29 -179h61v-93h-76l-19 -118h61v-92h-76l-30 -184h-111v10l28 174h-106l-29 -184h-111zM231 276h106l19 118h-106z" />
    <glyph glyph-name="dollar" unicode="$" 
d="M261 -116v103q-98 8 -150.5 53t-66.5 112q18 11 57 19t73 8q3 0 9 -0.5t9 -0.5q23 -105 113 -105q42 0 66 25t24 70q0 41 -34.5 67.5t-83.5 43.5t-98 38t-83.5 63.5t-34.5 106.5q0 80 52.5 135.5t147.5 65.5v105h81v-105q92 -9 139 -55t58 -102q-44 -25 -129 -25h-13
q-19 96 -104 96q-41 0 -63.5 -24t-22.5 -68q0 -32 25 -54.5t62 -34.5t81 -30t81 -37.5t62 -60t25 -95.5q0 -82 -52 -140.5t-149 -69.5v-104h-81z" />
    <glyph glyph-name="percent" unicode="%" horiz-adv-x="933" 
d="M200 0v10l437 690h99v-10l-437 -690h-99zM224 309q-92 0 -140 53.5t-48 146.5q0 94 47 147.5t140 53.5t139.5 -53.5t46.5 -147.5t-46.5 -147t-138.5 -53zM223 367q34 0 46.5 30t12.5 112q0 81 -12.5 111t-46.5 30q-33 0 -46 -30t-13 -111q0 -82 13 -112t46 -30zM712 -10
q-92 0 -140 53.5t-48 146.5q0 94 47 147.5t140 53.5t139.5 -53.5t46.5 -147.5t-46.5 -147t-138.5 -53zM711 48q34 0 46.5 30t12.5 112q0 81 -12.5 111t-46.5 30q-33 0 -46 -30t-13 -111q0 -82 13 -112t46 -30z" />
    <glyph glyph-name="ampersand" unicode="&#x26;" horiz-adv-x="659" 
d="M491 0l-27 31q-81 -46 -193 -46q-114 0 -177.5 53t-63.5 137q0 73 40.5 117.5t109.5 73.5q-88 104 -88 178q0 70 53.5 120.5t157.5 50.5q103 0 154.5 -47.5t51.5 -118.5q0 -61 -34 -108.5t-107 -87.5l117 -139q20 54 23 121q18 2 31 2q57 0 102 -14q-15 -119 -77 -203
l95 -111v-9h-168zM402 105l-167 196q-62 -39 -62 -109q0 -54 33.5 -83.5t96.5 -29.5q56 0 99 26zM309 422q76 54 76 129q0 40 -19 62t-55 22q-34 0 -54.5 -19t-20.5 -54q0 -52 73 -140z" />
    <glyph glyph-name="quotesingle" unicode="'" horiz-adv-x="243" 
d="M76 450l-25 254q21 8 72 8q50 0 68 -8l-24 -254q-15 -5 -47 -5q-36 0 -44 5z" />
    <glyph glyph-name="parenleft" unicode="(" horiz-adv-x="454" 
d="M413 -130v-81q-163 3 -254.5 119.5t-91.5 343.5q0 228 91.5 343.5t254.5 118.5v-81q-84 -12 -127 -110.5t-43 -271.5t43 -271t127 -110z" />
    <glyph glyph-name="parenright" unicode=")" horiz-adv-x="454" 
d="M41 -211v81q84 12 127 110t43 271t-43 271.5t-127 110.5v81q163 -3 254.5 -118.5t91.5 -343.5q0 -227 -91.5 -343.5t-254.5 -119.5z" />
    <glyph glyph-name="asterisk" unicode="*" horiz-adv-x="494" 
d="M84 408l115 115l-160 25q-2 8 -2 13q0 24 11.5 53.5t25.5 38.5l143 -73l-26 159q18 12 57 12q40 0 55 -12l-26 -160l144 74q13 -10 24.5 -39t11.5 -53q0 -6 -2 -14l-160 -24l115 -115q-5 -18 -37 -41t-53 -24l-73 143l-73 -144q-21 1 -52.5 24.5t-37.5 41.5z" />
    <glyph glyph-name="plus" unicode="+" 
d="M239 48v197h-196v107h196v197h110v-197h196v-107h-196v-197h-110z" />
    <glyph glyph-name="comma" unicode="," horiz-adv-x="242" 
d="M39 -100q25 14 45 40t26 51q-33 4 -53.5 27.5t-20.5 55.5q0 36 23.5 59t60.5 23q41 0 65.5 -27.5t24.5 -73.5q0 -70 -36.5 -121.5t-77.5 -67.5q-20 1 -37 13t-20 21z" />
    <glyph glyph-name="hyphen" unicode="-" horiz-adv-x="387" 
d="M46 238v121h294v-121h-294z" />
    <glyph glyph-name="period" unicode="." horiz-adv-x="230" 
d="M115 -9q-36 0 -59 24t-23 58t23 56.5t59 22.5t59 -23t23 -56q0 -34 -23.5 -58t-58.5 -24z" />
    <glyph glyph-name="slash" unicode="/" horiz-adv-x="459" 
d="M29 -140v10l277 870h124v-10l-277 -870h-124z" />
    <glyph glyph-name="zero" unicode="0" horiz-adv-x="601" 
d="M301 -15q-136 0 -203 93.5t-67 259.5t67 259t202 93q136 0 203 -93t67 -259t-67 -259.5t-202 -93.5zM300 74q54 0 75 58t21 205t-20.5 205.5t-74.5 58.5t-75.5 -58.5t-21.5 -205.5t21 -205t75 -58z" />
    <glyph glyph-name="one" unicode="1" horiz-adv-x="471" 
d="M40 0v93h129v455l-131 -30v98q19 5 182 60h110v-583h117v-93h-407z" />
    <glyph glyph-name="two" unicode="2" horiz-adv-x="561" 
d="M27 0v103q11 9 44.5 34.5t53.5 40.5t53.5 43.5t54.5 50t47 52.5t40.5 57.5t25 58.5t10.5 63q0 93 -83 93q-79 0 -98 -123q-113 4 -147 30q6 36 21.5 67t43.5 59t76.5 44.5t111.5 16.5q117 0 179 -54t62 -146q0 -59 -25 -112t-73.5 -99t-97 -80t-115.5 -73v-2h318v-124
h-502z" />
    <glyph glyph-name="three" unicode="3" horiz-adv-x="545" 
d="M164 302v92h28q75 0 107.5 29t32.5 86q0 87 -83 87q-73 0 -92 -84q-36 2 -78 12t-56 21q16 64 75 104.5t165 40.5q111 0 172 -46.5t61 -128.5q0 -66 -36 -104.5t-94 -52.5v-4q62 -11 102 -51t40 -114q0 -95 -67 -149.5t-186 -54.5q-107 0 -166.5 40t-73.5 97q17 13 58 25
t75 16q23 -84 99 -84q47 0 72 29.5t25 78.5q0 57 -35 86t-117 29h-28z" />
    <glyph glyph-name="four" unicode="4" horiz-adv-x="590" 
d="M24 149v103l294 424h174v-419h74v-108h-74v-149h-161v149h-307zM147 257h184v119q0 51 3 159h-2q-30 -57 -90 -142z" />
    <glyph glyph-name="five" unicode="5" horiz-adv-x="550" 
d="M41 292l13 384h436v-124h-339l-7 -168q50 47 151 47q111 0 167 -57.5t56 -152.5q0 -111 -69.5 -173.5t-191.5 -62.5q-99 0 -158 39.5t-77 99.5q17 13 56 25.5t73 17.5q25 -88 101 -88q49 0 75 33t26 94q0 54 -23.5 89t-77.5 35q-59 0 -91 -38h-120z" />
    <glyph glyph-name="six" unicode="6" horiz-adv-x="591" 
d="M213 366q56 48 147 48q103 0 150.5 -55.5t47.5 -140.5q0 -101 -64 -167t-184 -66q-134 0 -201.5 89t-67.5 253q0 172 71.5 267.5t209.5 95.5q185 0 225 -165q-17 -14 -62.5 -23.5t-86.5 -9.5q-10 56 -30 83.5t-55 27.5q-48 0 -72 -53.5t-28 -183.5zM213 285
q3 -116 25.5 -164.5t70.5 -48.5q85 0 85 130q0 62 -21.5 92t-68.5 30q-52 0 -91 -39z" />
    <glyph glyph-name="seven" unicode="7" horiz-adv-x="530" 
d="M89 0v10l293 542h-354v124h480v-115l-237 -561h-182z" />
    <glyph glyph-name="eight" unicode="8" horiz-adv-x="590" 
d="M169 360v3q-111 36 -111 147q0 82 63 131t176 49q112 0 174 -49t62 -131q0 -110 -111 -148v-2q136 -42 136 -173q0 -94 -66.5 -148t-195.5 -54t-196.5 54.5t-67.5 148.5q0 130 137 172zM296 73q93 0 93 121q0 122 -93 122q-95 0 -95 -122q0 -121 95 -121zM296 402
q83 0 83 102q0 98 -83 98q-84 0 -84 -98q0 -102 84 -102z" />
    <glyph glyph-name="nine" unicode="9" horiz-adv-x="591" 
d="M191 182q18 -110 88 -110q46 0 69.5 50t27.5 174q-55 -45 -141 -45q-102 0 -152 59t-50 147q0 100 63.5 166.5t184.5 66.5q138 0 203.5 -91t65.5 -253q0 -172 -70.5 -266.5t-209.5 -94.5q-184 0 -228 164q23 13 68 22.5t81 10.5zM377 376q-2 121 -22.5 173.5t-71.5 52.5
q-86 0 -86 -130q0 -134 93 -134q51 0 87 38z" />
    <glyph glyph-name="colon" unicode=":" horiz-adv-x="257" 
d="M129 -9q-36 0 -59 24t-23 58t23 56.5t59 22.5t59 -23t23 -56q0 -34 -23.5 -58t-58.5 -24zM129 321q-36 0 -59 24t-23 58t23 56.5t59 22.5t59 -23t23 -56q0 -34 -23.5 -58t-58.5 -24z" />
    <glyph glyph-name="semicolon" unicode=";" horiz-adv-x="262" 
d="M49 -100q25 14 45 40t26 51q-33 4 -53.5 27.5t-20.5 55.5q0 36 23.5 59t60.5 23q41 0 65.5 -27.5t24.5 -73.5q0 -70 -36.5 -121.5t-77.5 -67.5q-20 1 -37 13t-20 21zM135 321q-36 0 -59 24t-23 58t23 56.5t59 22.5t59 -23t23 -56q0 -34 -23.5 -58t-58.5 -24z" />
    <glyph glyph-name="less" unicode="&#x3c;" 
d="M43 245v107l502 203v-109l-373 -148l373 -147v-109z" />
    <glyph glyph-name="equal" unicode="=" 
d="M43 348v107h502v-107h-502zM43 142v107h502v-107h-502z" />
    <glyph glyph-name="greater" unicode="&#x3e;" 
d="M43 42v109l373 147l-373 148v109l502 -203v-107z" />
    <glyph glyph-name="question" unicode="?" horiz-adv-x="491" 
d="M137 205v39q0 47 17.5 80.5t43 53t51 38t43 47.5t17.5 70q0 84 -76 84q-73 0 -89 -89q-92 4 -136 33q6 29 20 54t39.5 48.5t69.5 37.5t102 14q114 0 172 -51.5t58 -127.5q0 -52 -20 -92t-49 -64.5t-58.5 -46t-51.5 -48t-25 -58.5l-2 -22h-126zM116 74q0 33 23.5 56
t59.5 23t59 -23t23 -56q0 -34 -23.5 -58t-58.5 -24q-36 0 -59.5 24t-23.5 58z" />
    <glyph glyph-name="at" unicode="@" horiz-adv-x="1022" 
d="M611 440l8 43q84 0 135 5l-54 -309q-8 -46 -8 -71q0 -32 11.5 -45t37.5 -13q61 0 97.5 72.5t36.5 187.5q0 150 -94.5 238.5t-268.5 88.5q-171 0 -268 -108.5t-97 -284.5q0 -180 95 -287t272 -107q98 0 167 31q20 -22 20 -65q-83 -37 -191 -37q-141 0 -245.5 63.5
t-157 167.5t-52.5 233q0 198 124.5 331t332.5 133q209 0 332 -112t123 -283q0 -140 -69 -232t-184 -92q-121 0 -150 68q-65 -67 -154 -67q-154 0 -154 186q0 41 7.5 83.5t26 85.5t45.5 76t69.5 54t93.5 21q73 0 113 -55zM561 188l34 201q-23 19 -63 19q-37 0 -64.5 -27
t-40 -68.5t-18 -77.5t-5.5 -67q0 -48 15.5 -71t52.5 -23q47 0 81 34q0 31 8 80z" />
    <glyph glyph-name="A" unicode="A" horiz-adv-x="653" 
d="M13 0v9l218 691h195l214 -691v-9h-177l-48 169h-216l-49 -169h-137zM229 273h157l-21 78q-47 174 -53 215h-5q-9 -48 -56 -215z" />
    <glyph glyph-name="B" unicode="B" horiz-adv-x="610" 
d="M66 0v700h240q131 0 192 -42.5t61 -128.5q0 -61 -34.5 -102t-92.5 -54v-2q152 -36 152 -171q0 -200 -272 -200h-246zM231 90h49q74 0 105 26t31 86t-31 87t-102 27h-52v-226zM231 408h43q66 0 95.5 24t29.5 80q0 55 -28.5 76.5t-91.5 21.5h-48v-202z" />
    <glyph glyph-name="C" unicode="C" horiz-adv-x="655" 
d="M468 235q8 1 31 1q95 0 128 -16q-14 -109 -83 -172t-195 -63q-157 0 -233.5 98.5t-76.5 267.5q0 168 76.5 266t230.5 98q124 0 193.5 -58t83.5 -161q-36 -21 -132 -21q-18 0 -26 1q-11 74 -37 108.5t-79 34.5q-70 0 -100 -64t-30 -204q0 -141 30 -205.5t100 -64.5
q54 0 81.5 37t37.5 117z" />
    <glyph glyph-name="D" unicode="D" horiz-adv-x="670" 
d="M66 0v700h221q344 0 344 -349q0 -351 -343 -351h-222zM231 95h53q88 0 127.5 59.5t39.5 196.5q0 136 -39.5 195t-127.5 59h-53v-510z" />
    <glyph glyph-name="E" unicode="E" horiz-adv-x="542" 
d="M66 0v700h427v-104h-262v-185h236q4 -19 4 -53q0 -35 -4 -52h-236v-202h276v-104h-441z" />
    <glyph glyph-name="F" unicode="F" horiz-adv-x="531" 
d="M66 0v700h436v-104h-271v-197h243q5 -18 5 -50q0 -35 -5 -55h-243v-294h-165z" />
    <glyph glyph-name="G" unicode="G" horiz-adv-x="670" 
d="M466 107v171h-117v104h266v-314q-29 -31 -98 -57t-169 -26q-159 0 -234 97.5t-75 268.5q0 168 77 266t235 98q125 0 189 -54t73 -142q-37 -20 -124 -20q-22 0 -31 1q-7 58 -31 88.5t-78 30.5q-70 0 -100 -64t-30 -204q0 -147 32.5 -208.5t114.5 -61.5q67 0 100 26z" />
    <glyph glyph-name="H" unicode="H" horiz-adv-x="697" 
d="M66 0v700h165v-278h235v278h165v-700h-165v317h-235v-317h-165z" />
    <glyph glyph-name="I" unicode="I" horiz-adv-x="297" 
d="M66 0v700h165v-700h-165z" />
    <glyph glyph-name="J" unicode="J" horiz-adv-x="435" 
d="M208 182v518h165v-525q0 -104 -57 -146t-178 -42q-85 0 -115 12q-4 12 -4 44q0 41 5 54q30 -12 87 -12q55 0 76 21t21 76z" />
    <glyph glyph-name="K" unicode="K" horiz-adv-x="632" 
d="M66 0v700h165v-300h3l228 300h157v-9l-245 -303l248 -379v-9h-184l-204 323h-3v-323h-165z" />
    <glyph glyph-name="L" unicode="L" horiz-adv-x="509" 
d="M66 0v700h165v-595h255v-105h-420z" />
    <glyph glyph-name="M" unicode="M" horiz-adv-x="867" 
d="M66 0v700h207l86 -248q55 -157 71 -237h4q16 87 69 235l89 250h208v-700h-157v245q0 178 5 273h-4q-32 -126 -68 -228l-104 -290h-102l-101 290q-46 134 -68 228h-4q5 -190 5 -274v-244h-136z" />
    <glyph glyph-name="N" unicode="N" horiz-adv-x="727" 
d="M66 0v700h204l139 -262q88 -165 117 -250h4q-5 107 -5 256v256h135v-700h-191l-171 321q-74 138 -97 215h-5q6 -76 6 -276v-260h-136z" />
    <glyph glyph-name="O" unicode="O" horiz-adv-x="699" 
d="M349 -15q-157 0 -233.5 97.5t-76.5 268.5q0 170 77.5 267t232.5 97t232.5 -97t77.5 -267q0 -171 -76.5 -268.5t-233.5 -97.5zM349 81q70 0 100 64.5t30 205.5q0 140 -30 204t-100 64t-100 -64t-30 -204q0 -141 30 -205.5t100 -64.5z" />
    <glyph glyph-name="P" unicode="P" horiz-adv-x="601" 
d="M66 0v700h217q288 0 288 -215q0 -112 -70.5 -169t-224.5 -57h-45v-259h-165zM231 357h36q69 0 102.5 26t33.5 97q0 72 -33.5 98.5t-102.5 26.5h-36v-248z" />
    <glyph glyph-name="Q" unicode="Q" horiz-adv-x="699" 
d="M371 -14q-7 -1 -22 -1q-157 0 -233.5 97.5t-76.5 268.5q0 170 77.5 267t232.5 97t232.5 -97t77.5 -267q0 -267 -173 -341q14 -27 35 -36.5t60 -9.5q30 0 51 7q5 -17 5 -62q0 -36 -4 -58q-21 -8 -62 -8q-80 0 -125 32.5t-75 110.5zM349 81q70 0 100 64.5t30 205.5
q0 140 -30 204t-100 64t-100 -64t-30 -204q0 -141 30 -205.5t100 -64.5z" />
    <glyph glyph-name="R" unicode="R" horiz-adv-x="617" 
d="M66 0v700h219q145 0 214 -52.5t69 -157.5q0 -139 -126 -195l148 -286v-9h-174l-123 263h-62v-263h-165zM231 358h35q68 0 101.5 27t33.5 99t-33 98t-102 26h-35v-250z" />
    <glyph glyph-name="S" unicode="S" horiz-adv-x="587" 
d="M163 192h14q19 -111 119 -111q46 0 71.5 24.5t25.5 70.5q0 16 -4 30t-16 25.5t-19.5 19t-29 17t-30 13t-36.5 13t-35 12.5q-39 14 -64.5 27.5t-53 36t-41.5 55.5t-14 77q0 96 66.5 154.5t185.5 58.5t177 -50t68 -122q-42 -25 -138 -25h-9q-3 18 -7 30t-15 31.5
t-32.5 29.5t-51.5 10q-43 0 -67 -23.5t-24 -67.5q0 -11 2.5 -21t9 -18t12.5 -15t17.5 -13.5t19.5 -11t24 -10.5t25 -9.5t27.5 -10t27.5 -9.5q41 -15 67 -28.5t55.5 -37t44 -58.5t14.5 -81q0 -97 -67.5 -158.5t-196.5 -61.5q-118 0 -180 50t-78 130q17 11 59 19t77 8z" />
    <glyph glyph-name="T" unicode="T" horiz-adv-x="531" 
d="M183 0v596h-168v104h501v-104h-168v-596h-165z" />
    <glyph glyph-name="U" unicode="U" horiz-adv-x="669" 
d="M63 266v434h164v-433q0 -86 30.5 -124t91.5 -38t91 38t30 124v433h136v-434q0 -140 -60.5 -210.5t-209.5 -70.5q-150 0 -211.5 70.5t-61.5 210.5z" />
    <glyph glyph-name="V" unicode="V" horiz-adv-x="648" 
d="M229 0l-214 691v9h174l89 -308q50 -175 59 -255h4q9 77 60 253l91 310h141v-9l-221 -691h-183z" />
    <glyph glyph-name="W" unicode="W" horiz-adv-x="943" 
d="M183 0l-165 691v9h173l62 -311q35 -173 38 -232h5q7 81 43 232l74 311h152l72 -312q37 -158 41 -227h4q7 74 40 227l66 312h137v-9l-167 -691h-173l-58 249q-38 164 -47 250h-4q-16 -100 -52 -249l-61 -250h-180z" />
    <glyph glyph-name="X" unicode="X" horiz-adv-x="627" 
d="M18 0v9l207 342l-194 340v9h172l126 -236l134 236h140v-9l-197 -325l203 -357v-9h-172l-134 249l-144 -249h-141z" />
    <glyph glyph-name="Y" unicode="Y" horiz-adv-x="612" 
d="M223 0v254l-213 437v9h177l133 -301h5l137 301h140v-9l-215 -439v-252h-164z" />
    <glyph glyph-name="Z" unicode="Z" horiz-adv-x="602" 
d="M34 0v69l333 527h-319v104h520v-69l-334 -527h333v-104h-533z" />
    <glyph glyph-name="bracketleft" unicode="[" horiz-adv-x="439" 
d="M108 -190v890h290v-80h-132v-730h132v-80h-290z" />
    <glyph glyph-name="backslash" unicode="\" horiz-adv-x="459" 
d="M306 -140l-277 870v10h124l277 -870v-10h-124z" />
    <glyph glyph-name="bracketright" unicode="]" horiz-adv-x="439" 
d="M41 -190v80h132v730h-132v80h291v-890h-291z" />
    <glyph glyph-name="asciicircum" unicode="^" 
d="M67 362l191 338h71l192 -338h-106l-121 219l-121 -219h-106z" />
    <glyph glyph-name="underscore" unicode="_" horiz-adv-x="508" 
d="M4 -150v85h500v-85h-500z" />
    <glyph glyph-name="grave" unicode="`" horiz-adv-x="327" 
d="M171 582l-117 146q16 6 87 6q55 0 72 -6l60 -146q-8 -5 -53 -5q-34 0 -49 5z" />
    <glyph glyph-name="a" unicode="a" horiz-adv-x="543" 
d="M503 17l-135 -29q-16 18 -25 51q-52 -52 -137 -52q-80 0 -125 42.5t-45 114.5q0 84 58 124t154 40q46 0 84 -8v67q0 38 -13.5 58.5t-51.5 20.5t-58 -23t-26 -52h-4q-36 0 -77 11.5t-55 23.5q19 59 78.5 93.5t149.5 34.5q118 0 165 -50.5t47 -138.5v-180q0 -109 16 -148z
M332 92v140q-20 5 -50 5q-93 0 -93 -83q0 -78 82 -78q34 0 61 16z" />
    <glyph glyph-name="b" unicode="b" horiz-adv-x="570" 
d="M55 0v704q91 0 155 8v-239q50 59 133 59q99 0 147 -72.5t48 -200.5q0 -127 -48.5 -199.5t-146.5 -72.5q-89 0 -140 63v-50h-148zM210 407v-295q28 -27 71 -27q50 0 70 38.5t20 135.5q0 98 -20 137t-70 39q-40 0 -71 -28z" />
    <glyph glyph-name="c" unicode="c" horiz-adv-x="531" 
d="M364 170q7 1 28 1q90 0 119 -15q-13 -80 -70 -125t-157 -45q-127 0 -189.5 73.5t-62.5 200.5t62.5 200.5t189.5 73.5q102 0 158.5 -47t64.5 -127q-29 -15 -119 -15q-20 0 -26 1q-6 49 -22.5 76.5t-53.5 27.5q-48 0 -67.5 -46t-19.5 -144q0 -97 20 -143.5t69 -46.5
q35 0 51.5 25.5t24.5 74.5z" />
    <glyph glyph-name="d" unicode="d" horiz-adv-x="570" 
d="M529 16l-134 -28q-22 29 -29 62q-51 -63 -138 -63q-99 0 -147 73t-48 200t48 199.5t147 72.5q81 0 132 -58v230q83 0 155 8v-551q0 -108 14 -145zM360 111v297q-30 27 -70 27q-51 0 -70.5 -39t-19.5 -136q0 -98 19.5 -136.5t70.5 -38.5q41 0 70 26z" />
    <glyph glyph-name="e" unicode="e" horiz-adv-x="546" 
d="M512 233h-314q3 -86 24 -124.5t65 -38.5q61 0 76 83q100 0 142 -19q-41 -148 -219 -148q-125 0 -189.5 73t-64.5 204q0 128 63.5 199.5t184.5 71.5q119 0 177 -68.5t58 -179.5q0 -31 -3 -53zM199 311h160q0 73 -17 107t-60 34q-40 0 -59.5 -33t-23.5 -108z" />
    <glyph glyph-name="f" unicode="f" horiz-adv-x="366" 
d="M83 0v431h-63v89h63v31q0 93 47 134t140 41q67 0 87 -11q2 -16 2 -36q0 -42 -3 -54q-16 9 -52 9q-38 0 -52 -17.5t-14 -63.5v-33h109v-89h-109v-309q0 -105 9 -122h-164z" />
    <glyph glyph-name="g" unicode="g" horiz-adv-x="562" 
d="M245 94h83q115 0 164 -32t49 -98q0 -82 -69 -130.5t-214 -48.5q-118 0 -177 33t-59 91q0 61 76 83q-59 30 -59 88q0 67 83 107q-78 50 -78 155q0 91 60.5 141.5t165.5 50.5q56 0 101 -14h175v-89h-99q49 -34 49 -103q0 -82 -61.5 -130.5t-164.5 -48.5q-48 0 -90 11
q-15 -13 -15 -32q0 -34 80 -34zM270 225q73 0 73 117q0 116 -73 116q-38 0 -55.5 -28t-17.5 -89q0 -116 73 -116zM322 -32h-104q-32 0 -55 4q-16 -16 -16 -44q0 -68 125 -68q60 0 96.5 17.5t36.5 51.5q0 21 -18 30t-65 9z" />
    <glyph glyph-name="h" unicode="h" horiz-adv-x="567" 
d="M55 0v704q87 0 155 8v-243q54 65 149 65q155 0 155 -196v-216q0 -105 9 -122h-164v323q0 53 -15.5 79.5t-57.5 26.5q-44 0 -76 -28v-401h-155z" />
    <glyph glyph-name="i" unicode="i" horiz-adv-x="266" 
d="M50 656q0 35 22 55t60 20q39 0 62 -20.5t23 -54.5q0 -35 -23 -56t-62 -21q-38 0 -60 21t-22 56zM55 0v520q88 0 155 8v-406q0 -103 10 -122h-165z" />
    <glyph glyph-name="j" unicode="j" horiz-adv-x="266" 
d="M55 -42v562q90 0 155 8v-560q0 -94 -44.5 -131.5t-138.5 -37.5q-46 0 -72 7q-3 12 -3 38q0 34 4 49q13 -6 44 -6q34 0 44.5 15.5t10.5 55.5zM50 656q0 35 22 55t60 20q39 0 62 -20.5t23 -54.5q0 -35 -23 -56t-62 -21q-38 0 -60 21t-22 56z" />
    <glyph glyph-name="k" unicode="k" horiz-adv-x="537" 
d="M55 0v704q87 0 155 8v-395h4l156 203h151v-9l-177 -208l182 -294v-9h-171l-141 242h-4v-242h-155z" />
    <glyph glyph-name="l" unicode="l" horiz-adv-x="266" 
d="M55 0v704q88 0 155 8v-590q0 -103 10 -122h-165z" />
    <glyph glyph-name="m" unicode="m" horiz-adv-x="827" 
d="M55 0v520q82 0 147 8v-68q45 74 145 74q94 0 127 -80q20 34 60 57t94 23q147 0 147 -195v-217q0 -105 8 -122h-163v318q0 59 -12.5 85t-50.5 26q-42 0 -68 -30q4 -38 4 -60v-339h-155v318q0 60 -12.5 85.5t-49.5 25.5q-42 0 -66 -28v-401h-155z" />
    <glyph glyph-name="n" unicode="n" horiz-adv-x="567" 
d="M55 0v520q82 0 147 8v-70q52 76 154 76q158 0 158 -196v-216q0 -105 9 -122h-164v323q0 53 -15.5 79.5t-57.5 26.5q-44 0 -76 -28v-401h-155z" />
    <glyph glyph-name="o" unicode="o" horiz-adv-x="576" 
d="M288 -14q-128 0 -192 73.5t-64 200.5t64 200.5t192 73.5t192 -73.5t64 -200.5t-64 -200.5t-192 -73.5zM288 71q50 0 69.5 44t19.5 145q0 102 -19.5 145.5t-69.5 43.5t-69.5 -43.5t-19.5 -145.5t19.5 -145.5t69.5 -43.5z" />
    <glyph glyph-name="p" unicode="p" horiz-adv-x="570" 
d="M55 -198v718q82 0 147 8v-62q52 66 141 66q99 0 147 -72.5t48 -199.5t-48.5 -200t-146.5 -73q-83 0 -133 57v-234q-78 0 -155 -8zM210 407v-295q28 -27 71 -27q50 0 70 39t20 136q0 98 -20 136.5t-70 38.5q-40 0 -71 -28z" />
    <glyph glyph-name="q" unicode="q" horiz-adv-x="570" 
d="M360 -198v242q-50 -57 -133 -57q-99 0 -147 73t-48 200t48 199.5t147 72.5q88 0 141 -64v52q82 0 147 8v-718q-72 0 -155 -8zM360 111v297q-30 27 -71 27q-50 0 -70 -39t-20 -136q0 -98 20 -136.5t70 -38.5q42 0 71 26z" />
    <glyph glyph-name="r" unicode="r" horiz-adv-x="388" 
d="M55 0v520q80 0 147 8v-103h3q6 15 9.5 23t15 26.5t24 29t33.5 20t46 9.5q26 0 32 -3q4 -15 4 -63q0 -61 -5 -81q-18 4 -44 4q-45 0 -73 -11.5t-37 -22.5v-236q0 -100 10 -120h-165z" />
    <glyph glyph-name="s" unicode="s" horiz-adv-x="491" 
d="M144 147h10q18 -79 93 -79q33 0 51.5 17.5t18.5 46.5q0 11 -3 20t-11.5 16.5t-15 12t-21.5 10t-22.5 8t-28 8t-27.5 7.5q-34 9 -55.5 18t-46 25.5t-36.5 43t-12 63.5q0 75 54 122.5t157 47.5q59 0 102 -14.5t64.5 -37.5t31 -43.5t11.5 -41.5q-38 -19 -114 -19h-15
q-12 74 -83 74q-32 0 -51 -16.5t-19 -44.5q0 -8 2 -15.5t7 -13.5t9.5 -10.5t13.5 -9t15 -7t18 -6t19.5 -5.5t21.5 -5.5t21 -5.5q35 -9 58 -18t48 -25.5t37.5 -43.5t12.5 -64q0 -80 -55.5 -128t-162.5 -48q-101 0 -154 39.5t-61 100.5q42 21 118 21z" />
    <glyph glyph-name="t" unicode="t" horiz-adv-x="370" 
d="M83 153v278h-63v89h68v130q83 0 150 8v-138h104v-89h-104v-269q0 -44 14 -60.5t54 -16.5q24 0 41 6q4 -9 4 -51q0 -31 -2 -39q-23 -13 -90 -13q-94 0 -135 35.5t-41 129.5z" />
    <glyph glyph-name="u" unicode="u" horiz-adv-x="560" 
d="M53 174v346q88 0 155 8v-328q0 -56 15 -81.5t56 -25.5q38 0 71 24v403q88 0 155 8v-367q0 -111 14 -144l-134 -29q-21 26 -29 64q-51 -66 -147 -66q-156 0 -156 188z" />
    <glyph glyph-name="v" unicode="v" horiz-adv-x="518" 
d="M179 0l-163 510v10h163l46 -157q46 -157 51 -204h2q8 44 53 205l45 156h126v-10l-170 -510h-153z" />
    <glyph glyph-name="w" unicode="w" horiz-adv-x="742" 
d="M147 0l-124 510v10h160l33 -154q24 -111 30 -199h3q9 81 42 200l40 142h119l38 -143q29 -111 39 -199h2q7 80 33 198l34 155h124v-10l-127 -510h-137l-43 160q-32 122 -36 168h-2q-9 -62 -37 -169l-41 -159h-150z" />
    <glyph glyph-name="x" unicode="x" horiz-adv-x="525" 
d="M18 0v9l149 253l-141 249v9h168l87 -169l88 169h129v-9l-139 -237l148 -265v-9h-171l-92 176l-97 -176h-129z" />
    <glyph glyph-name="y" unicode="y" horiz-adv-x="511" 
d="M200 -5l-184 515v10h163l50 -153q38 -119 46 -179h3q6 46 45 178l47 154h126v-10l-167 -500q-21 -64 -36.5 -98.5t-38.5 -63.5t-54 -39.5t-78 -10.5q-57 0 -73 6q-5 20 -5 62q0 41 5 61q24 -8 63 -8q34 0 51.5 16.5t36.5 59.5z" />
    <glyph glyph-name="z" unicode="z" horiz-adv-x="494" 
d="M27 0v57l242 374h-224v89h422v-57l-243 -374h242v-89h-439z" />
    <glyph glyph-name="braceleft" unicode="{" horiz-adv-x="408" 
d="M367 -129v-73q-77 0 -120.5 7t-72.5 30t-38.5 60.5t-9.5 104.5q0 102 -12 145.5t-58 67.5v82q46 24 58 67.5t12 145.5q0 67 9.5 104.5t38.5 60.5t72.5 30t120.5 7v-73q-63 -1 -77.5 -24t-14.5 -118q0 -108 -19.5 -159t-70.5 -82q51 -31 70.5 -82t19.5 -159q0 -95 14 -118
t78 -24z" />
    <glyph glyph-name="bar" unicode="|" horiz-adv-x="345" 
d="M110 -130v940h125v-940h-125z" />
    <glyph glyph-name="braceright" unicode="}" horiz-adv-x="408" 
d="M41 -202v73q64 1 78.5 24.5t14.5 117.5q0 108 19.5 159t69.5 82q-50 31 -69.5 82t-19.5 159q0 94 -14.5 117.5t-78.5 24.5v73q77 0 120.5 -7t72.5 -30t38.5 -60.5t9.5 -104.5q0 -102 12 -145.5t58 -67.5v-82q-46 -24 -58 -67.5t-12 -145.5q0 -67 -9.5 -104.5t-38.5 -60.5
t-72.5 -30t-120.5 -7z" />
    <glyph glyph-name="asciitilde" unicode="~" 
d="M45 291v106q6 5 17.5 12.5t47 20.5t71.5 13q47 0 129.5 -25.5t124.5 -25.5q28 0 55 11t40 22l13 11v-111q-44 -34 -107 -34q-50 0 -132.5 25.5t-124.5 25.5q-32 0 -65.5 -13t-51.5 -25z" />
    <glyph glyph-name="uni00A0" unicode="&#xa0;" horiz-adv-x="214" 
 />
    <glyph glyph-name="exclamdown" unicode="&#xa1;" horiz-adv-x="279" 
d="M189 314l27 -494q-19 -10 -83 -10q-65 0 -85 10l27 494h114zM132 528q35 0 58.5 -24t23.5 -58q0 -33 -23 -56t-59 -23t-59.5 23t-23.5 56q0 34 23.5 58t59.5 24z" />
    <glyph glyph-name="cent" unicode="&#xa2;" 
d="M268 -115v103q-109 11 -163 83t-54 189t54 189t163 83v110h80v-111q81 -10 128.5 -55.5t55.5 -115.5q-28 -15 -119 -15q-19 0 -26 1q-14 109 -81 109q-51 0 -72 -48t-21 -147q0 -98 21.5 -146.5t72.5 -48.5q66 0 82 105q7 1 28 1q91 0 119 -15q-12 -71 -59.5 -115
t-128.5 -53v-103h-80z" />
    <glyph glyph-name="sterling" unicode="&#xa3;" 
d="M54 0v85q21 22 30 48.5t9 82.5v94h-63v83h63q1 70 12 121t38 92.5t76.5 62.5t121.5 21q183 0 217 -141q-17 -12 -59 -21.5t-79 -9.5q-15 83 -79 83q-22 0 -37.5 -9t-24.5 -23.5t-14 -41.5t-6.5 -55.5t-1.5 -71.5v-7h191v-83h-191v-35q0 -99 -53 -150h340v-125h-490z" />
    <glyph glyph-name="currency" unicode="&#xa4;" 
d="M93 83l-45 46l71 71q-37 55 -37 135q0 74 33 128l-67 67l46 45l63 -63q54 43 136 43t137 -44l64 64l46 -45l-68 -68q33 -52 33 -127q0 -77 -37 -134l72 -72l-45 -46l-72 71q-51 -39 -130 -39q-76 0 -130 38zM293 175q68 0 101.5 43.5t33.5 116.5q0 74 -33.5 116.5
t-101.5 42.5t-101.5 -42.5t-33.5 -116.5t33.5 -117t101.5 -43z" />
    <glyph glyph-name="yen" unicode="&#xa5;" 
d="M213 0v178h-172v70h172v23l-21 46h-151v71h118l-127 279v9h173l104 -263h1l106 263h140v-9l-129 -279h119v-71h-151l-21 -46v-23h172v-70h-172v-178h-161z" />
    <glyph glyph-name="brokenbar" unicode="&#xa6;" horiz-adv-x="345" 
d="M110 400v410h125v-410h-125zM110 -130v410h125v-410h-125z" />
    <glyph glyph-name="section" unicode="&#xa7;" horiz-adv-x="610" 
d="M184 -9h18q4 -17 8 -27.5t15 -28.5t31.5 -27t49.5 -9q40 0 61 20t21 54q0 32 -35.5 52.5t-86 34t-100.5 32t-85.5 57.5t-35.5 98q0 104 107 149q-79 46 -79 130q0 82 63 134t180 52q115 0 171 -47t65 -110q-38 -22 -126 -22h-18q-3 14 -5.5 21t-10 23t-17.5 24.5
t-28.5 16t-42.5 7.5q-39 0 -60.5 -20t-21.5 -54q0 -32 35.5 -52.5t86 -34.5t100.5 -32t85.5 -57.5t35.5 -98.5q0 -102 -107 -149q80 -47 80 -129t-63 -134t-177 -52q-62 0 -108.5 14.5t-73 38.5t-40 49.5t-17.5 54.5q37 22 125 22zM363 167q60 19 60 82q0 13 -4.5 23.5
t-15.5 19.5t-20 15.5t-29.5 14t-31.5 11.5t-37.5 12t-36.5 11q-27 -9 -44 -30t-17 -51q0 -13 4.5 -24t16 -20t20.5 -15.5t29.5 -14t31.5 -11.5t37.5 -12t36.5 -11z" />
    <glyph glyph-name="dieresis" unicode="&#xa8;" horiz-adv-x="446" 
d="M121 583q-33 0 -52.5 20.5t-19.5 52.5q0 31 19.5 50.5t52.5 19.5q34 0 53.5 -19.5t19.5 -50.5q0 -32 -19.5 -52.5t-53.5 -20.5zM323 583q-33 0 -52.5 20.5t-19.5 52.5q0 31 19.5 50.5t52.5 19.5q34 0 54 -19.5t20 -50.5q0 -32 -20 -52.5t-54 -20.5z" />
    <glyph glyph-name="copyright" unicode="&#xa9;" horiz-adv-x="790" 
d="M476 280q18 2 32 2q47 0 76 -13q-14 -67 -60 -108t-126 -41q-96 0 -149.5 63.5t-53.5 165.5q0 104 51.5 168.5t149.5 64.5q81 0 128.5 -44.5t59.5 -109.5q-25 -13 -81 -13q-17 0 -25 1q-11 102 -81 102q-90 0 -90 -169q0 -166 91 -166q63 0 78 97zM395 -15
q-155 0 -259.5 106t-104.5 259t104.5 259t259.5 106t259.5 -106t104.5 -259t-104.5 -259t-259.5 -106zM395 43q132 0 216 88.5t84 218.5q0 131 -83.5 219t-216.5 88t-216 -88t-83 -219t83.5 -219t215.5 -88z" />
    <glyph glyph-name="ordfeminine" unicode="&#xaa;" horiz-adv-x="389" 
d="M361 373l-102 -18q-10 10 -20 32q-36 -34 -94 -34q-57 0 -89.5 30t-32.5 80q0 57 41.5 83t110.5 26q30 0 58 -4v41q0 56 -42 56q-48 0 -57 -52q-27 0 -57.5 8t-44.5 18q28 87 167 87q85 0 118.5 -34.5t33.5 -95.5v-121q0 -76 10 -102zM233 423v97q-11 3 -29 3
q-64 0 -64 -55q0 -54 58 -54q17 0 35 9z" />
    <glyph glyph-name="guillemotleft" unicode="&#xab;" horiz-adv-x="626" 
d="M223 43l-174 214v19l174 213h123l-167 -223l167 -223h-123zM454 43l-174 214v19l174 213h123l-167 -223l167 -223h-123z" />
    <glyph glyph-name="logicalnot" unicode="&#xac;" 
d="M43 245v107h502v-304h-117v197h-385z" />
    <glyph glyph-name="uni00AD" unicode="&#xad;" horiz-adv-x="387" 
d="M46 238v121h294v-121h-294z" />
    <glyph glyph-name="registered" unicode="&#xae;" horiz-adv-x="528" 
d="M263 294q-101 0 -166.5 68t-65.5 167t65.5 167.5t166.5 68.5q102 0 168 -68.5t66 -167.5t-66 -167t-168 -68zM263 342q82 0 131 52.5t49 134.5t-49 135t-131 53t-130 -53t-48 -135t48 -134.5t130 -52.5zM171 403v261h82q112 0 112 -78q0 -55 -63 -70v-1q20 -7 38 -43
l32 -65v-4h-71l-23 59q-9 23 -17.5 31t-25.5 9v-99h-64zM235 542h16q49 0 49 40q0 23 -12.5 31t-36.5 8h-16v-79z" />
    <glyph glyph-name="macron" unicode="&#xaf;" horiz-adv-x="427" 
d="M57 609v95h313v-95h-313z" />
    <glyph glyph-name="degree" unicode="&#xb0;" horiz-adv-x="332" 
d="M31 579q0 59 38.5 97t96.5 38t96.5 -38t38.5 -97t-38.5 -96.5t-96.5 -37.5t-96.5 37.5t-38.5 96.5zM166 505q32 0 51 20.5t19 53.5t-18.5 53.5t-51.5 20.5t-51.5 -20.5t-18.5 -53.5t19 -53.5t51 -20.5z" />
    <glyph glyph-name="plusminus" unicode="&#xb1;" 
d="M43 336v106h196v165h110v-165h196v-106h-196v-165h-110v165h-196zM43 20v107h502v-107h-502z" />
    <glyph glyph-name="two.superior" unicode="&#xb2;" horiz-adv-x="406" 
d="M33 459v68q103 70 141 107q70 68 71 129q0 52 -47 52q-48 0 -59 -76q-78 2 -107 20q7 49 47.5 83.5t119.5 34.5q81 0 121.5 -32.5t40.5 -88.5q0 -66 -53 -116t-143 -97v-2h199v-82h-331z" />
    <glyph glyph-name="three.superior" unicode="&#xb3;" horiz-adv-x="388" 
d="M122 637v59h21q87 0 87 68q0 51 -50 51q-42 0 -54 -51q-71 5 -96 23q25 90 159 90q76 0 116.5 -28t40.5 -78q0 -40 -24 -64.5t-62 -32.5v-3q95 -18 95 -100q0 -57 -43 -89t-123 -32q-71 0 -112 24.5t-50 58.5q31 20 96 30q17 -53 61 -53q56 0 56 59q0 68 -97 68h-21z" />
    <glyph glyph-name="acute" unicode="&#xb4;" horiz-adv-x="327" 
d="M55 582l59 146q17 6 72 6q72 0 88 -6l-117 -146q-15 -5 -49 -5q-45 0 -53 5z" />
    <glyph glyph-name="mu" unicode="&#xb5;" horiz-adv-x="563" 
d="M55 -203v723q88 0 155 8v-293q0 -78 13.5 -109.5t59.5 -31.5q42 0 69 25v401q88 0 155 8v-367q0 -108 15 -144l-134 -29q-20 27 -28 60q-37 -62 -97 -62q-33 0 -53 15v-191q-72 0 -155 -13z" />
    <glyph glyph-name="paragraph" unicode="&#xb6;" horiz-adv-x="661" 
d="M315 -130v380h-19q-130 0 -192.5 62.5t-62.5 162.5q0 101 62.5 163t192.5 62h304v-830h-77v759h-131v-759h-77z" />
    <glyph glyph-name="periodcentered" unicode="&#xb7;" horiz-adv-x="302" 
d="M168 215q-36 0 -59 24t-23 58t23 56.5t59 22.5t59 -23t23 -56q0 -34 -23.5 -58t-58.5 -24z" />
    <glyph glyph-name="cedilla" unicode="&#xb8;" horiz-adv-x="312" 
d="M54 -202l13 43q25 -16 57 -16q43 0 43 36q0 16 -13 27t-28 14.5t-40 7.5l28 94h64l-18 -57q27 -5 45 -11.5t35.5 -26t17.5 -48.5q0 -43 -30.5 -65.5t-78.5 -22.5q-63 0 -95 25z" />
    <glyph glyph-name="one.superior" unicode="&#xb9;" horiz-adv-x="359" 
d="M60 459v59h78v265l-78 -12v62q7 2 117 35h80v-350h66v-59h-263z" />
    <glyph glyph-name="ordmasculine" unicode="&#xba;" horiz-adv-x="418" 
d="M209 352q-92 0 -138 50.5t-46 135.5q0 87 46.5 137.5t137.5 50.5q92 0 138.5 -50.5t46.5 -137.5q0 -85 -46.5 -135.5t-138.5 -50.5zM209 411q33 0 46 29.5t13 97.5q0 70 -13 100t-46 30t-45 -29.5t-12 -100.5q0 -69 12 -98t45 -29z" />
    <glyph glyph-name="guillemotright" unicode="&#xbb;" horiz-adv-x="626" 
d="M49 43l167 223l-167 223h122l175 -213v-19l-174 -214h-123zM280 43l167 223l-167 223h122l175 -213v-19l-174 -214h-123z" />
    <glyph glyph-name="onequarter" unicode="&#xbc;" horiz-adv-x="905" 
d="M51 267v59h78v265l-78 -12v62q7 2 117 35h80v-350h66v-59h-263zM190 0v10l437 690h99v-10l-437 -690h-99zM505 91v71l183 247h122v-246h47v-72h-47v-91h-116v91h-189zM582 163h116v156h-3z" />
    <glyph glyph-name="onehalf" unicode="&#xbd;" horiz-adv-x="958" 
d="M51 267v59h78v265l-78 -12v62q7 2 117 35h80v-350h66v-59h-263zM190 0v10l437 690h99v-10l-437 -690h-99zM575 0v68q103 70 141 107q71 68 71 129q0 52 -47 52q-48 0 -59 -76q-78 2 -107 20q7 49 47.5 83.5t119.5 34.5q81 0 121.5 -32.5t40.5 -88.5q0 -66 -53 -116
t-143 -97v-2h199v-82h-331z" />
    <glyph glyph-name="threequarters" unicode="&#xbe;" horiz-adv-x="938" 
d="M146 445v59h21q87 0 87 68q0 51 -50 51q-42 0 -54 -51q-71 5 -96 23q25 90 159 90q76 0 116.5 -28t40.5 -78q0 -40 -24 -64.5t-62 -32.5v-3q95 -18 95 -100q0 -57 -43 -89t-123 -32q-71 0 -112 24.5t-50 58.5q31 20 96 30q17 -53 61 -53q56 0 56 59q0 68 -97 68h-21z
M223 0v10l437 690h99v-10l-437 -690h-99zM538 91v71l183 247h122v-246h47v-72h-47v-91h-116v91h-189zM615 163h116v156h-3z" />
    <glyph glyph-name="questiondown" unicode="&#xbf;" horiz-adv-x="491" 
d="M346 315v-39q0 -47 -17.5 -80.5t-43 -53t-51 -38t-43 -47.5t-17.5 -70q0 -84 76 -84q73 0 89 89q92 -4 136 -33q-6 -29 -20 -54t-39.5 -48.5t-69.5 -37.5t-102 -14q-114 0 -172 51.5t-58 127.5q0 52 20 92t49 64.5t58.5 46t51.5 48t25 58.5l2 22h126zM367 446
q0 -33 -23.5 -56t-59.5 -23t-59 23t-23 56q0 34 23.5 58t58.5 24q36 0 59.5 -24t23.5 -58z" />
    <glyph glyph-name="Agrave" unicode="&#xc0;" horiz-adv-x="653" 
d="M13 0v9l218 691h195l214 -691v-9h-177l-48 169h-216l-49 -169h-137zM229 273h157l-21 78q-47 174 -53 215h-5q-9 -48 -56 -215zM286 751l-115 129q17 6 88 6q57 0 73 -6l58 -129q-8 -5 -51 -5q-38 0 -53 5z" />
    <glyph glyph-name="Aacute" unicode="&#xc1;" horiz-adv-x="653" 
d="M13 0v9l218 691h195l214 -691v-9h-177l-48 169h-216l-49 -169h-137zM229 273h157l-21 78q-47 174 -53 215h-5q-9 -48 -56 -215zM273 751l58 129q17 6 73 6q72 0 88 -6l-115 -129q-15 -5 -53 -5q-43 0 -51 5z" />
    <glyph glyph-name="Acircumflex" unicode="&#xc2;" horiz-adv-x="653" 
d="M13 0v9l218 691h195l214 -691v-9h-177l-48 169h-216l-49 -169h-137zM229 273h157l-21 78q-47 174 -53 215h-5q-9 -48 -56 -215zM163 752l84 128q19 7 78 7q57 0 81 -7l83 -128q-8 -5 -43 -5q-31 0 -46 5l-73 72h-2l-72 -72q-15 -5 -47 -5q-35 0 -43 5z" />
    <glyph glyph-name="Atilde" unicode="&#xc3;" horiz-adv-x="653" 
d="M13 0v9l218 691h195l214 -691v-9h-177l-48 169h-216l-49 -169h-137zM229 273h157l-21 78q-47 174 -53 215h-5q-9 -48 -56 -215zM151 748q29 131 122 131q32 0 70.5 -26t58.5 -26q18 0 29 11.5t21 37.5q6 2 28 2q28 0 34 -2q-17 -71 -45.5 -101t-68.5 -30q-36 0 -75 26
t-59 26q-33 0 -53 -49q-5 -3 -29 -3q-28 0 -33 3z" />
    <glyph glyph-name="Adieresis" unicode="&#xc4;" horiz-adv-x="653" 
d="M13 0v9l218 691h195l214 -691v-9h-177l-48 169h-216l-49 -169h-137zM229 273h157l-21 78q-47 174 -53 215h-5q-9 -48 -56 -215zM219 738q-33 0 -52.5 20.5t-19.5 52.5q0 31 19.5 50.5t52.5 19.5q34 0 53.5 -19.5t19.5 -50.5q0 -32 -19.5 -52.5t-53.5 -20.5zM431 738
q-33 0 -52.5 20.5t-19.5 52.5q0 31 19.5 50.5t52.5 19.5q34 0 54 -19.5t20 -50.5q0 -32 -20 -52.5t-54 -20.5z" />
    <glyph glyph-name="Aring" unicode="&#xc5;" horiz-adv-x="653" 
d="M13 0v9l218 691h195l214 -691v-9h-177l-48 169h-216l-49 -169h-137zM229 273h157l-21 78q-47 174 -53 215h-5q-9 -48 -56 -215zM218 822q0 45 30 73.5t78 28.5t78 -28.5t30 -73.5t-30.5 -73t-77.5 -28t-77.5 28t-30.5 73zM326 770q22 0 33 14.5t11 37.5q0 24 -11 38.5
t-33 14.5t-33 -14.5t-11 -38.5q0 -23 11 -37.5t33 -14.5z" />
    <glyph glyph-name="AE" unicode="&#xc6;" horiz-adv-x="870" 
d="M10 0l1 9l298 691h513v-104h-263v-185h236q5 -18 5 -50q0 -35 -5 -55h-236v-202h276v-104h-441v169h-171l-69 -169h-144zM265 273h129v323h-4q-12 -40 -81 -212z" />
    <glyph glyph-name="Ccedilla" unicode="&#xc7;" horiz-adv-x="655" 
d="M252 -202l13 43q25 -16 57 -16q43 0 43 36q0 16 -13 27t-28 14.5t-40 7.5l23 77q-136 13 -202 110t-66 254q0 168 76.5 266t230.5 98q124 0 193.5 -58t83.5 -161q-36 -21 -132 -21q-18 0 -26 1q-11 74 -37 108.5t-79 34.5q-70 0 -100 -64t-30 -204q0 -141 30 -205.5
t100 -64.5q54 0 81.5 37t37.5 117q8 1 31 1q95 0 128 -16q-14 -105 -77.5 -167t-179.5 -67l-12 -39q27 -5 45 -11.5t35.5 -26t17.5 -48.5q0 -43 -30.5 -65.5t-78.5 -22.5q-63 0 -95 25z" />
    <glyph glyph-name="Egrave" unicode="&#xc8;" horiz-adv-x="542" 
d="M66 0v700h427v-104h-262v-185h236q4 -19 4 -53q0 -35 -4 -52h-236v-202h276v-104h-441zM247 751l-115 129q16 6 88 6q56 0 73 -6l58 -129q-8 -5 -51 -5q-38 0 -53 5z" />
    <glyph glyph-name="Eacute" unicode="&#xc9;" horiz-adv-x="542" 
d="M66 0v700h427v-104h-262v-185h236q4 -19 4 -53q0 -35 -4 -52h-236v-202h276v-104h-441zM217 751l58 129q17 6 73 6q72 0 88 -6l-115 -129q-15 -5 -53 -5q-43 0 -51 5z" />
    <glyph glyph-name="Ecircumflex" unicode="&#xca;" horiz-adv-x="542" 
d="M66 0v700h427v-104h-262v-185h236q4 -19 4 -53q0 -35 -4 -52h-236v-202h276v-104h-441zM119 752l84 128q19 7 78 7q57 0 81 -7l83 -128q-8 -5 -43 -5q-31 0 -46 5l-73 72h-2l-72 -72q-15 -5 -47 -5q-35 0 -43 5z" />
    <glyph glyph-name="Edieresis" unicode="&#xcb;" horiz-adv-x="542" 
d="M66 0v700h427v-104h-262v-185h236q4 -19 4 -53q0 -35 -4 -52h-236v-202h276v-104h-441zM176 738q-33 0 -52.5 20.5t-19.5 52.5q0 31 19.5 50.5t52.5 19.5q34 0 53.5 -19.5t19.5 -50.5q0 -32 -19.5 -52.5t-53.5 -20.5zM388 738q-33 0 -52.5 20.5t-19.5 52.5
q0 31 19.5 50.5t52.5 19.5q34 0 54 -19.5t20 -50.5q0 -32 -20 -52.5t-54 -20.5z" />
    <glyph glyph-name="Igrave" unicode="&#xcc;" horiz-adv-x="297" 
d="M66 0v700h165v-700h-165zM114 751l-115 129q16 6 88 6q57 0 73 -6l58 -129q-8 -5 -51 -5q-38 0 -53 5z" />
    <glyph glyph-name="Iacute" unicode="&#xcd;" horiz-adv-x="297" 
d="M66 0v700h165v-700h-165zM78 751l58 129q17 6 73 6q71 0 88 -6l-115 -129q-15 -5 -53 -5q-43 0 -51 5z" />
    <glyph glyph-name="Icircumflex" unicode="&#xce;" horiz-adv-x="297" 
d="M66 0v700h165v-700h-165zM-14 752l84 128q19 7 78 7q57 0 81 -7l83 -128q-8 -5 -43 -5q-31 0 -46 5l-73 72h-2l-72 -72q-15 -5 -47 -5q-35 0 -43 5z" />
    <glyph glyph-name="Idieresis" unicode="&#xcf;" horiz-adv-x="297" 
d="M66 0v700h165v-700h-165zM42 738q-33 0 -52.5 20.5t-19.5 52.5q0 31 19.5 50.5t52.5 19.5q34 0 53.5 -19.5t19.5 -50.5q0 -32 -19.5 -52.5t-53.5 -20.5zM254 738q-33 0 -52.5 20.5t-19.5 52.5q0 31 19.5 50.5t52.5 19.5q34 0 54 -19.5t20 -50.5q0 -32 -20 -52.5
t-54 -20.5z" />
    <glyph glyph-name="Eth" unicode="&#xd0;" horiz-adv-x="693" 
d="M89 0v305h-68v96h68v299h221q344 0 344 -349q0 -168 -83.5 -259.5t-259.5 -91.5h-222zM253 95h54q88 0 127 59.5t39 196.5q0 136 -39 195t-127 59h-54v-204h125v-96h-125v-210z" />
    <glyph glyph-name="Ntilde" unicode="&#xd1;" horiz-adv-x="727" 
d="M66 0v700h204l139 -262q88 -165 117 -250h4q-5 107 -5 256v256h135v-700h-191l-171 321q-74 138 -97 215h-5q6 -76 6 -276v-260h-136zM203 748q29 131 122 131q32 0 70.5 -26t58.5 -26q18 0 29 11.5t21 37.5q6 2 28 2q28 0 34 -2q-17 -71 -45.5 -101t-68.5 -30
q-36 0 -75 26t-59 26q-33 0 -53 -49q-5 -3 -29 -3q-29 0 -33 3z" />
    <glyph glyph-name="Ograve" unicode="&#xd2;" horiz-adv-x="699" 
d="M349 -15q-157 0 -233.5 97.5t-76.5 268.5q0 170 77.5 267t232.5 97t232.5 -97t77.5 -267q0 -171 -76.5 -268.5t-233.5 -97.5zM349 81q70 0 100 64.5t30 205.5q0 140 -30 204t-100 64t-100 -64t-30 -204q0 -141 30 -205.5t100 -64.5zM312 751l-115 129q16 6 88 6
q57 0 73 -6l58 -129q-8 -5 -51 -5q-38 0 -53 5z" />
    <glyph glyph-name="Oacute" unicode="&#xd3;" horiz-adv-x="699" 
d="M349 -15q-157 0 -233.5 97.5t-76.5 268.5q0 170 77.5 267t232.5 97t232.5 -97t77.5 -267q0 -171 -76.5 -268.5t-233.5 -97.5zM349 81q70 0 100 64.5t30 205.5q0 140 -30 204t-100 64t-100 -64t-30 -204q0 -141 30 -205.5t100 -64.5zM282 751l58 129q16 6 73 6q71 0 88 -6
l-115 -129q-15 -5 -53 -5q-43 0 -51 5z" />
    <glyph glyph-name="Ocircumflex" unicode="&#xd4;" horiz-adv-x="699" 
d="M349 -15q-157 0 -233.5 97.5t-76.5 268.5q0 170 77.5 267t232.5 97t232.5 -97t77.5 -267q0 -171 -76.5 -268.5t-233.5 -97.5zM349 81q70 0 100 64.5t30 205.5q0 140 -30 204t-100 64t-100 -64t-30 -204q0 -141 30 -205.5t100 -64.5zM186 752l84 128q19 7 78 7q56 0 81 -7
l83 -128q-8 -5 -43 -5q-31 0 -46 5l-73 72h-2l-72 -72q-15 -5 -47 -5q-35 0 -43 5z" />
    <glyph glyph-name="Otilde" unicode="&#xd5;" horiz-adv-x="699" 
d="M349 -15q-157 0 -233.5 97.5t-76.5 268.5q0 170 77.5 267t232.5 97t232.5 -97t77.5 -267q0 -171 -76.5 -268.5t-233.5 -97.5zM349 81q70 0 100 64.5t30 205.5q0 140 -30 204t-100 64t-100 -64t-30 -204q0 -141 30 -205.5t100 -64.5zM174 748q29 131 122 131
q32 0 70.5 -26t58.5 -26q18 0 29 11.5t21 37.5q6 2 28 2q28 0 34 -2q-17 -71 -45.5 -101t-68.5 -30q-36 0 -75 26t-59 26q-33 0 -53 -49q-5 -3 -29 -3q-29 0 -33 3z" />
    <glyph glyph-name="Odieresis" unicode="&#xd6;" horiz-adv-x="699" 
d="M349 -15q-157 0 -233.5 97.5t-76.5 268.5q0 170 77.5 267t232.5 97t232.5 -97t77.5 -267q0 -171 -76.5 -268.5t-233.5 -97.5zM349 81q70 0 100 64.5t30 205.5q0 140 -30 204t-100 64t-100 -64t-30 -204q0 -141 30 -205.5t100 -64.5zM242 738q-33 0 -52.5 20.5t-19.5 52.5
q0 31 19.5 50.5t52.5 19.5q34 0 53.5 -19.5t19.5 -50.5q0 -32 -19.5 -52.5t-53.5 -20.5zM454 738q-33 0 -52.5 20.5t-19.5 52.5q0 31 19.5 50.5t52.5 19.5q34 0 54 -19.5t20 -50.5q0 -32 -20 -52.5t-54 -20.5z" />
    <glyph glyph-name="multiply" unicode="&#xd7;" 
d="M47 127l170 170l-171 172l77 77l171 -172l171 171l76 -75l-171 -171l172 -171l-77 -78l-173 172l-170 -170z" />
    <glyph glyph-name="Oslash" unicode="&#xd8;" horiz-adv-x="699" 
d="M78 2l47 69q-86 95 -86 280q0 170 77.5 267t232.5 97q108 0 180 -50l40 58l68 -42l-49 -71q71 -95 71 -259q0 -171 -77 -268.5t-233 -97.5q-96 0 -165 39l-42 -60zM227 221l223 328q-31 70 -101 70q-69 0 -99.5 -64t-30.5 -204q0 -82 8 -130zM475 446l-218 -315
q31 -50 92 -50q69 0 99.5 65t30.5 205q0 58 -4 95z" />
    <glyph glyph-name="Ugrave" unicode="&#xd9;" horiz-adv-x="669" 
d="M63 266v434h164v-433q0 -86 30.5 -124t91.5 -38t91 38t30 124v433h136v-434q0 -140 -60.5 -210.5t-209.5 -70.5q-150 0 -211.5 70.5t-61.5 210.5zM311 751l-115 129q16 6 88 6q56 0 73 -6l58 -129q-8 -5 -51 -5q-38 0 -53 5z" />
    <glyph glyph-name="Uacute" unicode="&#xda;" horiz-adv-x="669" 
d="M63 266v434h164v-433q0 -86 30.5 -124t91.5 -38t91 38t30 124v433h136v-434q0 -140 -60.5 -210.5t-209.5 -70.5q-150 0 -211.5 70.5t-61.5 210.5zM290 751l58 129q16 6 73 6q71 0 88 -6l-115 -129q-15 -5 -53 -5q-43 0 -51 5z" />
    <glyph glyph-name="Ucircumflex" unicode="&#xdb;" horiz-adv-x="669" 
d="M63 266v434h164v-433q0 -86 30.5 -124t91.5 -38t91 38t30 124v433h136v-434q0 -140 -60.5 -210.5t-209.5 -70.5q-150 0 -211.5 70.5t-61.5 210.5zM178 752l84 128q19 7 78 7q56 0 81 -7l83 -128q-8 -5 -43 -5q-31 0 -46 5l-73 72h-2l-72 -72q-15 -5 -47 -5q-35 0 -43 5z
" />
    <glyph glyph-name="Udieresis" unicode="&#xdc;" horiz-adv-x="669" 
d="M63 266v434h164v-433q0 -86 30.5 -124t91.5 -38t91 38t30 124v433h136v-434q0 -140 -60.5 -210.5t-209.5 -70.5q-150 0 -211.5 70.5t-61.5 210.5zM237 738q-33 0 -52.5 20.5t-19.5 52.5q0 31 19.5 50.5t52.5 19.5q34 0 53.5 -19.5t19.5 -50.5q0 -32 -19.5 -52.5
t-53.5 -20.5zM449 738q-33 0 -52.5 20.5t-19.5 52.5q0 31 19.5 50.5t52.5 19.5q34 0 54 -19.5t20 -50.5q0 -32 -20 -52.5t-54 -20.5z" />
    <glyph glyph-name="Yacute" unicode="&#xdd;" horiz-adv-x="612" 
d="M223 0v254l-213 437v9h177l133 -301h5l137 301h140v-9l-215 -439v-252h-164zM257 751l58 129q16 6 73 6q72 0 88 -6l-115 -129q-15 -5 -53 -5q-43 0 -51 5z" />
    <glyph glyph-name="Thorn" unicode="&#xde;" horiz-adv-x="613" 
d="M66 0v700h165v-117h44q154 0 225 -56t71 -165q0 -221 -295 -221h-45v-141h-165zM231 239h36q69 0 102 26t33 97q0 72 -33 99t-102 27h-36v-249z" />
    <glyph glyph-name="germandbls" unicode="&#xdf;" horiz-adv-x="594" 
d="M55 0v472q0 239 248 239q114 0 174.5 -51t60.5 -132q0 -121 -121 -157v-3q150 -31 150 -176q0 -96 -58 -148t-158 -52q-70 0 -104 12v88q20 -9 58 -9q102 0 102 115q0 60 -29 89t-98 29h-16v93h16q59 0 82 30.5t23 86.5q0 95 -85 95q-49 0 -69.5 -32t-20.5 -108v-481
h-155z" />
    <glyph glyph-name="agrave" unicode="&#xe0;" horiz-adv-x="543" 
d="M503 17l-135 -29q-16 18 -25 51q-52 -52 -137 -52q-80 0 -125 42.5t-45 114.5q0 84 58 124t154 40q46 0 84 -8v67q0 38 -13.5 58.5t-51.5 20.5t-58 -23t-26 -52h-4q-36 0 -77 11.5t-55 23.5q19 59 78.5 93.5t149.5 34.5q118 0 165 -50.5t47 -138.5v-180q0 -109 16 -148z
M332 92v140q-20 5 -50 5q-93 0 -93 -83q0 -78 82 -78q34 0 61 16zM245 582l-117 146q16 6 87 6q55 0 72 -6l60 -146q-8 -5 -53 -5q-34 0 -49 5z" />
    <glyph glyph-name="aacute" unicode="&#xe1;" horiz-adv-x="543" 
d="M503 17l-135 -29q-16 18 -25 51q-52 -52 -137 -52q-80 0 -125 42.5t-45 114.5q0 84 58 124t154 40q46 0 84 -8v67q0 38 -13.5 58.5t-51.5 20.5t-58 -23t-26 -52h-4q-36 0 -77 11.5t-55 23.5q19 59 78.5 93.5t149.5 34.5q118 0 165 -50.5t47 -138.5v-180q0 -109 16 -148z
M332 92v140q-20 5 -50 5q-93 0 -93 -83q0 -78 82 -78q34 0 61 16zM217 582l59 146q16 6 72 6q72 0 88 -6l-117 -146q-15 -5 -49 -5q-45 0 -53 5z" />
    <glyph glyph-name="acircumflex" unicode="&#xe2;" horiz-adv-x="543" 
d="M503 17l-135 -29q-16 18 -25 51q-52 -52 -137 -52q-80 0 -125 42.5t-45 114.5q0 84 58 124t154 40q46 0 84 -8v67q0 38 -13.5 58.5t-51.5 20.5t-58 -23t-26 -52h-4q-36 0 -77 11.5t-55 23.5q19 59 78.5 93.5t149.5 34.5q118 0 165 -50.5t47 -138.5v-180q0 -109 16 -148z
M332 92v140q-20 5 -50 5q-93 0 -93 -83q0 -78 82 -78q34 0 61 16zM112 582l80 146q18 6 78 6q62 0 81 -6l80 -146q-8 -5 -46 -5q-29 0 -44 5l-68 91h-2l-69 -91q-15 -5 -44 -5q-38 0 -46 5z" />
    <glyph glyph-name="atilde" unicode="&#xe3;" horiz-adv-x="543" 
d="M503 17l-135 -29q-16 18 -25 51q-52 -52 -137 -52q-80 0 -125 42.5t-45 114.5q0 84 58 124t154 40q46 0 84 -8v67q0 38 -13.5 58.5t-51.5 20.5t-58 -23t-26 -52h-4q-36 0 -77 11.5t-55 23.5q19 59 78.5 93.5t149.5 34.5q118 0 165 -50.5t47 -138.5v-180q0 -109 16 -148z
M332 92v140q-20 5 -50 5q-93 0 -93 -83q0 -78 82 -78q34 0 61 16zM96 590q27 131 119 131q34 0 73 -26t59 -26q31 0 50 49q6 2 31 2q24 0 30 -2q-16 -71 -43.5 -100.5t-66.5 -29.5q-38 0 -78 25.5t-59 25.5q-32 0 -54 -49q-6 -2 -27 -2q-28 0 -34 2z" />
    <glyph glyph-name="adieresis" unicode="&#xe4;" horiz-adv-x="543" 
d="M503 17l-135 -29q-16 18 -25 51q-52 -52 -137 -52q-80 0 -125 42.5t-45 114.5q0 84 58 124t154 40q46 0 84 -8v67q0 38 -13.5 58.5t-51.5 20.5t-58 -23t-26 -52h-4q-36 0 -77 11.5t-55 23.5q19 59 78.5 93.5t149.5 34.5q118 0 165 -50.5t47 -138.5v-180q0 -109 16 -148z
M332 92v140q-20 5 -50 5q-93 0 -93 -83q0 -78 82 -78q34 0 61 16zM170 583q-33 0 -52.5 20.5t-19.5 52.5q0 31 19.5 50.5t52.5 19.5q34 0 53.5 -19.5t19.5 -50.5q0 -32 -19.5 -52.5t-53.5 -20.5zM372 583q-33 0 -52.5 20.5t-19.5 52.5q0 31 19.5 50.5t52.5 19.5
q34 0 54 -19.5t20 -50.5q0 -32 -20 -52.5t-54 -20.5z" />
    <glyph glyph-name="aring" unicode="&#xe5;" horiz-adv-x="543" 
d="M503 17l-135 -29q-16 18 -25 51q-52 -52 -137 -52q-80 0 -125 42.5t-45 114.5q0 84 58 124t154 40q46 0 84 -8v67q0 38 -13.5 58.5t-51.5 20.5t-58 -23t-26 -52h-4q-36 0 -77 11.5t-55 23.5q19 59 78.5 93.5t149.5 34.5q118 0 165 -50.5t47 -138.5v-180q0 -109 16 -148z
M332 92v140q-20 5 -50 5q-93 0 -93 -83q0 -78 82 -78q34 0 61 16zM164 666q0 45 30 73.5t78 28.5t78 -28.5t30 -73.5t-30.5 -73.5t-77.5 -28.5t-77.5 28.5t-30.5 73.5zM272 613q22 0 33 14.5t11 38.5t-11 38.5t-33 14.5t-33 -14.5t-11 -38.5t11 -38.5t33 -14.5z" />
    <glyph glyph-name="ae" unicode="&#xe6;" horiz-adv-x="845" 
d="M332 301v70q0 75 -65 75q-37 0 -57.5 -22.5t-26.5 -52.5q-38 0 -79.5 11t-56.5 24q18 59 77.5 93.5t152.5 34.5q103 0 152 -44q54 44 149 44q119 0 177.5 -68.5t58.5 -179.5q0 -31 -3 -53h-314q3 -86 23.5 -124.5t65.5 -38.5q59 0 77 83q98 0 140 -19q-39 -148 -219 -148
q-121 0 -185 69q-70 -68 -190 -68q-83 0 -128 42t-45 115q0 83 57.5 123.5t152.5 40.5q51 0 86 -7zM362 107q-25 51 -30 125q-18 5 -49 5q-94 0 -94 -81t84 -81q55 0 89 32zM498 311h160q0 73 -17.5 107t-59.5 34q-40 0 -59.5 -32t-23.5 -109z" />
    <glyph glyph-name="ccedilla" unicode="&#xe7;" horiz-adv-x="531" 
d="M183 -202l13 43q25 -16 57 -16q43 0 43 36q0 16 -13 27t-28 14.5t-40 7.5l23 79q-104 13 -155 84.5t-51 186.5q0 127 62.5 200.5t189.5 73.5q102 0 158.5 -47t64.5 -127q-29 -15 -119 -15q-20 0 -26 1q-6 49 -22.5 76.5t-53.5 27.5q-48 0 -67.5 -46t-19.5 -144
q0 -97 20 -143.5t69 -46.5q35 0 51.5 25.5t24.5 74.5q7 1 28 1q90 0 119 -15q-13 -76 -65.5 -120.5t-144.5 -48.5l-12 -40q27 -5 45 -11.5t35.5 -26t17.5 -48.5q0 -43 -30.5 -65.5t-78.5 -22.5q-63 0 -95 25z" />
    <glyph glyph-name="egrave" unicode="&#xe8;" horiz-adv-x="546" 
d="M512 233h-314q3 -86 24 -124.5t65 -38.5q61 0 76 83q100 0 142 -19q-41 -148 -219 -148q-125 0 -189.5 73t-64.5 204q0 128 63.5 199.5t184.5 71.5q119 0 177 -68.5t58 -179.5q0 -31 -3 -53zM199 311h160q0 73 -17 107t-60 34q-40 0 -59.5 -33t-23.5 -108zM249 582
l-117 146q16 6 87 6q55 0 72 -6l60 -146q-8 -5 -53 -5q-34 0 -49 5z" />
    <glyph glyph-name="eacute" unicode="&#xe9;" horiz-adv-x="546" 
d="M512 233h-314q3 -86 24 -124.5t65 -38.5q61 0 76 83q100 0 142 -19q-41 -148 -219 -148q-125 0 -189.5 73t-64.5 204q0 128 63.5 199.5t184.5 71.5q119 0 177 -68.5t58 -179.5q0 -31 -3 -53zM199 311h160q0 73 -17 107t-60 34q-40 0 -59.5 -33t-23.5 -108zM227 582
l59 146q16 6 72 6q72 0 88 -6l-117 -146q-15 -5 -49 -5q-45 0 -53 5z" />
    <glyph glyph-name="ecircumflex" unicode="&#xea;" horiz-adv-x="546" 
d="M512 233h-314q3 -86 24 -124.5t65 -38.5q61 0 76 83q100 0 142 -19q-41 -148 -219 -148q-125 0 -189.5 73t-64.5 204q0 128 63.5 199.5t184.5 71.5q119 0 177 -68.5t58 -179.5q0 -31 -3 -53zM199 311h160q0 73 -17 107t-60 34q-40 0 -59.5 -33t-23.5 -108zM122 582
l80 146q18 6 78 6q62 0 81 -6l80 -146q-8 -5 -46 -5q-29 0 -44 5l-68 91h-2l-69 -91q-15 -5 -44 -5q-38 0 -46 5z" />
    <glyph glyph-name="edieresis" unicode="&#xeb;" horiz-adv-x="546" 
d="M512 233h-314q3 -86 24 -124.5t65 -38.5q61 0 76 83q100 0 142 -19q-41 -148 -219 -148q-125 0 -189.5 73t-64.5 204q0 128 63.5 199.5t184.5 71.5q119 0 177 -68.5t58 -179.5q0 -31 -3 -53zM199 311h160q0 73 -17 107t-60 34q-40 0 -59.5 -33t-23.5 -108zM181 583
q-33 0 -52.5 20.5t-19.5 52.5q0 31 19.5 50.5t52.5 19.5q34 0 53.5 -19.5t19.5 -50.5q0 -32 -19.5 -52.5t-53.5 -20.5zM383 583q-33 0 -52.5 20.5t-19.5 52.5q0 31 19.5 50.5t52.5 19.5q34 0 54 -19.5t20 -50.5q0 -32 -20 -52.5t-54 -20.5z" />
    <glyph glyph-name="igrave" unicode="&#xec;" horiz-adv-x="266" 
d="M55 0v520q88 0 155 8v-406q0 -103 10 -122h-165zM95 582l-117 146q16 6 87 6q55 0 72 -6l60 -146q-8 -5 -53 -5q-34 0 -49 5z" />
    <glyph glyph-name="iacute" unicode="&#xed;" horiz-adv-x="266" 
d="M55 0v520q88 0 155 8v-406q0 -103 10 -122h-165zM70 582l59 146q16 6 72 6q71 0 88 -6l-117 -146q-15 -5 -49 -5q-45 0 -53 5z" />
    <glyph glyph-name="icircumflex" unicode="&#xee;" horiz-adv-x="266" 
d="M55 0v520q88 0 155 8v-406q0 -103 10 -122h-165zM-27 582l80 146q18 6 78 6q62 0 81 -6l80 -146q-8 -5 -46 -5q-29 0 -44 5l-68 91h-2l-69 -91q-15 -5 -44 -5q-38 0 -46 5z" />
    <glyph glyph-name="idieresis" unicode="&#xef;" horiz-adv-x="266" 
d="M55 0v520q88 0 155 8v-406q0 -103 10 -122h-165zM29 583q-33 0 -52.5 20.5t-19.5 52.5q0 31 19.5 50.5t52.5 19.5q34 0 53.5 -19.5t19.5 -50.5q0 -32 -19.5 -52.5t-53.5 -20.5zM231 583q-33 0 -52.5 20.5t-19.5 52.5q0 31 19.5 50.5t52.5 19.5q34 0 54 -19.5t20 -50.5
q0 -32 -20 -52.5t-54 -20.5z" />
    <glyph glyph-name="eth" unicode="&#xf0;" horiz-adv-x="585" 
d="M193 522l-19 60l124 34q-47 60 -108 99h164q38 -23 74 -64l99 27l17 -61l-77 -21q75 -126 75 -306q0 -138 -64.5 -221t-193.5 -83q-123 0 -185.5 67.5t-62.5 184.5q0 115 60.5 181t172.5 66q77 0 112 -35q-12 54 -45 111zM287 66q50 0 71 47t21 145q0 78 -20.5 115
t-67.5 37q-49 0 -68.5 -40.5t-19.5 -132.5q0 -91 19 -131t65 -40z" />
    <glyph glyph-name="ntilde" unicode="&#xf1;" horiz-adv-x="567" 
d="M55 0v520q82 0 147 8v-70q52 76 154 76q158 0 158 -196v-216q0 -105 9 -122h-164v323q0 53 -15.5 79.5t-57.5 26.5q-44 0 -76 -28v-401h-155zM103 590q27 131 119 131q34 0 73 -26t59 -26q31 0 50 49q6 2 31 2q24 0 30 -2q-16 -71 -43.5 -100.5t-66.5 -29.5
q-38 0 -78 25.5t-59 25.5q-32 0 -54 -49q-6 -2 -27 -2q-28 0 -34 2z" />
    <glyph glyph-name="ograve" unicode="&#xf2;" horiz-adv-x="576" 
d="M288 -14q-128 0 -192 73.5t-64 200.5t64 200.5t192 73.5t192 -73.5t64 -200.5t-64 -200.5t-192 -73.5zM288 71q50 0 69.5 44t19.5 145q0 102 -19.5 145.5t-69.5 43.5t-69.5 -43.5t-19.5 -145.5t19.5 -145.5t69.5 -43.5zM249 582l-117 146q16 6 87 6q55 0 72 -6l60 -146
q-8 -5 -53 -5q-34 0 -49 5z" />
    <glyph glyph-name="oacute" unicode="&#xf3;" horiz-adv-x="576" 
d="M288 -14q-128 0 -192 73.5t-64 200.5t64 200.5t192 73.5t192 -73.5t64 -200.5t-64 -200.5t-192 -73.5zM288 71q50 0 69.5 44t19.5 145q0 102 -19.5 145.5t-69.5 43.5t-69.5 -43.5t-19.5 -145.5t19.5 -145.5t69.5 -43.5zM232 582l59 146q17 6 72 6q71 0 88 -6l-117 -146
q-15 -5 -49 -5q-45 0 -53 5z" />
    <glyph glyph-name="ocircumflex" unicode="&#xf4;" horiz-adv-x="576" 
d="M288 -14q-128 0 -192 73.5t-64 200.5t64 200.5t192 73.5t192 -73.5t64 -200.5t-64 -200.5t-192 -73.5zM288 71q50 0 69.5 44t19.5 145q0 102 -19.5 145.5t-69.5 43.5t-69.5 -43.5t-19.5 -145.5t19.5 -145.5t69.5 -43.5zM128 582l80 146q18 6 78 6q62 0 81 -6l80 -146
q-8 -5 -46 -5q-29 0 -44 5l-68 91h-2l-69 -91q-15 -5 -44 -5q-38 0 -46 5z" />
    <glyph glyph-name="otilde" unicode="&#xf5;" horiz-adv-x="576" 
d="M288 -14q-128 0 -192 73.5t-64 200.5t64 200.5t192 73.5t192 -73.5t64 -200.5t-64 -200.5t-192 -73.5zM288 71q50 0 69.5 44t19.5 145q0 102 -19.5 145.5t-69.5 43.5t-69.5 -43.5t-19.5 -145.5t19.5 -145.5t69.5 -43.5zM106 590q27 131 119 131q34 0 73 -26t59 -26
q31 0 50 49q6 2 31 2q24 0 30 -2q-16 -71 -43.5 -100.5t-66.5 -29.5q-38 0 -78 25.5t-59 25.5q-32 0 -54 -49q-6 -2 -27 -2q-28 0 -34 2z" />
    <glyph glyph-name="odieresis" unicode="&#xf6;" horiz-adv-x="576" 
d="M288 -14q-128 0 -192 73.5t-64 200.5t64 200.5t192 73.5t192 -73.5t64 -200.5t-64 -200.5t-192 -73.5zM288 71q50 0 69.5 44t19.5 145q0 102 -19.5 145.5t-69.5 43.5t-69.5 -43.5t-19.5 -145.5t19.5 -145.5t69.5 -43.5zM186 583q-33 0 -52.5 20.5t-19.5 52.5
q0 31 19.5 50.5t52.5 19.5q34 0 53.5 -19.5t19.5 -50.5q0 -32 -19.5 -52.5t-53.5 -20.5zM388 583q-33 0 -52.5 20.5t-19.5 52.5q0 31 19.5 50.5t52.5 19.5q34 0 54 -19.5t20 -50.5q0 -32 -20 -52.5t-54 -20.5z" />
    <glyph glyph-name="divide" unicode="&#xf7;" 
d="M294 33q-36 0 -59 24t-23 58t23 56.5t59 22.5t59 -22.5t23 -56.5t-23 -58t-59 -24zM294 403q-36 0 -59 24t-23 58t23 56.5t59 22.5t59 -22.5t23 -56.5t-23 -58t-59 -24zM43 245v107h502v-107h-502z" />
    <glyph glyph-name="oslash" unicode="&#xf8;" horiz-adv-x="576" 
d="M63 12l34 46q-65 72 -65 202q0 126 64.5 200t191.5 74q80 0 136 -31l33 44l66 -44l-38 -50q59 -71 59 -193q0 -126 -64.5 -200t-191.5 -74q-75 0 -131 27l-31 -41zM201 199l154 210q-21 40 -67 40q-49 0 -69 -44t-20 -145q0 -43 2 -61zM376 306l-152 -202q20 -33 64 -33
q49 0 69 44t20 145q0 32 -1 46z" />
    <glyph glyph-name="ugrave" unicode="&#xf9;" horiz-adv-x="560" 
d="M53 174v346q88 0 155 8v-328q0 -56 15 -81.5t56 -25.5q38 0 71 24v403q88 0 155 8v-367q0 -111 14 -144l-134 -29q-21 26 -29 64q-51 -66 -147 -66q-156 0 -156 188zM237 582l-117 146q16 6 87 6q55 0 72 -6l60 -146q-8 -5 -53 -5q-34 0 -49 5z" />
    <glyph glyph-name="uacute" unicode="&#xfa;" horiz-adv-x="560" 
d="M53 174v346q88 0 155 8v-328q0 -56 15 -81.5t56 -25.5q38 0 71 24v403q88 0 155 8v-367q0 -111 14 -144l-134 -29q-21 26 -29 64q-51 -66 -147 -66q-156 0 -156 188zM228 582l59 146q17 6 72 6q72 0 88 -6l-117 -146q-15 -5 -49 -5q-45 0 -53 5z" />
    <glyph glyph-name="ucircumflex" unicode="&#xfb;" horiz-adv-x="560" 
d="M53 174v346q88 0 155 8v-328q0 -56 15 -81.5t56 -25.5q38 0 71 24v403q88 0 155 8v-367q0 -111 14 -144l-134 -29q-21 26 -29 64q-51 -66 -147 -66q-156 0 -156 188zM121 582l80 146q18 6 78 6q61 0 81 -6l80 -146q-8 -5 -46 -5q-29 0 -44 5l-68 91h-2l-69 -91
q-15 -5 -44 -5q-38 0 -46 5z" />
    <glyph glyph-name="udieresis" unicode="&#xfc;" horiz-adv-x="560" 
d="M53 174v346q88 0 155 8v-328q0 -56 15 -81.5t56 -25.5q38 0 71 24v403q88 0 155 8v-367q0 -111 14 -144l-134 -29q-21 26 -29 64q-51 -66 -147 -66q-156 0 -156 188zM177 583q-33 0 -52.5 20.5t-19.5 52.5q0 31 19.5 50.5t52.5 19.5q34 0 53.5 -19.5t19.5 -50.5
q0 -32 -19.5 -52.5t-53.5 -20.5zM379 583q-33 0 -52.5 20.5t-19.5 52.5q0 31 19.5 50.5t52.5 19.5q34 0 54 -19.5t20 -50.5q0 -32 -20 -52.5t-54 -20.5z" />
    <glyph glyph-name="yacute" unicode="&#xfd;" horiz-adv-x="511" 
d="M200 -5l-184 515v10h163l50 -153q38 -119 46 -179h3q6 46 45 178l47 154h126v-10l-167 -500q-21 -64 -36.5 -98.5t-38.5 -63.5t-54 -39.5t-78 -10.5q-57 0 -73 6q-5 20 -5 62q0 41 5 61q24 -8 63 -8q34 0 51.5 16.5t36.5 59.5zM203 582l59 146q16 6 72 6q72 0 88 -6
l-117 -146q-15 -5 -49 -5q-45 0 -53 5z" />
    <glyph glyph-name="thorn" unicode="&#xfe;" horiz-adv-x="572" 
d="M55 -198v902q88 0 155 8v-239q53 59 133 59q99 0 147 -72.5t48 -199.5t-48.5 -200t-146.5 -73q-84 0 -133 56v-233q-55 0 -155 -8zM210 412v-304q26 -28 71 -28q50 0 70 41t20 139t-20 139t-70 41q-41 0 -71 -28z" />
    <glyph glyph-name="ydieresis" unicode="&#xff;" horiz-adv-x="511" 
d="M200 -5l-184 515v10h163l50 -153q38 -119 46 -179h3q6 46 45 178l47 154h126v-10l-167 -500q-21 -64 -36.5 -98.5t-38.5 -63.5t-54 -39.5t-78 -10.5q-57 0 -73 6q-5 20 -5 62q0 41 5 61q24 -8 63 -8q34 0 51.5 16.5t36.5 59.5zM163 583q-33 0 -52.5 20.5t-19.5 52.5
q0 31 19.5 50.5t52.5 19.5q34 0 53.5 -19.5t19.5 -50.5q0 -32 -19.5 -52.5t-53.5 -20.5zM365 583q-33 0 -52.5 20.5t-19.5 52.5q0 31 19.5 50.5t52.5 19.5q34 0 54 -19.5t20 -50.5q0 -32 -20 -52.5t-54 -20.5z" />
    <glyph glyph-name="Amacron" unicode="&#x100;" horiz-adv-x="653" 
d="M13 0v9l218 691h195l214 -691v-9h-177l-48 169h-216l-49 -169h-137zM229 273h157l-21 78q-47 174 -53 215h-5q-9 -48 -56 -215zM170 765v95h313v-95h-313z" />
    <glyph glyph-name="amacron" unicode="&#x101;" horiz-adv-x="543" 
d="M503 17l-135 -29q-16 18 -25 51q-52 -52 -137 -52q-80 0 -125 42.5t-45 114.5q0 84 58 124t154 40q46 0 84 -8v67q0 38 -13.5 58.5t-51.5 20.5t-58 -23t-26 -52h-4q-36 0 -77 11.5t-55 23.5q19 59 78.5 93.5t149.5 34.5q118 0 165 -50.5t47 -138.5v-180q0 -109 16 -148z
M332 92v140q-20 5 -50 5q-93 0 -93 -83q0 -78 82 -78q34 0 61 16zM115 609v95h313v-95h-313z" />
    <glyph glyph-name="Abreve" unicode="&#x102;" horiz-adv-x="653" 
d="M13 0v9l218 691h195l214 -691v-9h-177l-48 169h-216l-49 -169h-137zM229 273h157l-21 78q-47 174 -53 215h-5q-9 -48 -56 -215zM177 878q8 5 39 5q24 0 36 -4q11 -58 76 -58q62 0 73 58q11 4 36 4q31 0 39 -5q-4 -56 -39 -97t-109 -41t-110.5 41.5t-40.5 96.5z" />
    <glyph glyph-name="abreve" unicode="&#x103;" horiz-adv-x="543" 
d="M503 17l-135 -29q-16 18 -25 51q-52 -52 -137 -52q-80 0 -125 42.5t-45 114.5q0 84 58 124t154 40q46 0 84 -8v67q0 38 -13.5 58.5t-51.5 20.5t-58 -23t-26 -52h-4q-36 0 -77 11.5t-55 23.5q19 59 78.5 93.5t149.5 34.5q118 0 165 -50.5t47 -138.5v-180q0 -109 16 -148z
M332 92v140q-20 5 -50 5q-93 0 -93 -83q0 -78 82 -78q34 0 61 16zM122 723q8 5 39 5q24 0 36 -4q13 -67 76 -67q61 0 73 67q11 4 36 4q31 0 39 -5q-2 -26 -9 -49.5t-22.5 -47t-45.5 -37.5t-71 -14q-78 0 -112.5 44.5t-38.5 103.5z" />
    <glyph glyph-name="Aogonek" unicode="&#x104;" horiz-adv-x="653" 
d="M13 0v9l218 691h195l214 -691v-9q-110 -51 -110 -113q0 -37 47 -37q24 0 44 11l23 -50q-13 -12 -44.5 -23.5t-73.5 -11.5q-113 0 -113 87q0 88 115 137h-65l-48 169h-216l-49 -169h-137zM229 273h157l-21 78q-47 174 -53 215h-5q-9 -48 -56 -215z" />
    <glyph glyph-name="aogonek" unicode="&#x105;" horiz-adv-x="543" 
d="M479 -139l23 -50q-12 -12 -44 -23.5t-74 -11.5q-113 0 -113 89q0 76 94 126q-15 19 -22 48q-52 -52 -137 -52q-80 0 -125 42.5t-45 114.5q0 84 58 124t154 40q49 0 84 -7v66q0 38 -13.5 58.5t-51.5 20.5t-58 -23t-26 -52h-4q-36 0 -77 11.5t-55 23.5q19 59 78.5 93.5
t149.5 34.5q118 0 165 -50.5t47 -138.5v-180q0 -109 16 -148q-114 -58 -114 -127q0 -22 11 -31t35 -9t44 11zM332 92v140q-20 5 -50 5q-93 0 -93 -83q0 -78 84 -78q30 0 59 16z" />
    <glyph glyph-name="Cacute" unicode="&#x106;" horiz-adv-x="655" 
d="M468 235q8 1 31 1q95 0 128 -16q-14 -109 -83 -172t-195 -63q-157 0 -233.5 98.5t-76.5 267.5q0 168 76.5 266t230.5 98q124 0 193.5 -58t83.5 -161q-36 -21 -132 -21q-18 0 -26 1q-11 74 -37 108.5t-79 34.5q-70 0 -100 -64t-30 -204q0 -141 30 -205.5t100 -64.5
q54 0 81.5 37t37.5 117zM287 751l58 129q17 6 73 6q72 0 88 -6l-115 -129q-15 -5 -53 -5q-43 0 -51 5z" />
    <glyph glyph-name="cacute" unicode="&#x107;" horiz-adv-x="531" 
d="M364 170q7 1 28 1q90 0 119 -15q-13 -80 -70 -125t-157 -45q-127 0 -189.5 73.5t-62.5 200.5t62.5 200.5t189.5 73.5q102 0 158.5 -47t64.5 -127q-29 -15 -119 -15q-20 0 -26 1q-6 49 -22.5 76.5t-53.5 27.5q-48 0 -67.5 -46t-19.5 -144q0 -97 20 -143.5t69 -46.5
q35 0 51.5 25.5t24.5 74.5zM218 582l59 146q17 6 72 6q71 0 88 -6l-117 -146q-15 -5 -49 -5q-45 0 -53 5z" />
    <glyph glyph-name="Ccircumflex" unicode="&#x108;" horiz-adv-x="655" 
d="M468 235q8 1 31 1q95 0 128 -16q-14 -109 -83 -172t-195 -63q-157 0 -233.5 98.5t-76.5 267.5q0 168 76.5 266t230.5 98q124 0 193.5 -58t83.5 -161q-36 -21 -132 -21q-18 0 -26 1q-11 74 -37 108.5t-79 34.5q-70 0 -100 -64t-30 -204q0 -141 30 -205.5t100 -64.5
q54 0 81.5 37t37.5 117zM185 752l84 128q19 7 78 7q57 0 81 -7l83 -128q-8 -5 -43 -5q-31 0 -46 5l-73 72h-2l-72 -72q-15 -5 -47 -5q-35 0 -43 5z" />
    <glyph glyph-name="ccircumflex" unicode="&#x109;" horiz-adv-x="531" 
d="M364 170q7 1 28 1q90 0 119 -15q-13 -80 -70 -125t-157 -45q-127 0 -189.5 73.5t-62.5 200.5t62.5 200.5t189.5 73.5q102 0 158.5 -47t64.5 -127q-29 -15 -119 -15q-20 0 -26 1q-6 49 -22.5 76.5t-53.5 27.5q-48 0 -67.5 -46t-19.5 -144q0 -97 20 -143.5t69 -46.5
q35 0 51.5 25.5t24.5 74.5zM127 582l80 146q18 6 78 6q61 0 81 -6l80 -146q-8 -5 -46 -5q-29 0 -44 5l-68 91h-2l-69 -91q-15 -5 -44 -5q-38 0 -46 5z" />
    <glyph glyph-name="Cdotaccent" unicode="&#x10a;" horiz-adv-x="655" 
d="M468 235q8 1 31 1q95 0 128 -16q-14 -109 -83 -172t-195 -63q-157 0 -233.5 98.5t-76.5 267.5q0 168 76.5 266t230.5 98q124 0 193.5 -58t83.5 -161q-36 -21 -132 -21q-18 0 -26 1q-11 74 -37 108.5t-79 34.5q-70 0 -100 -64t-30 -204q0 -141 30 -205.5t100 -64.5
q54 0 81.5 37t37.5 117zM278 818q0 30 20 47.5t53 17.5t53.5 -17.5t20.5 -47.5t-20.5 -47.5t-53.5 -17.5t-53 17.5t-20 47.5z" />
    <glyph glyph-name="cdotaccent" unicode="&#x10b;" horiz-adv-x="531" 
d="M364 170q7 1 28 1q90 0 119 -15q-13 -80 -70 -125t-157 -45q-127 0 -189.5 73.5t-62.5 200.5t62.5 200.5t189.5 73.5q102 0 158.5 -47t64.5 -127q-29 -15 -119 -15q-20 0 -26 1q-6 49 -22.5 76.5t-53.5 27.5q-48 0 -67.5 -46t-19.5 -144q0 -97 20 -143.5t69 -46.5
q35 0 51.5 25.5t24.5 74.5zM204 663q0 33 21.5 52.5t57.5 19.5t58.5 -19.5t22.5 -52.5t-22.5 -53t-58.5 -20t-57.5 20t-21.5 53z" />
    <glyph glyph-name="Ccaron" unicode="&#x10c;" horiz-adv-x="655" 
d="M468 235q8 1 31 1q95 0 128 -16q-14 -109 -83 -172t-195 -63q-157 0 -233.5 98.5t-76.5 267.5q0 168 76.5 266t230.5 98q124 0 193.5 -58t83.5 -161q-36 -21 -132 -21q-18 0 -26 1q-11 74 -37 108.5t-79 34.5q-70 0 -100 -64t-30 -204q0 -141 30 -205.5t100 -64.5
q54 0 81.5 37t37.5 117zM281 752l-84 128q8 5 43 5q32 0 47 -5l72 -72h2l73 72q15 5 46 5q35 0 43 -5l-83 -128q-25 -7 -81 -7q-59 0 -78 7z" />
    <glyph glyph-name="ccaron" unicode="&#x10d;" horiz-adv-x="531" 
d="M364 170q7 1 28 1q90 0 119 -15q-13 -80 -70 -125t-157 -45q-127 0 -189.5 73.5t-62.5 200.5t62.5 200.5t189.5 73.5q102 0 158.5 -47t64.5 -127q-29 -15 -119 -15q-20 0 -26 1q-6 49 -22.5 76.5t-53.5 27.5q-48 0 -67.5 -46t-19.5 -144q0 -97 20 -143.5t69 -46.5
q35 0 51.5 25.5t24.5 74.5zM207 581l-80 146q7 4 46 4q32 0 44 -4l69 -91h2l68 91q12 4 44 4q39 0 46 -4l-80 -146q-16 -6 -78 -6t-81 6z" />
    <glyph glyph-name="Dcaron" unicode="&#x10e;" horiz-adv-x="670" 
d="M66 0v700h221q344 0 344 -349q0 -351 -343 -351h-222zM231 95h53q88 0 127.5 59.5t39.5 196.5q0 136 -39.5 195t-127.5 59h-53v-510zM230 752l-84 128q8 5 43 5q32 0 47 -5l72 -72h2l73 72q15 5 46 5q35 0 43 -5l-83 -128q-25 -7 -81 -7q-59 0 -78 7z" />
    <glyph glyph-name="dcaron" unicode="&#x10f;" horiz-adv-x="724" 
d="M528 16l-134 -28q-22 29 -29 62q-51 -63 -138 -63q-99 0 -147 73t-48 200t48 199.5t147 72.5q81 0 132 -58v230q83 0 155 8v-551q0 -108 14 -145zM359 111v297q-30 27 -70 27q-51 0 -70.5 -39t-19.5 -136q0 -98 19.5 -136.5t70.5 -38.5q41 0 70 26zM572 489
q21 14 38 38.5t21 47.5q-28 4 -44.5 22t-16.5 47q0 34 18 52.5t50 18.5q75 0 75 -83q0 -65 -30 -111t-65 -62q-16 1 -30 11.5t-16 18.5z" />
    <glyph glyph-name="Dcroat" unicode="&#x110;" horiz-adv-x="693" 
d="M89 0v305h-68v96h68v299h221q344 0 344 -349q0 -168 -83.5 -259.5t-259.5 -91.5h-222zM253 95h54q88 0 127 59.5t39 196.5q0 136 -39 195t-127 59h-54v-204h125v-96h-125v-210z" />
    <glyph glyph-name="dcroat" unicode="&#x111;" horiz-adv-x="569" 
d="M529 16l-134 -28q-22 29 -29 62q-51 -63 -138 -63q-99 0 -147 73t-48 200t48 199.5t147 72.5q81 0 132 -58v109h-134v65h134v56q83 0 155 8v-64h54v-65h-54v-422q0 -108 14 -145zM360 111v297q-30 27 -70 27q-51 0 -70.5 -39t-19.5 -136q0 -98 19.5 -136.5t70.5 -38.5
q41 0 70 26z" />
    <glyph glyph-name="Emacron" unicode="&#x112;" horiz-adv-x="542" 
d="M66 0v700h427v-104h-262v-185h236q4 -19 4 -53q0 -35 -4 -52h-236v-202h276v-104h-441zM126 765v95h313v-95h-313z" />
    <glyph glyph-name="emacron" unicode="&#x113;" horiz-adv-x="546" 
d="M512 233h-314q3 -86 24 -124.5t65 -38.5q61 0 76 83q100 0 142 -19q-41 -148 -219 -148q-125 0 -189.5 73t-64.5 204q0 128 63.5 199.5t184.5 71.5q119 0 177 -68.5t58 -179.5q0 -31 -3 -53zM199 311h160q0 73 -17 107t-60 34q-40 0 -59.5 -33t-23.5 -108zM125 609v95
h313v-95h-313z" />
    <glyph glyph-name="Ebreve" unicode="&#x114;" horiz-adv-x="542" 
d="M66 0v700h427v-104h-262v-185h236q4 -19 4 -53q0 -35 -4 -52h-236v-202h276v-104h-441zM133 878q8 5 39 5q24 0 36 -4q11 -58 76 -58q62 0 73 58q11 4 36 4q31 0 39 -5q-4 -56 -39 -97t-109 -41t-110.5 41.5t-40.5 96.5z" />
    <glyph glyph-name="ebreve" unicode="&#x115;" horiz-adv-x="546" 
d="M512 233h-314q3 -86 24 -124.5t65 -38.5q61 0 76 83q100 0 142 -19q-41 -148 -219 -148q-125 0 -189.5 73t-64.5 204q0 128 63.5 199.5t184.5 71.5q119 0 177 -68.5t58 -179.5q0 -31 -3 -53zM199 311h160q0 73 -17 107t-60 34q-40 0 -59.5 -33t-23.5 -108zM132 723
q8 5 39 5q24 0 36 -4q13 -67 76 -67q61 0 73 67q11 4 36 4q31 0 39 -5q-2 -26 -9 -49.5t-22.5 -47t-45.5 -37.5t-71 -14q-78 0 -112.5 44.5t-38.5 103.5z" />
    <glyph glyph-name="Edotaccent" unicode="&#x116;" horiz-adv-x="542" 
d="M66 0v700h427v-104h-262v-185h236q4 -19 4 -53q0 -35 -4 -52h-236v-202h276v-104h-441zM207 818q0 30 20 47.5t53 17.5t53.5 -17.5t20.5 -47.5t-20.5 -47.5t-53.5 -17.5t-53 17.5t-20 47.5z" />
    <glyph glyph-name="edotaccent" unicode="&#x117;" horiz-adv-x="546" 
d="M512 233h-314q3 -86 24 -124.5t65 -38.5q61 0 76 83q100 0 142 -19q-41 -148 -219 -148q-125 0 -189.5 73t-64.5 204q0 128 63.5 199.5t184.5 71.5q119 0 177 -68.5t58 -179.5q0 -31 -3 -53zM199 311h160q0 73 -17 107t-60 34q-40 0 -59.5 -33t-23.5 -108zM200 663
q0 33 21.5 52.5t57.5 19.5t58.5 -19.5t22.5 -52.5t-22.5 -53t-58.5 -20t-57.5 20t-21.5 53z" />
    <glyph glyph-name="Eogonek" unicode="&#x118;" horiz-adv-x="542" 
d="M66 0v700h427v-104h-262v-185h236q4 -19 4 -53q0 -35 -4 -52h-236v-202h276v-104q-110 -51 -110 -113q0 -37 47 -37q24 0 44 11l23 -50q-13 -12 -44.5 -23.5t-73.5 -11.5q-113 0 -113 87q0 88 115 137h-329z" />
    <glyph glyph-name="eogonek" unicode="&#x119;" horiz-adv-x="546" 
d="M480 -139l23 -50q-37 -35 -116 -35q-57 0 -86 23t-29 64q0 61 72 128q-30 -5 -58 -5q-125 0 -189.5 73t-64.5 204q0 128 63.5 199.5t184.5 71.5q119 0 177 -68.5t58 -179.5q0 -31 -3 -53h-314q3 -86 24 -124.5t65 -38.5q61 0 76 83q100 0 142 -19q-11 -39 -29 -65
q-6 -9 -22.5 -34t-22 -34t-16.5 -28t-14.5 -29.5t-7.5 -24.5t-4 -26q0 -43 47 -43q26 0 44 11zM199 311h160q0 73 -17 107t-60 34q-40 0 -59.5 -33t-23.5 -108z" />
    <glyph glyph-name="Ecaron" unicode="&#x11a;" horiz-adv-x="542" 
d="M66 0v700h427v-104h-262v-185h236q4 -19 4 -53q0 -35 -4 -52h-236v-202h276v-104h-441zM205 752l-84 128q8 5 43 5q32 0 47 -5l72 -72h2l73 72q15 5 46 5q35 0 43 -5l-83 -128q-24 -7 -81 -7q-59 0 -78 7z" />
    <glyph glyph-name="ecaron" unicode="&#x11b;" horiz-adv-x="546" 
d="M512 233h-314q3 -86 24 -124.5t65 -38.5q61 0 76 83q100 0 142 -19q-41 -148 -219 -148q-125 0 -189.5 73t-64.5 204q0 128 63.5 199.5t184.5 71.5q119 0 177 -68.5t58 -179.5q0 -31 -3 -53zM199 311h160q0 73 -17 107t-60 34q-40 0 -59.5 -33t-23.5 -108zM206 581
l-80 146q7 4 46 4q32 0 44 -4l69 -91h2l68 91q12 4 44 4q39 0 46 -4l-80 -146q-16 -6 -78 -6q-61 0 -81 6z" />
    <glyph glyph-name="Gcircumflex" unicode="&#x11c;" horiz-adv-x="670" 
d="M466 107v171h-117v104h266v-314q-29 -31 -98 -57t-169 -26q-159 0 -234 97.5t-75 268.5q0 168 77 266t235 98q125 0 189 -54t73 -142q-37 -20 -124 -20q-22 0 -31 1q-7 58 -31 88.5t-78 30.5q-70 0 -100 -64t-30 -204q0 -147 32.5 -208.5t114.5 -61.5q67 0 100 26z
M187 752l84 128q19 7 78 7q57 0 81 -7l83 -128q-8 -5 -43 -5q-31 0 -46 5l-73 72h-2l-72 -72q-15 -5 -47 -5q-35 0 -43 5z" />
    <glyph glyph-name="gcircumflex" unicode="&#x11d;" horiz-adv-x="563" 
d="M245 94h83q115 0 164 -32t49 -98q0 -82 -69 -130.5t-214 -48.5q-118 0 -177 33t-59 91q0 61 76 83q-59 30 -59 88q0 67 83 107q-78 50 -78 155q0 91 60.5 141.5t165.5 50.5q56 0 101 -14h175v-89h-99q49 -34 49 -103q0 -82 -61.5 -130.5t-164.5 -48.5q-48 0 -90 11
q-15 -13 -15 -32q0 -34 80 -34zM270 225q73 0 73 117q0 116 -73 116q-38 0 -55.5 -28t-17.5 -89q0 -116 73 -116zM322 -32h-104q-32 0 -55 4q-16 -16 -16 -44q0 -68 125 -68q60 0 96.5 17.5t36.5 51.5q0 21 -18 30t-65 9zM116 582l80 146q18 6 78 6q62 0 81 -6l80 -146
q-8 -5 -46 -5q-29 0 -44 5l-68 91h-2l-69 -91q-15 -5 -44 -5q-38 0 -46 5z" />
    <glyph glyph-name="Gbreve" unicode="&#x11e;" horiz-adv-x="670" 
d="M466 107v171h-117v104h266v-314q-29 -31 -98 -57t-169 -26q-159 0 -234 97.5t-75 268.5q0 168 77 266t235 98q125 0 189 -54t73 -142q-37 -20 -124 -20q-22 0 -31 1q-7 58 -31 88.5t-78 30.5q-70 0 -100 -64t-30 -204q0 -147 32.5 -208.5t114.5 -61.5q67 0 100 26z
M202 878q8 5 39 5q24 0 36 -4q11 -58 76 -58q62 0 73 58q11 4 36 4q31 0 39 -5q-4 -56 -39 -97t-109 -41t-110.5 41.5t-40.5 96.5z" />
    <glyph glyph-name="gbreve" unicode="&#x11f;" horiz-adv-x="563" 
d="M245 94h83q115 0 164 -32t49 -98q0 -82 -69 -130.5t-214 -48.5q-118 0 -177 33t-59 91q0 61 76 83q-59 30 -59 88q0 67 83 107q-78 50 -78 155q0 91 60.5 141.5t165.5 50.5q56 0 101 -14h175v-89h-99q49 -34 49 -103q0 -82 -61.5 -130.5t-164.5 -48.5q-48 0 -90 11
q-15 -13 -15 -32q0 -34 80 -34zM270 225q73 0 73 117q0 116 -73 116q-38 0 -55.5 -28t-17.5 -89q0 -116 73 -116zM322 -32h-104q-32 0 -55 4q-16 -16 -16 -44q0 -68 125 -68q60 0 96.5 17.5t36.5 51.5q0 21 -18 30t-65 9zM127 723q8 5 39 5q24 0 36 -4q13 -67 76 -67
q61 0 73 67q11 4 36 4q31 0 39 -5q-2 -26 -9 -49.5t-22.5 -47t-45.5 -37.5t-71 -14q-78 0 -112.5 44.5t-38.5 103.5z" />
    <glyph glyph-name="Gdotaccent" unicode="&#x120;" horiz-adv-x="670" 
d="M466 107v171h-117v104h266v-314q-29 -31 -98 -57t-169 -26q-159 0 -234 97.5t-75 268.5q0 168 77 266t235 98q125 0 189 -54t73 -142q-37 -20 -124 -20q-22 0 -31 1q-7 58 -31 88.5t-78 30.5q-70 0 -100 -64t-30 -204q0 -147 32.5 -208.5t114.5 -61.5q67 0 100 26z
M275 818q0 30 20 47.5t53 17.5t53.5 -17.5t20.5 -47.5t-20.5 -47.5t-53.5 -17.5t-53 17.5t-20 47.5z" />
    <glyph glyph-name="gdotaccent" unicode="&#x121;" horiz-adv-x="563" 
d="M245 94h83q115 0 164 -32t49 -98q0 -82 -69 -130.5t-214 -48.5q-118 0 -177 33t-59 91q0 61 76 83q-59 30 -59 88q0 67 83 107q-78 50 -78 155q0 91 60.5 141.5t165.5 50.5q56 0 101 -14h175v-89h-99q49 -34 49 -103q0 -82 -61.5 -130.5t-164.5 -48.5q-48 0 -90 11
q-15 -13 -15 -32q0 -34 80 -34zM270 225q73 0 73 117q0 116 -73 116q-38 0 -55.5 -28t-17.5 -89q0 -116 73 -116zM322 -32h-104q-32 0 -55 4q-16 -16 -16 -44q0 -68 125 -68q60 0 96.5 17.5t36.5 51.5q0 21 -18 30t-65 9zM195 663q0 33 21.5 52.5t57.5 19.5t58.5 -19.5
t22.5 -52.5t-22.5 -53t-58.5 -20t-57.5 20t-21.5 53z" />
    <glyph glyph-name="Gcommaaccent" unicode="&#x122;" horiz-adv-x="670" 
d="M466 107v171h-117v104h266v-314q-29 -31 -98 -57t-169 -26q-159 0 -234 97.5t-75 268.5q0 168 77 266t235 98q125 0 189 -54t73 -142q-37 -20 -124 -20q-22 0 -31 1q-7 58 -31 88.5t-78 30.5q-70 0 -100 -64t-30 -204q0 -147 32.5 -208.5t114.5 -61.5q67 0 100 26z
M292 -230q50 28 55 61q-31 1 -48 17.5t-17 43.5q0 29 20.5 47t50.5 18q36 0 56.5 -19.5t20.5 -54.5q0 -56 -30 -90t-64 -42q-34 2 -44 19z" />
    <glyph glyph-name="gcommaaccent" unicode="&#x123;" horiz-adv-x="563" 
d="M245 94h83q115 0 164 -32t49 -98q0 -82 -69 -130.5t-214 -48.5q-118 0 -177 33t-59 91q0 61 76 83q-59 30 -59 88q0 67 83 107q-78 50 -78 155q0 91 60.5 141.5t165.5 50.5q56 0 101 -14h175v-89h-99q49 -34 49 -103q0 -82 -61.5 -130.5t-164.5 -48.5q-48 0 -90 11
q-15 -13 -15 -32q0 -34 80 -34zM270 225q73 0 73 117q0 116 -73 116q-38 0 -55.5 -28t-17.5 -89q0 -116 73 -116zM322 -32h-104q-32 0 -55 4q-16 -16 -16 -44q0 -68 125 -68q60 0 96.5 17.5t36.5 51.5q0 21 -18 30t-65 9zM293 792q37 -2 45 -19q-48 -27 -55 -68
q65 -10 65 -62q0 -30 -19 -48t-52 -18q-35 0 -56 20.5t-21 55.5q0 57 30 94.5t63 44.5z" />
    <glyph glyph-name="Hcircumflex" unicode="&#x124;" horiz-adv-x="697" 
d="M66 0v700h165v-278h235v278h165v-700h-165v317h-235v-317h-165zM189 752l84 128q19 7 78 7q57 0 81 -7l83 -128q-8 -5 -43 -5q-31 0 -46 5l-73 72h-2l-72 -72q-15 -5 -47 -5q-35 0 -43 5z" />
    <glyph glyph-name="hcircumflex" unicode="&#x125;" horiz-adv-x="570" 
d="M55 0v704q87 0 155 8v-243q54 65 149 65q155 0 155 -196v-216q0 -105 9 -122h-164v323q0 53 -15.5 79.5t-57.5 26.5q-44 0 -76 -28v-401h-155zM149 752l84 128q19 7 78 7q57 0 81 -7l83 -128q-8 -5 -43 -5q-31 0 -46 5l-73 72h-2l-72 -72q-15 -5 -47 -5q-35 0 -43 5z" />
    <glyph glyph-name="Hbar" unicode="&#x126;" horiz-adv-x="697" 
d="M66 0v517h-43v95h43v88h165v-88h235v88h165v-88h44v-95h-44v-517h-165v317h-235v-317h-165zM231 422h235v95h-235v-95z" />
    <glyph glyph-name="hbar" unicode="&#x127;" horiz-adv-x="570" 
d="M55 0v583h-51v65h51v56q87 0 155 8v-64h138v-65h-138v-114q54 65 149 65q155 0 155 -196v-216q0 -105 9 -122h-164v323q0 53 -15.5 79.5t-57.5 26.5q-44 0 -76 -28v-401h-155z" />
    <glyph glyph-name="Itilde" unicode="&#x128;" horiz-adv-x="297" 
d="M66 0v700h165v-700h-165zM-32 748q29 131 122 131q32 0 70.5 -26t58.5 -26q18 0 29 11.5t21 37.5q6 2 28 2q28 0 34 -2q-17 -71 -45.5 -101t-68.5 -30q-36 0 -75 26t-59 26q-33 0 -53 -49q-4 -3 -29 -3q-29 0 -33 3z" />
    <glyph glyph-name="itilde" unicode="&#x129;" horiz-adv-x="266" 
d="M55 0v520q88 0 155 8v-406q0 -103 10 -122h-165zM-49 590q27 131 119 131q34 0 73 -26t59 -26q31 0 50 49q6 2 31 2q24 0 30 -2q-16 -71 -43.5 -100.5t-66.5 -29.5q-38 0 -78 25.5t-59 25.5q-32 0 -54 -49q-6 -2 -27 -2q-28 0 -34 2z" />
    <glyph glyph-name="Imacron" unicode="&#x12a;" horiz-adv-x="297" 
d="M66 0v700h165v-700h-165zM-8 765v95h313v-95h-313z" />
    <glyph glyph-name="imacron" unicode="&#x12b;" horiz-adv-x="266" 
d="M55 0v520q88 0 155 8v-406q0 -103 10 -122h-165zM-25 609v95h313v-95h-313z" />
    <glyph glyph-name="Ibreve" unicode="&#x12c;" horiz-adv-x="297" 
d="M66 0v700h165v-700h-165zM-1 878q8 5 39 5q24 0 36 -4q11 -58 76 -58q62 0 73 58q11 4 36 4q31 0 39 -5q-4 -56 -39 -97t-109 -41t-110.5 41.5t-40.5 96.5z" />
    <glyph glyph-name="ibreve" unicode="&#x12d;" horiz-adv-x="266" 
d="M55 0v520q88 0 155 8v-406q0 -103 10 -122h-165zM-17 723q8 5 39 5q24 0 36 -4q13 -67 76 -67q61 0 73 67q11 4 36 4q31 0 39 -5q-2 -26 -9 -49.5t-22.5 -47t-45.5 -37.5t-71 -14q-78 0 -112.5 44.5t-38.5 103.5z" />
    <glyph glyph-name="Iogonek" unicode="&#x12e;" horiz-adv-x="297" 
d="M66 0v700h165v-700q-110 -51 -110 -113q0 -37 47 -37q24 0 44 11l23 -50q-13 -12 -44.5 -23.5t-73.5 -11.5q-113 0 -113 87q0 88 115 137h-53z" />
    <glyph glyph-name="iogonek" unicode="&#x12f;" horiz-adv-x="266" 
d="M55 0v520q88 0 155 8v-406q0 -103 10 -122q-110 -51 -110 -113q0 -37 47 -37q25 0 43 11l23 -50q-12 -12 -43.5 -23.5t-73.5 -11.5q-113 0 -113 87q0 88 115 137h-53zM50 656q0 35 22 55t60 20q39 0 62 -20.5t23 -54.5q0 -35 -23 -56t-62 -21q-38 0 -60 21t-22 56z" />
    <glyph glyph-name="Idotaccent" unicode="&#x130;" horiz-adv-x="297" 
d="M66 0v700h165v-700h-165zM75 818q0 30 20 47.5t53 17.5t53.5 -17.5t20.5 -47.5t-20.5 -47.5t-53.5 -17.5t-53 17.5t-20 47.5z" />
    <glyph glyph-name="dotlessi" unicode="&#x131;" horiz-adv-x="266" 
d="M55 0v520q88 0 155 8v-406q0 -103 10 -122h-165z" />
    <glyph glyph-name="IJ" unicode="&#x132;" horiz-adv-x="724" 
d="M66 0v700h165v-700h-165zM497 182v518h165v-525q0 -104 -57 -146t-178 -42q-85 0 -115 12q-4 12 -4 44q0 41 5 54q30 -12 87 -12q55 0 76 21t21 76z" />
    <glyph glyph-name="ij" unicode="&#x133;" horiz-adv-x="524" 
d="M50 656q0 35 22 55t60 20q39 0 62 -20.5t23 -54.5q0 -35 -23 -56t-62 -21q-38 0 -60 21t-22 56zM55 0v520q88 0 155 8v-406q0 -103 10 -122h-165zM313 -42v562q90 0 155 8v-560q0 -94 -44.5 -131.5t-138.5 -37.5q-46 0 -72 7q-3 12 -3 38q0 34 4 49q14 -6 44 -6
q34 0 44.5 15.5t10.5 55.5zM308 656q0 35 22 55t60 20q39 0 62 -20.5t23 -54.5q0 -35 -23 -56t-62 -21q-38 0 -60 21t-22 56z" />
    <glyph glyph-name="Jcircumflex" unicode="&#x134;" horiz-adv-x="435" 
d="M208 182v518h165v-525q0 -104 -57 -146t-178 -42q-85 0 -115 12q-4 12 -4 44q0 41 5 54q30 -12 87 -12q55 0 76 21t21 76zM124 752l84 128q19 7 78 7q56 0 81 -7l83 -128q-8 -5 -43 -5q-31 0 -46 5l-73 72h-2l-72 -72q-15 -5 -47 -5q-35 0 -43 5z" />
    <glyph glyph-name="jcircumflex" unicode="&#x135;" horiz-adv-x="266" 
d="M55 -42v562q90 0 155 8v-560q0 -94 -44.5 -131.5t-138.5 -37.5q-46 0 -72 7q-3 12 -3 38q0 34 4 49q13 -6 44 -6q34 0 44.5 15.5t10.5 55.5zM-26 582l80 146q18 6 78 6q62 0 81 -6l80 -146q-8 -5 -46 -5q-29 0 -44 5l-68 91h-2l-69 -91q-15 -5 -44 -5q-38 0 -46 5z" />
    <glyph glyph-name="Kcommaaccent" unicode="&#x136;" horiz-adv-x="633" 
d="M66 0v700h165v-300h3l228 300h157v-9l-245 -303l248 -379v-9h-184l-204 323h-3v-323h-165zM262 -230q50 28 55 61q-31 1 -48 17.5t-17 43.5q0 29 20.5 47t50.5 18q36 0 56.5 -19.5t20.5 -54.5q0 -56 -30 -90t-64 -42q-34 2 -44 19z" />
    <glyph glyph-name="kcommaaccent" unicode="&#x137;" horiz-adv-x="537" 
d="M55 0v704q87 0 155 8v-395h4l156 203h151v-9l-177 -208l182 -294v-9h-171l-141 242h-4v-242h-155zM207 -230q50 28 55 61q-31 1 -48 17.5t-17 43.5q0 29 20.5 47t50.5 18q36 0 56.5 -19.5t20.5 -54.5q0 -56 -30 -90t-64 -42q-34 2 -44 19z" />
    <glyph glyph-name="kgreenlandic" unicode="&#x138;" horiz-adv-x="537" 
d="M55 0v520q90 0 155 8v-226h4l160 218h151v-9l-181 -223l181 -279v-9h-173l-138 227h-4v-227h-155z" />
    <glyph glyph-name="Lacute" unicode="&#x139;" horiz-adv-x="509" 
d="M66 0v700h165v-595h255v-105h-420zM83 751l58 129q16 6 73 6q72 0 88 -6l-115 -129q-15 -5 -53 -5q-43 0 -51 5z" />
    <glyph glyph-name="lacute" unicode="&#x13a;" horiz-adv-x="266" 
d="M55 0v704q88 0 155 8v-590q0 -103 10 -122h-165zM67 751l58 129q17 6 73 6q72 0 88 -6l-115 -129q-15 -5 -53 -5q-43 0 -51 5z" />
    <glyph glyph-name="Lcommaaccent" unicode="&#x13b;" horiz-adv-x="509" 
d="M66 0v700h165v-595h255v-105h-420zM212 -230q50 28 55 61q-31 1 -48 17.5t-17 43.5q0 29 20.5 47t50.5 18q36 0 56.5 -19.5t20.5 -54.5q0 -56 -30 -90t-64 -42q-34 2 -44 19z" />
    <glyph glyph-name="lcommaaccent" unicode="&#x13c;" horiz-adv-x="266" 
d="M55 0v704q88 0 155 8v-590q0 -103 10 -122h-165zM71 -230q50 28 55 61q-31 1 -48 17.5t-17 43.5q0 29 20.5 47t50.5 18q36 0 56.5 -19.5t20.5 -54.5q0 -56 -30 -90t-64 -42q-34 2 -44 19z" />
    <glyph glyph-name="Lcaron" unicode="&#x13d;" horiz-adv-x="509" 
d="M66 0v700h165v-595h255v-105h-420zM300 489q21 14 38 38.5t21 47.5q-28 4 -44.5 22t-16.5 47q0 34 18 52.5t50 18.5q75 0 75 -83q0 -65 -30 -111t-65 -62q-16 1 -30 11.5t-16 18.5z" />
    <glyph glyph-name="lcaron" unicode="&#x13e;" horiz-adv-x="425" 
d="M55 0v704q88 0 155 8v-590q0 -103 10 -122h-165zM273 489q21 14 38 38.5t21 47.5q-28 4 -44.5 22t-16.5 47q0 34 18 52.5t50 18.5q75 0 75 -83q0 -65 -30 -111t-65 -62q-16 1 -30 11.5t-16 18.5z" />
    <glyph glyph-name="Ldot" unicode="&#x13f;" horiz-adv-x="509" 
d="M66 0v700h165v-595h255v-105h-420zM305 390q0 33 21.5 52.5t57.5 19.5t58.5 -19.5t22.5 -52.5t-22.5 -53t-58.5 -20t-57.5 20t-21.5 53z" />
    <glyph glyph-name="ldot" unicode="&#x140;" horiz-adv-x="447" 
d="M55 0v704q88 0 155 8v-590q0 -103 10 -122h-165zM272 385q0 33 21.5 52.5t57.5 19.5t58.5 -19.5t22.5 -52.5t-22.5 -53t-58.5 -20t-57.5 20t-21.5 53z" />
    <glyph glyph-name="Lslash" unicode="&#x141;" horiz-adv-x="549" 
d="M106 0v212l-71 -38v109l71 38v379h164v-300l144 77v-108l-144 -78v-186h256v-105h-420z" />
    <glyph glyph-name="lslash" unicode="&#x142;" horiz-adv-x="388" 
d="M116 0v298l-90 -49v111l90 50v294q82 0 155 8v-242l91 50v-111l-91 -50v-237q0 -102 9 -122h-164z" />
    <glyph glyph-name="Nacute" unicode="&#x143;" horiz-adv-x="727" 
d="M66 0v700h204l139 -262q88 -165 117 -250h4q-5 107 -5 256v256h135v-700h-191l-171 321q-74 138 -97 215h-5q6 -76 6 -276v-260h-136zM321 751l58 129q16 6 73 6q72 0 88 -6l-115 -129q-15 -5 -53 -5q-43 0 -51 5z" />
    <glyph glyph-name="nacute" unicode="&#x144;" horiz-adv-x="567" 
d="M55 0v520q82 0 147 8v-70q52 76 154 76q158 0 158 -196v-216q0 -105 9 -122h-164v323q0 53 -15.5 79.5t-57.5 26.5q-44 0 -76 -28v-401h-155zM224 582l59 146q16 6 72 6q71 0 88 -6l-117 -146q-15 -5 -49 -5q-45 0 -53 5z" />
    <glyph glyph-name="Ncommaaccent" unicode="&#x145;" horiz-adv-x="727" 
d="M66 0v700h204l139 -262q88 -165 117 -250h4q-5 107 -5 256v256h135v-700h-191l-171 321q-74 138 -97 215h-5q6 -76 6 -276v-260h-136zM321 -230q50 28 55 61q-31 1 -48 17.5t-17 43.5q0 29 20.5 47t50.5 18q36 0 56.5 -19.5t20.5 -54.5q0 -56 -30 -90t-64 -42
q-34 2 -44 19z" />
    <glyph glyph-name="ncommaaccent" unicode="&#x146;" horiz-adv-x="567" 
d="M55 0v520q82 0 147 8v-70q52 76 154 76q158 0 158 -196v-216q0 -105 9 -122h-164v323q0 53 -15.5 79.5t-57.5 26.5q-44 0 -76 -28v-401h-155zM222 -230q50 28 55 61q-31 1 -48 17.5t-17 43.5q0 29 20.5 47t50.5 18q36 0 56.5 -19.5t20.5 -54.5q0 -56 -30 -90t-64 -42
q-34 2 -44 19z" />
    <glyph glyph-name="Ncaron" unicode="&#x147;" horiz-adv-x="727" 
d="M66 0v700h204l139 -262q88 -165 117 -250h4q-5 107 -5 256v256h135v-700h-191l-171 321q-74 138 -97 215h-5q6 -76 6 -276v-260h-136zM299 752l-84 128q8 5 43 5q32 0 47 -5l72 -72h2l73 72q15 5 46 5q35 0 43 -5l-83 -128q-24 -7 -81 -7q-59 0 -78 7z" />
    <glyph glyph-name="ncaron" unicode="&#x148;" horiz-adv-x="567" 
d="M55 0v520q82 0 147 8v-70q52 76 154 76q158 0 158 -196v-216q0 -105 9 -122h-164v323q0 53 -15.5 79.5t-57.5 26.5q-44 0 -76 -28v-401h-155zM205 581l-80 146q7 4 46 4q32 0 44 -4l69 -91h2l68 91q12 4 44 4q39 0 46 -4l-80 -146q-16 -6 -78 -6t-81 6z" />
    <glyph glyph-name="napostrophe" unicode="&#x149;" horiz-adv-x="567" 
d="M55 0v520q82 0 147 8v-70q52 76 154 76q158 0 158 -196v-216q0 -105 9 -122h-164v323q0 53 -15.5 79.5t-57.5 26.5q-44 0 -76 -28v-401h-155zM26 580q50 28 55 61q-31 1 -48 17.5t-17 43.5q0 29 20.5 47t50.5 18q36 0 56.5 -19.5t20.5 -54.5q0 -56 -30 -90t-64 -42
q-34 2 -44 19z" />
    <glyph glyph-name="Eng" unicode="&#x14a;" horiz-adv-x="727" 
d="M66 0v700h204l139 -262q88 -165 117 -250h4q-5 107 -5 256v256h135v-732q0 -94 -44.5 -131.5t-138.5 -37.5q-46 0 -72 7q-3 12 -3 38q0 34 4 49q14 -6 44 -6q75 0 75 71v42h-56l-171 321q-74 138 -97 215h-5q6 -76 6 -276v-260h-136z" />
    <glyph glyph-name="eng" unicode="&#x14b;" horiz-adv-x="570" 
d="M55 0v520q71 0 147 8v-71q21 32 61 54.5t93 22.5q158 0 158 -196v-370q0 -94 -44.5 -131.5t-138.5 -37.5q-49 0 -72 7q-4 11 -4 36q0 33 5 50q18 -6 43 -6q34 0 45 17.5t11 59.5v360q0 53 -15.5 79.5t-57.5 26.5q-45 0 -76 -29v-400h-155z" />
    <glyph glyph-name="Omacron" unicode="&#x14c;" horiz-adv-x="699" 
d="M349 -15q-157 0 -233.5 97.5t-76.5 268.5q0 170 77.5 267t232.5 97t232.5 -97t77.5 -267q0 -171 -76.5 -268.5t-233.5 -97.5zM349 81q70 0 100 64.5t30 205.5q0 140 -30 204t-100 64t-100 -64t-30 -204q0 -141 30 -205.5t100 -64.5zM192 765v95h313v-95h-313z" />
    <glyph glyph-name="omacron" unicode="&#x14d;" horiz-adv-x="576" 
d="M288 -14q-128 0 -192 73.5t-64 200.5t64 200.5t192 73.5t192 -73.5t64 -200.5t-64 -200.5t-192 -73.5zM288 71q50 0 69.5 44t19.5 145q0 102 -19.5 145.5t-69.5 43.5t-69.5 -43.5t-19.5 -145.5t19.5 -145.5t69.5 -43.5zM131 609v95h313v-95h-313z" />
    <glyph glyph-name="Obreve" unicode="&#x14e;" horiz-adv-x="699" 
d="M349 -15q-157 0 -233.5 97.5t-76.5 268.5q0 170 77.5 267t232.5 97t232.5 -97t77.5 -267q0 -171 -76.5 -268.5t-233.5 -97.5zM349 81q70 0 100 64.5t30 205.5q0 140 -30 204t-100 64t-100 -64t-30 -204q0 -141 30 -205.5t100 -64.5zM199 878q8 5 39 5q24 0 36 -4
q11 -58 76 -58q62 0 73 58q11 4 36 4q31 0 39 -5q-4 -56 -39 -97t-109 -41t-110.5 41.5t-40.5 96.5z" />
    <glyph glyph-name="obreve" unicode="&#x14f;" horiz-adv-x="576" 
d="M288 -14q-128 0 -192 73.5t-64 200.5t64 200.5t192 73.5t192 -73.5t64 -200.5t-64 -200.5t-192 -73.5zM288 71q50 0 69.5 44t19.5 145q0 102 -19.5 145.5t-69.5 43.5t-69.5 -43.5t-19.5 -145.5t19.5 -145.5t69.5 -43.5zM138 723q8 5 39 5q24 0 36 -4q13 -67 76 -67
q61 0 73 67q11 4 36 4q31 0 39 -5q-2 -26 -9 -49.5t-22.5 -47t-45.5 -37.5t-71 -14q-78 0 -112.5 44.5t-38.5 103.5z" />
    <glyph glyph-name="Ohungarumlaut" unicode="&#x150;" horiz-adv-x="699" 
d="M349 -15q-157 0 -233.5 97.5t-76.5 268.5q0 170 77.5 267t232.5 97t232.5 -97t77.5 -267q0 -171 -76.5 -268.5t-233.5 -97.5zM349 81q70 0 100 64.5t30 205.5q0 140 -30 204t-100 64t-100 -64t-30 -204q0 -141 30 -205.5t100 -64.5zM206 751l39 129q17 6 61 6q58 0 73 -6
l-75 -129q-15 -5 -50 -5q-40 0 -48 5zM381 751l59 129q15 6 65 6q63 0 78 -6l-99 -129q-15 -5 -53 -5q-42 0 -50 5z" />
    <glyph glyph-name="ohungarumlaut" unicode="&#x151;" horiz-adv-x="576" 
d="M288 -14q-128 0 -192 73.5t-64 200.5t64 200.5t192 73.5t192 -73.5t64 -200.5t-64 -200.5t-192 -73.5zM288 71q50 0 69.5 44t19.5 145q0 102 -19.5 145.5t-69.5 43.5t-69.5 -43.5t-19.5 -145.5t19.5 -145.5t69.5 -43.5zM147 582l43 146q17 6 61 6q58 0 73 -6l-79 -146
q-15 -5 -48 -5q-42 0 -50 5zM314 582l63 146q17 6 65 6q62 0 79 -6l-104 -146q-15 -5 -50 -5q-45 0 -53 5z" />
    <glyph glyph-name="OE" unicode="&#x152;" horiz-adv-x="888" 
d="M576 104h277v-104h-389q-49 -15 -115 -15q-153 0 -229.5 98.5t-76.5 267.5t76.5 266.5t229.5 97.5q65 0 114 -15h376v-104h-263v-185h237q4 -15 4 -50q0 -31 -4 -55h-237v-202zM412 89v522q-23 8 -56 8q-69 0 -101.5 -65.5t-32.5 -202.5q0 -138 32.5 -204t101.5 -66
q33 0 56 8z" />
    <glyph glyph-name="oe" unicode="&#x153;" horiz-adv-x="891" 
d="M708 153h7q93 0 135 -19q-41 -148 -219 -148q-109 0 -171 56q-64 -56 -172 -56q-128 0 -192 73.5t-64 200.5q0 126 64.5 200t191.5 74q107 0 171 -56q62 56 166 56q119 0 177 -68.5t58 -179.5q0 -31 -3 -53h-314q3 -86 24 -124.5t65 -38.5q61 0 76 83zM288 71q49 0 69 44
t20 145t-20 145t-69 44t-69 -44t-20 -145t20 -145t69 -44zM544 311h160q0 73 -17 107t-60 34q-40 0 -59.5 -33t-23.5 -108z" />
    <glyph glyph-name="Racute" unicode="&#x154;" horiz-adv-x="617" 
d="M66 0v700h219q145 0 214 -52.5t69 -157.5q0 -139 -126 -195l148 -286v-9h-174l-123 263h-62v-263h-165zM231 358h35q68 0 101.5 27t33.5 99t-33 98t-102 26h-35v-250zM241 751l58 129q17 6 73 6q72 0 88 -6l-115 -129q-15 -5 -53 -5q-43 0 -51 5z" />
    <glyph glyph-name="racute" unicode="&#x155;" horiz-adv-x="388" 
d="M55 0v520q80 0 147 8v-103h3q6 15 9.5 23t15 26.5t24 29t33.5 20t46 9.5q26 0 32 -3q4 -15 4 -63q0 -61 -5 -81q-18 4 -44 4q-45 0 -73 -11.5t-37 -22.5v-236q0 -100 10 -120h-165zM145 582l59 146q17 6 72 6q72 0 88 -6l-117 -146q-15 -5 -49 -5q-45 0 -53 5z" />
    <glyph glyph-name="Rcommaaccent" unicode="&#x156;" horiz-adv-x="617" 
d="M66 0v700h219q145 0 214 -52.5t69 -157.5q0 -139 -126 -195l148 -286v-9h-174l-123 263h-62v-263h-165zM231 358h35q68 0 101.5 27t33.5 99t-33 98t-102 26h-35v-250zM249 -230q50 28 55 61q-31 1 -48 17.5t-17 43.5q0 29 20.5 47t50.5 18q36 0 56.5 -19.5t20.5 -54.5
q0 -56 -30 -90t-64 -42q-34 2 -44 19z" />
    <glyph glyph-name="rcommaaccent" unicode="&#x157;" horiz-adv-x="388" 
d="M55 0v520q80 0 147 8v-103h3q6 15 9.5 23t15 26.5t24 29t33.5 20t46 9.5q26 0 32 -3q4 -15 4 -63q0 -61 -5 -81q-18 4 -44 4q-45 0 -73 -11.5t-37 -22.5v-236q0 -100 10 -120h-165zM68 -230q50 28 55 61q-31 1 -48 17.5t-17 43.5q0 29 20.5 47t50.5 18q36 0 56.5 -19.5
t20.5 -54.5q0 -56 -30 -90t-64 -42q-34 2 -44 19z" />
    <glyph glyph-name="Rcaron" unicode="&#x158;" horiz-adv-x="617" 
d="M66 0v700h219q145 0 214 -52.5t69 -157.5q0 -139 -126 -195l148 -286v-9h-174l-123 263h-62v-263h-165zM231 358h35q68 0 101.5 27t33.5 99t-33 98t-102 26h-35v-250zM223 752l-84 128q8 5 43 5q32 0 47 -5l72 -72h2l73 72q15 5 46 5q35 0 43 -5l-83 -128q-25 -7 -81 -7
q-59 0 -78 7z" />
    <glyph glyph-name="rcaron" unicode="&#x159;" horiz-adv-x="388" 
d="M55 0v520q80 0 147 8v-103h3q6 15 9.5 23t15 26.5t24 29t33.5 20t46 9.5q26 0 32 -3q4 -15 4 -63q0 -61 -5 -81q-18 4 -44 4q-45 0 -73 -11.5t-37 -22.5v-236q0 -100 10 -120h-165zM136 581l-80 146q7 4 46 4q32 0 44 -4l69 -91h2l68 91q12 4 44 4q39 0 46 -4l-80 -146
q-17 -6 -78 -6t-81 6z" />
    <glyph glyph-name="Sacute" unicode="&#x15a;" horiz-adv-x="587" 
d="M163 192h14q19 -111 119 -111q46 0 71.5 24.5t25.5 70.5q0 16 -4 30t-16 25.5t-19.5 19t-29 17t-30 13t-36.5 13t-35 12.5q-39 14 -64.5 27.5t-53 36t-41.5 55.5t-14 77q0 96 66.5 154.5t185.5 58.5t177 -50t68 -122q-42 -25 -138 -25h-9q-3 18 -7 30t-15 31.5
t-32.5 29.5t-51.5 10q-43 0 -67 -23.5t-24 -67.5q0 -11 2.5 -21t9 -18t12.5 -15t17.5 -13.5t19.5 -11t24 -10.5t25 -9.5t27.5 -10t27.5 -9.5q41 -15 67 -28.5t55.5 -37t44 -58.5t14.5 -81q0 -97 -67.5 -158.5t-196.5 -61.5q-118 0 -180 50t-78 130q17 11 59 19t77 8z
M240 751l58 129q16 6 73 6q71 0 88 -6l-115 -129q-15 -5 -53 -5q-43 0 -51 5z" />
    <glyph glyph-name="sacute" unicode="&#x15b;" horiz-adv-x="491" 
d="M144 147h10q18 -79 93 -79q33 0 51.5 17.5t18.5 46.5q0 11 -3 20t-11.5 16.5t-15 12t-21.5 10t-22.5 8t-28 8t-27.5 7.5q-34 9 -55.5 18t-46 25.5t-36.5 43t-12 63.5q0 75 54 122.5t157 47.5q59 0 102 -14.5t64.5 -37.5t31 -43.5t11.5 -41.5q-38 -19 -114 -19h-15
q-12 74 -83 74q-32 0 -51 -16.5t-19 -44.5q0 -8 2 -15.5t7 -13.5t9.5 -10.5t13.5 -9t15 -7t18 -6t19.5 -5.5t21.5 -5.5t21 -5.5q35 -9 58 -18t48 -25.5t37.5 -43.5t12.5 -64q0 -80 -55.5 -128t-162.5 -48q-101 0 -154 39.5t-61 100.5q42 21 118 21zM190 582l59 146
q16 6 72 6q71 0 88 -6l-117 -146q-15 -5 -49 -5q-45 0 -53 5z" />
    <glyph glyph-name="Scircumflex" unicode="&#x15c;" horiz-adv-x="587" 
d="M163 192h14q19 -111 119 -111q46 0 71.5 24.5t25.5 70.5q0 16 -4 30t-16 25.5t-19.5 19t-29 17t-30 13t-36.5 13t-35 12.5q-39 14 -64.5 27.5t-53 36t-41.5 55.5t-14 77q0 96 66.5 154.5t185.5 58.5t177 -50t68 -122q-42 -25 -138 -25h-9q-3 18 -7 30t-15 31.5
t-32.5 29.5t-51.5 10q-43 0 -67 -23.5t-24 -67.5q0 -11 2.5 -21t9 -18t12.5 -15t17.5 -13.5t19.5 -11t24 -10.5t25 -9.5t27.5 -10t27.5 -9.5q41 -15 67 -28.5t55.5 -37t44 -58.5t14.5 -81q0 -97 -67.5 -158.5t-196.5 -61.5q-118 0 -180 50t-78 130q17 11 59 19t77 8z
M142 752l84 128q19 7 78 7q56 0 81 -7l83 -128q-8 -5 -43 -5q-31 0 -46 5l-73 72h-2l-72 -72q-15 -5 -47 -5q-35 0 -43 5z" />
    <glyph glyph-name="scircumflex" unicode="&#x15d;" horiz-adv-x="491" 
d="M144 147h10q18 -79 93 -79q33 0 51.5 17.5t18.5 46.5q0 11 -3 20t-11.5 16.5t-15 12t-21.5 10t-22.5 8t-28 8t-27.5 7.5q-34 9 -55.5 18t-46 25.5t-36.5 43t-12 63.5q0 75 54 122.5t157 47.5q59 0 102 -14.5t64.5 -37.5t31 -43.5t11.5 -41.5q-38 -19 -114 -19h-15
q-12 74 -83 74q-32 0 -51 -16.5t-19 -44.5q0 -8 2 -15.5t7 -13.5t9.5 -10.5t13.5 -9t15 -7t18 -6t19.5 -5.5t21.5 -5.5t21 -5.5q35 -9 58 -18t48 -25.5t37.5 -43.5t12.5 -64q0 -80 -55.5 -128t-162.5 -48q-101 0 -154 39.5t-61 100.5q42 21 118 21zM95 582l80 146q18 6 78 6
q61 0 81 -6l80 -146q-8 -5 -46 -5q-29 0 -44 5l-68 91h-2l-69 -91q-15 -5 -44 -5q-38 0 -46 5z" />
    <glyph glyph-name="Scedilla" unicode="&#x15e;" horiz-adv-x="587" 
d="M197 -202l13 43q25 -16 57 -16q43 0 43 36q0 16 -13 27t-28 14.5t-40 7.5l22 77q-101 7 -155.5 55.5t-68.5 122.5q17 11 59 19t77 8h14q19 -111 119 -111q46 0 71.5 24.5t25.5 70.5q0 16 -4 30t-16 25.5t-19.5 19t-29 17t-30 13t-36.5 13t-35 12.5q-39 14 -64.5 27.5
t-53 36t-41.5 55.5t-14 77q0 96 66.5 154.5t185.5 58.5t177 -51t68 -121q-42 -25 -138 -25h-9q-3 18 -7 30t-15 31.5t-32.5 29.5t-51.5 10q-43 0 -67 -23.5t-24 -67.5q0 -11 2.5 -21t9 -18t12.5 -15t17.5 -13.5t19.5 -11t24 -10.5t25 -9.5t27.5 -10t27.5 -9.5
q41 -15 67 -28.5t55.5 -37t44 -58.5t14.5 -81q0 -91 -59.5 -151t-174.5 -68l-12 -39q27 -5 45 -11.5t35.5 -26t17.5 -48.5q0 -43 -30.5 -65.5t-78.5 -22.5q-63 0 -95 25z" />
    <glyph glyph-name="scedilla" unicode="&#x15f;" horiz-adv-x="491" 
d="M154 -202l13 43q25 -16 57 -16q43 0 43 36q0 16 -13 27t-28 14.5t-40 7.5l23 77q-85 7 -130.5 45t-52.5 94q42 21 118 21h10q18 -79 93 -79q33 0 51.5 17.5t18.5 46.5q0 11 -3 20t-11.5 16.5t-15 12t-21.5 10t-22.5 8t-28 8t-27.5 7.5q-34 9 -55.5 18t-46 25.5t-36.5 43
t-12 63.5q0 75 54 122.5t157 47.5q59 0 102 -14.5t64.5 -37.5t31 -43.5t11.5 -41.5q-38 -19 -114 -19h-15q-12 74 -83 74q-32 0 -51 -16.5t-19 -44.5q0 -8 2 -15.5t7 -13.5t9.5 -10.5t13.5 -9t15 -7t18 -6t19.5 -5.5t21.5 -5.5t21 -5.5q35 -9 58 -18t48 -25.5t37.5 -43.5
t12.5 -64q0 -74 -47.5 -121t-139.5 -54l-12 -40q27 -5 45 -11.5t35.5 -26t17.5 -48.5q0 -43 -30.5 -65.5t-78.5 -22.5q-63 0 -95 25z" />
    <glyph glyph-name="Scaron" unicode="&#x160;" horiz-adv-x="587" 
d="M163 192h14q19 -111 119 -111q46 0 71.5 24.5t25.5 70.5q0 16 -4 30t-16 25.5t-19.5 19t-29 17t-30 13t-36.5 13t-35 12.5q-39 14 -64.5 27.5t-53 36t-41.5 55.5t-14 77q0 96 66.5 154.5t185.5 58.5t177 -50t68 -122q-42 -25 -138 -25h-9q-3 18 -7 30t-15 31.5
t-32.5 29.5t-51.5 10q-43 0 -67 -23.5t-24 -67.5q0 -11 2.5 -21t9 -18t12.5 -15t17.5 -13.5t19.5 -11t24 -10.5t25 -9.5t27.5 -10t27.5 -9.5q41 -15 67 -28.5t55.5 -37t44 -58.5t14.5 -81q0 -97 -67.5 -158.5t-196.5 -61.5q-118 0 -180 50t-78 130q17 11 59 19t77 8z
M226 752l-84 128q8 5 43 5q32 0 47 -5l72 -72h2l73 72q15 5 46 5q35 0 43 -5l-83 -128q-25 -7 -81 -7q-59 0 -78 7z" />
    <glyph glyph-name="scaron" unicode="&#x161;" horiz-adv-x="491" 
d="M144 147h10q18 -79 93 -79q33 0 51.5 17.5t18.5 46.5q0 11 -3 20t-11.5 16.5t-15 12t-21.5 10t-22.5 8t-28 8t-27.5 7.5q-34 9 -55.5 18t-46 25.5t-36.5 43t-12 63.5q0 75 54 122.5t157 47.5q59 0 102 -14.5t64.5 -37.5t31 -43.5t11.5 -41.5q-38 -19 -114 -19h-15
q-12 74 -83 74q-32 0 -51 -16.5t-19 -44.5q0 -8 2 -15.5t7 -13.5t9.5 -10.5t13.5 -9t15 -7t18 -6t19.5 -5.5t21.5 -5.5t21 -5.5q35 -9 58 -18t48 -25.5t37.5 -43.5t12.5 -64q0 -80 -55.5 -128t-162.5 -48q-101 0 -154 39.5t-61 100.5q42 21 118 21zM173 581l-80 146
q7 4 46 4q32 0 44 -4l69 -91h2l68 91q12 4 44 4q39 0 46 -4l-80 -146q-16 -6 -78 -6t-81 6z" />
    <glyph glyph-name="Tcommaaccent" unicode="&#x162;" horiz-adv-x="531" 
d="M175 -202l13 43q25 -16 57 -16q43 0 43 36q0 16 -13 27t-28 14.5t-40 7.5l27 90h-51v596h-168v104h501v-104h-168v-596h-51l-16 -53q27 -5 45 -11.5t35.5 -26t17.5 -48.5q0 -43 -30.5 -65.5t-78.5 -22.5q-63 0 -95 25z" />
    <glyph glyph-name="tcommaaccent" unicode="&#x163;" horiz-adv-x="370" 
d="M117 -202l13 43q25 -16 57 -16q43 0 43 36q0 16 -13 27t-28 14.5t-40 7.5l26 88q-47 13 -69.5 49.5t-22.5 105.5v278h-63v89h68v130q83 0 150 8v-138h104v-89h-104v-269q0 -44 14 -60.5t54 -16.5q24 0 41 6q4 -9 4 -51q0 -31 -2 -39q-23 -13 -90 -13q-16 0 -23 1l-13 -42
q27 -5 45 -11.5t35.5 -26t17.5 -48.5q0 -43 -30.5 -65.5t-78.5 -22.5q-63 0 -95 25z" />
    <glyph glyph-name="Tcaron" unicode="&#x164;" horiz-adv-x="531" 
d="M183 0v596h-168v104h501v-104h-168v-596h-165zM189 752l-84 128q8 5 43 5q32 0 47 -5l72 -72h2l73 72q15 5 46 5q35 0 43 -5l-83 -128q-24 -7 -81 -7q-59 0 -78 7z" />
    <glyph glyph-name="tcaron" unicode="&#x165;" horiz-adv-x="421" 
d="M83 153v278h-63v89h68v130q83 0 150 8v-138h104v-89h-104v-269q0 -44 14 -60.5t54 -16.5q24 0 41 6q4 -9 4 -51q0 -31 -2 -39q-23 -13 -90 -13q-94 0 -135 35.5t-41 129.5zM288 602q21 14 38 38.5t21 47.5q-28 4 -44.5 22t-16.5 47q0 34 18 52.5t50 18.5q75 0 75 -83
q0 -65 -30 -111t-65 -62q-16 1 -30 11.5t-16 18.5z" />
    <glyph glyph-name="Tbar" unicode="&#x166;" horiz-adv-x="531" 
d="M183 0v327h-103v95h103v174h-168v104h501v-104h-168v-174h125v-95h-125v-327h-165z" />
    <glyph glyph-name="tbar" unicode="&#x167;" horiz-adv-x="370" 
d="M83 153v73h-63v89h63v116h-63v89h68v130q83 0 150 8v-138h104v-89h-104v-116h104v-89h-104v-64q0 -44 14 -60.5t54 -16.5q24 0 41 6q4 -9 4 -51q0 -31 -2 -39q-23 -13 -90 -13q-94 0 -135 35.5t-41 129.5z" />
    <glyph glyph-name="Utilde" unicode="&#x168;" horiz-adv-x="669" 
d="M63 266v434h164v-433q0 -86 30.5 -124t91.5 -38t91 38t30 124v433h136v-434q0 -140 -60.5 -210.5t-209.5 -70.5q-150 0 -211.5 70.5t-61.5 210.5zM163 748q29 131 122 131q32 0 70.5 -26t58.5 -26q18 0 29 11.5t21 37.5q6 2 28 2q28 0 34 -2q-17 -71 -45.5 -101
t-68.5 -30q-36 0 -75 26t-59 26q-33 0 -53 -49q-5 -3 -29 -3q-28 0 -33 3z" />
    <glyph glyph-name="utilde" unicode="&#x169;" horiz-adv-x="560" 
d="M53 174v346q88 0 155 8v-328q0 -56 15 -81.5t56 -25.5q38 0 71 24v403q88 0 155 8v-367q0 -111 14 -144l-134 -29q-21 26 -29 64q-51 -66 -147 -66q-156 0 -156 188zM97 590q27 131 119 131q34 0 73 -26t59 -26q31 0 50 49q6 2 31 2q24 0 30 -2q-16 -71 -43.5 -100.5
t-66.5 -29.5q-38 0 -78 25.5t-59 25.5q-32 0 -54 -49q-6 -2 -27 -2q-28 0 -34 2z" />
    <glyph glyph-name="Umacron" unicode="&#x16a;" horiz-adv-x="669" 
d="M63 266v434h164v-433q0 -86 30.5 -124t91.5 -38t91 38t30 124v433h136v-434q0 -140 -60.5 -210.5t-209.5 -70.5q-150 0 -211.5 70.5t-61.5 210.5zM184 765v95h313v-95h-313z" />
    <glyph glyph-name="umacron" unicode="&#x16b;" horiz-adv-x="560" 
d="M53 174v346q88 0 155 8v-328q0 -56 15 -81.5t56 -25.5q38 0 71 24v403q88 0 155 8v-367q0 -111 14 -144l-134 -29q-21 26 -29 64q-51 -66 -147 -66q-156 0 -156 188zM122 609v95h313v-95h-313z" />
    <glyph glyph-name="Ubreve" unicode="&#x16c;" horiz-adv-x="669" 
d="M63 266v434h164v-433q0 -86 30.5 -124t91.5 -38t91 38t30 124v433h136v-434q0 -140 -60.5 -210.5t-209.5 -70.5q-150 0 -211.5 70.5t-61.5 210.5zM191 878q8 5 39 5q24 0 36 -4q11 -58 76 -58q62 0 73 58q11 4 36 4q31 0 39 -5q-4 -56 -39 -97t-109 -41t-110.5 41.5
t-40.5 96.5z" />
    <glyph glyph-name="ubreve" unicode="&#x16d;" horiz-adv-x="560" 
d="M53 174v346q88 0 155 8v-328q0 -56 15 -81.5t56 -25.5q38 0 71 24v403q88 0 155 8v-367q0 -111 14 -144l-134 -29q-21 26 -29 64q-51 -66 -147 -66q-156 0 -156 188zM129 723q8 5 39 5q24 0 36 -4q13 -67 76 -67q61 0 73 67q11 4 36 4q31 0 39 -5q-2 -26 -9 -49.5
t-22.5 -47t-45.5 -37.5t-71 -14q-78 0 -112.5 44.5t-38.5 103.5z" />
    <glyph glyph-name="Uring" unicode="&#x16e;" horiz-adv-x="669" 
d="M63 266v434h164v-433q0 -86 30.5 -124t91.5 -38t91 38t30 124v433h136v-434q0 -140 -60.5 -210.5t-209.5 -70.5q-150 0 -211.5 70.5t-61.5 210.5zM238 822q0 45 30 73.5t78 28.5t78 -28.5t30 -73.5t-30.5 -73t-77.5 -28t-77.5 28t-30.5 73zM346 770q22 0 33 14.5t11 37.5
q0 24 -11 38.5t-33 14.5t-33 -14.5t-11 -38.5q0 -23 11 -37.5t33 -14.5z" />
    <glyph glyph-name="uring" unicode="&#x16f;" horiz-adv-x="560" 
d="M53 174v346q88 0 155 8v-328q0 -56 15 -81.5t56 -25.5q38 0 71 24v403q88 0 155 8v-367q0 -111 14 -144l-134 -29q-21 26 -29 64q-51 -66 -147 -66q-156 0 -156 188zM172 666q0 45 30 73.5t78 28.5t78 -28.5t30 -73.5t-30.5 -73.5t-77.5 -28.5t-77.5 28.5t-30.5 73.5z
M280 613q22 0 33 14.5t11 38.5t-11 38.5t-33 14.5t-33 -14.5t-11 -38.5t11 -38.5t33 -14.5z" />
    <glyph glyph-name="Uhungarumlaut" unicode="&#x170;" horiz-adv-x="669" 
d="M63 266v434h164v-433q0 -86 30.5 -124t91.5 -38t91 38t30 124v433h136v-434q0 -140 -60.5 -210.5t-209.5 -70.5q-150 0 -211.5 70.5t-61.5 210.5zM193 751l39 129q17 6 61 6q58 0 73 -6l-75 -129q-15 -5 -50 -5q-40 0 -48 5zM368 751l59 129q15 6 65 6q63 0 78 -6
l-99 -129q-15 -5 -53 -5q-42 0 -50 5z" />
    <glyph glyph-name="uhungarumlaut" unicode="&#x171;" horiz-adv-x="560" 
d="M53 174v346q88 0 155 8v-328q0 -56 15 -81.5t56 -25.5q38 0 71 24v403q88 0 155 8v-367q0 -111 14 -144l-134 -29q-21 26 -29 64q-51 -66 -147 -66q-156 0 -156 188zM133 582l43 146q16 6 61 6q58 0 73 -6l-79 -146q-15 -5 -48 -5q-42 0 -50 5zM300 582l63 146q17 6 65 6
q62 0 79 -6l-104 -146q-15 -5 -50 -5q-45 0 -53 5z" />
    <glyph glyph-name="Uogonek" unicode="&#x172;" horiz-adv-x="669" 
d="M63 266v434h164v-433q0 -86 30.5 -124t91.5 -38t91 38t30 124v433h136v-434q0 -182 -101 -244q-94 -71 -94 -132q0 -40 45 -40q27 0 45 11l23 -50q-35 -35 -115 -35q-55 0 -85 23.5t-30 67.5q0 67 70 119q-4 0 -14 -0.5t-14 -0.5q-150 0 -211.5 70.5t-61.5 210.5z" />
    <glyph glyph-name="uogonek" unicode="&#x173;" horiz-adv-x="560" 
d="M53 174v346q88 0 155 8v-328q0 -56 15 -81.5t56 -25.5q40 0 71 24v403q88 0 155 8v-367q0 -109 15 -144q-114 -58 -114 -127q0 -22 11 -31t35 -9t44 11l23 -50q-12 -12 -44 -23.5t-74 -11.5q-113 0 -113 89q0 75 95 127q-19 24 -27 59q-52 -65 -146 -65q-157 0 -157 188z
" />
    <glyph glyph-name="Wcircumflex" unicode="&#x174;" horiz-adv-x="943" 
d="M183 0l-165 691v9h173l62 -311q35 -173 38 -232h5q7 81 43 232l74 311h152l72 -312q37 -158 41 -227h4q7 74 40 227l66 312h137v-9l-167 -691h-173l-58 249q-38 164 -47 250h-4q-16 -100 -52 -249l-61 -250h-180zM321 752l84 128q19 7 78 7q57 0 81 -7l83 -128
q-8 -5 -43 -5q-31 0 -46 5l-73 72h-2l-72 -72q-15 -5 -47 -5q-35 0 -43 5z" />
    <glyph glyph-name="wcircumflex" unicode="&#x175;" horiz-adv-x="742" 
d="M147 0l-124 510v10h160l33 -154q24 -111 30 -199h3q9 81 42 200l40 142h119l38 -143q29 -111 39 -199h2q7 80 33 198l34 155h124v-10l-127 -510h-137l-43 160q-32 122 -36 168h-2q-9 -62 -37 -169l-41 -159h-150zM227 582l80 146q18 6 78 6q61 0 81 -6l80 -146
q-8 -5 -46 -5q-29 0 -44 5l-68 91h-2l-69 -91q-15 -5 -44 -5q-38 0 -46 5z" />
    <glyph glyph-name="Ycircumflex" unicode="&#x176;" horiz-adv-x="612" 
d="M223 0v254l-213 437v9h177l133 -301h5l137 301h140v-9l-215 -439v-252h-164zM151 752l84 128q19 7 78 7q57 0 81 -7l83 -128q-8 -5 -43 -5q-31 0 -46 5l-73 72h-2l-72 -72q-15 -5 -47 -5q-35 0 -43 5z" />
    <glyph glyph-name="ycircumflex" unicode="&#x177;" horiz-adv-x="511" 
d="M200 -5l-184 515v10h163l50 -153q38 -119 46 -179h3q6 46 45 178l47 154h126v-10l-167 -500q-21 -64 -36.5 -98.5t-38.5 -63.5t-54 -39.5t-78 -10.5q-57 0 -73 6q-5 20 -5 62q0 41 5 61q24 -8 63 -8q34 0 51.5 16.5t36.5 59.5zM104 582l80 146q18 6 78 6q62 0 81 -6
l80 -146q-8 -5 -46 -5q-29 0 -44 5l-68 91h-2l-69 -91q-15 -5 -44 -5q-38 0 -46 5z" />
    <glyph glyph-name="Ydieresis" unicode="&#x178;" horiz-adv-x="612" 
d="M223 0v254l-213 437v9h177l133 -301h5l137 301h140v-9l-215 -439v-252h-164zM214 738q-33 0 -52.5 20.5t-19.5 52.5q0 31 19.5 50.5t52.5 19.5q34 0 53.5 -19.5t19.5 -50.5q0 -32 -19.5 -52.5t-53.5 -20.5zM426 738q-33 0 -52.5 20.5t-19.5 52.5q0 31 19.5 50.5
t52.5 19.5q34 0 54 -19.5t20 -50.5q0 -32 -20 -52.5t-54 -20.5z" />
    <glyph glyph-name="Zacute" unicode="&#x179;" horiz-adv-x="602" 
d="M34 0v69l333 527h-319v104h520v-69l-334 -527h333v-104h-533zM254 751l58 129q17 6 73 6q71 0 88 -6l-115 -129q-15 -5 -53 -5q-43 0 -51 5z" />
    <glyph glyph-name="zacute" unicode="&#x17a;" horiz-adv-x="494" 
d="M27 0v57l242 374h-224v89h422v-57l-243 -374h242v-89h-439zM200 582l59 146q17 6 72 6q71 0 88 -6l-117 -146q-15 -5 -49 -5q-45 0 -53 5z" />
    <glyph glyph-name="Zdotaccent" unicode="&#x17b;" horiz-adv-x="602" 
d="M34 0v69l333 527h-319v104h520v-69l-334 -527h333v-104h-533zM243 818q0 30 20 47.5t53 17.5t53.5 -17.5t20.5 -47.5t-20.5 -47.5t-53.5 -17.5t-53 17.5t-20 47.5z" />
    <glyph glyph-name="zdotaccent" unicode="&#x17c;" horiz-adv-x="494" 
d="M27 0v57l242 374h-224v89h422v-57l-243 -374h242v-89h-439zM184 663q0 33 21.5 52.5t57.5 19.5t58.5 -19.5t22.5 -52.5t-22.5 -53t-58.5 -20t-57.5 20t-21.5 53z" />
    <glyph glyph-name="Zcaron" unicode="&#x17d;" horiz-adv-x="602" 
d="M34 0v69l333 527h-319v104h520v-69l-334 -527h333v-104h-533zM245 752l-84 128q8 5 43 5q32 0 47 -5l72 -72h2l73 72q15 5 46 5q35 0 43 -5l-83 -128q-24 -7 -81 -7q-59 0 -78 7z" />
    <glyph glyph-name="zcaron" unicode="&#x17e;" horiz-adv-x="494" 
d="M27 0v57l242 374h-224v89h422v-57l-243 -374h242v-89h-439zM193 581l-80 146q7 4 46 4q32 0 44 -4l69 -91h2l68 91q12 4 44 4q39 0 46 -4l-80 -146q-16 -6 -78 -6t-81 6z" />
    <glyph glyph-name="longs" unicode="&#x17f;" horiz-adv-x="335" 
d="M55 0v512q0 109 49 161.5t148 52.5q60 0 86 -11q2 -14 2 -35q0 -42 -3 -53q-19 7 -50 7q-42 0 -59.5 -26t-17.5 -80v-406q0 -103 10 -122h-165z" />
    <glyph glyph-name="uni018F" unicode="&#x18f;" horiz-adv-x="687" 
d="M45 370h416q-3 130 -34.5 190.5t-99.5 60.5q-29 0 -51 -12t-34.5 -33t-18.5 -36.5t-11 -36.5h-12q-98 0 -142 22q54 189 274 189q158 0 234.5 -98t76.5 -272q0 -168 -79 -263.5t-229 -95.5q-147 0 -219.5 89t-72.5 232q0 26 2 64zM460 283h-245q0 -104 28 -154.5
t92 -50.5q59 0 89.5 49t35.5 156z" />
    <glyph glyph-name="florin" unicode="&#x192;" 
d="M216 -31v373h-93v83h93v85q0 93 47.5 133.5t140.5 40.5q66 0 86 -11q3 -13 3 -42q0 -23 -3 -44q-14 8 -52 8t-52.5 -18.5t-14.5 -64.5v-87h122v-83h-122v-371q0 -93 -47 -133.5t-140 -40.5q-65 0 -87 11q-2 7 -2 35q0 39 3 51q14 -8 52 -8t52 18.5t14 64.5z" />
    <glyph glyph-name="uni01B5" unicode="&#x1b5;" horiz-adv-x="602" 
d="M34 0v69l150 237h-136v104h201l118 186h-319v104h520v-69l-140 -221h139v-104h-205l-128 -202h333v-104h-533z" />
    <glyph glyph-name="uni01B6" unicode="&#x1b6;" horiz-adv-x="494" 
d="M27 0v57l105 162h-87v88h144l80 124h-224v89h422v-57l-102 -156h101v-88h-158l-84 -130h242v-89h-439z" />
    <glyph glyph-name="AEacute" unicode="&#x1fc;" horiz-adv-x="870" 
d="M10 0l1 9l298 691h513v-104h-263v-185h236q5 -18 5 -50q0 -35 -5 -55h-236v-202h276v-104h-441v169h-171l-69 -169h-144zM265 273h129v323h-4q-12 -40 -81 -212zM480 751l58 129q16 6 73 6q71 0 88 -6l-115 -129q-15 -5 -53 -5q-43 0 -51 5z" />
    <glyph glyph-name="aeacute" unicode="&#x1fd;" horiz-adv-x="845" 
d="M332 301v70q0 75 -65 75q-37 0 -57.5 -22.5t-26.5 -52.5q-38 0 -79.5 11t-56.5 24q18 59 77.5 93.5t152.5 34.5q103 0 152 -44q54 44 149 44q119 0 177.5 -68.5t58.5 -179.5q0 -31 -3 -53h-314q3 -86 23.5 -124.5t65.5 -38.5q59 0 77 83q98 0 140 -19q-39 -148 -219 -148
q-121 0 -185 69q-70 -68 -190 -68q-83 0 -128 42t-45 115q0 83 57.5 123.5t152.5 40.5q51 0 86 -7zM362 107q-25 51 -30 125q-18 5 -49 5q-94 0 -94 -81t84 -81q55 0 89 32zM498 311h160q0 73 -17.5 107t-59.5 34q-40 0 -59.5 -32t-23.5 -109zM373 582l59 146q17 6 72 6
q72 0 88 -6l-117 -146q-15 -5 -49 -5q-45 0 -53 5z" />
    <glyph glyph-name="Oslashacute" unicode="&#x1fe;" horiz-adv-x="699" 
d="M78 2l47 69q-86 95 -86 280q0 170 77.5 267t232.5 97q108 0 180 -50l40 58l68 -42l-49 -71q71 -95 71 -259q0 -171 -77 -268.5t-233 -97.5q-96 0 -165 39l-42 -60zM227 221l223 328q-31 70 -101 70q-69 0 -99.5 -64t-30.5 -204q0 -82 8 -130zM475 446l-218 -315
q31 -50 92 -50q69 0 99.5 65t30.5 205q0 58 -4 95zM299 751l58 129q16 6 73 6q72 0 88 -6l-115 -129q-15 -5 -53 -5q-43 0 -51 5z" />
    <glyph glyph-name="oslashacute" unicode="&#x1ff;" horiz-adv-x="576" 
d="M63 12l34 46q-65 72 -65 202q0 126 64.5 200t191.5 74q80 0 136 -31l33 44l66 -44l-38 -50q59 -71 59 -193q0 -126 -64.5 -200t-191.5 -74q-75 0 -131 27l-31 -41zM201 199l154 210q-21 40 -67 40q-49 0 -69 -44t-20 -145q0 -43 2 -61zM376 306l-152 -202q20 -33 64 -33
q49 0 69 44t20 145q0 32 -1 46zM231 582l59 146q17 6 72 6q72 0 88 -6l-117 -146q-15 -5 -49 -5q-45 0 -53 5z" />
    <glyph glyph-name="Scommaaccent" unicode="&#x218;" horiz-adv-x="587" 
d="M163 192h14q19 -111 119 -111q46 0 71.5 24.5t25.5 70.5q0 16 -4 30t-16 25.5t-19.5 19t-29 17t-30 13t-36.5 13t-35 12.5q-39 14 -64.5 27.5t-53 36t-41.5 55.5t-14 77q0 96 66.5 154.5t185.5 58.5t177 -50t68 -122q-42 -25 -138 -25h-9q-3 18 -7 30t-15 31.5
t-32.5 29.5t-51.5 10q-43 0 -67 -23.5t-24 -67.5q0 -11 2.5 -21t9 -18t12.5 -15t17.5 -13.5t19.5 -11t24 -10.5t25 -9.5t27.5 -10t27.5 -9.5q41 -15 67 -28.5t55.5 -37t44 -58.5t14.5 -81q0 -97 -67.5 -158.5t-196.5 -61.5q-118 0 -180 50t-78 130q17 11 59 19t77 8z
M232 -230q50 28 55 61q-31 1 -48 17.5t-17 43.5q0 29 20.5 47t50.5 18q36 0 56.5 -19.5t20.5 -54.5q0 -56 -30 -90t-64 -42q-34 2 -44 19z" />
    <glyph glyph-name="scommaaccent" unicode="&#x219;" horiz-adv-x="491" 
d="M144 147h10q18 -79 93 -79q33 0 51.5 17.5t18.5 46.5q0 11 -3 20t-11.5 16.5t-15 12t-21.5 10t-22.5 8t-28 8t-27.5 7.5q-34 9 -55.5 18t-46 25.5t-36.5 43t-12 63.5q0 75 54 122.5t157 47.5q59 0 102 -14.5t64.5 -37.5t31 -43.5t11.5 -41.5q-38 -19 -114 -19h-15
q-12 74 -83 74q-32 0 -51 -16.5t-19 -44.5q0 -8 2 -15.5t7 -13.5t9.5 -10.5t13.5 -9t15 -7t18 -6t19.5 -5.5t21.5 -5.5t21 -5.5q35 -9 58 -18t48 -25.5t37.5 -43.5t12.5 -64q0 -80 -55.5 -128t-162.5 -48q-101 0 -154 39.5t-61 100.5q42 21 118 21zM181 -230q50 28 55 61
q-31 1 -48 17.5t-17 43.5q0 29 20.5 47t50.5 18q36 0 56.5 -19.5t20.5 -54.5q0 -56 -30 -90t-64 -42q-34 2 -44 19z" />
    <glyph glyph-name="uni021A" unicode="&#x21a;" horiz-adv-x="531" 
d="M183 0v596h-168v104h501v-104h-168v-596h-165zM202 -230q50 28 55 61q-31 1 -48 17.5t-17 43.5q0 29 20.5 47t50.5 18q36 0 56.5 -19.5t20.5 -54.5q0 -56 -30 -90t-64 -42q-34 2 -44 19z" />
    <glyph glyph-name="uni021B" unicode="&#x21b;" horiz-adv-x="370" 
d="M83 153v278h-63v89h68v130q83 0 150 8v-138h104v-89h-104v-269q0 -44 14 -60.5t54 -16.5q24 0 41 6q4 -9 4 -51q0 -31 -2 -39q-23 -13 -90 -13q-94 0 -135 35.5t-41 129.5zM144 -230q50 28 55 61q-31 1 -48 17.5t-17 43.5q0 29 20.5 47t50.5 18q36 0 56.5 -19.5
t20.5 -54.5q0 -56 -30 -90t-64 -42q-34 2 -44 19z" />
    <glyph glyph-name="dotlessj" unicode="&#x237;" horiz-adv-x="266" 
d="M55 -42v562q90 0 155 8v-560q0 -94 -44.5 -131.5t-138.5 -37.5q-46 0 -72 7q-3 12 -3 38q0 34 4 49q13 -6 44 -6q34 0 44.5 15.5t10.5 55.5z" />
    <glyph glyph-name="uni0259" unicode="&#x259;" horiz-adv-x="547" 
d="M34 287h314q-3 85 -24 124t-65 39q-58 0 -76 -83h-7q-90 0 -135 18q41 149 220 149q125 0 189 -73t64 -204q0 -129 -63.5 -200t-183.5 -71t-178 68.5t-58 179.5q0 30 3 53zM348 209h-161q0 -74 17 -107.5t61 -33.5q39 0 59 32.5t24 108.5z" />
    <glyph glyph-name="circumflex" unicode="&#x2c6;" horiz-adv-x="427" 
d="M54 582l80 146q18 6 78 6q62 0 81 -6l80 -146q-8 -5 -46 -5q-29 0 -44 5l-68 91h-2l-69 -91q-15 -5 -44 -5q-38 0 -46 5z" />
    <glyph glyph-name="caron" unicode="&#x2c7;" horiz-adv-x="427" 
d="M134 581l-80 146q7 4 46 4q32 0 44 -4l69 -91h2l68 91q12 4 44 4q39 0 46 -4l-80 -146q-16 -6 -78 -6q-61 0 -81 6z" />
    <glyph glyph-name="breve" unicode="&#x2d8;" horiz-adv-x="407" 
d="M54 723q8 5 39 5q24 0 36 -4q13 -67 76 -67q61 0 73 67q11 4 36 4q31 0 39 -5q-2 -26 -9 -49.5t-22.5 -47t-45.5 -37.5t-71 -14q-78 0 -112.5 44.5t-38.5 103.5z" />
    <glyph glyph-name="dotaccent" unicode="&#x2d9;" horiz-adv-x="270" 
d="M55 663q0 33 21.5 52.5t57.5 19.5t58.5 -19.5t22.5 -52.5t-22.5 -53t-58.5 -20t-57.5 20t-21.5 53z" />
    <glyph glyph-name="ring" unicode="&#x2da;" horiz-adv-x="318" 
d="M51 666q0 45 30 73.5t78 28.5t78 -28.5t30 -73.5t-30.5 -73.5t-77.5 -28.5t-77.5 28.5t-30.5 73.5zM159 613q22 0 33 14.5t11 38.5t-11 38.5t-33 14.5t-33 -14.5t-11 -38.5t11 -38.5t33 -14.5z" />
    <glyph glyph-name="ogonek" unicode="&#x2db;" horiz-adv-x="337" 
d="M262 -139l23 -50q-13 -12 -44.5 -23.5t-73.5 -11.5q-113 0 -113 87q0 112 195 164l32 -27q-110 -51 -110 -113q0 -37 47 -37q24 0 44 11z" />
    <glyph glyph-name="tilde" unicode="&#x2dc;" horiz-adv-x="470" 
d="M54 590q27 131 119 131q34 0 73 -26t59 -26q31 0 50 49q6 2 31 2q24 0 30 -2q-16 -71 -43.5 -100.5t-66.5 -29.5q-38 0 -78 25.5t-59 25.5q-32 0 -54 -49q-6 -2 -27 -2q-28 0 -34 2z" />
    <glyph glyph-name="hungarumlaut" unicode="&#x2dd;" horiz-adv-x="482" 
d="M54 582l43 146q16 6 61 6q58 0 73 -6l-79 -146q-15 -5 -48 -5q-42 0 -50 5zM221 582l63 146q16 6 65 6q63 0 79 -6l-104 -146q-15 -5 -50 -5q-45 0 -53 5z" />
    <glyph glyph-name="uni0394" unicode="&#x394;" horiz-adv-x="674" 
d="M24 0v10l219 690h193l214 -691v-9h-626zM185 104h263l-125 452h-4z" />
    <glyph glyph-name="uni03A9" unicode="&#x3a9;" horiz-adv-x="724" 
d="M52 0v108h182v33q-180 53 -180 273q0 141 77 221t230 80q154 0 231.5 -80t77.5 -221q0 -219 -183 -273v-33h184v-108h-279v181q57 14 84 67.5t27 155.5q0 223 -142 223q-141 0 -141 -223q0 -194 110 -223v-181h-278z" />
    <glyph glyph-name="uni03BC" unicode="&#x3bc;" horiz-adv-x="563" 
d="M55 -203v723q88 0 155 8v-293q0 -78 13.5 -109.5t59.5 -31.5q42 0 69 25v401q88 0 155 8v-367q0 -108 15 -144l-134 -29q-20 27 -28 60q-37 -62 -97 -62q-33 0 -53 15v-191q-72 0 -155 -13z" />
    <glyph glyph-name="pi" unicode="&#x3c0;" horiz-adv-x="653" 
d="M101 0v431h-83v89h608v-89h-99v-269q0 -44 13 -61t49 -17q23 0 42 7q3 -11 3 -49q0 -32 -2 -41q-23 -13 -85 -13q-95 0 -135 35.5t-40 129.5v278h-116v-309q0 -103 10 -122h-165z" />
    <glyph glyph-name="Wgrave" unicode="&#x1e80;" horiz-adv-x="943" 
d="M183 0l-165 691v9h173l62 -311q35 -173 38 -232h5q7 81 43 232l74 311h152l72 -312q37 -158 41 -227h4q7 74 40 227l66 312h137v-9l-167 -691h-173l-58 249q-38 164 -47 250h-4q-16 -100 -52 -249l-61 -250h-180zM437 751l-115 129q17 6 88 6q57 0 73 -6l58 -129
q-8 -5 -51 -5q-38 0 -53 5z" />
    <glyph glyph-name="wgrave" unicode="&#x1e81;" horiz-adv-x="742" 
d="M147 0l-124 510v10h160l33 -154q24 -111 30 -199h3q9 81 42 200l40 142h119l38 -143q29 -111 39 -199h2q7 80 33 198l34 155h124v-10l-127 -510h-137l-43 160q-32 122 -36 168h-2q-9 -62 -37 -169l-41 -159h-150zM338 582l-117 146q17 6 87 6q56 0 72 -6l60 -146
q-8 -5 -53 -5q-34 0 -49 5z" />
    <glyph glyph-name="Wacute" unicode="&#x1e82;" horiz-adv-x="943" 
d="M183 0l-165 691v9h173l62 -311q35 -173 38 -232h5q7 81 43 232l74 311h152l72 -312q37 -158 41 -227h4q7 74 40 227l66 312h137v-9l-167 -691h-173l-58 249q-38 164 -47 250h-4q-16 -100 -52 -249l-61 -250h-180zM427 751l58 129q17 6 73 6q72 0 88 -6l-115 -129
q-15 -5 -53 -5q-43 0 -51 5z" />
    <glyph glyph-name="wacute" unicode="&#x1e83;" horiz-adv-x="742" 
d="M147 0l-124 510v10h160l33 -154q24 -111 30 -199h3q9 81 42 200l40 142h119l38 -143q29 -111 39 -199h2q7 80 33 198l34 155h124v-10l-127 -510h-137l-43 160q-32 122 -36 168h-2q-9 -62 -37 -169l-41 -159h-150zM333 582l59 146q16 6 72 6q72 0 88 -6l-117 -146
q-15 -5 -49 -5q-45 0 -53 5z" />
    <glyph glyph-name="Wdieresis" unicode="&#x1e84;" horiz-adv-x="943" 
d="M183 0l-165 691v9h173l62 -311q35 -173 38 -232h5q7 81 43 232l74 311h152l72 -312q37 -158 41 -227h4q7 74 40 227l66 312h137v-9l-167 -691h-173l-58 249q-38 164 -47 250h-4q-16 -100 -52 -249l-61 -250h-180zM381 738q-33 0 -52.5 20.5t-19.5 52.5q0 31 19.5 50.5
t52.5 19.5q34 0 53.5 -19.5t19.5 -50.5q0 -32 -19.5 -52.5t-53.5 -20.5zM593 738q-33 0 -52.5 20.5t-19.5 52.5q0 31 19.5 50.5t52.5 19.5q34 0 54 -19.5t20 -50.5q0 -32 -20 -52.5t-54 -20.5z" />
    <glyph glyph-name="wdieresis" unicode="&#x1e85;" horiz-adv-x="742" 
d="M147 0l-124 510v10h160l33 -154q24 -111 30 -199h3q9 81 42 200l40 142h119l38 -143q29 -111 39 -199h2q7 80 33 198l34 155h124v-10l-127 -510h-137l-43 160q-32 122 -36 168h-2q-9 -62 -37 -169l-41 -159h-150zM287 583q-33 0 -52.5 20.5t-19.5 52.5q0 31 19.5 50.5
t52.5 19.5q34 0 53.5 -19.5t19.5 -50.5q0 -32 -19.5 -52.5t-53.5 -20.5zM489 583q-33 0 -52.5 20.5t-19.5 52.5q0 31 19.5 50.5t52.5 19.5q34 0 54 -19.5t20 -50.5q0 -32 -20 -52.5t-54 -20.5z" />
    <glyph glyph-name="uni1E8A" unicode="&#x1e8a;" horiz-adv-x="627" 
d="M18 0v9l207 342l-194 340v9h172l126 -236l134 236h140v-9l-197 -325l203 -357v-9h-172l-134 249l-144 -249h-141zM256 818q0 30 20 47.5t53 17.5t53.5 -17.5t20.5 -47.5t-20.5 -47.5t-53.5 -17.5t-53 17.5t-20 47.5z" />
    <glyph glyph-name="uni1E8B" unicode="&#x1e8b;" horiz-adv-x="525" 
d="M18 0v9l149 253l-141 249v9h168l87 -169l88 169h129v-9l-139 -237l148 -265v-9h-171l-92 176l-97 -176h-129zM193 663q0 33 21.5 52.5t57.5 19.5t58.5 -19.5t22.5 -52.5t-22.5 -53t-58.5 -20t-57.5 20t-21.5 53z" />
    <glyph glyph-name="Ygrave" unicode="&#x1ef2;" horiz-adv-x="612" 
d="M223 0v254l-213 437v9h177l133 -301h5l137 301h140v-9l-215 -439v-252h-164zM285 751l-115 129q17 6 88 6q56 0 73 -6l58 -129q-8 -5 -51 -5q-38 0 -53 5z" />
    <glyph glyph-name="ygrave" unicode="&#x1ef3;" horiz-adv-x="511" 
d="M200 -5l-184 515v10h163l50 -153q38 -119 46 -179h3q6 46 45 178l47 154h126v-10l-167 -500q-21 -64 -36.5 -98.5t-38.5 -63.5t-54 -39.5t-78 -10.5q-57 0 -73 6q-5 20 -5 62q0 41 5 61q24 -8 63 -8q34 0 51.5 16.5t36.5 59.5zM230 582l-117 146q17 6 87 6q56 0 72 -6
l60 -146q-8 -5 -53 -5q-34 0 -49 5z" />
    <glyph glyph-name="endash" unicode="&#x2013;" horiz-adv-x="587" 
d="M46 238v121h494v-121h-494z" />
    <glyph glyph-name="emdash" unicode="&#x2014;" horiz-adv-x="807" 
d="M46 238v121h714v-121h-714z" />
    <glyph glyph-name="quoteleft" unicode="&#x2018;" horiz-adv-x="259" 
d="M204 681q-25 -14 -45 -40t-26 -51q33 -4 53.5 -27.5t20.5 -55.5q0 -36 -23.5 -59t-60.5 -23q-41 0 -65.5 27.5t-24.5 73.5q0 70 36.5 121.5t77.5 67.5q20 -1 37 -13t20 -21z" />
    <glyph glyph-name="quoteright" unicode="&#x2019;" horiz-adv-x="259" 
d="M47 455q25 14 45 40t26 51q-33 4 -53.5 27.5t-20.5 55.5q0 36 23.5 59t60.5 23q41 0 65.5 -27.5t24.5 -73.5q0 -70 -36.5 -121.5t-77.5 -67.5q-20 1 -37 13t-20 21z" />
    <glyph glyph-name="quotesinglbase" unicode="&#x201a;" horiz-adv-x="259" 
d="M47 -100q25 14 45 40t26 51q-33 4 -53.5 27.5t-20.5 55.5q0 36 23.5 59t60.5 23q41 0 65.5 -27.5t24.5 -73.5q0 -70 -36.5 -121.5t-77.5 -67.5q-20 1 -37 13t-20 21z" />
    <glyph glyph-name="quotedblleft" unicode="&#x201c;" horiz-adv-x="475" 
d="M204 681q-25 -14 -45 -40t-26 -51q33 -4 53.5 -27.5t20.5 -55.5q0 -36 -23.5 -59t-60.5 -23q-41 0 -65.5 27.5t-24.5 73.5q0 70 36.5 121.5t77.5 67.5q20 -1 37 -13t20 -21zM419 681q-25 -14 -45 -40t-26 -51q33 -4 53.5 -27.5t20.5 -55.5q0 -36 -23.5 -59t-60.5 -23
q-41 0 -65.5 27.5t-24.5 73.5q0 70 36.5 121.5t77.5 67.5q20 -1 37 -13t20 -21z" />
    <glyph glyph-name="quotedblright" unicode="&#x201d;" horiz-adv-x="475" 
d="M47 455q25 14 45 40t26 51q-33 4 -53.5 27.5t-20.5 55.5q0 36 23.5 59t60.5 23q41 0 65.5 -27.5t24.5 -73.5q0 -70 -36.5 -121.5t-77.5 -67.5q-20 1 -37 13t-20 21zM263 455q25 14 45 40t26 51q-33 4 -53.5 27.5t-20.5 55.5q0 36 23.5 59t60.5 23q41 0 65.5 -27.5
t24.5 -73.5q0 -70 -36.5 -121.5t-77.5 -67.5q-20 1 -37 13t-20 21z" />
    <glyph glyph-name="quotedblbase" unicode="&#x201e;" horiz-adv-x="475" 
d="M47 -100q25 14 45 40t26 51q-33 4 -53.5 27.5t-20.5 55.5q0 36 23.5 59t60.5 23q41 0 65.5 -27.5t24.5 -73.5q0 -70 -36.5 -121.5t-77.5 -67.5q-20 1 -37 13t-20 21zM263 -100q25 14 45 40t26 51q-33 4 -53.5 27.5t-20.5 55.5q0 36 23.5 59t60.5 23q41 0 65.5 -27.5
t24.5 -73.5q0 -70 -36.5 -121.5t-77.5 -67.5q-20 1 -37 13t-20 21z" />
    <glyph glyph-name="dagger" unicode="&#x2020;" horiz-adv-x="676" 
d="M286 -100l-14 504l-203 -11q-11 20 -11 66q0 45 11 67l200 -11l-5 185q19 10 73 10q55 0 75 -10l-6 -185l201 11q10 -20 10 -67t-10 -66l-204 11l-14 -504h-103z" />
    <glyph glyph-name="daggerdbl" unicode="&#x2021;" horiz-adv-x="676" 
d="M286 -100l-6 211l-211 -11q-11 20 -11 65t11 67l208 -12l-5 184l-203 -11q-11 20 -11 66q0 45 11 67l200 -11l-5 185q19 10 73 10q55 0 75 -10l-6 -185l201 11q10 -20 10 -67t-10 -66l-204 11l-5 -183l209 11q10 -20 10 -67q0 -46 -10 -65l-212 11l-6 -211h-103z" />
    <glyph glyph-name="bullet" unicode="&#x2022;" horiz-adv-x="359" 
d="M41 352q0 57 38.5 95.5t100.5 38.5q61 0 99.5 -38.5t38.5 -95.5q0 -58 -38.5 -97.5t-99.5 -39.5t-100 40t-39 97z" />
    <glyph glyph-name="ellipsis" unicode="&#x2026;" horiz-adv-x="674" 
d="M115 -9q-36 0 -59 24t-23 58t23 56.5t59 22.5t59 -23t23 -56q0 -34 -23.5 -58t-58.5 -24zM337 -9q-36 0 -59 24t-23 58t23 56.5t59 22.5t59 -23t23 -56q0 -34 -23.5 -58t-58.5 -24zM559 -9q-36 0 -59 24t-23 58t23 56.5t59 22.5t59 -23t23 -56q0 -34 -23.5 -58t-58.5 -24
z" />
    <glyph glyph-name="perthousand" unicode="&#x2030;" horiz-adv-x="1342" 
d="M200 0v10l437 690h99v-10l-437 -690h-99zM224 309q-92 0 -140 53.5t-48 146.5q0 94 47 147.5t140 53.5t139.5 -53.5t46.5 -147.5t-46.5 -147t-138.5 -53zM223 367q34 0 46.5 30t12.5 112q0 81 -12.5 111t-46.5 30q-33 0 -46 -30t-13 -111q0 -82 13 -112t46 -30zM712 -10
q-92 0 -140 53.5t-48 146.5q0 94 47 147.5t140 53.5t139.5 -53.5t46.5 -147.5t-46.5 -147t-138.5 -53zM711 48q34 0 46.5 30t12.5 112q0 81 -12.5 111t-46.5 30q-33 0 -46 -30t-13 -111q0 -82 13 -112t46 -30zM1121 -10q-92 0 -140 53.5t-48 146.5q0 94 47 147.5t140 53.5
t139.5 -53.5t46.5 -147.5t-46.5 -147t-138.5 -53zM1120 48q34 0 46.5 30t12.5 112q0 81 -12.5 111t-46.5 30q-33 0 -46 -30t-13 -111q0 -82 13 -112t46 -30z" />
    <glyph glyph-name="guilsinglleft" unicode="&#x2039;" horiz-adv-x="394" 
d="M223 43l-174 214v19l174 213h123l-167 -223l167 -223h-123z" />
    <glyph glyph-name="guilsinglright" unicode="&#x203a;" horiz-adv-x="394" 
d="M49 43l167 223l-167 223h122l175 -213v-19l-174 -214h-123z" />
    <glyph glyph-name="fraction" unicode="&#x2044;" horiz-adv-x="206" 
d="M-165 0v10l437 690h99v-10l-437 -690h-99z" />
    <glyph glyph-name="zero.superior" unicode="&#x2070;" horiz-adv-x="435" 
d="M221 450q-95 0 -141.5 56.5t-46.5 156.5q0 101 46 157.5t141 56.5t140.5 -56.5t45.5 -157.5q0 -100 -45.5 -156.5t-139.5 -56.5zM220 507q34 0 46.5 34t12.5 122q0 87 -12.5 121t-46.5 34q-33 0 -46 -34t-13 -121q0 -88 13 -122t46 -34z" />
    <glyph glyph-name="four.superior" unicode="&#x2074;" horiz-adv-x="415" 
d="M32 550v71l183 247h122v-246h47v-72h-47v-91h-116v91h-189zM109 622h116v156h-3z" />
    <glyph glyph-name="five.superior" unicode="&#x2075;" horiz-adv-x="391" 
d="M45 633l9 235h290v-83h-222l-4 -93q31 28 101 28q71 0 107.5 -35t36.5 -95q0 -65 -45.5 -102.5t-127.5 -37.5q-67 0 -106.5 25t-51.5 61q30 21 94 29q17 -55 62 -55q59 0 59 72q0 31 -15.5 52.5t-47.5 21.5q-40 0 -58 -23h-81z" />
    <glyph glyph-name="six.superior" unicode="&#x2076;" horiz-adv-x="413" 
d="M162 682q37 28 97 28q65 0 96.5 -33.5t31.5 -83.5q0 -64 -42.5 -103.5t-128.5 -39.5q-88 0 -133.5 57t-45.5 156q0 100 46 157t135 57q132 0 156 -104q-14 -9 -50 -15t-57 -4q-5 34 -16.5 50t-32.5 16q-29 0 -42 -30t-14 -108zM162 634q2 -70 14.5 -98.5t39.5 -28.5
q51 0 51 76q0 70 -55 70q-29 0 -50 -19z" />
    <glyph glyph-name="seven.superior" unicode="&#x2077;" horiz-adv-x="388" 
d="M76 459v6l193 320h-230v83h318v-77l-154 -332h-127z" />
    <glyph glyph-name="eight.superior" unicode="&#x2078;" horiz-adv-x="417" 
d="M123 676v3q-73 21 -73 88q0 50 42 80t119 30t118.5 -30t41.5 -80q0 -66 -73 -89v-2q90 -24 90 -105q0 -57 -44.5 -89t-132.5 -32q-89 0 -133.5 32.5t-44.5 88.5q0 79 90 105zM211 508q29 0 42 17t13 53q0 73 -55 73q-56 0 -56 -73q0 -70 56 -70zM211 702q50 0 50 60
q0 56 -50 56q-51 0 -51 -56q0 -60 51 -60z" />
    <glyph glyph-name="nine.superior" unicode="&#x2079;" horiz-adv-x="413" 
d="M44 552q38 21 108 21q8 -67 49 -67q29 0 42 29.5t14 102.5q-37 -28 -95 -28q-66 0 -98 35.5t-32 89.5q0 61 42 101.5t128 40.5q88 0 134 -57t46 -156q0 -97 -46 -155.5t-135 -58.5q-127 0 -157 102zM257 687q-2 70 -15 100.5t-42 30.5q-48 0 -48 -79q0 -72 53 -72
q32 0 52 20z" />
    <glyph glyph-name="zero.inferior" unicode="&#x2080;" horiz-adv-x="435" 
d="M221 -184q-95 0 -141.5 56.5t-46.5 156.5q0 101 46 157.5t141 56.5t140.5 -56.5t45.5 -157.5q0 -100 -45.5 -156.5t-139.5 -56.5zM220 -127q34 0 46.5 34t12.5 122q0 87 -12.5 121t-46.5 34q-33 0 -46 -34t-13 -121q0 -88 13 -122t46 -34z" />
    <glyph glyph-name="one.inferior" unicode="&#x2081;" horiz-adv-x="359" 
d="M60 -175v59h78v265l-78 -12v62q7 2 117 35h80v-350h66v-59h-263z" />
    <glyph glyph-name="two.inferior" unicode="&#x2082;" horiz-adv-x="406" 
d="M33 -175v68q103 70 141 107q71 68 71 129q0 52 -47 52q-48 0 -59 -76q-78 2 -107 20q7 49 47.5 83.5t119.5 34.5q81 0 121.5 -32.5t40.5 -88.5q0 -66 -53 -116t-143 -97v-2h199v-82h-331z" />
    <glyph glyph-name="three.inferior" unicode="&#x2083;" horiz-adv-x="388" 
d="M122 3v59h21q87 0 87 68q0 51 -50 51q-42 0 -54 -51q-71 5 -96 23q25 90 159 90q76 0 116.5 -28t40.5 -78q0 -40 -24 -64.5t-62 -32.5v-3q95 -18 95 -100q0 -57 -43 -89t-123 -32q-71 0 -112 24.5t-50 58.5q31 20 96 30q17 -53 61 -53q56 0 56 59q0 68 -97 68h-21z" />
    <glyph glyph-name="four.inferior" unicode="&#x2084;" horiz-adv-x="415" 
d="M32 -84v71l183 247h122v-246h47v-72h-47v-91h-116v91h-189zM109 -12h116v156h-3z" />
    <glyph glyph-name="five.inferior" unicode="&#x2085;" horiz-adv-x="391" 
d="M45 -1l9 235h290v-83h-222l-4 -93q31 28 101 28q71 0 107.5 -35t36.5 -95q0 -65 -45.5 -102.5t-127.5 -37.5q-67 0 -106.5 25t-51.5 61q30 21 94 29q17 -55 62 -55q59 0 59 72q0 31 -15.5 52.5t-47.5 21.5q-40 0 -58 -23h-81z" />
    <glyph glyph-name="six.inferior" unicode="&#x2086;" horiz-adv-x="413" 
d="M162 48q37 28 97 28q65 0 96.5 -33.5t31.5 -83.5q0 -64 -42.5 -103.5t-128.5 -39.5q-88 0 -133.5 57t-45.5 156q0 100 46 157t135 57q132 0 156 -104q-14 -9 -50 -15t-57 -4q-5 34 -16.5 50t-32.5 16q-29 0 -42 -30t-14 -108zM162 0q2 -70 14.5 -98.5t39.5 -28.5
q51 0 51 76q0 70 -55 70q-29 0 -50 -19z" />
    <glyph glyph-name="seven.inferior" unicode="&#x2087;" horiz-adv-x="388" 
d="M76 -175v6l193 320h-230v83h318v-77l-154 -332h-127z" />
    <glyph glyph-name="eight.inferior" unicode="&#x2088;" horiz-adv-x="417" 
d="M123 42v3q-73 21 -73 88q0 50 42 80t119 30t118.5 -30t41.5 -80q0 -66 -73 -89v-2q90 -24 90 -105q0 -57 -44.5 -89t-132.5 -32q-89 0 -133.5 32.5t-44.5 88.5q0 79 90 105zM211 -126q29 0 42 17t13 53q0 73 -55 73q-56 0 -56 -73q0 -70 56 -70zM211 68q50 0 50 60
q0 56 -50 56q-51 0 -51 -56q0 -60 51 -60z" />
    <glyph glyph-name="nine.inferior" unicode="&#x2089;" horiz-adv-x="413" 
d="M44 -82q38 21 108 21q8 -67 49 -67q29 0 42 29.5t14 102.5q-37 -28 -95 -28q-66 0 -98 35.5t-32 89.5q0 61 42 101.5t128 40.5q88 0 134 -57t46 -156q0 -97 -46 -155.5t-135 -58.5q-127 0 -157 102zM257 53q-2 70 -15 100.5t-42 30.5q-48 0 -48 -79q0 -72 53 -72
q32 0 52 20z" />
    <glyph glyph-name="uni20A8" unicode="&#x20a8;" 
d="M307 0l-249 272v71h83q75 0 111 21.5t43 77.5h-237v71h235q-10 47 -46 66t-106 19h-82v78h512l-13 -71h-142q33 -36 39 -92h87l-12 -71h-76q-11 -77 -68 -116t-165 -46l265 -271v-9h-179z" />
    <glyph glyph-name="Euro" unicode="&#x20ac;" 
d="M28 246v70h45v63h-45v71h52q40 240 260 240q105 0 159.5 -41t70.5 -97q-16 -13 -58 -23t-78 -11q-18 86 -89 86q-46 0 -69.5 -38t-31.5 -116h228l-13 -71h-220v-63h209l-12 -70h-195q6 -87 30.5 -130.5t75.5 -43.5q70 0 89 98q37 -1 79 -11t58 -22q-9 -28 -23.5 -51.5
t-40 -48t-68 -38.5t-97.5 -14q-234 0 -267 261h-49z" />
    <glyph glyph-name="uni2117" unicode="&#x2117;" horiz-adv-x="790" 
d="M262 132v435h131q182 0 182 -141q0 -69 -46 -108.5t-139 -39.5h-35v-146h-93zM355 338h38q86 0 86 84t-86 84h-38v-168zM395 -15q-155 0 -259.5 106t-104.5 259t104.5 259t259.5 106t259.5 -106t104.5 -259t-104.5 -259t-259.5 -106zM395 43q132 0 216 88.5t84 218.5
q0 131 -83.5 219t-216.5 88t-216 -88t-83 -219t83.5 -219t215.5 -88z" />
    <glyph glyph-name="trademark" unicode="&#x2122;" horiz-adv-x="824" 
d="M131 319v322h-97v59h286v-59h-97v-322h-92zM364 319v381h111l46 -134q27 -77 34 -118h3q5 33 34 117l46 135h122v-381h-93v151q0 54 3 117h-3q-4 -20 -33 -106l-56 -162h-57l-54 162q-22 66 -33 106h-3q3 -31 3 -117v-151h-70z" />
    <glyph glyph-name="Omega" unicode="&#x2126;" horiz-adv-x="724" 
d="M52 0v108h182v33q-180 53 -180 273q0 141 77 221t230 80q154 0 231.5 -80t77.5 -221q0 -219 -183 -273v-33h184v-108h-279v181q57 14 84 67.5t27 155.5q0 223 -142 223q-141 0 -141 -223q0 -194 110 -223v-181h-278z" />
    <glyph glyph-name="partialdiff" unicode="&#x2202;" horiz-adv-x="590" 
d="M206 533h-8q-31 0 -76 11t-52 23q29 70 88 107.5t142 37.5q127 0 191 -86.5t64 -238.5q0 -187 -76.5 -294.5t-218.5 -107.5q-120 0 -178.5 62t-58.5 162q0 92 52 154.5t157 62.5q94 0 155 -54q0 8 0.5 24.5t0.5 25.5q0 109 -22 156.5t-71 47.5q-34 0 -56.5 -27.5
t-32.5 -65.5zM383 289q-35 52 -95 52q-102 0 -102 -148q0 -121 81 -121q96 0 116 217z" />
    <glyph glyph-name="Delta" unicode="&#x2206;" horiz-adv-x="674" 
d="M24 0v10l219 690h193l214 -691v-9h-626zM185 104h263l-125 452h-4z" />
    <glyph glyph-name="product" unicode="&#x220f;" horiz-adv-x="697" 
d="M66 -100v800h565v-800h-165v695h-235v-695h-165z" />
    <glyph glyph-name="summation" unicode="&#x2211;" horiz-adv-x="602" 
d="M34 -100v69l199 348l-187 314v69h520v-104h-329l171 -279l-183 -313h342v-104h-533z" />
    <glyph glyph-name="minus" unicode="&#x2212;" 
d="M43 245v107h502v-107h-502z" />
    <glyph glyph-name="radical" unicode="&#x221a;" horiz-adv-x="641" 
d="M243 0l-147 429h-78l12 91h181l115 -364h2q4 14 28 99.5t65 220.5t72 224h131v-10l-233 -690h-148z" />
    <glyph glyph-name="infinity" unicode="&#x221e;" horiz-adv-x="835" 
d="M387 255q-79 -97 -177 -97q-77 0 -126 47t-49 132q0 91 60 138t140 47q66 0 109 -23t84 -77q84 112 185 112q82 0 134 -47.5t52 -141.5q0 -86 -54 -144t-147 -58q-67 0 -116 22.5t-95 89.5zM465 365q27 -46 39.5 -65.5t30.5 -42.5t33.5 -31t33.5 -8q36 0 56 33t20 89
q0 119 -81 119q-38 0 -68 -24t-64 -70zM354 314q-7 11 -21 35t-20 34t-18 26t-20.5 23t-21 12.5t-25.5 5.5q-73 0 -73 -110t78 -110q60 0 121 84z" />
    <glyph glyph-name="integral" unicode="&#x222b;" 
d="M216 -31v541q0 93 47.5 133.5t140.5 40.5q66 0 86 -11q3 -13 3 -42q0 -23 -3 -44q-16 9 -52 9q-38 0 -52.5 -19t-14.5 -65v-541q0 -93 -47 -133.5t-140 -40.5q-65 0 -87 11q-2 7 -2 35q0 39 3 51q16 -9 52 -9q38 0 52 18.5t14 65.5z" />
    <glyph glyph-name="approxequal" unicode="&#x2248;" 
d="M45 105v106q6 5 17.5 12.5t47 20.5t71.5 13q47 0 129.5 -25.5t124.5 -25.5q28 0 55 11t40 22l13 11v-111q-44 -34 -107 -34q-50 0 -132.5 25.5t-124.5 25.5q-32 0 -65.5 -13t-51.5 -25zM45 300v106q6 5 17.5 12.5t47 20.5t71.5 13q47 0 129.5 -25.5t124.5 -25.5
q28 0 55 11t40 22l13 11v-111q-44 -34 -107 -34q-50 0 -132.5 25.5t-124.5 25.5q-32 0 -65.5 -12.5t-51.5 -25.5z" />
    <glyph glyph-name="notequal" unicode="&#x2260;" 
d="M128 14v10l51 118h-136v107h182l43 99h-225v107h271l48 111h98v-10l-44 -101h129v-107h-175l-43 -99h218v-107h-264l-55 -128h-98z" />
    <glyph glyph-name="lessequal" unicode="&#x2264;" 
d="M43 328v107l502 143v-109l-372 -86v-3l372 -86v-109zM43 20v107h502v-107h-502z" />
    <glyph glyph-name="greaterequal" unicode="&#x2265;" 
d="M43 185v109l372 86v3l-372 86v109l502 -143v-107zM43 20v107h502v-107h-502z" />
    <glyph glyph-name="lozenge" unicode="&#x25ca;" horiz-adv-x="627" 
d="M223 0l-182 350l182 350h185l178 -350l-178 -350h-185zM297 102h5l120 248l-120 248h-5l-124 -248z" />
    <glyph glyph-name="CR" horiz-adv-x="204" 
 />
    <glyph glyph-name="a.small" horiz-adv-x="608" 
d="M20 0v8l191 575h190l187 -575v-8h-172l-37 123h-188l-38 -123h-133zM222 225h126l-14 50q-36 128 -45 177h-4q-21 -90 -48 -178z" />
    <glyph glyph-name="b.small" horiz-adv-x="568" 
d="M64 0v583h225q118 0 172.5 -35.5t54.5 -107.5q0 -50 -31 -84t-81 -45v-2q134 -30 134 -141q0 -168 -245 -168h-229zM225 87h38q62 0 87.5 19t25.5 65q0 45 -26 65t-85 20h-40v-169zM225 345h34q54 0 78 18t24 60q0 41 -23.5 57.5t-75.5 16.5h-37v-152z" />
    <glyph glyph-name="c.small" horiz-adv-x="603" 
d="M415 203q8 1 31 1q91 0 124 -15q-11 -94 -73.5 -148t-176.5 -54q-142 0 -210 82t-68 223q0 140 68 221.5t207 81.5q113 0 176 -50t74 -139q-35 -19 -126 -19q-20 0 -28 1q-9 60 -29 87.5t-64 27.5q-56 0 -79.5 -49t-23.5 -162q0 -114 23 -163.5t80 -49.5q44 0 65.5 29
t29.5 95z" />
    <glyph glyph-name="d.small" horiz-adv-x="620" 
d="M64 0v583h205q309 0 309 -291q0 -292 -308 -292h-206zM225 92h41q73 0 105 45.5t32 154.5t-32 154t-104 45h-42v-399z" />
    <glyph glyph-name="e.small" horiz-adv-x="505" 
d="M64 0v583h390v-101h-229v-133h205q5 -18 5 -49q0 -33 -5 -53h-205v-146h241v-101h-402z" />
    <glyph glyph-name="f.small" horiz-adv-x="497" 
d="M64 0v583h398v-101h-237v-146h213q4 -15 4 -48q0 -31 -4 -53h-213v-235h-161z" />
    <glyph glyph-name="g.small" horiz-adv-x="613" 
d="M418 97v127h-94v99h237v-264q-25 -26 -88.5 -49t-154.5 -23q-143 0 -209.5 80.5t-66.5 224.5q0 141 68.5 222t211.5 81q114 0 172 -46.5t65 -126.5q-34 -17 -118 -17q-24 0 -34 1q-5 49 -24 73t-63 24q-57 0 -80 -49t-23 -162q0 -119 25.5 -166t93.5 -47q57 0 82 18z" />
    <glyph glyph-name="h.small" horiz-adv-x="641" 
d="M64 0v583h161v-226h191v226h160v-583h-160v256h-191v-256h-161z" />
    <glyph glyph-name="i.small" horiz-adv-x="289" 
d="M64 0v583h161v-583h-161z" />
    <glyph glyph-name="j.small" horiz-adv-x="413" 
d="M190 157v426h160v-431q0 -90 -51.5 -127t-158.5 -37q-84 0 -111 12q-4 12 -4 41q0 39 5 51q33 -11 77 -11q47 0 65 17t18 59z" />
    <glyph glyph-name="k.small" horiz-adv-x="593" 
d="M64 0v583h161v-242h3l187 242h153v-9l-204 -250l212 -316v-8h-181l-167 262h-3v-262h-161z" />
    <glyph glyph-name="l.small" horiz-adv-x="475" 
d="M64 0v583h161v-483h221v-100h-382z" />
    <glyph glyph-name="m.small" horiz-adv-x="795" 
d="M64 0v583h202l56 -148q59 -157 72 -231h4q11 73 72 229l58 150h202v-583h-153v179q0 151 5 228h-4q-37 -138 -70 -222l-73 -185h-99l-71 185q-49 128 -69 222h-5q6 -93 6 -228v-179h-133z" />
    <glyph glyph-name="n.small" horiz-adv-x="669" 
d="M64 0v583h199l126 -224q63 -111 84 -182h5q-6 68 -6 174v232h132v-583h-188l-115 206q-85 152 -106 220h-4q6 -62 6 -175v-251h-133z" />
    <glyph glyph-name="o.small" horiz-adv-x="640" 
d="M320 -13q-141 0 -209.5 81t-68.5 224t68.5 223t209.5 80t209.5 -80t68.5 -223t-68.5 -224t-209.5 -81zM320 79q57 0 80 49.5t23 163.5q0 113 -23.5 162t-79.5 49q-57 0 -80 -49t-23 -162q0 -114 23 -163.5t80 -49.5z" />
    <glyph glyph-name="p.small" horiz-adv-x="559" 
d="M64 0v583h205q260 0 260 -182q0 -96 -64 -144.5t-204 -48.5h-36v-208h-161zM225 303h28q58 0 85 18.5t27 74.5q0 57 -27.5 76t-84.5 19h-28v-188z" />
    <glyph glyph-name="q.small" horiz-adv-x="640" 
d="M336 -13h-16q-141 0 -209.5 81t-68.5 224t68.5 223t209.5 80t209.5 -80t68.5 -223q0 -217 -148 -281q20 -29 79 -29q31 0 47 6q4 -12 4 -56t-4 -59q-16 -7 -57 -7q-73 0 -114 27.5t-69 93.5zM320 79q57 0 80 49.5t23 163.5q0 113 -23.5 162t-79.5 49q-57 0 -80 -49
t-23 -162q0 -114 23 -163.5t80 -49.5z" />
    <glyph glyph-name="r.small" horiz-adv-x="571" 
d="M64 0v583h207q255 0 255 -179q0 -117 -108 -166l124 -230v-8h-169l-101 208h-47v-208h-161zM225 300h27q56 0 84 20.5t28 77.5t-27.5 76.5t-84.5 19.5h-27v-194z" />
    <glyph glyph-name="s.small" horiz-adv-x="545" 
d="M376 422h-16q-2 13 -3.5 19.5t-8 20.5t-15 21.5t-24 14t-36.5 6.5q-35 0 -55 -18t-20 -49q0 -13 6.5 -24t14.5 -18t25 -14.5t28.5 -11.5t35.5 -11.5t36 -11.5q35 -12 59 -23.5t49.5 -31t38.5 -48.5t13 -68q0 -84 -61 -136t-179 -52q-108 0 -164.5 43.5t-69.5 112.5
q17 10 56 17.5t72 7.5q4 0 10 -0.5t9 -0.5q11 -89 97 -89q36 0 57 18.5t21 50.5q0 15 -6.5 27.5t-15 20.5t-26 16.5t-29 12.5t-36.5 11.5t-36 11.5q-34 12 -57.5 23t-47.5 30t-36.5 47t-12.5 65q0 84 61 133.5t170 49.5t162 -44t62 -106q-40 -23 -128 -23z" />
    <glyph glyph-name="t.small" horiz-adv-x="496" 
d="M168 0v482h-146v101h452v-101h-145v-482h-161z" />
    <glyph glyph-name="u.small" horiz-adv-x="612" 
d="M62 217v366h161v-365q0 -60 24 -87.5t73 -27.5q50 0 74.5 27.5t24.5 88.5v364h131v-365q0 -114 -54 -172.5t-188 -58.5q-135 0 -190.5 58t-55.5 172z" />
    <glyph glyph-name="v.small" horiz-adv-x="603" 
d="M209 0l-188 574v9h170l72 -239q42 -139 51 -212h4q5 56 53 212l74 239h137v-9l-194 -574h-179z" />
    <glyph glyph-name="w.small" horiz-adv-x="862" 
d="M167 0l-143 574v9h169l50 -242q27 -129 31 -189h3q8 81 36 189l62 242h147l60 -242q27 -110 33 -185h4q6 72 31 185l54 242h134v-9l-146 -574h-168l-45 182q-29 114 -40 203h-3q-14 -87 -46 -206l-47 -179h-176z" />
    <glyph glyph-name="x.small" horiz-adv-x="584" 
d="M24 0v8l181 282l-169 284v9h167l104 -187l111 187h137v-9l-171 -269l176 -297v-8h-168l-110 196l-121 -196h-137z" />
    <glyph glyph-name="y.small" horiz-adv-x="572" 
d="M205 0v209l-189 365v9h172l112 -239h4l116 239h136v-9l-191 -367v-207h-160z" />
    <glyph glyph-name="z.small" horiz-adv-x="558" 
d="M38 0v68l287 414h-275v101h470v-67l-288 -415h287v-101h-481z" />
    <glyph glyph-name="agrave.small" horiz-adv-x="608" 
d="M20 0v8l191 575h190l187 -575v-8h-172l-37 123h-188l-38 -123h-133zM222 225h126l-14 50q-36 128 -45 177h-4q-21 -90 -48 -178zM261 639l-117 145q17 6 87 6q55 0 72 -6l60 -145q-8 -5 -52 -5q-39 0 -50 5z" />
    <glyph glyph-name="aacute.small" horiz-adv-x="608" 
d="M20 0v8l191 575h190l187 -575v-8h-172l-37 123h-188l-38 -123h-133zM222 225h126l-14 50q-36 128 -45 177h-4q-21 -90 -48 -178zM250 639l59 145q17 6 72 6q72 0 88 -6l-117 -145q-11 -5 -50 -5q-44 0 -52 5z" />
    <glyph glyph-name="acircumflex.small" horiz-adv-x="608" 
d="M20 0v8l191 575h190l187 -575v-8h-172l-37 123h-188l-38 -123h-133zM222 225h126l-14 50q-36 128 -45 177h-4q-21 -90 -48 -178zM144 639l80 145q18 6 78 6q62 0 81 -6l80 -145q-8 -5 -45 -5q-34 0 -45 5l-68 90h-2l-69 -90q-11 -5 -45 -5q-37 0 -45 5z" />
    <glyph glyph-name="atilde.small" horiz-adv-x="608" 
d="M20 0v8l191 575h190l187 -575v-8h-172l-37 123h-188l-38 -123h-133zM222 225h126l-14 50q-36 128 -45 177h-4q-21 -90 -48 -178zM122 647q27 130 119 130q34 0 73 -25.5t59 -25.5q31 0 50 48q5 3 28 3q24 0 33 -3q-16 -70 -43.5 -100t-66.5 -30q-38 0 -78 26t-59 26
q-32 0 -54 -49q-5 -3 -28 -3q-29 0 -33 3z" />
    <glyph glyph-name="adieresis.small" horiz-adv-x="608" 
d="M20 0v8l191 575h190l187 -575v-8h-172l-37 123h-188l-38 -123h-133zM222 225h126l-14 50q-36 128 -45 177h-4q-21 -90 -48 -178zM202 631q-33 0 -52.5 20.5t-19.5 52.5q0 31 19.5 50.5t52.5 19.5q34 0 53.5 -19.5t19.5 -50.5q0 -32 -19.5 -52.5t-53.5 -20.5zM404 631
q-33 0 -52.5 20.5t-19.5 52.5q0 31 19.5 50.5t52.5 19.5q34 0 54 -19.5t20 -50.5q0 -32 -20 -52.5t-54 -20.5z" />
    <glyph glyph-name="amacron.small" horiz-adv-x="608" 
d="M20 0v8l191 575h190l187 -575v-8h-172l-37 123h-188l-38 -123h-133zM222 225h126l-14 50q-36 128 -45 177h-4q-21 -90 -48 -178zM147 665v95h313v-95h-313z" />
    <glyph glyph-name="abreve.small" horiz-adv-x="608" 
d="M20 0v8l191 575h190l187 -575v-8h-172l-37 123h-188l-38 -123h-133zM222 225h126l-14 50q-36 128 -45 177h-4q-21 -90 -48 -178zM154 780q7 4 37 4q26 0 38 -4q12 -66 76 -66q61 0 73 66q12 4 37 4q31 0 38 -4q-2 -26 -9 -49.5t-22.5 -47t-45.5 -37.5t-71 -14
q-78 0 -112.5 44.5t-38.5 103.5z" />
    <glyph glyph-name="aring.small" horiz-adv-x="608" 
d="M20 0v8l191 575h190l187 -575v-8h-172l-37 123h-188l-38 -123h-133zM222 225h126l-14 50q-36 128 -45 177h-4q-21 -90 -48 -178zM196 722q0 45 30 73.5t78 28.5t78 -28.5t30 -73.5t-30.5 -73t-77.5 -28t-77.5 28t-30.5 73zM304 670q22 0 33 14.5t11 37.5q0 24 -11 38.5
t-33 14.5t-33 -14.5t-11 -38.5q0 -23 11 -37.5t33 -14.5z" />
    <glyph glyph-name="aogonek.small" horiz-adv-x="608" 
d="M20 0v8l191 575h190l187 -575v-8q-110 -51 -110 -113q0 -37 47 -37q24 0 44 11l23 -50q-13 -12 -44.5 -23.5t-73.5 -11.5q-113 0 -113 87q0 88 115 137h-60l-37 123h-188l-38 -123h-133zM222 225h126l-14 50q-36 128 -45 177h-4q-15 -67 -48 -177z" />
    <glyph glyph-name="ae.small" horiz-adv-x="794" 
d="M8 0l2 8l260 575h472v-101h-228v-133h205q5 -18 5 -49q0 -33 -5 -53h-205v-146h241v-101h-402v123h-151l-53 -123h-141zM246 225h107v257h-4q-17 -58 -69 -178z" />
    <glyph glyph-name="aeacute.small" horiz-adv-x="794" 
d="M8 0l2 8l260 575h472v-101h-228v-133h205q5 -18 5 -49q0 -33 -5 -53h-205v-146h241v-101h-402v123h-151l-53 -123h-141zM246 225h107v257h-4q-17 -58 -69 -178zM421 639l59 145q16 6 72 6q72 0 88 -6l-117 -145q-11 -5 -50 -5q-44 0 -52 5z" />
    <glyph glyph-name="cacute.small" horiz-adv-x="603" 
d="M415 203q8 1 31 1q91 0 124 -15q-11 -94 -73.5 -148t-176.5 -54q-142 0 -210 82t-68 223q0 140 68 221.5t207 81.5q113 0 176 -50t74 -139q-35 -19 -126 -19q-20 0 -28 1q-9 60 -29 87.5t-64 27.5q-56 0 -79.5 -49t-23.5 -162q0 -114 23 -163.5t80 -49.5q44 0 65.5 29
t29.5 95zM261 639l59 145q16 6 72 6q72 0 88 -6l-117 -145q-11 -5 -50 -5q-44 0 -52 5z" />
    <glyph glyph-name="ccircumflex.small" horiz-adv-x="603" 
d="M415 203q8 1 31 1q91 0 124 -15q-11 -94 -73.5 -148t-176.5 -54q-142 0 -210 82t-68 223q0 140 68 221.5t207 81.5q113 0 176 -50t74 -139q-35 -19 -126 -19q-20 0 -28 1q-9 60 -29 87.5t-64 27.5q-56 0 -79.5 -49t-23.5 -162q0 -114 23 -163.5t80 -49.5q44 0 65.5 29
t29.5 95zM161 639l80 145q18 6 78 6q61 0 81 -6l80 -145q-8 -5 -45 -5q-34 0 -45 5l-68 90h-2l-69 -90q-11 -5 -45 -5q-37 0 -45 5z" />
    <glyph glyph-name="ccaron.small" horiz-adv-x="603" 
d="M415 203q8 1 31 1q91 0 124 -15q-11 -94 -73.5 -148t-176.5 -54q-142 0 -210 82t-68 223q0 140 68 221.5t207 81.5q113 0 176 -50t74 -139q-35 -19 -126 -19q-20 0 -28 1q-9 60 -29 87.5t-64 27.5q-56 0 -79.5 -49t-23.5 -162q0 -114 23 -163.5t80 -49.5q44 0 65.5 29
t29.5 95zM247 645l-80 145q8 5 43 5q32 0 47 -5l69 -91h2l68 91q15 5 46 5q36 0 44 -5l-80 -145q-19 -7 -78 -7q-58 0 -81 7z" />
    <glyph glyph-name="cdotaccent.small" horiz-adv-x="603" 
d="M415 203q8 1 31 1q91 0 124 -15q-11 -94 -73.5 -148t-176.5 -54q-142 0 -210 82t-68 223q0 140 68 221.5t207 81.5q113 0 176 -50t74 -139q-35 -19 -126 -19q-20 0 -28 1q-9 60 -29 87.5t-64 27.5q-56 0 -79.5 -49t-23.5 -162q0 -114 23 -163.5t80 -49.5q44 0 65.5 29
t29.5 95zM242 719q0 33 21.5 52.5t57.5 19.5t58.5 -19.5t22.5 -52.5q0 -32 -22.5 -52.5t-58.5 -20.5t-57.5 20.5t-21.5 52.5z" />
    <glyph glyph-name="ccedilla.small" horiz-adv-x="603" 
d="M213 -202l13 43q25 -16 57 -16q43 0 43 36q0 16 -13 27t-28 14.5t-40 7.5l24 80q-116 14 -171.5 94t-55.5 208q0 140 68 221.5t207 81.5q113 0 176 -50t74 -139q-35 -19 -126 -19q-20 0 -28 1q-9 60 -29 87.5t-64 27.5q-56 0 -79.5 -49t-23.5 -162q0 -114 23 -163.5
t80 -49.5q44 0 65.5 29t29.5 95q8 1 31 1q91 0 124 -15q-11 -92 -70.5 -145.5t-168.5 -56.5l-12 -40q27 -5 45 -11.5t35.5 -26t17.5 -48.5q0 -43 -30.5 -65.5t-78.5 -22.5q-63 0 -95 25z" />
    <glyph glyph-name="dcaron.small" horiz-adv-x="620" 
d="M64 0v583h205q309 0 309 -291q0 -292 -308 -292h-206zM225 92h41q73 0 105 45.5t32 154.5t-32 154t-104 45h-42v-399zM220 645l-80 145q8 5 43 5q32 0 47 -5l69 -91h2l68 91q15 5 46 5q36 0 44 -5l-80 -145q-19 -7 -78 -7q-58 0 -81 7z" />
    <glyph glyph-name="dcroat.small" horiz-adv-x="640" 
d="M85 0v247h-58v91h58v245h206q307 0 307 -291q0 -292 -307 -292h-206zM246 92h42q72 0 103.5 45.5t31.5 154.5q0 110 -31.5 154.5t-104.5 44.5h-41v-153h101v-91h-101v-155z" />
    <glyph glyph-name="egrave.small" horiz-adv-x="505" 
d="M64 0v583h390v-101h-229v-133h205q5 -18 5 -49q0 -33 -5 -53h-205v-146h241v-101h-402zM252 639l-117 145q17 6 87 6q56 0 72 -6l60 -145q-8 -5 -52 -5q-39 0 -50 5z" />
    <glyph glyph-name="eacute.small" horiz-adv-x="505" 
d="M64 0v583h390v-101h-229v-133h205q5 -18 5 -49q0 -33 -5 -53h-205v-146h241v-101h-402zM161 639l59 145q16 6 72 6q72 0 88 -6l-117 -145q-11 -5 -50 -5q-44 0 -52 5z" />
    <glyph glyph-name="ecircumflex.small" horiz-adv-x="505" 
d="M64 0v583h390v-101h-229v-133h205q5 -18 5 -49q0 -33 -5 -53h-205v-146h241v-101h-402zM100 639l80 145q18 6 78 6q62 0 81 -6l80 -145q-8 -5 -45 -5q-34 0 -45 5l-68 90h-2l-69 -90q-11 -5 -45 -5q-37 0 -45 5z" />
    <glyph glyph-name="ecaron.small" horiz-adv-x="505" 
d="M64 0v583h390v-101h-229v-133h205q5 -18 5 -49q0 -33 -5 -53h-205v-146h241v-101h-402zM180 645l-80 145q8 5 43 5q32 0 47 -5l69 -91h2l68 91q15 5 46 5q36 0 44 -5l-80 -145q-19 -7 -78 -7q-58 0 -81 7z" />
    <glyph glyph-name="edieresis.small" horiz-adv-x="505" 
d="M64 0v583h390v-101h-229v-133h205q5 -18 5 -49q0 -33 -5 -53h-205v-146h241v-101h-402zM154 631q-33 0 -52.5 20.5t-19.5 52.5q0 31 19.5 50.5t52.5 19.5q34 0 53.5 -19.5t19.5 -50.5q0 -32 -19.5 -52.5t-53.5 -20.5zM356 631q-33 0 -52.5 20.5t-19.5 52.5
q0 31 19.5 50.5t52.5 19.5q34 0 54 -19.5t20 -50.5q0 -32 -20 -52.5t-54 -20.5z" />
    <glyph glyph-name="emacron.small" horiz-adv-x="505" 
d="M64 0v583h390v-101h-229v-133h205q5 -18 5 -49q0 -33 -5 -53h-205v-146h241v-101h-402zM101 665v95h313v-95h-313z" />
    <glyph glyph-name="ebreve.small" horiz-adv-x="505" 
d="M64 0v583h390v-101h-229v-133h205q5 -18 5 -49q0 -33 -5 -53h-205v-146h241v-101h-402zM110 780q7 4 37 4q26 0 38 -4q12 -66 76 -66q61 0 73 66q12 4 37 4q31 0 38 -4q-2 -26 -9 -49.5t-22.5 -47t-45.5 -37.5t-71 -14q-78 0 -112.5 44.5t-38.5 103.5z" />
    <glyph glyph-name="edotaccent.small" horiz-adv-x="505" 
d="M64 0v583h390v-101h-229v-133h205q5 -18 5 -49q0 -33 -5 -53h-205v-146h241v-101h-402zM179 719q0 33 21.5 52.5t57.5 19.5t58.5 -19.5t22.5 -52.5q0 -32 -22.5 -52.5t-58.5 -20.5t-57.5 20.5t-21.5 52.5z" />
    <glyph glyph-name="eogonek.small" horiz-adv-x="505" 
d="M64 0v583h390v-101h-229v-133h205q5 -18 5 -49q0 -33 -5 -53h-205v-146h241v-101q-110 -51 -110 -113q0 -37 47 -37q24 0 44 11l23 -50q-13 -12 -44.5 -23.5t-73.5 -11.5q-113 0 -113 87q0 88 115 137h-290z" />
    <glyph glyph-name="gcircumflex.small" horiz-adv-x="617" 
d="M418 97v127h-94v99h237v-264q-25 -26 -88.5 -49t-154.5 -23q-143 0 -209.5 80.5t-66.5 224.5q0 141 68.5 222t211.5 81q114 0 172 -46.5t65 -126.5q-34 -17 -118 -17q-24 0 -34 1q-5 49 -24 73t-63 24q-57 0 -80 -49t-23 -162q0 -119 25.5 -166t93.5 -47q57 0 82 18z
M162 639l80 145q18 6 78 6q62 0 81 -6l80 -145q-8 -5 -45 -5q-34 0 -45 5l-68 90h-2l-69 -90q-11 -5 -45 -5q-37 0 -45 5z" />
    <glyph glyph-name="gbreve.small" horiz-adv-x="617" 
d="M418 97v127h-94v99h237v-264q-25 -26 -88.5 -49t-154.5 -23q-143 0 -209.5 80.5t-66.5 224.5q0 141 68.5 222t211.5 81q114 0 172 -46.5t65 -126.5q-34 -17 -118 -17q-24 0 -34 1q-5 49 -24 73t-63 24q-57 0 -80 -49t-23 -162q0 -119 25.5 -166t93.5 -47q57 0 82 18z
M172 780q7 4 37 4q26 0 38 -4q12 -66 76 -66q61 0 73 66q12 4 37 4q31 0 38 -4q-2 -26 -9 -49.5t-22.5 -47t-45.5 -37.5t-71 -14q-78 0 -112.5 44.5t-38.5 103.5z" />
    <glyph glyph-name="gdotaccent.small" horiz-adv-x="617" 
d="M418 97v127h-94v99h237v-264q-25 -26 -88.5 -49t-154.5 -23q-143 0 -209.5 80.5t-66.5 224.5q0 141 68.5 222t211.5 81q114 0 172 -46.5t65 -126.5q-34 -17 -118 -17q-24 0 -34 1q-5 49 -24 73t-63 24q-57 0 -80 -49t-23 -162q0 -119 25.5 -166t93.5 -47q57 0 82 18z
M242 719q0 33 21.5 52.5t57.5 19.5t58.5 -19.5t22.5 -52.5q0 -32 -22.5 -52.5t-58.5 -20.5t-57.5 20.5t-21.5 52.5z" />
    <glyph glyph-name="gcommaaccent.small" horiz-adv-x="617" 
d="M418 97v127h-94v99h237v-264q-25 -26 -88.5 -49t-154.5 -23q-143 0 -209.5 80.5t-66.5 224.5q0 141 68.5 222t211.5 81q114 0 172 -46.5t65 -126.5q-34 -17 -118 -17q-24 0 -34 1q-5 49 -24 73t-63 24q-57 0 -80 -49t-23 -162q0 -119 25.5 -166t93.5 -47q57 0 82 18z
M252 -230q50 28 55 61q-31 1 -48 17.5t-17 43.5q0 29 20.5 47t50.5 18q36 0 56.5 -19.5t20.5 -54.5q0 -56 -30 -90t-64 -42q-34 2 -44 19z" />
    <glyph glyph-name="hcircumflex.small" horiz-adv-x="641" 
d="M64 0v583h161v-226h191v226h160v-583h-160v256h-191v-256h-161zM161 639l80 145q18 6 78 6q61 0 81 -6l80 -145q-8 -5 -45 -5q-34 0 -45 5l-68 90h-2l-69 -90q-11 -5 -45 -5q-37 0 -45 5z" />
    <glyph glyph-name="hbar.small" horiz-adv-x="641" 
d="M64 0v439h-40v95h40v49h161v-49h191v49h160v-49h40v-95h-40v-439h-160v256h-191v-256h-161zM225 357h191v82h-191v-82z" />
    <glyph glyph-name="dotlessi.small" horiz-adv-x="289" 
d="M64 0v583h161v-583h-161z" />
    <glyph glyph-name="dotlessj.small" horiz-adv-x="413" 
d="M190 157v426h160v-431q0 -90 -51.5 -127t-158.5 -37q-84 0 -111 12q-4 12 -4 41q0 39 5 51q33 -11 77 -11q47 0 65 17t18 59z" />
    <glyph glyph-name="igrave.small" horiz-adv-x="289" 
d="M64 0v583h161v-583h-161zM112 639l-117 145q16 6 87 6q56 0 72 -6l60 -145q-8 -5 -52 -5q-39 0 -50 5z" />
    <glyph glyph-name="iacute.small" horiz-adv-x="289" 
d="M64 0v583h161v-583h-161zM82 639l59 145q16 6 72 6q71 0 88 -6l-117 -145q-11 -5 -50 -5q-44 0 -52 5z" />
    <glyph glyph-name="icircumflex.small" horiz-adv-x="289" 
d="M64 0v583h161v-583h-161zM-15 639l80 145q18 6 78 6q62 0 81 -6l80 -145q-8 -5 -45 -5q-34 0 -45 5l-68 90h-2l-69 -90q-11 -5 -45 -5q-37 0 -45 5z" />
    <glyph glyph-name="itilde.small" horiz-adv-x="289" 
d="M64 0v583h161v-583h-161zM-36 647q27 130 119 130q34 0 73 -25.5t59 -25.5q31 0 50 48q4 3 28 3t33 -3q-16 -70 -43.5 -100t-66.5 -30q-38 0 -78 26t-59 26q-32 0 -54 -49q-5 -3 -28 -3q-29 0 -33 3z" />
    <glyph glyph-name="idieresis.small" horiz-adv-x="289" 
d="M64 0v583h161v-583h-161zM43 631q-33 0 -52.5 20.5t-19.5 52.5q0 31 19.5 50.5t52.5 19.5q34 0 53.5 -19.5t19.5 -50.5q0 -32 -19.5 -52.5t-53.5 -20.5zM245 631q-33 0 -52.5 20.5t-19.5 52.5q0 31 19.5 50.5t52.5 19.5q34 0 54 -19.5t20 -50.5q0 -32 -20 -52.5
t-54 -20.5z" />
    <glyph glyph-name="imacron.small" horiz-adv-x="289" 
d="M64 0v583h161v-583h-161zM-12 665v95h313v-95h-313z" />
    <glyph glyph-name="ibreve.small" horiz-adv-x="289" 
d="M64 0v583h161v-583h-161zM-5 780q7 4 37 4q26 0 38 -4q12 -66 76 -66q61 0 73 66q12 4 37 4q31 0 38 -4q-2 -26 -9 -49.5t-22.5 -47t-45.5 -37.5t-71 -14q-78 0 -112.5 44.5t-38.5 103.5z" />
    <glyph glyph-name="idotaccent.small" horiz-adv-x="289" 
d="M64 0v583h161v-583h-161zM65 719q0 33 21.5 52.5t57.5 19.5t58.5 -19.5t22.5 -52.5q0 -32 -22.5 -52.5t-58.5 -20.5t-57.5 20.5t-21.5 52.5z" />
    <glyph glyph-name="iogonek.small" horiz-adv-x="289" 
d="M64 0v583h161v-583q-110 -51 -110 -113q0 -37 47 -37q24 0 44 11l23 -50q-13 -12 -44.5 -23.5t-73.5 -11.5q-113 0 -113 87q0 88 115 137h-49z" />
    <glyph glyph-name="ij.small" horiz-adv-x="694" 
d="M64 0v583h161v-583h-161zM471 157v426h160v-431q0 -90 -51.5 -127t-158.5 -37q-84 0 -111 12q-4 12 -4 41q0 39 5 51q33 -11 77 -11q47 0 65 17t18 59z" />
    <glyph glyph-name="jcircumflex.small" horiz-adv-x="413" 
d="M190 157v426h160v-431q0 -90 -51.5 -127t-158.5 -37q-84 0 -111 12q-4 12 -4 41q0 39 5 51q33 -11 77 -11q47 0 65 17t18 59zM109 639l80 145q18 6 78 6q61 0 81 -6l80 -145q-8 -5 -45 -5q-34 0 -45 5l-68 90h-2l-69 -90q-11 -5 -45 -5q-37 0 -45 5z" />
    <glyph glyph-name="kcommaaccent.small" horiz-adv-x="593" 
d="M64 0v583h161v-242h3l187 242h153v-9l-204 -250l212 -316v-8h-181l-167 262h-3v-262h-161zM230 -230q50 28 55 61q-31 1 -48 17.5t-17 43.5q0 29 20.5 47t50.5 18q36 0 56.5 -19.5t20.5 -54.5q0 -56 -30 -90t-64 -42q-34 2 -44 19z" />
    <glyph glyph-name="kgreenlandic.small" horiz-adv-x="593" 
d="M64 0v583h161v-242h3l187 242h153v-9l-204 -250l212 -316v-8h-181l-167 262h-3v-262h-161z" />
    <glyph glyph-name="lacute.small" horiz-adv-x="475" 
d="M64 0v583h161v-483h221v-100h-382zM91 639l59 145q16 6 72 6q72 0 88 -6l-117 -145q-11 -5 -50 -5q-44 0 -52 5z" />
    <glyph glyph-name="lcaron.small" horiz-adv-x="475" 
d="M64 0v583h161v-483h221v-100h-382zM284 373q21 14 38 38.5t21 47.5q-28 4 -44.5 22t-16.5 47q0 34 18 52.5t50 18.5q75 0 75 -83q0 -65 -30 -111t-65 -62q-16 1 -30 11.5t-16 18.5z" />
    <glyph glyph-name="lcommaaccent.small" horiz-adv-x="475" 
d="M64 0v583h161v-483h221v-100h-382zM186 -230q50 28 55 61q-31 1 -48 17.5t-17 43.5q0 29 20.5 47t50.5 18q36 0 56.5 -19.5t20.5 -54.5q0 -56 -30 -90t-64 -42q-34 2 -44 19z" />
    <glyph glyph-name="ldot.small" horiz-adv-x="475" 
d="M64 0v583h161v-483h221v-100h-382zM291 346q0 33 21.5 52.5t57.5 19.5t58.5 -19.5t22.5 -52.5t-22.5 -53t-58.5 -20t-57.5 20t-21.5 53z" />
    <glyph glyph-name="lslash.small" horiz-adv-x="512" 
d="M101 0v168l-62 -31v104l62 32v310h161v-239l125 62v-105l-125 -62v-139h221v-100h-382z" />
    <glyph glyph-name="nacute.small" horiz-adv-x="669" 
d="M64 0v583h199l126 -224q63 -111 84 -182h5q-6 68 -6 174v232h132v-583h-188l-115 206q-85 152 -106 220h-4q6 -62 6 -175v-251h-133zM303 639l59 145q16 6 72 6q72 0 88 -6l-117 -145q-11 -5 -50 -5q-44 0 -52 5z" />
    <glyph glyph-name="ncaron.small" horiz-adv-x="669" 
d="M64 0v583h199l126 -224q63 -111 84 -182h5q-6 68 -6 174v232h132v-583h-188l-115 206q-85 152 -106 220h-4q6 -62 6 -175v-251h-133zM264 645l-80 145q8 5 43 5q32 0 47 -5l69 -91h2l68 91q15 5 46 5q36 0 44 -5l-80 -145q-19 -7 -78 -7q-58 0 -81 7z" />
    <glyph glyph-name="ntilde.small" horiz-adv-x="669" 
d="M64 0v583h199l126 -224q63 -111 84 -182h5q-6 68 -6 174v232h132v-583h-188l-115 206q-85 152 -106 220h-4q6 -62 6 -175v-251h-133zM158 647q27 130 119 130q34 0 73 -25.5t59 -25.5q31 0 50 48q5 3 28 3q24 0 33 -3q-16 -70 -43.5 -100t-66.5 -30q-38 0 -78 26t-59 26
q-32 0 -54 -49q-5 -3 -28 -3q-29 0 -33 3z" />
    <glyph glyph-name="napostrophe.small" horiz-adv-x="669" 
d="M64 0v583h199l126 -224q63 -111 84 -182h5q-6 68 -6 174v232h132v-583h-188l-115 206q-85 152 -106 220h-4q6 -62 6 -175v-251h-133zM25 655q50 28 55 61q-31 1 -48 17.5t-17 43.5q0 29 20.5 47t50.5 18q36 0 56.5 -19.5t20.5 -54.5q0 -56 -30 -90t-64 -42q-34 2 -44 19z
" />
    <glyph glyph-name="ncommaaccent.small" horiz-adv-x="669" 
d="M64 0v583h199l126 -224q63 -111 84 -182h5q-6 68 -6 174v232h132v-583h-188l-115 206q-85 152 -106 220h-4q6 -62 6 -175v-251h-133zM272 -230q50 28 55 61q-31 1 -48 17.5t-17 43.5q0 29 20.5 47t50.5 18q36 0 56.5 -19.5t20.5 -54.5q0 -56 -30 -90t-64 -42
q-34 2 -44 19z" />
    <glyph glyph-name="ograve.small" horiz-adv-x="640" 
d="M320 -13q-141 0 -209.5 81t-68.5 224t68.5 223t209.5 80t209.5 -80t68.5 -223t-68.5 -224t-209.5 -81zM320 79q57 0 80 49.5t23 163.5q0 113 -23.5 162t-79.5 49q-57 0 -80 -49t-23 -162q0 -114 23 -163.5t80 -49.5zM277 639l-117 145q17 6 87 6q55 0 72 -6l60 -145
q-8 -5 -52 -5q-39 0 -50 5z" />
    <glyph glyph-name="oacute.small" horiz-adv-x="640" 
d="M320 -13q-141 0 -209.5 81t-68.5 224t68.5 223t209.5 80t209.5 -80t68.5 -223t-68.5 -224t-209.5 -81zM320 79q57 0 80 49.5t23 163.5q0 113 -23.5 162t-79.5 49q-57 0 -80 -49t-23 -162q0 -114 23 -163.5t80 -49.5zM261 639l59 145q16 6 72 6q72 0 88 -6l-117 -145
q-11 -5 -50 -5q-44 0 -52 5z" />
    <glyph glyph-name="ocircumflex.small" horiz-adv-x="640" 
d="M320 -13q-141 0 -209.5 81t-68.5 224t68.5 223t209.5 80t209.5 -80t68.5 -223t-68.5 -224t-209.5 -81zM320 79q57 0 80 49.5t23 163.5q0 113 -23.5 162t-79.5 49q-57 0 -80 -49t-23 -162q0 -114 23 -163.5t80 -49.5zM160 639l80 145q18 6 78 6q62 0 81 -6l80 -145
q-8 -5 -45 -5q-34 0 -45 5l-68 90h-2l-69 -90q-11 -5 -45 -5q-37 0 -45 5z" />
    <glyph glyph-name="otilde.small" horiz-adv-x="640" 
d="M320 -13q-141 0 -209.5 81t-68.5 224t68.5 223t209.5 80t209.5 -80t68.5 -223t-68.5 -224t-209.5 -81zM320 79q57 0 80 49.5t23 163.5q0 113 -23.5 162t-79.5 49q-57 0 -80 -49t-23 -162q0 -114 23 -163.5t80 -49.5zM139 647q27 130 119 130q34 0 73 -25.5t59 -25.5
q31 0 50 48q4 3 28 3t33 -3q-16 -70 -43.5 -100t-66.5 -30q-38 0 -78 26t-59 26q-32 0 -54 -49q-5 -3 -28 -3q-28 0 -33 3z" />
    <glyph glyph-name="odieresis.small" horiz-adv-x="640" 
d="M320 -13q-141 0 -209.5 81t-68.5 224t68.5 223t209.5 80t209.5 -80t68.5 -223t-68.5 -224t-209.5 -81zM320 79q57 0 80 49.5t23 163.5q0 113 -23.5 162t-79.5 49q-57 0 -80 -49t-23 -162q0 -114 23 -163.5t80 -49.5zM218 631q-33 0 -52.5 20.5t-19.5 52.5q0 31 19.5 50.5
t52.5 19.5q34 0 53.5 -19.5t19.5 -50.5q0 -32 -19.5 -52.5t-53.5 -20.5zM420 631q-33 0 -52.5 20.5t-19.5 52.5q0 31 19.5 50.5t52.5 19.5q34 0 54 -19.5t20 -50.5q0 -32 -20 -52.5t-54 -20.5z" />
    <glyph glyph-name="omacron.small" horiz-adv-x="640" 
d="M320 -13q-141 0 -209.5 81t-68.5 224t68.5 223t209.5 80t209.5 -80t68.5 -223t-68.5 -224t-209.5 -81zM320 79q57 0 80 49.5t23 163.5q0 113 -23.5 162t-79.5 49q-57 0 -80 -49t-23 -162q0 -114 23 -163.5t80 -49.5zM163 665v95h313v-95h-313z" />
    <glyph glyph-name="obreve.small" horiz-adv-x="640" 
d="M320 -13q-141 0 -209.5 81t-68.5 224t68.5 223t209.5 80t209.5 -80t68.5 -223t-68.5 -224t-209.5 -81zM320 79q57 0 80 49.5t23 163.5q0 113 -23.5 162t-79.5 49q-57 0 -80 -49t-23 -162q0 -114 23 -163.5t80 -49.5zM170 780q7 4 37 4q26 0 38 -4q12 -66 76 -66
q61 0 73 66q12 4 37 4q31 0 38 -4q-2 -26 -9 -49.5t-22.5 -47t-45.5 -37.5t-71 -14q-78 0 -112.5 44.5t-38.5 103.5z" />
    <glyph glyph-name="ohungarumlaut.small" horiz-adv-x="640" 
d="M320 -13q-141 0 -209.5 81t-68.5 224t68.5 223t209.5 80t209.5 -80t68.5 -223t-68.5 -224t-209.5 -81zM320 79q57 0 80 49.5t23 163.5q0 113 -23.5 162t-79.5 49q-57 0 -80 -49t-23 -162q0 -114 23 -163.5t80 -49.5zM183 639l43 145q17 6 61 6q58 0 73 -6l-79 -145
q-11 -5 -48 -5q-42 0 -50 5zM350 639l63 145q17 6 65 6q62 0 79 -6l-104 -145q-11 -5 -51 -5q-44 0 -52 5z" />
    <glyph glyph-name="oslash.small" horiz-adv-x="640" 
d="M77 3l41 56q-76 79 -76 233q0 143 68.5 223t209.5 80q95 0 159 -39l34 46l65 -40l-42 -56q62 -78 62 -214q0 -143 -68.5 -224t-209.5 -81q-82 0 -144 30l-37 -50zM221 201l181 248q-23 54 -82 54q-57 0 -80 -49t-23 -162q0 -56 4 -91zM421 349l-174 -235q23 -35 73 -35
q57 0 80 49.5t23 163.5q0 23 -2 57z" />
    <glyph glyph-name="oslashacute.small" horiz-adv-x="640" 
d="M77 3l41 56q-76 79 -76 233q0 143 68.5 223t209.5 80q95 0 159 -39l34 46l65 -40l-42 -56q62 -78 62 -214q0 -143 -68.5 -224t-209.5 -81q-82 0 -144 30l-37 -50zM221 201l181 248q-23 54 -82 54q-57 0 -80 -49t-23 -162q0 -56 4 -91zM421 349l-174 -235q23 -35 73 -35
q57 0 80 49.5t23 163.5q0 23 -2 57zM211 639l59 145q17 6 72 6q72 0 88 -6l-117 -145q-11 -5 -50 -5q-44 0 -52 5z" />
    <glyph glyph-name="oe.small" horiz-adv-x="813" 
d="M533 101h241v-101h-348q-49 -13 -106 -13q-138 0 -206 81.5t-68 223.5q0 141 68.5 222t206.5 81q59 0 102 -12h339v-101h-229v-133h206q4 -15 4 -48q0 -30 -4 -54h-206v-146zM372 86v411q-16 6 -44 6q-57 0 -82.5 -50t-25.5 -161t25.5 -162t82.5 -51q26 0 44 7z" />
    <glyph glyph-name="racute.small" horiz-adv-x="571" 
d="M64 0v583h207q255 0 255 -179q0 -117 -108 -166l124 -230v-8h-169l-101 208h-47v-208h-161zM225 300h27q56 0 84 20.5t28 77.5t-27.5 76.5t-84.5 19.5h-27v-194zM225 639l59 145q16 6 72 6q72 0 88 -6l-117 -145q-11 -5 -50 -5q-44 0 -52 5z" />
    <glyph glyph-name="rcaron.small" horiz-adv-x="571" 
d="M64 0v583h207q255 0 255 -179q0 -117 -108 -166l124 -230v-8h-169l-101 208h-47v-208h-161zM225 300h27q56 0 84 20.5t28 77.5t-27.5 76.5t-84.5 19.5h-27v-194zM204 645l-80 145q8 5 43 5q32 0 47 -5l69 -91h2l68 91q15 5 46 5q36 0 44 -5l-80 -145q-19 -7 -78 -7
q-58 0 -81 7z" />
    <glyph glyph-name="rcommaaccent.small" horiz-adv-x="571" 
d="M64 0v583h207q255 0 255 -179q0 -117 -108 -166l124 -230v-8h-169l-101 208h-47v-208h-161zM225 300h27q56 0 84 20.5t28 77.5t-27.5 76.5t-84.5 19.5h-27v-194zM221 -230q50 28 55 61q-31 1 -48 17.5t-17 43.5q0 29 20.5 47t50.5 18q36 0 56.5 -19.5t20.5 -54.5
q0 -56 -30 -90t-64 -42q-34 2 -44 19z" />
    <glyph glyph-name="sacute.small" horiz-adv-x="545" 
d="M376 422h-16q-2 13 -3.5 19.5t-8 20.5t-15 21.5t-24 14t-36.5 6.5q-35 0 -55 -18t-20 -49q0 -13 6.5 -24t14.5 -18t25 -14.5t28.5 -11.5t35.5 -11.5t36 -11.5q35 -12 59 -23.5t49.5 -31t38.5 -48.5t13 -68q0 -84 -61 -136t-179 -52q-108 0 -164.5 43.5t-69.5 112.5
q17 10 56 17.5t72 7.5q4 0 10 -0.5t9 -0.5q11 -89 97 -89q36 0 57 18.5t21 50.5q0 15 -6.5 27.5t-15 20.5t-26 16.5t-29 12.5t-36.5 11.5t-36 11.5q-34 12 -57.5 23t-47.5 30t-36.5 47t-12.5 65q0 84 61 133.5t170 49.5t162 -44t62 -106q-40 -23 -128 -23zM217 639l59 145
q16 6 72 6q72 0 88 -6l-117 -145q-11 -5 -50 -5q-44 0 -52 5z" />
    <glyph glyph-name="scircumflex.small" horiz-adv-x="545" 
d="M376 422h-16q-2 13 -3.5 19.5t-8 20.5t-15 21.5t-24 14t-36.5 6.5q-35 0 -55 -18t-20 -49q0 -13 6.5 -24t14.5 -18t25 -14.5t28.5 -11.5t35.5 -11.5t36 -11.5q35 -12 59 -23.5t49.5 -31t38.5 -48.5t13 -68q0 -84 -61 -136t-179 -52q-108 0 -164.5 43.5t-69.5 112.5
q17 10 56 17.5t72 7.5q4 0 10 -0.5t9 -0.5q11 -89 97 -89q36 0 57 18.5t21 50.5q0 15 -6.5 27.5t-15 20.5t-26 16.5t-29 12.5t-36.5 11.5t-36 11.5q-34 12 -57.5 23t-47.5 30t-36.5 47t-12.5 65q0 84 61 133.5t170 49.5t162 -44t62 -106q-40 -23 -128 -23zM125 639l80 145
q18 6 78 6q61 0 81 -6l80 -145q-8 -5 -45 -5q-34 0 -45 5l-68 90h-2l-69 -90q-11 -5 -45 -5q-37 0 -45 5z" />
    <glyph glyph-name="scaron.small" horiz-adv-x="545" 
d="M376 422h-16q-2 13 -3.5 19.5t-8 20.5t-15 21.5t-24 14t-36.5 6.5q-35 0 -55 -18t-20 -49q0 -13 6.5 -24t14.5 -18t25 -14.5t28.5 -11.5t35.5 -11.5t36 -11.5q35 -12 59 -23.5t49.5 -31t38.5 -48.5t13 -68q0 -84 -61 -136t-179 -52q-108 0 -164.5 43.5t-69.5 112.5
q17 10 56 17.5t72 7.5q4 0 10 -0.5t9 -0.5q11 -89 97 -89q36 0 57 18.5t21 50.5q0 15 -6.5 27.5t-15 20.5t-26 16.5t-29 12.5t-36.5 11.5t-36 11.5q-34 12 -57.5 23t-47.5 30t-36.5 47t-12.5 65q0 84 61 133.5t170 49.5t162 -44t62 -106q-40 -23 -128 -23zM202 645l-80 145
q8 5 43 5q32 0 47 -5l69 -91h2l68 91q15 5 46 5q36 0 44 -5l-80 -145q-19 -7 -78 -7q-58 0 -81 7z" />
    <glyph glyph-name="scedilla.small" horiz-adv-x="545" 
d="M173 -202l13 43q25 -16 57 -16q43 0 43 36q0 16 -13 27t-28 14.5t-40 7.5l23 79q-90 7 -138 49t-60 105q17 10 56 17.5t72 7.5q4 0 10 -0.5t9 -0.5q11 -89 97 -89q36 0 57 18.5t21 50.5q0 15 -6.5 27.5t-15 20.5t-26 16.5t-29 12.5t-36.5 11.5t-36 11.5q-34 12 -57.5 23
t-47.5 30t-36.5 47t-12.5 65q0 84 61 133.5t170 49.5t162 -44t62 -106q-40 -23 -128 -23h-16q-2 13 -3.5 19.5t-8 20.5t-15 21.5t-24 14t-36.5 6.5q-35 0 -55 -18t-20 -49q0 -13 6.5 -24t14.5 -18t25 -14.5t28.5 -11.5t35.5 -11.5t36 -11.5q35 -12 59 -23.5t49.5 -31
t38.5 -48.5t13 -68q0 -79 -54 -129.5t-158 -57.5l-13 -41q27 -5 45 -11.5t35.5 -26t17.5 -48.5q0 -43 -30.5 -65.5t-78.5 -22.5q-63 0 -95 25z" />
    <glyph glyph-name="scommaaccent.small" horiz-adv-x="545" 
d="M376 422h-16q-2 13 -3.5 19.5t-8 20.5t-15 21.5t-24 14t-36.5 6.5q-35 0 -55 -18t-20 -49q0 -13 6.5 -24t14.5 -18t25 -14.5t28.5 -11.5t35.5 -11.5t36 -11.5q35 -12 59 -23.5t49.5 -31t38.5 -48.5t13 -68q0 -84 -61 -136t-179 -52q-108 0 -164.5 43.5t-69.5 112.5
q17 10 56 17.5t72 7.5q4 0 10 -0.5t9 -0.5q11 -89 97 -89q36 0 57 18.5t21 50.5q0 15 -6.5 27.5t-15 20.5t-26 16.5t-29 12.5t-36.5 11.5t-36 11.5q-34 12 -57.5 23t-47.5 30t-36.5 47t-12.5 65q0 84 61 133.5t170 49.5t162 -44t62 -106q-40 -23 -128 -23zM209 -230
q50 28 55 61q-31 1 -48 17.5t-17 43.5q0 29 20.5 47t50.5 18q36 0 56.5 -19.5t20.5 -54.5q0 -56 -30 -90t-64 -42q-34 2 -44 19z" />
    <glyph glyph-name="germandbls.small" horiz-adv-x="1076" 
d="M376 422h-16q-2 13 -3.5 19.5t-8 20.5t-15 21.5t-24 14t-36.5 6.5q-35 0 -55 -18t-20 -49q0 -13 6.5 -24t14.5 -18t25 -14.5t28.5 -11.5t35.5 -11.5t36 -11.5q35 -12 59 -23.5t49.5 -31t38.5 -48.5t13 -68q0 -84 -61 -136t-179 -52q-108 0 -164.5 43.5t-69.5 112.5
q17 10 56 17.5t72 7.5q4 0 10 -0.5t9 -0.5q11 -89 97 -89q36 0 57 18.5t21 50.5q0 15 -6.5 27.5t-15 20.5t-26 16.5t-29 12.5t-36.5 11.5t-36 11.5q-34 12 -57.5 23t-47.5 30t-36.5 47t-12.5 65q0 84 61 133.5t170 49.5t162 -44t62 -106q-40 -23 -128 -23zM907 422h-16
q-2 13 -3.5 19.5t-8 20.5t-15 21.5t-24 14t-36.5 6.5q-35 0 -55 -18t-20 -49q0 -13 6.5 -24t14.5 -18t25 -14.5t28.5 -11.5t35.5 -11.5t36 -11.5q35 -12 59 -23.5t49.5 -31t38.5 -48.5t13 -68q0 -84 -61 -136t-179 -52q-108 0 -164.5 43.5t-69.5 112.5q17 10 56 17.5t72 7.5
q4 0 10 -0.5t9 -0.5q11 -89 97 -89q36 0 57 18.5t21 50.5q0 15 -6.5 27.5t-15 20.5t-26 16.5t-29 12.5t-36.5 11.5t-36 11.5q-34 12 -57.5 23t-47.5 30t-36.5 47t-12.5 65q0 84 61 133.5t170 49.5t162 -44t62 -106q-40 -23 -128 -23z" />
    <glyph glyph-name="tcaron.small" horiz-adv-x="496" 
d="M168 0v482h-146v101h452v-101h-145v-482h-161zM168 645l-80 145q8 5 43 5q32 0 47 -5l69 -91h2l68 91q15 5 46 5q36 0 44 -5l-80 -145q-19 -7 -78 -7q-58 0 -81 7z" />
    <glyph glyph-name="tcommaaccent.small" horiz-adv-x="496" 
d="M157 -202l13 43q25 -16 57 -16q43 0 43 36q0 16 -13 27t-28 14.5t-40 7.5l27 90h-48v482h-146v101h452v-101h-145v-482h-50l-16 -53q27 -5 45 -11.5t35.5 -26t17.5 -48.5q0 -43 -30.5 -65.5t-78.5 -22.5q-63 0 -95 25z" />
    <glyph glyph-name="uni021B.small" horiz-adv-x="496" 
d="M168 0v482h-146v101h452v-101h-145v-482h-161zM183 -230q50 28 55 61q-31 1 -48 17.5t-17 43.5q0 29 20.5 47t50.5 18q36 0 56.5 -19.5t20.5 -54.5q0 -56 -30 -90t-64 -42q-34 2 -44 19z" />
    <glyph glyph-name="tbar.small" horiz-adv-x="496" 
d="M168 0v251h-77v95h77v136h-146v101h452v-101h-145v-136h75v-95h-75v-251h-161z" />
    <glyph glyph-name="ugrave.small" horiz-adv-x="612" 
d="M62 217v366h161v-365q0 -60 24 -87.5t73 -27.5q50 0 74.5 27.5t24.5 88.5v364h131v-365q0 -114 -54 -172.5t-188 -58.5q-135 0 -190.5 58t-55.5 172zM281 639l-117 145q16 6 87 6q55 0 72 -6l60 -145q-8 -5 -52 -5q-39 0 -50 5z" />
    <glyph glyph-name="uacute.small" horiz-adv-x="612" 
d="M62 217v366h161v-365q0 -60 24 -87.5t73 -27.5q50 0 74.5 27.5t24.5 88.5v364h131v-365q0 -114 -54 -172.5t-188 -58.5q-135 0 -190.5 58t-55.5 172zM263 639l59 145q17 6 72 6q72 0 88 -6l-117 -145q-11 -5 -50 -5q-44 0 -52 5z" />
    <glyph glyph-name="ucircumflex.small" horiz-adv-x="612" 
d="M62 217v366h161v-365q0 -60 24 -87.5t73 -27.5q50 0 74.5 27.5t24.5 88.5v364h131v-365q0 -114 -54 -172.5t-188 -58.5q-135 0 -190.5 58t-55.5 172zM155 639l80 145q18 6 78 6q61 0 81 -6l80 -145q-8 -5 -45 -5q-34 0 -45 5l-68 90h-2l-69 -90q-11 -5 -45 -5
q-37 0 -45 5z" />
    <glyph glyph-name="utilde.small" horiz-adv-x="612" 
d="M62 217v366h161v-365q0 -60 24 -87.5t73 -27.5q50 0 74.5 27.5t24.5 88.5v364h131v-365q0 -114 -54 -172.5t-188 -58.5q-135 0 -190.5 58t-55.5 172zM136 647q27 130 119 130q34 0 73 -25.5t59 -25.5q31 0 50 48q5 3 28 3q24 0 33 -3q-16 -70 -43.5 -100t-66.5 -30
q-38 0 -78 26t-59 26q-32 0 -54 -49q-5 -3 -28 -3q-29 0 -33 3z" />
    <glyph glyph-name="udieresis.small" horiz-adv-x="612" 
d="M62 217v366h161v-365q0 -60 24 -87.5t73 -27.5q50 0 74.5 27.5t24.5 88.5v364h131v-365q0 -114 -54 -172.5t-188 -58.5q-135 0 -190.5 58t-55.5 172zM216 631q-33 0 -52.5 20.5t-19.5 52.5q0 31 19.5 50.5t52.5 19.5q34 0 53.5 -19.5t19.5 -50.5q0 -32 -19.5 -52.5
t-53.5 -20.5zM418 631q-33 0 -52.5 20.5t-19.5 52.5q0 31 19.5 50.5t52.5 19.5q34 0 54 -19.5t20 -50.5q0 -32 -20 -52.5t-54 -20.5z" />
    <glyph glyph-name="umacron.small" horiz-adv-x="612" 
d="M62 217v366h161v-365q0 -60 24 -87.5t73 -27.5q50 0 74.5 27.5t24.5 88.5v364h131v-365q0 -114 -54 -172.5t-188 -58.5q-135 0 -190.5 58t-55.5 172zM160 665v95h313v-95h-313z" />
    <glyph glyph-name="ubreve.small" horiz-adv-x="612" 
d="M62 217v366h161v-365q0 -60 24 -87.5t73 -27.5q50 0 74.5 27.5t24.5 88.5v364h131v-365q0 -114 -54 -172.5t-188 -58.5q-135 0 -190.5 58t-55.5 172zM167 780q7 4 37 4q26 0 38 -4q12 -66 76 -66q61 0 73 66q12 4 37 4q31 0 38 -4q-2 -26 -9 -49.5t-22.5 -47t-45.5 -37.5
t-71 -14q-78 0 -112.5 44.5t-38.5 103.5z" />
    <glyph glyph-name="uring.small" horiz-adv-x="612" 
d="M62 217v366h161v-365q0 -60 24 -87.5t73 -27.5q50 0 74.5 27.5t24.5 88.5v364h131v-365q0 -114 -54 -172.5t-188 -58.5q-135 0 -190.5 58t-55.5 172zM210 722q0 45 30 73.5t78 28.5t78 -28.5t30 -73.5t-30.5 -73t-77.5 -28t-77.5 28t-30.5 73zM318 670q22 0 33 14.5
t11 37.5q0 24 -11 38.5t-33 14.5t-33 -14.5t-11 -38.5q0 -23 11 -37.5t33 -14.5z" />
    <glyph glyph-name="uhungarumlaut.small" horiz-adv-x="612" 
d="M62 217v366h161v-365q0 -60 24 -87.5t73 -27.5q50 0 74.5 27.5t24.5 88.5v364h131v-365q0 -114 -54 -172.5t-188 -58.5q-135 0 -190.5 58t-55.5 172zM175 639l43 145q16 6 61 6q58 0 73 -6l-79 -145q-11 -5 -48 -5q-42 0 -50 5zM342 639l63 145q16 6 65 6q62 0 79 -6
l-104 -145q-11 -5 -51 -5q-44 0 -52 5z" />
    <glyph glyph-name="uogonek.small" horiz-adv-x="612" 
d="M62 217v366h161v-365q0 -60 24 -87.5t73 -27.5q50 0 74.5 27.5t24.5 88.5v364h131v-365q0 -144 -83 -195q-110 -68 -110 -136q0 -37 47 -37q24 0 44 11l23 -50q-13 -12 -44.5 -23.5t-73.5 -11.5q-113 0 -113 87q0 71 75 124h-7q-135 0 -190.5 58t-55.5 172z" />
    <glyph glyph-name="wgrave.small" horiz-adv-x="862" 
d="M167 0l-143 574v9h169l50 -242q27 -129 31 -189h3q8 81 36 189l62 242h147l60 -242q27 -110 33 -185h4q6 72 31 185l54 242h134v-9l-146 -574h-168l-45 182q-29 114 -40 203h-3q-14 -87 -46 -206l-47 -179h-176zM401 639l-117 145q16 6 87 6q55 0 72 -6l60 -145
q-8 -5 -52 -5q-39 0 -50 5z" />
    <glyph glyph-name="wacute.small" horiz-adv-x="862" 
d="M167 0l-143 574v9h169l50 -242q27 -129 31 -189h3q8 81 36 189l62 242h147l60 -242q27 -110 33 -185h4q6 72 31 185l54 242h134v-9l-146 -574h-168l-45 182q-29 114 -40 203h-3q-14 -87 -46 -206l-47 -179h-176zM393 639l59 145q16 6 72 6q72 0 88 -6l-117 -145
q-11 -5 -50 -5q-44 0 -52 5z" />
    <glyph glyph-name="wcircumflex.small" horiz-adv-x="862" 
d="M167 0l-143 574v9h169l50 -242q27 -129 31 -189h3q8 81 36 189l62 242h147l60 -242q27 -110 33 -185h4q6 72 31 185l54 242h134v-9l-146 -574h-168l-45 182q-29 114 -40 203h-3q-14 -87 -46 -206l-47 -179h-176zM284 639l80 145q18 6 78 6q62 0 81 -6l80 -145
q-8 -5 -45 -5q-34 0 -45 5l-68 90h-2l-69 -90q-11 -5 -45 -5q-37 0 -45 5z" />
    <glyph glyph-name="wdieresis.small" horiz-adv-x="862" 
d="M167 0l-143 574v9h169l50 -242q27 -129 31 -189h3q8 81 36 189l62 242h147l60 -242q27 -110 33 -185h4q6 72 31 185l54 242h134v-9l-146 -574h-168l-45 182q-29 114 -40 203h-3q-14 -87 -46 -206l-47 -179h-176zM346 631q-33 0 -52.5 20.5t-19.5 52.5q0 31 19.5 50.5
t52.5 19.5q34 0 53.5 -19.5t19.5 -50.5q0 -32 -19.5 -52.5t-53.5 -20.5zM548 631q-33 0 -52.5 20.5t-19.5 52.5q0 31 19.5 50.5t52.5 19.5q34 0 54 -19.5t20 -50.5q0 -32 -20 -52.5t-54 -20.5z" />
    <glyph glyph-name="uni1E8B.small" horiz-adv-x="584" 
d="M24 0v8l181 282l-169 284v9h167l104 -187l111 187h137v-9l-171 -269l176 -297v-8h-168l-110 196l-121 -196h-137zM224 719q0 33 21.5 52.5t57.5 19.5t58.5 -19.5t22.5 -52.5q0 -32 -22.5 -52.5t-58.5 -20.5t-57.5 20.5t-21.5 52.5z" />
    <glyph glyph-name="ygrave.small" horiz-adv-x="572" 
d="M205 0v209l-189 365v9h172l112 -239h4l116 239h136v-9l-191 -367v-207h-160zM256 639l-117 145q16 6 87 6q56 0 72 -6l60 -145q-8 -5 -52 -5q-39 0 -50 5z" />
    <glyph glyph-name="yacute.small" horiz-adv-x="572" 
d="M205 0v209l-189 365v9h172l112 -239h4l116 239h136v-9l-191 -367v-207h-160zM242 639l59 145q17 6 72 6q72 0 88 -6l-117 -145q-11 -5 -50 -5q-44 0 -52 5z" />
    <glyph glyph-name="ycircumflex.small" horiz-adv-x="572" 
d="M205 0v209l-189 365v9h172l112 -239h4l116 239h136v-9l-191 -367v-207h-160zM141 639l80 145q18 6 78 6q61 0 81 -6l80 -145q-8 -5 -45 -5q-34 0 -45 5l-68 90h-2l-69 -90q-11 -5 -45 -5q-37 0 -45 5z" />
    <glyph glyph-name="ydieresis.small" horiz-adv-x="572" 
d="M205 0v209l-189 365v9h172l112 -239h4l116 239h136v-9l-191 -367v-207h-160zM196 631q-33 0 -52.5 20.5t-19.5 52.5q0 31 19.5 50.5t52.5 19.5q34 0 53.5 -19.5t19.5 -50.5q0 -32 -19.5 -52.5t-53.5 -20.5zM398 631q-33 0 -52.5 20.5t-19.5 52.5q0 31 19.5 50.5
t52.5 19.5q34 0 54 -19.5t20 -50.5q0 -32 -20 -52.5t-54 -20.5z" />
    <glyph glyph-name="zacute.small" horiz-adv-x="558" 
d="M38 0v68l287 414h-275v101h470v-67l-288 -415h287v-101h-481zM225 639l59 145q16 6 72 6q72 0 88 -6l-117 -145q-11 -5 -50 -5q-44 0 -52 5z" />
    <glyph glyph-name="zcaron.small" horiz-adv-x="558" 
d="M38 0v68l287 414h-275v101h470v-67l-288 -415h287v-101h-481zM224 645l-80 145q8 5 43 5q32 0 47 -5l69 -91h2l68 91q15 5 46 5q36 0 44 -5l-80 -145q-19 -7 -78 -7q-58 0 -81 7z" />
    <glyph glyph-name="zdotaccent.small" horiz-adv-x="558" 
d="M38 0v68l287 414h-275v101h470v-67l-288 -415h287v-101h-481zM217 719q0 33 21.5 52.5t57.5 19.5t58.5 -19.5t22.5 -52.5q0 -32 -22.5 -52.5t-58.5 -20.5t-57.5 20.5t-21.5 52.5z" />
    <glyph glyph-name="uni01B6.small" horiz-adv-x="558" 
d="M38 0v68l127 184h-115v95h181l94 135h-275v101h470v-67l-117 -169h117v-95h-183l-105 -151h287v-101h-481z" />
    <glyph glyph-name="eng.small" horiz-adv-x="669" 
d="M64 0v583h199l126 -224q63 -111 84 -182h5q-6 68 -6 174v232h132v-615q0 -94 -44.5 -131.5t-138.5 -37.5q-46 0 -72 7q-3 12 -3 38q0 34 4 49q14 -6 44 -6q75 0 75 71v42h-53l-115 206q-85 152 -106 220h-4q6 -62 6 -175v-251h-133z" />
    <glyph glyph-name="eth.small" horiz-adv-x="640" 
d="M85 0v247h-58v91h58v245h206q307 0 307 -291q0 -292 -307 -292h-206zM246 92h42q72 0 103.5 45.5t31.5 154.5q0 110 -31.5 154.5t-104.5 44.5h-41v-153h101v-91h-101v-155z" />
    <glyph glyph-name="thorn.small" horiz-adv-x="573" 
d="M64 0v583h161v-95h36q268 0 268 -187t-268 -187h-36v-114h-161zM225 209h28q56 0 83 19.5t27 73.5t-27 74t-83 20h-28v-187z" />
    <glyph glyph-name="uni0259.small" horiz-adv-x="633" 
d="M48 316h361q-3 99 -28 144t-79 45q-71 0 -92 -94h-18q-31 0 -74.5 5.5t-58.5 14.5q46 164 248 164q141 0 209.5 -80.5t68.5 -223.5q0 -146 -70 -225t-205 -79q-134 0 -199 75t-65 197q0 25 2 57zM408 233h-195q0 -81 22 -119t73 -38q48 0 72 36.5t28 120.5z" />
    <glyph glyph-name="i.TRK" horiz-adv-x="266" 
d="M50 656q0 35 22 55t60 20q39 0 62 -20.5t23 -54.5q0 -35 -23 -56t-62 -21q-38 0 -60 21t-22 56zM55 0v520q88 0 155 8v-406q0 -103 10 -122h-165z" />
    <glyph glyph-name="grave.cap" horiz-adv-x="327" 
d="M169 751l-115 129q16 6 88 6q56 0 73 -6l58 -129q-8 -5 -51 -5q-38 0 -53 5z" />
    <glyph glyph-name="grave.small" horiz-adv-x="327" 
d="M171 639l-117 145q16 6 87 6q55 0 72 -6l60 -145q-8 -5 -52 -5q-39 0 -50 5z" />
    <glyph glyph-name="acute.cap" horiz-adv-x="327" 
d="M54 751l58 129q17 6 73 6q71 0 88 -6l-115 -129q-15 -5 -53 -5q-43 0 -51 5z" />
    <glyph glyph-name="acute.small" horiz-adv-x="327" 
d="M55 639l59 145q17 6 72 6q72 0 88 -6l-117 -145q-11 -5 -50 -5q-44 0 -52 5z" />
    <glyph glyph-name="circumflex.cap" horiz-adv-x="414" 
d="M44 752l84 128q19 7 78 7q56 0 81 -7l83 -128q-8 -5 -43 -5q-31 0 -46 5l-73 72h-2l-72 -72q-15 -5 -47 -5q-35 0 -43 5z" />
    <glyph glyph-name="circumflex.small" horiz-adv-x="427" 
d="M54 639l80 145q18 6 78 6q62 0 81 -6l80 -145q-8 -5 -45 -5q-34 0 -45 5l-68 90h-2l-69 -90q-11 -5 -45 -5q-37 0 -45 5z" />
    <glyph glyph-name="caron.cap" horiz-adv-x="414" 
d="M128 752l-84 128q8 5 43 5q32 0 47 -5l72 -72h2l73 72q15 5 46 5q35 0 43 -5l-83 -128q-25 -7 -81 -7q-59 0 -78 7z" />
    <glyph glyph-name="caron.alt" horiz-adv-x="254" 
d="M59 489q21 14 38 38.5t21 47.5q-28 4 -44.5 22t-16.5 47q0 34 18 52.5t50 18.5q75 0 75 -83q0 -65 -30 -111t-65 -62q-16 1 -30 11.5t-16 18.5z" />
    <glyph glyph-name="caron.small" horiz-adv-x="427" 
d="M134 645l-80 145q8 5 43 5q32 0 47 -5l69 -91h2l68 91q15 5 46 5q36 0 44 -5l-80 -145q-19 -7 -78 -7q-58 0 -81 7z" />
    <glyph glyph-name="commaaccent" horiz-adv-x="275" 
d="M75 -230q50 28 55 61q-31 1 -48 17.5t-17 43.5q0 29 20.5 47t50.5 18q36 0 56.5 -19.5t20.5 -54.5q0 -56 -30 -90t-64 -42q-34 2 -44 19z" />
    <glyph glyph-name="commaaccent.alt" horiz-adv-x="275" 
d="M155 792q37 -2 45 -19q-48 -27 -55 -68q65 -10 65 -62q0 -30 -19 -48t-52 -18q-35 0 -56 20.5t-21 55.5q0 57 30 94.5t63 44.5z" />
    <glyph glyph-name="tilde.cap" horiz-adv-x="470" 
d="M60 748q29 131 122 131q32 0 70.5 -26t58.5 -26q18 0 29 11.5t21 37.5q6 2 28 2q28 0 34 -2q-17 -71 -45.5 -101t-68.5 -30q-36 0 -75 26t-59 26q-33 0 -53 -49q-4 -3 -29 -3q-29 0 -33 3z" />
    <glyph glyph-name="tilde.small" horiz-adv-x="470" 
d="M54 647q27 130 119 130q34 0 73 -25.5t59 -25.5q31 0 50 48q4 3 28 3t33 -3q-16 -70 -43.5 -100t-66.5 -30q-38 0 -78 26t-59 26q-32 0 -54 -49q-5 -3 -28 -3q-29 0 -33 3z" />
    <glyph glyph-name="dieresis.cap" horiz-adv-x="459" 
d="M123 738q-33 0 -52.5 20.5t-19.5 52.5q0 31 19.5 50.5t52.5 19.5q34 0 53.5 -19.5t19.5 -50.5q0 -32 -19.5 -52.5t-53.5 -20.5zM335 738q-33 0 -52.5 20.5t-19.5 52.5q0 31 19.5 50.5t52.5 19.5q34 0 54 -19.5t20 -50.5q0 -32 -20 -52.5t-54 -20.5z" />
    <glyph glyph-name="dieresis.small" horiz-adv-x="446" 
d="M121 631q-33 0 -52.5 20.5t-19.5 52.5q0 31 19.5 50.5t52.5 19.5q34 0 53.5 -19.5t19.5 -50.5q0 -32 -19.5 -52.5t-53.5 -20.5zM323 631q-33 0 -52.5 20.5t-19.5 52.5q0 31 19.5 50.5t52.5 19.5q34 0 54 -19.5t20 -50.5q0 -32 -20 -52.5t-54 -20.5z" />
    <glyph glyph-name="macron.cap" horiz-adv-x="427" 
d="M57 765v95h313v-95h-313z" />
    <glyph glyph-name="macron.small" horiz-adv-x="427" 
d="M57 665v95h313v-95h-313z" />
    <glyph glyph-name="breve.cap" horiz-adv-x="407" 
d="M54 878q8 5 39 5q24 0 36 -4q11 -58 76 -58q62 0 73 58q11 4 36 4q31 0 39 -5q-4 -56 -39 -97t-109 -41t-110.5 41.5t-40.5 96.5z" />
    <glyph glyph-name="breve.small" horiz-adv-x="407" 
d="M54 780q7 4 37 4q26 0 38 -4q12 -66 76 -66q61 0 73 66q12 4 37 4q31 0 38 -4q-2 -26 -9 -49.5t-22.5 -47t-45.5 -37.5t-71 -14q-78 0 -112.5 44.5t-38.5 103.5z" />
    <glyph glyph-name="ring.cap" horiz-adv-x="318" 
d="M51 822q0 45 30 73.5t78 28.5t78 -28.5t30 -73.5t-30.5 -73t-77.5 -28t-77.5 28t-30.5 73zM159 770q22 0 33 14.5t11 37.5q0 24 -11 38.5t-33 14.5t-33 -14.5t-11 -38.5q0 -23 11 -37.5t33 -14.5z" />
    <glyph glyph-name="ring.small" horiz-adv-x="318" 
d="M51 722q0 45 30 73.5t78 28.5t78 -28.5t30 -73.5t-30.5 -73t-77.5 -28t-77.5 28t-30.5 73zM159 670q22 0 33 14.5t11 37.5q0 24 -11 38.5t-33 14.5t-33 -14.5t-11 -38.5q0 -23 11 -37.5t33 -14.5z" />
    <glyph glyph-name="hungarumlaut.cap" horiz-adv-x="485" 
d="M54 751l39 129q17 6 61 6q58 0 73 -6l-75 -129q-15 -5 -50 -5q-40 0 -48 5zM229 751l59 129q15 6 65 6q63 0 78 -6l-99 -129q-15 -5 -53 -5q-42 0 -50 5z" />
    <glyph glyph-name="hungarumlaut.small" horiz-adv-x="482" 
d="M54 639l43 145q16 6 61 6q58 0 73 -6l-79 -145q-11 -5 -48 -5q-42 0 -50 5zM221 639l63 145q16 6 65 6q63 0 79 -6l-104 -145q-11 -5 -51 -5q-44 0 -52 5z" />
    <glyph glyph-name="dotaccent.cap" horiz-adv-x="291" 
d="M72 818q0 30 20 47.5t53 17.5t53.5 -17.5t20.5 -47.5t-20.5 -47.5t-53.5 -17.5t-53 17.5t-20 47.5z" />
    <glyph glyph-name="dotaccent.small" horiz-adv-x="270" 
d="M55 719q0 33 21.5 52.5t57.5 19.5t58.5 -19.5t22.5 -52.5q0 -32 -22.5 -52.5t-58.5 -20.5t-57.5 20.5t-21.5 52.5z" />
    <glyph glyph-name="hyphen.cap" horiz-adv-x="387" 
d="M46 298v121h294v-121h-294z" />
    <glyph glyph-name="exclamdown.cap" horiz-adv-x="279" 
d="M189 500l27 -494q-19 -10 -83 -10q-65 0 -85 10l27 494h114zM132 714q35 0 58.5 -24t23.5 -58q0 -33 -23 -56t-59 -23t-59.5 23t-23.5 56q0 34 23.5 58t59.5 24z" />
    <glyph glyph-name="questiondown.cap" horiz-adv-x="491" 
d="M346 502v-39q0 -47 -17.5 -80.5t-43 -53t-51 -38t-43 -47.5t-17.5 -70q0 -84 76 -84q73 0 89 89q92 -4 136 -33q-6 -29 -20 -54t-39.5 -48.5t-69.5 -37.5t-102 -14q-114 0 -172 51.5t-58 127.5q0 52 20 92t49 64.5t58.5 46t51.5 48t25 58.5l2 22h126zM367 633
q0 -33 -23.5 -56t-59.5 -23t-59 23t-23 56q0 34 23.5 58t58.5 24q36 0 59.5 -24t23.5 -58z" />
    <glyph glyph-name="endash.cap" horiz-adv-x="587" 
d="M46 298v121h494v-121h-494z" />
    <glyph glyph-name="emdash.cap" horiz-adv-x="807" 
d="M46 298v121h714v-121h-714z" />
    <glyph glyph-name="parenleft.cap" horiz-adv-x="454" 
d="M413 -50v-81q-163 3 -254.5 119.5t-91.5 343.5q0 228 91.5 343.5t254.5 118.5v-81q-84 -12 -127 -110.5t-43 -271.5t43 -271t127 -110z" />
    <glyph glyph-name="parenright.cap" horiz-adv-x="454" 
d="M41 -131v81q84 12 127 110t43 271t-43 271.5t-127 110.5v81q163 -3 254.5 -118.5t91.5 -343.5q0 -227 -91.5 -343.5t-254.5 -119.5z" />
    <glyph glyph-name="bracketleft.cap" horiz-adv-x="439" 
d="M108 -110v890h290v-80h-132v-730h132v-80h-290z" />
    <glyph glyph-name="bracketright.cap" horiz-adv-x="439" 
d="M41 -110v80h132v730h-132v80h291v-890h-291z" />
    <glyph glyph-name="braceleft.cap" horiz-adv-x="408" 
d="M367 -49v-73q-77 0 -120.5 7t-72.5 30t-38.5 60.5t-9.5 104.5q0 102 -12 145.5t-58 67.5v82q46 24 58 67.5t12 145.5q0 67 9.5 104.5t38.5 60.5t72.5 30t120.5 7v-73q-63 -1 -77.5 -24t-14.5 -118q0 -108 -19.5 -159t-70.5 -82q51 -31 70.5 -82t19.5 -159q0 -95 14 -118
t78 -24z" />
    <glyph glyph-name="braceright.cap" horiz-adv-x="408" 
d="M41 -116v73q64 1 78.5 24.5t14.5 117.5q0 108 19.5 159t69.5 82q-50 31 -69.5 82t-19.5 159q0 94 -14.5 117.5t-78.5 24.5v73q77 0 120.5 -7t72.5 -30t38.5 -60.5t9.5 -104.5q0 -102 12 -145.5t58 -67.5v-82q-46 -24 -58 -67.5t-12 -145.5q0 -67 -9.5 -104.5t-38.5 -60.5
t-72.5 -30t-120.5 -7z" />
    <glyph glyph-name="at.cap" horiz-adv-x="1022" 
d="M611 534l8 43q84 0 135 5l-54 -309q-8 -46 -8 -71q0 -32 11.5 -45t37.5 -13q61 0 97.5 72.5t36.5 187.5q0 150 -94.5 238.5t-268.5 88.5q-171 0 -268 -108.5t-97 -284.5q0 -180 95 -287t272 -107q98 0 167 31q20 -22 20 -65q-83 -37 -191 -37q-141 0 -245.5 63.5
t-157 167.5t-52.5 233q0 198 124.5 331t332.5 133q209 0 332 -112t123 -283q0 -140 -69 -232t-184 -92q-121 0 -150 68q-65 -67 -154 -67q-154 0 -154 186q0 41 7.5 83.5t26 85.5t45.5 76t69.5 54t93.5 21q73 0 113 -55zM561 282l34 201q-23 19 -63 19q-37 0 -64.5 -27
t-40 -68.5t-18 -77.5t-5.5 -67q0 -48 15.5 -71t52.5 -23q47 0 81 34q0 31 8 80z" />
    <glyph glyph-name="registered.alt" horiz-adv-x="790" 
d="M395 -15q-155 0 -259.5 106t-104.5 259t104.5 259t259.5 106t259.5 -106t104.5 -259t-104.5 -259t-259.5 -106zM395 43q132 0 216 88.5t84 218.5q0 131 -83.5 219t-216.5 88t-216 -88t-83 -219t83.5 -219t215.5 -88zM251 138v435h124q182 0 182 -127q0 -94 -107 -120v-2
q33 -11 54 -53l65 -128v-5h-101l-47 109q-17 38 -30 48t-48 11v-168h-92zM343 363h32q86 0 86 75q0 43 -21.5 59t-64.5 16h-32v-150z" />
    <glyph glyph-name="zero.oldstyle" horiz-adv-x="601" 
d="M301 -14q-133 0 -201.5 81.5t-68.5 224.5q0 141 68.5 222.5t200.5 81.5q133 0 201.5 -81.5t68.5 -222.5q0 -142 -68.5 -224t-200.5 -82zM300 74q55 0 75.5 47t20.5 171q0 123 -20.5 169.5t-75.5 46.5q-54 0 -75 -47t-21 -169q0 -124 21 -171t75 -47z" />
    <glyph glyph-name="one.oldstyle" horiz-adv-x="471" 
d="M40 0v93h129v362l-131 -30v98q19 5 182 60h110v-490h117v-93h-407z" />
    <glyph glyph-name="two.oldstyle" horiz-adv-x="568" 
d="M27 0v103q15 11 60 35.5t86.5 50.5t85.5 60t70.5 76.5t26.5 87.5q0 89 -81 89t-100 -123q-113 4 -147 30q12 77 72.5 132t181.5 55q117 0 178.5 -52t61.5 -138q0 -24 -7 -47.5t-16 -42t-27 -38t-31 -32.5t-39 -29.5t-38.5 -24.5t-41.5 -22t-37 -17.5t-36 -14.5l-28 -12
v-2h308v-124h-502z" />
    <glyph glyph-name="three.oldstyle" horiz-adv-x="545" 
d="M167 208v92h28q75 0 107.5 29t32.5 86q0 87 -83 87q-73 0 -92 -84q-36 2 -78 12t-56 21q16 64 75 104.5t165 40.5q111 0 172 -46.5t61 -128.5q0 -66 -36 -104.5t-94 -52.5v-4q62 -11 102 -51t40 -114q0 -95 -67 -149.5t-186 -54.5q-107 0 -166.5 40t-73.5 97q17 13 58 25
t75 16q23 -84 99 -84q47 0 72 29.5t25 78.5q0 57 -35 86t-117 29h-28z" />
    <glyph glyph-name="four.oldstyle" horiz-adv-x="590" 
d="M24 56v103l294 424h174v-419h74v-108h-74v-149h-161v149h-307zM147 164h184v119q0 51 3 159h-2q-30 -57 -90 -142z" />
    <glyph glyph-name="five.oldstyle" horiz-adv-x="552" 
d="M43 199l13 384h436v-124h-339l-7 -168q50 47 151 47q111 0 167 -57.5t56 -152.5q0 -111 -69.5 -173.5t-191.5 -62.5q-99 0 -158 39.5t-77 99.5q17 13 56 25.5t73 17.5q25 -88 101 -88q49 0 75 33t26 94q0 54 -23.5 89t-77.5 35q-59 0 -91 -38h-120z" />
    <glyph glyph-name="six.oldstyle" horiz-adv-x="591" 
d="M213 366q56 48 147 48q103 0 150.5 -55.5t47.5 -140.5q0 -101 -64 -167t-184 -66q-134 0 -201.5 89t-67.5 253q0 172 71.5 267.5t209.5 95.5q185 0 225 -165q-17 -14 -62.5 -23.5t-86.5 -9.5q-10 56 -30 83.5t-55 27.5q-48 0 -72 -53.5t-28 -183.5zM213 285
q3 -116 25.5 -164.5t70.5 -48.5q85 0 85 130q0 62 -21.5 92t-68.5 30q-52 0 -91 -39z" />
    <glyph glyph-name="seven.oldstyle" horiz-adv-x="530" 
d="M89 -93v10l293 542h-354v124h480v-115l-237 -561h-182z" />
    <glyph glyph-name="eight.oldstyle" horiz-adv-x="590" 
d="M169 360v3q-111 36 -111 147q0 82 63 131t176 49q112 0 174 -49t62 -131q0 -110 -111 -148v-2q136 -42 136 -173q0 -94 -66.5 -148t-195.5 -54t-196.5 54.5t-67.5 148.5q0 130 137 172zM296 73q93 0 93 121q0 122 -93 122q-95 0 -95 -122q0 -121 95 -121zM296 402
q83 0 83 102q0 98 -83 98q-84 0 -84 -98q0 -102 84 -102z" />
    <glyph glyph-name="nine.oldstyle" horiz-adv-x="591" 
d="M191 88q18 -110 88 -110q46 0 69.5 50t27.5 174q-55 -45 -141 -45q-102 0 -152 59t-50 147q0 100 63.5 166.5t184.5 66.5q138 0 203.5 -91t65.5 -253q0 -172 -70.5 -266.5t-209.5 -94.5q-184 0 -228 164q23 13 68 22.5t81 10.5zM377 282q-2 121 -22.5 173.5t-71.5 52.5
q-86 0 -86 -130q0 -134 93 -134q51 0 87 38z" />
    <glyph glyph-name="zero.taboldstyle" horiz-adv-x="580" 
d="M291 -14q-133 0 -201.5 81.5t-68.5 224.5q0 141 68.5 222.5t200.5 81.5q133 0 201.5 -81.5t68.5 -222.5q0 -142 -68.5 -224t-200.5 -82zM290 74q55 0 75.5 47t20.5 171q0 123 -20.5 169.5t-75.5 46.5q-54 0 -75 -47t-21 -169q0 -124 21 -171t75 -47z" />
    <glyph glyph-name="one.taboldstyle" horiz-adv-x="580" 
d="M96 0v93h129v362l-131 -30v98q19 5 182 60h110v-490h117v-93h-407z" />
    <glyph glyph-name="two.taboldstyle" horiz-adv-x="580" 
d="M30 0v103q15 11 60 35.5t86.5 50.5t85.5 60t70.5 76.5t26.5 87.5q0 89 -81 89t-100 -123q-113 4 -147 30q12 77 72.5 132t181.5 55q117 0 178.5 -52t61.5 -138q0 -24 -7 -47.5t-16 -42t-27 -38t-31 -32.5t-39 -29.5t-38.5 -24.5t-41.5 -22t-37 -17.5t-36 -14.5l-28 -12
v-2h308v-124h-502z" />
    <glyph glyph-name="three.taboldstyle" horiz-adv-x="580" 
d="M188 208v92h28q75 0 107.5 29t32.5 86q0 87 -83 87q-73 0 -92 -84q-36 2 -78 12t-56 21q16 64 75 104.5t165 40.5q111 0 172 -46.5t61 -128.5q0 -66 -36 -104.5t-94 -52.5v-4q62 -11 102 -51t40 -114q0 -95 -67 -149.5t-186 -54.5q-107 0 -166.5 40t-73.5 97q17 13 58 25
t75 16q23 -84 99 -84q47 0 72 29.5t25 78.5q0 57 -35 86t-117 29h-28z" />
    <glyph glyph-name="four.taboldstyle" horiz-adv-x="580" 
d="M21 56v103l294 424h174v-419h74v-108h-74v-149h-161v149h-307zM144 164h184v119q0 51 3 159h-2q-30 -57 -90 -142z" />
    <glyph glyph-name="five.taboldstyle" horiz-adv-x="580" 
d="M64 199l13 384h436v-124h-339l-7 -168q50 47 151 47q111 0 167 -57.5t56 -152.5q0 -111 -69.5 -173.5t-191.5 -62.5q-99 0 -158 39.5t-77 99.5q17 13 56 25.5t73 17.5q25 -88 101 -88q49 0 75 33t26 94q0 54 -23.5 89t-77.5 35q-59 0 -91 -38h-120z" />
    <glyph glyph-name="six.taboldstyle" horiz-adv-x="580" 
d="M207 366q56 48 147 48q103 0 150.5 -55.5t47.5 -140.5q0 -101 -64 -167t-184 -66q-134 0 -201.5 89t-67.5 253q0 172 71.5 267.5t209.5 95.5q185 0 225 -165q-17 -14 -62.5 -23.5t-86.5 -9.5q-10 56 -30 83.5t-55 27.5q-48 0 -72 -53.5t-28 -183.5zM207 285
q3 -116 25.5 -164.5t70.5 -48.5q85 0 85 130q0 62 -21.5 92t-68.5 30q-52 0 -91 -39z" />
    <glyph glyph-name="seven.taboldstyle" horiz-adv-x="580" 
d="M113 -93v10l293 542h-354v124h480v-115l-237 -561h-182z" />
    <glyph glyph-name="eight.taboldstyle" horiz-adv-x="580" 
d="M163 360v3q-111 36 -111 147q0 82 63 131t176 49q112 0 174 -49t62 -131q0 -110 -111 -148v-2q136 -42 136 -173q0 -94 -66.5 -148t-195.5 -54t-196.5 54.5t-67.5 148.5q0 130 137 172zM290 73q93 0 93 121q0 122 -93 122q-95 0 -95 -122q0 -121 95 -121zM290 402
q83 0 83 102q0 98 -83 98q-84 0 -84 -98q0 -102 84 -102z" />
    <glyph glyph-name="nine.taboldstyle" horiz-adv-x="580" 
d="M186 88q18 -110 88 -110q46 0 69.5 50t27.5 174q-55 -45 -141 -45q-102 0 -152 59t-50 147q0 100 63.5 166.5t184.5 66.5q138 0 203.5 -91t65.5 -253q0 -172 -70.5 -266.5t-209.5 -94.5q-184 0 -228 164q23 13 68 22.5t81 10.5zM372 282q-2 121 -22.5 173.5t-71.5 52.5
q-86 0 -86 -130q0 -134 93 -134q51 0 87 38z" />
    <glyph glyph-name="zero.tab" horiz-adv-x="580" 
d="M291 -15q-136 0 -203 93.5t-67 259.5t67 259t202 93q136 0 203 -93t67 -259t-67 -259.5t-202 -93.5zM290 74q54 0 75 58t21 205t-20.5 205.5t-74.5 58.5t-75.5 -58.5t-21.5 -205.5t21 -205t75 -58z" />
    <glyph glyph-name="one.tab" horiz-adv-x="580" 
d="M95 0v93h129v455l-131 -30v98q19 5 182 60h110v-583h117v-93h-407z" />
    <glyph glyph-name="two.tab" horiz-adv-x="580" 
d="M36 0v103q11 9 44.5 34.5t53.5 40.5t53.5 43.5t54.5 50t47 52.5t40.5 57.5t25 58.5t10.5 63q0 93 -83 93q-79 0 -98 -123q-113 4 -147 30q6 36 21.5 67t43.5 59t76.5 44.5t111.5 16.5q117 0 179 -54t62 -146q0 -59 -25 -112t-73.5 -99t-97 -80t-115.5 -73v-2h318v-124
h-502z" />
    <glyph glyph-name="three.tab" horiz-adv-x="580" 
d="M183 302v92h28q75 0 107.5 29t32.5 86q0 87 -83 87q-73 0 -92 -84q-36 2 -78 12t-56 21q16 64 75 104.5t165 40.5q111 0 172 -46.5t61 -128.5q0 -66 -36 -104.5t-94 -52.5v-4q62 -11 102 -51t40 -114q0 -95 -67 -149.5t-186 -54.5q-107 0 -166.5 40t-73.5 97q17 13 58 25
t75 16q23 -84 99 -84q47 0 72 29.5t25 78.5q0 57 -35 86t-117 29h-28z" />
    <glyph glyph-name="four.tab" horiz-adv-x="580" 
d="M21 149v103l294 424h174v-419h74v-108h-74v-149h-161v149h-307zM144 257h184v119q0 51 3 159h-2q-30 -57 -90 -142z" />
    <glyph glyph-name="five.tab" horiz-adv-x="580" 
d="M61 292l13 384h436v-124h-339l-7 -168q50 47 151 47q111 0 167 -57.5t56 -152.5q0 -111 -69.5 -173.5t-191.5 -62.5q-99 0 -158 39.5t-77 99.5q17 13 56 25.5t73 17.5q25 -88 101 -88q49 0 75 33t26 94q0 54 -23.5 89t-77.5 35q-59 0 -91 -38h-120z" />
    <glyph glyph-name="six.tab" horiz-adv-x="580" 
d="M210 366q56 48 147 48q103 0 150.5 -55.5t47.5 -140.5q0 -101 -64 -167t-184 -66q-134 0 -201.5 89t-67.5 253q0 172 71.5 267.5t209.5 95.5q185 0 225 -165q-17 -14 -62.5 -23.5t-86.5 -9.5q-10 56 -30 83.5t-55 27.5q-48 0 -72 -53.5t-28 -183.5zM210 285
q3 -116 25.5 -164.5t70.5 -48.5q85 0 85 130q0 62 -21.5 92t-68.5 30q-52 0 -91 -39z" />
    <glyph glyph-name="seven.tab" horiz-adv-x="580" 
d="M113 0v10l293 542h-354v124h480v-115l-237 -561h-182z" />
    <glyph glyph-name="eight.tab" horiz-adv-x="580" 
d="M163 360v3q-111 36 -111 147q0 82 63 131t176 49q112 0 174 -49t62 -131q0 -110 -111 -148v-2q136 -42 136 -173q0 -94 -66.5 -148t-195.5 -54t-196.5 54.5t-67.5 148.5q0 130 137 172zM290 73q93 0 93 121q0 122 -93 122q-95 0 -95 -122q0 -121 95 -121zM290 402
q83 0 83 102q0 98 -83 98q-84 0 -84 -98q0 -102 84 -102z" />
    <glyph glyph-name="nine.tab" horiz-adv-x="580" 
d="M183 182q18 -110 88 -110q46 0 69.5 50t27.5 174q-55 -45 -141 -45q-102 0 -152 59t-50 147q0 100 63.5 166.5t184.5 66.5q138 0 203.5 -91t65.5 -253q0 -172 -70.5 -266.5t-209.5 -94.5q-184 0 -228 164q23 13 68 22.5t81 10.5zM369 376q-2 121 -22.5 173.5t-71.5 52.5
q-86 0 -86 -130q0 -134 93 -134q51 0 87 38z" />
    <glyph glyph-name="zero.cap" horiz-adv-x="601" 
d="M301 -15q-136 0 -203 96.5t-67 267.5t67 267.5t202 96.5q136 0 203 -96.5t67 -266.5q0 -172 -67 -268.5t-202 -96.5zM300 74q54 0 75 61t21 214q0 152 -21 213.5t-74 61.5q-54 0 -75.5 -61.5t-21.5 -214.5q0 -152 21 -213t75 -61z" />
    <glyph glyph-name="one.cap" horiz-adv-x="471" 
d="M40 0v93h129v478l-131 -31v97q11 3 44.5 14.5t76.5 27t61 21.5h110v-607h117v-93h-407z" />
    <glyph glyph-name="two.cap" horiz-adv-x="561" 
d="M27 0v103q10 8 45 35.5t53.5 42.5t53 45.5t55 52.5t46.5 54.5t40.5 60t25 61t10.5 65.5q0 99 -83 99q-79 0 -98 -127q-113 4 -147 31q13 80 72.5 135t180.5 55q117 0 179 -55.5t62 -150.5q0 -61 -25.5 -116.5t-73.5 -103.5t-96.5 -84t-115.5 -77v-2h318v-124h-502z" />
    <glyph glyph-name="three.cap" horiz-adv-x="545" 
d="M164 314v92h28q140 0 140 121q0 93 -83 93q-73 0 -92 -86q-36 2 -78 12t-56 21q16 65 75 106t165 41q111 0 172 -48t61 -132q0 -69 -36 -109t-94 -55v-4q62 -11 102 -52.5t40 -118.5q0 -98 -67 -154t-186 -56q-107 0 -166.5 40.5t-73.5 98.5q17 13 58.5 25.5t74.5 16.5
q22 -87 99 -87q47 0 72 31t25 83q0 60 -35 90.5t-117 30.5h-28z" />
    <glyph glyph-name="four.cap" horiz-adv-x="590" 
d="M24 156v102l294 442h174v-435h74v-109h-74v-156h-161v156h-307zM147 265h184v127q0 50 3 167h-2q-26 -51 -90 -149z" />
    <glyph glyph-name="five.cap" horiz-adv-x="550" 
d="M41 304l13 396h436v-124h-339l-7 -179q51 48 151 48q111 0 167 -59.5t56 -157.5q0 -114 -69.5 -178.5t-191.5 -64.5q-99 0 -158 40t-77 101q17 12 56 25.5t73 18.5q25 -91 101 -91q49 0 75 35t26 99q0 57 -23.5 94t-77.5 37q-59 0 -91 -40h-120z" />
    <glyph glyph-name="six.cap" horiz-adv-x="591" 
d="M213 378q57 50 143 50q105 0 153.5 -57.5t48.5 -145.5q0 -104 -64 -172t-184 -68q-134 0 -201.5 92t-67.5 261q0 178 71.5 276.5t209.5 98.5q185 0 225 -169q-17 -14 -62.5 -23.5t-86.5 -9.5q-10 58 -30 86.5t-55 28.5q-48 0 -72 -56.5t-28 -191.5zM213 298
q2 -122 24.5 -174t71.5 -52q85 0 85 137q0 65 -21.5 96.5t-68.5 31.5q-56 0 -91 -39z" />
    <glyph glyph-name="seven.cap" horiz-adv-x="530" 
d="M89 0v10l293 566h-354v124h480v-115l-237 -585h-182z" />
    <glyph glyph-name="eight.cap" horiz-adv-x="590" 
d="M169 372v3q-111 37 -111 153q0 84 63 134.5t176 50.5q112 0 174 -50.5t62 -134.5q0 -114 -111 -154v-2q136 -44 136 -179q0 -97 -66.5 -152.5t-195.5 -55.5t-196.5 56t-67.5 153q0 134 137 178zM296 73q93 0 93 127q0 128 -93 128q-95 0 -95 -128q0 -127 95 -127z
M296 414q83 0 83 108q0 103 -83 103q-84 0 -84 -103q0 -108 84 -108z" />
    <glyph glyph-name="nine.cap" horiz-adv-x="591" 
d="M191 186q18 -114 88 -114q45 0 69 52t28 179q-53 -43 -137 -43q-104 0 -155 61t-51 152q0 104 63.5 172t184.5 68q139 0 204 -93.5t65 -261.5q0 -177 -71 -275t-209 -98q-184 0 -228 168q23 13 68 22.5t81 10.5zM377 388q-2 126 -22.5 181.5t-71.5 55.5q-86 0 -86 -137
q0 -139 93 -139q52 0 87 39z" />
    <glyph glyph-name="zero.numerator" horiz-adv-x="435" 
d="M221 258q-95 0 -141.5 56.5t-46.5 156.5q0 101 46 157.5t141 56.5t140.5 -56.5t45.5 -157.5q0 -100 -45.5 -156.5t-139.5 -56.5zM220 315q34 0 46.5 34t12.5 122q0 87 -12.5 121t-46.5 34q-33 0 -46 -34t-13 -121q0 -88 13 -122t46 -34z" />
    <glyph glyph-name="one.numerator" horiz-adv-x="359" 
d="M60 267v59h78v265l-78 -12v62q7 2 117 35h80v-350h66v-59h-263z" />
    <glyph glyph-name="two.numerator" horiz-adv-x="406" 
d="M33 267v68q103 70 141 107q71 68 71 129q0 52 -47 52q-48 0 -59 -76q-78 2 -107 20q7 49 47.5 83.5t119.5 34.5q81 0 121.5 -32.5t40.5 -88.5q0 -66 -53 -116t-143 -97v-2h199v-82h-331z" />
    <glyph glyph-name="three.numerator" horiz-adv-x="388" 
d="M122 445v59h21q87 0 87 68q0 51 -50 51q-42 0 -54 -51q-71 5 -96 23q25 90 159 90q76 0 116.5 -28t40.5 -78q0 -40 -24 -64.5t-62 -32.5v-3q95 -18 95 -100q0 -57 -43 -89t-123 -32q-71 0 -112 24.5t-50 58.5q31 20 96 30q17 -53 61 -53q56 0 56 59q0 68 -97 68h-21z" />
    <glyph glyph-name="four.numerator" horiz-adv-x="415" 
d="M32 358v71l183 247h122v-246h47v-72h-47v-91h-116v91h-189zM109 430h116v156h-3z" />
    <glyph glyph-name="five.numerator" horiz-adv-x="391" 
d="M45 441l9 235h290v-83h-222l-4 -93q31 28 101 28q71 0 107.5 -35t36.5 -95q0 -65 -45.5 -102.5t-127.5 -37.5q-67 0 -106.5 25t-51.5 61q30 21 94 29q17 -55 62 -55q59 0 59 72q0 31 -15.5 52.5t-47.5 21.5q-40 0 -58 -23h-81z" />
    <glyph glyph-name="six.numerator" horiz-adv-x="413" 
d="M162 490q37 28 97 28q65 0 96.5 -33.5t31.5 -83.5q0 -64 -42.5 -103.5t-128.5 -39.5q-88 0 -133.5 57t-45.5 156q0 100 46 157t135 57q132 0 156 -104q-14 -9 -50 -15t-57 -4q-5 34 -16.5 50t-32.5 16q-29 0 -42 -30t-14 -108zM162 442q2 -70 14.5 -98.5t39.5 -28.5
q51 0 51 76q0 70 -55 70q-29 0 -50 -19z" />
    <glyph glyph-name="seven.numerator" horiz-adv-x="388" 
d="M76 267v6l193 320h-230v83h318v-77l-154 -332h-127z" />
    <glyph glyph-name="eight.numerator" horiz-adv-x="417" 
d="M123 484v3q-73 21 -73 88q0 50 42 80t119 30t118.5 -30t41.5 -80q0 -66 -73 -89v-2q90 -24 90 -105q0 -57 -44.5 -89t-132.5 -32q-89 0 -133.5 32.5t-44.5 88.5q0 79 90 105zM211 316q29 0 42 17t13 53q0 73 -55 73q-56 0 -56 -73q0 -70 56 -70zM211 510q50 0 50 60
q0 56 -50 56q-51 0 -51 -56q0 -60 51 -60z" />
    <glyph glyph-name="nine.numerator" horiz-adv-x="413" 
d="M44 360q38 21 108 21q8 -67 49 -67q29 0 42 29.5t14 102.5q-37 -28 -95 -28q-66 0 -98 35.5t-32 89.5q0 61 42 101.5t128 40.5q88 0 134 -57t46 -156q0 -97 -46 -155.5t-135 -58.5q-127 0 -157 102zM257 495q-2 70 -15 100.5t-42 30.5q-48 0 -48 -79q0 -72 53 -72
q32 0 52 20z" />
    <glyph glyph-name="zero.denominator" horiz-adv-x="435" 
d="M221 -9q-95 0 -141.5 56.5t-46.5 156.5q0 101 46 157.5t141 56.5t140.5 -56.5t45.5 -157.5q0 -100 -45.5 -156.5t-139.5 -56.5zM220 48q34 0 46.5 34t12.5 122q0 87 -12.5 121t-46.5 34q-33 0 -46 -34t-13 -121q0 -88 13 -122t46 -34z" />
    <glyph glyph-name="one.denominator" horiz-adv-x="359" 
d="M60 0v59h78v265l-78 -12v62q7 2 117 35h80v-350h66v-59h-263z" />
    <glyph glyph-name="two.denominator" horiz-adv-x="406" 
d="M33 0v68q103 70 141 107q71 68 71 129q0 52 -47 52q-48 0 -59 -76q-78 2 -107 20q7 49 47.5 83.5t119.5 34.5q81 0 121.5 -32.5t40.5 -88.5q0 -66 -53 -116t-143 -97v-2h199v-82h-331z" />
    <glyph glyph-name="three.denominator" horiz-adv-x="388" 
d="M122 178v59h21q87 0 87 68q0 51 -50 51q-42 0 -54 -51q-71 5 -96 23q25 90 159 90q76 0 116.5 -28t40.5 -78q0 -40 -24 -64.5t-62 -32.5v-3q95 -18 95 -100q0 -57 -43 -89t-123 -32q-71 0 -112 24.5t-50 58.5q31 20 96 30q17 -53 61 -53q56 0 56 59q0 68 -97 68h-21z" />
    <glyph glyph-name="four.denominator" horiz-adv-x="415" 
d="M32 91v71l183 247h122v-246h47v-72h-47v-91h-116v91h-189zM109 163h116v156h-3z" />
    <glyph glyph-name="five.denominator" horiz-adv-x="391" 
d="M45 174l9 235h290v-83h-222l-4 -93q31 28 101 28q71 0 107.5 -35t36.5 -95q0 -65 -45.5 -102.5t-127.5 -37.5q-67 0 -106.5 25t-51.5 61q30 21 94 29q17 -55 62 -55q59 0 59 72q0 31 -15.5 52.5t-47.5 21.5q-40 0 -58 -23h-81z" />
    <glyph glyph-name="six.denominator" horiz-adv-x="413" 
d="M162 223q37 28 97 28q65 0 96.5 -33.5t31.5 -83.5q0 -64 -42.5 -103.5t-128.5 -39.5q-88 0 -133.5 57t-45.5 156q0 100 46 157t135 57q132 0 156 -104q-14 -9 -50 -15t-57 -4q-5 34 -16.5 50t-32.5 16q-29 0 -42 -30t-14 -108zM162 175q2 -70 14.5 -98.5t39.5 -28.5
q51 0 51 76q0 70 -55 70q-29 0 -50 -19z" />
    <glyph glyph-name="seven.denominator" horiz-adv-x="388" 
d="M76 0v6l193 320h-230v83h318v-77l-154 -332h-127z" />
    <glyph glyph-name="eight.denominator" horiz-adv-x="417" 
d="M123 217v3q-73 21 -73 88q0 50 42 80t119 30t118.5 -30t41.5 -80q0 -66 -73 -89v-2q90 -24 90 -105q0 -57 -44.5 -89t-132.5 -32q-89 0 -133.5 32.5t-44.5 88.5q0 80 90 105zM211 49q29 0 42 17t13 53q0 73 -55 73q-56 0 -56 -73q0 -70 56 -70zM211 243q50 0 50 60
q0 56 -50 56q-51 0 -51 -56q0 -60 51 -60z" />
    <glyph glyph-name="nine.denominator" horiz-adv-x="413" 
d="M44 93q38 21 108 21q8 -67 49 -67q29 0 42 29.5t14 102.5q-37 -28 -95 -28q-66 0 -98 35.5t-32 89.5q0 61 42 101.5t128 40.5q88 0 134 -57t46 -156q0 -97 -46 -155.5t-135 -58.5q-127 0 -157 102zM257 228q-2 70 -15 100.5t-42 30.5q-48 0 -48 -79q0 -72 53 -72
q32 0 52 20z" />
    <glyph glyph-name="l.ss01" horiz-adv-x="305" 
d="M55 148v556q88 0 155 8v-561q0 -36 12.5 -51t44.5 -15q18 0 30 3q3 -14 3 -46q0 -22 -2 -42q-24 -12 -76 -12q-94 0 -130.5 36t-36.5 124z" />
    <glyph glyph-name="lacute.ss01" horiz-adv-x="305" 
d="M55 148v556q88 0 155 8v-561q0 -36 12.5 -51t44.5 -15q18 0 30 3q3 -14 3 -46q0 -22 -2 -42q-24 -12 -76 -12q-94 0 -130.5 36t-36.5 124zM67 751l58 129q17 6 73 6q72 0 88 -6l-115 -129q-15 -5 -53 -5q-43 0 -51 5z" />
    <glyph glyph-name="lcaron.ss01" horiz-adv-x="425" 
d="M55 148v556q88 0 155 8v-561q0 -36 12.5 -51t44.5 -15q18 0 30 3q3 -14 3 -46q0 -22 -2 -42q-24 -12 -76 -12q-94 0 -130.5 36t-36.5 124zM273 489q21 14 38 38.5t21 47.5q-28 4 -44.5 22t-16.5 47q0 34 18 52.5t50 18.5q75 0 75 -83q0 -65 -30 -111t-65 -62
q-16 1 -30 11.5t-16 18.5z" />
    <glyph glyph-name="lcommaaccent.ss01" horiz-adv-x="305" 
d="M55 148v556q88 0 155 8v-561q0 -36 12.5 -51t44.5 -15q18 0 30 3q3 -14 3 -46q0 -22 -2 -42q-24 -12 -76 -12q-94 0 -130.5 36t-36.5 124zM111 -230q50 28 55 61q-31 1 -48 17.5t-17 43.5q0 29 20.5 47t50.5 18q36 0 56.5 -19.5t20.5 -54.5q0 -56 -30 -90t-64 -42
q-34 2 -44 19z" />
    <glyph glyph-name="lslash.ss01" horiz-adv-x="385" 
d="M21 188v114l94 51v351q88 0 155 8v-284l94 53v-115l-94 -52v-163q0 -36 12.5 -51t44.5 -15q19 0 29 3q4 -20 4 -54q0 -18 -2 -34q-26 -12 -77 -12q-93 0 -129.5 36t-36.5 124v91z" />
    <glyph glyph-name="ldot.ss01" horiz-adv-x="447" 
d="M55 148v556q88 0 155 8v-561q0 -36 12.5 -51t44.5 -15q18 0 30 3q3 -14 3 -46q0 -22 -2 -42q-24 -12 -76 -12q-94 0 -130.5 36t-36.5 124zM272 385q0 33 21.5 52.5t57.5 19.5t58.5 -19.5t22.5 -52.5t-22.5 -53t-58.5 -20t-57.5 20t-21.5 53z" />
    <glyph glyph-name="g.ss02" horiz-adv-x="558" 
d="M348 -15v89q-51 -49 -128 -49q-94 0 -140.5 67.5t-46.5 186.5q0 118 46.5 185.5t142.5 67.5q85 0 135 -59v47q79 0 146 8v-494q0 -105 -52.5 -163t-180.5 -58q-87 0 -144.5 32t-74.5 92q14 13 59 24t80 12q6 -28 26 -50t59 -22q73 0 73 84zM348 144v269q-28 22 -64 22
q-46 0 -65 -36.5t-19 -119.5q0 -84 19 -120.5t65 -36.5q36 0 64 22z" />
    <glyph glyph-name="gcircumflex.ss02" horiz-adv-x="558" 
d="M348 -15v89q-51 -49 -128 -49q-94 0 -140.5 67.5t-46.5 186.5q0 118 46.5 185.5t142.5 67.5q85 0 135 -59v47q79 0 146 8v-494q0 -105 -52.5 -163t-180.5 -58q-87 0 -144.5 32t-74.5 92q14 13 59 24t80 12q6 -28 26 -50t59 -22q73 0 73 84zM348 144v269q-28 22 -64 22
q-46 0 -65 -36.5t-19 -119.5q0 -84 19 -120.5t65 -36.5q36 0 64 22zM132 582l80 146q18 6 78 6q62 0 81 -6l80 -146q-8 -5 -46 -5q-29 0 -44 5l-68 91h-2l-69 -91q-15 -5 -44 -5q-38 0 -46 5z" />
    <glyph glyph-name="gbreve.ss02" horiz-adv-x="558" 
d="M348 -15v89q-51 -49 -128 -49q-94 0 -140.5 67.5t-46.5 186.5q0 118 46.5 185.5t142.5 67.5q85 0 135 -59v47q79 0 146 8v-494q0 -105 -52.5 -163t-180.5 -58q-87 0 -144.5 32t-74.5 92q14 13 59 24t80 12q6 -28 26 -50t59 -22q73 0 73 84zM348 144v269q-28 22 -64 22
q-46 0 -65 -36.5t-19 -119.5q0 -84 19 -120.5t65 -36.5q36 0 64 22zM142 723q8 5 39 5q24 0 36 -4q13 -67 76 -67q61 0 73 67q11 4 36 4q31 0 39 -5q-2 -26 -9 -49.5t-22.5 -47t-45.5 -37.5t-71 -14q-78 0 -112.5 44.5t-38.5 103.5z" />
    <glyph glyph-name="gdotaccent.ss02" horiz-adv-x="558" 
d="M348 -15v89q-51 -49 -128 -49q-94 0 -140.5 67.5t-46.5 186.5q0 118 46.5 185.5t142.5 67.5q85 0 135 -59v47q79 0 146 8v-494q0 -105 -52.5 -163t-180.5 -58q-87 0 -144.5 32t-74.5 92q14 13 59 24t80 12q6 -28 26 -50t59 -22q73 0 73 84zM348 144v269q-28 22 -64 22
q-46 0 -65 -36.5t-19 -119.5q0 -84 19 -120.5t65 -36.5q36 0 64 22zM209 663q0 33 21.5 52.5t57.5 19.5t58.5 -19.5t22.5 -52.5t-22.5 -53t-58.5 -20t-57.5 20t-21.5 53z" />
    <glyph glyph-name="gcommaaccent.ss02" horiz-adv-x="558" 
d="M348 -15v89q-51 -49 -128 -49q-94 0 -140.5 67.5t-46.5 186.5q0 118 46.5 185.5t142.5 67.5q85 0 135 -59v47q79 0 146 8v-494q0 -105 -52.5 -163t-180.5 -58q-87 0 -144.5 32t-74.5 92q14 13 59 24t80 12q6 -28 26 -50t59 -22q73 0 73 84zM348 144v269q-28 22 -64 22
q-46 0 -65 -36.5t-19 -119.5q0 -84 19 -120.5t65 -36.5q36 0 64 22zM304 792q38 -2 45 -19q-48 -27 -55 -68q65 -10 65 -62q0 -30 -19 -48t-52 -18q-35 0 -56 20.5t-21 55.5q0 57 30 94.5t63 44.5z" />
    <glyph glyph-name="a.ss03" horiz-adv-x="565" 
d="M524 17l-134 -29q-21 26 -29 61q-53 -62 -136 -62q-98 0 -145 73t-47 200t47.5 199.5t144.5 72.5q84 0 138 -63v51q79 0 146 8v-367q0 -109 15 -144zM354 111v299q-28 25 -68 25q-48 0 -67 -39.5t-19 -135.5q0 -98 19 -136.5t67 -38.5q41 0 68 26z" />
    <glyph glyph-name="agrave.ss03" horiz-adv-x="565" 
d="M524 17l-134 -29q-21 26 -29 61q-53 -62 -136 -62q-98 0 -145 73t-47 200t47.5 199.5t144.5 72.5q84 0 138 -63v51q79 0 146 8v-367q0 -109 15 -144zM354 111v299q-28 25 -68 25q-48 0 -67 -39.5t-19 -135.5q0 -98 19 -136.5t67 -38.5q41 0 68 26zM251 582l-117 146
q17 6 87 6q55 0 72 -6l60 -146q-8 -5 -53 -5q-34 0 -49 5z" />
    <glyph glyph-name="aacute.ss03" horiz-adv-x="565" 
d="M524 17l-134 -29q-21 26 -29 61q-53 -62 -136 -62q-98 0 -145 73t-47 200t47.5 199.5t144.5 72.5q84 0 138 -63v51q79 0 146 8v-367q0 -109 15 -144zM354 111v299q-28 25 -68 25q-48 0 -67 -39.5t-19 -135.5q0 -98 19 -136.5t67 -38.5q41 0 68 26zM229 582l59 146
q17 6 72 6q72 0 88 -6l-117 -146q-15 -5 -49 -5q-45 0 -53 5z" />
    <glyph glyph-name="acircumflex.ss03" horiz-adv-x="565" 
d="M524 17l-134 -29q-21 26 -29 61q-53 -62 -136 -62q-98 0 -145 73t-47 200t47.5 199.5t144.5 72.5q84 0 138 -63v51q79 0 146 8v-367q0 -109 15 -144zM354 111v299q-28 25 -68 25q-48 0 -67 -39.5t-19 -135.5q0 -98 19 -136.5t67 -38.5q41 0 68 26zM133 582l80 146
q18 6 78 6q61 0 81 -6l80 -146q-8 -5 -46 -5q-29 0 -44 5l-68 91h-2l-69 -91q-15 -5 -44 -5q-38 0 -46 5z" />
    <glyph glyph-name="atilde.ss03" horiz-adv-x="565" 
d="M524 17l-134 -29q-21 26 -29 61q-53 -62 -136 -62q-98 0 -145 73t-47 200t47.5 199.5t144.5 72.5q84 0 138 -63v51q79 0 146 8v-367q0 -109 15 -144zM354 111v299q-28 25 -68 25q-48 0 -67 -39.5t-19 -135.5q0 -98 19 -136.5t67 -38.5q41 0 68 26zM111 590
q27 131 119 131q34 0 73 -26t59 -26q31 0 50 49q6 2 31 2q24 0 30 -2q-16 -71 -43.5 -100.5t-66.5 -29.5q-38 0 -78 25.5t-59 25.5q-32 0 -54 -49q-6 -2 -27 -2q-28 0 -34 2z" />
    <glyph glyph-name="adieresis.ss03" horiz-adv-x="565" 
d="M524 17l-134 -29q-21 26 -29 61q-53 -62 -136 -62q-98 0 -145 73t-47 200t47.5 199.5t144.5 72.5q84 0 138 -63v51q79 0 146 8v-367q0 -109 15 -144zM354 111v299q-28 25 -68 25q-48 0 -67 -39.5t-19 -135.5q0 -98 19 -136.5t67 -38.5q41 0 68 26zM193 583
q-33 0 -52.5 20.5t-19.5 52.5q0 31 19.5 50.5t52.5 19.5q34 0 53.5 -19.5t19.5 -50.5q0 -32 -19.5 -52.5t-53.5 -20.5zM395 583q-33 0 -52.5 20.5t-19.5 52.5q0 31 19.5 50.5t52.5 19.5q34 0 54 -19.5t20 -50.5q0 -32 -20 -52.5t-54 -20.5z" />
    <glyph glyph-name="amacron.ss03" horiz-adv-x="565" 
d="M524 17l-134 -29q-21 26 -29 61q-53 -62 -136 -62q-98 0 -145 73t-47 200t47.5 199.5t144.5 72.5q84 0 138 -63v51q79 0 146 8v-367q0 -109 15 -144zM354 111v299q-28 25 -68 25q-48 0 -67 -39.5t-19 -135.5q0 -98 19 -136.5t67 -38.5q41 0 68 26zM133 609v95h313v-95
h-313z" />
    <glyph glyph-name="abreve.ss03" horiz-adv-x="565" 
d="M524 17l-134 -29q-21 26 -29 61q-53 -62 -136 -62q-98 0 -145 73t-47 200t47.5 199.5t144.5 72.5q84 0 138 -63v51q79 0 146 8v-367q0 -109 15 -144zM354 111v299q-28 25 -68 25q-48 0 -67 -39.5t-19 -135.5q0 -98 19 -136.5t67 -38.5q41 0 68 26zM140 723q8 5 39 5
q24 0 36 -4q13 -67 76 -67q61 0 73 67q11 4 36 4q31 0 39 -5q-2 -26 -9 -49.5t-22.5 -47t-45.5 -37.5t-71 -14q-78 0 -112.5 44.5t-38.5 103.5z" />
    <glyph glyph-name="aring.ss03" horiz-adv-x="565" 
d="M524 17l-134 -29q-21 26 -29 61q-53 -62 -136 -62q-98 0 -145 73t-47 200t47.5 199.5t144.5 72.5q84 0 138 -63v51q79 0 146 8v-367q0 -109 15 -144zM354 111v299q-28 25 -68 25q-48 0 -67 -39.5t-19 -135.5q0 -98 19 -136.5t67 -38.5q41 0 68 26zM180 666q0 45 30 73.5
t78 28.5t78 -28.5t30 -73.5t-30.5 -73.5t-77.5 -28.5t-77.5 28.5t-30.5 73.5zM288 613q22 0 33 14.5t11 38.5t-11 38.5t-33 14.5t-33 -14.5t-11 -38.5t11 -38.5t33 -14.5z" />
    <glyph glyph-name="aogonek.ss03" horiz-adv-x="565" 
d="M500 -139l23 -50q-12 -12 -44 -23.5t-74 -11.5q-113 0 -113 89q0 75 95 127q-19 22 -26 57q-53 -62 -136 -62q-98 0 -145 73t-47 200t47.5 199.5t144.5 72.5q84 0 138 -63v51q79 0 146 8v-367q0 -109 15 -144q-114 -58 -114 -127q0 -22 11 -31t35 -9t44 11zM354 111v299
q-28 25 -68 25q-48 0 -67 -39.5t-19 -135.5q0 -98 19 -136.5t67 -38.5q41 0 68 26z" />
    <glyph glyph-name="t.ss04" horiz-adv-x="370" 
d="M83 153v278h-68v89h20q53 0 72.5 22.5t33.5 97.5q48 0 97 5v-125h108v-89h-108v-269q0 -44 14 -60.5t54 -16.5q24 0 41 6q4 -9 4 -51q0 -31 -2 -39q-23 -13 -90 -13q-94 0 -135 35.5t-41 129.5z" />
    <glyph glyph-name="tcaron.ss04" horiz-adv-x="422" 
d="M83 153v278h-68v89h20q53 0 72.5 22.5t33.5 97.5q48 0 97 5v-125h108v-89h-108v-269q0 -44 14 -60.5t54 -16.5q24 0 41 6q4 -9 4 -51q0 -31 -2 -39q-23 -13 -90 -13q-94 0 -135 35.5t-41 129.5zM288 602q21 14 38 38.5t21 47.5q-28 4 -44.5 22t-16.5 47q0 34 18 52.5
t50 18.5q75 0 75 -83q0 -65 -30 -111t-65 -62q-16 1 -30 11.5t-16 18.5z" />
    <glyph glyph-name="tcommaaccent.ss04" horiz-adv-x="370" 
d="M115 -202l13 43q25 -16 57 -16q43 0 43 36q0 16 -13 27t-28 14.5t-40 7.5l26 88q-47 14 -68.5 50t-21.5 105v278h-68v89h20q53 0 72.5 22.5t33.5 97.5q48 0 97 5v-125h108v-89h-108v-269q0 -44 14 -60.5t54 -16.5q24 0 41 6q4 -9 4 -51q0 -31 -2 -39q-23 -13 -90 -13
q-17 0 -25 1l-13 -42q27 -5 45 -11.5t35.5 -26t17.5 -48.5q0 -43 -30.5 -65.5t-78.5 -22.5q-63 0 -95 25z" />
    </font>
</defs>
</svg>
